<svg width="470" height="471" viewBox="0 0 470 471" fill="none" xmlns="http://www.w3.org/2000/svg">
<path d="M244.793 461.709C216.202 461.709 193.245 457.716 181.35 455.502C135.306 446.925 96.4364 440.875 63.0414 410.683C57.039 405.256 51.5301 399.357 46.511 393.061C127.526 394.939 323.129 398.377 412.822 398.42C401.264 410.079 390.93 417.08 382.951 422.411C335.852 453.882 284.809 461.709 244.793 461.709ZM465.018 295.599C465.168 252.921 464.303 205.687 460.752 172.828C471.274 212.747 472.989 255.694 465.018 295.599ZM452.152 145.961C448.03 141.928 442.459 139.412 436.344 139.217C408.636 138.329 339.252 136.597 264.078 135.067L265.173 37.1624L148.883 77.4828L145.706 119.89L208.981 134.008C149.322 132.931 91.4352 132.139 52.7404 132.139C46.7247 132.139 41.1768 132.158 36.1543 132.198C40.0343 124.606 44.2677 117.279 48.833 110.298C55.7081 99.7863 113.604 13.9021 206.114 1.80106C208.376 1.5051 210.064 1.33691 211.542 1.18054C215.158 0.797119 223.522 3.05176e-05 235.164 3.05176e-05C269.612 3.05176e-05 332.798 6.97208 386.847 52.287C397.198 60.9659 413.856 76.6185 429.302 100.493C438.403 114.559 446.041 129.862 452.152 145.961Z" fill="url(#paint0_linear)"/>
<path d="M203.452 377.018L195.093 451.995H292.084L279.45 377.018H203.452Z" fill="#6564C4"/>
<path d="M414.478 398.42C413.929 398.42 413.379 398.42 412.822 398.42C323.129 398.377 127.527 394.939 46.5112 393.061C40.5118 392.923 35.1358 392.792 30.4826 392.671C13.5208 392.234 0 378.359 0 361.393V155.137C0 142.771 9.87117 132.672 22.2335 132.395C26.2497 132.306 30.9092 132.24 36.1546 132.198C41.1771 132.158 46.7249 132.139 52.7406 132.139C91.4355 132.139 149.322 132.931 208.981 134.008L257.369 144.805L27.2624 140.156C27.1471 140.154 27.0305 140.152 26.9155 140.152C19.2202 140.152 12.942 146.394 12.942 154.132V350.089C12.942 359.995 20.8939 368.067 30.7994 368.217L51.3807 368.471C52.5913 368.906 53.906 369.145 55.2786 369.145H95.2999C95.8497 369.145 96.3895 369.106 96.9176 369.032L430.698 373.156C430.787 373.157 430.878 373.159 430.967 373.159C440.665 373.159 448.567 365.312 448.604 355.581L449.273 161.374C449.298 154.352 443.703 148.597 436.684 148.428L263.967 144.938L264.078 135.067C339.252 136.597 408.636 138.329 436.345 139.217C442.459 139.412 448.03 141.928 452.152 145.961C455.71 149.44 458.187 154.051 458.998 159.269C459.645 163.436 460.227 167.973 460.752 172.828C464.303 205.687 465.168 252.921 465.018 295.599C464.907 327.567 464.226 356.978 463.68 375.9C463.325 388.223 453.339 398.086 441.015 398.267C433.92 398.372 424.96 398.42 414.478 398.42Z" fill="#2D2D9A"/>
<path d="M430.967 373.159C430.878 373.159 430.787 373.157 430.698 373.155L96.918 369.032C102.113 368.307 106.096 364.14 106.096 359.109V261.549C106.096 256.008 101.263 251.515 95.3003 251.515H50.1399C43.97 251.515 39.0546 256.312 39.3563 262.04L44.4953 359.6C44.7099 363.671 47.5134 367.076 51.3811 368.47L30.7998 368.217C20.8943 368.067 12.9424 359.995 12.9424 350.089V154.132C12.9424 146.394 19.2206 140.152 26.9159 140.152C27.0309 140.152 27.1475 140.154 27.2628 140.156L257.369 144.805L263.953 146.273L263.968 144.938L436.685 148.428C443.704 148.597 449.299 154.352 449.274 161.374L448.604 355.581C448.567 365.312 440.665 373.159 430.967 373.159ZM130.283 251.515C124.32 251.515 119.486 256.008 119.486 261.549V359.109C119.486 364.651 124.32 369.145 130.283 369.145H204.09C210.053 369.145 214.886 364.651 214.886 359.109V261.549C214.886 256.008 210.053 251.515 204.09 251.515H130.283ZM204.093 162.992C204.038 162.992 203.981 162.992 203.924 162.994L45.4302 165.269C39.3263 165.357 34.5147 170.127 34.8132 175.794L37.4522 225.893C37.7338 231.238 42.4784 235.438 48.2358 235.438H204.09C210.053 235.438 214.886 230.945 214.886 225.402V173.028C214.886 167.477 210.043 162.992 204.093 162.992Z" fill="#6564C4"/>
<path d="M451.613 381.246H451.603L12.9312 373.771C12.5924 373.766 12.3228 373.487 12.3282 373.147C12.3343 372.809 12.6324 372.523 12.9516 372.545L451.623 380.02C451.963 380.025 452.232 380.304 452.227 380.642C452.22 380.979 451.948 381.246 451.613 381.246Z" fill="#91B3FA"/>
<path d="M236.605 381.246C234.428 381.246 232.655 383.018 232.655 385.198C232.655 387.375 234.428 389.148 236.605 389.148C238.785 389.148 240.557 387.375 240.557 385.198C240.557 383.018 238.785 381.246 236.605 381.246ZM236.605 390.374C233.752 390.374 231.428 388.051 231.428 385.198C231.428 382.342 233.752 380.02 236.605 380.02C239.461 380.02 241.783 382.342 241.783 385.198C241.783 388.051 239.461 390.374 236.605 390.374Z" fill="#91B3FA"/>
<path d="M312.977 467.335H171.024C167.166 467.335 164.271 464.591 165.017 461.641L166.838 454.437C167.385 452.271 169.77 450.68 172.6 450.593L309.447 446.322C312.405 446.231 315.024 447.8 315.668 450.052L318.952 461.525C319.805 464.507 316.895 467.335 312.977 467.335Z" fill="#2D2D9A"/>
<path d="M247.439 452.695C247.105 452.695 246.832 452.426 246.827 452.09C246.822 451.752 247.093 451.472 247.431 451.467L253.295 451.382C253.618 451.392 253.912 451.649 253.917 451.987C253.922 452.325 253.651 452.604 253.313 452.609L247.449 452.695H247.439Z" fill="white"/>
<path d="M170.271 463.515C170.24 463.515 170.206 463.513 170.174 463.506C169.839 463.454 169.612 463.14 169.666 462.805L170.502 457.565C170.963 454.678 173.419 452.55 176.344 452.507L238.542 451.599C238.89 451.593 239.159 451.864 239.164 452.202C239.169 452.54 238.899 452.819 238.559 452.824L176.362 453.734C174.035 453.768 172.079 455.46 171.713 457.758L170.877 462.998C170.828 463.299 170.567 463.515 170.271 463.515Z" fill="#91B3FA"/>
<path d="M95.3 369.145H55.2787C53.9062 369.145 52.5915 368.906 51.3809 368.471L96.9178 369.032C96.3897 369.106 95.8499 369.145 95.3 369.145Z" fill="url(#paint1_linear)"/>
<path d="M96.9186 369.032L51.3818 368.471C47.514 367.077 44.7106 363.671 44.496 359.6L39.3569 262.04C39.0552 256.313 43.9706 251.515 50.1406 251.515H95.3009C101.264 251.515 106.097 256.008 106.097 261.549V359.109C106.097 364.14 102.113 368.308 96.9186 369.032Z" fill="#7C7CD9"/>
<path d="M204.09 235.438H48.2356C42.4782 235.438 37.7336 231.238 37.452 225.894L34.813 175.794C34.5145 170.127 39.3261 165.357 45.43 165.269L203.923 162.994C203.98 162.992 204.038 162.992 204.093 162.992C210.043 162.992 214.886 167.477 214.886 173.028V225.403C214.886 230.945 210.053 235.438 204.09 235.438Z" fill="#7C7CD9"/>
<path d="M204.091 369.145H130.284C124.321 369.145 119.486 364.651 119.486 359.109V261.549C119.486 256.008 124.321 251.515 130.284 251.515H204.091C210.054 251.515 214.887 256.008 214.887 261.549V359.109C214.887 364.651 210.054 369.145 204.091 369.145Z" fill="#7C7CD9"/>
<path d="M156.871 369.145H139.106V359.008H156.871V369.145Z" fill="#91B3FA"/>
<path d="M186.556 369.145H168.791V342.108H186.556V369.145Z" fill="#91B3FA"/>
<path d="M216.242 369.145H198.476V330.153H216.242V369.145Z" fill="#91B3FA"/>
<path d="M245.925 369.145H228.16V314.197H245.925V369.145Z" fill="#91B3FA"/>
<path d="M275.609 369.145H257.844V293.729H275.609V369.145Z" fill="#91B3FA"/>
<path d="M305.296 369.145H287.529V266.73H305.296V369.145Z" fill="#91B3FA"/>
<path d="M334.979 369.145H317.214V233.851H334.979V369.145Z" fill="#91B3FA"/>
<path d="M364.664 369.145H346.899V199.238H364.664V369.145Z" fill="#91B3FA"/>
<path d="M394.35 369.145H376.583V173.59H394.35V369.145Z" fill="#91B3FA"/>
<path d="M459.62 468.64H322.687C318.321 468.64 314.781 466.025 314.781 462.8V365.122C314.781 361.902 318.308 359.29 322.666 359.28L460.693 359.008C465.085 359 468.644 361.635 468.62 364.88L467.525 462.83C467.504 466.044 463.97 468.64 459.62 468.64Z" fill="#7D97F4"/>
<path d="M452.91 366.485L330.469 367.041C326.044 367.061 322.476 369.725 322.496 372.994L323.35 455.147C323.371 458.367 326.868 460.987 331.227 461.044L450.192 462.649C454.635 462.709 458.298 460.089 458.36 456.807L460.98 372.493C461.044 369.174 457.403 366.463 452.91 366.485Z" fill="#91B3FA"/>
<path d="M447.932 374.102V374.726C447.932 375.705 446.857 376.499 445.532 376.499H351.193C349.868 376.499 348.793 375.705 348.793 374.726V374.102C348.793 373.124 349.868 372.33 351.193 372.33H445.532C446.857 372.33 447.932 373.124 447.932 374.102Z" fill="#BDD0FB"/>
<path d="M437.406 381.947C437.337 382.876 436.311 383.607 435.053 383.624L352.549 384.734C351.205 384.752 350.105 383.954 350.105 382.961V382.817C350.105 381.848 351.156 381.059 352.466 381.044L434.971 380.077C436.363 380.062 437.481 380.92 437.406 381.947Z" fill="#BDD0FB"/>
<path d="M454.204 395.641H454.209H454.204ZM337.107 390.892C334.667 390.892 332.587 392.261 332.545 393.914L329.672 451.938C329.654 452.668 330.064 453.255 330.411 453.615C331.256 454.491 332.664 455.021 334.177 455.034L445.769 456.025C445.787 456.025 445.806 456.025 445.826 456.025C448.266 456.025 450.35 454.647 450.388 452.998L453.065 395.602C453.081 394.854 452.675 394.274 452.332 393.917C451.495 393.048 450.099 392.515 448.597 392.493L337.201 390.892C337.169 390.892 337.139 390.892 337.107 390.892ZM445.831 458.3C445.804 458.3 445.776 458.3 445.749 458.3L334.157 457.309C332.017 457.291 330.054 456.521 328.774 455.196C327.856 454.246 327.369 453.058 327.399 451.853L330.271 393.828C330.345 390.946 333.399 388.617 337.105 388.617C337.149 388.617 337.191 388.617 337.235 388.617L448.631 390.217C450.758 390.249 452.704 391.023 453.972 392.34C454.883 393.286 455.369 394.469 455.341 395.668V395.695L452.662 453.078C452.593 456.006 449.598 458.3 445.831 458.3Z" fill="#BDD0FB"/>
<path d="M452.757 402.081H331.225C330.596 402.081 330.087 401.572 330.087 400.944C330.087 400.316 330.596 399.806 331.225 399.806H452.757C453.384 399.806 453.894 400.316 453.894 400.944C453.894 401.572 453.384 402.081 452.757 402.081Z" fill="#BDD0FB"/>
<path d="M227.661 425.274L228.727 463.316C228.809 466.271 232.828 468.64 237.759 468.64H362.312C367.301 468.64 371.346 466.215 371.346 463.225V427.62C371.346 424.697 367.476 422.303 362.603 422.209L236.985 419.77C231.824 419.671 227.573 422.18 227.661 425.274Z" fill="#7D97F4"/>
<path d="M237.971 428.981L240.674 463.963C240.778 465.307 242.645 466.358 244.888 466.333L358.305 465.135C360.567 465.112 362.378 464.007 362.378 462.652V432.312C362.378 430.988 360.644 429.895 358.438 429.83L242.318 426.384C239.875 426.312 237.859 427.516 237.971 428.981Z" fill="#BDD0FB"/>
<path d="M247.016 432.262V434.782C247.016 435.67 248.23 436.387 249.713 436.372L347.535 435.415C348.983 435.401 350.145 434.693 350.145 433.825C350.145 432.963 349 432.258 347.564 432.235L249.74 430.672C248.247 430.649 247.016 431.367 247.016 432.262Z" fill="url(#paint2_linear)"/>
<path d="M248.476 441.781V444.092C248.476 444.992 249.72 445.713 251.22 445.681L344.391 443.735C345.82 443.707 346.952 443.004 346.952 442.146V441.427C346.952 440.544 345.754 439.831 344.283 439.836L251.111 440.19C249.653 440.196 248.476 440.907 248.476 441.781Z" fill="url(#paint3_linear)"/>
<path d="M328.615 397.98C328.67 397.958 358.638 345.478 362.689 340.539C363.37 339.708 364.425 339.284 365.491 339.412L373.855 340.409L383.683 361.667L367.312 352.134C368.931 363.337 347.901 379.986 340.689 386.062C339.955 386.678 339.897 387.782 340.557 388.474L343.436 391.489C338.709 396.28 333.254 399.357 327.098 400.78L328.615 397.98Z" fill="url(#paint4_linear)"/>
<path d="M341.772 389.862C341.772 389.862 343.608 390.456 344.231 392.092C344.528 392.876 344.209 393.762 343.528 394.25C340.501 396.418 330.519 403.418 325.913 404.789C325.536 404.902 325.176 404.56 325.262 404.175C325.497 403.106 326.262 400.968 328.726 397.84L328.504 398.286C328.225 398.853 328.84 399.441 329.39 399.132C332.471 397.391 338.747 393.586 341.772 389.862Z" fill="#2D2D9A"/>
<path d="M340.288 410.861C340.338 410.829 344.833 399.996 344.884 399.964C349.007 374.864 359.065 353.368 362.032 347.713C362.531 346.761 363.478 346.133 364.547 346.041L372.94 345.325L386.866 364.156L368.904 358.132C372.759 368.775 355.532 389.336 349.698 396.746C349.106 397.497 349.271 398.59 350.058 399.135L353.489 401.505C349.83 407.153 345.109 411.271 339.368 413.91L340.288 410.861Z" fill="url(#paint5_linear)"/>
<path d="M351.528 400.248C351.528 400.248 353.448 400.457 354.388 401.935C354.839 402.641 354.705 403.575 354.136 404.19C351.61 406.926 343.253 415.8 339.019 418.076C338.672 418.262 338.252 418 338.257 417.606C338.272 416.51 338.588 414.263 340.367 410.701L340.241 411.184C340.081 411.795 340.804 412.247 341.279 411.832C343.944 409.504 349.32 404.506 351.528 400.248Z" fill="#2D2D9A"/>
<path d="M412.228 341.359C412.228 341.359 419.821 352.653 420.445 357.804C421.067 362.955 418.344 364.737 410.399 365.395C386.748 367.349 375.091 360.261 375.091 360.261C373.473 349.946 372.321 347.322 358.81 341.714C358.81 341.714 375.9 343.071 379.339 341.736C382.778 340.401 412.228 341.359 412.228 341.359Z" fill="#2D2D9A"/>
<path d="M389.762 274.777C389.762 274.777 393.531 276.287 394.346 278.273C395.002 279.867 399.043 279.788 399.672 282.971C399.997 284.614 401.32 285.854 402.99 285.988C407.149 286.323 413.64 288.003 415.168 295.073C416.334 300.467 413.704 302.734 410.838 303.659C408.734 304.338 407.461 306.524 408.05 308.655C408.615 310.7 408.168 313.142 404.71 315.296C396.965 320.124 387.894 306.388 387.894 306.388L384.448 281.512L389.762 274.777Z" fill="#2D2D9A"/>
<path d="M391.695 339.864C391.695 339.864 382.853 331.444 378.5 325.868C376.147 322.855 375.409 318.886 376.497 315.22C378.484 308.526 382.016 301.592 382.337 300.513C382.831 298.86 392.745 298.927 392.745 298.927C392.745 298.927 412.253 311.59 419.92 333.037L411.31 335.716C411.31 335.716 406.216 327.171 401.183 321.738C401.183 321.738 409.892 333.242 410.2 337.952L391.695 339.864Z" fill="#FF7542"/>
<path d="M374.849 343.187L381.491 335.958L389.164 338.025C389.164 338.025 398.111 339.41 403.23 338.025C408.35 336.639 408.35 336.639 408.35 336.639L419.92 333.037L421.736 338.171C422.197 339.476 421.734 340.924 420.606 341.724C419.605 342.436 418.432 343.218 417.685 343.544C416.161 344.211 382.586 343.756 382.586 343.756L374.849 343.187Z" fill="url(#paint6_linear)"/>
<path d="M387.797 286.384L392.596 299.398C392.156 302.104 385.343 302.179 384.291 300.563C384.185 300.4 384.123 300.21 384.082 300.018L381.926 289.841C381.755 289.034 382.138 288.211 382.866 287.823L385.515 286.414C386.536 285.871 387.445 285.284 387.797 286.384Z" fill="url(#paint7_linear)"/>
<path d="M380.856 274.427C380.856 274.427 377.514 277.057 376.44 283.222C375.365 289.387 377.975 291.383 380.481 291.069C382.985 290.754 386.575 289.715 389.422 285.142C392.269 280.572 385.25 271.19 380.856 274.427Z" fill="url(#paint8_linear)"/>
<path d="M386.06 282.929C386.06 282.929 386.724 274.16 379.614 276.004L378.268 277.626C378.268 277.626 374.455 273.907 378.141 270.625C381.828 267.342 387.3 267.722 390.688 272.972C394.077 278.223 395.44 281.984 393.174 285.561C390.907 289.138 388.808 286.362 388.808 286.362C388.808 286.362 389.748 283.338 388.702 282.146C387.656 280.953 386.566 283.037 386.566 283.037L386.06 282.929Z" fill="#2D2D9A"/>
<path d="M387.098 283.602C387.098 283.602 387.412 279.092 389.785 280.203C392.156 281.317 389.264 284.433 388.09 285.507L387.098 283.602Z" fill="url(#paint9_linear)"/>
<path d="M396.84 346.048C396.817 346.049 396.793 346.049 396.77 346.049L366.211 346.016C365.456 346.016 364.844 345.402 364.846 344.647C364.846 343.89 365.461 343.266 366.215 343.28L396.773 343.313C397.528 343.315 398.14 343.927 398.14 344.682C398.139 345.415 397.563 346.012 396.84 346.048Z" fill="#2D2D9A"/>
<path d="M338.743 318.303H364.191C366.069 318.303 367.778 319.385 368.578 321.084L380.343 346.031H348.716C347.507 346.031 346.421 345.293 345.975 344.168L336.853 321.082C336.325 319.749 337.308 318.303 338.743 318.303Z" fill="#2D2D9A"/>
<path d="M356.671 331.093C357.223 332.806 356.814 334.471 355.759 334.811C354.707 335.149 353.405 334.036 352.853 332.322C352.302 330.609 352.709 328.946 353.763 328.606C354.818 328.266 356.119 329.381 356.671 331.093Z" fill="#91B3FA"/>
<path d="M92.8086 155.763C92.8086 155.763 132.514 204.118 147.12 192.466C161.727 180.814 122.291 117.297 122.291 117.297L92.8086 155.763Z" fill="#FF7542"/>
<path d="M94.4323 469.738C94.4373 469.501 94.4205 469.262 94.36 469.02C90.7744 454.804 72.9771 445.948 72.9771 445.948L65.9247 446.501C61.8699 459.031 62.3909 466.716 63.042 470.139C63.06 470.234 63.0893 470.327 63.1147 470.419C68.9321 470.939 80.9064 471.279 94.4323 469.738Z" fill="#2D2D9A"/>
<path d="M63.0898 435.998L66.0767 450.376C66.2957 451.43 67.1052 452.219 68.0858 452.312C69.2861 452.424 70.9948 452.49 72.7133 452.238C74.2542 452.01 75.3274 450.445 75.0539 448.765L72.9778 435.998H63.0898Z" fill="url(#paint10_linear)"/>
<path d="M156.905 469.113C156.853 469.004 156.809 468.893 156.735 468.79C152.958 463.513 143.339 453.004 124.331 448.445L115.212 448.158C115.212 448.158 111.153 455.216 111.075 468.289C113.159 469.14 117.186 470.056 124.976 470.275C137.016 470.611 151.296 469.575 156.905 469.113Z" fill="#2D2D9A"/>
<path d="M113.521 434.338C113.622 435.019 114.872 445.35 115.356 449.354C115.471 450.307 116.16 451.042 117.029 451.146C118.583 451.333 121.096 451.501 123.294 451.05C124.479 450.806 125.338 449.668 125.338 448.343V432.127L113.521 434.338Z" fill="url(#paint11_linear)"/>
<path d="M106.207 245.816C106.207 245.816 128.199 329.398 127.802 434.579C127.794 436.496 126.448 438.151 124.572 438.546C121.805 439.128 117.741 439.82 114.376 439.726C112.58 439.676 111.078 438.342 110.776 436.571C107.691 418.487 89.9947 316.607 79.9114 300.068C79.9114 300.068 73.2775 390.806 75.3979 437.881C75.4507 439.052 74.5936 440.068 73.4297 440.202C71.6639 440.406 68.8394 440.56 65.2447 440.179C63.8801 440.034 62.7791 439.003 62.5842 437.644C60.3877 422.34 47.7447 331.236 48.2823 265.608C48.3125 261.907 58.0694 245.816 58.0694 245.816H106.207Z" fill="#2D2D9A"/>
<path d="M121.356 117.708C91.0878 113.33 57.8397 117.348 41.7032 119.379C36.4783 120.038 31.6996 122.615 28.2563 126.598C14.602 142.401 -15.3606 185.662 19.9064 229.255C24.4195 226.749 30.8328 222.734 35.1884 218.084C31.2866 207.084 30.967 193.029 39.1441 175.793C39.4235 177.16 39.7691 178.512 40.1889 179.844C51.4591 215.548 52.0605 245.261 52.0353 252.108C52.0316 253.038 52.5899 253.876 53.4534 254.22C68.2862 260.165 96.8394 256.627 106.423 255.199C108.18 254.937 109.364 253.301 109.12 251.54C105.749 227.114 117.196 191.393 126.3 167.948C129.897 158.682 123.239 120.306 121.356 117.708Z" fill="#FF7542"/>
<path d="M73.1116 82.2034L68.9329 116.747C68.7432 118.315 69.7073 119.796 71.2226 120.238C75.7585 121.565 85.4683 123.573 94.3412 119.922C96.0246 119.229 96.9545 117.407 96.5677 115.627L91.2857 91.3144L73.1116 82.2034Z" fill="url(#paint12_linear)"/>
<path d="M100.205 57.6514C100.466 58.1273 106.059 93.5963 106.059 93.5963L85.7383 96.3592L75.4434 63.5287C75.4434 63.5287 95.8381 49.6771 100.205 57.6514Z" fill="url(#paint13_linear)"/>
<path d="M82.9737 66.7962C82.3966 67.5041 82.1793 68.4341 82.3838 69.3254L86.3912 86.7757C86.452 87.0397 86.545 87.2919 86.6769 87.5307C87.4035 88.839 90.0524 92.8228 94.0613 89.8783C97.4783 87.3676 100.652 85.1075 103.414 84.6467C105.029 84.3793 106.541 85.5044 106.79 87.1221C107.301 90.4517 108.199 97.1917 108.157 103.291C108.145 104.82 106.946 106.076 105.421 106.182C101.397 106.466 93.5198 106.784 87.0033 105.615C85.9329 105.423 85.0593 104.662 84.7215 103.627C83.2344 99.0785 79.0147 86.3452 77.2705 82.9348C75.6497 79.7649 70.9312 79.2251 68.7505 79.1494C67.9228 79.1209 67.1507 78.7543 66.6084 78.1287C64.9816 76.2503 62.4383 72.0664 67.3404 67.9801C68.5593 66.9643 68.7034 65.1297 67.7128 63.8903C65.9375 61.6689 64.3939 58.082 68.1991 54.3252C72.0512 50.5213 76.4066 51.4849 79.1675 52.7714C80.3892 53.3414 81.898 53.0942 82.7718 52.0685C83.1604 51.6127 83.7359 51.3016 84.5876 51.4008C86.1942 51.5858 87.6319 50.5281 87.8273 48.9238C88.1623 46.171 89.6379 42.9338 94.5086 42.0072C103.441 40.3071 107.869 49.2551 107.693 55.5343C107.516 61.8135 97.7255 63.1067 92.1761 62.0472C88.1005 61.2703 84.5641 64.8438 82.9737 66.7962Z" fill="#2D2D9A"/>
<path d="M78.8146 89.367C78.8146 89.367 78.6537 78.4111 74.2227 77.3702C69.7921 76.3275 64.9995 79.5193 68.7729 86.0894C73.4663 94.2605 78.8146 89.367 78.8146 89.367Z" fill="url(#paint14_linear)"/>
<path d="M37.6474 173.122C31.6693 156.762 33.838 137.006 33.8607 136.807L35.5079 136.996C35.486 137.191 33.3635 156.568 39.2056 172.554L37.6474 173.122Z" fill="url(#paint15_linear)"/>
<path d="M79.103 297.938C78.7346 297.938 78.3976 297.689 78.3012 297.316C76.4775 290.281 62.8201 282.551 62.6824 282.473C62.2832 282.25 62.1408 281.744 62.3651 281.345C62.5894 280.945 63.0922 280.802 63.494 281.027C64.0812 281.357 77.9061 289.183 79.9065 296.9C80.0214 297.343 79.755 297.797 79.3119 297.911C79.2423 297.93 79.1718 297.938 79.103 297.938Z" fill="#6564C4"/>
<path d="M35.1871 218.084C30.8315 222.732 24.4183 226.75 19.9053 229.255C26.6449 237.586 35.7646 245.929 47.8373 254.094L49.2976 257.37C50.549 260.179 53.2831 262.04 56.3536 262.188C73.2269 262.992 77.8958 259.412 62.3632 248.579C62.3632 248.579 42.4983 238.694 35.1871 218.084Z" fill="url(#paint16_linear)"/>
<path d="M159.24 144.862C159.24 144.862 137.949 166.994 133.03 175.024C128.112 183.054 133.587 197.676 144.761 194.281C155.936 190.887 168.945 152.484 168.945 152.484L159.24 144.862Z" fill="url(#paint17_linear)"/>
<path d="M123.603 113.428C123.603 113.428 142.312 162.772 148.223 173.037C155.086 184.953 175.126 177.36 174.127 167.388C173.13 157.414 149.717 116.197 149.717 116.197L123.603 113.428Z" fill="#2D2D9A"/>
<path d="M263.953 146.273L257.369 144.805L208.982 134.008L145.707 119.89L148.884 77.4829L265.173 37.1625L264.079 135.067L263.968 144.938L263.953 146.273ZM158.403 76.3074C158.309 76.3074 158.212 76.3259 158.117 76.3646L153.585 78.2178C153.199 78.3759 153.012 78.8181 153.17 79.2049C153.291 79.4975 153.574 79.6758 153.871 79.6758C153.967 79.6758 154.065 79.6572 154.157 79.6202L158.691 77.7671C159.078 77.609 159.263 77.1668 159.105 76.78C158.985 76.4857 158.703 76.3074 158.403 76.3074ZM253.858 45.2646C253.782 45.2646 253.705 45.2764 253.629 45.2999L165.552 73.3276C165.153 73.4554 164.933 73.8809 165.061 74.2794C165.164 74.6006 165.461 74.8074 165.782 74.8074C165.858 74.8074 165.935 74.7957 166.011 74.7721L254.088 46.7444C254.487 46.6166 254.707 46.1911 254.579 45.7926C254.478 45.4714 254.179 45.2646 253.858 45.2646Z" fill="#FF7542"/>
<path d="M276.709 92.034C276.709 123.003 271.594 148.108 265.282 148.108C258.973 148.108 253.857 123.003 253.857 92.034C253.857 61.0668 258.973 35.9617 265.282 35.9617C271.594 35.9617 276.709 61.0668 276.709 92.034Z" fill="#FF9A75"/>
<path d="M266.15 144.274C265.118 143.223 262.868 139.172 260.941 128.695C259.076 118.57 258.05 105.438 258.05 91.7179C258.05 77.9975 259.076 64.8656 260.941 54.7422C262.868 44.2656 265.118 40.2129 266.15 39.1636C267.183 40.2129 269.433 44.2656 271.362 54.7422C273.225 64.8656 274.252 77.9975 274.252 91.7179C274.252 105.438 273.225 118.57 271.362 128.695C269.433 139.172 267.183 143.223 266.15 144.274Z" fill="#FF7542"/>
<path d="M265.202 108.566V108.549H264.68V108.533H264.361V108.516H264.142V108.499H263.89V108.482H263.655V108.465H263.503V108.448H263.369V108.432H263.217V108.415H263.083V108.398H262.932V108.381H262.797V108.364H262.663V108.348H262.562V108.331H262.461V108.314H262.36V108.297H262.259V108.28H262.158V108.263H262.057V108.247H261.956V108.23H261.855V108.213H261.771V108.196H261.687V108.179H261.62V108.163H261.536V108.146H261.452V108.129H261.385V108.112H261.3V108.095H261.233V108.078H261.149V108.062H261.065V108.045H260.998V108.028H260.914V108.011H260.846V107.994H260.779V107.978H260.729V107.961H260.661V107.944H260.594V107.927H260.527V107.91H260.476V107.894H260.409V107.877H260.342V107.86H260.275V107.843H260.224V107.826H260.157V107.809H260.09V107.793H260.022V107.776H259.972V107.759H259.922V107.742H259.871V107.725H259.821V107.709H259.77V107.692H259.703V107.675H259.652V107.658H259.602V107.641H259.552V107.624H259.501V107.608H259.451V107.591H259.383V107.574H259.333V107.557H259.282V107.54H259.232V107.524H259.182V107.507H259.131V107.49H259.081V107.473H259.047V107.456H258.997V107.439H258.946V107.423H258.913V107.406H258.862V107.389H258.812V107.372H258.761V107.355H258.728V107.339H258.677V107.322H258.627V107.305H258.593V107.288H258.543V107.271H258.492V107.086H258.475V106.817H258.458V106.515H258.442V106.195H258.425V105.876H258.408V105.556H258.391V105.237H258.374V104.917H258.358V104.581H258.341V104.244H258.324V103.858H258.307V103.454H258.29V103.067H258.274V102.664H258.257V102.277H258.24V101.89H258.223V101.369H258.206V100.864H258.189V100.36H258.173V99.8385H258.156V99.3172H258.139V98.5941H258.122V97.8878H258.105V97.1647H258.089V96.1893H258.072V94.9954H258.055V93.1792H258.038V90.27H258.055V88.437H258.072V87.2431H258.089V86.2677H258.105V85.5446H258.122V84.8383H258.139V84.1152H258.156V83.5939H258.173V83.0894H258.189V82.5681H258.206V82.0636H258.223V81.5591H258.24V81.1555H258.257V80.7688H258.274V80.3652H258.29V79.9784H258.307V79.5748H258.324V79.188H258.341V78.8517H258.358V78.5322H258.374V78.2127H258.391V77.8764H258.408V77.5568H258.425V77.2373H258.442V76.9178H258.458V76.6151H258.475V76.3461H258.492V76.077H258.509V75.8079H258.526V75.5389H258.543V75.3203H258.559V75.3035H258.61V75.2866H258.66V75.2698H258.711V75.253H258.744V75.2362H258.795V75.2194H258.845V75.2026H258.879V75.1857H258.929V75.1689H258.98V75.1521H259.013V75.1353H259.064V75.1185H259.114V75.1017H259.165V75.0848H259.215V75.068H259.266V75.0512H259.316V75.0344H259.367V75.0176H259.417V75.0008H259.467V74.9839H259.535V74.9671H259.585V74.9503H259.636V74.9335H259.686V74.9167H259.737V74.8999H259.787V74.883H259.837V74.8662H259.905V74.8494H259.955V74.8326H260.006V74.8158H260.056V74.799H260.123V74.7822H260.191V74.7653H260.258V74.7485H260.308V74.7317H260.376V74.7149H260.443V74.6981H260.51V74.6813H260.561V74.6644H260.628V74.6476H260.695V74.6308H260.762V74.614H260.813V74.5972H260.88V74.5804H260.964V74.5635H261.031V74.5467H261.115V74.5299H261.183V74.5131H261.267V74.4963H261.351V74.4795H261.418V74.4626H261.502V74.4458H261.586V74.429H261.654V74.4122H261.738V74.3954H261.822V74.3786H261.923V74.3617H262.024V74.3449H262.124V74.3281H262.225V74.3113H262.326V74.2945H262.427V74.2777H262.528V74.2608H262.629V74.244H262.73V74.2272H262.881V74.2104H263.016V74.1936H263.15V74.1768H263.302V74.1599H263.436V74.1431H263.587V74.1263H263.789V74.1095H264.025V74.0927H264.26V74.0759H264.496V74.059H264.966V74.0422H266.043V74.059H266.497V74.0759H266.732V74.0927H266.951V74.1095H267.186V74.1263H267.388V74.1431H267.522V74.1599H267.657V74.1768H267.791V74.1936H267.926V74.2104H268.061V74.2272H268.195V74.244H268.313V74.2608H268.397V74.2777H268.498V74.2945H268.582V74.3113H268.683V74.3281H268.784V74.3449H268.868V74.3617H268.969V74.3786H269.053V74.3954H269.137V74.4122H269.204V74.429H269.271V74.4458H269.355V74.4626H269.423V74.4795H269.49V74.4963H269.574V74.5131H269.641V74.5299H269.709V74.5467H269.776V74.5635H269.86V74.5804H269.927V74.5972H269.978V74.614H270.028V74.6308H270.095V74.6476H270.146V74.6644H270.213V74.6813H270.263V74.6981H270.314V74.7149H270.381V74.7317H270.432V74.7485H270.499V74.7653H270.549V74.7822H270.6V74.799H270.667V74.8158H270.718V74.8326H270.768V74.8494H270.818V74.8662H270.852V74.883H270.903V74.8999H270.953V74.9167H271.003V74.9335H271.054V74.9503H271.087V74.9671H271.138V74.9839H271.188V75.0008H271.239V75.0176H271.289V75.0344H271.323V75.0512H271.373V75.068H271.424V75.0848H271.474V75.1017H271.508V75.1185H271.542V75.1353H271.592V75.1521H271.626V75.1689H271.659V75.1857H271.71V75.2026H271.743V75.2194H271.794V75.2362H271.827V75.253H271.861V75.2698H271.911V75.2866H271.945V75.3035H271.979V75.3203H272.029V75.3371H272.063V75.3539H272.096V75.3707H272.147V75.3875H272.181V75.4044H272.214V75.4212H272.248V75.438H272.281V75.4548H272.315V75.4716H272.349V75.4884H272.382V75.5053H272.416V75.5221H272.45V75.5389H272.5V75.5557H272.534V75.5725H272.567V75.5893H272.601V75.6061H272.635V75.623H272.668V75.6398H272.702V75.6566H272.735V75.6734H272.769V75.6902H272.803V75.707H272.836V75.7239H272.87V75.7407H272.904V75.7575H272.937V75.7743H272.954V75.7911H272.988V75.8079H273.021V75.8248H273.055V75.8416H273.072V75.8584H273.105V75.8752H273.139V75.892H273.173V75.9088H273.19V75.9257H273.223V75.9425H273.257V75.9593H273.29V75.9761H273.307V75.9929H273.341V76.0097H273.374V76.0266H273.408V76.0434H273.425V76.0602H273.459V76.077H273.492V76.0938H273.526V76.1106H273.559V76.1275H273.576V76.1443H273.61V76.1611H273.627V76.1779H273.66V76.1947H273.677V76.2115H273.711V76.2284H273.728V76.2452H273.761V76.262H273.795V76.2788H273.812V76.2956H273.845V76.3124H273.862V76.3293H273.896V76.3461H273.913V76.3629H273.946V76.3797H273.963V76.3965H273.997V76.4133H274.014V76.4301H274.047V76.447H274.081V76.4638H274.098V76.4806H274.131V76.4974H274.148V76.5142H274.182V76.531H274.198V76.5479H274.232V76.5647H274.249V76.5815H274.266V76.5983H274.299V76.6151H274.316V76.6319H274.333V76.6488H274.367V76.6656H274.383V76.6824H274.417V76.6992H274.434V76.716H274.451V76.7328H274.484V76.7497H274.501V76.7665H274.518V76.7833H274.552V76.8001H274.568V76.8169H274.585V76.8337H274.619V76.8506H274.636V76.8674H274.669V76.8842H274.686V76.901H274.703V76.9178H274.737V76.9346H274.753V76.9515H274.77V76.9683H274.804V76.9851H274.821V77.0019H274.837V77.0187H274.854V77.0355H274.888V77.0524H274.905V77.0692H274.922V77.086H274.938V77.1028H274.972V77.1196H274.989V77.1364H275.006V77.1533H275.022V77.1701H275.039V77.1869H275.073V77.2037H275.09V77.2205H275.107V77.2373H275.123V77.2542H275.14V77.271H275.174V77.2878H275.191V77.3046H275.207V77.3214H275.224V77.3382H275.241V77.355H275.275V77.3719H275.292V77.3887H275.308V77.4055H275.325V77.4223H275.359V77.4391H275.376V77.4559H275.392V77.4728H275.409V77.4896H275.426V77.5064H275.443V77.5232H275.46V77.54H275.477V77.5568H275.493V77.5737H275.527V77.5905H275.544V77.6073H275.561V77.6241H275.577V77.6409H275.594V77.6577H275.611V77.6746H275.628V77.6914H275.645V77.7082H275.661V77.725H275.678V77.7418H275.695V77.7586H275.712V77.7755H275.746V77.7923H275.762V77.8091H275.779V77.8259H275.796V77.8427H275.813V77.8595H275.83V77.8764H275.846V77.8932H275.863V77.91H275.88V77.9268H275.897V77.9436H275.914V77.9604H275.931V77.9773H275.947V77.9941H275.964V78.0109H275.981V78.0277H275.998V78.0445H276.015V78.0613H276.031V78.0781H276.048V78.095H276.065V78.1118H276.082V78.1286H276.099V78.1454H276.116V78.1622H276.132V78.179H276.149V78.1959H276.166V78.2127H276.183V78.2295H276.2V78.2463H276.216V78.2631H276.233V78.2799H276.25V78.2968H276.267V78.3136H276.284V78.3304H276.301V78.3472H276.317V78.364H276.334V78.3808H276.351V78.3977H276.368V78.4145H276.385V78.4481H276.401V78.4649H276.418V78.4817H276.435V78.4986H276.452V78.5154H276.469V78.5322H276.485V78.549H276.502V78.5658H276.519V78.5826H276.536V78.5995H276.553V78.6331H276.57V78.6499H276.586V78.6667H276.603V78.6835H276.62V78.7004H276.637V78.7172H276.654V78.734H276.67V78.7676H276.687V78.7844H276.704V78.8013H276.721V78.8181H276.738V78.8349H276.755V78.8517H276.771V78.8853H276.788V78.9022H276.805V78.919H276.822V78.9358H276.839V78.9526H276.855V78.9694H276.872V79.003H276.889V79.0199H276.906V79.0367H276.923V79.0535H276.94V79.0703H276.956V79.0871H276.973V79.1208H276.99V79.1376H277.007V79.1544H277.024V79.1712H277.04V79.2048H277.057V79.2217H277.074V79.2385H277.091V79.2721H277.108V79.2889H277.125V79.3057H277.141V79.3226H277.158V79.3562H277.175V79.373H277.192V79.3898H277.209V79.4235H277.225V79.4403H277.242V79.4571H277.259V79.4907H277.276V79.5075H277.293V79.5244H277.309V79.5412H277.326V79.5748H277.343V79.5916H277.36V79.6084H277.377V79.6421H277.394V79.6589H277.41V79.6757H277.427V79.7093H277.444V79.7262H277.461V79.743H277.478V79.7766H277.494V79.7934H277.511V79.827H277.528V79.8439H277.545V79.8775H277.562V79.8943H277.579V79.9111H277.595V79.9448H277.612V79.9616H277.629V79.9952H277.646V80.012H277.663V80.0457H277.679V80.0625H277.696V80.0961H277.713V80.1129H277.73V80.1297H277.747V80.1634H277.764V80.1802H277.78V80.2138H277.797V80.2306H277.814V80.2643H277.831V80.2811H277.848V80.3147H277.864V80.3315H277.881V80.3652H277.898V80.382H277.915V80.4156H277.932V80.4493H277.949V80.4661H277.965V80.4997H277.982V80.5165H277.999V80.5502H278.016V80.5838H278.033V80.6006H278.049V80.6342H278.066V80.651H278.083V80.6847H278.1V80.7183H278.117V80.7351H278.133V80.7688H278.15V80.8024H278.167V80.8192H278.184V80.8528H278.201V80.8697H278.218V80.9033H278.234V80.9369H278.251V80.9537H278.268V80.9874H278.285V81.021H278.302V81.0378H278.318V81.0715H278.335V81.1051H278.352V81.1387H278.369V81.1724H278.386V81.206H278.403V81.2228H278.419V81.2564H278.436V81.2901H278.453V81.3237H278.47V81.3573H278.487V81.3742H278.503V81.4078H278.52V81.4414H278.537V81.475H278.554V81.5087H278.571V81.5255H278.588V81.5591H278.604V81.5928H278.621V81.6264H278.638V81.66H278.655V81.6937H278.672V81.7273H278.688V81.7609H278.705V81.7946H278.722V81.8282H278.739V81.8618H278.756V81.8955H278.772V81.9291H278.789V81.9627H278.806V81.9964H278.823V82.03H278.84V82.0636H278.857V82.0973H278.873V82.1309H278.89V82.1645H278.907V82.1982H278.924V82.2318H278.941V82.2654H278.957V82.299H278.974V82.3327H278.991V82.3831H279.008V82.4168H279.025V82.4504H279.042V82.484H279.058V82.5345H279.075V82.5681H279.092V82.6017H279.109V82.6522H279.126V82.6858H279.142V82.7195H279.159V82.7531H279.176V82.8035H279.193V82.8372H279.21V82.8708H279.227V82.9213H279.243V82.9549H279.26V82.9885H279.277V83.039H279.294V83.0726H279.311V83.1062H279.327V83.1567H279.344V83.2071H279.361V83.2408H279.378V83.2912H279.395V83.3417H279.412V83.3753H279.428V83.4257H279.445V83.4594H279.462V83.5098H279.479V83.5603H279.496V83.5939H279.512V83.6444H279.529V83.678H279.546V83.7284H279.563V83.7789H279.58V83.8125H279.596V83.863H279.613V83.9134H279.63V83.9639H279.647V84.0143H279.664V84.0648H279.681V84.1152H279.697V84.1657H279.714V84.2161H279.731V84.2666H279.748V84.317H279.765V84.3675H279.781V84.4179H279.798V84.4684H279.815V84.5188H279.832V84.5693H279.849V84.6365H279.866V84.687H279.882V84.7542H279.899V84.8047H279.916V84.8719H279.933V84.9224H279.95V84.9897H279.966V85.0401H279.983V85.1074H280V85.1578H280.017V85.2251H280.034V85.2755H280.051V85.3428H280.067V85.3933H280.084V85.4605H280.101V85.5446H280.118V85.6119H280.135V85.6791H280.151V85.7464H280.168V85.8137H280.185V85.8809H280.202V85.9482H280.219V86.0155H280.236V86.0827H280.252V86.1668H280.269V86.2341H280.286V86.3182H280.303V86.4022H280.32V86.4863H280.336V86.5704H280.353V86.6545H280.37V86.7386H280.387V86.8226H280.404V86.9067H280.42V86.9908H280.437V87.0917H280.454V87.2094H280.471V87.3103H280.488V87.4112H280.505V87.5121H280.521V87.613H280.538V87.7139H280.555V87.8316H280.572V87.9662H280.589V88.1007H280.605V88.2352H280.622V88.3697H280.639V88.5043H280.656V88.6388H280.673V88.8238H280.69V89.0256H280.706V89.2106H280.723V89.4124H280.74V89.6478H280.757V89.9841H280.774V90.3036H280.79V90.9258H280.807V91.6826H280.79V92.3048H280.774V92.6243H280.757V92.9438H280.74V93.196H280.723V93.381H280.706V93.5828H280.69V93.7678H280.673V93.9528H280.656V94.0873H280.639V94.2218H280.622V94.3732H280.605V94.5077H280.589V94.6422H280.572V94.7768H280.555V94.8777H280.538V94.9786H280.521V95.0795H280.505V95.1972H280.488V95.2981H280.471V95.399H280.454V95.4999H280.437V95.6008H280.42V95.6849H280.404V95.7689H280.387V95.853H280.37V95.9371H280.353V96.0212H280.336V96.1053H280.32V96.1893H280.303V96.2734H280.286V96.3575H280.269V96.4416H280.252V96.5089H280.236V96.5761H280.219V96.6434H280.202V96.7106H280.185V96.7947H280.168V96.862H280.151V96.9293H280.135V96.9965H280.118V97.0638H280.101V97.1311H280.084V97.1983H280.067V97.2656H280.051V97.3329H280.034V97.3833H280.017V97.4506H280V97.501H279.983V97.5515H279.966V97.6187H279.95V97.6692H279.933V97.7364H279.916V97.7869H279.899V97.8542H279.882V97.9046H279.866V97.9719H279.849V98.0223H279.832V98.0728H279.815V98.1232H279.798V98.1737H279.781V98.2241H279.765V98.2746H279.748V98.325H279.731V98.3755H279.714V98.4259H279.697V98.4764H279.681V98.5268H279.664V98.5773H279.647V98.6277H279.63V98.6782H279.613V98.7286H279.596V98.7791H279.58V98.8295H279.563V98.88H279.546V98.9136H279.529V98.964H279.512V98.9977H279.496V99.0481H279.479V99.0986H279.462V99.1322H279.445V99.1826H279.428V99.2163H279.412V99.2667H279.395V99.3172H279.378V99.3508H279.361V99.4013H279.344V99.4349H279.327V99.4853H279.311V99.5358H279.294V99.5694H279.277V99.6031H279.26V99.6535H279.243V99.6871H279.227V99.7208H279.21V99.7544H279.193V99.8049H279.176V99.8385H279.159V99.8721H279.142V99.9226H279.126V99.9562H279.109V99.9898H279.092V100.04H279.075V100.074H279.058V100.108H279.042V100.141H279.025V100.192H279.008V100.225H278.991V100.259H278.974V100.293H278.957V100.326H278.941V100.36H278.924V100.393H278.907V100.427H278.89V100.461H278.873V100.494H278.857V100.528H278.84V100.578H278.823V100.612H278.806V100.646H278.789V100.679H278.772V100.713H278.756V100.747H278.739V100.78H278.722V100.814H278.705V100.847H278.688V100.881H278.672V100.915H278.655V100.948H278.638V100.982H278.621V101.016H278.604V101.032H278.588V101.066H278.571V101.1H278.554V101.133H278.537V101.167H278.52V101.184H278.503V101.217H278.487V101.251H278.47V101.285H278.453V101.318H278.436V101.335H278.419V101.369H278.403V101.402H278.386V101.436H278.369V101.47H278.352V101.486H278.335V101.52H278.318V101.554H278.302V101.587H278.285V101.621H278.268V101.638H278.251V101.671H278.234V101.705H278.218V101.722H278.201V101.756H278.184V101.772H278.167V101.806H278.15V101.84H278.133V101.856H278.117V101.89H278.1V101.907H278.083V101.941H278.066V101.974H278.049V101.991H278.033V102.025H278.016V102.058H277.999V102.075H277.982V102.109H277.965V102.126H277.949V102.159H277.932V102.193H277.915V102.21H277.898V102.243H277.881V102.26H277.864V102.294H277.848V102.31H277.831V102.344H277.814V102.361H277.797V102.395H277.78V102.411H277.764V102.445H277.747V102.462H277.73V102.495H277.713V102.512H277.696V102.529H277.679V102.563H277.663V102.58H277.646V102.613H277.629V102.63H277.612V102.664H277.595V102.68H277.579V102.714H277.562V102.731H277.545V102.748H277.528V102.781H277.511V102.798H277.494V102.832H277.478V102.849H277.461V102.882H277.444V102.899H277.427V102.916H277.41V102.95H277.394V102.966H277.377V102.983H277.36V103.017H277.343V103.034H277.326V103.05H277.309V103.067H277.293V103.101H277.276V103.118H277.259V103.134H277.242V103.168H277.225V103.185H277.209V103.202H277.192V103.219H277.175V103.252H277.158V103.269H277.141V103.286H277.125V103.319H277.108V103.336H277.091V103.353H277.074V103.387H277.057V103.404H277.04V103.42H277.024V103.437H277.007V103.471H276.99V103.488H276.973V103.504H276.956V103.521H276.94V103.555H276.923V103.572H276.906V103.589H276.889V103.605H276.872V103.622H276.855V103.639H276.839V103.673H276.822V103.689H276.805V103.706H276.788V103.723H276.771V103.74H276.755V103.757H276.738V103.774H276.721V103.807H276.704V103.824H276.687V103.841H276.67V103.858H276.654V103.874H276.637V103.891H276.62V103.925H276.603V103.942H276.586V103.958H276.57V103.975H276.553V103.992H276.536V104.009H276.519V104.043H276.502V104.059H276.485V104.076H276.469V104.093H276.452V104.11H276.435V104.127H276.418V104.143H276.401V104.16H276.385V104.177H276.368V104.194H276.351V104.211H276.334V104.228H276.317V104.244H276.301V104.261H276.284V104.278H276.267V104.295H276.25V104.312H276.233V104.328H276.216V104.345H276.2V104.362H276.183V104.379H276.166V104.413H276.149V104.429H276.132V104.446H276.116V104.463H276.099V104.48H276.082V104.497H276.065V104.513H276.048V104.53H276.031V104.547H276.015V104.564H275.998V104.581H275.981V104.598H275.964V104.614H275.947V104.631H275.931V104.648H275.914V104.665H275.897V104.682H275.88V104.698H275.863V104.715H275.83V104.732H275.813V104.749H275.796V104.766H275.779V104.782H275.762V104.799H275.746V104.816H275.729V104.833H275.712V104.85H275.695V104.867H275.678V104.883H275.661V104.9H275.645V104.917H275.628V104.934H275.594V104.951H275.577V104.967H275.561V104.984H275.544V105.001H275.527V105.018H275.51V105.035H275.493V105.052H275.477V105.068H275.46V105.085H275.443V105.102H275.426V105.119H275.409V105.136H275.376V105.152H275.359V105.169H275.342V105.186H275.325V105.203H275.308V105.22H275.275V105.237H275.258V105.253H275.241V105.27H275.224V105.287H275.191V105.304H275.174V105.321H275.157V105.337H275.14V105.354H275.123V105.371H275.09V105.388H275.073V105.405H275.056V105.422H275.039V105.438H275.022V105.455H274.989V105.472H274.972V105.489H274.955V105.506H274.938V105.522H274.922V105.539H274.888V105.556H274.871V105.573H274.854V105.59H274.837V105.606H274.804V105.623H274.787V105.64H274.77V105.657H274.737V105.674H274.72V105.691H274.703V105.707H274.669V105.724H274.653V105.741H274.636V105.758H274.602V105.775H274.585V105.791H274.552V105.808H274.535V105.825H274.518V105.842H274.484V105.859H274.468V105.876H274.451V105.892H274.417V105.909H274.4V105.926H274.383V105.943H274.35V105.96H274.333V105.976H274.299V105.993H274.283V106.01H274.266V106.027H274.232V106.044H274.215V106.061H274.198V106.077H274.165V106.094H274.131V106.111H274.114V106.128H274.081V106.145H274.064V106.161H274.03V106.178H274.014V106.195H273.98V106.212H273.963V106.229H273.929V106.246H273.913V106.262H273.879V106.279H273.845V106.296H273.829V106.313H273.795V106.33H273.778V106.346H273.744V106.363H273.728V106.38H273.694V106.397H273.677V106.414H273.644V106.43H273.627V106.447H273.593V106.464H273.559V106.481H273.543V106.498H273.509V106.515H273.475V106.531H273.442V106.548H273.425V106.565H273.391V106.582H273.358V106.599H273.324V106.615H273.307V106.632H273.274V106.649H273.24V106.666H273.206V106.683H273.19V106.7H273.156V106.716H273.122V106.733H273.089V106.75H273.072V106.767H273.038V106.784H273.005V106.8H272.971V106.817H272.937V106.834H272.92V106.851H272.887V106.868H272.853V106.885H272.82V106.901H272.786V106.918H272.752V106.935H272.719V106.952H272.685V106.969H272.651V106.985H272.618V107.002H272.584V107.019H272.55V107.036H272.517V107.053H272.483V107.07H272.45V107.086H272.416V107.103H272.366V107.12H272.332V107.137H272.298V107.154H272.265V107.17H272.231V107.187H272.197V107.204H272.164V107.221H272.13V107.238H272.08V107.254H272.046V107.271H272.012V107.288H271.962V107.305H271.928V107.322H271.895V107.339H271.844V107.355H271.811V107.372H271.76V107.389H271.726V107.406H271.693V107.423H271.642V107.439H271.609V107.456H271.575V107.473H271.525V107.49H271.491V107.507H271.441V107.524H271.407V107.54H271.357V107.557H271.306V107.574H271.256V107.591H271.205V107.608H271.172V107.624H271.121V107.641H271.071V107.658H271.02V107.675H270.97V107.692H270.936V107.709H270.886V107.725H270.835V107.742H270.785V107.759H270.734V107.776H270.701V107.793H270.633V107.809H270.583V107.826H270.516V107.843H270.465V107.86H270.415V107.877H270.348V107.894H270.297V107.91H270.23V107.927H270.179V107.944H270.129V107.961H270.062V107.978H270.011V107.994H269.944V108.011H269.894V108.028H269.826V108.045H269.742V108.062H269.675V108.078H269.608V108.095H269.54V108.112H269.456V108.129H269.389V108.146H269.322V108.163H269.255V108.179H269.17V108.196H269.103V108.213H269.019V108.23H268.918V108.247H268.834V108.263H268.733V108.28H268.632V108.297H268.548V108.314H268.447V108.331H268.363V108.348H268.262V108.364H268.145V108.381H268.01V108.398H267.876V108.415H267.741V108.432H267.607V108.448H267.472V108.465H267.321V108.482H267.085V108.499H266.85V108.516H266.631V108.533H266.328V108.549H265.79V108.566" fill="#2D2D9A"/>
<path d="M130.127 75.137C135.598 74.5014 143.443 74.2726 151.925 76.2149C149.13 90.8131 149.552 106.027 152.784 121.782H128.861C125.047 121.782 121.795 119.011 121.2 115.244C120.007 107.692 118.549 94.9987 120.103 84.8047C120.883 79.6892 124.987 75.734 130.127 75.137Z" fill="#2D2D9A"/>
<path d="M144.487 86.594H125.848C125.123 86.594 124.457 86.1988 124.11 85.5614C123.764 84.9241 123.794 84.1506 124.188 83.5418C124.415 83.1921 124.884 83.0912 125.235 83.3182C125.585 83.5452 125.686 84.0144 125.459 84.3658C125.325 84.5743 125.402 84.766 125.441 84.8384C125.481 84.9107 125.599 85.0805 125.848 85.0805H144.487C144.742 85.0805 144.949 84.872 144.949 84.6164V83.2913C144.949 83.0357 144.742 82.8272 144.487 82.8272H125.71C125.291 82.8272 124.953 82.4875 124.953 82.0704C124.953 81.6517 125.291 81.312 125.71 81.312H144.487C145.577 81.312 146.464 82.1999 146.464 83.2913V84.6164C146.464 85.7061 145.577 86.594 144.487 86.594Z" fill="#91B3FA"/>
<path d="M142.823 94.8491H124.185C123.46 94.8491 122.794 94.4539 122.448 93.8166C122.102 93.1793 122.13 92.4057 122.524 91.797C122.751 91.4455 123.22 91.3446 123.571 91.5716C123.923 91.8003 124.022 92.2678 123.797 92.6193C123.661 92.8278 123.738 93.0195 123.778 93.0935C123.817 93.1658 123.936 93.334 124.185 93.334H142.823C143.078 93.334 143.287 93.1271 143.287 92.8715V91.5447C143.287 91.2891 143.078 91.0823 142.823 91.0823H124.046C123.629 91.0823 123.289 90.7426 123.289 90.3239C123.289 89.9068 123.629 89.5671 124.046 89.5671H142.823C143.914 89.5671 144.802 90.455 144.802 91.5447V92.8715C144.802 93.9612 143.914 94.8491 142.823 94.8491Z" fill="#91B3FA"/>
<path d="M165.782 74.8074C165.461 74.8074 165.163 74.6006 165.061 74.2794C164.933 73.8808 165.153 73.4554 165.552 73.3276L253.629 45.2999C253.705 45.2763 253.782 45.2645 253.858 45.2645C254.179 45.2645 254.478 45.4714 254.579 45.7926C254.707 46.1911 254.486 46.6166 254.088 46.7444L166.011 74.7721C165.935 74.7957 165.858 74.8074 165.782 74.8074Z" fill="url(#paint18_linear)"/>
<path d="M153.871 79.6757C153.573 79.6757 153.291 79.4975 153.17 79.2049C153.011 78.8181 153.198 78.3758 153.585 78.2178L158.117 76.3646C158.211 76.3259 158.309 76.3074 158.403 76.3074C158.702 76.3074 158.985 76.4857 159.104 76.78C159.262 77.1668 159.077 77.609 158.69 77.7671L154.157 79.6202C154.064 79.6572 153.967 79.6757 153.871 79.6757Z" fill="url(#paint19_linear)"/>
<path d="M144.487 104.517H125.848C125.123 104.517 124.457 104.122 124.11 103.484C123.764 102.847 123.794 102.073 124.188 101.465C124.415 101.113 124.884 101.014 125.234 101.239C125.585 101.466 125.686 101.936 125.459 102.287C125.323 102.495 125.402 102.689 125.441 102.761C125.481 102.834 125.6 103.003 125.848 103.003H144.487C144.742 103.003 144.949 102.795 144.949 102.539V101.212C144.949 100.957 144.742 100.75 144.487 100.75H125.71C125.291 100.75 124.953 100.41 124.953 99.9916C124.953 99.5745 125.291 99.2348 125.71 99.2348H144.487C145.577 99.2348 146.464 100.123 146.464 101.212V102.539C146.464 103.629 145.577 104.517 144.487 104.517Z" fill="#91B3FA"/>
<path d="M146.233 115.247H127.593C126.869 115.247 126.203 114.852 125.856 114.215C125.51 113.577 125.538 112.804 125.932 112.195C126.159 111.844 126.628 111.743 126.98 111.97C127.331 112.199 127.43 112.666 127.205 113.017C127.069 113.226 127.146 113.418 127.186 113.492C127.225 113.564 127.345 113.734 127.593 113.734H146.233C146.486 113.734 146.695 113.525 146.695 113.27V111.943C146.695 111.687 146.486 111.48 146.233 111.48H127.454C127.037 111.48 126.697 111.141 126.697 110.724C126.697 110.305 127.037 109.965 127.454 109.965H146.233C147.322 109.965 148.21 110.853 148.21 111.943V113.27C148.21 114.359 147.322 115.247 146.233 115.247Z" fill="#91B3FA"/>
<path d="M162.878 173.59C162 173.59 161.112 173.494 160.226 173.302C156.35 172.456 153.193 169.9 151.567 166.29L136.676 133.207C136.505 132.825 136.675 132.376 137.056 132.205C137.436 132.033 137.885 132.203 138.057 132.585L152.948 165.668C154.375 168.838 157.145 171.081 160.547 171.823C163.89 172.549 167.272 171.686 169.828 169.45C169.967 169.329 170.105 169.203 170.247 169.076C170.554 168.792 171.032 168.814 171.316 169.123C171.599 169.431 171.577 169.91 171.267 170.193C171.119 170.329 170.971 170.46 170.823 170.59C168.582 172.552 165.784 173.59 162.878 173.59Z" fill="#91B3FA"/>
<path d="M135.165 128.761C134.876 128.761 134.6 128.594 134.474 128.315L132.813 124.624C132.641 124.242 132.813 123.795 133.193 123.623C133.573 123.452 134.023 123.622 134.195 124.003L135.856 127.693C136.028 128.075 135.856 128.524 135.476 128.695C135.375 128.741 135.27 128.761 135.165 128.761Z" fill="#91B3FA"/>
<path d="M278.071 91.0823C277.677 91.0823 277.344 90.7763 277.316 90.3777C276.991 85.7969 275.412 82.3865 272.622 80.2408C267.789 76.5226 260.834 77.7956 260.763 77.8091C260.351 77.8865 259.954 77.6191 259.877 77.2088C259.798 76.7984 260.067 76.4016 260.477 76.3225C260.788 76.2637 268.156 74.9015 273.537 79.0333C276.69 81.4532 278.469 85.2352 278.826 90.2701C278.856 90.6871 278.542 91.0504 278.124 91.079C278.106 91.0806 278.088 91.0823 278.071 91.0823Z" fill="#91B3FA"/>
<path d="M151.18 132.139C151.18 132.139 157.246 126.99 161.986 132.139C166.727 137.288 167.664 146.273 166.7 146.712C165.735 147.151 136.424 139.873 151.18 132.139Z" fill="url(#paint20_linear)"/>
<path d="M340.64 167.344C278.82 250.994 225.861 287.327 134.572 304.146C132.741 304.483 131.405 306.074 131.405 307.935V323.964C131.405 326.378 133.601 328.199 135.973 327.753C232.047 309.719 295.008 259.58 350.895 171.937C352.474 169.461 350.808 166.196 347.876 166.019L343.972 165.784C342.67 165.705 341.416 166.295 340.64 167.344Z" fill="#FF7542"/>
<path d="M325.883 177.516L355.301 179.119C355.742 179.142 356.125 178.823 356.179 178.386L360.738 141.787C360.837 140.988 359.863 140.522 359.303 141.099L325.326 176.095C324.825 176.612 325.165 177.478 325.883 177.516Z" fill="#FF7542"/>
<defs>
<linearGradient id="paint0_linear" x1="512.539" y1="536.904" x2="185.01" y2="188.243" gradientUnits="userSpaceOnUse">
<stop stop-color="#DAE3FE"/>
<stop offset="1" stop-color="#E9EFFD"/>
</linearGradient>
<linearGradient id="paint1_linear" x1="311.805" y1="-51.453" x2="190.185" y2="430.702" gradientUnits="userSpaceOnUse">
<stop stop-color="#6072C1"/>
<stop offset="1" stop-color="#6678D4"/>
</linearGradient>
<linearGradient id="paint2_linear" x1="247.016" y1="433.521" x2="350.144" y2="433.521" gradientUnits="userSpaceOnUse">
<stop stop-color="#DAE3FE"/>
<stop offset="1" stop-color="#E9EFFD"/>
</linearGradient>
<linearGradient id="paint3_linear" x1="248.476" y1="442.758" x2="346.952" y2="442.758" gradientUnits="userSpaceOnUse">
<stop stop-color="#DAE3FE"/>
<stop offset="1" stop-color="#E9EFFD"/>
</linearGradient>
<linearGradient id="paint4_linear" x1="321.432" y1="354.017" x2="368.679" y2="380.985" gradientUnits="userSpaceOnUse">
<stop stop-color="#FEBBBA"/>
<stop offset="1" stop-color="#FF928E"/>
</linearGradient>
<linearGradient id="paint5_linear" x1="326.003" y1="360.742" x2="164.347" y2="259.543" gradientUnits="userSpaceOnUse">
<stop stop-color="#FEBBBA"/>
<stop offset="1" stop-color="#FF928E"/>
</linearGradient>
<linearGradient id="paint6_linear" x1="404.183" y1="338.472" x2="451.248" y2="338.472" gradientUnits="userSpaceOnUse">
<stop stop-color="#FEBBBA"/>
<stop offset="1" stop-color="#FF928E"/>
</linearGradient>
<linearGradient id="paint7_linear" x1="385.828" y1="316.421" x2="386.945" y2="299.009" gradientUnits="userSpaceOnUse">
<stop stop-color="#FEBBBA"/>
<stop offset="1" stop-color="#FF928E"/>
</linearGradient>
<linearGradient id="paint8_linear" x1="379.818" y1="296.954" x2="390.53" y2="254.05" gradientUnits="userSpaceOnUse">
<stop stop-color="#FEBBBA"/>
<stop offset="1" stop-color="#FF928E"/>
</linearGradient>
<linearGradient id="paint9_linear" x1="384.948" y1="298.236" x2="395.66" y2="255.332" gradientUnits="userSpaceOnUse">
<stop stop-color="#FEBBBA"/>
<stop offset="1" stop-color="#FF928E"/>
</linearGradient>
<linearGradient id="paint10_linear" x1="71.4511" y1="422.158" x2="65.3696" y2="475.232" gradientUnits="userSpaceOnUse">
<stop stop-color="#FEBBBA"/>
<stop offset="1" stop-color="#FF928E"/>
</linearGradient>
<linearGradient id="paint11_linear" x1="120.986" y1="427.834" x2="114.905" y2="480.908" gradientUnits="userSpaceOnUse">
<stop stop-color="#FEBBBA"/>
<stop offset="1" stop-color="#FF928E"/>
</linearGradient>
<linearGradient id="paint12_linear" x1="67.9492" y1="67.0317" x2="86.4584" y2="124.095" gradientUnits="userSpaceOnUse">
<stop stop-color="#FEBBBA"/>
<stop offset="1" stop-color="#FF928E"/>
</linearGradient>
<linearGradient id="paint13_linear" x1="93.2282" y1="61.7428" x2="83.2717" y2="129.326" gradientUnits="userSpaceOnUse">
<stop stop-color="#FEBBBA"/>
<stop offset="1" stop-color="#FF928E"/>
</linearGradient>
<linearGradient id="paint14_linear" x1="934.938" y1="757.308" x2="982.195" y2="794.258" gradientUnits="userSpaceOnUse">
<stop stop-color="#FEBBBA"/>
<stop offset="1" stop-color="#FF928E"/>
</linearGradient>
<linearGradient id="paint15_linear" x1="59.7612" y1="112.007" x2="11.6934" y2="200.316" gradientUnits="userSpaceOnUse">
<stop stop-color="#E1473D"/>
<stop offset="1" stop-color="#E9605A"/>
</linearGradient>
<linearGradient id="paint16_linear" x1="19.9053" y1="240.189" x2="71.836" y2="240.189" gradientUnits="userSpaceOnUse">
<stop stop-color="#FEBBBA"/>
<stop offset="1" stop-color="#FF928E"/>
</linearGradient>
<linearGradient id="paint17_linear" x1="138.721" y1="187.509" x2="168.678" y2="141.245" gradientUnits="userSpaceOnUse">
<stop stop-color="#FEBBBA"/>
<stop offset="1" stop-color="#FF928E"/>
</linearGradient>
<linearGradient id="paint18_linear" x1="167.149" y1="153.703" x2="263.278" y2="51.3168" gradientUnits="userSpaceOnUse">
<stop stop-color="#FFDDDC"/>
<stop offset="1" stop-color="#FFD3CE"/>
</linearGradient>
<linearGradient id="paint19_linear" x1="167.149" y1="153.703" x2="263.278" y2="51.3151" gradientUnits="userSpaceOnUse">
<stop stop-color="#FFDDDC"/>
<stop offset="1" stop-color="#FFD3CE"/>
</linearGradient>
<linearGradient id="paint20_linear" x1="147.035" y1="138.291" x2="167.04" y2="138.291" gradientUnits="userSpaceOnUse">
<stop stop-color="#FEBBBA"/>
<stop offset="1" stop-color="#FF928E"/>
</linearGradient>
</defs>
</svg>
