<svg width="58" height="58" viewBox="0 0 58 58" fill="none" xmlns="http://www.w3.org/2000/svg">
<path d="M42.8851 53.9019C42.765 53.9021 42.6465 53.8749 42.5385 53.8224C42.4304 53.77 42.3358 53.6937 42.2616 53.5992L38.4703 48.7816H29C28.7897 48.7816 28.588 48.6981 28.4393 48.5494C28.2906 48.4007 28.207 48.199 28.207 47.9886C28.207 47.7783 28.2906 47.5766 28.4393 47.4279C28.588 47.2792 28.7897 47.1957 29 47.1957H38.8555C38.9755 47.1957 39.0939 47.223 39.2018 47.2754C39.3097 47.3278 39.4043 47.4041 39.4785 47.4984L43.5077 52.6187C43.5997 52.7356 43.6569 52.8761 43.6729 53.0241C43.6888 53.172 43.6628 53.3214 43.5978 53.4553C43.5328 53.5892 43.4315 53.702 43.3054 53.781C43.1792 53.86 43.0335 53.9019 42.8847 53.9019H42.8851Z" fill="#7C7CD9"/>
<path d="M38.8555 42.4379H29C28.7897 42.4379 28.588 42.3543 28.4393 42.2056C28.2906 42.0569 28.207 41.8552 28.207 41.6449C28.207 41.4346 28.2906 41.2329 28.4393 41.0842C28.588 40.9355 28.7897 40.8519 29 40.8519H38.8555C39.0658 40.8519 39.2675 40.9355 39.4162 41.0842C39.5649 41.2329 39.6484 41.4346 39.6484 41.6449C39.6484 41.8552 39.5649 42.0569 39.4162 42.2056C39.2675 42.3543 39.0658 42.4379 38.8555 42.4379V42.4379Z" fill="#7C7CD9"/>
<path d="M43.8394 36.0941H29C28.7897 36.0941 28.588 36.0106 28.4393 35.8619C28.2906 35.7131 28.207 35.5115 28.207 35.3011C28.207 35.0908 28.2906 34.8891 28.4393 34.7404C28.588 34.5917 28.7897 34.5082 29 34.5082H43.8394C44.0497 34.5082 44.2514 34.5917 44.4001 34.7404C44.5488 34.8891 44.6324 35.0908 44.6324 35.3011C44.6324 35.5115 44.5488 35.7131 44.4001 35.8619C44.2514 36.0106 44.0497 36.0941 43.8394 36.0941Z" fill="#7C7CD9"/>
<path d="M35.2278 29.7504H29C28.7897 29.7504 28.588 29.6668 28.4393 29.5181C28.2906 29.3694 28.207 29.1677 28.207 28.9574C28.207 28.7471 28.2906 28.5454 28.4393 28.3967C28.588 28.248 28.7897 28.1644 29 28.1644H35.2278C35.4381 28.1644 35.6398 28.248 35.7885 28.3967C35.9372 28.5454 36.0207 28.7471 36.0207 28.9574C36.0207 29.1677 35.9372 29.3694 35.7885 29.5181C35.6398 29.6668 35.4381 29.7504 35.2278 29.7504Z" fill="#7C7CD9"/>
<path d="M53.1946 34.1774C53.0905 34.1775 52.9873 34.157 52.8911 34.1171C52.795 34.0772 52.7076 34.0187 52.6341 33.9449L42.0953 23.4066H29C28.7897 23.4066 28.588 23.3231 28.4393 23.1744C28.2906 23.0257 28.207 22.824 28.207 22.6136C28.207 22.4033 28.2906 22.2016 28.4393 22.0529C28.588 21.9042 28.7897 21.8207 29 21.8207H42.4238C42.6341 21.8208 42.8357 21.9044 42.9843 22.0531L53.7551 32.8239C53.8659 32.9348 53.9414 33.0761 53.972 33.2298C54.0025 33.3836 53.9868 33.543 53.9268 33.6878C53.8669 33.8327 53.7653 33.9565 53.635 34.0436C53.5046 34.1308 53.3514 34.1773 53.1946 34.1774V34.1774Z" fill="#7C7CD9"/>
<path d="M52.5059 16.912H29C28.7897 16.912 28.588 16.8284 28.4393 16.6797C28.2906 16.531 28.207 16.3293 28.207 16.119C28.207 15.9087 28.2906 15.707 28.4393 15.5583C28.588 15.4096 28.7897 15.326 29 15.326H52.5059C52.7162 15.326 52.9179 15.4096 53.0666 15.5583C53.2153 15.707 53.2988 15.9087 53.2988 16.119C53.2988 16.3293 53.2153 16.531 53.0666 16.6797C52.9179 16.8284 52.7162 16.912 52.5059 16.912Z" fill="#7C7CD9"/>
<path d="M42.4238 11.7768H29C28.7897 11.7768 28.588 11.6932 28.4393 11.5445C28.2906 11.3958 28.207 11.1941 28.207 10.9838C28.207 10.7735 28.2906 10.5718 28.4393 10.4231C28.588 10.2744 28.7897 10.1908 29 10.1908H42.0953L45.7244 6.56173C45.8731 6.41302 46.0748 6.32947 46.2851 6.32947C46.4955 6.32947 46.6972 6.41302 46.8459 6.56173C46.9946 6.71045 47.0781 6.91216 47.0781 7.12248C47.0781 7.3328 46.9946 7.5345 46.8459 7.68322L42.9848 11.5443C42.9111 11.618 42.8237 11.6765 42.7274 11.7163C42.6312 11.7562 42.528 11.7768 42.4238 11.7768V11.7768Z" fill="#7C7CD9"/>
<path d="M20.7589 0.750366C18.5732 0.750486 16.4771 1.61883 14.9316 3.16439C13.3861 4.70994 12.5179 6.80612 12.5179 8.9918V9.01084C11.3584 9.07009 10.2318 9.41625 9.23904 10.0182C8.2463 10.6202 7.41853 11.4593 6.82998 12.46C6.24143 13.4608 5.91052 14.592 5.86691 15.7522C5.82331 16.9124 6.06839 18.0652 6.58016 19.1074C4.84143 20.1903 3.40123 21.691 2.39071 23.4728C1.38019 25.2546 0.831458 27.2609 0.794482 29.309C0.757505 31.357 1.23346 33.3818 2.179 35.1989C3.12455 37.0161 4.50964 38.5678 6.20814 39.7128C5.87339 40.7376 5.77916 41.8257 5.93275 42.8929C6.08634 43.96 6.48362 44.9774 7.0938 45.8662C7.70397 46.755 8.51065 47.4914 9.45129 48.0182C10.3919 48.545 11.4412 48.8481 12.5179 48.904V48.923C12.5098 50.0104 12.7171 51.0886 13.1276 52.0956C13.5381 53.1025 14.1439 54.0183 14.91 54.79C15.676 55.5618 16.5873 56.1743 17.5911 56.5923C18.595 57.0103 19.6717 57.2255 20.7591 57.2255C21.8465 57.2255 22.9232 57.0103 23.9271 56.5923C24.931 56.1743 25.8422 55.5618 26.6083 54.79C27.3743 54.0183 27.9801 53.1025 28.3906 52.0956C28.8012 51.0886 29.0084 50.0104 29.0003 48.923V8.9918C29.0003 6.80604 28.132 4.7098 26.5865 3.16423C25.0409 1.61866 22.9447 0.750366 20.7589 0.750366V0.750366Z" fill="#FF7542"/>
<path d="M5.05078 30.3218C4.84047 30.3218 4.63878 30.2382 4.49007 30.0895C4.34136 29.9408 4.25781 29.7391 4.25781 29.5288C4.26045 27.1916 5.19008 24.9508 6.84274 23.2982C8.49541 21.6455 10.7361 20.7159 13.0734 20.7133C13.2837 20.7133 13.4854 20.7968 13.6341 20.9455C13.7828 21.0942 13.8663 21.2959 13.8663 21.5062C13.8663 21.7165 13.7828 21.9182 13.6341 22.0669C13.4854 22.2156 13.2837 22.2992 13.0734 22.2992C11.1569 22.3018 9.31977 23.0644 7.96481 24.4197C6.60985 25.775 5.84772 27.6124 5.84556 29.5288C5.84556 29.6331 5.82499 29.7363 5.78503 29.8327C5.74507 29.929 5.68649 30.0165 5.61267 30.0902C5.53884 30.1638 5.45121 30.2222 5.35479 30.2619C5.25838 30.3017 5.15507 30.322 5.05078 30.3218V30.3218Z" fill="#FF9A75"/>
<path d="M24.5676 9.95885C24.3573 9.95885 24.1556 9.87531 24.0069 9.7266C23.8582 9.57789 23.7747 9.37619 23.7747 9.16588C23.7747 8.76982 23.6967 8.37763 23.5451 8.01171C23.3935 7.64579 23.1714 7.31331 22.8913 7.03325C22.6113 6.75319 22.2788 6.53103 21.9129 6.37946C21.5469 6.2279 21.1547 6.14988 20.7587 6.14988C20.3626 6.14988 19.9704 6.2279 19.6045 6.37946C19.2386 6.53103 18.9061 6.75319 18.626 7.03325C18.346 7.31331 18.1238 7.64579 17.9723 8.01171C17.8207 8.37763 17.7427 8.76982 17.7427 9.16588C17.7427 9.37619 17.6591 9.57789 17.5104 9.7266C17.3617 9.87531 17.16 9.95885 16.9497 9.95885C16.7394 9.95885 16.5377 9.87531 16.389 9.7266C16.2403 9.57789 16.1567 9.37619 16.1567 9.16588C16.1567 7.94531 16.6416 6.77474 17.5047 5.91166C18.3678 5.04859 19.5383 4.56372 20.7589 4.56372C21.9795 4.56372 23.1501 5.04859 24.0131 5.91166C24.8762 6.77474 25.3611 7.94531 25.3611 9.16588C25.3611 9.27006 25.3405 9.37321 25.3007 9.46944C25.2608 9.56568 25.2023 9.65312 25.1287 9.72676C25.055 9.8004 24.9675 9.8588 24.8712 9.89862C24.775 9.93844 24.6718 9.95891 24.5676 9.95885V9.95885Z" fill="#FF9A75"/>
<path d="M16.5967 28.1078C16.3864 28.1078 16.1847 28.0242 16.036 27.8755C15.8873 27.7268 15.8037 27.5251 15.8037 27.3148C15.8037 27.1045 15.8873 26.9028 16.036 26.7541C16.1847 26.6054 16.3864 26.5218 16.5967 26.5218C17.6309 26.5208 18.6225 26.1094 19.3539 25.3781C20.0852 24.6468 20.4966 23.6552 20.4976 22.6209V20.0576C20.4966 19.0233 20.0852 18.0317 19.3539 17.3004C18.6225 16.569 17.6309 16.1577 16.5967 16.1566H16.2568C16.0465 16.1566 15.8448 16.0731 15.6961 15.9244C15.5474 15.7757 15.4639 15.574 15.4639 15.3636C15.4639 15.1533 15.5474 14.9516 15.6961 14.8029C15.8448 14.6542 16.0465 14.5707 16.2568 14.5707H16.5967C18.0514 14.5724 19.446 15.151 20.4746 16.1796C21.5033 17.2082 22.0819 18.6029 22.0836 20.0576V22.6209C22.0819 24.0756 21.5033 25.4702 20.4746 26.4989C19.446 27.5275 18.0514 28.1061 16.5967 28.1078V28.1078Z" fill="#FF9A75"/>
<path d="M21.2969 36.0941H16.7656C15.1288 36.0922 13.5596 35.4411 12.4022 34.2837C11.2448 33.1263 10.5937 31.5571 10.5918 29.9203C10.5918 29.71 10.6753 29.5083 10.8241 29.3596C10.9728 29.2109 11.1745 29.1273 11.3848 29.1273C11.5951 29.1273 11.7968 29.2109 11.9455 29.3596C12.0942 29.5083 12.1777 29.71 12.1777 29.9203C12.1791 31.1367 12.6628 32.3028 13.523 33.163C14.3831 34.0231 15.5492 34.5069 16.7656 34.5082H21.2969C21.5072 34.5082 21.7089 34.5917 21.8576 34.7404C22.0063 34.8891 22.0898 35.0908 22.0898 35.3011C22.0898 35.5114 22.0063 35.7131 21.8576 35.8619C21.7089 36.0106 21.5072 36.0941 21.2969 36.0941Z" fill="#FF9A75"/>
<path d="M24.1855 47.0824C22.2634 47.0802 20.4206 46.3157 19.0614 44.9565C17.7022 43.5974 16.9377 41.7546 16.9355 39.8324C16.9355 39.6221 17.0191 39.4204 17.1678 39.2717C17.3165 39.123 17.5182 39.0394 17.7285 39.0394C17.9388 39.0394 18.1405 39.123 18.2892 39.2717C18.4379 39.4204 18.5215 39.6221 18.5215 39.8324C18.5232 41.3341 19.1204 42.7738 20.1823 43.8356C21.2442 44.8975 22.6839 45.4948 24.1855 45.4965C24.3959 45.4965 24.5976 45.58 24.7463 45.7287C24.895 45.8774 24.9785 46.0791 24.9785 46.2894C24.9785 46.4997 24.895 46.7014 24.7463 46.8501C24.5976 46.9989 24.3959 47.0824 24.1855 47.0824V47.0824Z" fill="#FF9A75"/>
<path d="M12.8176 45.423C12.778 45.423 12.7385 45.4201 12.6994 45.4144C11.648 45.2557 10.7025 44.6864 10.0702 43.8315C9.43799 42.9767 9.17061 41.9059 9.32675 40.8542C9.34095 40.7501 9.37568 40.6499 9.42892 40.5594C9.48216 40.4689 9.55285 40.3898 9.63688 40.3269C9.72092 40.2639 9.81662 40.2182 9.91844 40.1926C10.0203 40.1669 10.1262 40.1617 10.23 40.1772C10.3339 40.1928 10.4336 40.2288 10.5234 40.2833C10.6132 40.3377 10.6913 40.4094 10.7532 40.4943C10.815 40.5791 10.8594 40.6754 10.8838 40.7776C10.9081 40.8797 10.912 40.9857 10.895 41.0893C10.8007 41.7251 10.9624 42.3723 11.3447 42.8891C11.7269 43.4058 12.2985 43.7498 12.9341 43.8457C13.1321 43.8751 13.3117 43.9783 13.4367 44.1346C13.5618 44.2909 13.6231 44.4888 13.6084 44.6884C13.5936 44.8881 13.5039 45.0747 13.3573 45.211C13.2106 45.3473 13.0178 45.423 12.8176 45.423V45.423Z" fill="#FF9A75"/>
<path d="M20.957 53.8059C19.6355 53.8045 18.3686 53.2789 17.4341 52.3444C16.4997 51.41 15.9741 50.143 15.9727 48.8215C15.9727 48.6112 16.0562 48.4095 16.2049 48.2608C16.3536 48.1121 16.5553 48.0286 16.7656 48.0286C16.9759 48.0286 17.1776 48.1121 17.3263 48.2608C17.475 48.4095 17.5586 48.6112 17.5586 48.8215C17.5596 49.7226 17.9179 50.5864 18.555 51.2235C19.1922 51.8607 20.056 52.219 20.957 52.22C21.1673 52.22 21.369 52.3035 21.5177 52.4522C21.6665 52.6009 21.75 52.8026 21.75 53.0129C21.75 53.2232 21.6665 53.4249 21.5177 53.5737C21.369 53.7224 21.1673 53.8059 20.957 53.8059Z" fill="#FF9A75"/>
<path d="M41.2058 43.9957C42.5041 43.9957 43.5566 42.9432 43.5566 41.6449C43.5566 40.3466 42.5041 39.2941 41.2058 39.2941C39.9075 39.2941 38.855 40.3466 38.855 41.6449C38.855 42.9432 39.9075 43.9957 41.2058 43.9957Z" fill="#6564C4"/>
<path d="M44.406 57.2491C45.7041 57.2491 46.7564 56.1968 46.7564 54.8987C46.7564 53.6006 45.7041 52.5483 44.406 52.5483C43.108 52.5483 42.0557 53.6006 42.0557 54.8987C42.0557 56.1968 43.108 57.2491 44.406 57.2491Z" fill="#6564C4"/>
<path d="M46.1902 37.6514C47.4883 37.6514 48.5406 36.5991 48.5406 35.301C48.5406 34.003 47.4883 32.9507 46.1902 32.9507C44.8921 32.9507 43.8398 34.003 43.8398 35.301C43.8398 36.5991 44.8921 37.6514 46.1902 37.6514Z" fill="#6564C4"/>
<path d="M54.8562 37.3973C56.1545 37.3973 57.207 36.3448 57.207 35.0465C57.207 33.7482 56.1545 32.6957 54.8562 32.6957C53.5579 32.6957 52.5054 33.7482 52.5054 35.0465C52.5054 36.3448 53.5579 37.3973 54.8562 37.3973Z" fill="#6564C4"/>
<path d="M52.5051 25.9555C53.8032 25.9555 54.8555 24.9032 54.8555 23.6051C54.8555 22.3071 53.8032 21.2548 52.5051 21.2548C51.2071 21.2548 50.1548 22.3071 50.1548 23.6051C50.1548 24.9032 51.2071 25.9555 52.5051 25.9555Z" fill="#6564C4"/>
<path d="M52.5051 47.5015C53.8032 47.5015 54.8555 46.4492 54.8555 45.1511C54.8555 43.8531 53.8032 42.8008 52.5051 42.8008C51.2071 42.8008 50.1548 43.8531 50.1548 45.1511C50.1548 46.4492 51.2071 47.5015 52.5051 47.5015Z" fill="#6564C4"/>
<path d="M54.8562 18.4698C56.1545 18.4698 57.207 17.4173 57.207 16.119C57.207 14.8207 56.1545 13.7682 54.8562 13.7682C53.5579 13.7682 52.5054 14.8207 52.5054 16.119C52.5054 17.4173 53.5579 18.4698 54.8562 18.4698Z" fill="#6564C4"/>
<path d="M47.8327 7.70761C49.1311 7.70761 50.1836 6.65511 50.1836 5.35679C50.1836 4.05848 49.1311 3.00598 47.8327 3.00598C46.5344 3.00598 45.4819 4.05848 45.4819 5.35679C45.4819 6.65511 46.5344 7.70761 47.8327 7.70761Z" fill="#6564C4"/>
<path d="M37.5779 31.2325C38.876 31.2325 39.9282 30.1802 39.9282 28.8821C39.9282 27.584 38.876 26.5317 37.5779 26.5317C36.2798 26.5317 35.2275 27.584 35.2275 28.8821C35.2275 30.1802 36.2798 31.2325 37.5779 31.2325Z" fill="#6564C4"/>
</svg>
