<svg width="488" height="486" viewBox="0 0 488 486" fill="none" xmlns="http://www.w3.org/2000/svg">
<path d="M241.272 484.02C212.888 484.02 191.204 480.052 182.556 478.296C151.193 471.925 90.5659 459.612 46.7338 408.065C33.6606 392.692 23.569 375.581 16.1808 357.383H450.852C441.774 381.017 429.364 401.789 414.084 417.873C404.473 427.992 395.379 434.517 388.194 439.672C338.122 475.599 282.601 484.02 241.272 484.02ZM5.65727 323.203C-1.76531 289.188 -1.26619 253.057 5.65727 218.471V323.203ZM425.234 110.285H375.938C375.416 109.725 374.908 109.156 374.417 108.58C374.372 108.525 374.322 108.477 374.268 108.433C374.052 108.254 373.782 108.162 373.513 108.162C373.241 108.162 372.968 108.255 372.743 108.446C372.244 108.871 372.183 109.619 372.608 110.119C372.657 110.174 372.703 110.23 372.75 110.285H359.573C359.313 110.126 359.018 110.047 358.722 110.047C358.426 110.047 358.131 110.126 357.87 110.285H270.05C270.278 109.706 270.165 109.023 269.707 108.544C268.483 107.27 267.301 105.93 266.192 104.559C266.122 104.471 266.044 104.393 265.961 104.324C265.662 104.077 265.29 103.95 264.917 103.95C264.553 103.95 264.19 104.07 263.886 104.315C263.182 104.884 263.074 105.918 263.642 106.622C264.657 107.875 265.729 109.104 266.837 110.285H52.6986C73.4438 81.2071 121.428 26.3136 202.307 15.7415C212.333 14.4293 222.64 13.7671 233.079 13.7671C246.243 13.7671 259.633 14.8199 272.982 16.95C272.997 16.9707 273.013 16.9915 273.03 17.0122C273.353 17.4099 273.825 17.6155 274.303 17.6155C274.628 17.6155 274.956 17.5187 275.238 17.3217C315.085 24.0453 354.436 40.4022 386.306 67.1012C401.526 79.8534 414.454 94.4313 425.234 110.285ZM367.895 99.0941C367.365 99.0941 366.843 99.3517 366.528 99.8271C365.555 101.293 364.505 102.74 363.404 104.125C362.847 104.825 362.958 105.842 363.644 106.409L363.668 106.43C363.971 106.668 364.33 106.784 364.687 106.784C365.171 106.784 365.65 106.571 365.973 106.163C367.131 104.706 368.238 103.183 369.261 101.641C369.73 100.934 369.579 99.9983 368.94 99.471C368.895 99.4347 368.85 99.4001 368.801 99.3672C368.521 99.1823 368.207 99.0941 367.895 99.0941ZM257.239 91.9002C256.997 91.9002 256.751 91.9539 256.519 92.068C255.707 92.4656 255.368 93.4475 255.766 94.2601C256.58 95.9285 257.479 97.5813 258.435 99.1771C258.743 99.6888 259.286 99.9724 259.842 99.9724C260.131 99.9724 260.421 99.898 260.686 99.739C261.462 99.2739 261.713 98.2659 261.248 97.4897C260.339 95.9752 259.486 94.4053 258.713 92.8217C258.608 92.6039 258.459 92.4206 258.285 92.2771C257.991 92.0333 257.619 91.9002 257.239 91.9002ZM253.145 81.1379C252.998 81.1379 252.849 81.1587 252.7 81.2002C251.829 81.444 251.321 82.3481 251.564 83.2212C251.805 84.077 252.066 84.9432 252.342 85.7938C252.567 86.4888 253.21 86.928 253.902 86.928C254.07 86.928 254.241 86.902 254.408 86.8484C255.269 86.5684 255.741 85.6434 255.461 84.7824C255.2 83.9733 254.951 83.1504 254.723 82.3361C254.63 82.0007 254.438 81.7206 254.189 81.5148C253.898 81.2745 253.53 81.1379 253.145 81.1379ZM259.529 31.5521C258.967 31.5521 258.419 31.8425 258.113 32.3629C257.664 33.1288 257.221 33.9206 256.799 34.709C256.374 35.5077 256.672 36.5001 257.475 36.9289C257.721 37.0603 257.984 37.1207 258.245 37.1207C258.831 37.1207 259.398 36.8061 259.694 36.2528C260.093 35.5025 260.513 34.7522 260.942 34.0244C261.355 33.319 261.184 32.4338 260.574 31.929C260.506 31.8737 260.435 31.8235 260.359 31.7785C260.098 31.6264 259.811 31.5521 259.529 31.5521ZM267.942 20.2901C267.503 20.2901 267.066 20.4648 266.742 20.8105C265.826 21.7925 264.927 22.816 264.073 23.8516C263.763 24.2268 263.459 24.6037 263.16 24.984C262.598 25.6946 262.7 26.7319 263.43 27.2852C263.731 27.5238 264.09 27.6396 264.445 27.6396C264.93 27.6396 265.409 27.4252 265.734 27.0154C266.018 26.6541 266.308 26.2963 266.602 25.9384C267.415 24.9547 268.267 23.983 269.14 23.0477C269.757 22.3872 269.723 21.3482 269.061 20.731C269.035 20.7085 269.011 20.6861 268.985 20.6636C268.68 20.4129 268.31 20.2901 267.942 20.2901Z" fill="url(#paint0_linear)"/>
<path d="M359.572 110.285H357.87C358.131 110.126 358.426 110.047 358.722 110.047C359.017 110.047 359.313 110.126 359.572 110.285ZM270.05 110.285H266.837C265.729 109.104 264.657 107.875 263.642 106.622C263.074 105.918 263.182 104.884 263.886 104.315C264.19 104.07 264.553 103.951 264.917 103.951C265.29 103.951 265.662 104.077 265.961 104.324C266.044 104.393 266.122 104.471 266.192 104.559C267.301 105.93 268.483 107.27 269.707 108.544C270.165 109.023 270.278 109.706 270.05 110.285ZM364.686 106.784C364.33 106.784 363.971 106.668 363.668 106.43L363.644 106.409C362.958 105.842 362.847 104.825 363.404 104.125C364.505 102.74 365.554 101.293 366.528 99.8271C366.842 99.3517 367.365 99.0941 367.895 99.0941C368.206 99.0941 368.521 99.1823 368.801 99.3673C368.85 99.4001 368.895 99.4347 368.94 99.471C369.579 99.9983 369.73 100.934 369.261 101.641C368.238 103.183 367.131 104.706 365.973 106.164C365.649 106.572 365.171 106.784 364.686 106.784ZM259.842 99.9724C259.286 99.9724 258.743 99.6888 258.435 99.1771C257.479 97.5813 256.58 95.9285 255.766 94.2601C255.368 93.4475 255.707 92.4656 256.519 92.0679C256.751 91.9538 256.997 91.9002 257.239 91.9002C257.619 91.9002 257.991 92.0333 258.285 92.2771C258.459 92.4206 258.608 92.6039 258.713 92.8217C259.486 94.4054 260.338 95.9752 261.248 97.4897C261.713 98.266 261.462 99.2739 260.686 99.739C260.421 99.898 260.131 99.9724 259.842 99.9724Z" fill="url(#paint1_linear)"/>
<path d="M253.902 86.928C253.21 86.928 252.567 86.4889 252.342 85.7939C252.066 84.9432 251.805 84.077 251.564 83.2212C251.321 82.3481 251.829 81.4439 252.7 81.2001C252.849 81.1586 252.998 81.1378 253.145 81.1378C253.53 81.1378 253.898 81.2744 254.189 81.5148C254.438 81.7205 254.63 82.0006 254.723 82.336C254.951 83.1503 255.2 83.9733 255.461 84.7824C255.741 85.6434 255.27 86.5684 254.409 86.8485C254.241 86.9021 254.07 86.928 253.902 86.928Z" fill="url(#paint2_linear)"/>
<path d="M258.245 37.1207C257.984 37.1207 257.721 37.0602 257.476 36.9288C256.672 36.5001 256.374 35.5077 256.8 34.7089C257.221 33.9206 257.664 33.1288 258.114 32.3629C258.42 31.8425 258.968 31.552 259.529 31.552C259.811 31.552 260.098 31.6263 260.359 31.7785C260.435 31.8234 260.506 31.8736 260.574 31.9289C261.184 32.4337 261.355 33.3189 260.942 34.0243C260.513 34.7522 260.093 35.5025 259.694 36.2528C259.398 36.8061 258.831 37.1207 258.245 37.1207Z" fill="url(#paint3_linear)"/>
<path d="M373.31 41.9165C372.674 41.9165 372.07 41.5448 371.802 40.9224C371.12 39.3284 370.357 37.743 369.541 36.2112C369.114 35.4125 369.417 34.4202 370.215 33.9931C370.461 33.8617 370.725 33.7995 370.986 33.7995C371.365 33.7995 371.737 33.9326 372.032 34.1747C372.193 34.3078 372.33 34.4737 372.434 34.6691C373.294 36.2804 374.097 37.9505 374.818 39.6293C375.174 40.4608 374.788 41.4256 373.957 41.7817C373.746 41.8733 373.526 41.9165 373.31 41.9165ZM366.367 29.6917C365.859 29.6917 365.359 29.4566 365.039 29.014C364.023 27.6118 362.93 26.2322 361.794 24.9148C361.203 24.2301 361.281 23.1946 361.965 22.6033C362.277 22.337 362.657 22.2056 363.035 22.2056C363.409 22.2056 363.779 22.3318 364.08 22.5791C364.151 22.6379 364.216 22.7018 364.279 22.7745C365.473 24.161 366.623 25.6115 367.695 27.0897C368.226 27.8228 368.063 28.848 367.33 29.3788C367.039 29.5897 366.701 29.6917 366.367 29.6917Z" fill="#DEE8FD"/>
<path d="M264.445 27.6396C264.09 27.6396 263.731 27.5238 263.43 27.2852C262.7 26.732 262.598 25.6946 263.16 24.984C263.459 24.6037 263.763 24.2268 264.073 23.8516C264.927 22.816 265.826 21.7925 266.742 20.8105C267.066 20.4647 267.503 20.2901 267.942 20.2901C268.31 20.2901 268.68 20.4129 268.985 20.6636C269.011 20.686 269.035 20.7085 269.061 20.731C269.723 21.3482 269.757 22.3872 269.14 23.0477C268.267 23.983 267.415 24.9547 266.602 25.9384C266.308 26.2963 266.018 26.6541 265.734 27.0155C265.409 27.4252 264.93 27.6396 264.445 27.6396Z" fill="url(#paint4_linear)"/>
<path d="M356.91 19.2857C356.523 19.2857 356.136 19.1508 355.826 18.8742C354.512 17.7124 353.152 16.6059 351.77 15.5755C351.044 15.0326 350.896 14.0074 351.437 13.2813C351.758 12.8491 352.253 12.6209 352.752 12.6209C353.093 12.6209 353.437 12.7263 353.731 12.9476C354.587 13.5838 355.441 14.2547 356.271 14.941C356.853 15.4217 357.429 15.9126 357.999 16.4157C358.677 17.0157 358.741 18.053 358.141 18.7307C357.818 19.099 357.365 19.2857 356.91 19.2857ZM275.238 17.3217C274.486 17.1937 273.734 17.071 272.982 16.95C272.463 16.2515 272.583 15.2608 273.264 14.7059C274.68 13.5493 276.161 12.4393 277.667 11.4089C277.951 11.2153 278.272 11.1219 278.592 11.1219C278.969 11.1219 279.341 11.2516 279.636 11.4971C279.754 11.5922 279.858 11.7063 279.946 11.8359C280.458 12.5828 280.267 13.6029 279.521 14.1146C278.091 15.0949 276.683 16.1478 275.338 17.2456C275.306 17.2715 275.273 17.2975 275.238 17.3217Z" fill="#DEE8FD"/>
<path d="M274.303 17.6155C273.826 17.6155 273.354 17.4098 273.03 17.0122C273.013 16.9914 272.997 16.9707 272.982 16.95C273.734 17.071 274.486 17.1937 275.238 17.3216C274.956 17.5187 274.628 17.6155 274.303 17.6155Z" fill="url(#paint5_linear)"/>
<path d="M345.427 11.1824C345.159 11.1824 344.888 11.1167 344.637 10.9784C343.119 10.1416 341.546 9.3584 339.959 8.65129C339.132 8.28131 338.761 7.31313 339.129 6.485C339.4 5.87471 340 5.51338 340.628 5.51338C340.851 5.51338 341.077 5.55832 341.293 5.65514C342.965 6.40028 344.623 7.22497 346.221 8.1067C346.312 8.15683 346.397 8.21389 346.473 8.27786C347.07 8.77059 347.251 9.63158 346.864 10.3335C346.565 10.8764 346.005 11.1824 345.427 11.1824ZM286.111 9.98253C285.508 9.98253 284.929 9.64885 284.642 9.07487C284.237 8.26402 284.567 7.28031 285.376 6.87575C287.012 6.05972 288.703 5.3042 290.402 4.62821C290.601 4.55041 290.805 4.51236 291.007 4.51236C291.389 4.51236 291.759 4.64722 292.053 4.88927C292.259 5.0587 292.425 5.28172 292.532 5.54796C292.866 6.38992 292.454 7.34253 291.612 7.6762C289.998 8.31761 288.393 9.0351 286.841 9.80964C286.606 9.9272 286.357 9.98253 286.111 9.98253ZM332.452 5.80385C332.302 5.80385 332.148 5.78308 331.996 5.73986C330.332 5.2575 328.624 4.83911 326.92 4.49679C326.033 4.31872 325.457 3.45602 325.635 2.56737C325.791 1.78765 326.475 1.24998 327.241 1.24998C327.348 1.24998 327.456 1.26037 327.564 1.28284C329.359 1.64245 331.157 2.08158 332.908 2.58814C333.13 2.65384 333.329 2.76103 333.494 2.89934C333.984 3.30217 334.214 3.97297 334.027 4.61957C333.818 5.33705 333.163 5.80385 332.452 5.80385ZM299.306 5.13648C298.569 5.13648 297.899 4.63684 297.715 3.88824C297.499 3.00997 298.035 2.12134 298.915 1.90524C300.687 1.46956 302.501 1.10128 304.308 0.814288C304.396 0.800457 304.482 0.795278 304.567 0.795278C304.956 0.795278 305.322 0.933608 305.609 1.17046C305.907 1.41596 306.119 1.76518 306.185 2.17666C306.327 3.07048 305.718 3.91244 304.823 4.05421C303.106 4.32737 301.382 4.67488 299.698 5.08981C299.567 5.12093 299.436 5.13648 299.306 5.13648ZM318.609 3.40243C318.574 3.40243 318.54 3.40069 318.505 3.39896C317.219 3.31943 315.92 3.27969 314.627 3.27969C314.176 3.27969 313.728 3.28486 313.28 3.2935C313.267 3.2935 313.255 3.2935 313.241 3.2935C312.354 3.2935 311.624 2.58468 311.605 1.69085C311.584 0.784918 312.304 0.0345793 313.21 0.0155611C313.68 0.00518799 314.154 -4.76837e-06 314.627 -4.76837e-06C315.988 -4.76837e-06 317.355 0.041501 318.707 0.126216C319.067 0.146963 319.392 0.28355 319.65 0.496202C320.04 0.819502 320.277 1.31742 320.244 1.86201C320.189 2.73164 319.468 3.40243 318.609 3.40243Z" fill="#DEE8FD"/>
<path d="M376.842 52.7221C376.096 52.7221 375.42 52.2104 375.245 51.4514C375.053 50.6215 374.844 49.7882 374.621 48.9739C374.38 48.1026 374.892 47.2001 375.767 46.9598C375.912 46.92 376.058 46.901 376.201 46.901C376.588 46.901 376.957 47.0375 377.245 47.2761C377.498 47.4836 377.69 47.7689 377.783 48.106C378.018 48.9618 378.239 49.8384 378.44 50.7132C378.646 51.5966 378.094 52.4766 377.212 52.6806C377.088 52.7083 376.963 52.7221 376.842 52.7221Z" fill="#DEE8FD"/>
<path d="M363.432 60.5366C363.433 60.2099 363.228 59.9177 362.92 59.8105L354.118 56.7193C353.148 52.4732 351.494 48.3498 349.153 44.5272L353.281 36.1699C353.427 35.8759 353.37 35.5233 353.14 35.2916L345.272 27.3353C345.042 27.1036 344.689 27.0414 344.395 27.1832L335.993 31.2201C332.196 28.8342 328.092 27.1348 323.856 26.1182L320.865 17.2819C320.759 16.9724 320.469 16.7632 320.142 16.7615L308.953 16.6993C308.626 16.6975 308.334 16.9032 308.227 17.2127L305.136 26.0127C300.889 26.9826 296.766 28.6371 292.944 30.9798L284.586 26.8495C284.292 26.706 283.94 26.7631 283.708 26.993L275.752 34.8594C275.52 35.0893 275.458 35.442 275.599 35.7359L279.636 44.14C277.251 47.9366 275.551 52.0392 274.534 56.275L265.698 59.2676C265.389 59.3731 265.179 59.6618 265.178 59.9886L265.115 71.1779C265.114 71.5046 265.319 71.7968 265.629 71.9057L274.431 74.9953C275.399 79.2431 277.053 83.3647 279.396 87.1873L275.266 95.5447C275.122 95.8386 275.179 96.1913 275.409 96.423L283.276 104.379C283.506 104.613 283.858 104.673 284.152 104.531L292.556 100.496C296.353 102.88 300.457 104.58 304.693 105.596L307.684 114.433C307.789 114.742 308.078 114.951 308.405 114.953L319.594 115.015C319.921 115.017 320.213 114.811 320.322 114.504L323.412 105.702C327.659 104.732 331.781 103.077 335.604 100.737L343.961 104.865C344.255 105.01 344.608 104.953 344.839 104.723L352.796 96.8552C353.029 96.6252 353.09 96.2725 352.948 95.9786L348.913 87.5763C351.297 83.7797 352.996 79.6753 354.013 75.4396L362.849 72.4486C363.159 72.3431 363.368 72.0527 363.369 71.726L363.432 60.5366Z" fill="#91B3FA"/>
<path d="M308.77 72.497C309.096 72.7667 309.444 73.0139 309.814 73.237C313.882 75.6971 319.195 74.3867 321.653 70.3186C324.113 66.2489 322.806 60.936 318.735 58.4775C314.665 56.0174 309.354 57.3279 306.894 61.3959C305.703 63.3686 305.35 65.6852 305.901 67.9224C306.349 69.7395 307.352 71.3266 308.77 72.497ZM321.439 57.1878C325.668 60.6767 326.817 66.847 323.899 71.6758C320.69 76.9835 313.763 78.6898 308.455 75.4828C305.884 73.9285 304.072 71.4666 303.353 68.55C302.634 65.6334 303.094 62.6113 304.648 60.0405C307.857 54.7328 314.784 53.0247 320.092 56.2317C320.571 56.5222 321.021 56.842 321.439 57.1878Z" fill="#BDD0FB"/>
<path d="M331.603 44.5134C332.329 45.1133 333.029 45.7512 333.7 46.4306C333.911 46.6433 334.12 46.8612 334.324 47.0807C335.331 48.1682 336.25 49.3335 337.068 50.5575C337.078 50.5748 337.091 50.5903 337.101 50.6076C337.132 50.656 337.163 50.7027 337.194 50.7511C337.257 50.8427 337.315 50.9361 337.376 51.0295C337.533 51.275 337.505 51.5862 337.329 51.8006C337.286 51.8524 337.234 51.8974 337.175 51.9354C336.869 52.1308 336.465 52.0391 336.269 51.7349C335.268 50.1633 334.089 48.6886 332.768 47.3539C326.206 40.715 316.958 38.305 308.447 40.141C303.713 41.1611 299.206 43.495 295.514 47.1447C294.866 47.7861 294.256 48.4535 293.685 49.1467C289.837 53.8078 287.729 59.603 287.695 65.7284C287.655 72.7649 290.359 79.3951 295.305 84.3985C305.525 94.7303 322.233 94.8202 332.559 84.606C333.197 83.9767 333.799 83.3162 334.366 82.6316C336.819 79.6562 338.595 76.1794 339.552 72.4416C339.578 72.3448 339.623 72.2583 339.682 72.1857C339.839 71.9973 340.097 71.9039 340.351 71.9679C340.702 72.0595 340.915 72.4157 340.823 72.7666C339.817 76.6912 337.953 80.3426 335.377 83.4649C334.783 84.1859 334.151 84.8774 333.482 85.5396C322.639 96.2621 305.092 96.16 294.373 85.3217C289.178 80.0694 286.341 73.1089 286.383 65.7215C286.419 59.29 288.632 53.2078 292.67 48.3134C293.27 47.5855 293.912 46.8853 294.591 46.2128C299.844 41.0175 306.804 38.1805 314.192 38.222C320.623 38.2565 326.709 40.473 331.603 44.5134Z" fill="#BDD0FB"/>
<path d="M456.514 100.508C456.334 100.508 456.155 100.467 455.983 100.382C455.394 100.09 455.159 99.3741 455.453 98.788C455.883 97.9287 456.293 97.0435 456.673 96.16C456.865 95.7105 457.304 95.4391 457.766 95.4391C457.921 95.4391 458.079 95.4702 458.233 95.5359C458.338 95.5809 458.435 95.6414 458.52 95.7122C458.917 96.039 459.068 96.5992 458.855 97.0954C458.459 98.0221 458.029 98.9505 457.576 99.8513C457.368 100.268 456.95 100.508 456.514 100.508Z" fill="#DEE8FD"/>
<path d="M450.634 110.285H448.719C448.396 109.848 448.406 109.232 448.774 108.804C449.004 108.537 449.231 108.269 449.452 108.001C450.505 106.724 451.506 105.379 452.424 104.002C452.654 103.658 453.031 103.473 453.415 103.473C453.641 103.473 453.869 103.537 454.072 103.672C454.106 103.696 454.139 103.721 454.17 103.745C454.633 104.129 454.742 104.808 454.4 105.32C453.437 106.763 452.388 108.174 451.285 109.512C451.07 109.772 450.854 110.029 450.634 110.285Z" fill="#DEE8FD"/>
<path d="M375.938 110.285H372.75C372.704 110.23 372.657 110.175 372.608 110.119C372.183 109.62 372.244 108.871 372.743 108.446C372.968 108.255 373.241 108.162 373.513 108.162C373.782 108.162 374.052 108.254 374.268 108.433C374.322 108.477 374.372 108.525 374.417 108.58C374.908 109.156 375.416 109.725 375.938 110.285Z" fill="url(#paint6_linear)"/>
<path d="M457.671 58.1404C457.213 58.1404 456.774 57.8724 456.58 57.4246C455.797 55.6162 454.893 53.8372 453.893 52.136C453.561 51.5707 453.751 50.8428 454.317 50.5109C454.505 50.4002 454.711 50.3466 454.917 50.3466C455.19 50.3466 455.46 50.4417 455.674 50.6181C455.778 50.7045 455.869 50.81 455.942 50.9327C456.99 52.7169 457.937 54.5841 458.758 56.4807C459.019 57.0823 458.743 57.7825 458.141 58.0436C457.987 58.1093 457.828 58.1404 457.671 58.1404ZM451.528 47.679C451.17 47.679 450.816 47.5182 450.582 47.2156C449.383 45.6493 448.076 44.1399 446.698 42.7292C446.24 42.2607 446.248 41.5086 446.717 41.0504C446.948 40.824 447.247 40.7116 447.547 40.7116C447.815 40.7116 448.083 40.8015 448.302 40.9813C448.335 41.009 448.366 41.0383 448.395 41.0695C449.841 42.5476 451.212 44.1296 452.469 45.7703C452.866 46.2907 452.768 47.0358 452.247 47.4352C452.033 47.5995 451.779 47.679 451.528 47.679ZM443.046 39.0017C442.785 39.0017 442.522 38.9153 442.303 38.7389C440.764 37.5011 439.136 36.3479 437.466 35.3106C436.914 34.9613 436.736 34.2318 437.083 33.6751C437.308 33.312 437.695 33.1132 438.093 33.1132C438.307 33.1132 438.524 33.172 438.719 33.293C440.47 34.3822 442.177 35.5906 443.79 36.8873L443.804 36.8977C444.303 37.3109 444.379 38.0509 443.973 38.5574C443.738 38.8496 443.394 39.0017 443.046 39.0017ZM432.744 32.6032C432.578 32.6032 432.409 32.5686 432.248 32.4942C430.453 31.6661 428.595 30.94 426.722 30.3366C426.096 30.1309 425.754 29.4652 425.956 28.8411C426.117 28.338 426.584 28.0181 427.087 28.0181C427.208 28.0181 427.331 28.0354 427.45 28.0752C429.414 28.708 431.363 29.4687 433.244 30.3383C433.339 30.3815 433.425 30.4369 433.501 30.5008C433.907 30.8362 434.054 31.4137 433.823 31.915C433.622 32.3473 433.193 32.6032 432.744 32.6032ZM391.459 32.2366C391.002 32.2366 390.566 31.9721 390.369 31.5278C390.105 30.9278 390.376 30.2277 390.978 29.9631C392.866 29.1298 394.83 28.4037 396.813 27.8038C396.927 27.7692 397.043 27.7536 397.155 27.7536C397.435 27.7536 397.703 27.8522 397.912 28.0268C398.087 28.1703 398.224 28.3657 398.293 28.5991C398.483 29.2267 398.127 29.8888 397.499 30.079C395.608 30.6495 393.735 31.3411 391.936 32.1364C391.78 32.2038 391.618 32.2366 391.459 32.2366ZM421.205 28.8878C421.131 28.8878 421.057 28.8809 420.981 28.8671C419.046 28.4936 417.068 28.236 415.101 28.1011C414.446 28.0562 413.951 27.4874 413.998 26.8339C414.041 26.2063 414.561 25.7274 415.18 25.7274C415.208 25.7274 415.236 25.7291 415.263 25.7309C417.326 25.8726 419.401 26.1423 421.43 26.5331C421.633 26.5728 421.812 26.661 421.961 26.7838C422.284 27.0517 422.457 27.4839 422.371 27.9248C422.262 28.4936 421.764 28.8878 421.205 28.8878ZM403.07 28.7253C402.501 28.7253 401.999 28.319 401.901 27.7415C401.789 27.0949 402.221 26.4812 402.866 26.3688C404.899 26.0144 406.979 25.781 409.046 25.6738C409.067 25.6738 409.088 25.6721 409.109 25.6721C409.394 25.6721 409.658 25.7741 409.864 25.9435C410.111 26.1492 410.276 26.4535 410.295 26.7993C410.327 27.4545 409.824 28.013 409.169 28.0458C407.196 28.1478 405.213 28.3708 403.274 28.708C403.204 28.7201 403.137 28.7253 403.07 28.7253Z" fill="#DEE8FD"/>
<path d="M460.511 66.7761C459.97 66.7761 459.481 66.4044 459.353 65.8546C459.138 64.9262 458.891 63.9839 458.618 63.0538C458.433 62.4245 458.793 61.7641 459.422 61.5791C459.534 61.5462 459.647 61.5307 459.757 61.5307C460.036 61.5307 460.304 61.6292 460.513 61.8038C460.691 61.9491 460.827 62.1479 460.897 62.3847C461.183 63.3598 461.441 64.347 461.668 65.3204C461.814 65.9601 461.417 66.598 460.777 66.745C460.687 66.7657 460.599 66.7761 460.511 66.7761Z" fill="#DEE8FD"/>
<path d="M449.986 73.0069C449.988 72.7511 449.827 72.5211 449.585 72.4364L442.678 70.0125C441.917 66.6792 440.621 63.4445 438.783 60.4449L442.023 53.8873C442.135 53.6573 442.09 53.3807 441.91 53.1992L435.738 46.9562C435.557 46.7747 435.28 46.7262 435.05 46.8369L428.456 50.0042C425.478 48.1318 422.257 46.7989 418.934 46.0001L416.586 39.0691C416.505 38.8253 416.276 38.661 416.021 38.6593L407.241 38.6109C406.984 38.6092 406.755 38.7717 406.671 39.0137L404.245 45.9189C400.914 46.6796 397.679 47.978 394.679 49.8158L388.122 46.5758C387.892 46.4617 387.615 46.5067 387.432 46.6865L381.191 52.8603C381.007 53.0401 380.959 53.3167 381.071 53.5484L384.237 60.1406C382.366 63.1195 381.033 66.3404 380.234 69.6633L373.302 72.0111C373.06 72.0941 372.895 72.3205 372.894 72.5782L372.845 81.3557C372.843 81.6133 373.004 81.8415 373.246 81.9279L380.153 84.3518C380.914 87.6833 382.211 90.9198 384.048 93.9177L380.808 100.477C380.694 100.707 380.739 100.984 380.921 101.165L387.093 107.408C387.274 107.59 387.549 107.638 387.781 107.527L394.375 104.36C397.354 106.231 400.573 107.565 403.898 108.362L406.245 115.295C406.327 115.539 406.555 115.703 406.811 115.705L415.59 115.753C415.846 115.755 416.076 115.593 416.161 115.351L418.586 108.445C421.918 107.685 425.152 106.386 428.152 104.549L434.71 107.788C434.94 107.903 435.216 107.858 435.4 107.678L441.641 101.504C441.824 101.324 441.872 101.048 441.76 100.816L438.594 94.222C440.465 91.2431 441.798 88.0239 442.597 84.6993L449.53 82.3532C449.772 82.2702 449.936 82.0437 449.938 81.7861L449.986 73.0069Z" fill="#91B3FA"/>
<path d="M407.207 82.2773C407.452 82.4795 407.717 82.668 407.997 82.8374C411.116 84.7219 415.186 83.7191 417.07 80.6003C417.983 79.091 418.254 77.3137 417.832 75.6004C417.409 73.8871 416.344 72.4417 414.835 71.5272C413.324 70.6143 411.548 70.3429 409.835 70.7664C408.12 71.1883 406.674 72.2533 405.76 73.7643C404.046 76.5996 404.722 80.2251 407.207 82.2773ZM417.15 70.2651C418.626 71.4839 419.67 73.1384 420.137 75.0333C420.713 77.3621 420.344 79.7756 419.103 81.8295C416.541 86.067 411.009 87.431 406.769 84.8706C402.529 82.2963 401.166 76.7743 403.728 72.5351C404.97 70.4812 406.935 69.0341 409.266 68.4601C411.595 67.8844 414.01 68.2526 416.064 69.494C416.446 69.7274 416.811 69.985 417.15 70.2651Z" fill="#BDD0FB"/>
<path d="M425.457 59.9316C426.038 60.4088 426.596 60.9205 427.137 61.4651C428.207 62.5491 429.17 63.7403 429.999 65.0145C430.035 65.0715 430.071 65.1286 430.109 65.1874C430.393 65.6317 430.343 66.1936 430.024 66.5808C429.947 66.6742 429.853 66.7572 429.746 66.8264C429.193 67.1791 428.46 67.0131 428.105 66.4633C427.345 65.2669 426.449 64.1483 425.448 63.1369C425.393 63.0816 425.337 63.0263 425.282 62.971C422.891 60.599 419.999 58.9116 416.847 57.9953C415.137 57.4991 413.349 57.2294 411.522 57.2017H411.477C411.432 57.2017 411.387 57.2 411.341 57.2C406 57.1706 400.967 59.2228 397.169 62.9779C396.676 63.4637 396.215 63.9702 395.781 64.4975C392.861 68.0348 391.26 72.4348 391.234 77.0855C391.204 82.426 393.257 87.4588 397.012 91.2571C400.767 95.0503 405.777 97.163 411.118 97.1923C416.46 97.2217 421.492 95.1713 425.291 91.4144C425.773 90.9373 426.231 90.4359 426.66 89.9155C428.524 87.6576 429.871 85.0176 430.598 82.1805C430.643 82.0059 430.725 81.8503 430.832 81.7206C431.117 81.3766 431.584 81.2071 432.044 81.3247C432.678 81.4907 433.062 82.1338 432.9 82.7718C432.085 85.946 430.578 88.9007 428.494 91.4265C428.012 92.0092 427.502 92.5693 426.961 93.1036C422.711 97.3065 417.08 99.6006 411.104 99.5678C405.129 99.5349 399.524 97.182 395.323 92.9272C391.12 88.6776 388.824 83.0484 388.858 77.0717C388.888 71.8695 390.679 66.9474 393.946 62.9883C394.43 62.4004 394.949 61.8334 395.499 61.2888C403.725 53.1544 416.719 52.7187 425.457 59.9316Z" fill="#BDD0FB"/>
<path d="M482.152 357.383H5.65747V110.285H482.152V357.383ZM9.34551 110.285V350.744H477.726V110.285H9.34551Z" fill="#2D2D9A"/>
<path d="M9.34534 350.744H477.726V110.285H9.34534V350.744Z" fill="#7C7CD9"/>
<path d="M482.05 96.2692H6.53394C3.2859 96.2692 0 98.9852 0 102.334V109.609C0 111.227 0.953647 112.778 2.0686 113.917C3.18355 115.057 4.85693 115.69 6.42623 115.674L481.595 111.051C484.821 111.02 487.076 108.314 487.076 104.986V102.334C487.076 98.9852 485.299 96.2692 482.05 96.2692Z" fill="#2D2D9A"/>
<path d="M482.503 347.793H7.14117C3.894 347.793 0.609131 350.9 0.609131 354.25V361.524C0.609131 363.142 1.56243 364.694 2.67704 365.832C3.79165 366.971 5.46451 367.604 7.03347 367.589L482.05 362.967C485.274 362.934 487.529 360.229 487.529 356.902V354.25C487.529 350.9 485.75 347.793 482.503 347.793Z" fill="#2D2D9A"/>
<path d="M459.853 124.438L23.5702 121.895C21.7411 121.884 19.6454 122.603 18.348 123.893C17.051 125.183 15.9838 126.936 15.9838 128.765V336.722C15.9838 340.516 19.747 343.369 23.5417 343.369H459.835C463.63 343.369 466.661 340.516 466.661 336.722V131.31C466.661 127.531 463.632 124.46 459.853 124.438Z" fill="#6564C4"/>
<path d="M157.984 134.557C156.445 134.557 155.2 133.302 155.214 131.761C155.23 130.266 156.431 129.05 157.927 129.021L310.231 125.918C310.25 125.918 310.269 125.918 310.288 125.918C311.823 125.918 313.069 127.171 313.056 128.713L313.031 131.165C313.017 132.679 311.788 133.9 310.275 133.907L157.996 134.557C157.991 134.557 157.987 134.557 157.984 134.557Z" fill="#B2C9FB"/>
<path d="M310.111 149.819C310.103 149.819 310.094 149.819 310.085 149.819L157.825 148.367C156.296 148.352 155.069 147.102 155.083 145.571L155.093 144.527C155.107 143.008 156.345 141.785 157.861 141.785C157.87 141.785 157.878 141.785 157.889 141.785L310.147 143.238C311.676 143.251 312.905 144.503 312.889 146.033L312.879 147.077C312.865 148.597 311.629 149.819 310.111 149.819Z" fill="#B2C9FB"/>
<path d="M309.987 162.883C309.978 162.883 309.97 162.883 309.961 162.883L203.913 161.871C202.385 161.857 201.157 160.606 201.173 159.076L201.176 158.618C201.19 157.106 202.416 155.886 203.927 155.876L309.989 155.191C309.996 155.191 310.001 155.191 310.008 155.191C311.545 155.191 312.791 156.444 312.776 157.985L312.755 160.141C312.741 161.66 311.503 162.883 309.987 162.883Z" fill="#B2C9FB"/>
<path d="M30.957 334.052H56.4228V202.41H30.957V334.052Z" fill="#BDD0FB"/>
<path d="M73.5082 334.052H98.974V202.41H73.5082V334.052Z" fill="#BDD0FB"/>
<path d="M116.059 334.052H141.525V202.41H116.059V334.052Z" fill="#BDD0FB"/>
<path d="M158.61 334.052H184.076V202.41H158.61V334.052Z" fill="#BDD0FB"/>
<path d="M201.161 334.052H226.627V202.41H201.161V334.052Z" fill="#BDD0FB"/>
<path d="M243.712 334.052H269.178V202.41H243.712V334.052Z" fill="#BDD0FB"/>
<path d="M286.263 334.052H311.73V202.41H286.263V334.052Z" fill="#BDD0FB"/>
<path d="M30.957 334.052H56.4228V265.158H30.957V334.052Z" fill="#E5ECFD"/>
<path d="M73.5082 334.052H98.974V288.835H73.5082V334.052Z" fill="#E5ECFD"/>
<path d="M116.059 334.052H141.525V230.319H116.059V334.052Z" fill="#E5ECFD"/>
<path d="M158.61 334.052H184.076V309.13H158.61V334.052Z" fill="#E5ECFD"/>
<path d="M201.161 334.052H226.627V244.187H201.161V334.052Z" fill="#E5ECFD"/>
<path d="M243.712 334.052H269.178V310.883H243.712V334.052Z" fill="#E5ECFD"/>
<path d="M286.263 334.052H311.73V276.658H286.263V334.052Z" fill="#E5ECFD"/>
<path d="M360.949 304.286H329.905C327.957 304.286 326.376 302.708 326.376 300.759C326.376 298.809 327.957 297.231 329.905 297.231H360.949C362.897 297.231 364.477 298.809 364.477 300.759C364.477 302.708 362.897 304.286 360.949 304.286Z" fill="#D7E4FD"/>
<path d="M408.294 304.286H377.25C375.302 304.286 373.722 302.708 373.722 300.759C373.722 298.809 375.302 297.231 377.25 297.231H408.294C410.243 297.231 411.823 298.809 411.823 300.759C411.823 302.708 410.243 304.286 408.294 304.286Z" fill="#D7E4FD"/>
<path d="M455.64 304.286H424.596C422.647 304.286 421.067 302.708 421.067 300.759C421.067 298.809 422.647 297.231 424.596 297.231H455.64C457.588 297.231 459.168 298.809 459.168 300.759C459.168 302.708 457.588 304.286 455.64 304.286Z" fill="#D7E4FD"/>
<path d="M360.949 336.04H329.905C327.957 336.04 326.376 334.46 326.376 332.512V311.734C326.376 309.785 327.957 308.207 329.905 308.207H360.949C362.897 308.207 364.477 309.785 364.477 311.734V332.512C364.477 334.46 362.897 336.04 360.949 336.04Z" fill="#D7E4FD"/>
<path d="M408.294 336.04H377.25C375.302 336.04 373.722 334.46 373.722 332.512V311.734C373.722 309.785 375.302 308.207 377.25 308.207H408.294C410.243 308.207 411.823 309.785 411.823 311.734V332.512C411.823 334.46 410.243 336.04 408.294 336.04Z" fill="#D7E4FD"/>
<path d="M455.64 336.04H424.596C422.647 336.04 421.067 334.46 421.067 332.512V311.734C421.067 309.785 422.647 308.207 424.596 308.207H455.64C457.588 308.207 459.168 309.785 459.168 311.734V332.512C459.168 334.46 457.588 336.04 455.64 336.04Z" fill="#D7E4FD"/>
<path d="M455.753 287.723H323.645C322.585 287.723 321.728 286.864 321.728 285.806V248.53C321.728 247.472 322.585 246.614 323.645 246.614H455.753C456.813 246.614 457.671 247.472 457.671 248.53V285.806C457.671 286.864 456.813 287.723 455.753 287.723Z" fill="#D3E1FD"/>
<path d="M386.383 237.484H331.7C330.434 237.484 329.409 236.459 329.409 235.195V133.06C329.409 131.796 330.434 130.771 331.7 130.771H386.383C387.646 130.771 388.672 131.796 388.672 133.06V235.195C388.672 236.459 387.646 237.484 386.383 237.484Z" fill="#D3E1FD"/>
<path d="M451.259 237.484H396.576C395.31 237.484 394.287 236.459 394.287 235.195V133.06C394.287 131.796 395.31 130.771 396.576 130.771H451.259C452.523 130.771 453.548 131.796 453.548 133.06V235.195C453.548 236.459 452.523 237.484 451.259 237.484Z" fill="#D3E1FD"/>
<path d="M64.9705 468.913C64.9705 468.913 63.89 474.706 63.3326 480.448C63.1146 482.691 64.8272 484.656 67.0782 484.772C74.7259 485.165 91.0854 485.939 96.9597 485.734C97.8432 485.702 98.4293 484.805 98.1112 483.98C97.8432 483.291 97.3211 482.729 96.6503 482.412L69.7367 469.73L64.9705 468.913Z" fill="#2D2D9A"/>
<path d="M64.1633 465.495L64.9208 472.445C64.9208 472.445 69.635 474.694 72.8926 472.243L71.0055 464.489L64.1633 465.495Z" fill="url(#paint7_linear)"/>
<path d="M66.0273 334.987C65.6542 336.798 63.2547 425.437 72.3519 465.256C72.5004 465.905 72.1655 466.57 71.546 466.817C70.0869 467.397 67.2292 468.23 63.8133 468.311C62.7556 468.337 61.8139 467.64 61.5251 466.622C58.9043 457.379 46.3647 411.072 45.0924 366.939C43.6706 317.623 45.1085 365.26 45.1085 365.26L46.5088 334.797L66.0273 334.987Z" fill="#6564C4"/>
<path d="M33.8453 471.645C33.8453 471.645 32.1853 474.558 30.5312 482.329C30.2325 483.733 31.202 485.087 32.6285 485.243C35.1525 485.514 39.0385 485.87 42.1541 485.879C43.5901 485.882 44.7229 484.643 44.5635 483.216C44.2456 480.37 43.215 475.697 39.9287 472.032L33.8453 471.645Z" fill="#2D2D9A"/>
<path d="M32.4971 462.701L34.3214 473.218C34.3214 473.218 36.211 474.651 39.9852 473.662L39.1741 462.357L32.4971 462.701Z" fill="url(#paint8_linear)"/>
<path d="M28.4931 337.351C20.2964 384.051 29.0714 452.975 32.1239 466.477C32.3107 467.304 32.9704 467.941 33.8051 468.088C35.2226 468.337 37.5585 468.552 39.8695 467.903C40.6656 467.68 41.2304 466.97 41.2705 466.143C41.8013 455.257 41.6711 388.384 49.1449 362.027C49.5237 360.69 50.3525 359.53 51.4918 358.737L65.6036 348.906L66.8319 332.809L28.4931 337.351Z" fill="#6564C4"/>
<path d="M78.7251 249.192C55.5021 248.587 29.8122 254.824 29.8122 254.824C22.5034 295.156 27.7716 341.808 27.7716 341.808C45.7082 346.693 66.0649 339.289 66.0649 339.289C69.2145 322.432 83.6123 275.044 83.6123 275.044C94.9743 273.743 104.354 270.559 112.094 266.304C106.287 259.44 103.6 250.753 102.447 245.622C94.2108 248.096 85.888 249.378 78.7251 249.192Z" fill="#FF7542"/>
<path d="M147.659 215.636C145.405 212.858 142.504 214.134 142.504 214.134C138.947 228.539 120.915 240.075 102.447 245.622C103.6 250.753 106.287 259.441 112.094 266.304C142.815 249.415 147.659 215.636 147.659 215.636Z" fill="url(#paint9_linear)"/>
<path d="M147.099 216.331C147.331 217.092 144.554 218.221 142.956 215.102C142.913 213.613 142.07 207.23 142.97 206.027C147.766 199.618 157.023 191.613 157.023 191.613C158.56 193.159 157.268 194.651 157.268 194.651L152.77 199.248C153.686 200.939 154.808 202.37 155.321 204.412C155.71 205.958 155.448 207.604 154.656 208.999C153.861 210.399 152.776 212.22 151.755 213.643C149.82 216.336 147.099 216.331 147.099 216.331Z" fill="url(#paint10_linear)"/>
<path d="M150.794 202.239L146.703 205.64L145.396 209.052L148.976 213.101C148.976 213.101 150.258 206.317 151.176 204.855C152.094 203.392 151.632 202.676 150.794 202.239Z" fill="url(#paint11_linear)"/>
<path d="M38.5064 277.4L29.8122 254.824C29.8122 254.824 7.97636 269.359 4.23022 288.014C8.3268 288.356 15.7758 289.494 23.042 293.249C24.7306 284.44 38.5064 277.4 38.5064 277.4Z" fill="#FF7542"/>
<path d="M57.2636 298.743C57.2636 298.743 32.774 312.277 24.6673 300.444C22.9843 297.987 22.5994 295.558 23.0418 293.249C15.7757 289.493 8.32665 288.356 4.23008 288.014C3.1006 293.638 3.61217 299.637 6.86523 305.724C21.0106 332.197 60.4298 304.78 60.4298 304.78L57.2636 298.743Z" fill="#FF7542"/>
<path d="M55.3784 230.112L47.784 251.413C47.6583 251.766 47.7999 252.16 48.1263 252.343C50.1301 253.478 57.3573 256.766 66.1567 251.304C67.0735 250.736 67.7029 249.799 67.8514 248.73L70.421 230.255L55.3784 230.112Z" fill="#FF7542"/>
<path d="M71.6474 210.473C71.6474 210.473 79.6173 225.828 78.5181 231.988C77.4189 238.149 67.3653 237.61 58.6303 232.515L52.6504 215.961L71.6474 210.473Z" fill="url(#paint12_linear)"/>
<path d="M59.0961 224.417C59.4545 224.263 59.5903 223.827 59.3798 223.499C58.7389 222.5 57.5395 220.461 57.1675 218.682C57.1675 218.682 55.7175 217.735 60.9014 216.545C66.0854 215.358 73.8168 213.509 75.4798 209.123C77.1015 204.846 73.0514 194.011 66.3435 202.548C66.0883 202.873 65.5946 202.877 65.3458 202.547C64.2734 201.122 61.4456 198.16 57.464 199.901C53.7379 201.532 53.2941 204.246 53.332 205.617C53.343 206.02 52.9796 206.329 52.5842 206.25C50.7119 205.875 46.2133 205.525 44.0681 210.122C42.3014 213.909 43.4056 216.073 44.4201 217.137C44.7486 217.481 44.5979 218.041 44.1413 218.176C42.9048 218.542 41.3031 219.571 41.4349 222.462C41.6171 226.457 46.0849 226.147 47.3575 225.978C47.566 225.95 47.7752 226.023 47.9147 226.18C48.9932 227.397 53.8544 232.565 59.1631 233.232C59.6228 233.291 59.984 232.84 59.8372 232.401L57.6011 225.693C57.4972 225.382 57.6492 225.041 57.9505 224.911L59.0961 224.417Z" fill="#2D2D9A"/>
<path d="M60.0112 225.375C60.0112 225.375 54.2709 221.355 53.8167 224.69C53.3629 228.025 58.9739 229.576 61.7722 228.357L60.0112 225.375Z" fill="url(#paint13_linear)"/>
<path d="M52.2586 320.133L65.5991 273.545C65.7506 273.015 66.2016 272.63 66.7481 272.566C69.1653 272.284 76.1689 271.492 84.2554 270.808C93.9957 269.985 105.307 269.317 112.067 269.884C113.028 269.966 113.609 270.982 113.182 271.847C109.337 279.623 93.5263 311.255 85.6086 321.618C85.3461 321.962 84.9405 322.162 84.5085 322.159L53.5565 321.87C52.6559 321.862 52.0109 320.997 52.2586 320.133Z" fill="#2D2D9A"/>
<path d="M55.4819 308.876C55.4819 308.876 53.6233 301.234 54.373 298.523C55.1226 295.812 56.5751 292.327 61.4161 293.102C66.2573 293.876 71.9678 295.916 71.9678 295.916C71.9678 295.916 71.6794 299.447 68 298.307L70.2818 300.072C70.2818 300.072 69.9556 302.901 66.8479 301.39L68.9699 303.731C68.9699 303.731 67.6351 306.054 65.3486 304.564C63.0622 303.074 61.9661 309.796 55.4819 308.876Z" fill="url(#paint14_linear)"/>
<path d="M83.366 284.715C83.366 286.878 85.1192 288.631 87.2821 288.631C89.4447 288.631 91.198 286.878 91.198 284.715C91.198 282.552 89.4447 280.799 87.2821 280.799C85.1192 280.799 83.366 282.552 83.366 284.715Z" fill="#C5CAE9"/>
<path d="M67.1085 287.298L66.1101 287.002L68.826 277.789C69.2693 276.288 70.4805 275.161 71.9866 274.848C80.5959 273.05 103.27 272.683 104.231 272.67L104.247 273.71C104.014 273.712 80.7112 274.091 72.199 275.866C71.0687 276.102 70.1588 276.95 69.8243 278.083L67.1085 287.298Z" fill="#91B3FA"/>
<path d="M477.65 408.067C479.131 410.261 485.023 459.923 485.945 478.262C486.007 479.504 485.015 480.538 483.773 480.538C482.701 480.538 481.79 479.758 481.626 478.7L470.85 409.647L477.65 408.067Z" fill="#7D97F4"/>
<path d="M430.284 408.067C428.802 410.261 422.91 459.923 421.989 478.262C421.926 479.504 422.919 480.538 424.16 480.538C425.23 480.538 426.143 479.758 426.307 478.7L437.084 409.647L430.284 408.067Z" fill="#7D97F4"/>
<path d="M486.56 404.193L486.566 404.734C486.602 408.629 483.245 411.825 479.043 411.896L429.236 412.743C425.094 412.814 421.641 409.82 421.441 405.985L421.415 405.489C421.205 401.489 424.601 398.119 428.921 398.041L478.749 397.149C483.013 397.073 486.526 400.239 486.56 404.193Z" fill="#7D97F4"/>
<path d="M392.804 477.635C401.657 477.635 405.575 476.874 407.326 476.183C406.986 477.637 405.691 478.785 404.055 478.785H372.733C371.678 478.785 371.013 477.775 371.263 476.861C374.835 477.148 382.418 477.635 392.804 477.635Z" fill="url(#paint15_linear)"/>
<path d="M371.263 476.86C371.315 476.675 371.389 476.494 371.521 476.328C373.907 473.282 378.699 468.496 385.219 468.589C394.771 468.723 398.101 469.76 405.523 468.646L407.274 474.45C407.452 475.042 407.456 475.633 407.326 476.183C405.575 476.874 401.657 477.635 392.803 477.635C382.418 477.635 374.835 477.147 371.263 476.86Z" fill="#2D2D9A"/>
<path d="M403.374 462.393L405.523 469.703C405.523 469.703 400.762 471.871 396.572 470.13L395.751 463.797L403.374 462.393Z" fill="url(#paint16_linear)"/>
<path d="M338.454 473.031C345.356 478.577 348.883 480.441 350.681 481.001C349.509 481.916 347.783 481.995 346.509 480.97L322.092 461.351C321.269 460.691 321.38 459.491 322.146 458.939C324.75 461.398 330.358 466.526 338.454 473.031Z" fill="url(#paint17_linear)"/>
<path d="M322.146 458.939C322.302 458.828 322.473 458.733 322.679 458.687C326.437 457.817 333.155 457.108 338.181 461.263C345.543 467.35 347.493 470.239 353.971 474.025L351.718 479.625C351.488 480.196 351.124 480.656 350.681 481.002C348.883 480.441 345.356 478.578 338.454 473.031C330.358 466.525 324.75 461.398 322.146 458.939Z" fill="#2D2D9A"/>
<path d="M449.351 379.11C449.351 379.11 396.342 383.437 385.469 388.556C374.595 393.676 394.342 465.421 394.342 465.421C394.342 465.421 397.304 466.845 403.891 464.798C403.891 464.798 397.136 411.853 402.162 400.372L459.555 390.984L449.351 379.11Z" fill="#2D2D9A"/>
<path d="M359.239 463.946C358.746 464.395 353.971 474.025 353.971 474.025C353.971 474.025 348.656 472.876 347.572 469.511L352.354 460.82L359.239 463.946Z" fill="url(#paint18_linear)"/>
<path d="M481.277 378.667C481.277 378.667 483.005 382.824 482.934 388.347C482.837 395.986 476.696 402.184 469.066 402.566L406.401 405.422C405.079 405.482 403.958 406.399 403.626 407.681C402.155 413.376 394.956 430.867 359.773 465.77C358.836 466.698 357.379 466.855 356.264 466.152L351.255 462.988C350.73 462.656 350.562 461.966 350.877 461.43L387.363 399.125C389.278 395.963 392.359 393.678 395.942 392.761L449.352 379.11L481.277 378.667Z" fill="#6564C4"/>
<path d="M419.523 281.34C419.523 281.34 426.235 293.209 433.079 298.959L418.934 306.851C418.934 306.851 415.746 294.286 408.462 290.607L419.523 281.34Z" fill="#FF7542"/>
<path d="M482.415 379.11C482.415 379.11 465.499 383.231 449.352 379.11C449.352 379.11 426.757 348.735 418.016 340.468C418.016 340.468 404.072 362.471 373.036 365.588L371.305 361.721C371.305 361.721 396.012 350.331 403.619 332.831C411.225 315.332 414.28 307.866 421.2 303.302C425.51 300.458 428.09 298.515 429.425 297.455C430.154 296.874 431.162 296.808 431.959 297.292C439.302 301.768 473.857 325.435 482.415 379.11Z" fill="#FF7542"/>
<path d="M418.932 340.041C419.259 340.041 419.58 339.894 419.793 339.616C425.18 332.591 428.181 324.849 428.306 324.522C428.52 323.964 428.242 323.336 427.682 323.12C427.122 322.906 426.496 323.186 426.28 323.744C426.25 323.822 423.261 331.528 418.071 338.295C417.708 338.772 417.796 339.451 418.273 339.818C418.469 339.968 418.702 340.041 418.932 340.041Z" fill="#FF9A75"/>
<path d="M374.902 359.702L371.408 358.77L360.802 356.315C359.526 356.019 358.184 356.246 357.074 356.942L347.955 362.681L373.139 362.637L374.902 359.702Z" fill="#FF7542"/>
<path d="M408.864 263.541C408.864 263.541 402.34 274.387 401.207 280.381C400.076 286.375 398.259 290.121 405.08 292.256C411.902 294.393 418.242 291.689 422.22 286.095C422.22 286.095 428.434 277.485 427.815 273.541C427.194 269.598 408.864 263.541 408.864 263.541Z" fill="url(#paint19_linear)"/>
<path d="M420.405 281.456L419.523 281.34C419.523 281.34 424.141 274.359 421.119 272.628C418.097 270.896 405.779 266.647 403.64 261.795C401.578 257.12 404.662 251.835 408.381 250.734C408.616 250.665 408.865 250.803 408.949 251.033L409.169 251.623C409.318 252.025 409.883 252.041 410.056 251.647C410.218 251.273 410.754 251.258 410.922 251.63C411.581 253.083 413.557 255.564 419.482 257.485C427.886 260.21 433.123 264.447 432.478 270.419C432.436 270.798 432.813 271.059 433.161 270.905C433.847 270.6 434.889 270.554 436.098 271.876C438.202 274.177 436.554 279.209 430.809 282.77C430.536 282.939 430.488 283.323 430.731 283.532C431.591 284.269 432.801 285.91 428.914 287.372C424.938 288.868 422.768 288.363 421.966 288.041C421.752 287.953 421.627 287.73 421.672 287.502L422.694 282.269C422.746 281.999 422.559 281.74 422.286 281.703L420.405 281.456Z" fill="#2D2D9A"/>
<path d="M420.042 282.531C420.042 282.531 422.922 275.434 425.944 277.929C428.968 280.424 423.15 285.937 420.466 285.863L420.042 282.531Z" fill="url(#paint20_linear)"/>
<path d="M403.503 366.308C403.462 366.309 403.42 366.311 403.379 366.309L349.576 366.256C348.247 366.256 347.17 365.179 347.171 363.851C347.171 362.523 348.255 361.425 349.581 361.449L403.384 361.503C404.715 361.503 405.792 362.582 405.791 363.908C405.789 365.194 404.776 366.244 403.503 366.308Z" fill="url(#paint21_linear)"/>
<path d="M328.74 313.617C328.759 313.653 328.778 313.691 328.795 313.729L351.433 362.537C351.993 363.744 351.469 365.174 350.266 365.732C349.061 366.292 347.609 365.772 347.071 364.558L324.433 315.75C323.873 314.543 324.395 313.114 325.6 312.555C326.767 312.014 328.147 312.489 328.74 313.617Z" fill="url(#paint22_linear)"/>
<path d="M282.402 478.458H277.176V421.943H282.402V478.458Z" fill="#7D97F4"/>
<path d="M302.675 479.547H256.903C256.903 477.668 258.426 476.145 260.306 476.145H299.273C301.152 476.145 302.675 477.668 302.675 479.547Z" fill="#7D97F4"/>
<path d="M309.468 419.982C309.468 423.072 306.939 425.601 303.848 425.601H257.54C254.448 425.601 251.919 423.072 251.919 419.982V414.899C251.919 411.81 254.448 409.28 257.54 409.28H303.848C306.939 409.28 309.468 411.81 309.468 414.899V419.982Z" fill="#7D97F4"/>
<path d="M241.209 384.26C241.209 384.26 233.444 385.465 224.713 391.302C223.339 392.22 222.585 393.821 222.793 395.46C223.837 403.741 228.137 430.546 242.31 456.724C243.059 458.104 243.273 459.712 242.943 461.245L240.481 472.706L235.913 476.988H247.676L255.508 455.792L252.159 454.734C249.563 453.913 247.782 451.526 247.733 448.803L247.341 426.066C247.676 415.937 241.131 408.947 241.131 408.947L259.917 408.034L241.209 384.26Z" fill="url(#paint23_linear)"/>
<path d="M231.319 479.056C230.249 480.458 242.851 482.308 249.217 479.241C249.217 479.241 258.043 463.887 258.043 455.981C258.043 455.981 257.341 454.37 252.159 454.735C252.159 454.735 249.196 472.915 246.067 474.952C242.939 476.989 237.313 475.158 237.313 475.158C237.313 475.158 232.901 476.987 231.319 479.056Z" fill="#2D2D9A"/>
<path d="M257.54 409.281C257.439 409.108 237.313 406.86 237.313 406.86C237.313 406.86 237.972 412.98 235.913 421.404C233.856 429.827 204.306 466.323 204.306 466.323L207.404 476.145C197.824 479.484 188.402 480.016 179.128 477.846L198.331 466.323C198.331 466.323 216.301 405.085 227.308 394.16L247.481 387.18L257.54 409.281Z" fill="url(#paint24_linear)"/>
<path d="M302.675 373.647C302.675 373.647 314.269 390.894 315.222 398.76C316.173 406.629 312.046 409.825 299.878 410.353C287.712 410.88 255.231 410.871 255.231 410.871L227.511 387.18C227.511 387.18 247.713 379.971 252.965 377.933C258.217 375.894 302.675 373.647 302.675 373.647Z" fill="#2D2D9A"/>
<path d="M206.233 472.837C206.233 472.837 209.568 476.069 207.315 479.663C207.315 479.663 180.891 484.347 173.717 482.222C173.717 482.222 175.207 478.821 183.286 474.952L182.689 475.41C181.936 475.989 182.376 477.194 183.327 477.141C188.651 476.836 199.667 475.861 206.233 472.837Z" fill="#2D2D9A"/>
<path d="M267.088 256.185C289.857 263.906 290.485 286.219 287.836 289.405C287.485 289.827 287.715 290.47 288.251 290.597C290.993 291.247 296.721 293.292 297.779 299.172C298.715 304.362 294.702 306.616 291.924 307.541C291.253 307.766 291.213 308.696 291.872 308.952C296.574 310.774 306.209 315.809 302.933 325.613C299.878 334.757 292.79 333.972 288.983 332.772C288.338 332.57 287.786 333.263 288.117 333.853C289.247 335.874 290.022 339.206 286.811 343.223C281.778 349.518 268.409 341.555 266.858 340.601C266.761 340.54 266.68 340.459 266.62 340.362L251.461 316.027C251.343 315.838 251.316 315.605 251.386 315.394L260.766 287.457C260.842 287.23 261.021 287.054 261.248 286.982L257.856 259.107C253.082 255.542 266.82 256.093 267.088 256.185Z" fill="#2D2D9A"/>
<path d="M271.315 366.664C271.315 366.664 257.813 353.806 251.167 345.29C247.573 340.687 246.445 334.628 248.107 329.028C251.141 318.805 256.533 308.216 257.026 306.568C257.78 304.042 272.92 304.148 272.92 304.148C272.92 304.148 302.713 323.483 314.42 356.237L301.273 360.329C301.273 360.329 293.493 347.28 285.807 338.981C285.807 338.981 299.107 356.552 299.576 363.744L271.315 366.664Z" fill="#FF7542"/>
<path d="M255.104 291.122C255.261 291.648 259.305 306.075 259.614 306.348C259.922 306.62 268.279 307.069 272.214 304.381L262.457 285.294L255.104 291.122Z" fill="url(#paint25_linear)"/>
<path d="M249.699 262.798C249.699 262.798 243.375 267.267 240.844 278.375C238.311 289.483 242.868 293.358 247.453 293.022C252.038 292.687 258.663 291.133 264.268 283.086C269.873 275.04 257.993 257.324 249.699 262.798Z" fill="url(#paint26_linear)"/>
<path d="M258.364 278.747C258.364 278.747 260.394 262.862 247.294 265.551L244.691 268.372C244.691 268.372 238.109 261.254 245.119 255.63C252.132 250.008 262.043 251.211 267.714 261.074C273.383 270.939 275.51 277.908 271.051 284.198C266.594 290.489 263.039 285.242 263.039 285.242C263.039 285.242 265.033 279.836 263.241 277.57C261.45 275.303 259.274 278.989 259.274 278.989L258.364 278.747Z" fill="#2D2D9A"/>
<path d="M257.107 282.142C257.107 282.142 258.103 273.972 262.311 276.218C266.519 278.462 260.964 283.859 258.731 285.702L257.107 282.142Z" fill="url(#paint27_linear)"/>
<path d="M243.807 367.618L253.727 358.056L267.453 363.854C267.453 363.854 281.113 365.971 288.932 363.854C296.75 361.738 296.75 361.738 296.75 361.738L314.42 356.237L317.194 364.079C317.898 366.071 317.191 368.28 315.469 369.504C313.941 370.59 312.148 371.785 311.007 372.284C308.68 373.303 253.648 371.579 253.648 371.579L243.807 367.618Z" fill="url(#paint28_linear)"/>
<path d="M281.351 371.539C281.306 371.541 281.263 371.543 281.218 371.543L223.669 371.479C222.246 371.479 221.095 370.324 221.097 368.901C221.098 367.478 222.257 366.303 223.674 366.328L281.223 366.391C282.646 366.392 283.799 367.547 283.798 368.968C283.796 370.348 282.712 371.472 281.351 371.539Z" fill="url(#paint29_linear)"/>
<path d="M171.936 319.287H219.862C223.398 319.287 226.617 321.329 228.124 324.526L250.282 371.508H190.72C188.441 371.508 186.394 370.116 185.558 367.997L168.376 324.522C167.382 322.01 169.234 319.287 171.936 319.287Z" fill="#2D2D9A"/>
<path d="M205.701 343.378C206.74 346.604 205.972 349.738 203.986 350.378C202.001 351.016 199.551 348.919 198.512 345.691C197.473 342.465 198.241 339.33 200.226 338.692C202.21 338.053 204.662 340.151 205.701 343.378Z" fill="#C5CAE9"/>
<path d="M419.008 484.171C419.274 484.171 419.546 484.114 419.807 483.991C420.835 483.509 421.311 482.207 420.868 481.085L378.374 373.267C377.933 372.145 376.742 371.626 375.713 372.108C374.685 372.591 374.209 373.892 374.652 375.014L417.146 482.833C417.475 483.669 418.223 484.171 419.008 484.171Z" fill="url(#paint30_linear)"/>
<path d="M371.137 484.171C371.922 484.171 372.669 483.669 372.999 482.833L415.493 375.014C415.934 373.892 415.46 372.591 414.432 372.108C413.405 371.626 412.214 372.145 411.771 373.267L369.277 481.085C368.834 482.207 369.31 483.509 370.338 483.991C370.598 484.114 370.871 484.171 371.137 484.171Z" fill="url(#paint31_linear)"/>
<path d="M198.519 484.462C198.785 484.462 199.057 484.405 199.32 484.282C200.346 483.8 200.822 482.498 200.379 481.376L157.887 373.558C157.445 372.436 156.253 371.918 155.225 372.4C154.196 372.882 153.722 374.184 154.163 375.306L196.657 483.124C196.987 483.961 197.734 484.462 198.519 484.462Z" fill="url(#paint32_linear)"/>
<path d="M150.65 484.462C151.435 484.462 152.182 483.962 152.512 483.124L195.004 375.306C195.447 374.184 194.972 372.882 193.945 372.4C192.916 371.918 191.725 372.436 191.282 373.558L148.79 481.376C148.347 482.498 148.821 483.8 149.85 484.282C150.111 484.405 150.382 484.462 150.65 484.462Z" fill="url(#paint33_linear)"/>
<path d="M140.991 369.931C140.825 369.222 141.051 368.489 141.606 367.933C142.161 367.376 142.988 367.053 143.861 367.053H439.504C440.65 367.053 441.72 367.537 442.337 368.337C442.956 369.138 443.039 370.142 442.557 371.005L439.353 376.743C438.62 378.055 437.031 378.897 435.282 378.897H145.89C144.264 378.897 142.865 377.943 142.555 376.62L140.991 369.931Z" fill="url(#paint34_linear)"/>
<path d="M68.8942 105.755C68.8942 120.166 57.2125 131.848 42.8023 131.848C28.3921 131.848 16.7104 120.166 16.7104 105.755C16.7104 91.3452 28.3921 79.6632 42.8023 79.6632C57.2125 79.6632 68.8942 91.3452 68.8942 105.755Z" fill="#FF7542"/>
<path d="M42.8023 92.1353C35.2919 92.1353 29.1817 98.2452 29.1817 105.755C29.1817 113.266 35.2919 119.376 42.8023 119.376C50.3127 119.376 56.4227 113.266 56.4227 105.755C56.4227 98.2452 50.3127 92.1353 42.8023 92.1353ZM42.8023 122.118C33.78 122.118 26.4397 114.778 26.4397 105.755C26.4397 96.7324 33.78 89.3933 42.8023 89.3933C51.8246 89.3933 59.1649 96.7324 59.1649 105.755C59.1649 114.778 51.8246 122.118 42.8023 122.118Z" fill="white"/>
<path fill-rule="evenodd" clip-rule="evenodd" d="M37.6765 112.057V100.294C37.6765 99.0352 39.0447 98.2572 40.1256 98.8986L50.038 104.78C51.0967 105.408 51.0967 106.941 50.038 107.569L40.1256 113.451C39.0447 114.092 37.6765 113.314 37.6765 112.057Z" fill="white"/>
<path d="M142.023 63.652C142.023 77.4121 130.868 88.5668 117.108 88.5668C103.348 88.5668 92.1924 77.4121 92.1924 63.652C92.1924 49.8919 103.348 38.7372 117.108 38.7372C130.868 38.7372 142.023 49.8919 142.023 63.652Z" fill="#FF7542"/>
<path d="M116.716 65.0456C113.339 65.0456 110.601 62.3088 110.601 58.9306C110.601 55.5523 113.339 52.8155 116.716 52.8155C120.094 52.8155 122.833 55.5523 122.833 58.9306C122.833 62.3088 120.094 65.0456 116.716 65.0456ZM116.716 47.5408C110.426 47.5408 105.326 52.6392 105.326 58.9306C105.326 63.0073 110.11 72.4902 113.476 78.6605C114.876 81.2262 118.557 81.2262 119.956 78.6605C123.324 72.4902 128.107 63.0073 128.107 58.9306C128.107 52.6392 123.007 47.5408 116.716 47.5408Z" fill="white"/>
<path d="M98.2978 195.069C83.4642 195.069 71.3721 183.116 71.2348 168.251C71.0969 153.301 83.1036 141.071 98.0523 140.933C98.137 140.933 98.2235 140.931 98.3082 140.931C113.142 140.931 125.234 152.886 125.37 167.751C125.509 182.701 113.502 194.931 98.5537 195.069C98.4672 195.069 98.3825 195.069 98.2978 195.069ZM98.3082 141.832C98.2252 141.832 98.1439 141.832 98.061 141.834C83.6091 141.967 72.0014 153.791 72.1351 168.242C72.2675 182.613 83.9578 194.17 98.2978 194.17C98.3791 194.17 98.4621 194.17 98.545 194.168C112.997 194.035 124.604 182.212 124.471 167.76C124.338 153.389 112.647 141.832 98.3082 141.832Z" fill="#FF7542"/>
<path d="M98.2979 194.17C83.9579 194.17 72.2676 182.613 72.1352 168.242C72.0015 153.791 83.6092 141.967 98.0611 141.834C98.1441 141.832 98.2253 141.832 98.3083 141.832C112.648 141.832 124.338 153.389 124.471 167.76C124.605 182.212 112.997 194.035 98.5452 194.169C98.4622 194.17 98.3792 194.17 98.2979 194.17ZM98.8685 145.535C98.801 145.535 98.7336 145.535 98.6662 145.537C85.9674 145.654 75.7319 156.08 75.849 168.778C75.9655 181.406 86.2738 191.596 98.8754 191.596C98.9463 191.596 99.0206 191.596 99.0915 191.594C105.243 191.539 111.003 189.089 115.314 184.699C119.622 180.31 121.965 174.504 121.907 168.353C121.85 162.202 119.402 156.441 115.013 152.131C110.67 147.869 104.944 145.535 98.8685 145.535ZM98.8754 189.834C87.2393 189.834 77.7193 180.422 77.6114 168.763C77.503 157.036 86.9555 147.408 98.6817 147.299C98.7492 147.299 98.8149 147.299 98.8823 147.299C110.516 147.299 120.037 156.711 120.146 168.368C120.253 180.095 110.801 189.724 99.0742 189.832C99.0085 189.832 98.9428 189.834 98.8754 189.834Z" fill="#FF7542"/>
<path d="M98.8753 191.596C86.2737 191.596 75.9654 181.406 75.8489 168.778C75.7318 156.08 85.9673 145.655 98.6661 145.537C98.7335 145.535 98.801 145.535 98.8684 145.535C104.944 145.535 110.67 147.869 115.013 152.131C119.402 156.441 121.85 162.202 121.907 168.353C121.964 174.504 119.622 180.31 115.313 184.699C111.003 189.089 105.243 191.539 99.0914 191.594C99.0205 191.596 98.9462 191.596 98.8753 191.596ZM98.8822 147.299C98.8148 147.299 98.7491 147.299 98.6817 147.299C86.9554 147.408 77.5029 157.036 77.6113 168.763C77.7192 180.422 87.2393 189.834 98.8753 189.834C98.9427 189.834 99.0084 189.832 99.0741 189.832C110.801 189.724 120.253 180.095 120.146 168.369C120.037 156.711 110.516 147.299 98.8822 147.299Z" fill="url(#paint35_linear)"/>
<path d="M96.8578 185.05L96.8353 182.642C94.3218 182.564 91.8317 181.994 90.0602 181.238C89.4274 180.968 89.0998 180.263 89.2745 179.597L89.866 177.348C90.083 176.522 90.9744 176.088 91.7647 176.411C93.5219 177.129 95.6885 177.689 98.0196 177.668C100.438 177.645 102.235 176.809 102.219 175.127C102.205 173.61 100.803 172.722 97.4317 171.85C92.6225 170.581 89.1585 168.522 89.1195 164.299C89.0842 160.485 91.8459 157.547 96.678 156.724L96.6555 154.314C96.6486 153.538 97.271 152.904 98.0455 152.897L99.4614 152.885C100.238 152.878 100.872 153.5 100.879 154.275L100.898 156.439C103.223 156.51 104.92 156.892 106.266 157.352C106.956 157.587 107.34 158.325 107.155 159.031L106.612 161.111C106.401 161.913 105.551 162.36 104.773 162.073C103.531 161.617 101.78 161.147 99.5064 161.168C96.6365 161.193 95.8277 162.392 95.8374 163.457C95.8497 164.769 97.5804 165.656 101.322 166.769C106.667 168.32 108.903 170.514 108.939 174.49C108.974 178.142 106.297 181.446 101.055 182.315L101.081 185.012C101.088 185.787 100.466 186.421 99.6896 186.428L98.2737 186.442C97.4992 186.449 96.8647 185.827 96.8578 185.05Z" fill="white"/>
<defs>
<linearGradient id="paint0_linear" x1="529.2" y1="622.814" x2="110.763" y2="103.141" gradientUnits="userSpaceOnUse">
<stop stop-color="#DAE3FE"/>
<stop offset="1" stop-color="#E9EFFD"/>
</linearGradient>
<linearGradient id="paint1_linear" x1="529.199" y1="622.817" x2="110.759" y2="103.144" gradientUnits="userSpaceOnUse">
<stop stop-color="#C4D5FD"/>
<stop offset="1" stop-color="#CEDDFC"/>
</linearGradient>
<linearGradient id="paint2_linear" x1="529.205" y1="622.833" x2="110.753" y2="103.148" gradientUnits="userSpaceOnUse">
<stop stop-color="#C4D5FD"/>
<stop offset="1" stop-color="#CEDDFC"/>
</linearGradient>
<linearGradient id="paint3_linear" x1="529.195" y1="622.815" x2="110.756" y2="103.149" gradientUnits="userSpaceOnUse">
<stop stop-color="#C4D5FD"/>
<stop offset="1" stop-color="#CEDDFC"/>
</linearGradient>
<linearGradient id="paint4_linear" x1="529.197" y1="622.819" x2="110.755" y2="103.15" gradientUnits="userSpaceOnUse">
<stop stop-color="#C4D5FD"/>
<stop offset="1" stop-color="#CEDDFC"/>
</linearGradient>
<linearGradient id="paint5_linear" x1="529.211" y1="622.726" x2="110.852" y2="103.052" gradientUnits="userSpaceOnUse">
<stop stop-color="#C4D5FD"/>
<stop offset="1" stop-color="#CEDDFC"/>
</linearGradient>
<linearGradient id="paint6_linear" x1="529.196" y1="622.849" x2="110.723" y2="103.178" gradientUnits="userSpaceOnUse">
<stop stop-color="#C4D5FD"/>
<stop offset="1" stop-color="#CEDDFC"/>
</linearGradient>
<linearGradient id="paint7_linear" x1="64.1312" y1="468.882" x2="72.9238" y2="468.965" gradientUnits="userSpaceOnUse">
<stop stop-color="#FEBBBA"/>
<stop offset="1" stop-color="#FF928E"/>
</linearGradient>
<linearGradient id="paint8_linear" x1="32.4455" y1="468.128" x2="40.037" y2="468.2" gradientUnits="userSpaceOnUse">
<stop stop-color="#FEBBBA"/>
<stop offset="1" stop-color="#FF928E"/>
</linearGradient>
<linearGradient id="paint9_linear" x1="102.503" y1="239.83" x2="147.425" y2="240.257" gradientUnits="userSpaceOnUse">
<stop stop-color="#FEBBBA"/>
<stop offset="1" stop-color="#FF928E"/>
</linearGradient>
<linearGradient id="paint10_linear" x1="137.49" y1="232.633" x2="106.694" y2="300.93" gradientUnits="userSpaceOnUse">
<stop stop-color="#FEBBBA"/>
<stop offset="1" stop-color="#FF928E"/>
</linearGradient>
<linearGradient id="paint11_linear" x1="147.498" y1="209.884" x2="160.26" y2="190.665" gradientUnits="userSpaceOnUse">
<stop stop-color="#FEBBBA"/>
<stop offset="1" stop-color="#FF928E"/>
</linearGradient>
<linearGradient id="paint12_linear" x1="75.7877" y1="228.129" x2="51.2182" y2="212.821" gradientUnits="userSpaceOnUse">
<stop stop-color="#FEBBBA"/>
<stop offset="1" stop-color="#FF928E"/>
</linearGradient>
<linearGradient id="paint13_linear" x1="69.243" y1="233.687" x2="47.1378" y2="219.915" gradientUnits="userSpaceOnUse">
<stop stop-color="#FEBBBA"/>
<stop offset="1" stop-color="#FF928E"/>
</linearGradient>
<linearGradient id="paint14_linear" x1="54.1949" y1="300.978" x2="71.968" y2="300.978" gradientUnits="userSpaceOnUse">
<stop stop-color="#FEBBBA"/>
<stop offset="1" stop-color="#FF928E"/>
</linearGradient>
<linearGradient id="paint15_linear" x1="407.326" y1="477.483" x2="371.21" y2="477.483" gradientUnits="userSpaceOnUse">
<stop stop-color="#4F52FF"/>
<stop offset="1" stop-color="#4042E2"/>
</linearGradient>
<linearGradient id="paint16_linear" x1="405.523" y1="466.6" x2="395.751" y2="466.6" gradientUnits="userSpaceOnUse">
<stop stop-color="#FEBBBA"/>
<stop offset="1" stop-color="#FF928E"/>
</linearGradient>
<linearGradient id="paint17_linear" x1="350.681" y1="470.326" x2="321.522" y2="470.326" gradientUnits="userSpaceOnUse">
<stop stop-color="#4F52FF"/>
<stop offset="1" stop-color="#4042E2"/>
</linearGradient>
<linearGradient id="paint18_linear" x1="359.239" y1="467.423" x2="347.573" y2="467.423" gradientUnits="userSpaceOnUse">
<stop stop-color="#FEBBBA"/>
<stop offset="1" stop-color="#FF928E"/>
</linearGradient>
<linearGradient id="paint19_linear" x1="406.48" y1="273.531" x2="432.224" y2="299.209" gradientUnits="userSpaceOnUse">
<stop stop-color="#FEBBBA"/>
<stop offset="1" stop-color="#FF928E"/>
</linearGradient>
<linearGradient id="paint20_linear" x1="410.642" y1="269.357" x2="436.386" y2="295.034" gradientUnits="userSpaceOnUse">
<stop stop-color="#FEBBBA"/>
<stop offset="1" stop-color="#FF928E"/>
</linearGradient>
<linearGradient id="paint21_linear" x1="6168.51" y1="-5806.78" x2="6073.43" y2="-5705.13" gradientUnits="userSpaceOnUse">
<stop stop-color="#4F52FF"/>
<stop offset="1" stop-color="#4042E2"/>
</linearGradient>
<linearGradient id="paint22_linear" x1="-7697.11" y1="-2310.6" x2="-7564.85" y2="-2267.26" gradientUnits="userSpaceOnUse">
<stop stop-color="#4F52FF"/>
<stop offset="1" stop-color="#4042E2"/>
</linearGradient>
<linearGradient id="paint23_linear" x1="299.591" y1="382.863" x2="203.066" y2="460.923" gradientUnits="userSpaceOnUse">
<stop stop-color="#FEBBBA"/>
<stop offset="1" stop-color="#FF928E"/>
</linearGradient>
<linearGradient id="paint24_linear" x1="218.334" y1="404.072" x2="218.334" y2="272.293" gradientUnits="userSpaceOnUse">
<stop stop-color="#FEBBBA"/>
<stop offset="1" stop-color="#FF928E"/>
</linearGradient>
<linearGradient id="paint25_linear" x1="268.037" y1="325.85" x2="262.744" y2="291.887" gradientUnits="userSpaceOnUse">
<stop stop-color="#FEBBBA"/>
<stop offset="1" stop-color="#FF928E"/>
</linearGradient>
<linearGradient id="paint26_linear" x1="240.342" y1="273.534" x2="279.219" y2="289.107" gradientUnits="userSpaceOnUse">
<stop stop-color="#FEBBBA"/>
<stop offset="1" stop-color="#FF928E"/>
</linearGradient>
<linearGradient id="paint27_linear" x1="238.636" y1="272.179" x2="277.512" y2="287.752" gradientUnits="userSpaceOnUse">
<stop stop-color="#FEBBBA"/>
<stop offset="1" stop-color="#FF928E"/>
</linearGradient>
<linearGradient id="paint28_linear" x1="289.716" y1="364.421" x2="363.373" y2="364.421" gradientUnits="userSpaceOnUse">
<stop stop-color="#FEBBBA"/>
<stop offset="1" stop-color="#FF928E"/>
</linearGradient>
<linearGradient id="paint29_linear" x1="291.114" y1="356.249" x2="245.43" y2="371.233" gradientUnits="userSpaceOnUse">
<stop stop-color="#09005D"/>
<stop offset="1" stop-color="#1A0F91"/>
</linearGradient>
<linearGradient id="paint30_linear" x1="412.506" y1="213.418" x2="388.714" y2="559.716" gradientUnits="userSpaceOnUse">
<stop stop-color="#4F52FF"/>
<stop offset="1" stop-color="#4042E2"/>
</linearGradient>
<linearGradient id="paint31_linear" x1="407.157" y1="213.05" x2="383.365" y2="559.348" gradientUnits="userSpaceOnUse">
<stop stop-color="#4F52FF"/>
<stop offset="1" stop-color="#4042E2"/>
</linearGradient>
<linearGradient id="paint32_linear" x1="193.073" y1="198.342" x2="169.282" y2="544.639" gradientUnits="userSpaceOnUse">
<stop stop-color="#4F52FF"/>
<stop offset="1" stop-color="#4042E2"/>
</linearGradient>
<linearGradient id="paint33_linear" x1="187.724" y1="197.976" x2="163.933" y2="544.273" gradientUnits="userSpaceOnUse">
<stop stop-color="#4F52FF"/>
<stop offset="1" stop-color="#4042E2"/>
</linearGradient>
<linearGradient id="paint34_linear" x1="285.354" y1="268.954" x2="299.452" y2="485.717" gradientUnits="userSpaceOnUse">
<stop stop-color="#4F52FF"/>
<stop offset="1" stop-color="#4042E2"/>
</linearGradient>
<linearGradient id="paint35_linear" x1="100.397" y1="131.322" x2="96.725" y2="195.65" gradientUnits="userSpaceOnUse">
<stop stop-color="#FFCBC9"/>
<stop offset="1" stop-color="#FFBBB4"/>
</linearGradient>
</defs>
</svg>
