<svg width="60" height="60" viewBox="0 0 60 60" fill="none" xmlns="http://www.w3.org/2000/svg">
<g clip-path="url(#clip0)">
<path d="M25.6155 33.5958C24.7748 33.1104 23.6997 33.3986 23.2143 34.2392L20.8705 38.2987C20.6374 38.7024 20.5743 39.1823 20.6949 39.6325C20.8155 40.0829 21.1101 40.4668 21.5139 40.6998L23.1075 41.62C22.9381 42.4593 22.8526 43.3156 22.8526 44.1791C22.8526 45.0427 22.9381 45.899 23.1075 46.7383L21.5139 47.6584C21.1102 47.8915 20.8156 48.2754 20.6949 48.7258C20.5742 49.1761 20.6373 49.6559 20.8705 50.0596L23.2143 54.1191C23.6997 54.9598 24.7746 55.2479 25.6155 54.7625L27.2094 53.8422C28.5047 54.99 30.0051 55.8571 31.6416 56.4034L31.6416 58.2416C31.6416 59.2124 32.4286 59.9995 33.3994 59.9995L38.0869 59.9995C39.0577 59.9995 39.8447 59.2124 39.8447 58.2416L39.8447 56.4034C41.4812 55.8571 42.9817 54.99 44.277 53.8422L45.8708 54.7625C46.7116 55.2481 47.7867 54.9599 48.272 54.1191L50.6158 50.0596C51.1012 49.2189 50.8131 48.1438 49.9724 47.6584L48.3789 46.7384C48.5483 45.899 48.6339 45.0427 48.6339 44.1793C48.6339 43.3158 48.5485 42.4594 48.3789 41.6201L49.9724 40.7001C50.8131 40.2147 51.1012 39.1396 50.6158 38.2989L48.272 34.2394C47.7866 33.3986 46.7117 33.1105 45.8708 33.5961L44.277 34.5163C42.9817 33.3684 41.4814 32.5014 39.8447 31.9551L39.8447 30.1166C39.8447 29.1459 39.0577 28.3588 38.0869 28.3588L33.3994 28.3588C32.4286 28.3588 31.6416 29.1459 31.6416 30.1166L31.6416 31.9548C30.0051 32.5012 28.5047 33.3682 27.2094 34.5161L25.6155 33.5958ZM35.7433 39.4916C38.3321 39.4916 40.4308 41.5904 40.4308 44.1791C40.4308 46.7679 38.3321 48.8666 35.7433 48.8666C33.1545 48.8666 31.0558 46.7679 31.0558 44.1791C31.0558 41.5904 33.1545 39.4916 35.7433 39.4916Z" fill="#FF7542"/>
<path d="M0.87913 12.3405L2.47276 13.2606C2.30331 14.0999 2.21788 14.9562 2.21788 15.8198C2.21788 16.6833 2.30331 17.5396 2.47276 18.3789L0.87913 19.2991C0.475419 19.5321 0.180808 19.9161 0.0601053 20.3664C-0.0605974 20.8168 0.00256829 21.2965 0.235772 21.7002L2.57952 25.7597C3.06491 26.6004 4.13987 26.8885 4.98069 26.4031L6.57468 25.4828C7.86995 26.6307 9.3703 27.4977 11.0068 28.0441L11.0068 29.8823C11.0068 30.853 11.7939 31.6401 12.7646 31.6401L17.4521 31.6401C18.4229 31.6401 19.21 30.853 19.21 29.8823L19.21 28.0441C20.8465 27.4977 22.3469 26.6307 23.6422 25.4828L25.2361 26.4031C26.0768 26.8887 27.152 26.6005 27.6373 25.7597L29.981 21.7002C30.4664 20.8595 30.1784 19.7845 29.3376 19.2991L27.7441 18.379C27.9136 17.5396 27.9991 16.6833 27.9991 15.8199C27.9991 14.9564 27.9137 14.1 27.7441 13.2607L29.3376 12.3407C30.1783 11.8553 30.4664 10.7802 29.981 9.93953L27.6373 5.88004C27.1519 5.03922 26.0769 4.75117 25.2361 5.23668L23.6422 6.15695C22.3469 5.00898 20.8466 4.14203 19.2099 3.5957L19.2099 1.75726C19.2099 0.786483 18.4229 -0.000548285 17.4521 -0.0005482L12.7646 -0.000547791C11.7939 -0.000547706 11.0068 0.786484 11.0068 1.75726L11.0068 3.59547C9.3703 4.1418 7.86995 5.00887 6.57467 6.15672L4.98069 5.23644C4.13999 4.75105 3.06491 5.03922 2.57952 5.8798L0.235771 9.9393C0.00268559 10.343 -0.0604819 10.8229 0.0601045 11.2731C0.180691 11.7235 0.475302 12.1075 0.87913 12.3405ZM15.1085 11.1323C17.6973 11.1323 19.796 13.231 19.796 15.8198C19.796 18.4086 17.6973 20.5073 15.1085 20.5073C12.5197 20.5073 10.421 18.4086 10.421 15.8198C10.421 13.231 12.5196 11.1323 15.1085 11.1323Z" fill="#7C7CD9"/>
<path d="M34.0783 18.1846L36.422 22.2441C36.9075 23.0849 37.9826 23.3729 38.8232 22.8875L40.0097 22.2024C40.8635 22.8798 41.8103 23.4276 42.8196 23.8281L42.8196 25.1948C42.8196 26.1655 43.6067 26.9526 44.5775 26.9526L49.265 26.9526C50.2357 26.9526 51.0228 26.1655 51.0228 25.1948L51.0228 23.8281C52.032 23.4276 52.9787 22.8798 53.8327 22.2024L55.0192 22.8875C55.86 23.3731 56.935 23.0849 57.4204 22.2441L59.7641 18.1846C60.2496 17.3439 59.9616 16.2688 59.1208 15.7834L57.9348 15.0987C58.0142 14.5613 58.0541 14.0189 58.0541 13.4761C58.0541 12.9333 58.0142 12.391 57.9348 11.8536L59.1208 11.1688C59.9616 10.6834 60.2496 9.60836 59.7641 8.76765L57.4204 4.70816C56.9349 3.86734 55.8599 3.57941 55.0192 4.0648L53.8327 4.74988C52.9789 4.07242 52.0321 3.52469 51.0228 3.12414L51.0228 1.75726C51.0228 0.786483 50.2357 -0.000548463 49.265 -0.000548378L44.5775 -0.000547968C43.6067 -0.000547883 42.8196 0.786483 42.8196 1.75726L42.8196 3.1239C41.8104 3.52445 40.8637 4.07219 40.0097 4.74965L38.8232 4.06457C37.9827 3.57906 36.9074 3.86722 36.422 4.70793L34.0783 8.76742C33.5928 9.60813 33.8808 10.6832 34.7216 11.1686L35.9076 11.8533C35.8282 12.3907 35.7883 12.9331 35.7883 13.4759C35.7883 14.0187 35.8282 14.5611 35.9076 15.0985L34.7216 15.7832C33.8808 16.2687 33.5928 17.3438 34.0783 18.1846ZM46.9212 9.96039C48.8629 9.96039 50.4368 11.5343 50.4368 13.476C50.4368 15.4177 48.8629 16.9916 46.9212 16.9916C44.9795 16.9916 43.4056 15.4177 43.4056 13.476C43.4056 11.5343 44.9795 9.96039 46.9212 9.96039Z" fill="#FF9A75"/>
</g>
<defs>
<clipPath id="clip0">
<rect width="60" height="60" fill="white" transform="translate(0 60) rotate(-90)"/>
</clipPath>
</defs>
</svg>
