<svg width="100" height="100" viewBox="0 0 100 100" fill="none" xmlns="http://www.w3.org/2000/svg">
<path fill-rule="evenodd" clip-rule="evenodd" d="M35.0873 60.9952C36.1622 59.8879 37.9227 59.8764 39.0153 60.937C40.1225 62.0119 40.1484 63.7576 39.0735 64.8649L38.6046 65.3479C38.5801 65.3752 38.555 65.4021 38.5292 65.4286L31.7501 72.4118C30.6752 73.5191 28.9147 73.5307 27.8222 72.4701C26.7149 71.3952 26.7033 69.6347 27.7639 68.5422L28.2338 68.0581C28.258 68.0312 28.2828 68.0046 28.3082 67.9784L35.0873 60.9952Z" fill="#7C7CD9"/>
<path d="M41.5089 42.5872C42.4667 41.4035 42.2964 39.6512 41.0967 38.6805L33.5306 32.5588C32.3469 31.601 30.5946 31.7713 29.624 32.971C28.6662 34.1547 28.8365 35.907 30.0362 36.8777L37.6022 42.9994C38.8019 43.9701 40.5382 43.7869 41.5089 42.5872Z" fill="#6564C4"/>
<path fill-rule="evenodd" clip-rule="evenodd" d="M55.1859 69.2157C55.221 69.3393 55.2652 69.462 55.3187 69.5831L59.2538 78.4846C59.8778 79.896 61.5061 80.526 62.9175 79.902C64.3102 79.2864 64.959 77.6498 64.335 76.2383L62.4135 71.8919C62.3784 71.7683 62.3343 71.6456 62.2807 71.5245L58.3456 62.623C57.73 61.2304 56.0933 60.5816 54.6819 61.2055C53.2893 61.8212 52.6405 63.4578 53.2644 64.8693L55.1859 69.2157Z" fill="#6564C4"/>
<path d="M79.5626 60.8429C80.1086 59.4215 79.4062 57.8072 77.9656 57.2538L68.8803 53.764C67.4589 53.218 65.8445 53.9204 65.2912 55.361C64.7452 56.7824 65.4476 58.3967 66.8882 58.9501L75.9735 62.4399C77.4141 62.9933 79.0093 62.2835 79.5626 60.8429Z" fill="#FF9A75"/>
<path fill-rule="evenodd" clip-rule="evenodd" d="M72.9585 22.6669C74.0305 21.5569 75.791 21.5407 76.8863 22.5985C77.9963 23.6705 78.0268 25.4162 76.9548 26.5262L70.1939 33.5271C70.1812 33.5402 70.1685 33.5531 70.1557 33.5659L64.5626 39.3575C63.4906 40.4676 61.7301 40.4837 60.6348 39.426C59.5247 38.3539 59.5086 36.5935 60.5663 35.4982L67.3272 28.4973C67.3399 28.4843 67.3526 28.4713 67.3654 28.4585L72.9585 22.6669Z" fill="#FF7542"/>
<path d="M100 12.4535C100 19.2255 94.5102 24.7153 87.7382 24.7153C80.9662 24.7153 75.4764 19.2255 75.4764 12.4535C75.4764 5.68155 80.9662 0.191772 87.7382 0.191772C94.5102 0.191772 100 5.68155 100 12.4535Z" fill="#FF7542"/>
<path d="M100 65.121C100 70.2714 95.8248 74.4466 90.6744 74.4466C85.524 74.4466 81.3488 70.2714 81.3488 65.121C81.3488 59.9706 85.524 55.7954 90.6744 55.7954C95.8248 55.7954 100 59.9706 100 65.121Z" fill="#FF9A75"/>
<path d="M76.4706 90.6744C76.4706 95.8248 72.2954 100 67.145 100C61.9946 100 57.8194 95.8248 57.8194 90.6744C57.8194 85.524 61.9946 81.3488 67.145 81.3488C72.2954 81.3488 76.4706 85.524 76.4706 90.6744Z" fill="#6564C4"/>
<path d="M30.9864 23.3898C30.9864 30.2433 25.4305 35.7992 18.577 35.7992C11.7235 35.7992 6.16757 30.2433 6.16757 23.3898C6.16757 16.5363 11.7235 10.9804 18.577 10.9804C25.4305 10.9804 30.9864 16.5363 30.9864 23.3898Z" fill="#6564C4"/>
<path d="M68.7633 49.7082C68.7633 60.0337 60.3928 68.4042 50.0672 68.4042C39.7417 68.4042 31.3712 60.0337 31.3712 49.7082C31.3712 39.3826 39.7417 31.0121 50.0672 31.0121C60.3928 31.0121 68.7633 39.3826 68.7633 49.7082Z" fill="#6564C4"/>
<path d="M30.9864 84.5068C30.9864 93.0635 24.0499 100 15.4932 100C6.93654 100 0 93.0635 0 84.5068C0 75.9502 6.93654 69.0136 15.4932 69.0136C24.0499 69.0136 30.9864 75.9502 30.9864 84.5068Z" fill="#7C7CD9"/>
</svg>
