<svg width="70" height="70" viewBox="0 0 70 70" fill="none" xmlns="http://www.w3.org/2000/svg">
<path d="M35 31.7252C24.4664 31.7252 15.8967 40.295 15.8967 50.8285C15.8967 61.3621 24.4664 69.9318 35 69.9318C45.5336 69.9318 54.1033 61.3621 54.1033 50.8285C54.1033 40.295 45.5336 31.7252 35 31.7252ZM45.131 47.1689L33.5527 58.7473C33.153 59.1469 32.6292 59.3468 32.1054 59.3468C31.5817 59.3468 31.0578 59.1471 30.6582 58.7473L24.8691 52.9581C24.0698 52.1588 24.0698 50.8629 24.8691 50.0636C25.6683 49.2642 26.9643 49.2642 27.7637 50.0636L32.1056 54.4054L42.2368 44.2743C43.036 43.475 44.332 43.4751 45.1313 44.2743C45.9304 45.0737 45.9304 46.3697 45.131 47.1689Z" fill="#FF7542"/>
<path d="M58.8568 22.0585C58.8716 21.7787 58.8791 21.4985 58.8791 21.2183C58.8791 12.5658 51.8397 5.52633 43.1871 5.52633C40.8513 5.52633 38.5625 6.04689 36.4677 7.04436C33.2761 2.69767 28.1736 0.0682373 22.7193 0.0682373C13.3143 0.0682373 5.66277 7.7198 5.66277 17.1248C5.66277 18.6979 5.88096 20.2528 6.31283 21.7665C2.50704 24.4299 0.204681 28.7832 0.204681 33.499C0.204681 40.5452 5.31755 46.4193 12.0279 47.6071C13.6009 36.3357 23.3022 27.6316 35 27.6316C46.7554 27.6316 56.4955 36.4214 57.9955 47.7737C64.6003 47.1836 69.7953 41.6193 69.7953 34.8636C69.7953 28.4042 65.0466 23.0331 58.8568 22.0585Z" fill="#6564C4"/>
</svg>
