<svg width="60" height="60" viewBox="0 0 60 60" fill="none" xmlns="http://www.w3.org/2000/svg">
<path d="M57.5528 4.93276C55.9618 3.3417 53.7494 2.37233 51.4873 2.49643C49.2003 2.64561 47.0625 3.73956 45.6454 5.50428L27.307 27.7209C26.7602 28.417 26.7849 29.4362 27.4313 30.0826L32.403 35.0543C33.0494 35.7007 34.0684 35.7254 34.7645 35.1785L56.9812 16.8401C58.7461 15.4229 59.84 13.2852 59.989 10.9981C60.1132 8.73619 59.1439 6.52369 57.5528 4.93276ZM52.6558 12.3157C51.9597 13.0118 50.866 13.0118 50.1699 12.3157C49.4738 11.6196 49.4738 10.5259 50.1699 9.82979C50.8659 9.13381 51.9597 9.13369 52.6558 9.82979C53.3519 10.526 53.3518 11.6197 52.6558 12.3157Z" fill="#6564C4"/>
<path d="M57.5527 4.9328L52.6556 9.82983C53.3517 10.5259 53.3516 11.6198 52.6556 12.3157C51.9595 13.0118 50.8658 13.0118 50.1697 12.3157L29.917 32.5685L32.4029 35.0544C33.0493 35.7008 34.0684 35.7256 34.7645 35.1787L56.9811 16.8402C58.7461 15.4231 59.8399 13.2853 59.9889 10.9983C60.1132 8.73624 59.1438 6.52374 57.5527 4.9328Z" fill="#6564C4"/>
<path d="M38.4937 46.1166L33.6463 46.2408L16.2451 28.8398L16.3693 23.9924C19.775 21.7303 24.4235 22.1031 27.4315 25.1111L37.375 35.0545C40.3829 38.0623 40.7557 42.7106 38.4937 46.1166Z" fill="#6564C4"/>
<path d="M38.4942 46.1166L33.6468 46.2408L24.9463 37.5403L32.404 30.0828L37.3757 35.0544C40.3834 38.0623 40.7562 42.7107 38.4942 46.1166Z" fill="#6564C4"/>
<path d="M36.1319 48.7265L29.9172 54.9412C26.4868 58.3717 20.9184 58.3717 17.4879 54.9412L17.463 54.9164L15.0766 52.3808L12.5162 49.9695L10.0054 47.4587L7.02255 44.3265L5.0586 42.5118L2.57282 40.0259C-0.857608 36.5955 -0.857608 31.0271 2.57282 27.5966L5.0586 25.1108C5.7547 24.4147 6.84841 24.4147 7.54439 25.1108C8.24048 25.8069 8.24048 26.9006 7.54439 27.5966C6.84841 28.2926 6.84829 29.3864 7.54439 30.0825C8.24048 30.7786 9.33431 30.7785 10.0303 30.0825L13.7591 26.3537C14.7535 25.409 15.2505 24.7129 16.3692 23.992L38.4935 46.1163C37.7478 47.2102 37.0517 47.757 36.1319 48.7265Z" fill="#FF9A75"/>
<path d="M36.1314 48.7266L29.9167 54.9413C26.4863 58.3717 20.9179 58.3717 17.4873 54.9413L17.4625 54.9164L15.0761 52.3809L12.5156 49.9696L27.4308 35.0544L38.4929 46.1166C37.7473 47.2103 37.0512 47.7571 36.1314 48.7266Z" fill="#FF9A75"/>
<path d="M22.4591 49.9696C21.772 49.2825 20.6602 49.2825 19.9732 49.9696C17.917 52.0258 14.5718 52.0258 12.5156 49.9696L17.4557 54.9096C19.2862 54.6564 21.0547 53.8599 22.4591 52.4554C23.1462 51.7683 23.1462 50.6567 22.4591 49.9696Z" fill="white"/>
<path d="M22.4591 49.9696C21.772 49.2825 20.6602 49.2825 19.9732 49.9696C17.917 52.0258 14.5718 52.0258 12.5156 49.9696L17.4557 54.9096C19.2862 54.6564 21.0547 53.8599 22.4591 52.4554C23.1462 51.7683 23.1462 50.6567 22.4591 49.9696Z" fill="#5555CE" fill-opacity="0.08"/>
<path d="M15.0022 42.5119C14.3151 41.8248 13.2032 41.8248 12.5163 42.5119C10.4601 44.5681 7.11488 44.5681 5.05859 42.5119L9.99863 47.4519C11.8292 47.1987 13.5977 46.4022 15.0021 44.9977C15.6891 44.3108 15.6891 43.199 15.0022 42.5119Z" fill="white"/>
<path d="M15.0022 42.5119C14.3151 41.8248 13.2032 41.8248 12.5163 42.5119C10.4601 44.5681 7.11488 44.5681 5.05859 42.5119L9.99863 47.4519C11.8292 47.1987 13.5977 46.4022 15.0021 44.9977C15.6891 44.3108 15.6891 43.199 15.0022 42.5119Z" fill="#5555CE" fill-opacity="0.08"/>
</svg>
