<svg width="18" height="18" viewBox="0 0 18 18" fill="none" xmlns="http://www.w3.org/2000/svg">
<path d="M0 9C0 4.02944 4.02944 0 9 0C13.9706 0 18 4.02944 18 9C18 13.9706 13.9706 18 9 18C4.02944 18 0 13.9706 0 9Z" fill="#7C7CD9"/>
<path d="M6.75022 12.15L4.12522 9.52499C3.83272 9.23249 3.36772 9.23249 3.07522 9.52499C2.78272 9.81749 2.78272 10.2825 3.07522 10.575L6.21772 13.7175C6.51022 14.01 6.98272 14.01 7.27522 13.7175L15.2252 5.77499C15.5177 5.48249 15.5177 5.01749 15.2252 4.72499C14.9327 4.43249 14.4677 4.43249 14.1752 4.72499L6.75022 12.15Z" fill="white"/>
</svg>
