<svg width="56" height="60" viewBox="0 0 56 60" fill="none" xmlns="http://www.w3.org/2000/svg">
<path d="M50.4221 29.0717H47.3293V22.0357C47.3293 11.5739 38.8482 3.09274 28.3863 3.09274C17.9245 3.09274 9.44333 11.5739 9.44333 22.0357V29.0717H6.35059V22.0357C6.35059 9.86575 16.2163 0 28.3863 0C40.5563 0 50.4221 9.86575 50.4221 22.0357V29.0717Z" fill="#6564C4"/>
<path d="M51.427 44.458C50.7291 43.9658 49.7643 44.1324 49.2721 44.8304C49.2687 44.8351 49.2654 44.8398 49.2622 44.8446L47.2518 47.5507C44.7582 50.8874 40.7363 52.7234 36.5819 52.4218C36.3485 51.3632 35.811 50.3957 35.0355 49.6383C33.9142 48.443 32.3446 47.7704 30.7057 47.7826C27.3323 47.7826 24.5977 50.5174 24.5977 53.8907C24.64 57.2766 27.3969 59.9991 30.7831 59.9988C33.545 60.0482 35.9781 58.1914 36.6593 55.5143H37.4324C42.2647 55.5327 46.8218 53.2684 49.726 49.4063L51.7363 46.6228C52.2487 45.9397 52.1101 44.9705 51.427 44.458Z" fill="#7C7CD9"/>
<path d="M50.5773 27.5254C53.1289 27.5254 55.2164 30.3863 55.2164 32.9376V42.6024C55.2164 45.2312 53.1289 46.4683 50.5773 46.4683H45.6289V27.5253H50.5773V27.5254Z" fill="#FF7542"/>
<path d="M11.145 27.5262V46.4692H5.42329C2.86125 46.4692 0.78418 44.3922 0.78418 41.8301V32.1654C0.78418 29.6033 2.8611 27.5262 5.42329 27.5262H11.145Z" fill="#FF7542"/>
</svg>
