<svg width="100" height="100" viewBox="0 0 100 100" fill="none" xmlns="http://www.w3.org/2000/svg">
<path d="M70.9854 92.6436V78.0601H50L47.9164 86.4898L50 92.6436H70.9854Z" fill="#6564C4"/>
<path d="M29.0146 78.0601H50V92.6436H29.0146V78.0601Z" fill="#C5CAE9"/>
<path d="M85.3516 4.29688H50L47.9164 31.7673L50 63.4766L100 58.4633V18.9453C100 10.8681 93.4288 4.29688 85.3516 4.29688V4.29688Z" fill="#6564C4"/>
<path d="M14.6484 4.29688C6.5712 4.29688 0 10.8681 0 18.9453V58.4633L50 63.4766V4.29688H14.6484Z" fill="#7C7CD9"/>
<path d="M87.384 48.2539C87.384 47.1494 86.4886 46.2539 85.384 46.2539H80.1189C79.2463 46.2539 78.4807 45.6857 78.1775 44.8674C77.9085 44.1417 77.6113 43.4263 77.2868 42.7229C76.9208 41.9296 77.0598 40.9852 77.6776 40.3674L81.4028 36.6422C82.1839 35.8611 82.1839 34.5948 81.4028 33.8137L71.4665 23.878C70.6854 23.097 69.4192 23.097 68.6382 23.878L64.9128 27.6028C64.2951 28.2205 63.3507 28.3595 62.5575 27.9935C61.8538 27.6688 61.1381 27.3715 60.4121 27.1022C59.5942 26.7989 59.0263 26.0336 59.0263 25.1613V19.8962C59.0263 18.7917 58.1309 17.8962 57.0263 17.8962H50L46.134 27.3273C45.941 27.7981 45.9347 28.3247 46.1163 28.7999L49.5085 37.6765C49.8045 38.451 50.549 38.9506 51.3752 39.0201C53.9015 39.2323 56.2656 40.024 58.3336 41.262C63.0867 44.1063 66.2758 49.3072 66.2758 55.2383C66.2758 56.7845 66.058 58.2802 65.6524 59.6975C65.2388 61.1426 66.2279 62.7601 67.7311 62.7601H85.384C86.4886 62.7601 87.384 61.8647 87.384 60.7601V48.2539Z" fill="white"/>
<path d="M48.0039 39.0843C49.1002 38.9496 50 38.0671 50 36.9625V17.8962H42.9737C41.8691 17.8962 40.9737 18.7917 40.9737 19.8962V25.1613C40.9737 26.0336 40.4058 26.7989 39.5879 27.1022C38.8619 27.3715 38.1462 27.6688 37.4425 27.9935C36.6493 28.3595 35.7049 28.2205 35.0872 27.6028L31.3618 23.878C30.5808 23.097 29.3146 23.097 28.5335 23.878L18.5972 33.8137C17.8161 34.5948 17.8161 35.8611 18.5972 36.6422L22.3224 40.3674C22.9402 40.9852 23.0792 41.9296 22.7132 42.7229C22.3887 43.4263 22.0915 44.1417 21.8225 44.8674C21.5193 45.6857 20.7537 46.2539 19.8811 46.2539H14.616C13.5114 46.2539 12.616 47.1494 12.616 48.2539V60.7601C12.616 61.8647 13.5114 62.7601 14.616 62.7601H32.269C33.7721 62.7601 34.7611 61.1426 34.3473 59.6976C33.9415 58.2803 33.7234 56.7846 33.7234 55.2383C33.7242 46.9395 39.9675 40.0714 48.0039 39.0843Z" fill="white"/>
<path d="M77.0836 95.5735V89.7141H50L47.9164 92.6438L50 95.5735H77.0836Z" fill="#C5CAE9"/>
<path d="M22.9164 89.7141H50V95.5735H22.9164V89.7141Z" fill="white"/>
<path d="M22.9164 89.7141H50V95.5735H22.9164V89.7141Z" fill="#5555CE" fill-opacity="0.08"/>
<path d="M100 80.9899V58.4641H50L45.8336 71.8102L50 80.9899H100Z" fill="#C5CAE9"/>
<path d="M0 58.4641H50V80.9899H0V58.4641Z" fill="white"/>
<path d="M0 58.4641H50V80.9899H0V58.4641Z" fill="#5555CE" fill-opacity="0.08"/>
<path d="M50.3482 40.9502C42.4701 40.9502 36.0606 47.3597 36.0606 55.2386C36.0606 56.3479 36.1918 57.4259 36.4322 58.4635L20.8216 58.4486C19.7178 58.4476 18.8235 57.5524 18.8235 56.4486V54.1136C18.8235 53.009 19.719 52.1136 20.8235 52.1136H24.6176C25.6215 52.1136 26.4608 51.367 26.6638 50.3838C27.2915 47.3444 28.4915 44.5117 30.1458 42.0032C30.6986 41.1649 30.633 40.0431 29.9229 39.3331L27.2318 36.6424C26.4507 35.8614 26.4506 34.595 27.2317 33.8139L28.8815 32.164C29.6626 31.383 30.929 31.383 31.7101 32.1641L34.4007 34.8552C35.1108 35.5653 36.2326 35.6309 37.0709 35.0781C39.5794 33.4238 42.412 32.2238 45.4515 31.5962C46.4346 31.3931 47.1812 30.5538 47.1812 29.55V25.7559C47.1812 24.6513 48.0767 23.7559 49.1812 23.7559H50.3482V40.9502Z" fill="#FF9A75"/>
<path d="M50 40.9502C57.8781 40.9502 64.2876 47.3597 64.2876 55.2386C64.2876 56.3479 64.1563 57.4259 63.916 58.4635L79.5266 58.4486C80.6304 58.4476 81.5247 57.5524 81.5247 56.4486V54.1136C81.5247 53.009 80.6292 52.1136 79.5247 52.1136H75.7306C74.7267 52.1136 73.8874 51.367 73.6844 50.3838C73.0567 47.3444 71.8567 44.5117 70.2024 42.0032C69.6496 41.1649 69.7152 40.0431 70.4253 39.3331L73.1164 36.6424C73.8975 35.8614 73.8976 34.595 73.1165 33.8139L71.4667 32.164C70.6856 31.383 69.4192 31.383 68.6381 32.1641L65.9474 34.8552C65.2374 35.5653 64.1156 35.6309 63.2773 35.0781C60.7688 33.4238 57.9361 32.2238 54.8967 31.5962C53.9136 31.3931 53.167 30.5538 53.167 29.55V25.7559C53.167 24.6513 52.2715 23.7559 51.167 23.7559H50V40.9502Z" fill="#FF7542"/>
<path d="M41.5718 55.2383C41.5718 50.5836 45.3453 46.8093 50 46.8093V58.4632H42.2119C41.7999 57.4699 41.5718 56.3804 41.5718 55.2383Z" fill="#FF9A75"/>
<path d="M58.4282 55.2383C58.4282 50.5836 54.6547 46.8093 50 46.8093V58.4632H57.7881C58.2001 57.4699 58.4282 56.3804 58.4282 55.2383Z" fill="#FF7542"/>
<path d="M40.3907 44.5928C37.541 47.0809 35.7432 50.5795 35.3675 54.3682C35.23 55.755 35.2869 57.142 35.5273 58.4909H42.244C41.8769 57.3866 41.741 56.2065 41.858 55.0266C42.0671 52.9185 43.0674 50.9717 44.6531 49.5873C46.2387 48.2028 48.2888 47.4862 50.3812 47.5849C52.4737 47.6836 54.449 48.5902 55.9003 50.1179C57.3517 51.6456 58.1685 53.6781 58.1827 55.7967C58.1888 56.7207 58.0421 57.6304 57.756 58.4909H64.4728C64.6327 57.5932 64.7117 56.6767 64.7056 55.7522C64.6802 51.9447 63.2121 48.2919 60.6038 45.5464C57.9955 42.8009 54.4455 41.1716 50.6852 40.9942C46.9248 40.8168 43.2403 42.1048 40.3907 44.5928Z" fill="white"/>
</svg>
