<svg width="100" height="100" viewBox="0 0 100 100" fill="none" xmlns="http://www.w3.org/2000/svg">
<path d="M85.4591 53.1914H75.2243C67.2055 53.1914 60.6383 58.8466 60.6383 65.7818V79.6644C60.6383 83.8254 64.596 87.234 69.4074 87.234H91.276C96.0874 87.234 100 83.8254 100 79.6644V65.7818C100 58.8465 93.4779 53.1914 85.4591 53.1914Z" fill="#FF9A75"/>
<path d="M80.8511 53.1914H75.6014C67.3753 53.1914 60.6383 58.8466 60.6383 65.7818V79.6644C60.6383 83.8254 64.6983 87.234 69.6341 87.234H80.8511V53.1914Z" fill="#FF9A75"/>
<path d="M80.5031 23.7769C73.3502 23.7769 67.5311 29.5962 67.5311 36.7489C67.5311 43.9019 73.3502 49.7212 80.5031 49.7212C87.6561 49.7212 93.4752 43.9019 93.4752 36.7489C93.4752 29.5964 87.6561 23.7769 80.5031 23.7769Z" fill="#FF9A75"/>
<path d="M80.5031 23.7769C73.3502 23.7769 67.5311 29.5962 67.5311 36.7489C67.5311 43.9019 73.3502 49.7212 80.5031 49.7212V23.7769Z" fill="#FF9A75"/>
<path d="M24.8206 53.1914H14.586C6.56721 53.1914 0 58.8465 0 65.7817V79.6643C0 83.8254 3.95769 87.234 8.76908 87.234H30.6377C35.4491 87.234 39.3617 83.8254 39.3617 79.6643V65.7817C39.3617 58.8465 32.8396 53.1914 24.8206 53.1914Z" fill="#FF7542"/>
<path d="M19.1489 53.1914H14.1755C6.3824 53.1914 0 58.8466 0 65.7818V79.6644C0 83.8254 3.84632 87.234 8.52231 87.234H19.1489C19.1489 87.2341 19.1489 53.1914 19.1489 53.1914Z" fill="#FF7542"/>
<path d="M58.8889 45.7446H41.1111C33.1072 45.7446 26.5957 51.5162 26.5957 58.6105V84.6609C26.5957 86.082 27.8956 87.234 29.4988 87.234H70.5012C72.1046 87.234 73.4042 86.082 73.4042 84.6609V58.6105C73.4042 51.5162 66.8927 45.7446 58.8889 45.7446Z" fill="#6564C4"/>
<path d="M50 45.7446H41.0505C33.0801 45.7446 26.5957 51.5162 26.5957 58.6105V84.6609C26.5957 86.082 27.8902 87.234 29.4866 87.234H50V45.7446Z" fill="#7C7CD9"/>
<path d="M50 7.60938C40.4355 7.60938 32.6543 15.3906 32.6543 24.9551C32.6543 34.5195 40.4354 42.3008 50 42.3008C59.5647 42.3008 67.3457 34.5195 67.3457 24.9551C67.3457 15.3906 59.5645 7.60938 50 7.60938Z" fill="#6564C4"/>
<path d="M50 7.60938C40.4355 7.60938 32.6543 15.3906 32.6543 24.9551C32.6543 34.5195 40.4354 42.3008 50 42.3008V7.60938Z" fill="#7C7CD9"/>
<path d="M19.5416 23.7769C12.3887 23.7769 6.56952 29.5962 6.56952 36.7489C6.56952 43.9019 12.3887 49.7212 19.5416 49.7212C26.6945 49.7212 32.5137 43.9019 32.5137 36.7489C32.5137 29.5964 26.6945 23.7769 19.5416 23.7769Z" fill="#FF7542"/>
<path d="M19.5416 23.7769C12.3887 23.7769 6.56952 29.5962 6.56952 36.7489C6.56952 43.9019 12.3887 49.7212 19.5416 49.7212V23.7769Z" fill="#FF7542"/>
</svg>
