<svg width="94" height="100" viewBox="0 0 94 100" fill="none" xmlns="http://www.w3.org/2000/svg">
<path d="M63.1133 22.0906C58.2803 19.3015 52.742 16.9343 47 15.2502C30.282 10.3465 11.8193 11.3097 3.87286 25.0976C-6.79979 43.5683 11.892 66.942 30.8867 77.9093C35.7215 80.7004 41.2594 83.0699 47 84.7564C63.7154 89.6677 82.1684 88.7121 90.1271 74.9023C100.8 56.4312 82.108 33.058 63.1133 22.0906ZM85.0574 71.9726C78.3982 83.5136 61.531 83.2293 47 78.5884C42.2002 77.0552 37.6537 75.049 33.8164 72.8338C18.3309 63.8953 0.0943443 43.3627 8.94258 28.0273C15.5789 16.5263 32.3631 16.6984 47 21.3947C51.7621 22.9228 56.3002 24.9246 60.1836 27.1662C75.6691 36.1047 93.9056 56.6373 85.0574 71.9726Z" fill="#7C7CD9"/>
<path d="M90.1271 74.9024C100.8 56.4313 82.108 33.0581 63.1133 22.0907C58.2803 19.3016 52.742 16.9344 47 15.2502V21.3946C51.7621 22.9227 56.3002 24.9245 60.1836 27.1661C75.6691 36.1045 93.9056 56.6372 85.0574 71.9725C78.3982 83.5137 61.531 83.2293 47 78.5885V84.7565C63.7154 89.6678 82.1683 88.7122 90.1271 74.9024Z" fill="#6564C4"/>
<path d="M90.1272 25.0977C82.1799 11.3082 63.7141 10.3485 47 15.25C41.2565 16.9344 35.7176 19.3016 30.8867 22.0906C12.0336 32.9762 -6.84451 56.3539 3.87287 74.9024C11.8365 88.7203 30.308 89.6485 47 84.7496C52.7492 83.0623 58.2893 80.6942 63.1133 77.9092C81.9664 67.0238 100.845 43.6457 90.1272 25.0977ZM60.1836 72.8338C56.3416 75.0504 51.7961 77.0553 47 78.5873C32.4584 83.2322 15.5988 83.5086 8.94259 71.9727C0.0836105 56.6186 18.3697 36.0822 33.8164 27.1662C37.6721 24.9404 42.2149 22.9344 47 21.4016C61.5684 16.7352 78.3986 16.4871 85.0574 28.0274C93.9164 43.3811 75.6303 63.9174 60.1836 72.8338Z" fill="#C5CAE9"/>
<path d="M90.1271 25.0977C82.1799 11.3082 63.7141 10.3485 47 15.25V21.4016C61.5684 16.7352 78.3986 16.4871 85.0574 28.0274C93.9166 43.3811 75.6303 63.9174 60.1836 72.8338C56.3416 75.0504 51.7961 77.0553 47 78.5873V84.7496C52.7492 83.0623 58.2893 80.6942 63.1133 77.9092C81.9664 67.0238 100.845 43.6457 90.1271 25.0977Z" fill="#7C7CD9"/>
<path d="M47 0C29.233 0 14.7735 22.5371 14.7735 50C14.7735 77.4629 29.233 100 47 100C64.767 100 79.2266 77.4629 79.2266 50C79.2266 22.5371 64.767 0 47 0ZM47 94.1406C32.4604 94.1406 20.6328 74.2328 20.6328 50C20.6328 25.7672 32.4604 5.85938 47 5.85938C61.5397 5.85938 73.3672 25.7672 73.3672 50C73.3672 74.2328 61.5397 94.1406 47 94.1406Z" fill="#7C7CD9"/>
<path d="M79.2266 50C79.2266 22.5371 64.767 0 47 0V5.85938C61.5396 5.85938 73.3672 25.7672 73.3672 50C73.3672 74.2328 61.5396 94.1406 47 94.1406V100C64.767 100 79.2266 77.4629 79.2266 50Z" fill="#6564C4"/>
<path d="M61.6484 50V64.6484C61.6484 67.8711 55.0859 70.5078 47 70.5078C38.9141 70.5078 32.3516 67.8711 32.3516 64.6484V50H61.6484Z" fill="#E7DCD8"/>
<path d="M47 50H61.6484V64.6484C61.6484 67.8711 55.0859 70.5078 47 70.5078V50Z" fill="#F2AC93"/>
<path d="M61.6484 35.3516V50C61.6484 53.2227 55.0859 55.8594 47 55.8594C38.9141 55.8594 32.3516 53.2227 32.3516 50V35.3516H61.6484Z" fill="#FF9A75"/>
<path d="M61.6484 35.3516V50C61.6484 53.2227 55.0859 55.8594 47 55.8594V35.3516H61.6484Z" fill="#FF7542"/>
<path d="M47 41.2109C55.0901 41.2109 61.6484 38.5876 61.6484 35.3516C61.6484 32.1155 55.0901 29.4922 47 29.4922C38.9099 29.4922 32.3516 32.1155 32.3516 35.3516C32.3516 38.5876 38.9099 41.2109 47 41.2109Z" fill="#E7DCD8"/>
<path d="M47 41.2109V29.4922C55.0859 29.4922 61.6484 32.1289 61.6484 35.3516C61.6484 38.5742 55.0859 41.2109 47 41.2109Z" fill="#F2AC93"/>
</svg>
