<svg width="100" height="100" viewBox="0 0 100 100" fill="none" xmlns="http://www.w3.org/2000/svg">
<g clip-path="url(#clip0)">
<path d="M63.7894 57.7812C63.7894 65.4305 57.589 71.6309 49.9405 71.6309C42.292 71.6309 36.0916 65.4305 36.0916 57.7812C36.0916 50.1328 42.292 43.9324 49.9405 43.9324C57.589 43.9324 63.7894 50.1328 63.7894 57.7812Z" fill="#FF9A75"/>
<path d="M63.7894 57.782C63.7894 65.4305 57.5882 71.6301 49.9397 71.6301V43.9324C57.5882 43.9324 63.7894 50.1335 63.7894 57.782Z" fill="#FF7542"/>
<path d="M49.8665 71.631C38.2965 71.6707 29.0062 81.2219 29.0062 92.7919V97.0704C29.0062 98.6886 30.3185 100 31.9359 100H67.9443C69.5625 100 70.874 98.6886 70.874 97.0704V92.5645C70.874 80.9785 61.4616 71.5906 49.8665 71.631Z" fill="#7C7CD9"/>
<path d="M49.9397 71.6316V100H67.9443C69.5625 100 70.874 98.6885 70.874 97.0703V92.5644C70.874 81.0028 61.5013 71.6308 49.9397 71.6316Z" fill="#6564C4"/>
<path d="M27.3949 33.3908L32.5707 27.3476C33.9935 25.6874 33.1566 23.1011 31.0265 22.5922L23.2864 20.7443L19.1391 13.9542C18.0412 12.1567 15.3229 12.0171 14.1388 13.9542L9.9907 20.7443L2.25068 22.5922C0.122838 23.1003 -0.718685 25.6851 0.705723 27.3476L5.8815 33.3908L5.24598 41.3216C5.07431 43.4708 7.23649 45.1149 9.29108 44.2604L16.639 41.2056L23.9853 44.2604C26.0056 45.0997 28.2051 43.5044 28.0304 41.3216L27.3949 33.3908Z" fill="#FF7542"/>
<path d="M31.0265 22.5922L23.2872 20.7444L19.1391 13.9542C18.5844 13.0455 17.614 12.5611 16.6382 12.5542V41.2064L16.6389 41.2056L23.9853 44.2604C26.0056 45.0997 28.2059 43.5044 28.0304 41.3216L27.3949 33.3908L32.5706 27.3476C33.9935 25.6874 33.1566 23.1011 31.0265 22.5922Z" fill="#FF7542"/>
<path d="M93.7409 33.3376L98.9166 27.2944C100.34 25.6342 99.5026 23.0478 97.3725 22.539L89.6324 20.6911L85.4851 13.901C84.3872 12.1035 81.6689 11.9639 80.4848 13.901L76.3367 20.6911L68.5967 22.539C66.4688 23.0471 65.6273 25.6319 67.0517 27.2944L72.2275 33.3376L71.592 41.2684C71.4203 43.4176 73.5825 45.0617 75.6371 44.2072L82.985 41.1524L90.3313 44.2072C92.3516 45.0464 94.5511 43.4511 94.3764 41.2684L93.7409 33.3376Z" fill="#FF7542"/>
<path d="M97.7501 22.5922L90.0108 20.7444L85.8635 13.9542C85.3081 13.0455 84.3384 12.5611 83.3626 12.5542V41.2064L83.3633 41.2056L90.7089 44.2604C92.7292 45.0997 94.9295 43.5044 94.754 41.3216L94.1192 33.3908L99.295 27.3476C100.717 25.6874 99.8802 23.1011 97.7501 22.5922Z" fill="#FF7542"/>
<path d="M60.7567 20.8373L65.9325 14.7948C67.3554 13.1339 66.5184 10.5475 64.3883 10.0386L56.6483 8.19079L52.5009 1.40139C51.4031 -0.39686 48.6847 -0.536478 47.5006 1.40063L43.3518 8.19079L35.6117 10.0386C33.4846 10.5467 32.6431 13.1316 34.0675 14.7948L39.2433 20.8373L38.6078 28.768C38.4354 30.918 40.5983 32.5614 42.6529 31.7076L50.0008 28.6528L57.3471 31.7076C59.3674 32.5461 61.5669 30.9508 61.3922 28.768L60.7567 20.8373Z" fill="#C5CAE9"/>
<path d="M64.3883 10.0387L56.6483 8.19089L52.5009 1.40149C51.9455 0.492065 50.9758 0.00759888 50 0.000732422V28.6529H50.0008L57.3471 31.7077C59.3674 32.5462 61.5669 30.9509 61.3922 28.7681L60.7567 20.8374L65.9325 14.7949C67.3554 13.134 66.5184 10.5476 64.3883 10.0387Z" fill="#7C7CD9"/>
</g>
<defs>
<clipPath id="clip0">
<rect width="100" height="100" fill="white"/>
</clipPath>
</defs>
</svg>
