<svg width="100" height="100" viewBox="0 0 100 100" fill="none" xmlns="http://www.w3.org/2000/svg">
<path d="M57.0108 0C34.2588 0 15.8129 18.4459 15.8129 41.198C15.8129 50.4442 18.8973 58.9525 24.0417 65.8272L5.06556 84.8033C2.26793 87.601 2.26793 92.1368 5.06556 94.9344C7.86319 97.7321 12.399 97.7321 15.1967 94.9344L34.4702 75.661C40.9508 79.9061 48.6853 82.3959 57.0108 82.3959C79.7628 82.3959 98.2088 63.95 98.2088 41.198C98.2088 18.4459 79.7628 0 57.0108 0ZM57.0108 71.6486C40.22 71.6486 26.5602 57.9888 26.5602 41.198C26.5602 24.4071 40.22 10.7473 57.0108 10.7473C73.8017 10.7473 87.4615 24.4071 87.4615 41.198C87.4615 57.9888 73.8017 71.6486 57.0108 71.6486Z" fill="#6564C4"/>
<path d="M45.9506 34.0332H41.2033C39.5464 34.0332 38.2033 35.3763 38.2033 37.0332V56.1102C38.2033 57.7671 39.5464 59.1102 41.2033 59.1102H45.9506C47.6074 59.1102 48.9506 57.7671 48.9506 56.1102V37.0332C48.9506 35.3763 47.6074 34.0332 45.9506 34.0332Z" fill="#FF9A75"/>
<path d="M60.2803 19.7034H55.533C53.8761 19.7034 52.533 21.0465 52.533 22.7034V56.1101C52.533 57.767 53.8761 59.1101 55.533 59.1101H60.2803C61.9372 59.1101 63.2803 57.767 63.2803 56.1101V22.7034C63.2803 21.0465 61.9372 19.7034 60.2803 19.7034Z" fill="#7C7CD9"/>
<path d="M74.61 26.8682H69.8627C68.2059 26.8682 66.8627 28.2113 66.8627 29.8682V56.11C66.8627 57.7669 68.2059 59.11 69.8627 59.11H74.61C76.2669 59.11 77.61 57.7669 77.61 56.11V29.8682C77.61 28.2113 76.2669 26.8682 74.61 26.8682Z" fill="#FF7542"/>
</svg>
