<svg width="100" height="62" viewBox="0 0 100 62" fill="none" xmlns="http://www.w3.org/2000/svg">
<path d="M42.9299 61.355C39.8569 60.6458 37.9354 57.5729 38.6445 54.4999L50.0823 4.93608C50.7915 1.84787 53.9025 -0.0508009 56.9374 0.643093C60.0103 1.35224 61.9319 4.4252 61.2227 7.49816L49.7849 57.062C49.0987 60.0663 46.1096 62.0718 42.9299 61.355Z" fill="#7C7CD9"/>
<path d="M74.7194 53.8748C73.1562 53.8748 71.6007 53.2419 70.4645 51.9837C68.3523 49.6352 68.543 46.0208 70.8915 43.901L85.2345 30.9991L70.8915 18.0973C68.543 15.9851 68.3523 12.3708 70.4645 10.0146C72.5843 7.67364 76.1987 7.48301 78.5472 9.58757L97.6102 26.7443C98.815 27.8347 99.5013 29.3826 99.5013 30.9991C99.5013 32.6157 98.815 34.1636 97.6102 35.254L78.5472 52.4107C77.4492 53.3944 76.0843 53.8748 74.7194 53.8748Z" fill="#FF9A75"/>
<path d="M25.1555 53.8751C23.7906 53.8751 22.4257 53.3947 21.3277 52.4111L2.26465 35.2543C1.05987 34.1639 0.373596 32.616 0.373596 30.9995C0.373596 29.3829 1.05987 27.835 2.26465 26.7446L21.3277 9.58789C23.6762 7.47571 27.2829 7.66634 29.4104 10.0149C31.5226 12.3635 31.3319 15.9778 28.9834 18.0976L14.6404 30.9995L28.9834 43.9013C31.3319 46.0135 31.5226 49.6279 29.4104 51.984C28.2742 53.2422 26.7187 53.8751 25.1555 53.8751Z" fill="#FF9A75"/>
<path d="M56 30.5007H43.7947L38.156 54.3862C37.4105 57.5095 39.409 60.6327 42.613 61.3535C43.065 61.4542 43.5171 61.5007 43.9612 61.5007C46.729 61.5007 49.1241 59.6252 49.7506 56.9902L56 30.5007Z" fill="#6564C4"/>
<path d="M100 30.5007H85.5013L70.9251 43.4727C68.5383 45.5964 68.3446 49.2304 70.4911 51.5994C71.6458 52.8644 73.2266 53.5007 74.8152 53.5007C76.2023 53.5007 77.5894 53.0177 78.7053 52.0287L98.0782 34.7787C99.3026 33.6824 100 32.1261 100 30.5007Z" fill="#FF7542"/>
<path d="M14.4987 30.5007H0C0 32.1261 0.697427 33.6824 1.9218 34.7787L21.2947 52.0287C22.4106 53.0177 23.7977 53.5007 25.1848 53.5007C26.7734 53.5007 28.3542 52.8644 29.5089 51.5994C31.6554 49.2381 31.4616 45.6041 29.0749 43.4727L14.4987 30.5007Z" fill="#FF7542"/>
</svg>
