<svg width="418" height="341" viewBox="0 0 418 341" fill="none" xmlns="http://www.w3.org/2000/svg">
<g opacity="0.2" clip-path="url(#clip0)">
<path d="M345.955 171.006C345.955 165.471 350.438 160.984 355.969 160.984L396.028 160.984C401.559 160.984 406.043 165.47 406.043 171.005C406.043 176.54 401.559 181.026 396.028 181.026L355.97 181.027C350.44 181.027 345.955 176.54 345.955 171.006Z" fill="white"/>
<path d="M345.955 171.006C345.955 165.471 350.438 160.984 355.969 160.984L396.028 160.984C401.559 160.984 406.043 165.47 406.043 171.005C406.043 176.54 401.559 181.026 396.028 181.026L355.97 181.027C350.44 181.027 345.955 176.54 345.955 171.006Z" fill="#5555CE" fill-opacity="0.08"/>
<path d="M305.897 211.089C305.897 205.556 310.38 201.069 315.912 201.068L355.97 201.068C361.501 201.068 365.984 205.554 365.984 211.089C365.985 216.624 361.501 221.11 355.97 221.11L315.911 221.111C310.381 221.111 305.897 216.624 305.897 211.089Z" fill="white"/>
<path d="M305.897 211.089C305.897 205.556 310.38 201.069 315.912 201.068L355.97 201.068C361.501 201.068 365.984 205.554 365.984 211.089C365.985 216.624 361.501 221.11 355.97 221.11L315.911 221.111C310.381 221.111 305.897 216.624 305.897 211.089Z" fill="#5555CE" fill-opacity="0.08"/>
<path d="M305.896 130.921C305.896 125.386 310.38 120.899 315.911 120.899L355.97 120.899C361.5 120.898 365.984 125.385 365.984 130.92C365.985 136.454 361.501 140.941 355.97 140.941L315.911 140.942C310.381 140.942 305.897 136.455 305.896 130.921Z" fill="white"/>
<path d="M305.896 130.921C305.896 125.386 310.38 120.899 315.911 120.899L355.97 120.899C361.5 120.898 365.984 125.385 365.984 130.92C365.985 136.454 361.501 140.941 355.97 140.941L315.911 140.942C310.381 140.942 305.897 136.455 305.896 130.921Z" fill="#5555CE" fill-opacity="0.08"/>
<path d="M289.152 231.132L289.151 110.878C289.152 94.2916 275.663 80.8144 259.107 80.8139L38.7869 80.8148C22.2776 80.8144 8.74267 94.1919 8.74315 110.878L8.74314 231.132C8.74268 247.747 22.1799 261.196 38.7868 261.195L259.109 261.195C275.647 261.195 289.152 247.734 289.152 231.132ZM250.441 100.857L155.027 173.791C151.447 176.526 146.448 176.527 142.868 173.79L47.4538 100.857L250.441 100.857ZM29.1886 234C28.9158 233.08 28.7723 232.118 28.7718 231.132L28.7728 111.798L107.075 171.651L29.1886 234ZM52.3147 241.153L123.475 184.187L130.71 189.717C141.449 197.926 156.448 197.925 167.185 189.717L174.42 184.187L245.581 241.153L52.3147 241.153ZM190.82 171.651L269.122 111.798L269.123 231.132C269.123 232.127 268.972 233.087 268.701 233.995L190.82 171.651Z" fill="white"/>
<path d="M289.152 231.132L289.151 110.878C289.152 94.2916 275.663 80.8144 259.107 80.8139L38.7869 80.8148C22.2776 80.8144 8.74267 94.1919 8.74315 110.878L8.74314 231.132C8.74268 247.747 22.1799 261.196 38.7868 261.195L259.109 261.195C275.647 261.195 289.152 247.734 289.152 231.132ZM250.441 100.857L155.027 173.791C151.447 176.526 146.448 176.527 142.868 173.79L47.4538 100.857L250.441 100.857ZM29.1886 234C28.9158 233.08 28.7723 232.118 28.7718 231.132L28.7728 111.798L107.075 171.651L29.1886 234ZM52.3147 241.153L123.475 184.187L130.71 189.717C141.449 197.926 156.448 197.925 167.185 189.717L174.42 184.187L245.581 241.153L52.3147 241.153ZM190.82 171.651L269.122 111.798L269.123 231.132C269.123 232.127 268.972 233.087 268.701 233.995L190.82 171.651Z" fill="#5555CE" fill-opacity="0.08"/>
</g>
<defs>
<clipPath id="clip0">
<rect width="418" height="341" fill="white"/>
</clipPath>
</defs>
</svg>
