<svg width="65" height="65" viewBox="0 0 65 65" fill="none" xmlns="http://www.w3.org/2000/svg">
<path d="M32.5 5.4165C17.5229 5.4165 5.41667 17.5228 5.41667 32.4998C5.41667 47.4769 17.5229 59.5832 32.5 59.5832C47.4771 59.5832 59.5833 47.4769 59.5833 32.4998C59.5833 17.5228 47.4771 5.4165 32.5 5.4165ZM32.5 54.1665C20.5563 54.1665 10.8333 44.4436 10.8333 32.4998C10.8333 20.5561 20.5563 10.8332 32.5 10.8332C44.4438 10.8332 54.1667 20.5561 54.1667 32.4998C54.1667 44.4436 44.4438 54.1665 32.5 54.1665ZM42.2229 18.9582L32.5 28.6811L22.7771 18.9582L18.9583 22.7769L28.6813 32.4998L18.9583 42.2228L22.7771 46.0415L32.5 36.3186L42.2229 46.0415L46.0417 42.2228L36.3188 32.4998L46.0417 22.7769L42.2229 18.9582Z" fill="#FF7542"/>
</svg>
