<svg width="96" height="100" viewBox="0 0 96 100" fill="none" xmlns="http://www.w3.org/2000/svg">
<path d="M20.963 71.1111L14.0699 78.0041C12.9794 79.0947 12.9794 80.8436 14.0699 81.9342C14.6049 82.4691 15.3251 82.7366 16.0247 82.7366C16.7243 82.7366 17.4444 82.4691 17.9794 81.9342L24.8724 75.0412C25.963 73.9506 25.963 72.2016 24.8724 71.1111C23.8025 70.0206 22.0329 70.0206 20.963 71.1111ZM75.037 71.1111C73.9465 70.0206 72.1975 70.0206 71.107 71.1111C70.0164 72.2016 70.0164 73.9506 71.107 75.0412L78 81.9342C78.535 82.4691 79.2551 82.7366 79.9547 82.7366C80.6543 82.7366 81.3745 82.4691 81.9095 81.9342C83 80.8436 83 79.0947 81.9095 78.0041L75.037 71.1111Z" fill="#FF9A75"/>
<path d="M73.0823 25.679C73.7819 25.679 74.502 25.4115 75.037 24.8766L81.93 17.9835C83.0206 16.893 83.0206 15.144 81.93 14.0535C80.8395 12.963 79.0905 12.963 78 14.0535L71.107 20.9465C70.0164 22.037 70.0164 23.786 71.107 24.8766C71.6625 25.4115 72.3621 25.679 73.0823 25.679ZM20.963 24.856C21.4979 25.391 22.2181 25.6584 22.9177 25.6584C23.6173 25.6584 24.3374 25.391 24.8724 24.856C25.963 23.7654 25.963 22.0165 24.8724 20.9259L17.9794 14.0329C16.8889 12.9424 15.1399 12.9424 14.0494 14.0329C12.9588 15.1235 12.9588 16.8724 14.0494 17.963L20.963 24.856Z" fill="#FF9A75"/>
<path d="M15.3045 47.9835C15.3045 46.4609 14.0699 45.2057 12.5267 45.2057H2.79423C1.27159 45.2057 0.016449 46.4403 0.016449 47.9835C0.016449 49.5062 1.25102 50.7613 2.79423 50.7613H12.5267C14.0699 50.7613 15.3045 49.5267 15.3045 47.9835ZM93.2058 45.2057H83.4732C81.9506 45.2057 80.6955 46.4403 80.6955 47.9835C80.6955 49.5062 81.93 50.7613 83.4732 50.7613H93.2058C94.7284 50.7613 95.9835 49.5267 95.9835 47.9835C95.9835 46.4609 94.749 45.2057 93.2058 45.2057Z" fill="#FF7542" fill-opacity="0.5"/>
<path d="M48 15.2881C49.5226 15.2881 50.7778 14.0535 50.7778 12.5103V2.77778C50.7778 1.25514 49.5432 0 48 0C46.4568 0 45.2222 1.23457 45.2222 2.77778V12.5103C45.2222 14.0535 46.4774 15.2881 48 15.2881Z" fill="#FF7542"/>
<path d="M59.3992 87.3868V90.3086C59.3992 92.6337 57.6913 94.5679 55.4691 94.8971L54.749 97.5514C54.358 98.9917 53.0617 100 51.5596 100H44.4197C42.9177 100 41.6214 98.9917 41.2304 97.5514L40.5308 94.8971C38.288 94.5473 36.5802 92.6337 36.5802 90.288V87.3662C36.5802 85.8025 37.8354 84.5473 39.3992 84.5473H56.5802C58.144 84.5679 59.3992 85.823 59.3992 87.3868Z" fill="#6564C4"/>
<path d="M72.6705 50.0402C72.6705 56.6863 70.0368 62.7151 65.7569 67.1389C62.5059 70.5134 60.4071 74.8138 59.7076 79.4023C59.3989 81.3776 57.6911 82.8385 55.6746 82.8385H40.3866C38.3907 82.8385 36.6623 81.3982 36.3742 79.4229C35.6541 74.8344 33.5347 70.4723 30.2837 67.1184C26.0862 62.7562 23.473 56.8303 23.4113 50.3077C23.2672 36.604 34.1726 25.5134 47.8763 25.4106C61.5594 25.3077 72.6705 36.3776 72.6705 50.0402ZM50.8187 35.1225C50.8187 33.5999 49.5841 32.3447 48.0409 32.3447C38.2466 32.3447 30.2631 40.3077 30.2631 50.1225C30.2631 51.6451 31.4977 52.9003 33.0409 52.9003C34.5635 52.9003 35.8187 51.6657 35.8187 50.1225C35.8187 43.3735 41.3125 37.9003 48.0409 37.9003C49.5841 37.9003 50.8187 36.6657 50.8187 35.1225Z" fill="#FF7542"/>
</svg>
