<svg width="62" height="62" viewBox="0 0 62 62" fill="none" xmlns="http://www.w3.org/2000/svg">
<g clip-path="url(#clip0)">
<path d="M29.8359 34.8254L34.8154 29.846L48.7579 43.7885L43.7784 48.7679L29.8359 34.8254Z" fill="#C5CAE9"/>
<path d="M44.8785 39.6145L39.6136 44.8793C39.2994 45.1936 39.2994 45.7033 39.6136 46.0176L54.2698 60.6737C56.0379 62.4419 58.9048 62.4419 60.6729 60.6737C62.441 58.9056 62.441 56.0388 60.6729 54.2706L46.0168 39.6145C45.7025 39.3001 45.1928 39.3001 44.8785 39.6145Z" fill="#6564C4"/>
<path d="M23.0305 46.2843C35.8734 46.2843 46.2847 35.8731 46.2847 23.0301C46.2847 10.1872 35.8734 -0.223999 23.0305 -0.223999C10.1876 -0.223999 -0.223633 10.1872 -0.223633 23.0301C-0.223633 35.8731 10.1876 46.2843 23.0305 46.2843Z" fill="#FF9A75"/>
<path d="M23.0304 39.8447C32.3168 39.8447 39.8449 32.3166 39.8449 23.0301C39.8449 13.7437 32.3168 6.21558 23.0304 6.21558C13.744 6.21558 6.21582 13.7437 6.21582 23.0301C6.21582 32.3166 13.744 39.8447 23.0304 39.8447Z" fill="white"/>
<path d="M23.0304 39.8447C32.3168 39.8447 39.8449 32.3166 39.8449 23.0301C39.8449 13.7437 32.3168 6.21558 23.0304 6.21558C13.744 6.21558 6.21582 13.7437 6.21582 23.0301C6.21582 32.3166 13.744 39.8447 23.0304 39.8447Z" fill="#5555CE" fill-opacity="0.08"/>
</g>
<defs>
<clipPath id="clip0">
<rect width="62" height="62" fill="white"/>
</clipPath>
</defs>
</svg>
