<svg width="90" height="80" viewBox="0 0 90 80" fill="none" xmlns="http://www.w3.org/2000/svg">
<path d="M75.9959 23.4291H75.7927C75.886 10.9145 65.761 0.86438 53.4025 0.86438C44.753 0.86438 37.2502 5.76903 33.5203 12.9483C31.4696 10.7798 28.5676 9.42493 25.3475 9.42493C18.009 9.42493 12.6522 16.3317 14.4385 23.4291H14.0041C6.26994 23.4291 0 29.699 0 37.4332C0 45.1674 6.26994 51.4374 14.0041 51.4374H75.9959C83.7301 51.4374 90 45.1674 90 37.4332C90 29.699 83.7301 23.4291 75.9959 23.4291Z" fill="#6564C4"/>
<path d="M47.6367 63.7507V56.7104H42.3633V63.7507C39.2894 64.8395 37.0811 67.7743 37.0811 71.2164C37.0811 75.583 40.6334 79.1354 45 79.1354C49.3666 79.1354 52.919 75.583 52.919 71.2164C52.919 67.7743 50.7106 64.8396 47.6367 63.7507Z" fill="#FF7542"/>
<path d="M68.0706 64.0152L63.4658 59.4105V56.7104H58.1924V60.5021C58.1924 61.2017 58.4701 61.8731 58.9641 62.3671L64.2764 67.6794C61.6556 72.9053 65.4655 79.1354 71.3584 79.1354C75.7248 79.1354 79.2773 75.583 79.2773 71.2164C79.2773 65.4658 73.2994 61.6184 68.0706 64.0152Z" fill="#6564C4"/>
<path d="M26.5342 59.4104L21.9294 64.0152C16.7108 61.6231 10.7227 65.4553 10.7227 71.2166C10.7227 75.5832 14.275 79.1355 18.6416 79.1355C24.5306 79.1355 28.3472 72.9107 25.7237 67.6795L31.0359 62.3672C31.5299 61.8733 31.8076 61.2018 31.8076 60.5022V56.7106H26.5342V59.4104Z" fill="#6564C4"/>
</svg>
