<svg width="60" height="60" viewBox="0 0 60 60" fill="none" xmlns="http://www.w3.org/2000/svg">
<path d="M55.3698 29.0946H49.1767C48.9614 24.4826 47.1119 20.2905 44.1945 17.0866L51.733 9.54809C52.0866 9.19453 52.0866 8.62125 51.733 8.26758C51.3794 7.91402 50.8062 7.91402 50.4524 8.26758L42.9139 15.8061C39.71 12.8887 35.5179 11.0392 30.9059 10.8239V3.87316C30.9059 3.37312 30.5005 2.96777 30.0005 2.96777C29.5005 2.96777 29.0951 3.37312 29.0951 3.87316V10.8238C24.4831 11.0391 20.2911 12.8885 17.0871 15.806L10.4582 9.17719C10.1045 8.82363 9.53137 8.82363 9.17758 9.17719C8.82402 9.53074 8.82402 10.104 9.17758 10.4577L15.8065 17.0865C12.889 20.2904 11.0395 24.4825 10.8243 29.0945H5.48254C4.98238 29.0945 4.57715 29.4998 4.57715 29.9999C4.57715 30.4999 4.9825 30.9053 5.48254 30.9053H10.8244C11.0397 35.5173 12.8893 39.7093 15.8066 42.9132L9.17769 49.5421C8.82414 49.8956 8.82414 50.4689 9.17769 50.8226C9.35453 50.9994 9.58621 51.0878 9.81801 51.0878C10.0497 51.0878 10.2815 50.9993 10.4583 50.8226L17.0871 44.1937C20.2911 47.1112 24.4831 48.9607 29.0951 49.176V56.1266C29.0951 56.6266 29.5005 57.032 30.0005 57.032C30.5005 57.032 30.9059 56.6266 30.9059 56.1266V49.176C35.5179 48.9607 39.71 47.1112 42.9139 44.1937L50.4524 51.7323C50.6292 51.9091 50.861 51.9975 51.0927 51.9975C51.3244 51.9975 51.5562 51.909 51.733 51.7323C52.0866 51.3787 52.0866 50.8055 51.733 50.4518L44.1945 42.9132C47.112 39.7093 48.9616 35.5173 49.1767 30.9053H55.3698C55.87 30.9053 56.2752 30.4999 56.2752 29.9999C56.2752 29.5 55.87 29.0946 55.3698 29.0946ZM30.0005 47.3872C20.4132 47.3872 12.6133 39.5873 12.6133 30C12.6133 20.4127 20.4132 12.6128 30.0005 12.6128C39.5878 12.6128 47.3877 20.4127 47.3877 30C47.3877 39.5873 39.5878 47.3872 30.0005 47.3872Z" fill="#6564C4"/>
<path d="M7.56066 12.439C10.2547 12.439 12.4387 10.255 12.4387 7.56091C12.4387 4.86684 10.2547 2.68286 7.56066 2.68286C4.86659 2.68286 2.68262 4.86684 2.68262 7.56091C2.68262 10.255 4.86659 12.439 7.56066 12.439Z" fill="#FF7542"/>
<path d="M9.85383 3.25537C10.2188 3.93904 10.4263 4.71951 10.4263 5.54873C10.4263 8.24275 8.24227 10.4268 5.54824 10.4268C4.71902 10.4268 3.93855 10.2192 3.25488 9.85432C4.07566 11.3921 5.69555 12.439 7.56047 12.439C10.2545 12.439 12.4385 10.255 12.4385 7.56096C12.4385 5.69615 11.3917 4.07627 9.85383 3.25537Z" fill="#FF7542"/>
<path d="M29.9994 7.31719C32.02 7.31719 33.658 5.67918 33.658 3.65859C33.658 1.63801 32.02 0 29.9994 0C27.9788 0 26.3408 1.63801 26.3408 3.65859C26.3408 5.67918 27.9788 7.31719 29.9994 7.31719Z" fill="#FF7542"/>
<path d="M31.7198 0.429443C31.9936 0.942256 32.1492 1.52761 32.1492 2.14952C32.1492 4.17007 30.5111 5.80812 28.4906 5.80812C27.8687 5.80812 27.2833 5.65249 26.7705 5.37874C27.3861 6.5321 28.601 7.31726 29.9997 7.31726C32.0203 7.31726 33.6583 5.67933 33.6583 3.65866C33.6583 2.25991 32.873 1.04503 31.7198 0.429443Z" fill="#FF7542"/>
<path d="M29.9994 59.9999C32.02 59.9999 33.658 58.3619 33.658 56.3413C33.658 54.3207 32.02 52.6827 29.9994 52.6827C27.9788 52.6827 26.3408 54.3207 26.3408 56.3413C26.3408 58.3619 27.9788 59.9999 29.9994 59.9999Z" fill="#FF7542"/>
<path d="M31.7198 53.1122C31.9936 53.625 32.1492 54.2103 32.1492 54.8323C32.1492 56.8528 30.5111 58.4908 28.4906 58.4908C27.8687 58.4908 27.2833 58.3352 26.7705 58.0615C27.3862 59.2147 28.6011 59.9999 29.9997 59.9999C32.0203 59.9999 33.6583 58.3619 33.6583 56.3413C33.6583 54.9426 32.873 53.7278 31.7198 53.1122Z" fill="#FF7542"/>
<path d="M56.3412 33.6586C58.3618 33.6586 59.9998 32.0206 59.9998 30C59.9998 27.9794 58.3618 26.3414 56.3412 26.3414C54.3206 26.3414 52.6826 27.9794 52.6826 30C52.6826 32.0206 54.3206 33.6586 56.3412 33.6586Z" fill="#FF7542"/>
<path d="M58.0616 26.7708C58.3354 27.2836 58.491 27.8689 58.491 28.4908C58.491 30.5114 56.8529 32.1494 54.8324 32.1494C54.2105 32.1494 53.6251 31.9938 53.1123 31.7201C53.7279 32.8734 54.9428 33.6586 56.3415 33.6586C58.3621 33.6586 60.0001 32.0206 60.0001 30C60.0001 28.6013 59.215 27.3865 58.0616 26.7708Z" fill="#FF7542"/>
<path d="M3.65859 33.6586C5.67918 33.6586 7.31719 32.0206 7.31719 30C7.31719 27.9794 5.67918 26.3414 3.65859 26.3414C1.63801 26.3414 0 27.9794 0 30C0 32.0206 1.63801 33.6586 3.65859 33.6586Z" fill="#FF7542"/>
<path d="M5.37801 26.7708C5.65176 27.2836 5.80738 27.8689 5.80738 28.4908C5.80738 30.5114 4.16934 32.1494 2.14879 32.1494C1.52687 32.1494 0.941523 31.9938 0.428711 31.7201C1.0443 32.8734 2.25918 33.6586 3.65793 33.6586C5.67848 33.6586 7.31652 32.0206 7.31652 30C7.31652 28.6013 6.53137 27.3865 5.37801 26.7708Z" fill="#FF7542"/>
<path d="M30 30C33.3676 30 36.0976 27.2701 36.0976 23.9024C36.0976 20.5348 33.3676 17.8048 30 17.8048C26.6323 17.8048 23.9023 20.5348 23.9023 23.9024C23.9023 27.2701 26.6323 30 30 30Z" fill="#FF9A75"/>
<path d="M33.0328 18.6135C33.5463 19.507 33.8414 20.542 33.8414 21.6463C33.8414 25.014 31.1114 27.744 27.7437 27.744C26.6393 27.744 25.6044 27.4488 24.7109 26.9354C25.7632 28.7662 27.7368 30 30 30C33.3676 30 36.0976 27.27 36.0976 23.9024C36.0976 21.6393 34.8636 19.6658 33.0328 18.6135Z" fill="#FF9A75"/>
<path d="M19.7559 34.878V39.0367C19.7559 39.7035 20.2963 40.2439 20.9631 40.2439H39.0365C39.7033 40.2439 40.2437 39.7035 40.2437 39.0367V34.878C40.2437 32.184 38.0597 30 35.3657 30H24.634C21.9399 30 19.7559 32.184 19.7559 34.878Z" fill="#7C7CD9"/>
<path d="M35.3654 30H32.4385C35.1325 30 37.3165 32.184 37.3165 34.878V40.2439H39.0361C39.7029 40.2439 40.2434 39.7035 40.2434 39.0367V34.878C40.2434 32.184 38.0594 30 35.3654 30Z" fill="#7C7CD9"/>
<path d="M52.4396 12.439C55.1336 12.439 57.3176 10.255 57.3176 7.56091C57.3176 4.86684 55.1336 2.68286 52.4396 2.68286C49.7455 2.68286 47.5615 4.86684 47.5615 7.56091C47.5615 10.255 49.7455 12.439 52.4396 12.439Z" fill="#FF7542"/>
<path d="M54.7327 3.25537C55.0976 3.93904 55.3052 4.71951 55.3052 5.54873C55.3052 8.24275 53.1212 10.4268 50.4271 10.4268C49.5979 10.4268 48.8175 10.2192 48.1338 9.85432C48.9546 11.3921 50.5745 12.439 52.4394 12.439C55.1334 12.439 57.3174 10.255 57.3174 7.56096C57.3174 5.69615 56.2705 4.07627 54.7327 3.25537Z" fill="#FF7542"/>
<path d="M52.4396 57.3171C55.1336 57.3171 57.3176 55.1332 57.3176 52.4391C57.3176 49.745 55.1336 47.561 52.4396 47.561C49.7455 47.561 47.5615 49.745 47.5615 52.4391C47.5615 55.1332 49.7455 57.3171 52.4396 57.3171Z" fill="#FF7542"/>
<path d="M54.7327 48.1335C55.0976 48.8172 55.3052 49.5977 55.3052 50.4269C55.3052 53.1209 53.1212 55.3049 50.4271 55.3049C49.5979 55.3049 48.8175 55.0974 48.1338 54.7325C48.9546 56.2702 50.5745 57.3172 52.4394 57.3172C55.1334 57.3172 57.3174 55.1332 57.3174 52.4391C57.3174 50.5742 56.2705 48.9543 54.7327 48.1335Z" fill="#FF7542"/>
<path d="M7.56066 57.3171C10.2547 57.3171 12.4387 55.1332 12.4387 52.4391C12.4387 49.745 10.2547 47.561 7.56066 47.561C4.86659 47.561 2.68262 49.745 2.68262 52.4391C2.68262 55.1332 4.86659 57.3171 7.56066 57.3171Z" fill="#FF7542"/>
<path d="M9.85383 48.1335C10.2188 48.8172 10.4263 49.5977 10.4263 50.4269C10.4263 53.1209 8.24227 55.3049 5.54824 55.3049C4.71902 55.3049 3.93855 55.0974 3.25488 54.7325C4.07566 56.2702 5.69555 57.3172 7.56047 57.3172C10.2545 57.3172 12.4385 55.1332 12.4385 52.4391C12.4385 50.5742 11.3917 48.9543 9.85383 48.1335Z" fill="#FF7542"/>
<path d="M36.0277 37.8048V40.2435H34.2168V37.8048C34.2168 37.305 34.6212 36.8994 35.1222 36.8994C35.6221 36.8994 36.0277 37.305 36.0277 37.8048Z" fill="#6564C4"/>
<path d="M25.7826 37.8048V40.2435H23.9717V37.8048C23.9717 37.305 24.3773 36.8994 24.8771 36.8994C25.3782 36.8994 25.7826 37.305 25.7826 37.8048Z" fill="#6564C4"/>
</svg>
