<svg width="20" height="15" viewBox="0 0 20 15" fill="none" xmlns="http://www.w3.org/2000/svg">
<path d="M6 7.58333C7.93437 7.58333 9.5 5.99907 9.5 4.04167C9.5 2.08426 7.93437 0.5 6 0.5C4.06563 0.5 2.5 2.08426 2.5 4.04167C2.5 5.99907 4.06563 7.58333 6 7.58333ZM8.4 8.59524H8.14062C7.49062 8.91146 6.76875 9.10119 6 9.10119C5.23125 9.10119 4.5125 8.91146 3.85938 8.59524H3.6C1.6125 8.59524 0 10.2269 0 12.2381V13.1488C0 13.9868 0.671875 14.6667 1.5 14.6667H10.5C11.3281 14.6667 12 13.9868 12 13.1488V12.2381C12 10.2269 10.3875 8.59524 8.4 8.59524ZM15 7.58333C16.6562 7.58333 18 6.22359 18 4.54762C18 2.87165 16.6562 1.5119 15 1.5119C13.3438 1.5119 12 2.87165 12 4.54762C12 6.22359 13.3438 7.58333 15 7.58333ZM16.5 8.59524H16.3813C15.9469 8.74702 15.4875 8.84821 15 8.84821C14.5125 8.84821 14.0531 8.74702 13.6187 8.59524H13.5C12.8625 8.59524 12.275 8.78181 11.7594 9.08222C12.5219 9.91388 13 11.0175 13 12.2381V13.4524C13 13.5219 12.9844 13.5884 12.9812 13.6548H18.5C19.3281 13.6548 20 12.9749 20 12.1369C20 10.1795 18.4344 8.59524 16.5 8.59524Z" fill="white"/>
</svg>
