<svg width="482" height="480" viewBox="0 0 482 480" fill="none" xmlns="http://www.w3.org/2000/svg">
<path d="M247.66 476.442C218.902 476.442 196.933 472.422 188.17 470.641C162.742 465.476 118.328 456.456 78.8409 426.297H403.654C401.121 428.206 398.729 429.922 396.515 431.511C345.785 467.909 289.533 476.442 247.66 476.442ZM32.0969 373.494C-14.0019 295.075 -0.750937 187.463 45.9501 113.83C55.4826 98.798 105.837 15.3778 208.18 1.99841C218.338 0.671265 228.782 0 239.358 0C293.275 0 350.892 17.4156 394.602 54.0363C482.896 128.009 495.102 262.693 458.076 352.978L460.525 183.797C460.525 179.792 455.975 172.11 447.611 172.11C447.299 172.11 446.983 172.12 446.661 172.142L210.074 166.02C211.3 163.213 211.98 160.112 211.98 156.852C211.98 144.188 201.715 133.924 189.052 133.924C176.39 133.924 166.124 144.188 166.124 156.852C166.124 159.693 166.641 162.41 167.585 164.921L47.1017 161.804C46.937 161.799 46.7717 161.797 46.6075 161.797C41.5664 161.797 36.7233 163.794 33.1451 167.359C29.4505 171.043 27.4289 176.077 27.5522 181.29L32.0969 373.494ZM231.195 80.4577C216.196 80.4577 204.038 92.6161 204.038 107.615C204.038 122.615 216.196 134.773 231.195 134.773C246.195 134.773 258.353 122.615 258.353 107.615C258.353 92.6161 246.195 80.4577 231.195 80.4577ZM154.423 55.259C134.639 55.259 118.602 71.2961 118.602 91.08C118.602 110.862 134.639 126.901 154.423 126.901C174.205 126.901 190.244 110.862 190.244 91.08C190.244 71.2961 174.205 55.259 154.423 55.259ZM210.262 13.6585C197.599 13.6585 187.334 23.9229 187.334 36.5865C187.334 49.25 197.599 59.5145 210.262 59.5145C222.924 59.5145 233.19 49.25 233.19 36.5865C233.19 23.9229 222.924 13.6585 210.262 13.6585Z" fill="url(#paint0_linear)"/>
<path d="M449.563 426.297H40.7271C36.5691 426.297 33.1668 422.898 33.1668 418.743L32.0969 373.493L27.5522 181.29C27.4289 176.077 29.4505 171.043 33.1451 167.359C36.7232 163.794 41.5664 161.797 46.6075 161.797C46.7717 161.797 46.9369 161.799 47.1017 161.804L167.585 164.921C168.931 168.5 171.145 171.652 173.972 174.124L48.673 170.762C48.5533 170.759 48.4333 170.757 48.3139 170.757C44.7767 170.757 41.3788 172.159 38.8675 174.665C36.2715 177.254 34.8438 180.799 34.9356 184.463L40.6309 411.498C40.6309 415.431 43.8496 418.651 47.7834 418.651H439.703C443.638 418.651 446.856 415.431 446.856 411.498L450.067 198.211C449.698 185.73 439.049 181.025 432.189 181.025C431.993 181.025 431.803 181.028 431.615 181.035L203.186 174.908C206.159 172.575 208.541 169.527 210.074 166.02L446.66 172.142C446.982 172.12 447.299 172.11 447.611 172.11C455.974 172.11 460.525 179.792 460.525 183.797L458.076 352.978L457.124 418.743C457.124 422.898 453.721 426.297 449.563 426.297Z" fill="#7C7CD9"/>
<path d="M40.6291 411.498C40.6291 415.431 43.8478 418.651 47.7817 418.651H439.701C443.636 418.651 446.854 415.431 446.854 411.498L450.065 198.211C449.686 185.376 438.434 180.763 431.613 181.035L48.6713 170.762C45.006 170.663 41.4619 172.075 38.8658 174.665C36.2697 177.254 34.8421 180.799 34.9339 184.463L40.6291 411.498Z" fill="#C5CAE9"/>
<path d="M442.62 310.172H442.605C442.026 310.164 441.564 309.688 441.572 309.107L441.826 291.81C441.834 291.238 442.302 290.777 442.874 290.777H442.889C443.468 290.786 443.93 291.262 443.922 291.842L443.668 309.138C443.66 309.712 443.192 310.172 442.62 310.172Z" fill="#6564C4"/>
<path d="M443.242 267.784H443.225C442.646 267.775 442.184 267.299 442.193 266.721L443.165 200.471C443.148 196.536 441.953 193.395 439.615 191.154C435.25 186.974 428.324 187.188 428.031 187.202L305.635 183.919C305.056 183.903 304.599 183.422 304.615 182.843C304.63 182.265 305.075 181.771 305.692 181.824L428.015 185.105C428.776 185.061 436.153 184.934 441.066 189.64C443.83 192.289 445.241 195.937 445.261 200.482L444.289 266.751C444.28 267.325 443.813 267.784 443.242 267.784Z" fill="#6564C4"/>
<path d="M0.968219 445.8H481.032C481.565 445.8 482 445.365 482 444.832V426.126C482 425.593 481.565 425.156 481.032 425.156H0.968219C0.435647 425.156 0 425.593 0 426.126V444.832C0 445.365 0.435647 445.8 0.968219 445.8Z" fill="#7C7CD9"/>
<path d="M432.072 144.219C432.072 192.935 392.58 232.427 343.864 232.427C295.147 232.427 255.654 192.935 255.654 144.219C255.654 95.5033 295.147 56.0108 343.864 56.0108C392.58 56.0108 432.072 95.5033 432.072 144.219Z" fill="white"/>
<path d="M419.145 144.219C419.145 185.797 385.44 219.502 343.864 219.502C302.285 219.502 268.581 185.797 268.581 144.219C268.581 102.642 302.285 68.9362 343.864 68.9362C385.44 68.9362 419.145 102.642 419.145 144.219Z" fill="#6564C4"/>
<path d="M343.861 68.9363C302.352 68.9363 268.58 102.708 268.58 144.219C268.58 185.73 302.352 219.502 343.861 219.502C385.373 219.502 419.144 185.73 419.144 144.219C419.144 102.708 385.373 68.9363 343.861 68.9363ZM343.861 223.272C300.273 223.272 264.81 187.809 264.81 144.219C264.81 100.629 300.273 65.1655 343.861 65.1655C387.452 65.1655 422.915 100.629 422.915 144.219C422.915 187.809 387.452 223.272 343.861 223.272Z" fill="white"/>
<path d="M389.759 144.219C389.759 169.567 369.21 190.114 343.864 190.114C318.516 190.114 297.967 169.567 297.967 144.219C297.967 118.871 318.516 98.3235 343.864 98.3235C369.21 98.3235 389.759 118.871 389.759 144.219Z" fill="#6564C4"/>
<path d="M343.861 102.094C320.634 102.094 301.737 120.991 301.737 144.219C301.737 167.447 320.634 186.345 343.861 186.345C367.091 186.345 385.988 167.447 385.988 144.219C385.988 120.991 367.091 102.094 343.861 102.094ZM343.861 193.885C316.476 193.885 294.195 171.604 294.195 144.219C294.195 116.833 316.476 94.5528 343.861 94.5528C371.249 94.5528 393.529 116.833 393.529 144.219C393.529 171.604 371.249 193.885 343.861 193.885Z" fill="white"/>
<path d="M361.643 144.219C361.643 154.04 353.682 162.001 343.863 162.001C334.042 162.001 326.081 154.04 326.081 144.219C326.081 134.398 334.042 126.437 343.863 126.437C353.682 126.437 361.643 134.398 361.643 144.219Z" fill="#6564C4"/>
<path d="M343.863 130.208C336.138 130.208 329.853 136.492 329.853 144.219C329.853 151.945 336.138 158.23 343.863 158.23C351.589 158.23 357.874 151.945 357.874 144.219C357.874 136.492 351.589 130.208 343.863 130.208ZM343.863 165.772C331.98 165.772 322.312 156.103 322.312 144.219C322.312 132.335 331.98 122.666 343.863 122.666C355.747 122.666 365.416 132.335 365.416 144.219C365.416 156.103 355.747 165.772 343.863 165.772Z" fill="white"/>
<path d="M450.798 37.0078L453.175 39.3846L363.151 129.408L360.774 127.031L450.798 37.0078Z" fill="#2D2D9A"/>
<path d="M362.457 121.294C363.822 119.931 370.25 126.36 368.887 127.725L345.04 146.473C344.158 147.165 343.017 146.024 343.709 145.142L362.457 121.294Z" fill="#FF7542"/>
<path d="M453.124 39.436L465.234 40.6398L448.61 57.266C443.163 62.7133 435.558 65.4293 427.893 64.6672L453.124 39.436Z" fill="#FF7542"/>
<path d="M450.745 37.0591L449.541 24.9487L432.915 41.5731C427.468 47.0204 424.752 54.6255 425.514 62.2904L450.745 37.0591Z" fill="#FF7542"/>
<path d="M210.261 59.5144C197.597 59.5144 187.333 49.25 187.333 36.5865C187.333 23.9229 197.597 13.6585 210.261 13.6585C222.923 13.6585 233.189 23.9229 233.189 36.5865C233.189 49.25 222.923 59.5144 210.261 59.5144ZM210.261 14.4205C198.019 14.4205 188.095 24.3442 188.095 36.5865C188.095 48.8288 198.019 58.7524 210.261 58.7524C222.502 58.7524 232.427 48.8288 232.427 36.5865C232.427 24.3442 222.502 14.4205 210.261 14.4205Z" fill="url(#paint1_linear)"/>
<path d="M210.262 58.7524C198.019 58.7524 188.096 48.8288 188.096 36.5865C188.096 24.3442 198.019 14.4206 210.262 14.4206C222.502 14.4206 232.428 24.3442 232.428 36.5865C232.428 48.8288 222.502 58.7524 210.262 58.7524ZM210.745 18.3095C200.383 18.3095 191.983 26.7074 191.983 37.0694C191.983 47.4297 200.383 55.8293 210.745 55.8293C221.105 55.8293 229.504 47.4297 229.504 37.0694C229.504 26.7074 221.105 18.3095 210.745 18.3095ZM210.262 15.1946C202.138 15.1946 194.815 19.7018 191.152 26.9591C190.921 27.4181 191.104 27.978 191.565 28.2092C191.699 28.2777 191.843 28.3102 191.983 28.3102C192.324 28.3102 192.651 28.1236 192.815 27.7982C196.16 21.1728 202.845 17.056 210.262 17.056C211.447 17.056 212.633 17.1622 213.786 17.3728C213.842 17.3831 213.897 17.3883 213.952 17.3883C214.394 17.3883 214.788 17.0749 214.87 16.6245C214.961 16.1176 214.627 15.633 214.12 15.5405C212.856 15.3111 211.558 15.1946 210.262 15.1946Z" fill="#FF7542"/>
<path d="M191.904 28.3239V28.3068H191.784V28.2896H191.733V28.2725H191.681V28.2554H191.63V28.2383H191.579V28.2211H191.544V28.204H191.51V28.1869H191.493V28.1698H191.459V28.1526H191.442V28.1355H191.407V28.1184H191.39V28.1013H191.373V28.0841H191.356V28.067H191.339V28.0499H191.322V28.0328H191.305V28.0156H191.288V27.9985H191.27V27.9814H191.253V27.9643H191.236V27.93H191.219V27.9129H191.202V27.8786H191.185V27.8615H191.168V27.8273H191.151V27.793H191.133V27.7588H191.116V27.7245H191.099V27.6732H191.082V27.6047H191.065V27.519H191.048V27.245H191.065V27.1423H191.082V27.0909H191.099V27.0395H191.116V26.9882H191.133V26.9539H191.151V26.9197H191.168V26.8854H191.185V26.8512H191.202V26.8169H191.219V26.7827H191.236V26.7484H191.253V26.7142H191.27V26.6799H191.288V26.6628H191.305V26.6286H191.322V26.5943H191.339V26.5601H191.356V26.5258H191.373V26.4916H191.39V26.4573H191.407V26.4402H191.425V26.4059H191.442V26.3717H191.459V26.3374H191.476V26.3032H191.493V26.2689H191.51V26.2347H191.527V26.2176H191.544V26.1833H191.562V26.1491H191.579V26.1148H191.596V26.0977H191.613V26.0635H191.63V26.0292H191.647V25.995H191.664V25.9778H191.681V25.9436H191.699V25.9093H191.716V25.8751H191.733V25.858H191.75V25.8237H191.767V25.7895H191.784V25.7552H191.801V25.7381H191.818V25.7038H191.836V25.6696H191.853V25.6353H191.87V25.6182H191.887V25.584H191.904V25.5497H191.921V25.5326H191.938V25.4983H191.955V25.4812H191.973V25.447H191.99V25.4127H192.007V25.3956H192.024V25.3613H192.041V25.3442H192.058V25.31H192.075V25.2757H192.092V25.2586H192.11V25.2244H192.127V25.1901H192.144V25.173H192.161V25.1387H192.178V25.1216H192.195V25.0874H192.212V25.0531H192.229V25.036H192.247V25.0017H192.264V24.9846H192.281V24.9504H192.298V24.9332H192.315V24.899H192.332V24.8819H192.349V24.8476H192.366V24.8305H192.384V24.7962H192.401V24.7791H192.418V24.7449H192.435V24.7277H192.452V24.6935H192.469V24.6764H192.486V24.6421H192.503V24.625H192.521V24.5907H192.538V24.5736H192.555V24.5394H192.572V24.5222H192.589V24.488H192.606V24.4709H192.623V24.4366H192.64V24.4195H192.658V24.3853H192.675V24.3681H192.692V24.3339H192.709V24.3168H192.726V24.2825H192.743V24.2654H192.76V24.2483H192.777V24.214H192.795V24.1969H192.812V24.1798H192.829V24.1455H192.846V24.1284H192.863V24.0941H192.88V24.077H192.897V24.0599H192.914V24.0256H192.932V24.0085H192.949V23.9743H192.966V23.9571H192.983V23.94H193V23.9058H193.017V23.8886H193.034V23.8544H193.051V23.8373H193.069V23.8201H193.086V23.7859H193.103V23.7688H193.12V23.7516H193.137V23.7174H193.154V23.7003H193.171V23.6831H193.188V23.6489H193.206V23.6318H193.223V23.6146H193.24V23.5804H193.257V23.5633H193.274V23.5462H193.291V23.529H193.308V23.4948H193.325V23.4777H193.343V23.4605H193.36V23.4263H193.377V23.4092H193.394V23.392H193.411V23.3749H193.428V23.3407H193.445V23.3235H193.462V23.3064H193.48V23.2722H193.497V23.255H193.514V23.2379H193.531V23.2037H193.548V23.1865H193.565V23.1694H193.582V23.1523H193.599V23.118H193.617V23.1009H193.634V23.0838H193.651V23.0667H193.668V23.0495H193.685V23.0153H193.702V22.9982H193.719V22.981H193.736V22.9639H193.754V22.9468H193.771V22.9125H193.788V22.8954H193.805V22.8783H193.822V22.8612H193.839V22.844H193.856V22.8098H193.873V22.7927H193.891V22.7755H193.908V22.7584H193.925V22.7413H193.942V22.7071H193.959V22.6899H193.976V22.6728H193.993V22.6557H194.01V22.6386H194.028V22.6043H194.045V22.5872H194.062V22.5701H194.079V22.5529H194.096V22.5358H194.113V22.5187H194.13V22.5016H194.147V22.4673H194.164V22.4502H194.182V22.4331H194.199V22.4159H194.216V22.3988H194.233V22.3817H194.25V22.3646H194.267V22.3474H194.284V22.3132H194.301V22.2961H194.319V22.2789H194.336V22.2618H194.353V22.2447H194.37V22.2276H194.387V22.2104H194.404V22.1933H194.421V22.1591H194.438V22.1419H194.456V22.1248H194.473V22.1077H194.49V22.0906H194.507V22.0734H194.524V22.0563H194.541V22.0392H194.558V22.0221H194.575V22.0049H194.593V21.9707H194.61V21.9536H194.627V21.9365H194.644V21.9193H194.661V21.9022H194.678V21.8851H194.695V21.868H194.712V21.8508H194.73V21.8337H194.747V21.8166H194.764V21.7995H194.781V21.7823H194.798V21.7652H194.815V21.7481H194.832V21.731H194.849V21.7138H194.867V21.6967H194.884V21.6796H194.901V21.6625H194.918V21.6453H194.935V21.6111H194.952V21.594H194.969V21.5768H194.986V21.5597H195.004V21.5426H195.021V21.5255H195.038V21.5083H195.055V21.4912H195.072V21.4741H195.089V21.457H195.106V21.4398H195.123V21.4227H195.141V21.4056H195.158V21.3885H195.175V21.3713H195.192V21.3542H195.209V21.3371H195.226V21.32H195.243V21.3028H195.26V21.2857H195.278V21.2686H195.312V21.2515H195.329V21.2343H195.346V21.2172H195.363V21.2001H195.38V21.183H195.397V21.1658H195.415V21.1487H195.432V21.1316H195.449V21.1145H195.466V21.0974H195.483V21.0802H195.5V21.0631H195.517V21.046H195.534V21.0289H195.552V21.0117H195.569V20.9946H195.586V20.9775H195.603V20.9604H195.62V20.9432H195.637V20.9261H195.654V20.909H195.671V20.8919H195.706V20.8747H195.723V20.8576H195.74V20.8405H195.757V20.8234H195.774V20.8062H195.791V20.7891H195.808V20.772H195.826V20.7549H195.843V20.7377H195.86V20.7206H195.877V20.7035H195.911V20.6864H195.928V20.6692H195.945V20.6521H195.963V20.635H195.98V20.6179H195.997V20.6007H196.014V20.5836H196.031V20.5665H196.048V20.5494H196.065V20.5322H196.082V20.5151H196.117V20.498H196.134V20.4809H196.151V20.4637H196.168V20.4466H196.185V20.4295H196.202V20.4124H196.237V20.3952H196.254V20.3781H196.271V20.361H196.288V20.3439H196.305V20.3267H196.322V20.3096H196.356V20.2925H196.374V20.2754H196.391V20.2583H196.408V20.2411H196.425V20.224H196.459V20.2069H196.476V20.1898H196.493V20.1726H196.511V20.1555H196.528V20.1384H196.545V20.1213H196.579V20.1041H196.596V20.087H196.613V20.0699H196.63V20.0528H196.648V20.0356H196.665V20.0185H196.699V20.0014H196.716V19.9843H196.733V19.9671H196.75V19.95H196.785V19.9329H196.802V19.9158H196.819V19.8986H196.853V19.8815H196.87V19.8644H196.887V19.8473H196.904V19.8301H196.939V19.813H196.956V19.7959H196.973V19.7788H196.99V19.7616H197.024V19.7445H197.041V19.7274H197.059V19.7103H197.076V19.6931H197.11V19.676H197.127V19.6589H197.144V19.6418H197.161V19.6246H197.196V19.6075H197.213V19.5904H197.23V19.5733H197.264V19.5561H197.281V19.539H197.298V19.5219H197.333V19.5048H197.35V19.4876H197.367V19.4705H197.401V19.4534H197.418V19.4363H197.435V19.4192H197.47V19.402H197.487V19.3849H197.504V19.3678H197.538V19.3507H197.555V19.3335H197.572V19.3164H197.607V19.2993H197.624V19.2822H197.641V19.265H197.675V19.2479H197.692V19.2308H197.726V19.2137H197.744V19.1965H197.761V19.1794H197.795V19.1623H197.812V19.1452H197.829V19.128H197.863V19.1109H197.88V19.0938H197.915V19.0767H197.932V19.0595H197.966V19.0424H197.983V19.0253H198.017V19.0082H198.035V18.991H198.052V18.9739H198.086V18.9568H198.103V18.9397H198.137V18.9225H198.154V18.9054H198.189V18.8883H198.206V18.8712H198.24V18.854H198.257V18.8369H198.274V18.8198H198.309V18.8027H198.326V18.7855H198.36V18.7684H198.377V18.7513H198.411V18.7342H198.428V18.717H198.463V18.6999H198.48V18.6828H198.514V18.6657H198.548V18.6485H198.565V18.6314H198.6V18.6143H198.617V18.5972H198.651V18.5801H198.668V18.5629H198.702V18.5458H198.72V18.5287H198.754V18.5116H198.788V18.4944H198.805V18.4773H198.839V18.4602H198.857V18.4431H198.891V18.4259H198.908V18.4088H198.942V18.3917H198.976V18.3746H198.994V18.3574H199.028V18.3403H199.045V18.3232H199.079V18.3061H199.113V18.2889H199.131V18.2718H199.165V18.2547H199.199V18.2376H199.216V18.2204H199.25V18.2033H199.285V18.1862H199.319V18.1691H199.336V18.1519H199.37V18.1348H199.405V18.1177H199.422V18.1006H199.456V18.0834H199.49V18.0663H199.507V18.0492H199.542V18.0321H199.576V18.0149H199.593V17.9978H199.627V17.9807H199.661V17.9636H199.696V17.9464H199.713V17.9293H199.747V17.9122H199.781V17.8951H199.816V17.8779H199.85V17.8608H199.884V17.8437H199.901V17.8266H199.935V17.8094H199.97V17.7923H200.004V17.7752H200.038V17.7581H200.072V17.741H200.09V17.7238H200.124V17.7067H200.158V17.6896H200.192V17.6725H200.227V17.6553H200.261V17.6382H200.278V17.6211H200.312V17.604H200.346V17.5868H200.381V17.5697H200.415V17.5526H200.449V17.5355H200.483V17.5183H200.518V17.5012H200.552V17.4841H200.586V17.467H200.62V17.4498H200.655V17.4327H200.689V17.4156H200.723V17.3985H200.757V17.3813H200.792V17.3642H200.826V17.3471H200.86V17.33H200.894V17.3128H200.929V17.2957H200.963V17.2786H200.997V17.2615H201.049V17.2443H201.083V17.2272H201.117V17.2101H201.151V17.193H201.186V17.1758H201.22V17.1587H201.271V17.1416H201.305V17.1245H201.34V17.1073H201.374V17.0902H201.408V17.0731H201.442V17.056H201.494V17.0388H201.528V17.0217H201.562V17.0046H201.596V16.9875H201.648V16.9703H201.682V16.9532H201.716V16.9361H201.768V16.919H201.802V16.9019H201.836V16.8847H201.888V16.8676H201.922V16.8505H201.973V16.8334H202.007V16.8162H202.042V16.7991H202.093V16.782H202.127V16.7649H202.179V16.7477H202.213V16.7306H202.247V16.7135H202.299V16.6964H202.333V16.6792H202.384V16.6621H202.436V16.645H202.47V16.6279H202.521V16.6107H202.573V16.5936H202.607V16.5765H202.658V16.5594H202.692V16.5422H202.744V16.5251H202.795V16.508H202.829V16.4909H202.881V16.4737H202.932V16.4566H202.966V16.4395H203.018V16.4224H203.069V16.4052H203.121V16.3881H203.172V16.371H203.223V16.3539H203.275V16.3367H203.326V16.3196H203.377V16.3025H203.429V16.2854H203.48V16.2682H203.532V16.2511H203.583V16.234H203.617V16.2169H203.686V16.1997H203.737V16.1826H203.788V16.1655H203.84V16.1484H203.908V16.1312H203.96V16.1141H204.011V16.097H204.08V16.0799H204.131V16.0628H204.182V16.0456H204.251V16.0285H204.302V16.0114H204.354V15.9943H204.422V15.9771H204.491V15.96H204.559V15.9429H204.61V15.9258H204.679V15.9086H204.747V15.8915H204.816V15.8744H204.867V15.8573H204.936V15.8401H205.004V15.823H205.073V15.8059H205.141V15.7888H205.21V15.7716H205.295V15.7545H205.364V15.7374H205.432V15.7203H205.518V15.7031H205.586V15.686H205.672V15.6689H205.741V15.6518H205.826V15.6346H205.912V15.6175H205.997V15.6004H206.083V15.5833H206.169V15.5661H206.271V15.549H206.357V15.5319H206.443V15.5148H206.528V15.4976H206.648V15.4805H206.751V15.4634H206.854V15.4463H206.974V15.4291H207.076V15.412H207.179V15.3949H207.316V15.3778H207.453V15.3606H207.59V15.3435H207.727V15.3264H207.864V15.3093H208.018V15.2921H208.224V15.275H208.412V15.2579H208.618V15.2408H208.857V15.2237H209.183V15.2065H209.525V15.1894H210.929V15.2065H211.357V15.2237H211.614V15.2408H211.871V15.2579H212.111V15.275H212.299V15.2921H212.453V15.3093H212.608V15.3264H212.762V15.3435H212.916V15.3606H213.07V15.3778H213.207V15.3949H213.327V15.412H213.429V15.4291H213.549V15.4463H213.669V15.4634H213.772V15.4805H213.892V15.4976H213.977V15.5148H214.08V15.5319H214.166V15.549H214.234V15.5661H214.286V15.5833H214.32V15.6004H214.354V15.6175H214.388V15.6346H214.423V15.6518H214.457V15.6689H214.474V15.686H214.508V15.7031H214.525V15.7203H214.543V15.7374H214.56V15.7545H214.594V15.7716H214.611V15.7888H214.628V15.8059H214.645V15.8401H214.662V15.8573H214.68V15.8744H214.697V15.8915H214.714V15.9086H214.731V15.9429H214.748V15.9771H214.765V15.9943H214.782V16.0285H214.799V16.0628H214.817V16.1141H214.834V16.1655H214.851V16.2169H214.868V16.3025H214.885V16.645H214.868V16.7135H214.851V16.7649H214.834V16.8162H214.817V16.8505H214.799V16.8847H214.782V16.919H214.765V16.9532H214.748V16.9703H214.731V17.0046H214.714V17.0217H214.697V17.0388H214.68V17.0731H214.662V17.0902H214.645V17.1073H214.628V17.1245H214.611V17.1416H214.594V17.1587H214.577V17.1758H214.56V17.193H214.525V17.2101H214.508V17.2272H214.474V17.2443H214.457V17.2615H214.423V17.2786H214.388V17.2957H214.354V17.3128H214.32V17.33H214.286V17.3471H214.217V17.3642H214.166V17.3813H214.063V17.3985H213.84V17.3813H213.721V17.3642H213.635V17.3471H213.532V17.33H213.429V17.3128H213.31V17.2957H213.19V17.2786H213.087V17.2615H212.967V17.2443H212.847V17.2272H212.693V17.2101H212.539V17.193H212.385V17.1758H212.231V17.1587H212.077V17.1416H211.854V17.1245H211.597V17.1073H211.357V17.0902H211.032V17.0731H209.491V17.0902H209.148V17.1073H208.857V17.1245H208.652V17.1416H208.463V17.1587H208.258V17.1758H208.104V17.193H207.967V17.2101H207.83V17.2272H207.676V17.2443H207.539V17.2615H207.436V17.2786H207.316V17.2957H207.213V17.3128H207.111V17.33H206.991V17.3471H206.888V17.3642H206.785V17.3813H206.7V17.3985H206.614V17.4156H206.528V17.4327H206.443V17.4498H206.34V17.467H206.254V17.4841H206.169V17.5012H206.1V17.5183H206.032V17.5355H205.946V17.5526H205.878V17.5697H205.792V17.5868H205.723V17.604H205.655V17.6211H205.569V17.6382H205.501V17.6553H205.449V17.6725H205.381V17.6896H205.312V17.7067H205.244V17.7238H205.176V17.741H205.124V17.7581H205.056V17.7752H204.987V17.7923H204.919V17.8094H204.867V17.8266H204.816V17.8437H204.747V17.8608H204.696V17.8779H204.645V17.8951H204.576V17.9122H204.525V17.9293H204.473V17.9464H204.405V17.9636H204.354V17.9807H204.302V17.9978H204.251V18.0149H204.199V18.0321H204.148V18.0492H204.097V18.0663H204.045V18.0834H203.994V18.1006H203.943V18.1177H203.891V18.1348H203.84V18.1519H203.788V18.1691H203.737V18.1862H203.686V18.2033H203.634V18.2204H203.6V18.2376H203.549V18.2547H203.497V18.2718H203.463V18.2889H203.412V18.3061H203.36V18.3232H203.326V18.3403H203.275V18.3574H203.223V18.3746H203.189V18.3917H203.138V18.4088H203.103V18.4259H203.052V18.4431H203.001V18.4602H202.966V18.4773H202.915V18.4944H202.881V18.5116H202.847V18.5287H202.795V18.5458H202.761V18.5629H202.727V18.5801H202.675V18.5972H202.641V18.6143H202.59V18.6314H202.555V18.6485H202.521V18.6657H202.47V18.6828H202.436V18.6999H202.384V18.717H202.35V18.7342H202.316V18.7513H202.281V18.7684H202.247V18.7855H202.196V18.8027H202.162V18.8198H202.127V18.8369H202.093V18.854H202.059V18.8712H202.025V18.8883H201.973V18.9054H201.939V18.9225H201.905V18.9397H201.87V18.9568H201.836V18.9739H201.802V18.991H201.751V19.0082H201.733V19.0253H201.699V19.0424H201.665V19.0595H201.631V19.0767H201.596V19.0938H201.562V19.1109H201.528V19.128H201.494V19.1452H201.46V19.1623H201.425V19.1794H201.391V19.1965H201.357V19.2137H201.323V19.2308H201.288V19.2479H201.254V19.265H201.22V19.2822H201.186V19.2993H201.151V19.3164H201.117V19.3335H201.083V19.3507H201.049V19.3678H201.031V19.3849H200.997V19.402H200.963V19.4192H200.929V19.4363H200.894V19.4534H200.86V19.4705H200.843V19.4876H200.809V19.5048H200.775V19.5219H200.74V19.539H200.706V19.5561H200.672V19.5733H200.655V19.5904H200.62V19.6075H200.586V19.6246H200.552V19.6418H200.535V19.6589H200.501V19.676H200.466V19.6931H200.449V19.7103H200.415V19.7274H200.381V19.7445H200.346V19.7616H200.329V19.7788H200.295V19.7959H200.261V19.813H200.244V19.8301H200.209V19.8473H200.175V19.8644H200.158V19.8815H200.124V19.8986H200.09V19.9158H200.072V19.9329H200.038V19.95H200.004V19.9671H199.987V19.9843H199.953V20.0014H199.935V20.0185H199.901V20.0356H199.867V20.0528H199.85V20.0699H199.816V20.087H199.798V20.1041H199.764V20.1213H199.747V20.1384H199.713V20.1555H199.679V20.1726H199.661V20.1898H199.627V20.2069H199.61V20.224H199.576V20.2411H199.559V20.2583H199.524V20.2754H199.507V20.2925H199.473V20.3096H199.439V20.3267H199.422V20.3439H199.405V20.361H199.37V20.3781H199.353V20.3952H199.319V20.4124H199.302V20.4295H199.268V20.4466H199.25V20.4637H199.216V20.4809H199.199V20.498H199.182V20.5151H199.148V20.5322H199.131V20.5494H199.096V20.5665H199.079V20.5836H199.045V20.6007H199.028V20.6179H198.994V20.635H198.976V20.6521H198.942V20.6692H198.925V20.6864H198.908V20.7035H198.874V20.7206H198.857V20.7377H198.839V20.7549H198.805V20.772H198.788V20.7891H198.771V20.8062H198.737V20.8234H198.72V20.8405H198.685V20.8576H198.668V20.8747H198.651V20.8919H198.617V20.909H198.6V20.9261H198.583V20.9432H198.548V20.9604H198.531V20.9775H198.514V20.9946H198.48V21.0117H198.463V21.0289H198.446V21.046H198.411V21.0631H198.394V21.0802H198.377V21.0974H198.343V21.1145H198.326V21.1316H198.309V21.1487H198.291V21.1658H198.257V21.183H198.24V21.2001H198.223V21.2172H198.206V21.2343H198.172V21.2515H198.154V21.2686H198.137V21.2857H198.12V21.3028H198.086V21.32H198.069V21.3371H198.052V21.3542H198.017V21.3713H198V21.3885H197.983V21.4056H197.966V21.4227H197.932V21.4398H197.915V21.457H197.898V21.4741H197.88V21.4912H197.846V21.5083H197.829V21.5255H197.812V21.5426H197.795V21.5597H197.778V21.5768H197.761V21.594H197.726V21.6111H197.709V21.6282H197.692V21.6453H197.675V21.6625H197.658V21.6796H197.641V21.6967H197.607V21.7138H197.589V21.731H197.572V21.7481H197.555V21.7652H197.538V21.7823H197.521V21.7995H197.487V21.8166H197.47V21.8337H197.452V21.8508H197.435V21.868H197.418V21.8851H197.384V21.9022H197.367V21.9193H197.35V21.9365H197.333V21.9536H197.315V21.9707H197.298V21.9878H197.281V22.0049H197.264V22.0221H197.247V22.0392H197.213V22.0563H197.196V22.0734H197.178V22.0906H197.161V22.1077H197.144V22.1248H197.127V22.1419H197.11V22.1591H197.093V22.1762H197.076V22.1933H197.059V22.2104H197.041V22.2276H197.007V22.2447H196.99V22.2618H196.973V22.2789H196.956V22.2961H196.939V22.3132H196.922V22.3303H196.904V22.3474H196.887V22.3646H196.87V22.3817H196.853V22.3988H196.836V22.4159H196.819V22.4331H196.802V22.4502H196.785V22.4673H196.767V22.4844H196.75V22.5016H196.733V22.5187H196.699V22.5358H196.682V22.5529H196.665V22.5701H196.648V22.5872H196.63V22.6043H196.613V22.6214H196.596V22.6386H196.579V22.6557H196.562V22.6728H196.545V22.6899H196.528V22.7071H196.511V22.7242H196.493V22.7413H196.476V22.7584H196.459V22.7755H196.442V22.7927H196.425V22.8098H196.408V22.8269H196.391V22.844H196.374V22.8612H196.356V22.8783H196.339V22.8954H196.322V22.9125H196.305V22.9297H196.288V22.9468H196.271V22.9639H196.254V22.981H196.237V23.0153H196.219V23.0324H196.202V23.0495H196.185V23.0667H196.168V23.0838H196.151V23.1009H196.134V23.118H196.117V23.1352H196.1V23.1523H196.082V23.1694H196.065V23.1865H196.048V23.2037H196.031V23.2208H196.014V23.2379H195.997V23.255H195.98V23.2722H195.963V23.2893H195.945V23.3064H195.928V23.3235H195.911V23.3578H195.894V23.3749H195.877V23.392H195.86V23.4092H195.843V23.4263H195.826V23.4434H195.808V23.4605H195.791V23.4777H195.774V23.5119H195.757V23.529H195.74V23.5462H195.723V23.5633H195.706V23.5804H195.689V23.5975H195.671V23.6146H195.654V23.6318H195.637V23.666H195.62V23.6831H195.603V23.7003H195.586V23.7174H195.569V23.7345H195.552V23.7516H195.534V23.7688H195.517V23.7859H195.5V23.8201H195.483V23.8373H195.466V23.8544H195.449V23.8715H195.432V23.8886H195.415V23.9058H195.397V23.94H195.38V23.9571H195.363V23.9743H195.346V23.9914H195.329V24.0085H195.312V24.0428H195.295V24.0599H195.278V24.077H195.26V24.0941H195.243V24.1284H195.226V24.1455H195.209V24.1626H195.192V24.1798H195.175V24.1969H195.158V24.2311H195.141V24.2483H195.123V24.2654H195.106V24.2825H195.089V24.2996H195.072V24.3339H195.055V24.351H195.038V24.3681H195.021V24.3853H195.004V24.4195H194.986V24.4366H194.969V24.4537H194.952V24.488H194.935V24.5051H194.918V24.5222H194.901V24.5394H194.884V24.5736H194.867V24.5907H194.849V24.6079H194.832V24.6421H194.815V24.6592H194.798V24.6764H194.781V24.6935H194.764V24.7277H194.747V24.7449H194.73V24.762H194.712V24.7962H194.695V24.8134H194.678V24.8305H194.661V24.8647H194.644V24.8819H194.627V24.899H194.61V24.9332H194.593V24.9504H194.575V24.9675H194.558V25.0017H194.541V25.0189H194.524V25.0531H194.507V25.0702H194.49V25.0874H194.473V25.1216H194.456V25.1387H194.438V25.1559H194.421V25.1901H194.404V25.2072H194.387V25.2415H194.37V25.2586H194.353V25.2757H194.336V25.31H194.319V25.3271H194.301V25.3613H194.284V25.3785H194.267V25.3956H194.25V25.4298H194.233V25.447H194.216V25.4812H194.199V25.4983H194.182V25.5326H194.164V25.5497H194.147V25.584H194.13V25.6011H194.113V25.6353H194.096V25.6525H194.079V25.6867H194.062V25.7038H194.045V25.7381H194.028V25.7552H194.01V25.7895H193.993V25.8066H193.976V25.8408H193.959V25.858H193.942V25.8922H193.925V25.9093H193.908V25.9436H193.891V25.9607H193.873V25.995H193.856V26.0121H193.839V26.0463H193.822V26.0635H193.805V26.0977H193.788V26.1319H193.771V26.1491H193.754V26.1833H193.736V26.2004H193.719V26.2347H193.702V26.2689H193.685V26.2861H193.668V26.3203H193.651V26.3546H193.634V26.3717H193.617V26.4059H193.599V26.4231H193.582V26.4573H193.565V26.4916H193.548V26.5087H193.531V26.5429H193.514V26.5601H193.497V26.5943H193.48V26.6286H193.462V26.6628H193.445V26.6799H193.428V26.7142H193.411V26.7484H193.394V26.7827H193.377V26.7998H193.36V26.8341H193.343V26.8683H193.325V26.9026H193.308V26.9197H193.291V26.9539H193.274V26.9882H193.257V27.0224H193.24V27.0395H193.223V27.0738H193.206V27.108H193.188V27.1423H193.171V27.1594H193.154V27.1937H193.137V27.2279H193.12V27.2622H193.103V27.2964H193.086V27.3307H193.069V27.3478H193.051V27.382H193.034V27.4163H193.017V27.4505H193V27.4848H192.983V27.519H192.966V27.5533H192.949V27.5875H192.932V27.6047H192.914V27.6389H192.897V27.6732H192.88V27.7074H192.863V27.7417H192.846V27.7759H192.829V27.8101H192.812V27.8444H192.795V27.8786H192.777V27.8958H192.76V27.9129H192.743V27.9471H192.726V27.9643H192.709V27.9814H192.692V28.0156H192.675V28.0328H192.658V28.0499H192.623V28.067H192.606V28.0841H192.589V28.1013H192.572V28.1184H192.538V28.1355H192.521V28.1526H192.503V28.1698H192.486V28.1869H192.452V28.204H192.401V28.2211H192.366V28.2383H192.332V28.2554H192.281V28.2725H192.247V28.2896H192.161V28.3068H192.075V28.3239" fill="url(#paint2_linear)"/>
<path d="M210.745 55.8292C200.383 55.8292 191.983 47.4297 191.983 37.0693C191.983 26.7073 200.383 18.3095 210.745 18.3095C221.105 18.3095 229.505 26.7073 229.505 37.0693C229.505 47.4297 221.105 55.8292 210.745 55.8292Z" fill="white"/>
<path d="M210.745 55.8292C200.383 55.8292 191.983 47.4297 191.983 37.0693C191.983 26.7073 200.383 18.3095 210.745 18.3095C221.105 18.3095 229.505 26.7073 229.505 37.0693C229.505 47.4297 221.105 55.8292 210.745 55.8292Z" fill="#5555CE" fill-opacity="0.08"/>
<path d="M208.904 51.0155V48.976C206.775 48.8904 204.671 48.3869 203.176 47.7328C202.643 47.4999 202.371 46.9005 202.523 46.3388L203.042 44.438C203.232 43.7394 203.991 43.3797 204.659 43.6589C206.14 44.2805 207.972 44.772 209.945 44.772C211.995 44.772 213.524 44.0767 213.524 42.6537C213.524 41.3676 212.343 40.6039 209.495 39.8401C205.429 38.7287 202.513 36.9563 202.513 33.379C202.513 30.1493 204.875 27.6817 208.973 27.0224V24.9812C208.973 24.3236 209.505 23.7928 210.163 23.7928H211.361C212.019 23.7928 212.552 24.3236 212.552 24.9812V26.8135C214.519 26.8923 215.953 27.2296 217.091 27.6286C217.674 27.8341 217.992 28.4609 217.829 29.0568L217.353 30.8155C217.168 31.4936 216.444 31.8652 215.788 31.6169C214.74 31.2214 213.261 30.8086 211.336 30.8086C208.904 30.8086 208.209 31.8156 208.209 32.718C208.209 33.8311 209.668 34.5949 212.829 35.5675C217.345 36.9221 219.22 38.7972 219.22 42.1673C219.22 45.2583 216.929 48.0376 212.481 48.7329V51.0155C212.481 51.6731 211.949 52.2057 211.293 52.2057H210.092C209.437 52.2057 208.904 51.6731 208.904 51.0155Z" fill="#FF7542"/>
<path d="M189.051 179.78C183.277 179.78 178.002 177.646 173.971 174.123C171.144 171.652 168.93 168.5 167.584 164.921C166.64 162.41 166.123 159.693 166.123 156.852C166.123 144.188 176.389 133.924 189.051 133.924C201.715 133.924 211.979 144.188 211.979 156.852C211.979 160.112 211.299 163.213 210.073 166.02C208.54 169.527 206.158 172.575 203.186 174.908C199.29 177.959 194.384 179.78 189.051 179.78ZM189.051 134.686C176.809 134.686 166.885 144.609 166.885 156.852C166.885 169.094 176.809 179.018 189.051 179.018C201.293 179.018 211.217 169.094 211.217 156.852C211.217 144.609 201.293 134.686 189.051 134.686Z" fill="url(#paint3_linear)"/>
<path d="M189.052 179.018C176.809 179.018 166.886 169.094 166.886 156.852C166.886 144.61 176.809 134.686 189.052 134.686C201.294 134.686 211.218 144.61 211.218 156.852C211.218 169.094 201.294 179.018 189.052 179.018ZM189.535 138.575C179.174 138.575 170.775 146.974 170.775 157.335C170.775 167.697 179.174 176.095 189.535 176.095C199.897 176.095 208.296 167.697 208.296 157.335C208.296 146.974 199.897 138.575 189.535 138.575ZM189.052 135.46C180.928 135.46 173.607 139.967 169.944 147.224C169.711 147.683 169.896 148.243 170.355 148.475C170.489 148.543 170.633 148.576 170.773 148.576C171.114 148.576 171.443 148.389 171.605 148.064C174.95 141.438 181.635 137.321 189.052 137.321C190.237 137.321 191.423 137.428 192.576 137.638C192.632 137.648 192.689 137.654 192.744 137.654C193.184 137.654 193.578 137.338 193.66 136.89C193.752 136.383 193.417 135.898 192.91 135.806C191.646 135.576 190.348 135.46 189.052 135.46Z" fill="#FF7542"/>
<path d="M170.773 148.575C170.633 148.575 170.489 148.543 170.355 148.474C169.897 148.243 169.712 147.683 169.944 147.224C173.607 139.967 180.928 135.46 189.052 135.46C190.348 135.46 191.646 135.576 192.91 135.806C193.417 135.898 193.753 136.383 193.66 136.89C193.578 137.338 193.184 137.653 192.744 137.653C192.689 137.653 192.633 137.648 192.576 137.638C191.424 137.427 190.237 137.321 189.052 137.321C181.635 137.321 174.95 141.438 171.606 148.063C171.443 148.389 171.114 148.575 170.773 148.575Z" fill="url(#paint4_linear)"/>
<path d="M189.533 176.094C179.173 176.094 170.773 167.697 170.773 157.335C170.773 146.974 179.173 138.575 189.533 138.575C199.895 138.575 208.295 146.974 208.295 157.335C208.295 167.697 199.895 176.094 189.533 176.094Z" fill="white"/>
<path d="M189.533 176.094C179.173 176.094 170.773 167.697 170.773 157.335C170.773 146.974 179.173 138.575 189.533 138.575C199.895 138.575 208.295 146.974 208.295 157.335C208.295 167.697 199.895 176.094 189.533 176.094Z" fill="#5555CE" fill-opacity="0.08"/>
<path d="M187.694 171.281V169.241C185.567 169.156 183.463 168.654 181.968 167.998C181.433 167.765 181.161 167.166 181.315 166.604L181.832 164.703C182.024 164.005 182.781 163.645 183.449 163.924C184.932 164.546 186.763 165.037 188.737 165.037C190.785 165.037 192.314 164.342 192.314 162.919C192.314 161.633 191.133 160.869 188.285 160.105C184.221 158.994 181.303 157.222 181.303 153.644C181.303 150.413 183.665 147.947 187.764 147.288V145.246C187.764 144.591 188.297 144.058 188.953 144.058H190.152C190.809 144.058 191.342 144.591 191.342 145.246V147.079C193.311 147.158 194.744 147.495 195.881 147.894C196.464 148.099 196.782 148.726 196.621 149.322L196.143 151.081C195.96 151.759 195.236 152.13 194.578 151.882C193.53 151.487 192.051 151.074 190.126 151.074C187.694 151.074 186.999 152.081 186.999 152.985C186.999 154.096 188.458 154.86 191.619 155.833C196.135 157.187 198.01 159.062 198.01 162.433C198.01 165.524 195.719 168.303 191.271 168.998V171.281C191.271 171.938 190.739 172.471 190.083 172.471H188.884C188.227 172.471 187.694 171.938 187.694 171.281Z" fill="#FF7542"/>
<path d="M154.422 126.901C134.638 126.901 118.601 110.862 118.601 91.08C118.601 71.2961 134.638 55.2591 154.422 55.2591C174.204 55.2591 190.243 71.2961 190.243 91.08C190.243 110.862 174.204 126.901 154.422 126.901ZM154.422 56.4509C135.295 56.4509 119.792 71.9537 119.792 91.08C119.792 110.205 135.295 125.709 154.422 125.709C173.546 125.709 189.051 110.205 189.051 91.08C189.051 71.9537 173.546 56.4509 154.422 56.4509Z" fill="url(#paint5_linear)"/>
<path d="M154.422 125.709C135.296 125.709 119.793 110.205 119.793 91.0801C119.793 71.9537 135.296 56.451 154.422 56.451C173.547 56.451 189.051 71.9537 189.051 91.0801C189.051 110.205 173.547 125.709 154.422 125.709ZM155.177 62.525C138.989 62.525 125.867 75.6475 125.867 91.8335C125.867 108.021 138.989 121.144 155.177 121.144C171.363 121.144 184.486 108.021 184.486 91.8335C184.486 75.6475 171.363 62.525 155.177 62.525ZM154.422 58.2764C141.966 58.2764 130.737 65.1896 125.12 76.3188C124.913 76.7298 125.078 77.2332 125.49 77.4404C125.612 77.5021 125.74 77.5295 125.867 77.5295C126.172 77.5295 126.466 77.3634 126.614 77.0705C131.944 66.5099 142.599 59.9478 154.422 59.9478C156.309 59.9478 158.2 60.119 160.039 60.4547C160.09 60.4632 160.14 60.4684 160.19 60.4684C160.585 60.4684 160.936 60.1858 161.012 59.7817C161.094 59.3279 160.792 58.8929 160.339 58.809C158.4 58.4562 156.41 58.2764 154.422 58.2764Z" fill="#FF7542"/>
<path d="M125.867 77.5294C125.741 77.5294 125.612 77.502 125.491 77.4403C125.078 77.2331 124.914 76.7297 125.121 76.3187C130.738 65.1895 141.966 58.2763 154.423 58.2763C156.411 58.2763 158.401 58.4561 160.339 58.8089C160.793 58.8928 161.094 59.3278 161.012 59.7815C160.937 60.1857 160.586 60.4682 160.19 60.4682C160.14 60.4682 160.091 60.4631 160.039 60.4546C158.2 60.1189 156.31 59.9476 154.423 59.9476C142.6 59.9476 131.945 66.5098 126.614 77.0704C126.467 77.3633 126.172 77.5294 125.867 77.5294Z" fill="url(#paint6_linear)"/>
<path d="M155.176 121.144C138.989 121.144 125.866 108.021 125.866 91.8334C125.866 75.6473 138.989 62.5248 155.176 62.5248C171.362 62.5248 184.485 75.6473 184.485 91.8334C184.485 108.021 171.362 121.144 155.176 121.144Z" fill="white"/>
<path d="M155.176 121.144C138.989 121.144 125.866 108.021 125.866 91.8334C125.866 75.6473 138.989 62.5248 155.176 62.5248C171.362 62.5248 184.485 75.6473 184.485 91.8334C184.485 108.021 171.362 121.144 155.176 121.144Z" fill="#5555CE" fill-opacity="0.08"/>
<path d="M152.301 113.623V110.434C148.978 110.302 145.69 109.516 143.354 108.496C142.52 108.129 142.095 107.194 142.335 106.316L143.145 103.346C143.441 102.255 144.626 101.692 145.669 102.129C147.984 103.1 150.846 103.869 153.93 103.869C157.131 103.869 159.519 102.783 159.519 100.558C159.519 98.5497 157.673 97.3561 153.224 96.1625C146.875 94.4261 142.316 91.6588 142.316 86.0693C142.316 81.021 146.006 77.168 152.409 76.1371V72.9486C152.409 71.9228 153.242 71.0906 154.267 71.0906H156.141C157.168 71.0906 157.999 71.9228 157.999 72.9486V75.8118C161.076 75.9351 163.314 76.4608 165.092 77.0858C166.001 77.4061 166.499 78.3856 166.246 79.3172L165.501 82.0639C165.215 83.1239 164.083 83.7045 163.056 83.3158C161.42 82.6976 159.107 82.0537 156.1 82.0537C152.301 82.0537 151.216 83.6257 151.216 85.0385C151.216 86.7749 153.495 87.9684 158.434 89.4874C165.489 91.604 168.419 94.534 168.419 99.7981C168.419 104.627 164.837 108.97 157.891 110.056V113.623C157.891 114.65 157.059 115.481 156.033 115.481H154.159C153.134 115.481 152.301 114.65 152.301 113.623Z" fill="#FF7542"/>
<path d="M231.195 134.773C216.196 134.773 204.037 122.615 204.037 107.615C204.037 92.616 216.196 80.4577 231.195 80.4577C246.194 80.4577 258.353 92.616 258.353 107.615C258.353 122.615 246.194 134.773 231.195 134.773ZM231.195 81.3601C216.694 81.3601 204.94 93.1161 204.94 107.615C204.94 122.116 216.694 133.871 231.195 133.871C245.696 133.871 257.45 122.116 257.45 107.615C257.45 93.1161 245.696 81.3601 231.195 81.3601Z" fill="url(#paint7_linear)"/>
<path d="M231.194 133.871C216.693 133.871 204.938 122.116 204.938 107.615C204.938 93.116 216.693 81.36 231.194 81.36C245.695 81.36 257.449 93.116 257.449 107.615C257.449 122.116 245.695 133.871 231.194 133.871ZM231.766 85.9665C219.493 85.9665 209.545 95.9142 209.545 108.187C209.545 120.46 219.493 130.41 231.766 130.41C244.039 130.41 253.988 120.46 253.988 108.187C253.988 95.9142 244.039 85.9665 231.766 85.9665ZM231.194 82.5382C221.671 82.5382 213.088 87.8229 208.795 96.3303C208.586 96.7447 208.752 97.2499 209.167 97.4588C209.286 97.5204 209.417 97.5496 209.543 97.5496C209.851 97.5496 210.146 97.38 210.295 97.0872C214.302 89.15 222.31 84.2198 231.194 84.2198C232.612 84.2198 234.033 84.3466 235.415 84.5983C235.466 84.6086 235.516 84.612 235.566 84.612C235.963 84.612 236.319 84.3295 236.393 83.9236C236.477 83.4664 236.173 83.0297 235.716 82.9458C234.235 82.6752 232.713 82.5382 231.194 82.5382Z" fill="#FF7542"/>
<path d="M209.545 97.5496C209.418 97.5496 209.288 97.5205 209.168 97.4588C208.753 97.2499 208.587 96.7448 208.796 96.3303C213.089 87.8229 221.672 82.5382 231.195 82.5382C232.714 82.5382 234.236 82.6752 235.718 82.9458C236.175 83.0297 236.478 83.4664 236.394 83.9236C236.321 84.3294 235.964 84.612 235.567 84.612C235.517 84.612 235.468 84.6086 235.416 84.5983C234.034 84.3465 232.613 84.2198 231.195 84.2198C222.311 84.2198 214.304 89.15 210.296 97.0872C210.147 97.3801 209.853 97.5496 209.545 97.5496Z" fill="url(#paint8_linear)"/>
<path d="M231.767 130.41C219.494 130.41 209.546 120.461 209.546 108.187C209.546 95.9143 219.494 85.9667 231.767 85.9667C244.04 85.9667 253.989 95.9143 253.989 108.187C253.989 120.461 244.04 130.41 231.767 130.41Z" fill="white"/>
<path d="M231.767 130.41C219.494 130.41 209.546 120.461 209.546 108.187C209.546 95.9143 219.494 85.9667 231.767 85.9667C244.04 85.9667 253.989 95.9143 253.989 108.187C253.989 120.461 244.04 130.41 231.767 130.41Z" fill="#5555CE" fill-opacity="0.08"/>
<path d="M229.586 124.707V122.289C227.065 122.188 224.572 121.594 222.801 120.818C222.169 120.543 221.847 119.832 222.029 119.168L222.644 116.916C222.868 116.089 223.767 115.662 224.556 115.993C226.313 116.729 228.481 117.311 230.821 117.311C233.247 117.311 235.057 116.488 235.057 114.801C235.057 113.278 233.658 112.374 230.285 111.468C225.471 110.153 222.015 108.054 222.015 103.815C222.015 99.9899 224.813 97.0684 229.668 96.2876V93.8696C229.668 93.0904 230.298 92.4603 231.076 92.4603H232.497C233.274 92.4603 233.906 93.0904 233.906 93.8696V96.0393C236.237 96.1335 237.936 96.5324 239.282 97.0051C239.972 97.2482 240.35 97.9914 240.159 98.697L239.593 100.781C239.376 101.584 238.518 102.023 237.739 101.73C236.499 101.26 234.745 100.772 232.466 100.772C229.586 100.772 228.762 101.964 228.762 103.035C228.762 104.351 230.49 105.256 234.235 106.408C239.583 108.013 241.806 110.234 241.806 114.225C241.806 117.887 239.09 121.18 233.822 122.002V124.707C233.822 125.485 233.192 126.117 232.415 126.117H230.993C230.216 126.117 229.586 125.485 229.586 124.707Z" fill="#FF7542"/>
<path d="M415.595 413.974H434.93V326.458H415.595V413.974Z" fill="white"/>
<path d="M415.595 413.974H434.93V326.458H415.595V413.974Z" fill="#5555CE" fill-opacity="0.08"/>
<path d="M383.285 413.974H402.62V356.535H383.285V413.974Z" fill="white"/>
<path d="M383.285 413.974H402.62V356.535H383.285V413.974Z" fill="#5555CE" fill-opacity="0.08"/>
<path d="M350.977 413.974H370.314V282.199H350.977V413.974Z" fill="white"/>
<path d="M350.977 413.974H370.314V282.199H350.977V413.974Z" fill="#5555CE" fill-opacity="0.08"/>
<path d="M318.67 413.974H338.005V382.316H318.67V413.974Z" fill="white"/>
<path d="M318.67 413.974H338.005V382.316H318.67V413.974Z" fill="#5555CE" fill-opacity="0.08"/>
<path d="M286.361 413.974H305.697V299.817H286.361V413.974Z" fill="white"/>
<path d="M286.361 413.974H305.697V299.817H286.361V413.974Z" fill="#5555CE" fill-opacity="0.08"/>
<path d="M254.053 413.974H273.39V319.582H254.053V413.974Z" fill="white"/>
<path d="M254.053 413.974H273.39V319.582H254.053V413.974Z" fill="#5555CE" fill-opacity="0.08"/>
<path d="M221.744 413.974H241.079V341.067H221.744V413.974Z" fill="white"/>
<path d="M221.744 413.974H241.079V341.067H221.744V413.974Z" fill="#5555CE" fill-opacity="0.08"/>
<path d="M189.437 413.974H208.772V255.559H189.437V413.974Z" fill="white"/>
<path d="M189.437 413.974H208.772V255.559H189.437V413.974Z" fill="#5555CE" fill-opacity="0.08"/>
<path d="M157.128 413.974H176.463V272.317H157.128V413.974Z" fill="white"/>
<path d="M157.128 413.974H176.463V272.317H157.128V413.974Z" fill="#5555CE" fill-opacity="0.08"/>
<path d="M124.82 413.974H144.156V297.668H124.82V413.974Z" fill="white"/>
<path d="M124.82 413.974H144.156V297.668H124.82V413.974Z" fill="#5555CE" fill-opacity="0.08"/>
<path d="M92.5117 413.974H111.848V385.255H92.5117V413.974Z" fill="white"/>
<path d="M92.5117 413.974H111.848V385.255H92.5117V413.974Z" fill="#5555CE" fill-opacity="0.08"/>
<path d="M60.2021 413.974H79.538V329.465H60.2021V413.974Z" fill="white"/>
<path d="M60.2021 413.974H79.538V329.465H60.2021V413.974Z" fill="#5555CE" fill-opacity="0.08"/>
<path d="M179.192 234.475C179.192 234.475 176.418 227.172 173.178 227.841C169.938 228.511 166.391 230.999 166.391 230.999L161.186 238.041C161.186 238.041 175.8 243.798 180.94 240.498C180.94 240.498 195.868 243.077 214.717 239.984C211.989 234.224 210.362 228.456 209.408 223.978C199.859 229.382 189.576 233.419 179.192 234.475Z" fill="url(#paint9_linear)"/>
<path d="M258.266 181.502C258.266 181.502 236.893 208.42 209.41 223.978C210.364 228.456 211.991 234.223 214.719 239.984C228.977 237.645 245.478 232.061 259.467 219.654L258.266 181.502Z" fill="#FF7542"/>
<path d="M284.919 300.812C280.739 280.96 276.561 269.466 262.565 231.835C258.161 219.993 254.162 208.011 256.095 195.526L258.267 181.502C258.267 181.502 285.464 172.3 315.61 181.115C315.61 181.115 356.741 198.983 328.804 287.227C316.213 301.317 301.474 305.331 284.919 300.812Z" fill="#FF7542"/>
<path d="M262.895 163.606L269.946 180.549C270.392 181.619 271.356 182.381 272.498 182.576C276.563 183.275 286.398 184.362 292.856 180.117C293.626 179.61 293.822 178.564 293.296 177.809L280.266 159.104L262.895 163.606Z" fill="url(#paint10_linear)"/>
<path d="M270.188 137.684C269.891 137.962 257.688 161.927 257.688 161.927L271.52 168.604L286.461 147.61C286.461 147.61 275.147 133.016 270.188 137.684Z" fill="url(#paint11_linear)"/>
<path d="M280.174 150.129L273.277 161.628C273.172 161.802 273.047 161.96 272.898 162.099C272.076 162.864 269.268 165.087 267.095 162.059C265.244 159.48 263.507 157.134 261.646 156.167C260.558 155.602 259.221 156.054 258.67 157.146C257.532 159.4 255.33 163.992 253.948 168.346C253.601 169.438 254.164 170.609 255.226 171.039C258.026 172.175 263.562 174.226 268.473 174.904C269.28 175.016 270.08 174.675 270.559 174.017C272.674 171.121 278.63 163.032 280.663 161.006C282.551 159.124 286.036 159.835 287.608 160.285C288.204 160.456 288.839 160.374 289.37 160.054C290.963 159.095 293.744 156.704 291.201 152.658C290.567 151.651 290.891 150.31 291.884 149.658C293.663 148.486 295.593 146.291 293.754 142.732C291.891 139.131 288.567 138.808 286.302 139.085C285.3 139.207 284.283 138.681 283.897 137.748C283.728 137.333 283.389 136.979 282.76 136.852C281.572 136.61 280.794 135.525 281.027 134.336C281.426 132.299 281.125 129.651 277.871 127.862C271.903 124.581 266.675 129.927 265.346 134.441C264.017 138.955 270.689 142.143 274.886 142.676C277.971 143.066 279.661 146.431 280.341 148.19C280.587 148.829 280.527 149.541 280.174 150.129Z" fill="#2D2D9A"/>
<path d="M277.758 164.45C277.758 164.45 280.727 157.465 284.123 157.749C287.52 158.035 290.194 161.419 285.984 165.222C280.748 169.955 277.758 164.45 277.758 164.45Z" fill="url(#paint12_linear)"/>
<path d="M282.24 475.776C288.809 476.345 300.21 477.266 309.197 477.662C314.6 477.9 317.71 477.371 319.501 476.653C319.497 476.855 319.492 477.047 319.484 477.223C319.443 478.169 318.674 478.926 317.718 478.979C300.736 479.927 287.23 479.308 282.421 479.015C281.428 478.955 280.836 477.874 281.344 477.026C281.598 476.602 281.906 476.187 282.24 475.776Z" fill="#2D2D9A"/>
<path d="M309.198 477.662C300.211 477.266 288.809 476.345 282.24 475.776C288.7 467.853 309.198 462.513 309.198 462.513H314.987C318.969 468.252 319.546 473.716 319.501 476.653C317.71 477.37 314.6 477.9 309.198 477.662Z" fill="#6564C4"/>
<path d="M315.961 453.061L315.419 463.782C315.36 464.943 314.491 465.918 313.329 466.085C312.171 466.25 310.623 466.27 308.979 465.724C307.969 465.388 307.219 464.536 307.032 463.498L305.16 453.061H315.961Z" fill="url(#paint13_linear)"/>
<path d="M391.155 477.581C394.005 477.184 395.292 475.705 395.834 474.122L395.844 474.165C396.263 475.835 395.291 477.562 393.349 478.386C391.001 479.379 388.434 479.549 386.441 479.467C384.304 479.379 382.341 478.494 381.262 477.078L381.247 477.057C383.393 478.119 386.405 478.244 391.155 477.581Z" fill="#2D2D9A"/>
<path d="M377.725 452.992H382.499C389.772 452.843 394.339 468.183 395.833 474.122C395.292 475.704 394.005 477.184 391.155 477.581C386.405 478.244 383.393 478.119 381.247 477.057C377.317 471.887 375.37 464.315 374.433 459.895C373.368 454.869 377.725 452.992 377.725 452.992Z" fill="#6564C4"/>
<path d="M381.886 443.041L384.537 453.586C384.862 454.879 384.244 456.217 383.049 456.83C381.564 457.59 379.477 458.39 377.559 458.159C376.655 458.051 375.906 457.414 375.608 456.564L371.716 445.471L381.886 443.041Z" fill="url(#paint14_linear)"/>
<path d="M385.05 446.089C381.75 449.016 371.021 449.401 371.021 449.401C332.377 356.646 316.264 331.112 316.264 331.112C321.845 366.123 317.466 455.987 317.466 455.987C311.089 458.801 302.868 455.987 302.868 455.987C302.35 398.672 294.28 337.083 283.873 297.677C309.993 297.089 324.188 291.395 328.724 287.808C350.496 322.911 385.05 446.089 385.05 446.089Z" fill="#2D2D9A"/>
<path d="M277.293 323.596L282.1 353.49C282.937 358.703 287.766 362.318 293.032 361.676L364.967 352.901C368.486 352.473 371.154 349.535 371.226 346.007C371.378 338.282 371.075 324.535 367.833 312.011L277.293 323.596Z" fill="#6564C4"/>
<path d="M359.804 313.238C359.705 313.238 359.619 313.164 359.607 313.063C359.594 312.955 359.671 312.856 359.779 312.842L361.352 312.64C361.481 312.625 361.561 312.703 361.575 312.811C361.589 312.921 361.512 313.02 361.404 313.034L359.83 313.236L359.804 313.238ZM365.899 313.431C365.81 313.431 365.729 313.37 365.707 313.279C365.644 313.022 365.579 312.765 365.514 312.508L365.077 312.565C364.967 312.58 364.87 312.5 364.856 312.392C364.841 312.284 364.918 312.185 365.027 312.171L365.81 312.07L365.854 312.239C365.935 312.554 366.015 312.87 366.092 313.185C366.118 313.291 366.053 313.399 365.947 313.424C365.932 313.429 365.914 313.431 365.899 313.431ZM354.556 313.909C354.456 313.909 354.372 313.835 354.359 313.734C354.345 313.626 354.422 313.527 354.53 313.513L356.105 313.311C356.225 313.296 356.314 313.376 356.326 313.484C356.342 313.592 356.265 313.691 356.155 313.705L354.581 313.907L354.556 313.909ZM349.307 314.58C349.209 314.58 349.124 314.507 349.11 314.407C349.096 314.298 349.174 314.198 349.281 314.185L350.857 313.984C350.977 313.969 351.064 314.048 351.078 314.156C351.093 314.263 351.016 314.363 350.907 314.376L349.333 314.579L349.307 314.58ZM344.058 315.252C343.961 315.252 343.875 315.178 343.862 315.079C343.848 314.969 343.925 314.87 344.033 314.856L345.608 314.656C345.73 314.64 345.815 314.719 345.831 314.827C345.845 314.935 345.767 315.034 345.66 315.049L344.084 315.25L344.058 315.252ZM338.81 315.923C338.712 315.923 338.627 315.851 338.615 315.75C338.599 315.642 338.676 315.543 338.786 315.527L340.36 315.327C340.483 315.313 340.568 315.39 340.582 315.498C340.596 315.608 340.519 315.707 340.411 315.721L338.835 315.921L338.81 315.923ZM333.563 316.594C333.464 316.594 333.378 316.522 333.366 316.421C333.351 316.313 333.429 316.214 333.537 316.2L335.111 315.998C335.236 315.984 335.32 316.062 335.334 316.169C335.347 316.279 335.27 316.378 335.162 316.392L333.589 316.594H333.563ZM328.314 317.267C328.215 317.267 328.131 317.193 328.117 317.094C328.104 316.985 328.181 316.885 328.289 316.871L329.864 316.669C329.987 316.654 330.071 316.733 330.085 316.842C330.1 316.95 330.023 317.05 329.914 317.063L328.34 317.265L328.314 317.267ZM323.066 317.938C322.966 317.938 322.882 317.865 322.869 317.765C322.855 317.656 322.932 317.556 323.04 317.543L324.615 317.341C324.734 317.329 324.823 317.404 324.836 317.514C324.852 317.622 324.773 317.721 324.665 317.735L323.091 317.937L323.066 317.938ZM367 318.606C366.906 318.606 366.822 318.539 366.805 318.444C366.711 317.925 366.611 317.406 366.509 316.887C366.488 316.781 366.557 316.676 366.664 316.654C366.774 316.632 366.877 316.704 366.897 316.81C367 317.33 367.101 317.851 367.195 318.373C367.216 318.479 367.144 318.584 367.036 318.603L367 318.606ZM317.817 318.61C317.718 318.61 317.634 318.536 317.62 318.437C317.606 318.329 317.683 318.229 317.791 318.214L319.367 318.012C319.478 317.998 319.576 318.077 319.589 318.185C319.603 318.293 319.526 318.392 319.416 318.406L317.843 318.608L317.817 318.61ZM312.568 319.281C312.471 319.281 312.385 319.207 312.371 319.108C312.358 319 312.435 318.901 312.544 318.885L314.118 318.685C314.238 318.668 314.327 318.748 314.341 318.856C314.354 318.964 314.277 319.063 314.169 319.079L312.594 319.279L312.568 319.281ZM307.321 319.952C307.222 319.952 307.136 319.88 307.124 319.779C307.109 319.671 307.188 319.572 307.296 319.557L308.869 319.356C308.991 319.343 309.078 319.42 309.092 319.527C309.106 319.637 309.029 319.736 308.921 319.75L307.345 319.95L307.321 319.952ZM302.073 320.625C301.973 320.625 301.888 320.552 301.876 320.451C301.86 320.343 301.939 320.243 302.047 320.23L303.621 320.028C303.744 320.012 303.83 320.091 303.843 320.199C303.857 320.308 303.78 320.408 303.672 320.421L302.097 320.623L302.073 320.625ZM296.824 321.296C296.725 321.296 296.641 321.223 296.627 321.123C296.613 321.014 296.69 320.915 296.798 320.901L298.374 320.699C298.497 320.683 298.581 320.764 298.595 320.872C298.61 320.98 298.531 321.079 298.423 321.093L296.85 321.295L296.824 321.296ZM291.575 321.968C291.476 321.968 291.392 321.894 291.378 321.795C291.365 321.685 291.442 321.586 291.55 321.572L293.125 321.37C293.248 321.356 293.332 321.435 293.348 321.543C293.361 321.651 293.284 321.75 293.175 321.764L291.601 321.966L291.575 321.968ZM286.327 322.639C286.229 322.639 286.144 322.565 286.13 322.466C286.116 322.356 286.193 322.259 286.303 322.243L287.877 322.043C288.002 322.028 288.085 322.106 288.099 322.214C288.113 322.322 288.036 322.422 287.928 322.437L286.352 322.637L286.327 322.639ZM281.078 323.31C280.98 323.31 280.895 323.238 280.881 323.137C280.867 323.029 280.945 322.93 281.052 322.915L282.628 322.714C282.755 322.701 282.835 322.778 282.85 322.886C282.864 322.995 282.787 323.095 282.679 323.108L281.104 323.309L281.078 323.31ZM367.812 323.833C367.714 323.833 367.629 323.761 367.615 323.66C367.548 323.139 367.476 322.617 367.399 322.091C367.384 321.983 367.459 321.882 367.567 321.867C367.683 321.85 367.776 321.927 367.793 322.035C367.868 322.56 367.942 323.086 368.009 323.61C368.024 323.718 367.947 323.817 367.839 323.831L367.812 323.833ZM279.751 325.081C279.653 325.081 279.569 325.011 279.554 324.913L279.302 323.346C279.285 323.238 279.359 323.136 279.467 323.118C279.575 323.101 279.676 323.175 279.694 323.283L279.946 324.85C279.963 324.959 279.89 325.06 279.782 325.078L279.751 325.081ZM368.382 329.095C368.281 329.095 368.194 329.016 368.185 328.913C368.139 328.391 368.091 327.865 368.038 327.335C368.028 327.227 368.106 327.129 368.216 327.117C368.339 327.11 368.421 327.187 368.433 327.295C368.485 327.828 368.534 328.355 368.579 328.879C368.589 328.989 368.509 329.085 368.399 329.093L368.382 329.095ZM280.59 330.304C280.494 330.304 280.409 330.235 280.393 330.138L280.141 328.569C280.124 328.461 280.198 328.36 280.306 328.343C280.419 328.324 280.516 328.4 280.534 328.508L280.785 330.074C280.802 330.182 280.729 330.285 280.621 330.302L280.59 330.304ZM368.74 334.374C368.634 334.374 368.546 334.292 368.541 334.186C368.516 333.665 368.487 333.138 368.456 332.602C368.449 332.494 368.531 332.4 368.641 332.393C368.748 332.383 368.844 332.47 368.851 332.58C368.884 333.116 368.913 333.645 368.937 334.167C368.944 334.277 368.858 334.369 368.748 334.374H368.74ZM281.429 335.529C281.333 335.529 281.249 335.458 281.234 335.362L280.982 333.794C280.963 333.686 281.037 333.585 281.145 333.568C281.254 333.546 281.356 333.624 281.373 333.73L281.626 335.299C281.643 335.407 281.57 335.508 281.462 335.525L281.429 335.529ZM368.904 339.664C368.796 339.664 368.707 339.578 368.706 339.469C368.699 338.953 368.689 338.424 368.677 337.883C368.673 337.774 368.76 337.683 368.87 337.681H368.874C368.981 337.681 369.07 337.767 369.072 337.875C369.086 338.417 369.096 338.947 369.103 339.464C369.105 339.573 369.017 339.664 368.908 339.664H368.904ZM282.27 340.753C282.174 340.753 282.09 340.683 282.073 340.585L281.821 339.018C281.804 338.911 281.878 338.808 281.986 338.791C282.097 338.772 282.196 338.847 282.213 338.955L282.465 340.522C282.482 340.63 282.409 340.733 282.301 340.75L282.27 340.753ZM368.887 344.957H368.879C368.769 344.952 368.683 344.86 368.689 344.75L368.69 344.64C368.701 344.17 368.707 343.68 368.713 343.169C368.714 343.06 368.803 342.973 368.911 342.973H368.913C369.022 342.974 369.112 343.063 369.11 343.173C369.105 343.687 369.098 344.176 369.088 344.646C369.088 344.683 369.088 344.724 369.084 344.767C369.081 344.873 368.992 344.957 368.887 344.957ZM283.109 345.976C283.013 345.976 282.928 345.908 282.914 345.81L282.662 344.243C282.643 344.134 282.717 344.033 282.827 344.015C282.94 343.998 283.035 344.072 283.053 344.18L283.304 345.747C283.321 345.855 283.249 345.957 283.14 345.974L283.109 345.976ZM366.733 349.639C366.68 349.639 366.627 349.619 366.587 349.577C366.514 349.497 366.517 349.37 366.599 349.297C366.974 348.947 367.31 348.553 367.596 348.127C367.656 348.035 367.779 348.011 367.87 348.07C367.962 348.132 367.986 348.255 367.925 348.346C367.623 348.8 367.267 349.218 366.868 349.588C366.831 349.622 366.783 349.639 366.733 349.639ZM283.948 351.201C283.852 351.201 283.768 351.131 283.753 351.033L283.501 349.466C283.484 349.358 283.556 349.255 283.666 349.238C283.777 349.221 283.875 349.295 283.893 349.403L284.145 350.97C284.162 351.079 284.089 351.18 283.981 351.197L283.948 351.201ZM361.909 351.526C361.81 351.526 361.724 351.453 361.712 351.351C361.698 351.244 361.777 351.144 361.885 351.131L362.909 351.007C363.089 350.985 363.267 350.956 363.442 350.92C363.553 350.898 363.654 350.966 363.676 351.074C363.699 351.182 363.628 351.286 363.522 351.309C363.335 351.346 363.149 351.377 362.959 351.401L361.933 351.524L361.909 351.526ZM356.657 352.167C356.558 352.167 356.472 352.093 356.46 351.994C356.446 351.884 356.523 351.785 356.633 351.773L358.208 351.579C358.327 351.564 358.416 351.644 358.429 351.752C358.443 351.862 358.364 351.961 358.256 351.973L356.681 352.167H356.657ZM351.405 352.809C351.306 352.809 351.22 352.735 351.208 352.634C351.194 352.525 351.271 352.427 351.381 352.413L352.956 352.221C353.074 352.206 353.164 352.285 353.177 352.393C353.191 352.502 353.112 352.602 353.004 352.614L351.429 352.807L351.405 352.809ZM346.153 353.449C346.053 353.449 345.968 353.376 345.956 353.275C345.942 353.165 346.019 353.067 346.129 353.054L347.704 352.862C347.822 352.846 347.911 352.925 347.925 353.035C347.939 353.143 347.86 353.242 347.752 353.256L346.177 353.448L346.153 353.449ZM340.901 354.09C340.801 354.09 340.716 354.016 340.704 353.915C340.69 353.805 340.767 353.708 340.877 353.694L342.452 353.502C342.57 353.485 342.659 353.566 342.673 353.675C342.687 353.783 342.608 353.882 342.5 353.896L340.925 354.088L340.901 354.09ZM335.649 354.73C335.549 354.73 335.464 354.656 335.452 354.555C335.438 354.446 335.515 354.348 335.623 354.335L337.2 354.143C337.318 354.129 337.407 354.206 337.421 354.316C337.435 354.424 337.356 354.523 337.248 354.537L335.673 354.728L335.649 354.73ZM330.397 355.371C330.297 355.371 330.212 355.297 330.2 355.196C330.186 355.088 330.263 354.989 330.371 354.975L331.948 354.783C332.066 354.768 332.155 354.848 332.169 354.956C332.183 355.064 332.104 355.163 331.996 355.177L330.421 355.369L330.397 355.371ZM325.144 356.011C325.045 356.011 324.96 355.937 324.948 355.836C324.934 355.729 325.011 355.629 325.119 355.615L326.694 355.424C326.814 355.407 326.903 355.489 326.917 355.597C326.929 355.706 326.852 355.804 326.744 355.818L325.168 356.009L325.144 356.011ZM285.822 356.081C285.762 356.081 285.702 356.054 285.662 356.002C285.339 355.571 285.049 355.109 284.803 354.629C284.753 354.532 284.792 354.413 284.89 354.362C284.984 354.312 285.106 354.35 285.155 354.449C285.392 354.908 285.669 355.35 285.979 355.763C286.046 355.85 286.029 355.975 285.941 356.04C285.905 356.068 285.863 356.081 285.822 356.081ZM319.892 356.652C319.793 356.652 319.707 356.578 319.694 356.477C319.682 356.369 319.759 356.27 319.867 356.256L321.442 356.064C321.562 356.05 321.651 356.129 321.665 356.237C321.678 356.347 321.6 356.446 321.492 356.458L319.916 356.65L319.892 356.652ZM314.639 357.292C314.539 357.292 314.455 357.218 314.443 357.117C314.43 357.009 314.507 356.91 314.615 356.898L316.19 356.705C316.31 356.689 316.399 356.77 316.413 356.878C316.425 356.987 316.348 357.086 316.24 357.098L314.664 357.29L314.639 357.292ZM309.387 357.934C309.287 357.934 309.203 357.86 309.19 357.759C309.178 357.65 309.255 357.552 309.363 357.539L310.938 357.345C311.058 357.333 311.147 357.41 311.161 357.518C311.173 357.628 311.096 357.727 310.988 357.739L309.412 357.932L309.387 357.934ZM304.134 358.575C304.035 358.575 303.951 358.501 303.938 358.4C303.926 358.29 304.003 358.193 304.111 358.179L305.686 357.987C305.804 357.972 305.895 358.051 305.907 358.158C305.921 358.268 305.844 358.367 305.736 358.379L304.16 358.573L304.134 358.575ZM289.998 359.213C289.974 359.213 289.95 359.21 289.926 359.201C289.425 359.01 288.933 358.775 288.467 358.501C288.373 358.446 288.342 358.325 288.397 358.23C288.452 358.134 288.575 358.105 288.669 358.158C289.115 358.422 289.587 358.646 290.068 358.83C290.169 358.869 290.223 358.982 290.183 359.085C290.154 359.165 290.077 359.213 289.998 359.213ZM298.882 359.215C298.783 359.215 298.697 359.141 298.685 359.04C298.672 358.931 298.751 358.833 298.858 358.819L300.434 358.628C300.552 358.611 300.643 358.691 300.655 358.801C300.668 358.908 300.591 359.008 300.482 359.022L298.906 359.213L298.882 359.215ZM293.627 359.818C293.521 359.818 293.432 359.732 293.428 359.626C293.425 359.516 293.51 359.424 293.62 359.421C293.896 359.412 294.175 359.39 294.451 359.357L295.182 359.268C295.3 359.254 295.389 359.331 295.403 359.441C295.416 359.549 295.338 359.648 295.23 359.662L294.5 359.751C294.213 359.785 293.92 359.808 293.634 359.818H293.627Z" fill="white"/>
<path d="M295.571 299.11L295.49 296.767C295.663 296.183 296.12 295.728 296.706 295.555C298.901 294.913 304.375 293.575 307.305 295.231L308.048 297.87L295.571 299.11Z" fill="url(#paint15_linear)"/>
<path d="M302.279 295.988C301.779 296.18 301.264 296.245 300.73 296.183C300.084 296.11 299.57 295.606 299.488 294.964L298.562 287.715L302.25 287.244L303.177 294.488C303.259 295.132 302.889 295.754 302.279 295.988Z" fill="url(#paint16_linear)"/>
<path d="M331.301 294.538L331.221 292.195C331.394 291.611 331.851 291.156 332.438 290.983C334.632 290.34 340.105 289.003 343.035 290.659L343.78 293.298L331.301 294.538Z" fill="url(#paint17_linear)"/>
<path d="M338.012 291.416C337.513 291.608 336.996 291.673 336.464 291.611C335.816 291.537 335.304 291.034 335.222 290.392L334.196 282.379L337.885 281.908L338.911 289.916C338.993 290.56 338.623 291.181 338.012 291.416Z" fill="url(#paint18_linear)"/>
<path d="M298.414 289.541L337.918 283.152C338.819 283.004 339.502 282.254 339.545 281.347C339.603 280.078 339.557 278.194 339.025 276.303C338.418 274.153 336.326 272.765 334.093 272.997C326.669 273.767 307.829 276.184 297.97 281.621C296.927 282.196 296.234 283.239 296.102 284.417C295.975 285.542 295.986 287.02 296.522 288.458C296.808 289.222 297.606 289.671 298.414 289.541Z" fill="url(#paint19_linear)"/>
<path d="M297.441 287.921C297.201 287.921 296.983 287.756 296.925 287.511C296.912 287.448 296.562 285.912 296.776 284.364C296.948 283.114 297.778 282.02 298.944 281.511C301.086 280.573 305.2 278.917 308.678 278.372C308.967 278.324 309.236 278.524 309.282 278.814C309.327 279.102 309.13 279.372 308.842 279.418C305.356 279.965 301.056 281.74 299.367 282.48C298.537 282.843 297.946 283.621 297.824 284.508C297.638 285.866 297.954 287.258 297.958 287.273C298.023 287.558 297.847 287.842 297.561 287.907C297.521 287.917 297.48 287.921 297.441 287.921Z" fill="#91B3FA"/>
<path d="M277.047 300.564C289.844 298.76 345.215 291.082 361.57 290.964C362.978 290.953 364.24 291.823 364.713 293.144C366.216 297.324 369.41 307.074 370.449 317.01C370.592 318.363 369.749 319.627 368.449 320.048L332.575 331.708L319.516 333.379L279.347 330.605C277.931 330.508 276.763 329.468 276.513 328.078C275.621 323.125 273.727 311.482 274.11 303.781C274.192 302.146 275.418 300.793 277.047 300.564Z" fill="#6564C4"/>
<path d="M355.987 294.586C355.883 294.586 355.795 294.505 355.79 294.399C355.783 294.291 355.866 294.197 355.975 294.19C356.527 294.154 357.056 294.123 357.561 294.096C357.67 294.089 357.765 294.175 357.77 294.284C357.777 294.394 357.693 294.486 357.583 294.493C357.078 294.521 356.551 294.551 355.999 294.586H355.987ZM350.709 294.979C350.608 294.979 350.521 294.901 350.512 294.798C350.502 294.688 350.584 294.592 350.694 294.584C351.235 294.538 351.763 294.495 352.276 294.454C352.396 294.443 352.482 294.527 352.49 294.637C352.499 294.747 352.417 294.841 352.309 294.849C351.795 294.89 351.268 294.933 350.727 294.979H350.709ZM345.44 295.456C345.339 295.456 345.252 295.378 345.243 295.276C345.231 295.168 345.312 295.07 345.421 295.06C345.959 295.009 346.485 294.959 347.002 294.911C347.124 294.899 347.207 294.981 347.218 295.089C347.228 295.199 347.147 295.295 347.04 295.305C346.522 295.353 345.995 295.402 345.459 295.454L345.44 295.456ZM362.083 295.486C362.001 295.486 361.924 295.435 361.895 295.353C361.768 294.986 361.65 294.654 361.544 294.356L361.277 294.36H361.273C361.166 294.36 361.077 294.272 361.075 294.164C361.073 294.055 361.16 293.964 361.27 293.964L361.59 293.959C361.729 293.959 361.851 294.038 361.893 294.154C362.006 294.469 362.133 294.827 362.27 295.223C362.306 295.327 362.251 295.44 362.149 295.476C362.126 295.483 362.104 295.486 362.083 295.486ZM340.176 295.985C340.075 295.985 339.989 295.909 339.977 295.807C339.967 295.699 340.046 295.601 340.156 295.589L341.734 295.426C341.841 295.418 341.942 295.495 341.952 295.603C341.964 295.712 341.883 295.81 341.776 295.82L340.197 295.985H340.176ZM334.914 296.552C334.814 296.552 334.727 296.476 334.717 296.375C334.705 296.266 334.784 296.168 334.891 296.156L336.47 295.983C336.589 295.969 336.678 296.05 336.69 296.158C336.702 296.267 336.623 296.365 336.513 296.377L334.936 296.55L334.914 296.552ZM329.657 297.147C329.557 297.147 329.472 297.072 329.46 296.971C329.448 296.863 329.525 296.764 329.634 296.752L331.211 296.57C331.324 296.56 331.419 296.637 331.431 296.745C331.443 296.853 331.366 296.952 331.256 296.964L329.679 297.146L329.657 297.147ZM324.401 297.766C324.302 297.766 324.216 297.692 324.204 297.591C324.19 297.481 324.269 297.384 324.377 297.37L325.954 297.182C326.069 297.168 326.161 297.247 326.173 297.356C326.187 297.464 326.11 297.564 326 297.577L324.425 297.764L324.401 297.766ZM319.149 298.403C319.05 298.403 318.964 298.329 318.952 298.23C318.938 298.12 319.015 298.021 319.125 298.009L320.7 297.815C320.819 297.798 320.908 297.879 320.921 297.988C320.935 298.096 320.858 298.195 320.748 298.209L319.173 298.401L319.149 298.403ZM313.899 299.057C313.799 299.057 313.714 298.985 313.702 298.884C313.688 298.774 313.765 298.677 313.873 298.663L315.448 298.464C315.563 298.447 315.656 298.528 315.669 298.637C315.683 298.745 315.606 298.844 315.498 298.858L313.923 299.055L313.899 299.057ZM308.648 299.725C308.549 299.725 308.465 299.653 308.451 299.552C308.438 299.444 308.515 299.345 308.623 299.329L310.198 299.129C310.316 299.115 310.405 299.192 310.421 299.3C310.433 299.408 310.357 299.507 310.248 299.523L308.674 299.723L308.648 299.725ZM303.4 300.406C303.3 300.406 303.215 300.333 303.203 300.233C303.189 300.125 303.264 300.024 303.374 300.011L304.948 299.805C305.05 299.79 305.157 299.869 305.17 299.976C305.184 300.084 305.107 300.185 304.999 300.199L303.425 300.405L303.4 300.406ZM363.703 300.526C363.618 300.526 363.539 300.471 363.513 300.386C363.356 299.858 363.202 299.353 363.051 298.868C363.018 298.764 363.077 298.653 363.181 298.62C363.286 298.588 363.397 298.646 363.429 298.75C363.582 299.235 363.736 299.744 363.894 300.271C363.926 300.377 363.866 300.487 363.76 300.519C363.741 300.524 363.722 300.526 363.703 300.526ZM298.153 301.098C298.053 301.098 297.969 301.026 297.956 300.927C297.94 300.817 298.017 300.718 298.127 300.702L299.701 300.494C299.805 300.478 299.908 300.557 299.923 300.665C299.937 300.773 299.862 300.874 299.752 300.887L298.178 301.096L298.153 301.098ZM292.906 301.8C292.808 301.8 292.722 301.728 292.709 301.629C292.695 301.519 292.772 301.42 292.88 301.406L294.454 301.194C294.567 301.179 294.661 301.256 294.676 301.363C294.692 301.471 294.615 301.572 294.507 301.586L292.933 301.798L292.906 301.8ZM287.66 302.514C287.563 302.514 287.477 302.442 287.464 302.343C287.45 302.233 287.525 302.134 287.633 302.119L289.207 301.903C289.32 301.889 289.416 301.965 289.431 302.074C289.446 302.182 289.369 302.283 289.26 302.297L287.688 302.513L287.66 302.514ZM282.417 303.235C282.319 303.235 282.234 303.163 282.22 303.064C282.205 302.956 282.28 302.857 282.39 302.841L283.963 302.622C284.071 302.608 284.172 302.684 284.186 302.792C284.201 302.901 284.126 303.001 284.016 303.016L282.444 303.233L282.417 303.235ZM277.298 304.16C277.189 304.16 277.101 304.059 277.101 303.949L277.105 303.908C277.112 303.725 277.261 303.559 277.465 303.53L278.72 303.353C278.833 303.338 278.929 303.413 278.942 303.523C278.958 303.631 278.882 303.732 278.775 303.747L277.521 303.934L277.495 303.973C277.495 304.083 277.408 304.16 277.298 304.16ZM365.101 305.633C365.012 305.633 364.931 305.573 364.909 305.482C364.777 304.96 364.647 304.448 364.513 303.946C364.486 303.841 364.549 303.732 364.656 303.704C364.763 303.675 364.87 303.74 364.897 303.845C365.031 304.348 365.162 304.862 365.293 305.386C365.32 305.492 365.255 305.6 365.149 305.627C365.133 305.631 365.116 305.633 365.101 305.633ZM277.345 309.439C277.24 309.439 277.151 309.357 277.146 309.251C277.119 308.713 277.096 308.182 277.079 307.66C277.076 307.551 277.161 307.458 277.271 307.455C277.365 307.45 277.473 307.539 277.476 307.648C277.492 308.167 277.514 308.694 277.542 309.23C277.548 309.34 277.464 309.433 277.355 309.439H277.345ZM366.25 310.799C366.157 310.799 366.073 310.732 366.055 310.638C365.954 310.116 365.849 309.599 365.74 309.085C365.717 308.979 365.786 308.873 365.892 308.85C366.002 308.828 366.106 308.897 366.128 309.003C366.236 309.518 366.342 310.039 366.445 310.563C366.466 310.671 366.395 310.775 366.288 310.796L366.25 310.799ZM277.769 314.715C277.67 314.715 277.583 314.64 277.572 314.539C277.518 314.012 277.466 313.482 277.417 312.955C277.406 312.845 277.487 312.75 277.596 312.739C277.709 312.729 277.802 312.81 277.812 312.919C277.86 313.445 277.911 313.972 277.968 314.496C277.978 314.606 277.899 314.703 277.792 314.715H277.769ZM367.098 316.024C366.998 316.024 366.913 315.95 366.901 315.849C366.832 315.325 366.76 314.803 366.683 314.28C366.666 314.173 366.741 314.072 366.849 314.056C366.964 314.041 367.058 314.114 367.075 314.222C367.152 314.746 367.226 315.272 367.294 315.799C367.308 315.907 367.231 316.007 367.123 316.022L367.098 316.024ZM363.417 318.524C363.334 318.524 363.256 318.471 363.229 318.387C363.195 318.282 363.251 318.171 363.356 318.137L364.864 317.645C364.969 317.613 365.082 317.669 365.115 317.774C365.15 317.878 365.092 317.99 364.988 318.024L363.479 318.515C363.459 318.521 363.438 318.524 363.417 318.524ZM278.417 319.971C278.319 319.971 278.235 319.897 278.221 319.8C278.149 319.283 278.078 318.757 278.007 318.223C277.994 318.115 278.071 318.015 278.179 318C278.288 317.983 278.387 318.063 278.401 318.171C278.471 318.704 278.542 319.229 278.614 319.745C278.629 319.853 278.554 319.952 278.444 319.968L278.417 319.971ZM358.386 320.159C358.302 320.159 358.224 320.106 358.198 320.022C358.162 319.918 358.22 319.807 358.325 319.772L359.833 319.283C359.936 319.248 360.049 319.305 360.083 319.409C360.118 319.514 360.061 319.625 359.957 319.659L358.446 320.151C358.427 320.156 358.405 320.159 358.386 320.159ZM353.353 321.795C353.269 321.795 353.192 321.742 353.165 321.658C353.131 321.553 353.187 321.442 353.292 321.408L354.802 320.918C354.905 320.884 355.018 320.94 355.052 321.045C355.086 321.149 355.028 321.26 354.924 321.295L353.415 321.786C353.395 321.791 353.374 321.795 353.353 321.795ZM348.321 323.43C348.238 323.43 348.16 323.377 348.132 323.293C348.098 323.189 348.156 323.077 348.261 323.043L349.769 322.553C349.874 322.521 349.985 322.576 350.019 322.68C350.054 322.785 349.997 322.896 349.893 322.93L348.382 323.422C348.363 323.427 348.341 323.43 348.321 323.43ZM343.289 325.066C343.205 325.066 343.128 325.012 343.099 324.929C343.067 324.824 343.123 324.713 343.228 324.678L344.738 324.189C344.843 324.154 344.954 324.211 344.986 324.315C345.022 324.42 344.964 324.531 344.86 324.565L343.351 325.057C343.33 325.062 343.31 325.066 343.289 325.066ZM279.22 325.204C279.126 325.204 279.042 325.136 279.025 325.038C278.942 324.545 278.857 324.019 278.769 323.468C278.752 323.36 278.826 323.259 278.934 323.242C279.038 323.223 279.144 323.298 279.162 323.406C279.249 323.956 279.334 324.48 279.417 324.973C279.434 325.081 279.362 325.184 279.254 325.201L279.22 325.204ZM338.256 326.701C338.174 326.701 338.095 326.648 338.068 326.564C338.034 326.459 338.092 326.348 338.195 326.314L339.705 325.824C339.811 325.792 339.923 325.846 339.955 325.951C339.989 326.055 339.931 326.167 339.828 326.201L338.318 326.692C338.298 326.699 338.277 326.701 338.256 326.701ZM282.472 327.817H282.458L280.874 327.71C280.764 327.701 280.682 327.607 280.691 327.497C280.698 327.388 280.795 327.311 280.901 327.312L282.485 327.422C282.595 327.429 282.677 327.525 282.67 327.634C282.662 327.739 282.576 327.817 282.472 327.817ZM287.751 328.182H287.737L286.153 328.073C286.044 328.066 285.962 327.97 285.969 327.862C285.977 327.752 286.075 327.668 286.181 327.677L287.763 327.787C287.873 327.793 287.955 327.889 287.948 327.999C287.941 328.103 287.854 328.182 287.751 328.182ZM333.225 328.338C333.141 328.338 333.064 328.283 333.037 328.199C333.003 328.097 333.061 327.984 333.164 327.949L334.674 327.46C334.777 327.427 334.89 327.482 334.924 327.586C334.958 327.691 334.9 327.804 334.797 327.836L333.287 328.328C333.266 328.333 333.246 328.338 333.225 328.338ZM293.029 328.547H293.015L291.431 328.437C291.323 328.43 291.239 328.335 291.248 328.225C291.255 328.117 291.356 328.035 291.459 328.042L293.043 328.151C293.152 328.158 293.234 328.254 293.228 328.362C293.219 328.468 293.133 328.547 293.029 328.547ZM298.308 328.912H298.295L296.711 328.802C296.601 328.795 296.519 328.699 296.526 328.591C296.534 328.482 296.635 328.4 296.738 328.406L298.322 328.516C298.43 328.523 298.514 328.619 298.505 328.727C298.499 328.833 298.411 328.912 298.308 328.912ZM328.035 329.268C327.936 329.268 327.85 329.194 327.838 329.095C327.824 328.985 327.901 328.886 328.009 328.872L329.583 328.672C329.706 328.657 329.792 328.735 329.806 328.843C329.821 328.951 329.742 329.05 329.634 329.064L328.061 329.266L328.035 329.268ZM303.586 329.276H303.572L301.99 329.167C301.881 329.16 301.798 329.064 301.805 328.954C301.812 328.847 301.917 328.766 302.016 328.771L303.6 328.881C303.709 328.888 303.792 328.982 303.785 329.091C303.776 329.196 303.691 329.276 303.586 329.276ZM308.864 329.641H308.85L307.268 329.532C307.158 329.525 307.076 329.429 307.083 329.319C307.09 329.211 307.196 329.131 307.294 329.136L308.878 329.244C308.987 329.252 309.069 329.347 309.063 329.456C309.056 329.561 308.968 329.641 308.864 329.641ZM322.786 329.939C322.689 329.939 322.603 329.865 322.589 329.766C322.576 329.658 322.653 329.559 322.76 329.544L324.336 329.343C324.459 329.326 324.543 329.407 324.559 329.514C324.572 329.622 324.495 329.722 324.386 329.737L322.812 329.937L322.786 329.939ZM314.143 330.006H314.13L312.546 329.896C312.436 329.888 312.354 329.794 312.363 329.684C312.369 329.574 312.464 329.497 312.573 329.499L314.157 329.609C314.267 329.617 314.349 329.711 314.342 329.821C314.334 329.925 314.248 330.006 314.143 330.006ZM319.421 330.371L319.409 330.369L317.825 330.261C317.716 330.253 317.633 330.158 317.64 330.049C317.649 329.939 317.743 329.862 317.853 329.864L319.435 329.973C319.545 329.982 319.627 330.076 319.62 330.186C319.613 330.29 319.526 330.371 319.421 330.371Z" fill="white"/>
<path d="M332.049 337.349L320.608 338.813C319.108 339.005 317.704 338.051 317.336 336.592L314.604 325.75C314.169 324.024 315.349 322.305 317.123 322.079L330.867 320.32C332.606 320.098 334.16 321.406 334.227 323.149L334.654 334.285C334.714 335.823 333.583 337.152 332.049 337.349Z" fill="#2D2D9A"/>
<path d="M330.382 335.503L321.674 336.618C320.532 336.763 319.463 336.037 319.182 334.927L317.105 326.677C316.774 325.363 317.67 324.055 319.021 323.882L329.483 322.543C330.805 322.373 331.988 323.37 332.039 324.697L332.365 333.172C332.409 334.342 331.548 335.354 330.382 335.503Z" fill="#7C7CD9"/>
<path d="M323.575 247.771C326.274 258.922 326.346 269.83 325.935 273.803C325.779 275.3 324.577 276.47 323.075 276.574C321.368 276.694 319.047 276.852 316.972 276.97C314.691 277.102 312.16 275.66 310.466 274.456C309.603 273.841 308.485 274.798 308.968 275.744C309.798 277.37 311.244 278.651 312.677 279.74C313.54 280.396 316.405 281.561 316.206 282.85C316.143 283.258 315.898 283.612 315.633 283.929C314.04 285.84 311.631 286.861 309.252 287.59C308.954 287.683 308.639 287.78 308.428 288.012C308.368 289.549 313.1 291.258 314.323 291.664C316.151 292.27 318.092 292.527 320.013 292.325C324.775 291.823 329.171 288.537 331.736 284.575C338.591 273.983 342.136 261.191 343.431 251.408C337.054 245.034 327.426 246.649 323.575 247.771Z" fill="url(#paint20_linear)"/>
<path d="M343.433 252.417C348.519 213.998 318.913 184.456 318.913 184.456L301.297 204.992C314.671 221.661 321.028 236.936 323.932 248.934C327.783 247.814 337.056 246.041 343.433 252.417Z" fill="#FF7542"/>
<path d="M323.511 248.747C323.02 248.747 322.573 248.411 322.451 247.913C318.872 233.122 311.327 218.481 300.027 204.396C299.65 203.925 299.723 203.238 300.194 202.862C300.664 202.485 301.35 202.56 301.727 203.03C313.229 217.368 320.917 232.295 324.573 247.399C324.713 247.985 324.353 248.574 323.768 248.716C323.682 248.736 323.597 248.747 323.511 248.747Z" fill="url(#paint21_linear)"/>
<path d="M84.9413 476.501C84.9442 476.314 84.9317 476.124 84.8836 475.932C82.0507 464.702 67.9894 457.705 67.9894 457.705L62.4174 458.141C59.2137 468.041 59.6256 474.113 60.14 476.817C60.1542 476.893 60.1773 476.965 60.1972 477.038C64.7936 477.449 74.254 477.718 84.9413 476.501Z" fill="#2D2D9A"/>
<path d="M60.1982 477.039C60.4465 477.941 61.1132 478.645 61.9665 478.824C68.5048 480.199 78.8968 479.093 83.26 478.523C84.2225 478.396 84.9264 477.506 84.9423 476.501C74.2551 477.718 64.7946 477.449 60.1982 477.039Z" fill="url(#paint22_linear)"/>
<path d="M60.1777 449.843L62.5376 461.203C62.7104 462.036 63.35 462.659 64.1249 462.733C65.0733 462.822 66.4234 462.873 67.781 462.674C68.9984 462.495 69.8462 461.258 69.6304 459.929L67.9901 449.843H60.1777Z" fill="url(#paint23_linear)"/>
<path d="M109.074 476.895C102.919 476.723 99.7377 475.997 98.092 475.326C98.0886 475.937 98.092 476.561 98.1108 477.205C98.1331 477.895 98.6434 478.444 99.2702 478.441L133.058 478.222C134.137 478.215 134.767 476.965 134.3 475.977C129.87 476.342 118.587 477.162 109.074 476.895Z" fill="url(#paint24_linear)"/>
<path d="M134.299 475.977C134.258 475.889 134.223 475.802 134.165 475.721C131.18 471.552 123.581 463.25 108.564 459.648L101.36 459.421C101.36 459.421 98.1508 464.996 98.0908 475.326C99.7365 475.997 102.918 476.723 109.073 476.894C118.585 477.162 129.869 476.341 134.299 475.977Z" fill="#2D2D9A"/>
<path d="M99.7021 448.838C99.8152 449.369 101.315 457.451 101.896 460.587C102.033 461.332 102.613 461.878 103.305 461.916C104.538 461.986 106.528 461.995 108.239 461.529C109.162 461.279 109.782 460.337 109.715 459.292L108.91 446.507L99.7021 448.838Z" fill="url(#paint25_linear)"/>
<path d="M94.243 299.584C94.243 299.584 104.153 367.683 111.306 448.721C111.439 450.23 110.236 451.543 108.754 451.857C106.569 452.316 103.357 452.862 100.699 452.788C99.2793 452.749 98.0926 451.696 97.8545 450.297C95.4177 436.008 78.0317 359.325 73.4686 342.447C73.4686 342.447 68.2273 414.138 69.9026 451.331C69.9444 452.256 69.2671 453.059 68.3475 453.165C66.9525 453.326 64.7209 453.449 61.8806 453.146C60.8024 453.031 59.9329 452.218 59.7787 451.144C58.0432 439.051 48.0543 367.072 48.479 315.221C48.5029 312.297 51.9097 288.273 51.9097 288.273L94.243 299.584Z" fill="#2D2D9A"/>
<path d="M50.4203 303.509C49.4014 303.146 48.6909 302.223 48.5801 301.148C47.2622 288.361 40.8811 209.083 81.1664 176.471C81.1664 176.471 83.4765 170.426 102.466 185.285C121.456 200.142 111.289 215.717 106.742 237.198C101.242 263.191 91.5882 284.439 95.8596 300.435C96.1541 301.538 95.5736 302.697 94.5012 303.093C79.7502 308.53 65.0559 308.71 50.4203 303.509Z" fill="#6564C4"/>
<path d="M96.8818 152.718C96.8698 153.846 80.7832 176.694 80.7832 176.694C80.7832 176.694 83.6706 182.381 97.4554 186.998L109.354 162.534L96.8818 152.718Z" fill="url(#paint26_linear)"/>
<path d="M109.546 139.624C109.546 139.624 115.271 152.774 115.654 159.676C116.04 166.577 117.526 171.055 109.546 172.444C101.566 173.834 94.8448 169.858 91.2031 162.984C91.2031 162.984 85.4971 152.391 86.7769 148.053C88.057 143.715 109.546 139.624 109.546 139.624Z" fill="url(#paint27_linear)"/>
<path d="M93.9306 158.042L94.3848 157.841C94.9638 157.586 95.2104 156.898 94.9192 156.336C93.7948 154.163 91.601 149.18 94.4349 148.019C98.0873 146.52 112.554 143.57 115.674 138.438C118.674 133.504 116.017 127.136 112.021 125.324C111.754 125.202 111.439 125.3 111.302 125.558L110.97 126.189C110.742 126.62 110.105 126.555 109.97 126.086C109.84 125.635 109.24 125.548 108.992 125.945C108.033 127.481 105.444 129.971 98.5171 131.249C88.672 133.066 82.1637 137.051 82.0017 143.852C81.9914 144.286 81.5316 144.525 81.1624 144.301C80.4357 143.858 79.2724 143.649 77.718 144.957C75.0144 147.229 76.1206 153.127 82.0473 157.978C82.329 158.208 82.3266 158.648 82.0217 158.847C80.9473 159.545 79.3457 161.21 83.4958 163.427C87.7886 165.722 90.9939 165.535 92.2284 165.332C92.5355 165.28 92.7333 164.982 92.6663 164.679L91.3489 158.701C91.2743 158.362 91.532 158.042 91.8784 158.042H93.9306Z" fill="#2D2D9A"/>
<path d="M94.177 159.304C94.177 159.304 91.9935 150.904 88.2277 153.259C84.462 155.614 90.1819 162.671 93.2092 162.984L94.177 159.304Z" fill="url(#paint28_linear)"/>
<path d="M108.574 192.18L109.684 221.968C112.835 223.052 115.833 223.894 118.69 224.524C120.476 218.772 124.409 211.713 127.63 206.465C115.796 202.283 108.574 192.18 108.574 192.18Z" fill="#6564C4"/>
<path d="M167.66 191.673C151.426 209.201 138.286 210.232 127.631 206.465C124.41 211.713 120.477 218.772 118.69 224.524C162.041 234.081 172.251 194.228 172.251 194.228L167.66 191.673Z" fill="url(#paint29_linear)"/>
<path d="M170.952 189.811C170.952 189.811 172.822 187.804 176.283 188.434C179.744 189.066 182.825 190.268 184.982 188.434C187.138 186.6 187.895 189.061 187.895 189.061L181.439 193.971L170.952 189.811Z" fill="url(#paint30_linear)"/>
<path d="M167.089 193.245C167.089 193.245 168.37 187.886 172.231 188.621C176.093 189.356 184.859 194.123 187.118 193.245C189.376 192.366 192.265 190.265 193.748 191.006L191.137 194.253C191.137 194.253 197.848 190.381 199.004 192.76L187.837 199.045C187.837 199.045 171.498 197.409 167.089 193.245Z" fill="url(#paint31_linear)"/>
<path d="M90.5557 231.165C90.5557 231.165 121.075 256.725 154.033 245.572C156.076 244.88 158.31 245.031 160.22 246.039L169.695 251.043C173.671 253.143 178.596 251.764 180.903 247.904C182.22 245.702 183.343 243.188 183.566 240.777L165.027 233.273L166.393 230.999C166.393 230.999 157.343 230.232 154.973 236.72C154.973 236.72 137.732 243.89 108.656 211.91C108.656 211.91 95.4618 223.129 90.5557 231.165Z" fill="url(#paint32_linear)"/>
<path d="M88.912 230.901C88.8115 230.901 88.7095 230.872 88.6202 230.811C75.7693 222.128 69.7241 208.114 69.6645 207.973C69.5521 207.708 69.6761 207.401 69.9414 207.288C70.2077 207.175 70.5133 207.299 70.6265 207.566C70.6847 207.703 76.6179 221.44 89.2049 229.946C89.4441 230.107 89.5068 230.43 89.3451 230.672C89.2446 230.821 89.0797 230.901 88.912 230.901Z" fill="url(#paint33_linear)"/>
<path d="M108.053 211.477C107.882 211.477 107.714 211.391 107.614 211.237C107.575 211.177 103.648 205.066 96.1718 191.676C93.8722 187.559 90.8504 184.951 87.1897 183.927C81.1276 182.234 75.2855 185.484 75.2278 185.516C74.9764 185.655 74.6584 185.571 74.5155 185.319C74.3732 185.069 74.4604 184.751 74.7115 184.607C74.9635 184.465 80.9725 181.103 87.4616 182.919C91.4044 184.02 94.6426 186.794 97.0845 191.166C104.542 204.521 108.453 210.611 108.493 210.672C108.649 210.914 108.578 211.237 108.337 211.393C108.248 211.45 108.15 211.477 108.053 211.477Z" fill="url(#paint34_linear)"/>
<defs>
<linearGradient id="paint0_linear" x1="539.376" y1="617.062" x2="115.432" y2="90.5491" gradientUnits="userSpaceOnUse">
<stop stop-color="#DAE3FE"/>
<stop offset="1" stop-color="#E9EFFD"/>
</linearGradient>
<linearGradient id="paint1_linear" x1="178.885" y1="73.0034" x2="209.639" y2="37.307" gradientUnits="userSpaceOnUse">
<stop stop-color="#E1473D"/>
<stop offset="1" stop-color="#E9605A"/>
</linearGradient>
<linearGradient id="paint2_linear" x1="227.018" y1="11.2713" x2="136.078" y2="148.655" gradientUnits="userSpaceOnUse">
<stop stop-color="#FFE7E6"/>
<stop offset="1" stop-color="#FFE0DD"/>
</linearGradient>
<linearGradient id="paint3_linear" x1="157.676" y1="193.269" x2="188.429" y2="157.572" gradientUnits="userSpaceOnUse">
<stop stop-color="#E1473D"/>
<stop offset="1" stop-color="#E9605A"/>
</linearGradient>
<linearGradient id="paint4_linear" x1="205.808" y1="131.537" x2="114.868" y2="268.921" gradientUnits="userSpaceOnUse">
<stop stop-color="#FFE7E6"/>
<stop offset="1" stop-color="#FFE0DD"/>
</linearGradient>
<linearGradient id="paint5_linear" x1="105.404" y1="147.974" x2="153.451" y2="92.2061" gradientUnits="userSpaceOnUse">
<stop stop-color="#E1473D"/>
<stop offset="1" stop-color="#E9605A"/>
</linearGradient>
<linearGradient id="paint6_linear" x1="180.601" y1="51.531" x2="38.5254" y2="266.166" gradientUnits="userSpaceOnUse">
<stop stop-color="#FFE7E6"/>
<stop offset="1" stop-color="#FFE0DD"/>
</linearGradient>
<linearGradient id="paint7_linear" x1="194.031" y1="150.752" x2="230.459" y2="108.47" gradientUnits="userSpaceOnUse">
<stop stop-color="#E1473D"/>
<stop offset="1" stop-color="#E9605A"/>
</linearGradient>
<linearGradient id="paint8_linear" x1="251.044" y1="77.6303" x2="143.326" y2="240.361" gradientUnits="userSpaceOnUse">
<stop stop-color="#FFE7E6"/>
<stop offset="1" stop-color="#FFE0DD"/>
</linearGradient>
<linearGradient id="paint9_linear" x1="235.008" y1="223.591" x2="175.674" y2="238.499" gradientUnits="userSpaceOnUse">
<stop stop-color="#FEBBBA"/>
<stop offset="1" stop-color="#FF928E"/>
</linearGradient>
<linearGradient id="paint10_linear" x1="277.613" y1="169.154" x2="269.029" y2="143.402" gradientUnits="userSpaceOnUse">
<stop stop-color="#FEBBBA"/>
<stop offset="1" stop-color="#FF928E"/>
</linearGradient>
<linearGradient id="paint11_linear" x1="260.913" y1="147.603" x2="291.766" y2="161.017" gradientUnits="userSpaceOnUse">
<stop stop-color="#FEBBBA"/>
<stop offset="1" stop-color="#FF928E"/>
</linearGradient>
<linearGradient id="paint12_linear" x1="258.991" y1="152.026" x2="289.844" y2="165.44" gradientUnits="userSpaceOnUse">
<stop stop-color="#FEBBBA"/>
<stop offset="1" stop-color="#FF928E"/>
</linearGradient>
<linearGradient id="paint13_linear" x1="315.961" y1="459.624" x2="305.16" y2="459.624" gradientUnits="userSpaceOnUse">
<stop stop-color="#FEBBBA"/>
<stop offset="1" stop-color="#FF928E"/>
</linearGradient>
<linearGradient id="paint14_linear" x1="384.623" y1="450.62" x2="371.715" y2="450.62" gradientUnits="userSpaceOnUse">
<stop stop-color="#FEBBBA"/>
<stop offset="1" stop-color="#FF928E"/>
</linearGradient>
<linearGradient id="paint15_linear" x1="302.796" y1="304.289" x2="300.628" y2="291.551" gradientUnits="userSpaceOnUse">
<stop stop-color="#4F52FF"/>
<stop offset="1" stop-color="#4042E2"/>
</linearGradient>
<linearGradient id="paint16_linear" x1="299.666" y1="285.15" x2="307.004" y2="321.506" gradientUnits="userSpaceOnUse">
<stop stop-color="#4F52FF"/>
<stop offset="1" stop-color="#4042E2"/>
</linearGradient>
<linearGradient id="paint17_linear" x1="338.278" y1="298.252" x2="336.11" y2="285.515" gradientUnits="userSpaceOnUse">
<stop stop-color="#4F52FF"/>
<stop offset="1" stop-color="#4042E2"/>
</linearGradient>
<linearGradient id="paint18_linear" x1="334.914" y1="278.038" x2="342.252" y2="314.394" gradientUnits="userSpaceOnUse">
<stop stop-color="#4F52FF"/>
<stop offset="1" stop-color="#4042E2"/>
</linearGradient>
<linearGradient id="paint19_linear" x1="317.972" y1="262.047" x2="317.754" y2="288.634" gradientUnits="userSpaceOnUse">
<stop stop-color="#4F52FF"/>
<stop offset="1" stop-color="#4042E2"/>
</linearGradient>
<linearGradient id="paint20_linear" x1="333.872" y1="254.004" x2="304.643" y2="310.214" gradientUnits="userSpaceOnUse">
<stop stop-color="#FEBBBA"/>
<stop offset="1" stop-color="#FF928E"/>
</linearGradient>
<linearGradient id="paint21_linear" x1="364.92" y1="147.762" x2="267.007" y2="292.464" gradientUnits="userSpaceOnUse">
<stop stop-color="#E1473D"/>
<stop offset="1" stop-color="#E9605A"/>
</linearGradient>
<linearGradient id="paint22_linear" x1="122.759" y1="437.877" x2="31.2594" y2="509.732" gradientUnits="userSpaceOnUse">
<stop stop-color="#4F52FF"/>
<stop offset="1" stop-color="#4042E2"/>
</linearGradient>
<linearGradient id="paint23_linear" x1="66.7837" y1="438.909" x2="61.979" y2="480.842" gradientUnits="userSpaceOnUse">
<stop stop-color="#FEBBBA"/>
<stop offset="1" stop-color="#FF928E"/>
</linearGradient>
<linearGradient id="paint24_linear" x1="139.016" y1="458.544" x2="47.5056" y2="530.397" gradientUnits="userSpaceOnUse">
<stop stop-color="#4F52FF"/>
<stop offset="1" stop-color="#4042E2"/>
</linearGradient>
<linearGradient id="paint25_linear" x1="105.266" y1="443.337" x2="103.108" y2="485.489" gradientUnits="userSpaceOnUse">
<stop stop-color="#FEBBBA"/>
<stop offset="1" stop-color="#FF928E"/>
</linearGradient>
<linearGradient id="paint26_linear" x1="85.9527" y1="194.507" x2="97.1119" y2="164.034" gradientUnits="userSpaceOnUse">
<stop stop-color="#FEBBBA"/>
<stop offset="1" stop-color="#FF928E"/>
</linearGradient>
<linearGradient id="paint27_linear" x1="114.605" y1="180.903" x2="92.0751" y2="134.111" gradientUnits="userSpaceOnUse">
<stop stop-color="#FEBBBA"/>
<stop offset="1" stop-color="#FF928E"/>
</linearGradient>
<linearGradient id="paint28_linear" x1="104.216" y1="185.905" x2="81.6865" y2="139.113" gradientUnits="userSpaceOnUse">
<stop stop-color="#FEBBBA"/>
<stop offset="1" stop-color="#FF928E"/>
</linearGradient>
<linearGradient id="paint29_linear" x1="149.48" y1="164.561" x2="139.66" y2="274.321" gradientUnits="userSpaceOnUse">
<stop stop-color="#FEBBBA"/>
<stop offset="1" stop-color="#FF928E"/>
</linearGradient>
<linearGradient id="paint30_linear" x1="211.898" y1="155.518" x2="187.887" y2="180.597" gradientUnits="userSpaceOnUse">
<stop stop-color="#FEBBBA"/>
<stop offset="1" stop-color="#FF928E"/>
</linearGradient>
<linearGradient id="paint31_linear" x1="185.304" y1="167.767" x2="175.484" y2="277.527" gradientUnits="userSpaceOnUse">
<stop stop-color="#FEBBBA"/>
<stop offset="1" stop-color="#FF928E"/>
</linearGradient>
<linearGradient id="paint32_linear" x1="154.021" y1="231.66" x2="57.5482" y2="233.971" gradientUnits="userSpaceOnUse">
<stop stop-color="#FEBBBA"/>
<stop offset="1" stop-color="#FF928E"/>
</linearGradient>
<linearGradient id="paint33_linear" x1="348.305" y1="20.2535" x2="179.623" y2="145.033" gradientUnits="userSpaceOnUse">
<stop stop-color="#09005D"/>
<stop offset="1" stop-color="#1A0F91"/>
</linearGradient>
<linearGradient id="paint34_linear" x1="342.473" y1="12.3657" x2="173.79" y2="137.144" gradientUnits="userSpaceOnUse">
<stop stop-color="#09005D"/>
<stop offset="1" stop-color="#1A0F91"/>
</linearGradient>
</defs>
</svg>
