<svg width="274" height="369" viewBox="0 0 274 369" fill="none" xmlns="http://www.w3.org/2000/svg">
<g clip-path="url(#clip0)">
<path d="M0.145179 142.932C0.0548245 144.963 0.00061185 147.003 0.00061185 149.06C0.00061185 250.723 119.503 355.292 137.005 369V273.673C171.304 273.67 204.355 260.818 229.627 237.655C254.898 214.493 270.552 182.705 273.495 148.573C273.651 146.732 273.772 144.882 273.856 143.023C273.946 140.974 274.001 138.907 274.001 136.841C274.147 118.778 270.712 100.864 263.893 84.1337C257.074 67.4033 247.006 52.1868 234.27 39.3621C221.534 26.5374 206.381 16.3582 189.687 9.41163C172.992 2.46509 155.086 -1.11133 137.001 -1.11133C118.915 -1.11133 101.009 2.46509 84.3144 9.41163C67.6198 16.3582 52.4674 26.5374 39.7312 39.3621C26.995 52.1868 16.927 67.4033 10.108 84.1337C3.2889 100.864 -0.146257 118.778 0.00061185 136.841C0.00061185 138.88 0.0548245 140.911 0.145179 142.932ZM137.954 233.116C118.89 233.116 100.254 227.469 84.4023 216.89C68.551 206.312 56.1965 191.276 48.9009 173.684C41.6054 156.092 39.6966 136.734 43.4158 118.058C47.135 99.3829 56.3153 82.2283 69.7957 68.764C83.2761 55.2997 100.451 46.1304 119.149 42.4156C137.847 38.7009 157.228 40.6074 174.841 47.8942C192.454 55.1811 207.508 67.5209 218.099 83.3532C228.691 99.1856 234.344 117.799 234.344 136.841C234.344 162.374 224.189 186.862 206.112 204.917C188.035 222.973 163.518 233.116 137.954 233.116Z" fill="#585CA8"/>
<path d="M137.953 80.166C130.512 80.162 123.142 81.6248 116.268 84.4708C119.248 86.2209 121.788 88.6276 123.695 91.5074C125.601 94.3872 126.825 97.6639 127.271 101.088C127.716 104.511 127.374 107.992 126.268 111.263C125.163 114.534 123.324 117.51 120.891 119.963C118.459 122.417 115.498 124.283 112.234 125.419C108.97 126.556 105.489 126.932 102.057 126.521C98.6251 126.109 95.3326 124.92 92.4306 123.044C89.5287 121.168 87.0941 118.655 85.3126 115.696C80.7803 126.951 79.9842 139.363 83.0414 151.104C86.0986 162.845 92.8477 173.296 102.296 180.92C111.744 188.543 123.393 192.937 135.528 193.455C147.663 193.973 159.644 190.587 169.708 183.795C179.773 177.004 187.39 167.166 191.438 155.728C195.486 144.29 195.753 131.856 192.198 120.255C188.643 108.655 181.454 98.5005 171.689 91.2855C161.925 84.0705 150.099 80.1761 137.953 80.175V80.166Z" fill="#F27446"/>
</g>
<defs>
<clipPath id="clip0">
<rect width="274" height="369" fill="white"/>
</clipPath>
</defs>
</svg>
