<svg width="417" height="419" viewBox="0 0 417 419" fill="none" xmlns="http://www.w3.org/2000/svg">
<path d="M239.732 416.146C156.134 416.143 57.6292 373.292 18.5552 282.289C-7.77098 220.977 -4.67786 144.435 30.5104 89.6057C45.4863 66.271 62.1033 51.5614 69.6374 45.3719C74.2585 41.5743 104.744 17.106 150.747 5.95371C150.843 6.00026 150.937 6.04831 151.033 6.09636C151.17 6.16693 151.316 6.19994 151.461 6.19994C151.763 6.19994 152.056 6.05428 152.236 5.79751C152.262 5.76147 152.286 5.72247 152.307 5.68043C152.325 5.64439 152.341 5.60834 152.355 5.5708C165.289 2.5451 179.419 0.588497 194.527 0.436837C195.162 0.430831 195.793 0.426338 196.425 0.426338C253.67 0.426338 298.453 26.536 326.785 49.4502L290.825 43.8793V31.5948L271.285 32.233V40.8521L181.08 26.8798C180.974 26.8633 180.867 26.8543 180.76 26.8543C180.379 26.8543 180.001 26.9579 179.664 27.1591L149.826 44.9184C149.748 44.9649 149.712 45.0521 149.719 45.1347L149.583 45.064L149.461 47.2354C149.436 47.6723 149.59 48.0972 149.883 48.4051L164.848 64.0711C163.974 65.2604 163.027 66.4091 162.028 67.4873C161.678 67.8732 161.696 68.4723 162.081 68.8282C162.262 68.9964 162.493 69.0805 162.723 69.0805C162.979 69.0805 163.234 68.9768 163.42 68.7756C164.392 67.726 165.316 66.6134 166.177 65.4616L172.284 71.8554C172.562 72.1452 172.921 72.3344 173.311 72.3945L271.285 87.5725V104.575L211.016 109.581C210.869 109.593 210.771 109.7 210.744 109.822L210.706 109.823L211.553 113.072C211.662 113.388 226.407 124.78 231.849 128.976L213.944 151.01C213.921 151.037 213.911 151.067 213.906 151.097L213.695 151.316L214.379 153.614C214.456 153.871 214.701 154.043 214.976 154.043C214.994 154.043 215.012 154.042 215.031 154.04L234.22 152.447L271.285 149.367V160.566L188.812 167.544C188.334 167.585 187.887 167.792 187.538 168.134L163.445 191.796C163.382 191.858 163.367 191.948 163.394 192.024L163.25 191.988L163.633 194.073C163.71 194.492 163.952 194.859 164.3 195.083L190.822 212.141C191.109 212.326 191.438 212.424 191.77 212.424C191.818 212.424 191.868 212.421 191.916 212.418L271.285 205.701V407.804C271.285 410.174 272.396 412.383 274.08 413.932C268.41 414.59 263.324 415.009 259.022 415.363C252.704 415.884 246.269 416.146 239.732 416.146V416.146ZM68.2298 138.149C68.1732 138.149 68.116 138.152 68.0585 138.158C66.4413 138.338 64.7994 138.451 63.1774 138.494C62.3304 138.517 61.6617 139.223 61.6847 140.07C61.7075 140.903 62.3897 141.564 63.2186 141.564C63.2325 141.564 63.2465 141.564 63.2604 141.564C64.9672 141.517 66.6956 141.398 68.3972 141.209C68.8527 141.158 69.2395 140.913 69.4838 140.565C69.6914 140.271 69.7963 139.901 69.753 139.514C69.6662 138.729 69.0015 138.149 68.2298 138.149V138.149ZM50.105 137.395C49.3865 137.395 48.7441 137.903 48.6003 138.633C48.4363 139.464 48.9779 140.272 49.8094 140.436C51.4868 140.766 53.1998 141.029 54.9013 141.217C54.9585 141.223 55.0151 141.226 55.0712 141.226C55.5821 141.226 56.0458 140.972 56.3263 140.573C56.4701 140.367 56.5656 140.125 56.5952 139.859C56.6883 139.017 56.0808 138.259 55.2382 138.166C53.6218 137.987 51.9954 137.738 50.4029 137.424C50.3029 137.404 50.2034 137.395 50.105 137.395V137.395ZM81.0669 135.272C80.9017 135.272 80.7335 135.299 80.5683 135.356C79.0307 135.882 77.4527 136.35 75.8789 136.747C75.0565 136.952 74.5576 137.786 74.7649 138.609C74.9401 139.305 75.5654 139.769 76.2523 139.769C76.3762 139.769 76.5022 139.754 76.6279 139.723C78.2846 139.305 79.9449 138.813 81.5639 138.259C81.8822 138.151 82.1405 137.946 82.3207 137.691C82.594 137.302 82.6826 136.793 82.5174 136.31C82.2997 135.673 81.7035 135.272 81.0669 135.272V135.272ZM37.5585 133.436C36.9688 133.436 36.406 133.778 36.1529 134.35C35.8098 135.125 36.1604 136.032 36.9357 136.374C38.5008 137.066 40.1126 137.7 41.7268 138.257C41.8925 138.314 42.0615 138.341 42.2276 138.341C42.7244 138.341 43.1959 138.098 43.4833 137.689C43.5641 137.574 43.6302 137.446 43.6782 137.307C43.9547 136.505 43.5291 135.631 42.728 135.355C41.1948 134.826 39.6637 134.225 38.177 133.566C37.9757 133.478 37.7654 133.436 37.5585 133.436V133.436ZM92.9625 129.671C92.6892 129.671 92.4114 129.743 92.1621 129.898C90.7807 130.745 89.3436 131.545 87.8901 132.276C87.1333 132.658 86.827 133.58 87.2084 134.338C87.4787 134.873 88.0192 135.182 88.5808 135.182C88.8121 135.182 89.0478 135.129 89.27 135.018C90.7987 134.248 92.3123 133.405 93.7673 132.514C93.9505 132.401 94.1037 132.255 94.2193 132.089C94.5617 131.604 94.6022 130.941 94.2718 130.402C93.982 129.931 93.479 129.671 92.9625 129.671ZM26.1784 126.835C25.7068 126.835 25.2417 127.051 24.9411 127.461C24.419 128.141 24.5851 129.103 25.2674 129.605C25.6322 129.874 26 130.138 26.3724 130.401C27.4 131.122 28.4647 131.823 29.5364 132.482C29.7872 132.637 30.0648 132.71 30.3392 132.71C30.8248 132.71 31.2997 132.479 31.5956 132.059C31.6134 132.033 31.6307 132.006 31.6477 131.979C32.0918 131.257 31.8667 130.312 31.1448 129.868C30.1256 129.242 29.1143 128.575 28.1371 127.889C27.7835 127.639 27.4332 127.387 27.0869 127.133C26.8128 126.932 26.4942 126.835 26.1784 126.835V126.835ZM103.341 121.599C102.956 121.599 102.568 121.743 102.271 122.034C101.109 123.165 99.8833 124.262 98.6265 125.294C97.9718 125.833 97.8757 126.798 98.4132 127.453C98.718 127.824 99.158 128.015 99.601 128.015C99.9433 128.015 100.289 127.901 100.574 127.666C101.898 126.579 103.188 125.423 104.412 124.232C104.483 124.165 104.544 124.091 104.598 124.015C105.014 123.421 104.965 122.6 104.441 122.062C104.14 121.753 103.741 121.599 103.341 121.599V121.599ZM18.2295 119.815C17.8506 119.815 17.4713 119.954 17.1746 120.235C16.5567 120.821 16.533 121.791 17.1153 122.405C17.6917 123.013 18.287 123.617 18.8842 124.198C19.1824 124.488 19.5684 124.632 19.9539 124.632C20.3541 124.632 20.7536 124.477 21.0546 124.168C21.1125 124.108 21.1646 124.045 21.2109 123.979C21.6367 123.372 21.5722 122.529 21.0242 121.996C20.4568 121.445 19.8914 120.873 19.3444 120.295C19.0424 119.977 18.6363 119.815 18.2295 119.815V119.815ZM111.696 111.437C111.195 111.437 110.702 111.682 110.411 112.131C109.511 113.506 108.559 114.841 107.568 116.115C107.047 116.786 107.167 117.748 107.836 118.268C108.116 118.487 108.448 118.592 108.777 118.592C109.235 118.592 109.687 118.39 109.99 118.001C110.603 117.214 111.208 116.395 111.786 115.571C112.193 114.993 112.591 114.407 112.98 113.811C113.444 113.101 113.244 112.15 112.536 111.687C112.276 111.517 111.985 111.437 111.696 111.437ZM117.647 99.6993C117.024 99.6993 116.438 100.079 116.21 100.695C115.639 102.214 114.995 103.73 114.299 105.2C113.935 105.965 114.261 106.88 115.025 107.243C115.239 107.344 115.462 107.392 115.683 107.392C116.174 107.392 116.649 107.156 116.938 106.742C116.988 106.671 117.033 106.596 117.07 106.515C117.805 104.968 118.482 103.374 119.083 101.775C119.38 100.98 118.979 100.096 118.186 99.7969C118.009 99.7308 117.826 99.6993 117.647 99.6993V99.6993ZM120.877 86.9464C120.123 86.9464 119.465 87.502 119.359 88.2708C119.137 89.879 118.844 91.4977 118.486 93.0834C118.299 93.9107 118.818 94.7321 119.646 94.9183C119.758 94.9438 119.872 94.9558 119.985 94.9558C120.488 94.9558 120.955 94.7066 121.239 94.3026C121.351 94.1435 121.434 93.9603 121.481 93.7591C121.856 92.0893 122.165 90.385 122.4 88.6912C122.515 87.8518 121.93 87.077 121.09 86.9614C121.018 86.9509 120.948 86.9464 120.877 86.9464ZM127.52 79.5525C127.058 79.5525 126.652 79.8904 126.583 80.3619C126.506 80.88 126.864 81.362 127.382 81.4385C129.011 81.6788 130.676 81.8229 132.33 81.865C132.337 81.865 132.345 81.865 132.352 81.865C132.672 81.865 132.957 81.7058 133.128 81.4611C133.232 81.3139 133.295 81.1352 133.3 80.94C133.313 80.4175 132.9 79.982 132.376 79.9684C130.801 79.9294 129.212 79.7928 127.658 79.563C127.612 79.5555 127.565 79.5525 127.52 79.5525ZM121.389 76.3181C121.366 76.3181 121.345 76.3181 121.324 76.3196C120.478 76.3541 119.818 77.0674 119.854 77.9158C119.887 78.7131 119.904 79.5165 119.904 80.3063C119.904 81.1532 120.59 81.8395 121.439 81.841C121.958 81.8395 122.418 81.5812 122.694 81.1863C122.87 80.937 122.973 80.6337 122.973 80.3048C122.973 79.4745 122.955 78.6276 122.921 77.7897C122.886 76.9638 122.207 76.3181 121.389 76.3181V76.3181ZM141.992 79.042C141.925 79.042 141.857 79.0495 141.788 79.0645C140.247 79.4024 138.674 79.6516 137.111 79.8018C136.588 79.8529 136.207 80.3168 136.258 80.8364C136.304 81.3274 136.717 81.6938 137.199 81.6938C137.229 81.6938 137.261 81.6923 137.292 81.6893C138.931 81.5316 140.581 81.2703 142.195 80.916C142.435 80.8634 142.635 80.7223 142.767 80.5361C142.914 80.3258 142.977 80.0571 142.917 79.7868C142.82 79.3438 142.428 79.042 141.992 79.042V79.042ZM151.123 75.8361C150.982 75.8361 150.84 75.8676 150.705 75.9337C149.295 76.6304 147.826 77.2476 146.341 77.7686C145.845 77.9413 145.587 78.4819 145.76 78.9759C145.896 79.3663 146.263 79.6111 146.655 79.6111C146.758 79.6111 146.865 79.5931 146.969 79.557C148.526 79.0105 150.065 78.3648 151.544 77.635C151.691 77.5614 151.811 77.4563 151.9 77.3302C152.092 77.0554 152.133 76.6875 151.973 76.3646C151.808 76.0298 151.472 75.8361 151.123 75.8361V75.8361ZM159.22 70.5355C159.004 70.5355 158.786 70.6091 158.609 70.7593C157.403 71.7758 156.127 72.7278 154.811 73.5882C154.374 73.878 154.251 74.4636 154.54 74.9006C154.721 75.1784 155.025 75.3301 155.332 75.3301C155.511 75.3301 155.691 75.279 155.852 75.1754C157.229 74.2729 158.568 73.2744 159.831 72.2083C159.894 72.1542 159.95 72.0927 159.995 72.0281C160.237 71.6842 160.228 71.2082 159.944 70.8719C159.756 70.6496 159.489 70.5355 159.22 70.5355V70.5355ZM97.0092 30.5437C96.5362 30.5437 96.0692 30.7614 95.7689 31.1729L95.7524 31.1969C95.2734 31.8801 95.4266 32.8231 96.1023 33.3172C97.4387 34.2947 98.7451 35.3398 99.9869 36.4209C100.277 36.6747 100.637 36.7993 100.994 36.7993C101.422 36.7993 101.849 36.6206 102.152 36.2722C102.188 36.2317 102.221 36.1896 102.251 36.1446C102.697 35.5109 102.601 34.628 102.004 34.107C100.697 32.9688 99.3202 31.8696 97.9147 30.841C97.6414 30.6398 97.3231 30.5437 97.0092 30.5437V30.5437ZM163.148 13.2469C162.923 13.2469 162.696 13.3265 162.515 13.4902C162.123 13.8385 162.094 14.4392 162.444 14.8281C162.957 15.3987 163.461 15.9933 163.938 16.5925C164.126 16.8282 164.402 16.9498 164.68 16.9498C164.887 16.9498 165.096 16.8822 165.27 16.7441C165.344 16.6855 165.404 16.6195 165.455 16.5459C165.69 16.211 165.689 15.7486 165.42 15.4107C164.919 14.7816 164.392 14.1583 163.852 13.5607C163.666 13.352 163.408 13.2469 163.148 13.2469V13.2469ZM155.736 6.80662C155.424 6.80662 155.115 6.96126 154.927 7.21803C154.634 7.65199 154.751 8.24064 155.185 8.53345C155.418 8.68961 155.648 8.84724 155.876 9.00791C156.957 9.76772 158.011 10.5921 159.01 11.457C159.19 11.6117 159.411 11.6882 159.631 11.6882C159.896 11.6882 160.16 11.5771 160.348 11.3624C160.369 11.3369 160.388 11.3114 160.408 11.2843C160.684 10.8924 160.623 10.3458 160.252 10.0245C159.205 9.11752 158.1 8.2526 156.966 7.45676C156.727 7.28858 156.487 7.12344 156.242 6.95977C156.086 6.85466 155.912 6.80662 155.736 6.80662V6.80662ZM290.812 411.423C290.752 411.084 290.692 410.728 290.635 410.355C290.761 409.764 290.825 409.145 290.825 408.511V393.357C293.677 376.166 305.574 351.92 344.747 330.01C398.794 299.78 384.326 250.627 374.708 229.453C374.144 228.21 373.018 227.63 371.896 227.63C370.46 227.63 369.032 228.581 368.798 230.312C365.221 256.717 344.409 265.32 297.706 308.962C295.202 311.302 292.912 313.662 290.825 316.032V204.048L328.345 200.873L345.881 199.39C346.151 199.367 346.367 199.147 346.398 198.861L346.647 196.468L346.434 196.293C346.426 196.266 346.411 196.239 346.387 196.217L326.733 177.169C330.975 172.152 342.457 158.553 342.504 158.222L342.662 155.252C342.666 155.16 342.651 155.075 342.62 154.995C342.669 154.787 342.513 154.56 342.276 154.56C342.265 154.56 342.255 154.561 342.243 154.561L290.825 158.911V147.746L383.53 140.044C383.948 140.009 384.344 139.849 384.662 139.586L392.143 133.381C428.47 211.7 426.76 310.605 374.995 367.192C372.366 368.053 369.714 368.406 367.028 368.406C360.982 368.406 354.763 366.62 348.241 364.833C341.72 363.048 334.897 361.262 327.64 361.262C323.626 361.262 319.48 361.809 315.181 363.203C292.489 370.56 292.174 398.832 293.142 410.973C292.36 411.129 291.584 411.279 290.812 411.423V411.423ZM300.893 409.265C303.524 407.031 309.299 404.996 321.199 403.056C314.282 405.66 307.454 407.68 300.893 409.265ZM290.825 102.952V90.5982L312.601 93.9723L330.503 96.7457C330.532 96.7502 330.562 96.7517 330.59 96.7517C330.835 96.7517 331.06 96.5911 331.149 96.3448L331.978 94.0173L331.802 93.7846C331.801 93.7546 331.793 93.723 331.774 93.6945L316.731 69.9319C320.967 66.8386 330.816 59.6354 335.052 56.4311C348.608 68.3837 357.161 78.4864 360.066 82.0062C363.858 86.598 367.478 91.376 370.914 96.2997L290.825 102.952" fill="url(#paint0_linear)"/>
<path d="M2.9221 70.7383C2.82781 70.7383 2.73216 70.7308 2.63606 70.7127C1.80312 70.5551 1.25475 69.7532 1.41151 68.9199C1.7327 67.2141 2.13318 65.4977 2.60122 63.8204C2.79042 63.1432 3.40697 62.6988 4.07818 62.6988C4.21498 62.6988 4.35387 62.7168 4.49217 62.7558C5.30828 62.9841 5.78519 63.8294 5.55755 64.6463C5.11308 66.238 4.73317 67.8672 4.4282 69.4874C4.38646 69.7097 4.29891 69.9124 4.17653 70.0851C3.89408 70.4875 3.42739 70.7383 2.9221 70.7383V70.7383ZM6.85897 57.9612C6.65385 57.9612 6.44543 57.9192 6.24557 57.8321C5.46895 57.4928 5.11428 56.5888 5.45364 55.811C6.14872 54.2208 6.92189 52.6381 7.75031 51.108C8.02585 50.5944 8.55381 50.3046 9.09889 50.3046C9.3468 50.3046 9.59817 50.3647 9.83121 50.4908C10.5762 50.8948 10.8529 51.8257 10.4491 52.572C9.66153 54.0256 8.92681 55.5287 8.26656 57.0408C8.22437 57.1369 8.17316 57.227 8.11475 57.3095C7.82479 57.7225 7.35134 57.9612 6.85897 57.9612V57.9612ZM13.5371 46.375C13.2217 46.375 12.9035 46.2774 12.6296 46.0762C11.9555 45.5806 11.8035 44.6391 12.2823 43.9574L12.3016 43.9319C13.3308 42.5294 14.4327 41.1554 15.5754 39.8506C15.879 39.5037 16.3041 39.3265 16.7313 39.3265C17.09 39.3265 17.4503 39.4511 17.7416 39.7064C18.3373 40.2275 18.4329 41.1074 17.9874 41.7411C17.9562 41.7861 17.9221 41.8297 17.886 41.8717C16.8001 43.112 15.7533 44.4154 14.775 45.7473C14.4746 46.1572 14.0091 46.375 13.5371 46.375" fill="#DEE8FD"/>
<path d="M100.994 36.7993C100.637 36.7993 100.276 36.6747 99.9866 36.4209C98.7448 35.3398 97.4384 34.2947 96.102 33.3171C95.4263 32.8231 95.2731 31.8801 95.7521 31.1969L95.7686 31.1728C96.069 30.7614 96.536 30.5437 97.009 30.5437C97.3228 30.5437 97.6411 30.6398 97.9144 30.841C99.3199 31.8696 100.697 32.9688 102.003 34.107C102.601 34.628 102.697 35.511 102.251 36.1446C102.221 36.1897 102.188 36.2317 102.152 36.2723C101.849 36.6206 101.422 36.7993 100.994 36.7993" fill="url(#paint1_linear)"/>
<path d="M22.6087 36.5547C22.1779 36.5547 21.7498 36.3745 21.4464 36.0231C20.8921 35.3819 20.9666 34.4149 21.6055 33.8578C22.9205 32.7227 24.301 31.631 25.7088 30.6129C25.9806 30.4162 26.2951 30.3216 26.6069 30.3216C27.0826 30.3216 27.5517 30.5423 27.8518 30.9583C28.2458 31.5018 28.2305 32.2181 27.8644 32.7392C27.7691 32.8758 27.6494 32.9974 27.5075 33.101C26.171 34.0666 24.8599 35.1041 23.6113 36.1823C23.3212 36.433 22.964 36.5547 22.6087 36.5547V36.5547ZM89.9988 29.1909C89.7541 29.1909 89.5048 29.1308 89.2721 29.0062C87.817 28.2209 86.3125 27.4896 84.8019 26.8334C84.0255 26.4956 83.6682 25.5916 84.006 24.8138C84.2598 24.2357 84.8229 23.8903 85.4145 23.8903C85.6187 23.8903 85.8259 23.9324 86.0256 24.018C87.6143 24.7087 89.197 25.4775 90.7301 26.3049C91.4764 26.7073 91.7542 27.6383 91.3518 28.3846C91.3218 28.4386 91.2902 28.4897 91.2557 28.5392C90.9629 28.9567 90.4884 29.1909 89.9988 29.1909V29.1909ZM33.6405 29.0167C33.09 29.0167 32.558 28.7209 32.2829 28.1999C31.886 27.4506 32.1715 26.5226 32.9209 26.1262C34.4564 25.3123 36.0462 24.5555 37.6449 23.8768C37.8407 23.7927 38.0442 23.7537 38.2443 23.7537C38.8415 23.7537 39.4093 24.1035 39.6576 24.6892C39.8731 25.1952 39.7949 25.7523 39.5001 26.1727C39.3409 26.3995 39.1192 26.5857 38.8456 26.7013C37.3264 27.347 35.8166 28.0662 34.3572 28.838C34.1283 28.9597 33.8825 29.0167 33.6405 29.0167V29.0167ZM77.6032 24.1967C77.4675 24.1967 77.3295 24.1786 77.1924 24.1396C75.6022 23.6996 73.9736 23.3227 72.3508 23.0194C71.5177 22.8647 70.968 22.0629 71.1233 21.2295C71.2617 20.4922 71.9062 19.9757 72.6312 19.9757C72.7243 19.9757 72.8186 19.9847 72.9135 20.0027C74.6224 20.3211 76.3378 20.7175 78.0121 21.1815C78.829 21.4082 79.3072 22.2536 79.0814 23.0705C79.033 23.2446 78.9568 23.4038 78.8584 23.5435C78.5731 23.9489 78.1034 24.1967 77.6032 24.1967V24.1967ZM46.0759 24.1171C45.399 24.1171 44.7792 23.6666 44.5945 22.9819C44.3735 22.1635 44.8584 21.3211 45.677 21.1004C47.3569 20.6469 49.0747 20.261 50.7812 19.9517C50.8737 19.9351 50.9658 19.9276 51.0566 19.9276C51.7843 19.9276 52.4304 20.4472 52.5645 21.189C52.6407 21.6094 52.5378 22.0208 52.31 22.3452C52.0861 22.6635 51.7414 22.8978 51.3277 22.9714C49.7058 23.2657 48.0733 23.632 46.4762 24.0645C46.3425 24.1005 46.208 24.1171 46.0759 24.1171V24.1171ZM64.3965 22.0989C64.3735 22.0989 64.3504 22.0989 64.3272 22.0974C63.4625 22.0584 62.5915 22.0389 61.7214 22.0389C60.9303 22.0389 60.1401 22.0554 59.355 22.0869C59.3338 22.0884 59.3127 22.0884 59.2918 22.0884C58.4727 22.0884 57.7925 21.4412 57.7588 20.6169C57.7252 19.77 58.3838 19.0552 59.2298 19.0207C60.0563 18.9861 60.8884 18.9696 61.7208 18.9696C62.6373 18.9696 63.5541 18.9907 64.4643 19.0312C65.3109 19.0687 65.9668 19.7865 65.9288 20.6334C65.9152 20.9352 65.8147 21.2145 65.6524 21.4457C65.3732 21.8421 64.9123 22.0989 64.3965 22.0989" fill="#DEE8FD"/>
<path d="M1.8928 81.4673C1.89009 81.4673 1.88724 81.4673 1.88439 81.4673C1.0372 81.4628 0.353386 80.772 0.35744 79.9252C0.361644 79.0918 0.38297 78.2464 0.421411 77.41C0.457448 76.5872 1.13721 75.9445 1.95256 75.9445C1.97628 75.9445 2.00016 75.946 2.02418 75.946C2.87062 75.985 3.5259 76.7028 3.48731 77.5497C3.45143 78.3455 3.4307 79.1488 3.42695 79.9402C3.4256 80.266 3.3226 80.5663 3.14887 80.8141C2.87107 81.209 2.41204 81.4673 1.8928 81.4673Z" fill="#DEE8FD"/>
<path d="M19.9539 124.632C19.5685 124.632 19.1824 124.488 18.8842 124.198C18.287 123.617 17.6918 123.013 17.1153 122.405C16.533 121.791 16.5567 120.821 17.1746 120.235C17.4713 119.954 17.8506 119.815 18.2295 119.815C18.6363 119.815 19.0425 119.977 19.3444 120.295C19.8915 120.873 20.4568 121.445 21.0243 121.996C21.5722 122.53 21.6368 123.372 21.2109 123.979C21.1647 124.045 21.1126 124.108 21.0546 124.168C20.7537 124.477 20.3541 124.632 19.9539 124.632" fill="url(#paint2_linear)"/>
<path d="M63.2194 141.564C62.3905 141.564 61.7084 140.903 61.6855 140.07C61.6626 139.223 62.3312 138.517 63.1783 138.494C64.8003 138.451 66.4421 138.338 68.0593 138.158C68.1169 138.152 68.1741 138.149 68.2307 138.149C69.0023 138.149 69.6671 138.729 69.7539 139.514C69.7971 139.901 69.6923 140.271 69.4846 140.565C69.2403 140.914 68.8535 141.158 68.3981 141.209C66.6965 141.399 64.968 141.517 63.2613 141.564C63.2473 141.564 63.2334 141.564 63.2194 141.564V141.564ZM55.0721 141.226C55.0159 141.226 54.9593 141.223 54.9021 141.217C53.2007 141.029 51.4877 140.766 49.8102 140.436C48.9788 140.272 48.4372 139.465 48.6011 138.633C48.745 137.903 49.3874 137.395 50.1059 137.395C50.2042 137.395 50.3038 137.404 50.4038 137.424C51.9962 137.738 53.6226 137.987 55.2391 138.166C56.0816 138.259 56.6892 139.017 56.5961 139.859C56.5665 140.125 56.471 140.367 56.3271 140.573C56.0466 140.972 55.5829 141.226 55.0721 141.226V141.226ZM76.2532 139.769C75.5662 139.769 74.941 139.305 74.7657 138.609C74.5585 137.786 75.0573 136.952 75.8798 136.747C77.4536 136.35 79.0316 135.882 80.5692 135.356C80.7344 135.299 80.9026 135.272 81.0678 135.272C81.7044 135.272 82.3005 135.673 82.5183 136.31C82.6835 136.793 82.5949 137.302 82.3216 137.691C82.1414 137.946 81.8831 138.151 81.5648 138.259C79.9458 138.813 78.2855 139.305 76.6288 139.723C76.5031 139.754 76.3771 139.769 76.2532 139.769V139.769ZM42.2284 138.341C42.0623 138.341 41.8934 138.314 41.7276 138.257C40.1134 137.7 38.5016 137.066 36.9365 136.374C36.1612 136.032 35.8106 135.125 36.1537 134.35C36.4069 133.778 36.9697 133.436 37.5594 133.436C37.7663 133.436 37.9765 133.478 38.1779 133.566C39.6646 134.225 41.1956 134.826 42.7289 135.355C43.53 135.631 43.9555 136.505 43.6791 137.307C43.631 137.446 43.565 137.574 43.4842 137.69C43.1968 138.098 42.7253 138.341 42.2284 138.341V138.341ZM88.5817 135.182C88.0201 135.182 87.4795 134.873 87.2092 134.338C86.8278 133.58 87.1342 132.658 87.891 132.276C89.3445 131.545 90.7815 130.745 92.163 129.898C92.4123 129.743 92.6901 129.671 92.9633 129.671C93.4799 129.671 93.9829 129.931 94.2727 130.402C94.6031 130.942 94.5625 131.604 94.2202 132.089C94.1046 132.255 93.9514 132.401 93.7682 132.514C92.3131 133.406 90.7995 134.248 89.2709 135.018C89.0487 135.129 88.813 135.182 88.5817 135.182ZM30.34 132.71C30.0657 132.71 29.788 132.637 29.5373 132.482C28.4656 131.823 27.4008 131.122 26.3733 130.401C26.0009 130.138 25.633 129.874 25.2683 129.605C24.5859 129.104 24.4199 128.141 24.942 127.461C25.2426 127.051 25.7076 126.835 26.1793 126.835C26.4951 126.835 26.8137 126.932 27.0877 127.133C27.434 127.387 27.7843 127.64 28.1379 127.889C29.1152 128.575 30.1265 129.242 31.1456 129.868C31.8676 130.312 32.0927 131.257 31.6485 131.979C31.6315 132.006 31.6143 132.033 31.5964 132.059C31.3006 132.479 30.8256 132.71 30.34 132.71V132.71ZM99.6019 128.015C99.1589 128.015 98.7189 127.824 98.4141 127.453C97.8765 126.799 97.9726 125.833 98.6273 125.294C99.8842 124.262 101.109 123.165 102.272 122.034C102.569 121.743 102.956 121.599 103.342 121.599C103.742 121.599 104.141 121.753 104.441 122.063C104.966 122.6 105.015 123.422 104.599 124.015C104.545 124.091 104.484 124.165 104.413 124.232C103.189 125.423 101.899 126.579 100.575 127.667C100.29 127.901 99.9442 128.015 99.6019 128.015V128.015ZM108.778 118.592C108.449 118.592 108.117 118.487 107.837 118.268C107.168 117.749 107.048 116.786 107.569 116.115C108.56 114.842 109.512 113.507 110.412 112.131C110.703 111.682 111.196 111.437 111.697 111.437C111.985 111.437 112.277 111.517 112.537 111.687C113.245 112.151 113.445 113.101 112.981 113.811C112.592 114.408 112.194 114.993 111.787 115.571C111.209 116.396 110.604 117.214 109.991 118.001C109.688 118.39 109.236 118.592 108.778 118.592ZM115.684 107.392C115.463 107.392 115.239 107.344 115.026 107.243C114.262 106.88 113.936 105.966 114.299 105.2C114.996 103.73 115.64 102.215 116.211 100.695C116.439 100.079 117.025 99.6995 117.648 99.6995C117.827 99.6995 118.01 99.731 118.187 99.7971C118.98 100.096 119.381 100.98 119.083 101.775C118.483 103.374 117.806 104.969 117.071 106.515C117.034 106.596 116.989 106.671 116.939 106.742C116.649 107.156 116.175 107.392 115.684 107.392V107.392ZM119.986 94.956C119.873 94.956 119.759 94.944 119.647 94.9185C118.819 94.7323 118.3 93.9109 118.487 93.0835C118.845 91.4979 119.138 89.8791 119.36 88.2709C119.466 87.5021 120.124 86.9466 120.878 86.9466C120.948 86.9466 121.019 86.9511 121.091 86.9616C121.93 87.0772 122.516 87.852 122.4 88.6914C122.166 90.3852 121.857 92.0895 121.482 93.7592C121.435 93.9605 121.352 94.1436 121.24 94.3028C120.956 94.7067 120.489 94.956 119.986 94.956Z" fill="url(#paint3_linear)"/>
<path d="M121.439 81.8411C120.591 81.8396 119.904 81.1533 119.904 80.3064C119.904 79.5166 119.888 78.7133 119.855 77.9159C119.819 77.0675 120.478 76.3543 121.325 76.3197C121.346 76.3182 121.367 76.3183 121.39 76.3183C122.208 76.3183 122.887 76.9639 122.921 77.7898C122.956 78.6277 122.974 79.4746 122.974 80.3049C122.974 80.6338 122.87 80.9371 122.694 81.1864C122.418 81.5813 121.959 81.8396 121.439 81.8411" fill="url(#paint4_linear)"/>
<path d="M104.107 62.5651C104.025 62.2693 103.764 62.0606 103.459 62.0426L94.7435 61.5351C92.7749 57.9643 90.2222 54.6818 87.1289 51.8483L88.6861 43.2637C88.7416 42.9619 88.599 42.6601 88.3317 42.5099L79.2004 37.3835C78.9336 37.2333 78.6009 37.2694 78.3724 37.4721L71.8545 43.2728C67.8239 42.1075 63.6927 41.6375 59.6195 41.8147L54.6478 34.6386C54.4734 34.3879 54.1589 34.2737 53.8643 34.3578L43.7825 37.1883C43.4878 37.2709 43.2781 37.5322 43.2603 37.837L42.7522 46.5537C39.1817 48.5223 35.8997 51.0735 33.0655 54.1683L24.4809 52.6096C24.1797 52.5556 23.8771 52.6967 23.7274 52.964L18.6005 62.0952C18.4508 62.3624 18.487 62.6943 18.6903 62.924L24.4902 69.4424C23.3247 73.4727 22.8547 77.6036 23.0332 81.6759L15.8567 86.6476C15.6052 86.8218 15.4918 87.1371 15.5747 87.4314L18.4064 97.5131C18.4891 97.8074 18.7498 98.0177 19.0551 98.0357L27.7709 98.5432C29.7393 102.114 32.2914 105.396 35.3851 108.23L33.8274 116.815C33.7726 117.116 33.9151 117.418 34.1819 117.568L43.3134 122.695C43.5802 122.845 43.9126 122.809 44.1412 122.606L50.6593 116.806C54.6898 117.971 58.821 118.441 62.894 118.264L67.8658 125.44C68.04 125.69 68.3546 125.805 68.6495 125.722L78.7313 122.89C79.0259 122.807 79.2355 122.546 79.2532 122.241L79.7614 113.525C83.3314 111.556 86.6139 109.005 89.4489 105.912L98.0334 107.469C98.3338 107.523 98.6371 107.382 98.7857 107.114L103.912 97.9831C104.062 97.7158 104.026 97.384 103.824 97.1542L98.0229 90.6373C99.1897 86.6056 99.6582 82.4747 99.481 78.4024L106.657 73.4306C106.908 73.2564 107.022 72.9411 106.939 72.6468L104.107 62.5651Z" fill="#91B3FA"/>
<path d="M53.1891 80.254C53.2463 82.4088 54.1391 84.4119 55.7038 85.8955C58.9326 88.9572 64.0514 88.822 67.1131 85.5921C70.1772 82.3637 70.0392 77.2448 66.8101 74.1831C63.5812 71.1213 58.4625 71.2565 55.4006 74.4864C55.123 74.7792 54.8704 75.0885 54.6426 75.4128C53.6531 76.8198 53.1428 78.5016 53.1891 80.254V80.254ZM68.8949 87.2829C64.901 91.4934 58.2258 91.6706 54.0138 87.6778C51.9733 85.7423 50.8086 83.1295 50.7343 80.3186C50.6594 77.5076 51.6833 74.8363 53.6188 72.7971C57.6127 68.5851 64.288 68.4079 68.5 72.4007C72.3316 76.0345 72.8241 81.8877 69.8739 86.0862C69.5816 86.5021 69.2548 86.903 68.8949 87.2829Z" fill="#BDD0FB"/>
<path d="M82.1906 95.0023C82.6966 94.2815 83.1697 93.5307 83.6081 92.7529C83.7448 92.5066 83.8784 92.2604 84.009 92.0096C84.6487 90.7798 85.1893 89.5005 85.6217 88.1926C85.6277 88.1746 85.6338 88.1565 85.6398 88.1385C85.6563 88.0875 85.6728 88.0379 85.6893 87.9869C85.7208 87.8878 85.7524 87.7887 85.7824 87.6896C85.8635 87.4283 85.7614 87.155 85.5497 87.0063C85.4986 86.9703 85.44 86.9417 85.377 86.9222C85.0526 86.8216 84.7103 87.0048 84.6097 87.3277C84.0961 88.9944 83.3979 90.6177 82.5375 92.1508C78.261 99.7698 70.514 104.237 62.3775 104.694C57.8519 104.947 53.2058 103.958 48.9688 101.579C48.2258 101.162 47.5092 100.711 46.8217 100.228C42.1936 96.9739 38.8528 92.2679 37.3027 86.748C35.5218 80.4083 36.3164 73.7533 39.5403 68.0112C46.1997 56.1532 61.2548 51.9277 73.1083 58.5828C73.8391 58.9927 74.5465 59.4387 75.2276 59.9177C78.1797 61.9929 80.6455 64.6912 82.4369 67.828C82.4834 67.9076 82.545 67.9752 82.6171 68.0247C82.8048 68.1569 83.0615 68.1779 83.2748 68.0563C83.5691 67.8866 83.6712 67.5127 83.503 67.2184C81.6215 63.9254 79.0332 61.0934 75.934 58.9146C75.2191 58.4116 74.4767 57.9431 73.7097 57.5121C61.2645 50.5252 45.4545 54.97 38.4696 67.4106C35.085 73.4395 34.251 80.4249 36.1206 87.0799C37.7479 92.8745 41.2551 97.8163 46.1137 101.231C46.8356 101.738 47.5878 102.211 48.3674 102.65C54.3963 106.034 61.3818 106.869 68.0376 105C73.8334 103.372 78.775 99.8629 82.1906 95.0023" fill="#BDD0FB"/>
<path d="M164.681 16.9497C164.403 16.9497 164.127 16.8281 163.939 16.5923C163.462 15.9932 162.959 15.3986 162.445 14.8279C162.095 14.439 162.124 13.8384 162.516 13.49C162.698 13.3264 162.924 13.2468 163.15 13.2468C163.409 13.2468 163.668 13.3519 163.854 13.5606C164.393 14.1582 164.92 14.7814 165.422 15.4106C165.69 15.7484 165.692 16.2109 165.456 16.5458C165.405 16.6194 165.345 16.6854 165.271 16.744C165.097 16.8821 164.888 16.9497 164.681 16.9497" fill="url(#paint5_linear)"/>
<path d="M97.1464 24.9819C97.0128 24.9819 96.8762 24.9534 96.747 24.8934C96.271 24.6711 96.0668 24.108 96.289 23.6335C96.9017 22.3196 97.5969 21.0178 98.3537 19.7654C98.4663 19.5747 98.5835 19.387 98.7006 19.1993C98.8703 18.9095 99.1796 18.7534 99.4964 18.7534C99.6721 18.7534 99.8493 18.8014 100.007 18.9005C100.451 19.1783 100.585 19.7639 100.307 20.2069C100.196 20.3826 100.087 20.5613 99.9784 20.743C99.2547 21.9412 98.591 23.1831 98.0053 24.4354C97.9813 24.4864 97.9528 24.5345 97.9228 24.5795C97.7426 24.8363 97.4498 24.9819 97.1464 24.9819V24.9819ZM102.367 16.6391C102.157 16.6391 101.947 16.5686 101.771 16.4259C101.364 16.0971 101.309 15.5054 101.633 15.0925C102.693 13.7876 103.844 12.5383 105.049 11.3791C105.233 11.2034 105.47 11.1148 105.706 11.1148C105.955 11.1148 106.204 11.2124 106.39 11.4076C106.709 11.7395 106.737 12.244 106.482 12.6074C106.447 12.6569 106.408 12.7035 106.363 12.747C105.211 13.8507 104.115 15.043 103.105 16.2893C102.917 16.519 102.644 16.6391 102.367 16.6391" fill="#DEE8FD"/>
<path d="M159.632 11.6885C159.412 11.6885 159.191 11.6119 159.011 11.4572C158.012 10.5923 156.958 9.76795 155.877 9.00815C155.649 8.84748 155.419 8.68982 155.186 8.53365C154.752 8.24085 154.635 7.6522 154.928 7.21824C155.116 6.96147 155.425 6.80683 155.737 6.80683C155.913 6.80683 156.087 6.85487 156.243 6.95998C156.488 7.12366 156.728 7.28882 156.967 7.457C158.101 8.25284 159.206 9.11775 160.253 10.0247C160.624 10.346 160.685 10.8926 160.409 11.2845C160.389 11.3116 160.37 11.3371 160.349 11.3626C160.161 11.5773 159.897 11.6885 159.632 11.6885" fill="url(#paint6_linear)"/>
<path d="M109.467 9.82495C109.179 9.82495 108.894 9.69281 108.707 9.44354C108.395 9.0246 108.481 8.43296 108.9 8.11762C110.242 7.11456 111.663 6.18659 113.122 5.35771C113.269 5.27362 113.43 5.23307 113.589 5.23307C113.919 5.23307 114.239 5.40576 114.414 5.71208C114.601 6.04243 114.57 6.43584 114.365 6.72715C114.287 6.83827 114.185 6.93437 114.059 7.00495C112.669 7.79629 111.314 8.68071 110.033 9.63573C109.864 9.76336 109.666 9.82495 109.467 9.82495V9.82495ZM150.747 5.95383C149.407 5.28712 148.019 4.6925 146.617 4.18647C146.124 4.00778 145.869 3.46569 146.047 2.97317C146.187 2.58876 146.55 2.34701 146.939 2.34701C147.046 2.34701 147.154 2.36502 147.261 2.40406C148.836 2.97166 150.393 3.64589 151.892 4.40569C152.321 4.62493 152.513 5.12645 152.356 5.57092C151.818 5.69556 151.28 5.82469 150.747 5.95383" fill="#DEE8FD"/>
<path d="M151.461 6.2002C151.315 6.2002 151.17 6.16716 151.033 6.09658C150.937 6.04853 150.842 6.00048 150.746 5.95394C151.279 5.8248 151.817 5.69567 152.354 5.57104C152.341 5.60858 152.324 5.64463 152.306 5.68067C152.285 5.72271 152.261 5.76173 152.236 5.79777C152.056 6.05453 151.763 6.2002 151.461 6.2002" fill="url(#paint7_linear)"/>
<path d="M118.015 4.96289C117.644 4.96289 117.291 4.74215 117.14 4.37876C116.938 3.89525 117.167 3.33966 117.652 3.13995C119.198 2.49577 120.803 1.9417 122.419 1.49122C122.503 1.46869 122.589 1.45667 122.673 1.45667C123.089 1.45667 123.47 1.73145 123.586 2.15039C123.665 2.4357 123.605 2.72702 123.449 2.95076C123.328 3.12344 123.147 3.25708 122.927 3.31865C121.385 3.7481 119.854 4.27666 118.378 4.88931C118.26 4.93886 118.137 4.96289 118.015 4.96289ZM142.203 2.85916C142.134 2.85916 142.064 2.85166 141.994 2.83664C140.434 2.48377 138.836 2.2255 137.241 2.06933C136.72 2.01828 136.34 1.55429 136.391 1.03323C136.439 0.542212 136.851 0.177325 137.333 0.177325C137.364 0.177325 137.396 0.178803 137.428 0.183308C139.099 0.346981 140.776 0.617268 142.411 0.98666C142.922 1.10228 143.243 1.60982 143.128 2.12036C143.099 2.245 143.048 2.35762 142.979 2.45673C142.803 2.70599 142.513 2.85916 142.203 2.85916V2.85916ZM127.494 2.3261C127.032 2.3261 126.628 1.98823 126.557 1.51823C126.481 1.00168 126.837 0.518186 127.355 0.440103C129.011 0.192341 130.702 0.0436711 132.382 0.000124857C132.391 0.000124857 132.399 0.000124857 132.408 0.000124857C132.92 0.000124857 133.342 0.410054 133.355 0.9251C133.36 1.13532 133.295 1.33204 133.183 1.49271C133.016 1.72997 132.743 1.88764 132.43 1.89665C130.83 1.93719 129.215 2.07832 127.637 2.31557C127.589 2.32308 127.541 2.3261 127.494 2.3261" fill="#DEE8FD"/>
<path d="M132.353 81.865C132.345 81.865 132.338 81.865 132.33 81.865C130.677 81.8229 129.012 81.6788 127.382 81.4385C126.864 81.362 126.507 80.88 126.584 80.3619C126.653 79.8904 127.058 79.5525 127.521 79.5525C127.566 79.5525 127.612 79.5555 127.659 79.563C129.213 79.7928 130.802 79.9294 132.377 79.9685C132.901 79.982 133.314 80.4175 133.3 80.94C133.296 81.1352 133.233 81.3139 133.129 81.4611C132.958 81.7058 132.673 81.865 132.353 81.865ZM137.2 81.6938C136.718 81.6938 136.305 81.3274 136.258 80.8364C136.207 80.3169 136.589 79.8529 137.111 79.8018C138.674 79.6516 140.248 79.4024 141.789 79.0645C141.858 79.0495 141.925 79.042 141.993 79.042C142.428 79.042 142.82 79.3438 142.918 79.7868C142.978 80.0571 142.915 80.3259 142.768 80.5361C142.636 80.7223 142.436 80.8634 142.196 80.916C140.581 81.2703 138.931 81.5316 137.293 81.6893C137.261 81.6923 137.23 81.6938 137.2 81.6938V81.6938ZM146.655 79.6111C146.263 79.6111 145.897 79.3663 145.76 78.9759C145.588 78.4819 145.846 77.9413 146.341 77.7686C147.827 77.2476 149.295 76.6305 150.705 75.9337C150.84 75.8676 150.983 75.8361 151.124 75.8361C151.472 75.8361 151.809 76.0298 151.974 76.3647C152.133 76.6875 152.093 77.0554 151.9 77.3302C151.812 77.4563 151.692 77.5614 151.544 77.635C150.065 78.3648 148.526 79.0105 146.969 79.557C146.866 79.5931 146.759 79.6111 146.655 79.6111V79.6111ZM155.333 75.3301C155.025 75.3301 154.722 75.1784 154.54 74.9006C154.252 74.4636 154.375 73.878 154.812 73.5882C156.127 72.7278 157.404 71.7758 158.609 70.7592C158.787 70.6091 159.004 70.5355 159.221 70.5355C159.489 70.5355 159.757 70.6496 159.944 70.8719C160.228 71.2082 160.237 71.6842 159.995 72.0281C159.95 72.0927 159.895 72.1542 159.832 72.2083C158.569 73.2744 157.229 74.273 155.853 75.1754C155.692 75.279 155.512 75.3301 155.333 75.3301V75.3301ZM162.724 69.0805C162.494 69.0805 162.263 68.9964 162.081 68.8282C161.697 68.4723 161.679 67.8732 162.029 67.4873C163.027 66.4091 163.975 65.2604 164.849 64.0712L166.177 65.4616C165.317 66.6133 164.392 67.726 163.421 68.7756C163.234 68.9768 162.979 69.0805 162.724 69.0805Z" fill="url(#paint8_linear)"/>
<path d="M161.796 29.0798C161.741 28.883 161.566 28.7419 161.362 28.7314L155.53 28.3905C154.213 26.0015 152.506 23.8047 150.435 21.9082L151.477 16.1646C151.513 15.9634 151.419 15.7607 151.24 15.6601L145.13 12.2289C144.951 12.1298 144.729 12.1539 144.576 12.289L140.214 16.1706C137.517 15.3913 134.753 15.0759 132.027 15.1961L128.701 10.394C128.584 10.2243 128.374 10.1492 128.176 10.2048L121.431 12.0998C121.232 12.1554 121.093 12.3295 121.081 12.5337L120.741 18.3659C118.351 19.6828 116.155 21.3901 114.259 23.4608L108.514 22.4187C108.313 22.3827 108.11 22.4773 108.009 22.656L104.58 28.7659C104.479 28.9446 104.503 29.1668 104.64 29.32L108.52 33.6821C107.741 36.379 107.427 39.1434 107.545 41.8688L102.743 45.1948C102.575 45.3119 102.498 45.5222 102.554 45.7204L104.449 52.467C104.505 52.6637 104.679 52.8034 104.883 52.8154L110.715 53.1562C112.034 55.5452 113.741 57.7406 115.812 59.6371L114.768 65.3821C114.732 65.5834 114.827 65.7861 115.005 65.8867L121.117 69.3163C121.294 69.4169 121.518 69.3929 121.669 69.2562L126.031 65.3762C128.728 66.1555 131.493 66.4693 134.218 66.3507L137.546 71.1528C137.663 71.3209 137.873 71.3975 138.07 71.3419L144.816 69.447C145.013 69.3914 145.154 69.2172 145.166 69.013L145.505 63.1808C147.894 61.8639 150.091 60.1551 151.988 58.0844L157.731 59.128C157.933 59.1641 158.135 59.0695 158.236 58.8908L161.667 52.7793C161.766 52.6021 161.742 52.3784 161.607 52.2267L157.725 47.8646C158.506 45.1678 158.82 42.4034 158.7 39.678L163.502 36.3505C163.672 36.2348 163.747 36.0231 163.691 35.8264L161.796 29.0798" fill="#91B3FA"/>
<path d="M129.493 44.6002C130.516 45.5702 131.854 46.0838 133.262 46.0462C134.671 46.0087 135.98 45.4246 136.95 44.402C137.917 43.3794 138.432 42.0415 138.395 40.633C138.357 39.2245 137.773 37.9152 136.752 36.9466C134.641 34.945 131.297 35.0336 129.295 37.1433C129.115 37.334 128.951 37.5338 128.804 37.7425C127.326 39.8462 127.573 42.7803 129.493 44.6002ZM138.326 45.7069C137.007 47.0974 135.228 47.8902 133.312 47.9412C131.399 47.9923 129.579 47.2941 128.188 45.9757C125.32 43.2563 125.2 38.717 127.919 35.8385C130.64 32.9704 135.187 32.8503 138.055 35.5697C139.446 36.8881 140.239 38.6674 140.29 40.582C140.332 42.1391 139.878 43.6332 138.998 44.884C138.795 45.1708 138.572 45.4471 138.326 45.7069" fill="#BDD0FB"/>
<path d="M147.579 51.0795C147.924 50.5885 148.247 50.0765 148.547 49.5434C149.142 48.4833 149.63 47.3616 149.998 46.2068C150.014 46.1543 150.031 46.1033 150.047 46.0507C150.172 45.6483 150.014 45.2263 149.687 44.9966C149.607 44.9395 149.517 44.896 149.42 44.8659C148.92 44.7113 148.391 44.9936 148.235 45.4921C147.901 46.5732 147.449 47.6244 146.894 48.6139C146.862 48.6695 146.831 48.7235 146.801 48.7761C145.461 51.1081 143.593 53.0181 141.362 54.3905C140.15 55.1353 138.832 55.7209 137.431 56.1279L137.396 56.1384C137.362 56.1474 137.327 56.1579 137.293 56.1669C133.187 57.3201 128.879 56.8066 125.163 54.7179C124.681 54.4491 124.218 54.1563 123.772 53.8439C120.777 51.7372 118.614 48.6905 117.61 45.1167C116.457 41.0129 116.972 36.7048 119.059 32.9884C121.146 29.275 124.556 26.5886 128.66 25.4354C132.764 24.2822 137.072 24.7972 140.79 26.8844C141.263 27.1487 141.721 27.4385 142.162 27.7478C144.072 29.0918 145.669 30.8381 146.829 32.8683C146.9 32.9929 146.996 33.0965 147.107 33.1731C147.397 33.3773 147.792 33.4088 148.122 33.2211C148.576 32.9599 148.735 32.3832 148.474 31.9267C147.176 29.6548 145.391 27.7013 143.253 26.1982C142.76 25.8513 142.248 25.5285 141.718 25.2312C137.559 22.8962 132.74 22.3196 128.147 23.6095C123.556 24.9008 119.739 27.8965 117.406 32.0604C115.071 36.2183 114.494 41.0369 115.785 45.6303C116.907 49.6275 119.328 53.0361 122.679 55.3921C123.178 55.7419 123.696 56.0693 124.233 56.3711C132.286 60.8924 142.38 58.4778 147.579 51.0795" fill="#BDD0FB"/>
<path d="M283.602 416.299C283.518 416.299 283.434 416.297 283.35 416.294L279.222 416.143C277.317 416.071 275.497 415.234 274.081 413.932C272.397 412.383 271.286 410.174 271.286 407.804V205.701L290.826 204.048V316.032C251.911 360.222 282.913 408.388 287.388 414.841C287.437 414.913 287.493 414.982 287.551 415.047C286.415 415.817 285.068 416.299 283.602 416.299ZM290.636 410.356C290.014 406.325 289.652 400.441 290.826 393.358V408.512C290.826 409.145 290.762 409.764 290.636 410.356V410.356ZM271.286 160.566V149.368L290.826 147.746V158.912L271.286 160.566ZM271.286 104.575V87.5727L290.826 90.5984V102.952L271.286 104.575ZM290.826 43.8794L271.286 40.8522V32.2331L290.826 31.595V43.8794Z" fill="url(#paint9_linear)"/>
<path d="M298.683 18.0732C298.683 24.4339 295.451 30.1264 290.583 33.4765C287.844 35.3625 284.589 36.5037 281.104 36.6073C279.374 36.6584 277.7 36.4542 276.125 36.0202C274.937 35.6958 273.805 35.2439 272.737 34.6778C272.468 34.5306 272.198 34.3849 271.934 34.2213C266.956 31.2226 263.646 25.6817 263.646 19.2444C263.646 9.35946 271.45 1.06468 281.104 0.707298C290.795 0.34992 298.683 8.12064 298.683 18.0732" fill="url(#paint10_linear)"/>
<path d="M290.635 17.42C290.635 22.3647 288.123 26.7929 284.339 29.3951C282.208 30.8622 279.678 31.7496 276.967 31.8307C275.623 31.8713 274.322 31.7121 273.096 31.3742C272.173 31.122 271.293 30.7691 270.463 30.3306C270.254 30.2165 270.044 30.1024 269.839 29.9747C265.968 27.6443 263.395 23.3362 263.395 18.3299C263.395 10.6463 269.462 4.19697 276.967 3.91917C284.502 3.64138 290.635 9.68227 290.635 17.42" fill="url(#paint11_linear)"/>
<path d="M330.59 96.752C330.561 96.752 330.531 96.7504 330.503 96.7459L312.601 93.9725L290.825 90.5984L271.285 87.5727L173.31 72.3946C172.92 72.3346 172.561 72.1454 172.283 71.8556L166.176 65.4618L164.848 64.0714L149.883 48.4053C149.59 48.0974 149.435 47.6725 149.461 47.2355L149.582 45.0642L149.719 45.1348C149.725 45.1829 149.745 45.2279 149.781 45.2654L173.211 68.9951C173.534 69.3239 173.949 69.5371 174.398 69.6062L331.611 93.9605C331.618 93.962 331.627 93.962 331.635 93.962C331.731 93.962 331.803 93.8764 331.801 93.7848L331.977 94.0175L331.148 96.345C331.06 96.5913 330.834 96.752 330.59 96.752V96.752ZM316.73 69.932L315.94 68.6842C315.74 68.3689 315.822 67.9424 316.122 67.7232L338.047 51.6832L337.045 54.8531C337.016 54.9237 336.264 55.5138 335.051 56.4313C330.815 59.6356 320.966 66.8388 316.73 69.932" fill="url(#paint12_linear)"/>
<path d="M331.636 93.9617C331.628 93.9617 331.619 93.9617 331.612 93.9602L174.398 69.6059C173.949 69.5368 173.535 69.3236 173.212 68.9948L149.781 45.2652C149.745 45.2276 149.726 45.1826 149.72 45.1345C149.712 45.052 149.748 44.9649 149.826 44.9183L179.664 27.159C180.001 26.9578 180.379 26.8542 180.761 26.8542C180.867 26.8542 180.974 26.8632 181.08 26.8797L271.285 40.852L290.825 43.8792L326.785 49.4501L338.195 51.2175C338.34 51.24 338.384 51.4382 338.261 51.5268L338.047 51.683L316.123 67.7229C315.822 67.9421 315.741 68.3686 315.941 68.6839L316.731 69.9317L331.774 93.6944C331.793 93.7229 331.801 93.7544 331.802 93.7845C331.804 93.8761 331.732 93.9617 331.636 93.9617V93.9617ZM185.073 51.6199C184.795 51.6199 184.549 51.8226 184.504 52.1064L183.965 55.5255C183.915 55.8379 184.132 56.1337 184.444 56.1832L260.27 68.1479C260.3 68.1524 260.328 68.1554 260.358 68.1554C260.636 68.1554 260.882 67.9512 260.927 67.6689L261.466 64.2498C261.516 63.9374 261.301 63.6416 260.987 63.5921L185.163 51.6274C185.133 51.6229 185.103 51.6199 185.073 51.6199ZM187.386 38.7393C187.108 38.7393 186.861 38.942 186.818 39.2243L186.238 42.8927C186.189 43.205 186.405 43.5008 186.717 43.5504L263.154 55.6111C263.184 55.6156 263.214 55.6186 263.243 55.6186C263.521 55.6186 263.767 55.4144 263.812 55.1321L264.39 51.4652C264.44 51.1529 264.225 50.8556 263.913 50.806L187.476 38.7453C187.446 38.7408 187.416 38.7393 187.386 38.7393" fill="#FF7542"/>
<path d="M163.251 191.989L164.844 192.379L187.68 169.354L323.808 156.883L341.976 154.614C342.353 154.566 342.682 154.872 342.662 155.252L342.505 158.223C342.447 158.628 325.182 179.001 325.182 179.001L346.647 196.468L346.398 198.861C346.368 199.147 346.152 199.367 345.882 199.39L328.346 200.874L191.916 212.418C191.533 212.449 191.152 212.353 190.823 212.141L164.301 195.083C163.952 194.86 163.71 194.492 163.634 194.073L163.251 191.989" fill="#7D97F4"/>
<path d="M188.812 167.544L342.243 154.561C342.559 154.534 342.748 154.902 342.545 155.144L325.651 175.213C325.419 175.488 325.442 175.917 325.699 176.166L346.388 196.217C346.49 196.315 346.428 196.487 346.287 196.499L192.304 209.527C191.864 209.565 191.424 209.458 191.042 209.222L163.484 192.134C163.365 192.061 163.347 191.894 163.446 191.796L187.539 168.134C187.887 167.792 188.335 167.585 188.812 167.544" fill="#7C7CD9"/>
<path d="M194.375 183.927C194.079 183.927 193.825 183.697 193.801 183.396L193.493 179.458C193.468 179.141 193.706 178.863 194.022 178.839L279.542 172.154C279.557 172.153 279.572 172.153 279.587 172.153C279.882 172.153 280.136 172.382 280.16 172.683L280.468 176.621C280.494 176.937 280.255 177.216 279.94 177.24L194.42 183.925C194.405 183.926 194.39 183.927 194.375 183.927Z" fill="#CFDEFD"/>
<path d="M195.117 197.37C194.821 197.37 194.568 197.141 194.544 196.84L194.257 193.164C194.231 192.848 194.47 192.57 194.785 192.546L279.622 185.913C279.637 185.913 279.652 185.912 279.667 185.912C279.964 185.912 280.218 186.143 280.241 186.443L280.529 190.119C280.553 190.434 280.314 190.712 279.999 190.738L195.162 197.369C195.147 197.37 195.132 197.37 195.117 197.37" fill="#CFDEFD"/>
<path d="M214.976 154.043C214.701 154.043 214.456 153.871 214.38 153.614L213.695 151.317L213.907 151.097C213.898 151.192 213.97 151.285 214.074 151.285C214.08 151.285 214.084 151.285 214.089 151.284L382.61 137.286C383.091 137.247 383.547 137.065 383.918 136.768L410.704 115.271C410.744 115.238 410.768 115.194 410.777 115.149L410.93 115.089L410.879 117.193C410.869 117.616 410.671 118.017 410.334 118.297L392.144 133.382L384.663 139.586C384.345 139.849 383.948 140.01 383.531 140.044L290.826 147.746L271.286 149.368L234.22 152.447L215.032 154.04C215.012 154.042 214.994 154.043 214.976 154.043V154.043ZM231.849 128.976C226.408 124.781 211.662 113.388 211.554 113.073L210.707 109.823L210.745 109.822C210.722 109.928 210.755 110.047 210.857 110.125L232.672 126.886C232.97 127.113 233.019 127.537 232.783 127.827L231.849 128.976" fill="url(#paint13_linear)"/>
<path d="M214.073 151.285C213.969 151.285 213.897 151.192 213.906 151.097C213.911 151.067 213.921 151.037 213.944 151.01L231.849 128.976L232.783 127.827C233.019 127.537 232.969 127.112 232.672 126.886L210.857 110.125C210.755 110.047 210.722 109.928 210.744 109.822C210.771 109.7 210.869 109.593 211.016 109.581L271.285 104.575L290.825 102.952L370.914 96.2997L379.081 95.621C379.149 95.615 379.217 95.612 379.284 95.612C379.738 95.612 380.181 95.7381 380.559 95.9769L410.684 114.934C410.76 114.982 410.792 115.07 410.777 115.149C410.768 115.194 410.744 115.238 410.703 115.271L383.918 136.768C383.547 137.065 383.091 137.247 382.61 137.286L214.088 151.283C214.084 151.285 214.079 151.285 214.073 151.285V151.285ZM376.515 120.921C376.5 120.921 376.485 120.923 376.47 120.923L293.609 127.401C293.294 127.425 293.055 127.704 293.081 128.019L293.38 131.845C293.404 132.146 293.656 132.375 293.953 132.375C293.968 132.375 293.983 132.375 293.998 132.374L376.859 125.896C377.176 125.872 377.413 125.594 377.389 125.277L377.089 121.453C377.066 121.151 376.812 120.921 376.515 120.921V120.921ZM376.378 106.737C376.363 106.737 376.348 106.739 376.333 106.74L292.804 113.269C292.489 113.293 292.252 113.573 292.276 113.888L292.596 117.984C292.62 118.285 292.874 118.516 293.169 118.516C293.184 118.516 293.199 118.514 293.214 118.513L376.743 111.984C377.059 111.96 377.297 111.682 377.272 111.365L376.952 107.269C376.928 106.969 376.676 106.737 376.378 106.737Z" fill="#6564C4"/>
<path d="M293.17 118.516C292.874 118.516 292.62 118.285 292.596 117.984L292.276 113.888C292.252 113.573 292.489 113.293 292.805 113.269L376.333 106.74C376.348 106.739 376.363 106.737 376.378 106.737C376.676 106.737 376.928 106.969 376.952 107.269L377.272 111.365C377.297 111.682 377.059 111.96 376.743 111.984L293.215 118.513C293.2 118.514 293.185 118.516 293.17 118.516Z" fill="url(#paint14_linear)"/>
<path d="M293.952 132.375C293.655 132.375 293.403 132.146 293.379 131.845L293.08 128.019C293.054 127.704 293.293 127.425 293.609 127.401L376.469 120.923C376.484 120.923 376.499 120.921 376.514 120.921C376.812 120.921 377.065 121.151 377.088 121.453L377.388 125.278C377.412 125.594 377.175 125.872 376.858 125.896L293.997 132.374C293.982 132.375 293.967 132.375 293.952 132.375" fill="url(#paint15_linear)"/>
<path d="M286.988 65.0412C286.988 68.3372 284.316 71.0085 281.02 71.0085C277.726 71.0085 275.055 68.3372 275.055 65.0412C275.055 61.7468 277.726 59.0754 281.02 59.0754C284.316 59.0754 286.988 61.7468 286.988 65.0412Z" fill="url(#paint16_linear)"/>
<path d="M285.09 64.0923C285.09 66.115 283.45 67.7532 281.427 67.7532C279.405 67.7532 277.767 66.115 277.767 64.0923C277.767 62.0697 279.405 60.4315 281.427 60.4315C283.45 60.4315 285.09 62.0697 285.09 64.0923Z" fill="url(#paint17_linear)"/>
<path d="M285.822 125.647C285.822 128.821 283.249 131.395 280.075 131.395C276.901 131.395 274.327 128.821 274.327 125.647C274.327 122.474 276.901 119.9 280.075 119.9C283.249 119.9 285.822 122.474 285.822 125.647Z" fill="url(#paint18_linear)"/>
<path d="M283.993 124.732C283.993 126.681 282.415 128.26 280.468 128.26C278.52 128.26 276.94 126.681 276.94 124.732C276.94 122.785 278.52 121.207 280.468 121.207C282.415 121.207 283.993 122.785 283.993 124.732Z" fill="url(#paint19_linear)"/>
<path d="M286.4 180.006C286.4 183.303 283.727 185.976 280.429 185.976C277.132 185.976 274.459 183.303 274.459 180.006C274.459 176.708 277.132 174.035 280.429 174.035C283.727 174.035 286.4 176.708 286.4 180.006Z" fill="url(#paint20_linear)"/>
<path d="M284.499 179.057C284.499 181.08 282.859 182.719 280.835 182.719C278.812 182.719 277.171 181.08 277.171 179.057C277.171 177.033 278.812 175.393 280.835 175.393C282.859 175.393 284.499 177.033 284.499 179.057Z" fill="url(#paint21_linear)"/>
<path d="M263.243 55.6187C263.214 55.6187 263.184 55.6156 263.154 55.6111L186.718 43.5504C186.405 43.5009 186.189 43.2051 186.239 42.8927L186.818 39.2244C186.862 38.9421 187.108 38.7394 187.386 38.7394C187.416 38.7394 187.446 38.7409 187.476 38.7454L263.913 50.8061C264.225 50.8556 264.44 51.1529 264.39 51.4653L263.812 55.1321C263.767 55.4144 263.521 55.6187 263.243 55.6187" fill="url(#paint22_linear)"/>
<path d="M260.358 68.1555C260.328 68.1555 260.3 68.1525 260.27 68.148L184.444 56.1833C184.132 56.1338 183.916 55.838 183.965 55.5256L184.504 52.1065C184.549 51.8227 184.795 51.62 185.073 51.62C185.103 51.62 185.133 51.623 185.163 51.6275L260.987 63.5922C261.301 63.6417 261.516 63.9376 261.467 64.2499L260.927 67.669C260.882 67.9513 260.636 68.1555 260.358 68.1555Z" fill="url(#paint23_linear)"/>
<path d="M152.889 225.561C105.573 224.328 53.2306 237.038 53.2306 237.038C40.7695 305.8 46.252 383.578 48.3734 407.134C48.7707 411.545 52.0705 415.127 56.4269 415.928C80.8775 420.422 106.663 417.695 119.635 415.721C124.68 414.953 128.715 411.142 129.787 406.152C138.358 366.254 162.846 278.234 162.846 278.234C185.995 275.585 205.107 269.095 220.877 260.425C209.044 246.442 203.571 228.741 201.221 218.286C184.441 223.325 167.483 225.941 152.889 225.561" fill="#6564C4"/>
<path d="M293.34 157.191C288.745 151.531 284.429 151.776 284.429 151.776C277.184 181.126 238.849 206.985 201.222 218.286C203.572 228.742 209.045 246.442 220.877 260.425C283.47 226.015 293.34 157.191 293.34 157.191Z" fill="url(#paint24_linear)"/>
<path d="M292.197 158.607C292.669 160.158 287.014 162.458 283.758 156.102C283.671 153.071 281.952 140.067 283.785 137.615C293.558 124.555 312.418 108.248 312.418 108.248C315.55 111.397 312.916 114.436 312.916 114.436L303.752 123.802C305.618 127.248 307.905 130.165 308.95 134.323C309.742 137.472 309.207 140.825 307.593 143.669C305.973 146.522 303.765 150.231 301.683 153.131C297.743 158.619 292.197 158.607 292.197 158.607Z" fill="url(#paint25_linear)"/>
<path d="M299.725 129.895L291.39 136.826L288.728 143.779L296.021 152.027C296.021 152.027 298.632 138.205 300.503 135.226C302.374 132.246 301.432 130.788 299.725 129.895" fill="url(#paint26_linear)"/>
<path d="M70.9456 283.033L53.2315 237.038C53.2315 237.038 8.74211 266.649 1.10938 304.659C9.45581 305.354 24.633 307.672 39.4376 315.324C42.8781 297.376 70.9456 283.033 70.9456 283.033" fill="#6564C4"/>
<path d="M109.162 326.52C109.162 326.52 59.2663 354.094 42.7493 329.985C39.3203 324.978 38.536 320.029 39.4376 315.325C24.633 307.672 9.45581 305.354 1.10938 304.659C-1.19165 316.119 -0.149692 328.339 6.47832 340.743C35.2989 394.68 115.613 338.818 115.613 338.818L109.162 326.52" fill="url(#paint27_linear)"/>
<path d="M105.321 186.685L89.8471 230.087C89.5918 230.805 89.8801 231.606 90.5453 231.983C94.6281 234.291 109.353 240.991 127.282 229.863C129.15 228.704 130.432 226.797 130.734 224.62L135.97 186.976L105.321 186.685" fill="url(#paint28_linear)"/>
<path d="M138.469 146.672C138.469 146.672 154.707 177.955 152.468 190.508C150.227 203.061 129.744 201.962 111.948 191.58L99.7637 157.853L138.469 146.672" fill="url(#paint29_linear)"/>
<path d="M112.894 175.084C113.626 174.768 113.902 173.881 113.472 173.211C112.168 171.175 109.723 167.022 108.966 163.4C108.966 163.4 106.011 161.469 116.573 159.047C127.135 156.625 142.887 152.859 146.276 143.921C149.58 135.206 141.328 113.133 127.661 130.527C127.141 131.189 126.135 131.195 125.628 130.523C123.443 127.622 117.681 121.587 109.57 125.135C101.978 128.453 101.074 133.985 101.15 136.778C101.173 137.6 100.433 138.232 99.6278 138.07C95.8123 137.304 86.6466 136.591 82.277 145.959C78.6765 153.674 80.927 158.083 82.9932 160.248C83.6629 160.949 83.3551 162.092 82.4256 162.367C79.906 163.112 76.6427 165.211 76.911 171.099C77.2824 179.239 86.3853 178.608 88.9786 178.261C89.4035 178.206 89.83 178.356 90.1138 178.676C92.3106 181.155 102.215 191.684 113.031 193.044C113.968 193.163 114.704 192.244 114.405 191.348L109.849 177.682C109.637 177.046 109.947 176.356 110.561 176.09L112.894 175.084" fill="#2D2D9A"/>
<path d="M114.761 177.034C114.761 177.034 103.066 168.844 102.14 175.639C101.216 182.432 112.648 185.593 118.349 183.111L114.761 177.034" fill="url(#paint30_linear)"/>
<path d="M98.9642 370.098L126.145 275.176C126.454 274.1 127.373 273.314 128.486 273.184C133.411 272.61 147.68 270.996 164.156 269.602C184.002 267.924 207.049 266.563 220.821 267.721C222.778 267.885 223.961 269.957 223.09 271.718C215.259 287.561 183.046 352.013 166.913 373.127C166.378 373.825 165.552 374.235 164.672 374.226L101.609 373.64C99.7736 373.622 98.4597 371.862 98.9642 370.098Z" fill="#7C7CD9"/>
<path d="M105.532 347.164C105.532 347.164 101.745 331.596 103.272 326.073C104.799 320.549 107.759 313.448 117.623 315.026C127.485 316.604 139.121 320.759 139.121 320.759C139.121 320.759 138.532 327.953 131.036 325.631L135.685 329.229C135.685 329.229 135.02 334.989 128.689 331.913L133.012 336.682C133.012 336.682 130.293 341.413 125.634 338.378C120.976 335.344 118.743 349.04 105.532 347.164" fill="url(#paint31_linear)"/>
<path d="M162.344 297.939C162.344 302.345 165.916 305.917 170.323 305.917C174.73 305.917 178.301 302.345 178.301 297.939C178.301 293.532 174.73 289.96 170.323 289.96C165.916 289.96 162.344 293.532 162.344 297.939" fill="white"/>
<path d="M162.344 297.939C162.344 302.345 165.916 305.917 170.323 305.917C174.73 305.917 178.301 302.345 178.301 297.939C178.301 293.532 174.73 289.96 170.323 289.96C165.916 289.96 162.344 293.532 162.344 297.939" fill="#5555CE" fill-opacity="0.08"/>
<path d="M129.221 303.198L134.756 284.425C135.435 282.12 137.288 280.388 139.593 279.908C156.938 276.289 204.412 275.522 204.889 275.514L204.858 273.393C202.9 273.423 156.702 274.172 139.159 277.833C136.089 278.472 133.622 280.77 132.721 283.826L127.187 302.598L129.221 303.198" fill="#BDD0FB"/>
<path d="M288.763 415.713C288.203 415.618 287.709 415.306 287.386 414.841C282.671 408.043 248.509 354.935 297.705 308.962C344.409 265.32 365.221 256.717 368.798 230.312C369.215 227.229 373.421 226.62 374.708 229.453C384.326 250.627 398.794 299.78 344.747 330.01C285.126 363.356 288.687 402.115 291.164 413.175C291.492 414.638 290.241 415.962 288.763 415.713" fill="#91B3FA"/>
<path d="M295.987 416.932C294.662 416.709 293.64 415.649 293.477 414.315C292.369 405.235 290.021 371.361 315.181 363.203C327.257 359.288 338.115 362.062 348.242 364.833C361.345 368.422 373.225 372.01 384.938 361.114C386.031 360.099 387.782 361.071 387.483 362.533C385.357 372.902 376.605 396.798 340.946 400.522C302.78 404.508 298.364 408.731 298.958 414.162C299.141 415.838 297.647 417.213 295.987 416.932" fill="#91B3FA"/>
<path d="M285.369 406.746C285.212 406.746 285.063 406.653 284.998 406.501C282.022 399.346 279.862 391.816 278.818 384.096C278.28 380.241 278.033 376.34 278.07 372.441C278.132 368.541 278.452 364.64 279.097 360.788C280.354 353.079 282.781 345.565 286.192 338.533C289.604 331.498 294.018 324.971 299.109 319.053C304.211 313.14 310.013 307.838 316.352 303.271C319.523 300.991 322.829 298.893 326.268 297.025L328.798 295.643C329.642 295.196 330.463 294.711 331.283 294.224L332.516 293.499L333.726 292.735L334.935 291.97L336.121 291.173C339.282 289.039 342.335 286.745 345.21 284.239C348.087 281.737 350.828 279.07 353.337 276.195C355.876 273.345 358.187 270.292 360.288 267.098C362.366 263.901 364.24 260.514 365.615 256.977L365.623 256.953C365.68 256.809 365.818 256.721 365.964 256.721C366.007 256.721 366.052 256.728 366.096 256.746C366.273 256.815 366.365 257.009 366.312 257.189C365.745 259.084 365.018 260.883 364.184 262.65C363.359 264.415 362.446 266.139 361.464 267.823C360.483 269.51 359.433 271.157 358.297 272.744C357.168 274.334 355.993 275.896 354.74 277.395C349.759 283.416 343.85 288.653 337.408 293.07C334.192 295.274 330.792 297.267 327.387 299.089C324.032 300.894 320.798 302.928 317.692 305.142C311.483 309.575 305.786 314.738 300.777 320.496C295.763 326.252 291.469 332.63 288.054 339.451C284.635 346.266 282.166 353.567 280.838 361.086C279.503 368.603 279.309 376.319 280.18 383.925C281.036 391.539 283.022 399.014 285.739 406.205C285.818 406.411 285.715 406.641 285.51 406.72C285.464 406.738 285.416 406.746 285.369 406.746" fill="#C5D7FC"/>
<path d="M295.118 411.085C294.992 411.085 294.877 411 294.845 410.872C294.835 410.83 294.833 410.787 294.841 410.748C294.904 410.431 294.893 410.124 294.892 409.814L294.896 408.884C294.904 408.265 294.92 407.645 294.941 407.027C294.988 405.789 295.06 404.554 295.159 403.319C295.359 400.851 295.657 398.388 296.078 395.945C296.929 391.066 298.218 386.224 300.353 381.711C301.418 379.459 302.718 377.304 304.296 375.355C305.867 373.401 307.763 371.694 309.911 370.368C312.064 369.059 314.472 368.155 316.958 367.736C318.198 367.521 319.456 367.4 320.713 367.395C320.862 367.392 321.009 367.391 321.156 367.391C322.266 367.391 323.372 367.475 324.47 367.604C325.721 367.757 326.928 367.976 328.15 368.182L331.802 368.828C334.236 369.271 336.663 369.739 339.086 370.223C343.935 371.184 348.764 372.238 353.61 373.13C356.032 373.57 358.463 373.965 360.903 374.209C362.274 374.344 363.652 374.43 365.025 374.43C366.091 374.43 367.153 374.378 368.208 374.256C370.62 373.995 372.982 373.311 375.111 372.157C377.249 371.012 379.138 369.43 380.817 367.658C380.882 367.59 380.967 367.556 381.054 367.556C381.134 367.556 381.213 367.586 381.277 367.644C381.406 367.766 381.412 367.97 381.292 368.101C379.599 369.93 377.674 371.585 375.464 372.802C373.261 374.029 370.797 374.772 368.304 375.071C367.181 375.205 366.056 375.26 364.932 375.26C363.556 375.26 362.182 375.176 360.82 375.047C358.344 374.805 355.894 374.414 353.457 373.978C348.584 373.095 343.755 372.055 338.911 371.109C334.074 370.163 329.203 369.25 324.354 368.529C323.243 368.391 322.123 368.299 321.004 368.299C320.91 368.299 320.817 368.301 320.722 368.301C320.695 368.301 320.666 368.301 320.639 368.301C319.455 368.301 318.271 368.41 317.106 368.604C314.719 368.988 312.412 369.835 310.339 371.076C308.272 372.331 306.433 373.96 304.895 375.846C303.35 377.725 302.065 379.821 301 382.022C298.859 386.431 297.533 391.212 296.641 396.044C296.201 398.465 295.878 400.909 295.656 403.361C295.546 404.588 295.462 405.816 295.404 407.046C295.375 407.662 295.354 408.276 295.341 408.892L295.326 409.815C295.323 410.121 295.315 410.432 295.392 410.733C295.431 410.884 295.339 411.037 295.187 411.076C295.165 411.082 295.141 411.085 295.118 411.085" fill="#C5D7FC"/>
<defs>
<linearGradient id="paint0_linear" x1="-23.7293" y1="470.641" x2="282.276" y2="140.35" gradientUnits="userSpaceOnUse">
<stop stop-color="#DAE3FE"/>
<stop offset="1" stop-color="#E9EFFD"/>
</linearGradient>
<linearGradient id="paint1_linear" x1="-23.7302" y1="470.644" x2="282.277" y2="140.351" gradientUnits="userSpaceOnUse">
<stop stop-color="#C4D5FD"/>
<stop offset="1" stop-color="#CEDDFC"/>
</linearGradient>
<linearGradient id="paint2_linear" x1="-23.7297" y1="470.649" x2="282.283" y2="140.354" gradientUnits="userSpaceOnUse">
<stop stop-color="#C4D5FD"/>
<stop offset="1" stop-color="#CEDDFC"/>
</linearGradient>
<linearGradient id="paint3_linear" x1="-23.7284" y1="470.641" x2="282.277" y2="140.35" gradientUnits="userSpaceOnUse">
<stop stop-color="#C4D5FD"/>
<stop offset="1" stop-color="#CEDDFC"/>
</linearGradient>
<linearGradient id="paint4_linear" x1="-23.7316" y1="470.639" x2="282.272" y2="140.343" gradientUnits="userSpaceOnUse">
<stop stop-color="#C4D5FD"/>
<stop offset="1" stop-color="#CEDDFC"/>
</linearGradient>
<linearGradient id="paint5_linear" x1="-23.7317" y1="470.645" x2="282.276" y2="140.348" gradientUnits="userSpaceOnUse">
<stop stop-color="#C4D5FD"/>
<stop offset="1" stop-color="#CEDDFC"/>
</linearGradient>
<linearGradient id="paint6_linear" x1="-23.7281" y1="470.64" x2="282.276" y2="140.349" gradientUnits="userSpaceOnUse">
<stop stop-color="#C4D5FD"/>
<stop offset="1" stop-color="#CEDDFC"/>
</linearGradient>
<linearGradient id="paint7_linear" x1="-23.7341" y1="470.632" x2="282.264" y2="140.334" gradientUnits="userSpaceOnUse">
<stop stop-color="#C4D5FD"/>
<stop offset="1" stop-color="#CEDDFC"/>
</linearGradient>
<linearGradient id="paint8_linear" x1="-23.7287" y1="470.641" x2="282.277" y2="140.351" gradientUnits="userSpaceOnUse">
<stop stop-color="#C4D5FD"/>
<stop offset="1" stop-color="#CEDDFC"/>
</linearGradient>
<linearGradient id="paint9_linear" x1="271.286" y1="223.947" x2="290.827" y2="223.947" gradientUnits="userSpaceOnUse">
<stop stop-color="#FE7062"/>
<stop offset="1" stop-color="#FF928E"/>
</linearGradient>
<linearGradient id="paint10_linear" x1="260.492" y1="-15.9498" x2="303.669" y2="56.3254" gradientUnits="userSpaceOnUse">
<stop stop-color="#E1473D"/>
<stop offset="1" stop-color="#E9605A"/>
</linearGradient>
<linearGradient id="paint11_linear" x1="260.942" y1="-9.03204" x2="294.512" y2="47.16" gradientUnits="userSpaceOnUse">
<stop stop-color="#FE7062"/>
<stop offset="1" stop-color="#FF928E"/>
</linearGradient>
<linearGradient id="paint12_linear" x1="252.256" y1="-12.6359" x2="234.691" y2="116.478" gradientUnits="userSpaceOnUse">
<stop stop-color="#E1473D"/>
<stop offset="1" stop-color="#E9605A"/>
</linearGradient>
<linearGradient id="paint13_linear" x1="308.644" y1="-133.369" x2="309.65" y2="-19.6892" gradientUnits="userSpaceOnUse">
<stop stop-color="#4F52FF"/>
<stop offset="1" stop-color="#4042E2"/>
</linearGradient>
<linearGradient id="paint14_linear" x1="412.495" y1="34.2302" x2="598.607" y2="-109.63" gradientUnits="userSpaceOnUse">
<stop stop-color="#B2B3FF"/>
<stop offset="1" stop-color="#ABACF2"/>
</linearGradient>
<linearGradient id="paint15_linear" x1="412.494" y1="34.2305" x2="598.606" y2="-109.63" gradientUnits="userSpaceOnUse">
<stop stop-color="#B2B3FF"/>
<stop offset="1" stop-color="#ABACF2"/>
</linearGradient>
<linearGradient id="paint16_linear" x1="284.806" y1="47.5958" x2="267.448" y2="127.605" gradientUnits="userSpaceOnUse">
<stop stop-color="#E1473D"/>
<stop offset="1" stop-color="#E9605A"/>
</linearGradient>
<linearGradient id="paint17_linear" x1="281.127" y1="50.4354" x2="281.514" y2="68.0421" gradientUnits="userSpaceOnUse">
<stop stop-color="#E1473D"/>
<stop offset="1" stop-color="#E9605A"/>
</linearGradient>
<linearGradient id="paint18_linear" x1="283.721" y1="108.844" x2="267.002" y2="185.907" gradientUnits="userSpaceOnUse">
<stop stop-color="#E1473D"/>
<stop offset="1" stop-color="#E9605A"/>
</linearGradient>
<linearGradient id="paint19_linear" x1="280.178" y1="111.579" x2="280.55" y2="128.537" gradientUnits="userSpaceOnUse">
<stop stop-color="#E1473D"/>
<stop offset="1" stop-color="#E9605A"/>
</linearGradient>
<linearGradient id="paint20_linear" x1="284.216" y1="162.55" x2="266.848" y2="242.607" gradientUnits="userSpaceOnUse">
<stop stop-color="#E1473D"/>
<stop offset="1" stop-color="#E9605A"/>
</linearGradient>
<linearGradient id="paint21_linear" x1="280.534" y1="165.391" x2="280.921" y2="183.008" gradientUnits="userSpaceOnUse">
<stop stop-color="#E1473D"/>
<stop offset="1" stop-color="#E9605A"/>
</linearGradient>
<linearGradient id="paint22_linear" x1="245.713" y1="26.542" x2="238.019" y2="136.106" gradientUnits="userSpaceOnUse">
<stop stop-color="#FFC0BA"/>
<stop offset="1" stop-color="#FFCFCD"/>
</linearGradient>
<linearGradient id="paint23_linear" x1="245.713" y1="26.5419" x2="238.019" y2="136.107" gradientUnits="userSpaceOnUse">
<stop stop-color="#FFC0BA"/>
<stop offset="1" stop-color="#FFCFCD"/>
</linearGradient>
<linearGradient id="paint24_linear" x1="201.343" y1="205.613" x2="292.872" y2="206.482" gradientUnits="userSpaceOnUse">
<stop stop-color="#FEBBBA"/>
<stop offset="1" stop-color="#FF928E"/>
</linearGradient>
<linearGradient id="paint25_linear" x1="272.621" y1="191.82" x2="209.877" y2="330.973" gradientUnits="userSpaceOnUse">
<stop stop-color="#FEBBBA"/>
<stop offset="1" stop-color="#FF928E"/>
</linearGradient>
<linearGradient id="paint26_linear" x1="293.012" y1="145.472" x2="319.013" y2="106.314" gradientUnits="userSpaceOnUse">
<stop stop-color="#FEBBBA"/>
<stop offset="1" stop-color="#FF928E"/>
</linearGradient>
<linearGradient id="paint27_linear" x1="-0.179427" y1="334.216" x2="115.647" y2="335.316" gradientUnits="userSpaceOnUse">
<stop stop-color="#FEBBBA"/>
<stop offset="1" stop-color="#FF928E"/>
</linearGradient>
<linearGradient id="paint28_linear" x1="89.9387" y1="211.239" x2="135.735" y2="211.674" gradientUnits="userSpaceOnUse">
<stop stop-color="#FEBBBA"/>
<stop offset="1" stop-color="#FF928E"/>
</linearGradient>
<linearGradient id="paint29_linear" x1="146.904" y1="182.644" x2="96.8453" y2="151.456" gradientUnits="userSpaceOnUse">
<stop stop-color="#FEBBBA"/>
<stop offset="1" stop-color="#FF928E"/>
</linearGradient>
<linearGradient id="paint30_linear" x1="133.571" y1="193.971" x2="88.5316" y2="165.91" gradientUnits="userSpaceOnUse">
<stop stop-color="#FEBBBA"/>
<stop offset="1" stop-color="#FF928E"/>
</linearGradient>
<linearGradient id="paint31_linear" x1="102.909" y1="331.072" x2="139.12" y2="331.072" gradientUnits="userSpaceOnUse">
<stop stop-color="#FEBBBA"/>
<stop offset="1" stop-color="#FF928E"/>
</linearGradient>
</defs>
</svg>
