<svg width="42" height="42" viewBox="0 0 42 42" fill="none" xmlns="http://www.w3.org/2000/svg">
<circle cx="21" cy="21" r="21" fill="white"/>
<circle cx="21" cy="21" r="21" fill="#5555CE" fill-opacity="0.08"/>
<path d="M17.125 27V17.6562H14.2188V27H17.125ZM15.6562 16.4062C16.5938 16.4062 17.3438 15.625 17.3438 14.6875C17.3438 13.7812 16.5938 13.0312 15.6562 13.0312C14.75 13.0312 14 13.7812 14 14.6875C14 15.625 14.75 16.4062 15.6562 16.4062ZM27.9688 27H28V21.875C28 19.375 27.4375 17.4375 24.5 17.4375C23.0938 17.4375 22.1562 18.2188 21.75 18.9375H21.7188V17.6562H18.9375V27H21.8438V22.375C21.8438 21.1562 22.0625 20 23.5625 20C25.0625 20 25.0938 21.375 25.0938 22.4688V27H27.9688Z" fill="black" fill-opacity="0.54"/>
</svg>
