<svg width="470" height="470" viewBox="0 0 470 470" fill="none" xmlns="http://www.w3.org/2000/svg">
<path d="M239.562 467.491C211.347 467.491 189.792 463.547 181.195 461.801C150.018 455.467 89.7524 443.228 46.1817 391.99C-19.7375 314.47 -9.47298 192.34 41.6584 111.721C49.6186 99.1696 86.6012 38.0047 159.346 11.9809C159.527 12.1536 159.705 12.3263 159.881 12.5024C160.051 12.6701 160.27 12.7523 160.49 12.7523C160.71 12.7523 160.931 12.6684 161.1 12.4991C161.12 12.4773 161.141 12.4554 161.159 12.4337C161.416 12.1167 161.414 11.6589 161.154 11.3437C173.375 7.10446 186.584 3.86301 200.828 2.00165C210.794 0.6987 221.041 0.0396729 231.418 0.0396729C284.316 0.0396729 340.846 17.1273 383.731 53.0565C491.411 143.27 483.744 325.518 411.344 401.739C401.789 411.797 392.751 418.284 385.607 423.408C335.835 459.121 280.645 467.491 239.562 467.491ZM56.9385 123.483C35.1374 153.275 22.2676 190.012 22.2676 229.757C22.2676 329.25 102.922 409.904 202.416 409.904C301.908 409.904 382.562 329.25 382.562 229.757C382.562 130.264 301.908 49.6105 202.416 49.6105C190.683 49.6105 179.207 50.7324 168.101 52.8737C168.038 52.8134 167.966 52.7614 167.882 52.7212C167.761 52.6625 167.632 52.634 167.506 52.634C167.187 52.634 166.881 52.8117 166.73 53.1169C166.725 53.127 166.721 53.1371 166.716 53.1471C122.817 61.9726 84.6908 86.7539 58.6492 121.184C58.4608 121.01 58.2218 120.885 57.9503 120.835C56.4966 120.574 55.0385 120.247 53.6154 119.863C53.494 119.829 53.372 119.814 53.2521 119.814C52.6372 119.814 52.074 120.225 51.9066 120.845C51.706 121.588 52.1464 122.354 52.8896 122.554C54.2204 122.913 55.5798 123.225 56.9385 123.483ZM42.1306 115.444C41.6294 115.444 41.1448 115.716 40.8954 116.187C40.536 116.868 40.7973 117.711 41.4783 118.072C42.8532 118.796 44.274 119.47 45.7021 120.076C45.8797 120.151 46.0641 120.186 46.2457 120.186C46.6624 120.186 47.0634 119.998 47.329 119.67C47.4093 119.571 47.4772 119.46 47.5296 119.336C47.8301 118.627 47.4989 117.808 46.7902 117.508C45.4341 116.933 44.0844 116.294 42.7784 115.605C42.5713 115.496 42.3494 115.444 42.1306 115.444ZM170.367 44.3182C169.969 44.3182 169.612 44.5949 169.525 44.9991C169.228 46.3976 168.841 47.7911 168.376 49.1443C168.222 49.5938 168.46 50.0834 168.91 50.2377C169.004 50.2696 169.097 50.2847 169.19 50.2847C169.45 50.2847 169.696 50.1673 169.859 49.966C169.921 49.8906 169.971 49.8017 170.005 49.7044C170.493 48.2858 170.898 46.8235 171.209 45.3579C171.308 44.8917 171.011 44.4356 170.546 44.3367C170.486 44.3232 170.427 44.3182 170.367 44.3182ZM171.147 37.7733C170.682 37.7733 170.298 38.1439 170.285 38.6117C170.266 39.3026 170.226 40.0069 170.166 40.7079C170.124 41.1807 170.474 41.5983 170.949 41.6402C170.974 41.6419 170.997 41.6436 171.023 41.6436C171.289 41.6436 171.532 41.5195 171.692 41.3233C171.797 41.1942 171.864 41.0349 171.879 40.8554C171.943 40.1226 171.987 39.3831 172.007 38.6587C172.019 38.1841 171.645 37.7867 171.168 37.7733C171.162 37.7733 171.155 37.7733 171.147 37.7733ZM163.46 14.3805C163.275 14.3805 163.087 14.4392 162.93 14.5633C162.554 14.8551 162.49 15.3967 162.782 15.7707C163.212 16.3207 163.631 16.8892 164.026 17.4644C164.194 17.7058 164.463 17.8349 164.736 17.8349C164.905 17.8349 165.075 17.7863 165.224 17.684C165.294 17.6354 165.353 17.5784 165.403 17.5163C165.638 17.2262 165.667 16.807 165.443 16.485C165.028 15.883 164.59 15.2861 164.139 14.7109C163.969 14.4929 163.716 14.3805 163.46 14.3805Z" fill="url(#paint0_linear)"/>
<path d="M382.562 229.756C382.562 329.25 301.908 409.904 202.416 409.904C102.922 409.904 22.2676 329.25 22.2676 229.756C22.2676 130.264 102.922 49.6104 202.416 49.6104C301.908 49.6104 382.562 130.264 382.562 229.756Z" fill="#BDD0FB"/>
<path d="M356.164 229.756C356.164 314.669 287.327 383.506 202.416 383.506C117.503 383.506 48.6663 314.669 48.6663 229.756C48.6663 144.843 117.503 76.0081 202.416 76.0081C287.327 76.0081 356.164 144.843 356.164 229.756Z" fill="#6564C4"/>
<path d="M202.414 76.0081C117.638 76.0081 48.6665 144.979 48.6665 229.756C48.6665 314.536 117.638 383.506 202.414 383.506C287.191 383.506 356.162 314.536 356.162 229.756C356.162 144.979 287.191 76.0081 202.414 76.0081ZM202.414 391.207C113.392 391.207 40.9653 318.781 40.9653 229.756C40.9653 140.733 113.392 68.3078 202.414 68.3078C291.437 68.3078 363.864 140.733 363.864 229.756C363.864 318.781 291.437 391.207 202.414 391.207Z" fill="white"/>
<path d="M296.147 229.756C296.147 281.524 254.181 323.49 202.416 323.49C150.648 323.49 108.682 281.524 108.682 229.756C108.682 177.99 150.648 136.024 202.416 136.024C254.181 136.024 296.147 177.99 296.147 229.756Z" fill="#6564C4"/>
<path d="M202.414 143.725C154.976 143.725 116.382 182.319 116.382 229.756C116.382 277.196 154.976 315.79 202.414 315.79C249.854 315.79 288.447 277.196 288.447 229.756C288.447 182.319 249.854 143.725 202.414 143.725ZM202.414 331.19C146.484 331.19 100.982 285.688 100.982 229.756C100.982 173.827 146.484 128.324 202.414 128.324C258.345 128.324 303.848 173.827 303.848 229.756C303.848 285.688 258.345 331.19 202.414 331.19Z" fill="white"/>
<path d="M238.729 229.756C238.729 249.814 222.471 266.071 202.416 266.071C182.358 266.071 166.101 249.814 166.101 229.756C166.101 209.701 182.358 193.441 202.416 193.441C222.471 193.441 238.729 209.701 238.729 229.756Z" fill="#FF7542"/>
<path d="M202.414 201.142C186.636 201.142 173.801 213.978 173.801 229.756C173.801 245.536 186.636 258.371 202.414 258.371C218.192 258.371 231.028 245.536 231.028 229.756C231.028 213.978 218.192 201.142 202.414 201.142ZM202.414 273.773C178.144 273.773 158.398 254.028 158.398 229.756C158.398 205.486 178.144 185.741 202.414 185.741C226.685 185.741 246.431 205.486 246.431 229.756C246.431 254.028 226.685 273.773 202.414 273.773Z" fill="white"/>
<path d="M374.308 58.3286L378.131 62.1536L233.291 206.996L229.466 203.171L374.308 58.3286Z" fill="#2D2D9A"/>
<path d="M232.174 193.941C234.369 191.748 244.713 202.093 242.518 204.286L204.149 234.45C202.732 235.565 200.896 233.729 202.01 232.31L232.174 193.941Z" fill="#2D2D9A"/>
<path d="M378.049 62.2375L397.535 64.1743L370.785 90.9242C362.021 99.6877 349.786 104.059 337.453 102.834L378.049 62.2375Z" fill="#91B3FA"/>
<path d="M374.224 58.4124L372.287 38.9252L345.537 65.6767C336.774 74.4402 332.402 86.6732 333.628 99.0084L374.224 58.4124Z" fill="#91B3FA"/>
<path d="M14.849 56.4807C14.7326 56.4807 14.6142 56.4656 14.4963 56.4354C13.7515 56.2409 13.3046 55.4795 13.4988 54.735C13.8963 53.209 14.3662 51.6797 14.8948 50.1889C15.0977 49.6188 15.6348 49.2616 16.2083 49.2616C16.3631 49.2616 16.5204 49.2868 16.6746 49.3421C17.3999 49.5987 17.7794 50.3969 17.5218 51.1213C17.0199 52.5366 16.574 53.9888 16.1967 55.4376C16.1449 55.6372 16.0528 55.8149 15.9314 55.9642C15.6698 56.2861 15.2719 56.4807 14.849 56.4807ZM19.2135 45.1482C18.9965 45.1482 18.7763 45.0979 18.5705 44.9906C17.888 44.635 17.6233 43.7933 17.9791 43.1091C18.7082 41.7122 19.5074 40.3271 20.3536 38.9923C20.6172 38.5731 21.0684 38.345 21.5298 38.345C21.786 38.345 22.0454 38.4154 22.2775 38.5613C22.9273 38.9738 23.12 39.8358 22.7076 40.4864C21.9032 41.7541 21.1437 43.0705 20.451 44.3986C20.4071 44.4841 20.3548 44.5613 20.2969 44.6334C20.0289 44.9637 19.627 45.1482 19.2135 45.1482ZM25.9885 35.0667C25.6704 35.0667 25.3506 34.9593 25.0886 34.7363C24.5086 34.2467 24.4298 33.3831 24.906 32.7962L24.9251 32.7727C25.9452 31.567 27.0292 30.3915 28.1461 29.2797C28.4183 29.008 28.7741 28.8739 29.1298 28.8739C29.4877 28.8739 29.8453 29.0097 30.1178 29.2831C30.6253 29.7928 30.6566 30.5977 30.2136 31.1427C30.1826 31.1813 30.1489 31.2182 30.1136 31.2551C29.0522 32.3115 28.0224 33.4283 27.053 34.5737C26.7774 34.899 26.3842 35.0667 25.9885 35.0667ZM105.829 31.847C105.472 31.847 105.117 31.7112 104.843 31.4395C103.787 30.3814 102.667 29.3535 101.518 28.3842C100.936 27.8946 100.856 27.0293 101.334 26.4407L101.35 26.4206C101.626 26.0936 102.02 25.9242 102.417 25.9242C102.734 25.9242 103.053 26.0332 103.314 26.2529C104.525 27.2741 105.702 28.3557 106.816 29.4692C107.325 29.9773 107.357 30.7839 106.913 31.3305C106.883 31.3674 106.851 31.4043 106.816 31.4395C106.544 31.7112 106.187 31.847 105.829 31.847ZM34.8209 26.7358C34.3969 26.7358 33.9784 26.543 33.7045 26.1774C33.2424 25.562 33.3702 24.6917 33.9838 24.2272C35.2461 23.2798 36.5652 22.3776 37.9042 21.5425C38.1336 21.4 38.3885 21.3312 38.6402 21.3312C39.1055 21.3312 39.5601 21.5643 39.8246 21.9885C40.1475 22.5067 40.0888 23.154 39.7246 23.6034C39.6299 23.7208 39.5138 23.8231 39.3787 23.9086C38.1074 24.7001 36.8549 25.5587 35.6563 26.4575C35.4054 26.6453 35.112 26.7358 34.8209 26.7358ZM96.3416 24.2675C96.0867 24.2675 95.8301 24.1987 95.5987 24.0528C94.3276 23.2496 93.0113 22.4933 91.6832 21.8041C91.0007 21.4503 90.7337 20.6085 91.088 19.926C91.3384 19.4464 91.824 19.173 92.3271 19.173C92.5434 19.173 92.7614 19.2233 92.9677 19.3307C94.3645 20.0551 95.7513 20.8499 97.0878 21.6951C97.7384 22.1059 97.933 22.9678 97.5205 23.6185C97.4919 23.6654 97.4584 23.7107 97.4249 23.7526C97.1532 24.0863 96.7508 24.2675 96.3416 24.2675ZM45.2859 20.5933C44.7516 20.5933 44.242 20.2848 44.0113 19.7667C43.6987 19.0624 44.0151 18.239 44.7189 17.9254C46.1611 17.2848 47.6488 16.6979 49.1396 16.1831C49.2903 16.1311 49.4443 16.106 49.5954 16.106C50.173 16.106 50.713 16.4665 50.9129 17.0434C51.0762 17.5162 50.9706 18.0176 50.6773 18.3782C50.519 18.5744 50.3065 18.7287 50.0513 18.8175C48.6347 19.3072 47.2215 19.8639 45.851 20.4743C45.667 20.5548 45.4749 20.5933 45.2859 20.5933ZM85.42 18.9685C85.2662 18.9685 85.1097 18.9433 84.9563 18.8896C83.543 18.3899 82.0908 17.9472 80.6393 17.5716C79.8941 17.3787 79.4462 16.6191 79.6388 15.8729C79.802 15.2457 80.3678 14.8282 80.9882 14.8282C81.1036 14.8282 81.2207 14.8433 81.3375 14.8734C82.866 15.2675 84.3957 15.7354 85.8836 16.2603C86.6097 16.5168 86.9904 17.3117 86.7346 18.0378C86.68 18.1937 86.6008 18.3329 86.5032 18.4536C86.2393 18.7789 85.8392 18.9685 85.42 18.9685ZM56.859 16.9293C56.2062 16.9293 55.6235 16.4698 55.4923 15.8058C55.3433 15.0495 55.8351 14.3167 56.5904 14.1692C58.141 13.8623 59.7215 13.6191 61.287 13.4464C61.3392 13.4397 61.3912 13.438 61.4425 13.438C62.1432 13.438 62.7469 13.9646 62.8256 14.6789C62.8685 15.0646 62.7496 15.4302 62.5231 15.7102C62.3002 15.9852 61.9732 16.1747 61.5937 16.2166C60.1058 16.3827 58.6038 16.6124 57.13 16.9042C57.0389 16.9209 56.9482 16.9293 56.859 16.9293ZM73.5859 16.2452C73.5333 16.2452 73.4803 16.2418 73.4268 16.2351C71.936 16.0657 70.4204 15.9584 68.9223 15.9165C68.1528 15.8947 67.5462 15.2524 67.5679 14.4827C67.59 13.7265 68.2104 13.1295 68.962 13.1295C68.9748 13.1295 68.9875 13.1295 69.0003 13.1295C70.5779 13.1731 72.1735 13.2871 73.7425 13.4649C74.5072 13.5521 75.0567 14.2429 74.9695 15.0076C74.9382 15.2826 74.8297 15.5274 74.6682 15.727C74.4098 16.0456 74.0162 16.2452 73.5859 16.2452Z" fill="#DEE8FD"/>
<path d="M13.2501 66.138C13.2154 66.138 13.1805 66.1363 13.1453 66.133C12.3781 66.0776 11.8014 65.4085 11.8581 64.6405C11.9139 63.8859 11.986 63.1212 12.0729 62.3666C12.1534 61.6539 12.7568 61.1307 13.4554 61.1307C13.5087 61.1307 13.5623 61.134 13.6165 61.1391C14.3812 61.228 14.9302 61.9188 14.8422 62.6835C14.7602 63.4029 14.6912 64.129 14.6386 64.8467C14.6168 65.1402 14.5048 65.4069 14.3319 65.6198C14.0748 65.9368 13.6827 66.138 13.2501 66.138Z" fill="#DEE8FD"/>
<path d="M26.9205 106.375C26.5382 106.375 26.1574 106.219 25.882 105.912C25.3771 105.347 24.8756 104.764 24.3913 104.177C23.9018 103.583 23.984 102.706 24.5803 102.215C24.8398 102 25.1539 101.896 25.466 101.896C25.8679 101.896 26.2669 102.069 26.5424 102.404C27.0022 102.961 27.4788 103.516 27.9583 104.051C28.4217 104.567 28.4275 105.335 28.004 105.857C27.9578 105.914 27.9067 105.969 27.8505 106.02C27.5842 106.258 27.2519 106.375 26.9205 106.375Z" fill="#DEE8FD"/>
<path d="M67.3408 124.462C66.5605 124.462 65.7807 124.447 65.007 124.415C64.2375 124.382 63.6405 123.733 63.6724 122.965C63.7037 122.214 64.3212 121.628 65.0637 121.628C65.0835 121.628 65.1033 121.628 65.1232 121.63C65.8565 121.66 66.5955 121.675 67.3351 121.675C68.0801 121.675 68.8257 121.66 69.5669 121.628C69.5866 121.628 69.6066 121.628 69.6262 121.628C70.3693 121.628 70.9865 122.214 71.0175 122.963C71.0325 123.317 70.9146 123.644 70.7082 123.899C70.465 124.199 70.0991 124.397 69.6834 124.414C68.9058 124.447 68.1229 124.462 67.3408 124.462ZM76.986 123.604C76.3238 123.604 75.7365 123.131 75.6151 122.457C75.4789 121.697 75.9829 120.973 76.7407 120.837C78.1917 120.577 79.6506 120.252 81.0771 119.871C81.1977 119.837 81.3189 119.822 81.438 119.822C82.0538 119.822 82.617 120.233 82.7837 120.857C82.8337 121.043 82.8431 121.233 82.8174 121.412C82.4716 121.793 82.1217 122.183 81.7794 122.567C80.2841 122.967 78.755 123.309 77.2338 123.582C77.1507 123.597 77.0676 123.604 76.986 123.604Z" fill="#B0C7FB"/>
<path d="M81.7793 122.567C82.1216 122.183 82.4716 121.793 82.8174 121.412C82.7817 121.663 82.6772 121.9 82.5189 122.094C82.34 122.316 82.0923 122.483 81.7969 122.562C81.791 122.564 81.7852 122.566 81.7793 122.567Z" fill="#DEE8FD"/>
<path d="M56.9383 123.483C55.5797 123.225 54.2202 122.913 52.8894 122.554C52.1462 122.354 51.7058 121.588 51.9064 120.845C52.0737 120.225 52.637 119.814 53.2519 119.814C53.3718 119.814 53.4937 119.829 53.6152 119.863C55.0384 120.247 56.4965 120.574 57.9502 120.835C58.2217 120.885 58.4607 121.01 58.6491 121.184C58.0743 121.943 57.5013 122.713 56.9383 123.483Z" fill="url(#paint1_linear)"/>
<path d="M57.7032 123.602C57.6212 123.602 57.5379 123.594 57.4542 123.579C57.2823 123.548 57.1103 123.516 56.9382 123.483C57.5012 122.713 58.0742 121.944 58.649 121.184C58.9861 121.496 59.1616 121.969 59.0739 122.455C59.0303 122.695 58.9287 122.908 58.7857 123.084C58.5259 123.404 58.1302 123.602 57.7032 123.602Z" fill="#B0C7FB"/>
<path d="M88.4424 120.216C87.8979 120.216 87.3809 119.896 87.1569 119.361C86.8584 118.652 87.1926 117.835 87.9026 117.537C89.2649 116.965 90.617 116.329 91.9213 115.648C92.1276 115.539 92.3489 115.489 92.5652 115.489C93.0683 115.489 93.553 115.761 93.8028 116.237C94.0678 116.747 93.989 117.344 93.6502 117.761C93.5328 117.905 93.3869 118.028 93.2125 118.118C91.8392 118.836 90.4156 119.505 88.9812 120.107C88.8049 120.181 88.6222 120.216 88.4424 120.216Z" fill="#DEE8FD"/>
<path d="M46.2459 120.186C46.0643 120.186 45.8799 120.151 45.7023 120.075C44.2743 119.47 42.8535 118.796 41.4786 118.071C40.7976 117.711 40.5363 116.868 40.8957 116.187C41.145 115.715 41.6297 115.444 42.1309 115.444C42.3497 115.444 42.5716 115.496 42.7787 115.605C44.0846 116.294 45.4343 116.933 46.7904 117.508C47.4991 117.808 47.8303 118.627 47.5298 119.336C47.4775 119.46 47.4095 119.571 47.3292 119.67C47.0636 119.998 46.6627 120.186 46.2459 120.186Z" fill="url(#paint2_linear)"/>
<path d="M98.8758 114.409C98.4398 114.409 98.0122 114.206 97.7388 113.824C97.2928 113.197 97.4403 112.328 98.0658 111.88C99.2698 111.024 100.449 110.106 101.572 109.154C101.834 108.931 102.154 108.822 102.473 108.822C102.868 108.822 103.261 108.99 103.538 109.315C103.977 109.835 103.972 110.583 103.558 111.092C103.504 111.159 103.444 111.221 103.375 111.28C102.193 112.283 100.95 113.249 99.684 114.151C99.4392 114.325 99.1558 114.409 98.8758 114.409Z" fill="#DEE8FD"/>
<path d="M35.826 114.342C35.5456 114.342 35.2626 114.258 35.0171 114.082C34.0872 113.418 33.1661 112.717 32.2802 111.998C31.9591 111.738 31.6421 111.476 31.3286 111.21C30.7416 110.712 30.6513 109.83 31.1667 109.246C31.4423 108.919 31.8351 108.753 32.2306 108.753C32.549 108.753 32.8693 108.86 33.1312 109.083C33.4292 109.335 33.7309 109.586 34.0359 109.833C34.8782 110.515 35.7532 111.183 36.6376 111.815C37.264 112.261 37.4088 113.131 36.9614 113.758C36.9445 113.782 36.9272 113.805 36.9091 113.827C36.6363 114.164 36.2338 114.342 35.826 114.342Z" fill="#DEE8FD"/>
<path d="M107.78 106.446C107.448 106.446 107.116 106.328 106.849 106.09C106.276 105.575 106.227 104.697 106.74 104.121C107.718 103.03 108.665 101.879 109.564 100.689C109.836 100.327 110.255 100.137 110.678 100.137C110.971 100.137 111.266 100.228 111.518 100.419C112.131 100.883 112.252 101.757 111.788 102.371C111.399 102.887 111.001 103.394 110.597 103.892C110.022 104.603 109.423 105.305 108.818 105.981C108.543 106.288 108.162 106.446 107.78 106.446Z" fill="#DEE8FD"/>
<path d="M113.352 95.1517C113.376 94.9806 113.429 94.8113 113.52 94.6503C114.244 93.3625 114.922 92.0294 115.534 90.6896C115.765 90.1764 116.271 89.8729 116.801 89.8729C116.996 89.8729 117.192 89.9131 117.38 89.9987C118.079 90.3189 118.388 91.1456 118.069 91.8449C118.007 91.9807 117.945 92.1166 117.881 92.2524C116.357 93.1931 114.843 94.1623 113.352 95.1517Z" fill="#B0C7FB"/>
<path d="M114.734 96.728C114.503 96.728 114.268 96.6693 114.051 96.5486C113.542 96.2618 113.282 95.7001 113.352 95.1517C114.843 94.1624 116.357 93.1932 117.881 92.2525C117.288 93.5269 116.639 94.7912 115.95 96.0153C115.911 96.0858 115.866 96.1528 115.817 96.2132C115.547 96.5435 115.146 96.728 114.734 96.728Z" fill="#DEE8FD"/>
<path d="M119.407 85.7274C119.275 85.7274 119.139 85.709 119.007 85.6687C118.269 85.4474 117.85 84.671 118.071 83.9331C118.493 82.5195 118.861 81.0707 119.163 79.6285C119.3 78.9695 119.879 78.5184 120.524 78.5184C120.62 78.5184 120.715 78.5285 120.811 78.5486C121.566 78.7063 122.049 79.4441 121.891 80.197C121.572 81.718 121.187 83.2439 120.741 84.733C120.687 84.9124 120.601 85.0734 120.489 85.2109C120.227 85.5346 119.828 85.7274 119.407 85.7274Z" fill="#B0C7FB"/>
<path d="M121.544 73.9339C121.512 73.9339 121.48 73.9339 121.447 73.9305C120.678 73.8785 120.1 73.2128 120.152 72.4448C120.201 71.7305 120.236 71.001 120.256 70.2766C120.276 69.5186 120.896 68.92 121.649 68.92C121.663 68.92 121.675 68.92 121.688 68.9216C122.458 68.9418 123.065 69.5823 123.043 70.3537C123.023 71.115 122.986 71.883 122.934 72.636C122.912 72.9328 122.802 73.2011 122.625 73.4174C122.369 73.7343 121.976 73.9339 121.544 73.9339Z" fill="#B0C7FB"/>
<path d="M106.947 55.3841C106.89 55.1124 106.667 54.9062 106.392 54.871L98.5253 53.8665C96.9658 50.5093 94.8579 47.3752 92.2319 44.615L94.1787 36.9331C94.2458 36.6648 94.1368 36.3814 93.9037 36.2288L85.9502 31.0137C85.7178 30.8611 85.4141 30.8728 85.1944 31.0439L78.9267 35.8918C75.3473 34.5838 71.6336 33.9013 67.9317 33.8074L63.8748 26.9958C63.7324 26.756 63.4544 26.6353 63.1824 26.6907L53.8707 28.6275C53.5986 28.6845 53.3922 28.9075 53.3571 29.1825L52.353 37.0489C48.9951 38.61 45.8619 40.7162 43.1008 43.3439L35.4198 41.3954C35.1503 41.3283 34.8673 41.4373 34.7148 41.6704L29.4998 49.6239C29.3476 49.857 29.3595 50.1605 29.5295 50.3802L34.3779 56.6485C33.0703 60.227 32.3868 63.9413 32.2944 67.6422L25.4816 71.7003C25.243 71.8412 25.1206 72.1195 25.1773 72.3912L27.1139 81.703C27.1706 81.9763 27.3936 82.1826 27.6692 82.2178L35.5347 83.2206C37.0955 86.5794 39.2032 89.7119 41.8294 92.4737L39.8824 100.154C39.8139 100.424 39.9241 100.707 40.1565 100.86L48.1104 106.075C48.343 106.226 48.6465 106.214 48.8662 106.045L55.134 101.197C58.7133 102.503 62.4271 103.187 66.1289 103.28L70.1858 110.093C70.328 110.331 70.606 110.453 70.8784 110.396L80.19 108.46C80.462 108.404 80.6683 108.181 80.7035 107.905L81.7076 100.04C85.0656 98.4787 88.1986 96.3708 90.9599 93.7448L98.641 95.6917C98.911 95.7604 99.1927 95.6498 99.3453 95.4184L104.56 87.4632C104.713 87.2317 104.701 86.9282 104.53 86.7086L99.6823 80.4403C100.99 76.8618 101.674 73.1475 101.767 69.4449L108.578 65.3885C108.818 65.2459 108.941 64.9675 108.883 64.6959L106.947 55.3841Z" fill="#91B3FA"/>
<path d="M59.7063 68.234C59.6236 70.191 60.3078 72.0624 61.6327 73.5045C64.3674 76.4793 69.0137 76.6755 71.9896 73.9422C74.9672 71.2072 75.1618 66.5605 72.4269 63.584C69.6922 60.6092 65.0457 60.4114 62.0699 63.1464C61.8 63.3946 61.5519 63.6595 61.3253 63.9395C60.341 65.1536 59.7735 66.6443 59.7063 68.234ZM73.4984 75.5839C69.6169 79.1506 63.5574 78.894 59.9902 75.012C58.2621 73.1322 57.37 70.6924 57.478 68.1401C57.5855 65.5896 58.68 63.2319 60.561 61.5047C64.4425 57.938 70.502 58.1945 74.0693 62.0748C77.3142 65.6064 77.3952 70.9405 74.4603 74.5609C74.1694 74.9198 73.8484 75.2619 73.4984 75.5839Z" fill="#BDD0FB"/>
<path d="M85.0633 83.4085C85.5674 82.7863 86.0431 82.1357 86.488 81.4582C86.6282 81.2453 86.7647 81.0289 86.8979 80.8109C87.5542 79.736 88.124 78.6109 88.5984 77.4521C88.605 77.4353 88.6113 77.4202 88.6179 77.4051C88.636 77.3599 88.6541 77.3146 88.6719 77.2693C88.7071 77.1821 88.7411 77.0949 88.7752 77.0061C88.8645 76.7746 88.7894 76.5214 88.6068 76.3722C88.5624 76.337 88.5116 76.3068 88.4554 76.285C88.1681 76.1743 87.8462 76.3185 87.735 76.6053C87.165 78.0843 86.4317 79.5097 85.5555 80.8462C81.206 87.4834 73.9077 91.0468 66.5069 90.9529C62.3906 90.9009 58.2425 89.7153 54.5518 87.2955C53.9047 86.8713 53.2835 86.4169 52.6907 85.9356C48.7002 82.6992 45.9669 78.2268 44.9067 73.129C43.6886 67.2733 44.8239 61.2934 48.1032 56.2912C54.8771 45.9615 68.7818 43.0739 79.1068 49.8435C79.7435 50.2594 80.3566 50.7088 80.944 51.1851C83.4892 53.2493 85.5547 55.8485 86.9826 58.8016C87.0196 58.877 87.0714 58.9408 87.1333 58.9911C87.2958 59.1219 87.5264 59.1571 87.7271 59.0598C88.0041 58.9257 88.1212 58.5936 87.9864 58.3153C86.487 55.2147 84.319 52.4864 81.6466 50.3181C81.0302 49.8184 80.3866 49.3489 79.7187 48.9095C68.8782 41.8028 54.2756 44.843 47.1707 55.6792C43.7277 60.9312 42.5363 67.2079 43.8151 73.3554C44.9279 78.7081 47.7975 83.4034 51.9866 86.8009C52.6091 87.3056 53.2611 87.7818 53.94 88.2279C59.1916 91.6706 65.4689 92.8629 71.6164 91.5834C76.9693 90.4699 81.6658 87.5991 85.0633 83.4085Z" fill="#BDD0FB"/>
<path d="M164.736 17.8347C164.462 17.8347 164.194 17.7056 164.026 17.4642C163.631 16.889 163.211 16.3205 162.782 15.7705C162.49 15.3966 162.554 14.8549 162.93 14.5631C163.087 14.439 163.275 14.3803 163.46 14.3803C163.716 14.3803 163.969 14.4927 164.139 14.7107C164.59 15.2859 165.027 15.8828 165.443 16.4848C165.666 16.8068 165.638 17.226 165.403 17.5161C165.353 17.5782 165.294 17.6352 165.224 17.6838C165.074 17.7861 164.905 17.8347 164.736 17.8347Z" fill="url(#paint3_linear)"/>
<path d="M103.043 20.8986C102.902 20.8986 102.759 20.8651 102.627 20.7913C102.211 20.5616 102.06 20.0383 102.291 19.6208C102.927 18.4704 103.64 17.3335 104.403 16.2469C104.518 16.0809 104.636 15.9165 104.753 15.7538C104.912 15.5208 105.174 15.3984 105.442 15.3984C105.62 15.3984 105.801 15.452 105.955 15.566C106.341 15.8461 106.425 16.3827 106.145 16.7684C106.034 16.921 105.924 17.0736 105.815 17.2329C105.083 18.2726 104.404 19.3575 103.797 20.4542C103.772 20.4995 103.744 20.5431 103.712 20.5817C103.546 20.7863 103.298 20.8986 103.043 20.8986ZM108.295 13.6661C108.085 13.6661 107.874 13.589 107.708 13.433C107.361 13.1094 107.346 12.5694 107.666 12.2156C108.709 11.1004 109.827 10.0389 110.993 9.06465C111.154 8.93049 111.35 8.86512 111.545 8.86512C111.791 8.86512 112.036 8.97074 112.207 9.17365C112.475 9.49394 112.469 9.95343 112.215 10.267C112.18 10.3089 112.142 10.3492 112.098 10.3861C110.986 11.3151 109.92 12.3263 108.925 13.3928C108.756 13.5739 108.526 13.6661 108.295 13.6661ZM159.346 11.9808C158.655 11.3218 157.934 10.6862 157.195 10.0876C156.998 9.92826 156.799 9.77064 156.598 9.61469C156.222 9.3229 156.155 8.78127 156.447 8.40564C156.619 8.20106 156.883 8.08365 157.146 8.08365C157.324 8.08365 157.503 8.13734 157.654 8.25472C157.865 8.41906 158.073 8.58339 158.28 8.74941C159.256 9.54259 160.205 10.3945 161.097 11.2815C161.117 11.3017 161.135 11.3235 161.154 11.3436C160.548 11.5532 159.946 11.7662 159.346 11.9808Z" fill="#DEE8FD"/>
<path d="M160.49 12.7523C160.27 12.7523 160.051 12.6701 159.881 12.5024C159.705 12.3263 159.528 12.1536 159.346 11.9808C159.947 11.7662 160.549 11.5532 161.154 11.3436C161.414 11.6589 161.416 12.1167 161.159 12.4336C161.141 12.4554 161.121 12.4772 161.101 12.499C160.931 12.6684 160.71 12.7523 160.49 12.7523Z" fill="url(#paint4_linear)"/>
<path d="M115.153 7.9346C114.87 7.9346 114.593 7.79539 114.429 7.53883C114.171 7.13972 114.286 6.60817 114.685 6.34993C115.965 5.52489 117.31 4.77196 118.683 4.11293C118.804 4.05424 118.93 4.02742 119.055 4.02742C119.376 4.02742 119.684 4.20684 119.832 4.51539C119.981 4.82562 119.927 5.18111 119.724 5.43097C119.647 5.52656 119.548 5.60705 119.429 5.66407C118.12 6.29458 116.838 7.01061 115.618 7.79708C115.473 7.8893 115.312 7.9346 115.153 7.9346ZM153.428 7.27052C153.277 7.27052 153.126 7.2303 152.987 7.14813C151.738 6.40191 150.432 5.72609 149.105 5.14086C148.669 4.94969 148.473 4.4416 148.664 4.0056C148.807 3.68532 149.122 3.49248 149.454 3.49248C149.57 3.49248 149.687 3.51596 149.8 3.56627C151.191 4.18002 152.561 4.88764 153.871 5.66908C154.279 5.91391 154.413 6.44213 154.168 6.8513C154.148 6.88651 154.123 6.92005 154.097 6.95191C153.93 7.15817 153.682 7.27052 153.428 7.27052ZM123.201 4.06263C122.842 4.06263 122.506 3.83457 122.386 3.47571C122.233 3.02462 122.474 2.53664 122.927 2.38572C124.368 1.89942 125.857 1.49695 127.349 1.19008C127.408 1.17834 127.465 1.17331 127.524 1.17331C127.923 1.17331 128.282 1.45335 128.365 1.86084C128.419 2.12244 128.347 2.38235 128.191 2.57519C128.07 2.72612 127.898 2.83511 127.696 2.87704C126.271 3.17049 124.852 3.55283 123.476 4.01733C123.385 4.04751 123.293 4.06263 123.201 4.06263ZM145.248 3.66518C145.166 3.66518 145.084 3.65345 145.002 3.62997C143.61 3.21242 142.178 2.8804 140.743 2.63893C140.275 2.56011 139.958 2.11575 140.038 1.64622C140.109 1.22531 140.473 0.928489 140.885 0.928489C140.932 0.928489 140.981 0.931829 141.029 0.940214C142.534 1.19343 144.036 1.5439 145.495 1.97989C145.951 2.11572 146.209 2.59532 146.073 3.05144C146.04 3.16212 145.986 3.26105 145.918 3.34657C145.755 3.54612 145.508 3.66518 145.248 3.66518ZM131.956 2.26497C131.511 2.26497 131.134 1.9229 131.097 1.47181C131.06 1.0006 131.412 0.58304 131.887 0.544472C132.873 0.465657 133.871 0.427088 134.867 0.427088C135.402 0.427088 135.937 0.43715 136.47 0.460627C136.944 0.480749 137.313 0.883206 137.293 1.35777C137.283 1.54894 137.214 1.72333 137.102 1.86251C136.943 2.05703 136.701 2.18112 136.433 2.18112C136.42 2.18112 136.408 2.18112 136.394 2.18112C135.886 2.15932 135.377 2.14758 134.865 2.14758C133.916 2.14758 132.965 2.18617 132.024 2.26163C132.001 2.2633 131.979 2.26497 131.956 2.26497Z" fill="#DEE8FD"/>
<path d="M135.797 74.7839C135.333 74.7839 134.951 74.4133 134.937 73.9471C134.924 73.4726 135.298 73.0751 135.774 73.0617C137.201 73.0232 138.641 72.8957 140.058 72.6861C140.102 72.6794 140.144 72.676 140.186 72.676C140.607 72.676 140.974 72.9829 141.038 73.4105C141.075 73.6587 141.001 73.8985 140.853 74.0796C140.722 74.2406 140.533 74.3563 140.312 74.3882C138.828 74.6095 137.317 74.742 135.821 74.7822C135.812 74.7839 135.804 74.7839 135.797 74.7839ZM131.394 74.6364C131.367 74.6364 131.34 74.6347 131.313 74.633C129.818 74.4922 128.318 74.2574 126.858 73.9371C126.392 73.8348 126.098 73.377 126.201 72.9125C126.288 72.51 126.647 72.235 127.041 72.235C127.103 72.235 127.163 72.2417 127.225 72.2551C128.619 72.5603 130.049 72.785 131.474 72.9175C131.947 72.9628 132.296 73.382 132.251 73.8549C132.236 74.031 132.167 74.1886 132.063 74.3161C131.904 74.5123 131.66 74.6364 131.394 74.6364ZM144.492 73.486C144.115 73.486 143.768 73.2361 143.664 72.8538C143.536 72.3943 143.806 71.9214 144.264 71.794C145.644 71.4167 147.013 70.9488 148.332 70.4055C148.44 70.3619 148.55 70.3401 148.659 70.3401C148.998 70.3401 149.32 70.5413 149.456 70.875C149.58 71.1769 149.519 71.5089 149.328 71.7453C149.241 71.8527 149.125 71.9415 148.988 71.9986C147.601 72.567 146.167 73.0567 144.722 73.4558C144.645 73.4759 144.569 73.486 144.492 73.486ZM152.623 70.1489C152.322 70.1489 152.03 69.9896 151.872 69.7096C151.639 69.2937 151.787 68.7722 152.201 68.5374C153.445 67.8382 154.663 67.055 155.818 66.2099C155.97 66.0975 156.15 66.0438 156.326 66.0438C156.591 66.0438 156.853 66.1646 157.02 66.3943C157.257 66.718 157.235 67.1489 156.995 67.4457C156.95 67.5028 156.896 67.5531 156.834 67.5984C155.623 68.4855 154.349 69.3071 153.044 70.0383C152.912 70.1137 152.766 70.1489 152.623 70.1489ZM159.71 64.9471C159.482 64.9471 159.254 64.8566 159.084 64.6755C158.758 64.33 158.779 63.7867 159.12 63.4597C160.159 62.4821 161.149 61.4273 162.066 60.3272C162.235 60.1227 162.48 60.017 162.727 60.017C162.921 60.017 163.116 60.0824 163.277 60.2166C163.639 60.5184 163.691 61.055 163.396 61.4206L163.389 61.429C162.428 62.5827 161.389 63.6878 160.3 64.7124C160.134 64.87 159.923 64.9471 159.71 64.9471Z" fill="#B0C7FB"/>
<path d="M166.717 53.1469C166.722 53.1369 166.725 53.1268 166.73 53.1167C166.881 52.8116 167.188 52.6338 167.506 52.6338C167.632 52.6338 167.761 52.6623 167.882 52.721C167.966 52.7613 168.038 52.8132 168.102 52.8736C167.635 52.9642 167.181 53.053 166.717 53.1469Z" fill="url(#paint5_linear)"/>
<path d="M165.336 58.1895C165.177 58.1895 165.014 58.1459 164.87 58.052C164.471 57.7938 164.357 57.2605 164.615 56.8614C165.385 55.6708 166.093 54.4199 166.716 53.1471C167.181 53.0532 167.635 52.9643 168.102 52.8738C168.363 53.1253 168.445 53.5278 168.278 53.8715C167.62 55.2181 166.876 56.5395 166.061 57.7971C166.042 57.824 166.026 57.8474 166.005 57.8726C165.838 58.0788 165.59 58.1895 165.336 58.1895Z" fill="#B0C7FB"/>
<path d="M169.19 50.2846C169.097 50.2846 169.003 50.2695 168.91 50.2376C168.46 50.0834 168.222 49.5937 168.376 49.1443C168.841 47.7911 169.228 46.3976 169.525 44.999C169.612 44.5949 169.969 44.3182 170.367 44.3182C170.427 44.3182 170.486 44.3233 170.546 44.3367C171.011 44.4356 171.307 44.8917 171.208 45.3579C170.898 46.8235 170.492 48.2857 170.004 49.7044C169.971 49.8016 169.921 49.8905 169.859 49.966C169.696 50.1672 169.449 50.2846 169.19 50.2846Z" fill="url(#paint6_linear)"/>
<path d="M171.022 41.6435C170.997 41.6435 170.974 41.6418 170.949 41.6402C170.474 41.5982 170.124 41.1807 170.166 40.7078C170.226 40.0068 170.266 39.3025 170.285 38.6116C170.298 38.1438 170.682 37.7732 171.146 37.7732C171.155 37.7732 171.162 37.7732 171.168 37.7732C171.644 37.7866 172.018 38.184 172.007 38.6586C171.987 39.383 171.943 40.1225 171.879 40.8554C171.864 41.0348 171.797 41.1941 171.691 41.3232C171.532 41.5194 171.289 41.6435 171.022 41.6435Z" fill="url(#paint7_linear)"/>
<path d="M161.306 28.6442C161.268 28.4614 161.118 28.3239 160.934 28.3004L155.672 27.6279C154.627 25.3809 153.217 23.2848 151.46 21.4368L152.762 16.2971C152.808 16.1177 152.734 15.9282 152.578 15.8259L147.256 12.3363C147.101 12.234 146.897 12.2424 146.751 12.3564L142.557 15.5996C140.161 14.7259 137.675 14.2681 135.199 14.2061L132.484 9.64658C132.388 9.48727 132.202 9.40511 132.021 9.44368L125.79 10.7399C125.608 10.7768 125.469 10.926 125.446 11.1105L124.775 16.3743C122.528 17.419 120.43 18.8293 118.584 20.5867L113.443 19.2837C113.263 19.2384 113.074 19.3122 112.971 19.4665L109.482 24.789C109.379 24.9449 109.388 25.1478 109.502 25.2954L112.747 29.4893C111.871 31.8839 111.414 34.3691 111.351 36.8459L106.794 39.5608C106.634 39.6564 106.552 39.8425 106.589 40.0253L107.885 46.2549C107.924 46.4377 108.073 46.5752 108.258 46.5987L113.52 47.2711C114.564 49.5182 115.975 51.6143 117.732 53.4623L116.429 58.6019C116.384 58.7831 116.458 58.9725 116.614 59.0731L121.936 62.5628C122.09 62.6651 122.295 62.6567 122.441 62.5427L126.635 59.2995C129.031 60.1749 131.516 60.631 133.993 60.693L136.708 65.2525C136.802 65.4118 136.988 65.494 137.171 65.4554L143.402 64.1592C143.583 64.1223 143.722 63.973 143.746 63.7886L144.417 58.5248C146.664 57.4801 148.76 56.0698 150.608 54.3124L155.747 55.6154C155.928 55.6606 156.118 55.5886 156.22 55.4326L159.71 50.1101C159.811 49.9542 159.804 49.7513 159.69 49.6037L156.445 45.4098C157.32 43.0152 157.778 40.53 157.84 38.0532L162.398 35.3383C162.557 35.2427 162.639 35.0566 162.603 34.8755L161.306 28.6442Z" fill="#91B3FA"/>
<path d="M131.069 40.691C131.934 41.6334 133.115 42.1818 134.394 42.2354C135.672 42.2908 136.896 41.843 137.837 40.9761C138.779 40.1108 139.327 38.9303 139.381 37.6508C139.436 36.373 138.989 35.1505 138.123 34.2081C136.336 32.2646 133.301 32.1355 131.355 33.9214C131.179 34.0841 131.018 34.2551 130.873 34.4345C129.402 36.2489 129.442 38.9219 131.069 40.691ZM139.002 42.2438C137.723 43.4227 136.059 44.0297 134.32 43.9559C132.583 43.8838 130.978 43.1376 129.801 41.8564C127.371 39.212 127.547 35.0919 130.19 32.6537C132.835 30.2255 136.961 30.3999 139.391 33.0427C140.568 34.3238 141.175 35.9857 141.102 37.7246C141.043 39.1365 140.538 40.463 139.664 41.5412C139.463 41.7894 139.242 42.0242 139.002 42.2438Z" fill="#BDD0FB"/>
<path d="M147.051 47.6904C147.395 47.2662 147.718 46.8235 148.024 46.359C148.629 45.435 149.142 44.449 149.548 43.4261C149.565 43.3808 149.583 43.3338 149.602 43.2886C149.739 42.9314 149.623 42.539 149.342 42.3093C149.273 42.2539 149.194 42.2086 149.107 42.1751C148.664 42.0041 148.168 42.2254 147.995 42.6681C147.626 43.6273 147.15 44.5513 146.585 45.4132C146.553 45.4618 146.521 45.5088 146.489 45.5558C145.131 47.5848 143.318 49.198 141.212 50.3014C140.067 50.9017 138.836 51.3494 137.541 51.6311L137.509 51.6378C137.478 51.6445 137.446 51.6512 137.414 51.6579C133.622 52.4461 129.752 51.7116 126.514 49.5887C126.095 49.3137 125.692 49.0202 125.308 48.71C122.726 46.6139 120.955 43.7179 120.269 40.4177C119.481 36.6263 120.216 32.756 122.339 29.5179C124.462 26.2832 127.72 24.063 131.51 23.2748C135.301 22.4867 139.171 23.2212 142.409 25.3441C142.822 25.6141 143.219 25.9042 143.598 26.2128C145.247 27.5493 146.583 29.2312 147.507 31.1428C147.564 31.2602 147.645 31.3592 147.74 31.4363C147.992 31.6392 148.347 31.6928 148.657 31.5419C149.085 31.334 149.265 30.8209 149.058 30.3933C148.024 28.2535 146.528 26.3704 144.685 24.8763C144.259 24.5308 143.815 24.2055 143.353 23.9037C139.731 21.5292 135.4 20.7058 131.159 21.5879C126.918 22.4716 123.273 24.9484 120.9 28.5738C118.524 32.1976 117.7 36.5274 118.584 40.7682C119.352 44.4607 121.331 47.7005 124.222 50.0448C124.651 50.3919 125.101 50.7222 125.568 51.0291C132.583 55.6272 141.879 54.0693 147.051 47.6904Z" fill="#BDD0FB"/>
<path d="M60.363 454.35C60.363 454.35 59.3935 459.549 58.8935 464.698C58.698 466.711 60.2343 468.475 62.2538 468.579C69.115 468.929 83.792 469.625 89.0627 469.441C89.855 469.414 90.3807 468.607 90.0945 467.868C89.8549 467.249 89.3858 466.744 88.7848 466.461L64.6389 455.083L60.363 454.35Z" fill="#2D2D9A"/>
<path d="M59.6384 451.283L60.3179 457.519C60.3179 457.519 64.5476 459.537 67.4701 457.338L65.777 450.381L59.6384 451.283Z" fill="url(#paint8_linear)"/>
<path d="M61.3108 334.199C60.9761 335.822 58.8233 415.346 66.9849 451.07C67.1183 451.652 66.8176 452.249 66.262 452.47C64.9529 452.99 62.3892 453.738 59.3245 453.81C58.3756 453.834 57.5308 453.208 57.2717 452.296C54.9205 444.002 43.6704 402.459 42.5291 362.864C41.2535 318.619 42.5433 361.358 42.5433 361.358L43.7997 334.028L61.3108 334.199Z" fill="#6564C4"/>
<path d="M32.4385 456.8C32.4385 456.8 30.9494 459.416 29.4654 466.387C29.1973 467.646 30.0672 468.862 31.347 469C33.6114 469.245 37.0976 469.565 39.8929 469.572C41.1814 469.575 42.1976 468.463 42.0546 467.182C41.7693 464.63 40.8447 460.437 37.8963 457.149L32.4385 456.8Z" fill="#2D2D9A"/>
<path d="M31.2292 448.778L32.8659 458.212C32.8659 458.212 34.5611 459.498 37.947 458.611L37.2196 448.469L31.2292 448.778Z" fill="url(#paint9_linear)"/>
<path d="M27.637 336.318C20.2833 378.215 28.1559 440.051 30.8944 452.165C31.0621 452.906 31.6539 453.478 32.4028 453.611C33.6745 453.834 35.7702 454.027 37.8435 453.445C38.5579 453.245 39.0644 452.608 39.1005 451.867C39.5767 442.099 39.4599 382.103 46.165 358.457C46.5049 357.258 47.2486 356.216 48.2706 355.505L60.9311 346.685L62.0331 332.243L27.637 336.318Z" fill="#6564C4"/>
<path d="M72.7029 257.227C51.8683 256.684 28.8205 262.28 28.8205 262.28C22.2633 298.464 26.9898 340.316 26.9898 340.316C43.0816 344.701 61.3447 338.057 61.3447 338.057C64.1705 322.935 77.0875 280.421 77.0875 280.421C87.2808 279.253 95.6962 276.396 102.64 272.579C97.4301 266.422 95.0204 258.628 93.9857 254.023C86.596 256.243 79.1291 257.395 72.7029 257.227Z" fill="#FF7542"/>
<path d="M134.548 227.12C132.524 224.628 129.922 225.774 129.922 225.774C126.732 238.698 110.553 249.047 93.9856 254.023C95.0202 258.628 97.43 266.422 102.64 272.579C130.202 257.427 134.548 227.12 134.548 227.12Z" fill="url(#paint10_linear)"/>
<path d="M134.045 227.744C134.253 228.428 131.761 229.441 130.328 226.642C130.291 225.306 129.533 219.581 130.341 218.501C134.644 212.751 142.948 205.571 142.948 205.571C144.328 206.957 143.167 208.295 143.167 208.295L139.133 212.419C139.955 213.937 140.961 215.221 141.422 217.052C141.771 218.439 141.534 219.915 140.823 221.167C140.11 222.423 139.138 224.057 138.221 225.333C136.487 227.749 134.045 227.744 134.045 227.744Z" fill="url(#paint11_linear)"/>
<path d="M137.36 215.102L133.69 218.154L132.518 221.216L135.729 224.848C135.729 224.848 136.879 218.761 137.702 217.45C138.526 216.136 138.112 215.494 137.36 215.102Z" fill="url(#paint12_linear)"/>
<path d="M36.6204 282.533L28.8205 262.28C28.8205 262.28 9.23023 275.319 5.86938 292.057C9.54448 292.362 16.2276 293.383 22.7466 296.754C24.2615 288.849 36.6204 282.533 36.6204 282.533Z" fill="#FF7542"/>
<path d="M53.4486 301.682C53.4486 301.682 31.4778 313.824 24.2048 303.208C22.6949 301.003 22.3494 298.824 22.7465 296.753C16.2276 293.383 9.54444 292.362 5.86934 292.056C4.85615 297.102 5.31495 302.483 8.23343 307.945C20.9241 331.695 56.2893 307.098 56.2893 307.098L53.4486 301.682Z" fill="url(#paint13_linear)"/>
<path d="M51.7573 240.108L44.9439 259.219C44.8311 259.536 44.9582 259.889 45.2509 260.055C47.0487 261.071 53.5327 264.022 61.4272 259.121C62.2497 258.611 62.8142 257.771 62.9475 256.811L65.2529 240.237L51.7573 240.108Z" fill="url(#paint14_linear)"/>
<path d="M66.3531 222.49C66.3531 222.49 73.5034 236.264 72.5172 241.791C71.531 247.319 62.5114 246.836 54.6747 242.264L49.3098 227.412L66.3531 222.49Z" fill="url(#paint15_linear)"/>
<path d="M55.0924 235C55.4138 234.861 55.5357 234.47 55.3467 234.175C54.7717 233.278 53.6958 231.45 53.362 229.855C53.362 229.855 52.0612 229.005 56.7119 227.939C61.3628 226.872 68.299 225.214 69.7911 221.278C71.246 217.441 67.6124 207.72 61.5944 215.38C61.3655 215.672 60.9224 215.674 60.6992 215.379C59.737 214.101 57.2002 211.443 53.6281 213.006C50.2853 214.468 49.8871 216.903 49.921 218.132C49.931 218.494 49.6049 218.773 49.2502 218.701C47.5704 218.364 43.5345 218.05 41.6099 222.175C40.0249 225.573 41.0156 227.514 41.9255 228.467C42.2205 228.775 42.0851 229.278 41.6755 229.399C40.5662 229.728 39.1293 230.652 39.2473 233.244C39.411 236.829 43.4191 236.551 44.5609 236.399C44.748 236.375 44.9359 236.44 45.061 236.581C46.0284 237.673 50.3898 242.31 55.1524 242.908C55.5649 242.96 55.8889 242.556 55.7572 242.162L53.751 236.144C53.6579 235.864 53.7941 235.56 54.0646 235.443L55.0924 235Z" fill="#2D2D9A"/>
<path d="M55.9135 235.859C55.9135 235.859 50.7635 232.254 50.356 235.245C49.9489 238.236 54.9828 239.627 57.4933 238.535L55.9135 235.859Z" fill="url(#paint16_linear)"/>
<path d="M48.9581 320.871L60.9266 279.074C61.0625 278.599 61.4673 278.254 61.9574 278.197C64.126 277.943 70.4093 277.232 77.6643 276.619C86.4028 275.881 96.5512 275.282 102.615 275.79C103.477 275.862 103.998 276.775 103.614 277.551C100.167 284.527 85.9817 312.907 78.8782 322.204C78.6429 322.512 78.279 322.692 77.8913 322.688L50.1225 322.43C49.3144 322.423 48.7357 321.647 48.9581 320.871Z" fill="#2D2D9A"/>
<path d="M51.8502 310.773C51.8502 310.773 50.1828 303.917 50.8554 301.486C51.5279 299.052 52.831 295.925 57.1741 296.621C61.5173 297.315 66.6406 299.145 66.6406 299.145C66.6406 299.145 66.3818 302.312 63.0809 301.291L65.1278 302.874C65.1278 302.874 64.8354 305.411 62.047 304.056L63.951 306.158C63.951 306.158 62.7535 308.24 60.7022 306.904C58.6508 305.567 57.6675 311.598 51.8502 310.773Z" fill="url(#paint17_linear)"/>
<path d="M76.8665 289.097C76.8665 291.037 78.4394 292.61 80.3797 292.61C82.3201 292.61 83.893 291.037 83.893 289.097C83.893 287.157 82.3201 285.584 80.3797 285.584C78.4394 285.584 76.8665 287.157 76.8665 289.097Z" fill="#91B3FA"/>
<path d="M62.2809 291.412L64.7176 283.147C65.0166 282.131 65.8329 281.37 66.8473 281.157C74.4849 279.564 95.3891 279.227 95.5987 279.223L95.5853 278.289C94.7234 278.303 74.3811 278.631 66.6566 280.243C65.3049 280.525 64.2185 281.537 63.8215 282.882L61.3848 291.148L62.2809 291.412Z" fill="#BDD0FB"/>
<path d="M373.338 229.253C373.67 228.62 374.609 228.718 374.802 229.409C375.511 231.965 377.23 236.422 380.834 238.005C381.015 238.086 381.188 238.166 381.354 238.247C381.518 237.757 381.52 237.187 381.127 236.588C380.007 234.876 382.031 232.537 382.031 232.537C382.031 232.537 382.164 234.598 383.73 235.894C385.08 237.012 385.727 239.498 384.805 241.538C382.855 249.116 379.932 259.137 391.313 266.46C402.692 273.782 418.717 252.641 418.717 252.641L410.763 277.856C410.763 277.856 398.487 286.917 384.206 274.177C369.926 261.438 379.392 242.9 379.392 242.9C379.392 242.9 368.5 238.507 373.338 229.253Z" fill="url(#paint18_linear)"/>
<path d="M420.711 215.593C420.711 215.593 417.415 200.805 434.355 204.719C434.355 204.719 442.576 203.376 442.996 211.136C442.996 211.136 448.296 214.629 444.414 221.347C444.414 221.347 460.167 215.261 467.031 229.069C473.894 242.877 467.586 250.473 460.972 252.452C460.972 252.452 466.33 255.143 463.793 261.217C461.257 267.292 448.412 271.573 440.826 264.186C440.826 264.186 419.236 267.039 419.668 251.789C419.668 251.789 409.625 245.305 420.173 232.703C430.721 220.099 420.711 215.593 420.711 215.593Z" fill="#2D2D9A"/>
<path d="M419.78 249.871C423.184 248.851 433.096 246.966 442.524 255.666C444.122 257.142 444.776 259.384 444.206 261.483C441.674 270.807 434.993 298.348 440.85 310.266C440.85 310.266 430.527 321.645 419.265 312.473C419.265 312.473 414.212 290.45 407.594 280.783C403.024 274.109 414.88 255.718 417.878 251.274C418.333 250.602 419.003 250.105 419.78 249.871Z" fill="#FF7542"/>
<path d="M429.179 231.351C429.179 231.351 434.213 245.591 434.592 251.873C434.592 251.873 429.029 254.403 423.787 250.132C423.787 250.132 423.237 235.909 422.442 233.362L429.179 231.351Z" fill="url(#paint19_linear)"/>
<path d="M422.187 211.936C422.187 211.936 409.02 230.361 416.891 235.714C424.761 241.067 434.135 227.972 434.135 227.972C434.135 227.972 437.19 217.885 433.996 214.465C430.801 211.042 422.187 211.936 422.187 211.936Z" fill="url(#paint20_linear)"/>
<path d="M428.282 207.531C428.282 207.531 422.232 208.964 421.385 211.701C420.537 214.439 429.963 216.977 432.604 217.101L434.732 228.145C434.732 228.145 441.024 217.756 438.532 211.755C436.04 205.755 428.282 207.531 428.282 207.531Z" fill="#2D2D9A"/>
<path d="M431.582 226.616C431.582 226.616 436.707 220.681 438.746 224.55C440.785 228.42 434.133 231.324 431.83 229.424L431.582 226.616Z" fill="url(#paint21_linear)"/>
<path d="M406.118 358.711C406.157 359.711 404.401 367.641 403.445 371.872C403.061 373.574 403.33 375.355 404.197 376.869L437.28 432.552C437.681 433.226 437.971 433.956 438.149 434.719C438.756 437.331 440.014 443.735 439.356 449.561L437.644 453.116L445.046 451.436L446.657 431.558L444.561 430.28C442.752 429.176 441.342 427.525 440.535 425.564C437.544 418.298 430.115 399.801 428.2 390.785C426.023 380.54 414.645 372.219 414.645 372.219L416.644 367.493L406.118 358.711Z" fill="url(#paint22_linear)"/>
<path d="M453.273 444.596C453.273 444.596 449.276 438.259 448.806 435.79C448.336 433.323 447.027 428.968 444.562 430.28C444.562 430.28 443.401 442.263 443.8 446.945C444.201 451.627 438.508 451.476 438.508 451.476C438.508 451.476 436.938 451.697 435.79 452.846C434.997 453.639 435.563 455.016 436.684 455.088C438.547 455.209 441.506 455.239 444.614 454.639C445.699 454.429 446.504 453.505 446.571 452.402L447.391 438.609L452.433 444.976L453.273 444.596Z" fill="#2D2D9A"/>
<path d="M425.883 367.581C425.883 367.581 427.05 417.39 427.208 424.463C427.365 431.538 426.091 447.213 418.999 451.9L422.085 454.184C422.085 454.184 425.942 450.906 429.71 444.599C433.94 437.513 435.222 436.218 435.222 436.218L433.816 433.342C433.201 432.083 433.021 430.659 433.303 429.286C434.834 421.869 439.947 397.198 441.341 391.886C442.987 385.614 443.105 377.24 437.378 370.23C431.65 363.219 425.883 367.581 425.883 367.581Z" fill="url(#paint23_linear)"/>
<path d="M432.431 456.429C432.651 456.431 432.839 456.274 432.869 456.056C433.105 454.395 434.088 447.738 434.891 446.014C435.812 444.041 438.82 435.732 434.89 435.026C434.89 435.026 425.118 449.303 423.242 451.228C421.367 453.153 418.999 451.9 418.999 451.9C418.999 451.9 417.172 452.44 415.793 454.201C415.137 455.039 415.748 456.27 416.813 456.28L423.394 456.342C425.306 456.361 427.025 455.2 427.736 453.425C428.895 450.532 430.885 446.286 433.204 444.404L431.999 455.945C431.972 456.201 432.173 456.426 432.431 456.429Z" fill="#2D2D9A"/>
<path d="M417.708 307.103C417.708 307.103 419.19 311.831 416.913 319.616L402.776 368.977C402.555 369.754 402.973 370.565 403.732 370.837C407.961 372.355 421.86 376.644 440.834 375.336C441.79 375.271 442.59 374.593 442.798 373.659C444.049 368.032 448.313 348.833 449.192 344.887C452.539 329.856 456.275 313.645 439.836 303.842C432.261 307.087 425.195 309 417.708 307.103Z" fill="#6564C4"/>
<path d="M443.872 257.527C443.872 257.527 459.956 270.892 463.947 289.156C467.938 307.42 440.445 309.361 440.445 309.361C440.445 309.361 436.713 305.193 432.281 306.679C427.851 308.167 431.939 299.406 437.123 299.43C442.308 299.452 439.906 303.552 447.24 300.23C454.383 296.993 458.8 286.986 440.572 271.815C439.516 270.934 438.672 269.814 438.164 268.536C434.624 259.622 437.431 253.78 443.872 257.527Z" fill="url(#paint24_linear)"/>
<path d="M343.233 456.022H337.496V393.983H343.233V456.022Z" fill="#7D97F4"/>
<path d="M365.487 457.217H315.244V453.899C315.244 453.669 315.428 453.483 315.658 453.483H365.073C365.301 453.483 365.487 453.669 365.487 453.899V457.217Z" fill="#7D97F4"/>
<path d="M374.989 391.696C374.989 395.302 372.039 398.251 368.432 398.251H314.409C310.802 398.251 307.852 395.302 307.852 391.696V385.767C307.852 382.162 310.802 379.212 314.409 379.212H368.432C372.039 379.212 374.989 382.162 374.989 385.767V391.696Z" fill="#7D97F4"/>
<path d="M289.512 437.182C289.512 437.182 270.967 445.169 272.03 453.53C272.03 453.53 291.2 449.852 294.631 444.372C298.062 438.894 296.171 435.72 296.171 435.72L289.512 437.182Z" fill="#2D2D9A"/>
<path d="M294.055 428.051L294.997 436.191C295.138 437.42 294.457 438.631 293.294 439.051C292.71 439.26 291.945 439.404 290.944 439.409C289.529 439.416 288.277 438.487 287.898 437.124L286.073 430.54L294.055 428.051Z" fill="url(#paint25_linear)"/>
<path d="M334.569 365.636C334.569 365.636 300.459 364.056 283.485 373.955C266.512 383.853 284.346 431.361 284.346 431.361C284.346 431.361 288.779 432.314 295.163 428.901C295.163 428.901 286.053 394.124 301.879 388.074C319.671 381.273 338.075 382.926 338.075 382.926L334.665 366.709L334.569 365.636Z" fill="#6564C4"/>
<path d="M275.756 449.861C279.635 449.011 291.137 444.245 292.884 444.309C294.632 444.373 297.107 446.99 297.107 446.99C297.107 446.99 297.533 448.42 296.283 450.475C293.32 452.787 286.936 457.03 279.513 457.494C274.054 457.836 270.769 455.663 268.89 453.557C270.535 451.955 273.174 450.426 275.756 449.861Z" fill="#2D2D9A"/>
<path d="M279.513 457.495C286.936 457.03 293.32 452.787 296.283 450.475C295.438 451.863 293.83 453.535 290.807 455.246C283.306 459.484 270.909 458.865 268.45 457.911C266.482 457.148 267.09 455.308 268.89 453.557C270.769 455.663 274.054 457.837 279.513 457.495Z" fill="url(#paint26_linear)"/>
<path d="M301.179 442.731C300.925 443.692 298.209 446.576 296.637 448.184C295.891 448.949 294.808 449.277 293.763 449.049C293.103 448.905 292.355 448.679 291.707 448.327C290.736 447.8 290.399 446.567 290.931 445.598L294.904 438.374L301.179 442.731Z" fill="url(#paint27_linear)"/>
<path d="M368.374 362.775C368.374 362.775 371.351 383.897 362.742 388.215C354.134 392.531 335.251 395.358 328.748 406.314C322.243 417.269 310.562 438.773 299.932 444.951C299.932 444.951 293.862 442.977 292.088 439.991C292.088 439.991 304.705 406.822 309.968 398.761C314.528 391.778 321.193 381.72 330.663 377.37C333.374 376.124 333.586 373.249 333.109 370.304L332.241 364.941L368.374 362.775Z" fill="#6564C4"/>
<path d="M288.585 338.829C300.654 342.275 306.057 308.307 306.008 307.481L324.513 329.118C324.513 329.118 313.487 348.519 296.837 350.584C292.625 351.107 289.041 350.377 286.036 349.001C288.25 345.375 288.756 341.792 288.585 338.829Z" fill="#FF9A75"/>
<path d="M266.234 327.711C271.494 325.549 275.956 329.864 275.956 329.864C281.168 335.198 285.302 337.893 288.585 338.829C288.756 341.792 288.25 345.375 286.036 349.001C279.533 346.023 275.742 339.999 274.18 336.994C273.619 335.911 272.301 335.453 271.202 335.985C270.087 336.523 268.938 337.346 268.866 338.463C268.724 340.667 266.103 340.796 266.088 339.982C266.073 339.169 268.118 334.818 268.118 334.818C268.118 334.818 262.073 338.694 259.721 340.177C257.368 341.659 255.364 339.213 255.364 339.213C255.364 339.213 260.973 329.872 266.234 327.711Z" fill="url(#paint28_linear)"/>
<path d="M363.725 293.503C363.725 293.503 347.506 282.438 308.333 302.45C308.333 302.45 304.299 307.564 306.189 313.328C308.079 319.093 331.337 350.294 332.241 364.941C332.241 364.941 348.14 374.3 368.779 365.022C368.779 365.022 375.7 326.346 363.725 293.503Z" fill="#FF7542"/>
<path d="M329.951 279.356L336.362 291.916C336.997 293.163 336.865 294.673 335.991 295.768C334.225 297.978 330.541 300.951 324.253 299.034C322.381 298.466 320.951 296.943 320.5 295.04L317.178 281.021L329.951 279.356Z" fill="url(#paint29_linear)"/>
<path d="M375.736 337.361C376.833 329.726 356.658 314.928 356.658 314.928L363.725 293.504C363.725 293.504 402.223 320.976 394.127 343.413C392.967 346.629 391.234 348.972 389.125 350.634C385.047 342.273 379.518 338.797 375.736 337.361Z" fill="#FF7542"/>
<path d="M347.59 339.479C347.59 339.479 370.411 345.853 375.147 338.907C375.469 338.436 375.656 337.916 375.737 337.361C379.518 338.797 385.047 342.273 389.125 350.634C378.289 359.157 357.397 349.603 351.72 346.738C350.786 346.266 349.712 346.175 348.714 346.485C346.695 347.116 343.197 348.095 341.247 347.988C338.394 347.83 335.334 358.136 330.481 355.527C330.481 355.527 332.686 337.92 347.59 339.479Z" fill="url(#paint30_linear)"/>
<path d="M321.735 258.83C321.531 259.006 313.078 273.773 308.773 281.301C307.46 283.598 308.443 286.524 310.876 287.567L312.741 288.365C315.288 289.459 320.766 290.373 322.923 288.63L336.516 274.285C336.516 274.285 326.307 254.873 321.735 258.83Z" fill="url(#paint31_linear)"/>
<path d="M340.344 270.369C342.011 269.433 344.015 267.537 342.455 264.183C340.869 260.774 337.735 260.477 335.716 260.695C334.899 260.782 334.161 260.264 333.923 259.478C333.789 259.03 333.457 258.636 332.741 258.522C331.777 258.369 331.178 257.385 331.43 256.441C331.913 254.628 331.83 252.166 328.916 250.402C323.743 247.27 318.907 251.819 317.56 255.773C316.214 259.729 322.016 262.806 325.72 263.433C328.535 263.911 329.91 267.16 330.407 268.689C330.564 269.174 330.489 269.702 330.209 270.128L326.077 276.406C327.214 277.836 328.22 279.347 329.213 280.875C329.585 280.476 329.91 280.142 330.164 279.909C331.958 278.264 335.151 279.113 336.465 279.565C336.896 279.713 337.364 279.679 337.77 279.47C339.2 278.73 342.09 276.653 339.722 272.722C339.226 271.9 339.507 270.84 340.344 270.369Z" fill="#2D2D9A"/>
<path d="M327.708 283.56C327.708 283.56 330.351 276.77 333.353 277.147C336.356 277.526 338.604 280.628 334.728 283.846C329.907 287.851 327.708 283.56 327.708 283.56Z" fill="url(#paint32_linear)"/>
<path d="M318.449 354.011C318.408 354.013 318.366 354.013 318.326 354.013L265.009 353.956C263.691 353.954 262.623 352.885 262.625 351.566C262.626 350.248 263.699 349.158 265.014 349.182L318.331 349.241C319.649 349.242 320.716 350.312 320.716 351.63C320.714 352.906 319.71 353.949 318.449 354.011Z" fill="#2D2D9A"/>
<path d="M217.08 305.603H261.483C264.757 305.603 267.739 307.492 269.136 310.455L289.663 353.983H234.483C232.372 353.983 230.475 352.693 229.7 350.73L213.781 310.452C212.862 308.125 214.576 305.603 217.08 305.603Z" fill="#2D2D9A"/>
<path d="M248.361 327.92C249.324 330.909 248.613 333.813 246.775 334.405C244.935 334.997 242.665 333.053 241.702 330.063C240.74 327.074 241.451 324.171 243.29 323.579C245.128 322.987 247.4 324.93 248.361 327.92Z" fill="#91B3FA"/>
<path d="M224.278 468.366C223.982 468.366 223.682 468.309 223.394 468.188C222.257 467.715 221.732 466.439 222.222 465.339L269.21 359.585C269.7 358.485 271.016 357.977 272.155 358.45C273.29 358.923 273.815 360.199 273.327 361.299L226.337 467.053C225.973 467.873 225.146 468.366 224.278 468.366Z" fill="#91B3FA"/>
<path d="M277.214 468.366C276.345 468.366 275.518 467.875 275.155 467.053L228.164 361.299C227.676 360.199 228.201 358.923 229.338 358.45C230.473 357.977 231.791 358.485 232.281 359.585L279.27 465.339C279.759 466.439 279.234 467.715 278.098 468.188C277.809 468.309 277.509 468.366 277.214 468.366Z" fill="#91B3FA"/>
<path d="M369.73 468.366C369.435 468.366 369.135 468.309 368.844 468.188C367.709 467.715 367.183 466.439 367.672 465.339L414.661 359.585C415.15 358.485 416.467 357.977 417.605 358.45C418.742 358.923 419.267 360.199 418.777 361.299L371.789 467.053C371.424 467.873 370.599 468.366 369.73 468.366Z" fill="#91B3FA"/>
<path d="M422.665 468.366C421.796 468.366 420.969 467.875 420.605 467.053L373.617 361.299C373.128 360.199 373.652 358.923 374.789 358.45C375.925 357.977 377.243 358.485 377.732 359.585L424.722 465.339C425.21 466.439 424.685 467.715 423.548 468.188C423.26 468.309 422.96 468.366 422.665 468.366Z" fill="#91B3FA"/>
<path d="M428.176 356.32C428.295 355.626 428.133 354.91 427.73 354.365C427.329 353.82 426.731 353.503 426.1 353.503H212.334C211.504 353.503 210.731 353.978 210.285 354.761C209.837 355.542 209.777 356.527 210.126 357.37L212.442 362.983C212.973 364.269 214.122 365.092 215.386 365.092H424.633C425.81 365.092 426.821 364.158 427.044 362.864L428.176 356.32Z" fill="#91B3FA"/>
<defs>
<linearGradient id="paint0_linear" x1="525.772" y1="605.458" x2="109.827" y2="88.8801" gradientUnits="userSpaceOnUse">
<stop stop-color="#DAE3FE"/>
<stop offset="1" stop-color="#E9EFFD"/>
</linearGradient>
<linearGradient id="paint1_linear" x1="525.782" y1="605.431" x2="109.866" y2="88.8516" gradientUnits="userSpaceOnUse">
<stop stop-color="#C4D5FD"/>
<stop offset="1" stop-color="#CEDDFC"/>
</linearGradient>
<linearGradient id="paint2_linear" x1="525.768" y1="605.456" x2="109.824" y2="88.8828" gradientUnits="userSpaceOnUse">
<stop stop-color="#C4D5FD"/>
<stop offset="1" stop-color="#CEDDFC"/>
</linearGradient>
<linearGradient id="paint3_linear" x1="525.762" y1="605.455" x2="109.817" y2="88.8888" gradientUnits="userSpaceOnUse">
<stop stop-color="#C4D5FD"/>
<stop offset="1" stop-color="#CEDDFC"/>
</linearGradient>
<linearGradient id="paint4_linear" x1="525.803" y1="605.484" x2="109.843" y2="88.8677" gradientUnits="userSpaceOnUse">
<stop stop-color="#C4D5FD"/>
<stop offset="1" stop-color="#CEDDFC"/>
</linearGradient>
<linearGradient id="paint5_linear" x1="525.758" y1="605.43" x2="109.835" y2="88.8747" gradientUnits="userSpaceOnUse">
<stop stop-color="#C4D5FD"/>
<stop offset="1" stop-color="#CEDDFC"/>
</linearGradient>
<linearGradient id="paint6_linear" x1="525.75" y1="605.455" x2="109.802" y2="88.9034" gradientUnits="userSpaceOnUse">
<stop stop-color="#C4D5FD"/>
<stop offset="1" stop-color="#CEDDFC"/>
</linearGradient>
<linearGradient id="paint7_linear" x1="525.762" y1="605.46" x2="109.813" y2="88.8935" gradientUnits="userSpaceOnUse">
<stop stop-color="#C4D5FD"/>
<stop offset="1" stop-color="#CEDDFC"/>
</linearGradient>
<linearGradient id="paint8_linear" x1="59.6096" y1="454.322" x2="67.4981" y2="454.397" gradientUnits="userSpaceOnUse">
<stop stop-color="#FEBBBA"/>
<stop offset="1" stop-color="#FF928E"/>
</linearGradient>
<linearGradient id="paint9_linear" x1="31.183" y1="453.646" x2="37.9937" y2="453.711" gradientUnits="userSpaceOnUse">
<stop stop-color="#FEBBBA"/>
<stop offset="1" stop-color="#FF928E"/>
</linearGradient>
<linearGradient id="paint10_linear" x1="94.0342" y1="248.826" x2="134.337" y2="249.209" gradientUnits="userSpaceOnUse">
<stop stop-color="#FEBBBA"/>
<stop offset="1" stop-color="#FF928E"/>
</linearGradient>
<linearGradient id="paint11_linear" x1="125.424" y1="242.37" x2="97.7963" y2="303.643" gradientUnits="userSpaceOnUse">
<stop stop-color="#FEBBBA"/>
<stop offset="1" stop-color="#FF928E"/>
</linearGradient>
<linearGradient id="paint12_linear" x1="134.404" y1="221.96" x2="145.853" y2="204.718" gradientUnits="userSpaceOnUse">
<stop stop-color="#FEBBBA"/>
<stop offset="1" stop-color="#FF928E"/>
</linearGradient>
<linearGradient id="paint13_linear" x1="5.30187" y1="305.071" x2="56.304" y2="305.555" gradientUnits="userSpaceOnUse">
<stop stop-color="#FEBBBA"/>
<stop offset="1" stop-color="#FF928E"/>
</linearGradient>
<linearGradient id="paint14_linear" x1="42.7981" y1="276.907" x2="62.0688" y2="239.5" gradientUnits="userSpaceOnUse">
<stop stop-color="#FEBBBA"/>
<stop offset="1" stop-color="#FF928E"/>
</linearGradient>
<linearGradient id="paint15_linear" x1="70.0676" y1="238.329" x2="48.0249" y2="224.595" gradientUnits="userSpaceOnUse">
<stop stop-color="#FEBBBA"/>
<stop offset="1" stop-color="#FF928E"/>
</linearGradient>
<linearGradient id="paint16_linear" x1="64.196" y1="243.316" x2="44.3641" y2="230.959" gradientUnits="userSpaceOnUse">
<stop stop-color="#FEBBBA"/>
<stop offset="1" stop-color="#FF928E"/>
</linearGradient>
<linearGradient id="paint17_linear" x1="50.6956" y1="303.686" x2="66.6407" y2="303.686" gradientUnits="userSpaceOnUse">
<stop stop-color="#FEBBBA"/>
<stop offset="1" stop-color="#FF928E"/>
</linearGradient>
<linearGradient id="paint18_linear" x1="368.48" y1="211.502" x2="411.262" y2="280.067" gradientUnits="userSpaceOnUse">
<stop stop-color="#FEBBBA"/>
<stop offset="1" stop-color="#FF928E"/>
</linearGradient>
<linearGradient id="paint19_linear" x1="421.171" y1="258.931" x2="429.192" y2="241.118" gradientUnits="userSpaceOnUse">
<stop stop-color="#FEBBBA"/>
<stop offset="1" stop-color="#FF928E"/>
</linearGradient>
<linearGradient id="paint20_linear" x1="420.758" y1="215.642" x2="437.036" y2="250.883" gradientUnits="userSpaceOnUse">
<stop stop-color="#FEBBBA"/>
<stop offset="1" stop-color="#FF928E"/>
</linearGradient>
<linearGradient id="paint21_linear" x1="428.416" y1="212.104" x2="444.694" y2="247.345" gradientUnits="userSpaceOnUse">
<stop stop-color="#FEBBBA"/>
<stop offset="1" stop-color="#FF928E"/>
</linearGradient>
<linearGradient id="paint22_linear" x1="466.18" y1="480.763" x2="406.421" y2="372.899" gradientUnits="userSpaceOnUse">
<stop stop-color="#FEBBBA"/>
<stop offset="1" stop-color="#FF928E"/>
</linearGradient>
<linearGradient id="paint23_linear" x1="398.058" y1="400.74" x2="488.678" y2="430.669" gradientUnits="userSpaceOnUse">
<stop stop-color="#FEBBBA"/>
<stop offset="1" stop-color="#FF928E"/>
</linearGradient>
<linearGradient id="paint24_linear" x1="460.442" y1="314.351" x2="374.786" y2="187.349" gradientUnits="userSpaceOnUse">
<stop stop-color="#FEBBBA"/>
<stop offset="1" stop-color="#FF928E"/>
</linearGradient>
<linearGradient id="paint25_linear" x1="295.541" y1="434.444" x2="285.691" y2="432.264" gradientUnits="userSpaceOnUse">
<stop stop-color="#FEBBBA"/>
<stop offset="1" stop-color="#FF928E"/>
</linearGradient>
<linearGradient id="paint26_linear" x1="294.845" y1="456.98" x2="268.358" y2="451.118" gradientUnits="userSpaceOnUse">
<stop stop-color="#4F52FF"/>
<stop offset="1" stop-color="#4042E2"/>
</linearGradient>
<linearGradient id="paint27_linear" x1="300.652" y1="445.11" x2="291.408" y2="443.064" gradientUnits="userSpaceOnUse">
<stop stop-color="#FEBBBA"/>
<stop offset="1" stop-color="#FF928E"/>
</linearGradient>
<linearGradient id="paint28_linear" x1="288.917" y1="340.447" x2="256.67" y2="333.31" gradientUnits="userSpaceOnUse">
<stop stop-color="#FEBBBA"/>
<stop offset="1" stop-color="#FF928E"/>
</linearGradient>
<linearGradient id="paint29_linear" x1="337.306" y1="291.478" x2="315.91" y2="286.743" gradientUnits="userSpaceOnUse">
<stop stop-color="#FEBBBA"/>
<stop offset="1" stop-color="#FF928E"/>
</linearGradient>
<linearGradient id="paint30_linear" x1="354.296" y1="344.959" x2="439.265" y2="463.941" gradientUnits="userSpaceOnUse">
<stop stop-color="#FEBBBA"/>
<stop offset="1" stop-color="#FF928E"/>
</linearGradient>
<linearGradient id="paint31_linear" x1="325.463" y1="264.055" x2="314.714" y2="314.478" gradientUnits="userSpaceOnUse">
<stop stop-color="#FEBBBA"/>
<stop offset="1" stop-color="#FF928E"/>
</linearGradient>
<linearGradient id="paint32_linear" x1="329.692" y1="312.119" x2="332.356" y2="280.752" gradientUnits="userSpaceOnUse">
<stop stop-color="#FEBBBA"/>
<stop offset="1" stop-color="#FF928E"/>
</linearGradient>
</defs>
</svg>
