<svg width="100" height="100" viewBox="0 0 100 100" fill="none" xmlns="http://www.w3.org/2000/svg">
<g clip-path="url(#clip0)">
<path d="M48.5107 45.7081H51.4895V63.9247H48.5107V45.7081Z" fill="white"/>
<path d="M48.5107 45.7081H51.4895V63.9247H48.5107V45.7081Z" fill="#5555CE" fill-opacity="0.08"/>
<path d="M53.1445 72.0581L54.9074 69.657L70.5185 81.1182L68.7556 83.5194L53.1445 72.0581Z" fill="white"/>
<path d="M53.1445 72.0581L54.9074 69.657L70.5185 81.1182L68.7556 83.5194L53.1445 72.0581Z" fill="#5555CE" fill-opacity="0.08"/>
<path d="M29.4805 81.1158L45.0791 69.6695L46.8411 72.0706L31.2425 83.5177L29.4805 81.1158Z" fill="white"/>
<path d="M29.4805 81.1158L45.0791 69.6695L46.8411 72.0706L31.2425 83.5177L29.4805 81.1158Z" fill="#5555CE" fill-opacity="0.08"/>
<path d="M56.1126 68.5483C56.1126 71.9243 53.3757 74.6612 49.9997 74.6612C46.6236 74.6612 43.8867 71.9243 43.8867 68.5483C43.8867 65.1722 46.6236 62.4353 49.9997 62.4353C53.3757 62.4353 56.1126 65.1722 56.1126 68.5483Z" fill="#C5CAE9"/>
<path d="M24.4144 65.6701C24.4144 68.0528 23.5599 70.1152 21.8744 71.8011C20.1888 73.4866 18.1261 74.3411 15.7434 74.3411H15.7393C13.3597 74.3403 11.2984 73.4858 9.61279 71.8011C7.92694 70.1152 7.07275 68.0528 7.07275 65.6701C7.07275 63.2883 7.92694 61.2256 9.61279 59.54C11.2975 57.855 13.3589 57.0008 15.7393 57H15.7434C18.1253 57 20.188 57.8545 21.8744 59.54C23.5599 61.2256 24.4144 63.2883 24.4144 65.6701Z" fill="#FED9B6"/>
<path d="M30.9884 86.8087C30.9884 88.6884 30.3904 90.2103 29.2127 91.3312C28.0487 92.4389 26.5092 93 24.6375 93H7.30322C5.43143 93 3.89197 92.4389 2.72879 91.3312C1.55023 90.2095 0.953125 88.6879 0.953125 86.8087C0.953125 86.0858 0.97702 85.3705 1.02481 84.6828C1.07343 83.9797 1.17175 83.2145 1.31677 82.4073C1.46289 81.5934 1.65076 80.8241 1.8757 80.121C2.10916 79.3932 2.42502 78.6752 2.81586 77.9875C3.2218 77.2736 3.69861 76.6518 4.23309 76.1398C4.7934 75.604 5.47839 75.1736 6.27023 74.8599C7.05933 74.5479 7.93411 74.3897 8.87015 74.3897C9.23737 74.3897 9.59305 74.5399 10.2786 74.9865C10.7076 75.2664 11.202 75.585 11.7477 75.9338C12.2191 76.2343 12.8574 76.5161 13.6465 76.7707C14.34 76.9951 15.0439 77.1204 15.7393 77.1421C15.816 77.1448 15.8926 77.1462 15.9692 77.1462C16.7416 77.1462 17.5227 77.0196 18.2928 76.7707C19.0819 76.5161 19.7211 76.2343 20.1921 75.9338C20.7436 75.5815 21.238 75.2631 21.6607 74.9874C22.3468 74.5399 22.7019 74.3897 23.07 74.3897C24.0052 74.3897 24.88 74.5479 25.6696 74.8599C26.4615 75.1736 27.1465 75.6048 27.7062 76.1398C28.2415 76.6518 28.7183 77.2736 29.124 77.9875C29.5151 78.6758 29.8315 79.3932 30.0641 80.1202C30.2894 80.8241 30.4778 81.5934 30.6239 82.4078C30.7681 83.2159 30.8667 83.981 30.915 84.6823C30.9637 85.3678 30.9875 86.083 30.9884 86.8087V86.8087Z" fill="#7C7CD9"/>
<path d="M15.7434 74.3411H15.7393V57H15.7434C18.1252 57 20.1879 57.8545 21.8743 59.54C23.5599 61.2256 24.4143 63.2883 24.4143 65.6701C24.4143 68.0528 23.5599 70.1152 21.8743 71.8011C20.1887 73.4866 18.126 74.3411 15.7434 74.3411Z" fill="#FEBF85"/>
<path d="M30.9883 86.8087C30.9883 88.6884 30.3904 90.2103 29.2126 91.3312C28.0486 92.4389 26.5092 93 24.6374 93H15.7393V77.1421C15.8159 77.1448 15.8925 77.1462 15.9691 77.1462C16.7415 77.1462 17.5226 77.0196 18.2928 76.7707C19.0818 76.5161 19.721 76.2343 20.192 75.9338C20.7435 75.5815 21.2379 75.2631 21.6606 74.9874C22.3467 74.5399 22.7018 74.3897 23.0699 74.3897C24.0051 74.3897 24.8799 74.5479 25.6695 74.8599C26.4614 75.1736 27.1464 75.6048 27.7061 76.1398C28.2414 76.6518 28.7182 77.2736 29.1239 77.9875C29.515 78.6758 29.8314 79.3932 30.0641 80.1202C30.2893 80.8241 30.4777 81.5934 30.6238 82.4078C30.768 83.2159 30.8666 83.981 30.9149 84.6823C30.9636 85.3678 30.9875 86.083 30.9883 86.8087V86.8087Z" fill="#7C7CD9"/>
<path d="M58.4149 18.6701C58.4149 21.0528 57.5604 23.1152 55.8748 24.8011C54.1893 26.4866 52.1266 27.3411 49.7439 27.3411H49.7398C47.3602 27.3403 45.2989 26.4858 43.6133 24.8011C41.9274 23.1152 41.0732 21.0528 41.0732 18.6701C41.0732 16.2883 41.9274 14.2256 43.6133 12.54C45.298 10.855 47.3593 10.0008 49.7398 10H49.7439C52.1258 10 54.1884 10.8545 55.8748 12.54C57.5604 14.2256 58.4149 16.2883 58.4149 18.6701Z" fill="#FED9B6"/>
<path d="M64.9884 39.8087C64.9884 41.6884 64.3904 43.2103 63.2127 44.3312C62.0487 45.4389 60.5092 46 58.6375 46H41.3032C39.4314 46 37.892 45.4389 36.7288 44.3312C35.5502 43.2095 34.9531 41.6879 34.9531 39.8087C34.9531 39.0858 34.977 38.3705 35.0248 37.6828C35.0734 36.9797 35.1718 36.2145 35.3168 35.4073C35.4629 34.5934 35.6508 33.8241 35.8757 33.121C36.1092 32.3932 36.425 31.6752 36.8159 30.9875C37.2218 30.2736 37.6986 29.6518 38.2331 29.1398C38.7934 28.604 39.4784 28.1736 40.2702 27.8599C41.0593 27.5479 41.9341 27.3897 42.8701 27.3897C43.2374 27.3897 43.593 27.5399 44.2786 27.9865C44.7076 28.2664 45.202 28.585 45.7477 28.9338C46.2191 29.2343 46.8574 29.5161 47.6465 29.7707C48.34 29.9951 49.0439 30.1204 49.7393 30.1421C49.816 30.1448 49.8926 30.1462 49.9692 30.1462C50.7416 30.1462 51.5227 30.0196 52.2928 29.7707C53.0819 29.5161 53.7211 29.2343 54.1921 28.9338C54.7436 28.5815 55.238 28.2631 55.6607 27.9874C56.3468 27.5399 56.7019 27.3897 57.07 27.3897C58.0052 27.3897 58.88 27.5479 59.6696 27.8599C60.4615 28.1736 61.1465 28.6048 61.7062 29.1398C62.2415 29.6518 62.7183 30.2736 63.124 30.9875C63.5151 31.6758 63.8315 32.3932 64.0641 33.1202C64.2894 33.8241 64.4778 34.5934 64.6239 35.4078C64.7681 36.2159 64.8667 36.981 64.915 37.6823C64.9637 38.3678 64.9875 39.083 64.9884 39.8087V39.8087Z" fill="#FF9A75"/>
<path d="M49.7434 27.3411H49.7393V10H49.7434C52.1252 10 54.1879 10.8545 55.8743 12.54C57.5599 14.2256 58.4143 16.2883 58.4143 18.6701C58.4143 21.0528 57.5599 23.1152 55.8743 24.8011C54.1887 26.4866 52.126 27.3411 49.7434 27.3411Z" fill="#FEBF85"/>
<path d="M64.9883 39.8087C64.9883 41.6884 64.3904 43.2103 63.2126 44.3312C62.0486 45.4389 60.5092 46 58.6374 46H49.7393V30.1421C49.8159 30.1448 49.8925 30.1462 49.9691 30.1462C50.7415 30.1462 51.5226 30.0196 52.2928 29.7707C53.0818 29.5161 53.721 29.2343 54.192 28.9338C54.7435 28.5815 55.2379 28.2631 55.6606 27.9874C56.3467 27.5399 56.7018 27.3897 57.0699 27.3897C58.0051 27.3897 58.8799 27.5479 59.6695 27.8599C60.4614 28.1736 61.1464 28.6048 61.7061 29.1398C62.2414 29.6518 62.7182 30.2736 63.1239 30.9875C63.515 31.6758 63.8314 32.3932 64.0641 33.1202C64.2893 33.8241 64.4777 34.5934 64.6238 35.4078C64.768 36.2159 64.8666 36.981 64.9149 37.6823C64.9636 38.3678 64.9875 39.083 64.9883 39.8087V39.8087Z" fill="#FF9A75"/>
<path d="M92.4149 64.6701C92.4149 67.0528 91.5604 69.1152 89.8748 70.8011C88.1893 72.4866 86.1266 73.3411 83.7439 73.3411H83.7398C81.3602 73.3403 79.2989 72.4858 77.6133 70.8011C75.9274 69.1152 75.0732 67.0528 75.0732 64.6701C75.0732 62.2883 75.9274 60.2256 77.6133 58.54C79.298 56.855 81.3593 56.0008 83.7398 56H83.7439C86.1258 56 88.1884 56.8545 89.8748 58.54C91.5604 60.2256 92.4149 62.2883 92.4149 64.6701Z" fill="#FED9B6"/>
<path d="M98.9884 85.8087C98.9884 87.6884 98.3904 89.2103 97.2127 90.3312C96.0487 91.4389 94.5092 92 92.6375 92H75.3032C73.4314 92 71.892 91.4389 70.7288 90.3312C69.5502 89.2095 68.9531 87.6879 68.9531 85.8087C68.9531 85.0858 68.977 84.3705 69.0248 83.6828C69.0734 82.9797 69.1718 82.2145 69.3168 81.4073C69.4629 80.5934 69.6508 79.8241 69.8757 79.121C70.1092 78.3932 70.425 77.6752 70.8159 76.9875C71.2218 76.2736 71.6986 75.6518 72.2331 75.1398C72.7934 74.604 73.4784 74.1736 74.2702 73.8599C75.0593 73.5479 75.9341 73.3897 76.8701 73.3897C77.2374 73.3897 77.593 73.5399 78.2786 73.9865C78.7076 74.2664 79.202 74.585 79.7477 74.9338C80.2191 75.2343 80.8574 75.5161 81.6465 75.7707C82.34 75.9951 83.0439 76.1204 83.7393 76.1421C83.816 76.1448 83.8926 76.1462 83.9692 76.1462C84.7416 76.1462 85.5227 76.0196 86.2928 75.7707C87.0819 75.5161 87.7211 75.2343 88.1921 74.9338C88.7436 74.5815 89.238 74.2631 89.6607 73.9874C90.3468 73.5399 90.7019 73.3897 91.07 73.3897C92.0052 73.3897 92.88 73.5479 93.6696 73.8599C94.4615 74.1736 95.1465 74.6048 95.7062 75.1398C96.2415 75.6518 96.7183 76.2736 97.124 76.9875C97.5151 77.6758 97.8315 78.3932 98.0641 79.1202C98.2894 79.8241 98.4778 80.5934 98.6239 81.4078C98.7681 82.2159 98.8667 82.981 98.915 83.6823C98.9637 84.3678 98.9875 85.083 98.9884 85.8087V85.8087Z" fill="#6564C4"/>
<path d="M83.7434 73.3411H83.7393V56H83.7434C86.1252 56 88.1879 56.8545 89.8743 58.54C91.5599 60.2256 92.4143 62.2883 92.4143 64.6701C92.4143 67.0528 91.5599 69.1152 89.8743 70.8011C88.1887 72.4866 86.126 73.3411 83.7434 73.3411Z" fill="#FEBF85"/>
<path d="M98.9883 85.8087C98.9883 87.6884 98.3904 89.2103 97.2126 90.3312C96.0486 91.4389 94.5092 92 92.6374 92H83.7393V76.1421C83.8159 76.1448 83.8925 76.1462 83.9691 76.1462C84.7415 76.1462 85.5226 76.0196 86.2928 75.7707C87.0818 75.5161 87.721 75.2343 88.192 74.9338C88.7435 74.5815 89.2379 74.2631 89.6606 73.9874C90.3467 73.5399 90.7018 73.3897 91.0699 73.3897C92.0051 73.3897 92.8799 73.5479 93.6695 73.8599C94.4614 74.1736 95.1464 74.6048 95.7061 75.1398C96.2414 75.6518 96.7182 76.2736 97.1239 76.9875C97.515 77.6758 97.8314 78.3932 98.0641 79.1202C98.2893 79.8241 98.4777 80.5934 98.6238 81.4078C98.768 82.2159 98.8666 82.981 98.9149 83.6823C98.9636 84.3678 98.9875 85.083 98.9883 85.8087V85.8087Z" fill="#6564C4"/>
</g>
<defs>
<clipPath id="clip0">
<rect width="100" height="100" fill="white"/>
</clipPath>
</defs>
</svg>
