<svg width="100" height="100" viewBox="0 0 100 100" fill="none" xmlns="http://www.w3.org/2000/svg">
<path fill-rule="evenodd" clip-rule="evenodd" d="M33.7626 57.1696L32.3975 59.8171L48.3904 68.0637L48.376 68.0917L65.589 76.9674L66.9542 74.3199L50.9612 66.0733L50.9757 66.0453L33.7626 57.1696Z" fill="white"/>
<path fill-rule="evenodd" clip-rule="evenodd" d="M33.7626 57.1696L32.3975 59.8171L48.3904 68.0637L48.376 68.0917L65.589 76.9674L66.9542 74.3199L50.9612 66.0733L50.9757 66.0453L33.7626 57.1696Z" fill="#5555CE" fill-opacity="0.08"/>
<path fill-rule="evenodd" clip-rule="evenodd" d="M31.8499 39.9741L33.0718 42.6907L49.4822 35.3096L49.4951 35.3383L67.1574 27.3941L65.9355 24.6775L49.5251 32.0586L49.5122 32.0299L31.8499 39.9741Z" fill="white"/>
<path fill-rule="evenodd" clip-rule="evenodd" d="M31.8499 39.9741L33.0718 42.6907L49.4822 35.3096L49.4951 35.3383L67.1574 27.3941L65.9355 24.6775L49.5251 32.0586L49.5122 32.0299L31.8499 39.9741Z" fill="#5555CE" fill-opacity="0.08"/>
<path d="M81.5 37C91.7173 37 100 28.7173 100 18.5C100 8.28273 91.7173 0 81.5 0C71.2827 0 63 8.28273 63 18.5C63 28.7173 71.2827 37 81.5 37Z" fill="#6564C4"/>
<path d="M85.7348 19.772C87.7959 18.3999 89.1554 16.058 89.1554 13.3966C89.1554 9.169 85.7278 5.74139 81.5002 5.74139C77.2726 5.74139 73.845 9.169 73.845 13.3966C73.845 16.058 75.2044 18.3999 77.2656 19.772C77.2656 19.772 77.2662 19.7727 77.2669 19.7727C77.2662 19.7727 77.2662 19.772 77.2662 19.772C72.3325 21.2591 68.4909 25.2634 67.2539 30.3011L67.2545 30.3017C67.4561 30.5448 67.6654 30.7821 67.8791 31.0149C67.9308 31.0717 67.985 31.1259 68.0379 31.1814C68.2025 31.3562 68.369 31.5285 68.54 31.6969C68.6108 31.7664 68.6829 31.8334 68.755 31.9017C68.9132 32.0522 69.0733 32.2009 69.2366 32.3457C69.3176 32.4171 69.3999 32.4879 69.4816 32.5581C69.6417 32.6953 69.8037 32.8299 69.9689 32.9613C70.0557 33.0308 70.1431 33.0991 70.2305 33.1673C70.3976 33.2962 70.5673 33.4212 70.7389 33.5437C70.8276 33.6069 70.915 33.6713 71.0049 33.7332C71.1861 33.8582 71.3705 33.9781 71.5561 34.0968C71.6397 34.1497 71.7213 34.2046 71.8055 34.2569C72.0199 34.389 72.2381 34.5153 72.4581 34.639C72.5162 34.6716 72.573 34.7067 72.6317 34.7386C72.9162 34.8942 73.2052 35.0435 73.4986 35.1845C73.5056 35.1877 73.5133 35.1908 73.5203 35.194C73.8004 35.328 74.0849 35.4549 74.3726 35.5749C74.4619 35.6125 74.5531 35.6457 74.6431 35.6814C74.851 35.7643 75.059 35.846 75.2708 35.9213C75.3831 35.9615 75.4966 35.9978 75.6095 36.0361C75.8022 36.1012 75.9961 36.1643 76.1913 36.2224C76.3151 36.2594 76.4395 36.2938 76.5645 36.3283C76.7533 36.3806 76.9434 36.4303 77.1355 36.4769C77.265 36.5082 77.3951 36.5382 77.5259 36.5669C77.7179 36.609 77.9105 36.6472 78.1045 36.683C78.2359 36.7072 78.3667 36.7321 78.4994 36.7531C78.6997 36.7857 78.9013 36.8131 79.1035 36.8393C79.2311 36.8558 79.358 36.8743 79.4862 36.8877C79.7095 36.912 79.9347 36.9292 80.1599 36.9452C80.269 36.9528 80.3768 36.9643 80.4859 36.97C80.8221 36.9892 81.1595 37 81.5002 37C81.8408 37 82.1783 36.9892 82.5145 36.9713C82.6236 36.9656 82.732 36.9541 82.8405 36.9464C83.0663 36.9305 83.2915 36.9133 83.5141 36.889C83.6424 36.875 83.7693 36.8571 83.8969 36.8405C84.0991 36.8144 84.3007 36.7869 84.501 36.7544C84.6331 36.7327 84.7645 36.7085 84.8959 36.6842C85.0898 36.6485 85.2831 36.6102 85.4745 36.5681C85.6053 36.5394 85.7354 36.5094 85.8649 36.4782C86.0563 36.4316 86.2464 36.3819 86.4359 36.3295C86.5603 36.2951 86.6853 36.2607 86.809 36.2237C87.0049 36.165 87.1982 36.1018 87.3908 36.0374C87.5038 35.9991 87.6179 35.9627 87.7296 35.9226C87.9407 35.8466 88.1493 35.7656 88.3573 35.6827C88.4473 35.647 88.5385 35.6132 88.6278 35.5762C88.9142 35.4562 89.1975 35.3305 89.4762 35.1966C89.4845 35.1928 89.4935 35.1889 89.5018 35.1851C89.7952 35.0441 90.0842 34.8948 90.3687 34.7392C90.4274 34.7073 90.4842 34.6722 90.5422 34.6397C90.7623 34.5159 90.9805 34.3896 91.1948 34.2575C91.279 34.2059 91.3613 34.151 91.4443 34.0974C91.6299 33.9788 91.8143 33.8582 91.9954 33.7338C92.0847 33.6719 92.1728 33.6081 92.2614 33.5443C92.433 33.4212 92.6027 33.2962 92.7699 33.168C92.8579 33.1003 92.9447 33.0314 93.0314 32.9619C93.196 32.8305 93.3587 32.6959 93.5188 32.5587C93.6011 32.4886 93.6834 32.4178 93.7638 32.3463C93.9271 32.2015 94.0872 32.0529 94.2454 31.9023C94.3169 31.834 94.3896 31.7664 94.4604 31.6975C94.6314 31.5291 94.7985 31.3569 94.9624 31.1821C95.0148 31.1259 95.069 31.0717 95.1213 31.0156C95.335 30.7827 95.5442 30.5454 95.7458 30.3024L95.7465 30.3017C94.5102 25.2634 90.6685 21.2591 85.7348 19.772Z" fill="white"/>
<path d="M85.7348 19.772C87.7959 18.3999 89.1554 16.058 89.1554 13.3966C89.1554 9.169 85.7278 5.74139 81.5002 5.74139C77.2726 5.74139 73.845 9.169 73.845 13.3966C73.845 16.058 75.2044 18.3999 77.2656 19.772C77.2656 19.772 77.2662 19.7727 77.2669 19.7727C77.2662 19.7727 77.2662 19.772 77.2662 19.772C72.3325 21.2591 68.4909 25.2634 67.2539 30.3011L67.2545 30.3017C67.4561 30.5448 67.6654 30.7821 67.8791 31.0149C67.9308 31.0717 67.985 31.1259 68.0379 31.1814C68.2025 31.3562 68.369 31.5285 68.54 31.6969C68.6108 31.7664 68.6829 31.8334 68.755 31.9017C68.9132 32.0522 69.0733 32.2009 69.2366 32.3457C69.3176 32.4171 69.3999 32.4879 69.4816 32.5581C69.6417 32.6953 69.8037 32.8299 69.9689 32.9613C70.0557 33.0308 70.1431 33.0991 70.2305 33.1673C70.3976 33.2962 70.5673 33.4212 70.7389 33.5437C70.8276 33.6069 70.915 33.6713 71.0049 33.7332C71.1861 33.8582 71.3705 33.9781 71.5561 34.0968C71.6397 34.1497 71.7213 34.2046 71.8055 34.2569C72.0199 34.389 72.2381 34.5153 72.4581 34.639C72.5162 34.6716 72.573 34.7067 72.6317 34.7386C72.9162 34.8942 73.2052 35.0435 73.4986 35.1845C73.5056 35.1877 73.5133 35.1908 73.5203 35.194C73.8004 35.328 74.0849 35.4549 74.3726 35.5749C74.4619 35.6125 74.5531 35.6457 74.6431 35.6814C74.851 35.7643 75.059 35.846 75.2708 35.9213C75.3831 35.9615 75.4966 35.9978 75.6095 36.0361C75.8022 36.1012 75.9961 36.1643 76.1913 36.2224C76.3151 36.2594 76.4395 36.2938 76.5645 36.3283C76.7533 36.3806 76.9434 36.4303 77.1355 36.4769C77.265 36.5082 77.3951 36.5382 77.5259 36.5669C77.7179 36.609 77.9105 36.6472 78.1045 36.683C78.2359 36.7072 78.3667 36.7321 78.4994 36.7531C78.6997 36.7857 78.9013 36.8131 79.1035 36.8393C79.2311 36.8558 79.358 36.8743 79.4862 36.8877C79.7095 36.912 79.9347 36.9292 80.1599 36.9452C80.269 36.9528 80.3768 36.9643 80.4859 36.97C80.8221 36.9892 81.1595 37 81.5002 37C81.8408 37 82.1783 36.9892 82.5145 36.9713C82.6236 36.9656 82.732 36.9541 82.8405 36.9464C83.0663 36.9305 83.2915 36.9133 83.5141 36.889C83.6424 36.875 83.7693 36.8571 83.8969 36.8405C84.0991 36.8144 84.3007 36.7869 84.501 36.7544C84.6331 36.7327 84.7645 36.7085 84.8959 36.6842C85.0898 36.6485 85.2831 36.6102 85.4745 36.5681C85.6053 36.5394 85.7354 36.5094 85.8649 36.4782C86.0563 36.4316 86.2464 36.3819 86.4359 36.3295C86.5603 36.2951 86.6853 36.2607 86.809 36.2237C87.0049 36.165 87.1982 36.1018 87.3908 36.0374C87.5038 35.9991 87.6179 35.9627 87.7296 35.9226C87.9407 35.8466 88.1493 35.7656 88.3573 35.6827C88.4473 35.647 88.5385 35.6132 88.6278 35.5762C88.9142 35.4562 89.1975 35.3305 89.4762 35.1966C89.4845 35.1928 89.4935 35.1889 89.5018 35.1851C89.7952 35.0441 90.0842 34.8948 90.3687 34.7392C90.4274 34.7073 90.4842 34.6722 90.5422 34.6397C90.7623 34.5159 90.9805 34.3896 91.1948 34.2575C91.279 34.2059 91.3613 34.151 91.4443 34.0974C91.6299 33.9788 91.8143 33.8582 91.9954 33.7338C92.0847 33.6719 92.1728 33.6081 92.2614 33.5443C92.433 33.4212 92.6027 33.2962 92.7699 33.168C92.8579 33.1003 92.9447 33.0314 93.0314 32.9619C93.196 32.8305 93.3587 32.6959 93.5188 32.5587C93.6011 32.4886 93.6834 32.4178 93.7638 32.3463C93.9271 32.2015 94.0872 32.0529 94.2454 31.9023C94.3169 31.834 94.3896 31.7664 94.4604 31.6975C94.6314 31.5291 94.7985 31.3569 94.9624 31.1821C95.0148 31.1259 95.069 31.0717 95.1213 31.0156C95.335 30.7827 95.5442 30.5454 95.7458 30.3024L95.7465 30.3017C94.5102 25.2634 90.6685 21.2591 85.7348 19.772Z" fill="#5555CE" fill-opacity="0.08"/>
<path d="M81.5 5.74139C77.0891 5.74139 73.5 9.33045 73.5 13.7414C73.5 18.1523 77.0891 21.7414 81.5 21.7414C85.9109 21.7414 89.5 18.1523 89.5 13.7414C89.5 9.33045 85.9109 5.74139 81.5 5.74139Z" fill="white"/>
<path d="M89.5 13.7414C89.5 18.1523 85.9109 21.7414 81.5 21.7414V5.74139C85.9109 5.74139 89.5 9.33045 89.5 13.7414Z" fill="white"/>
<path d="M89.5 13.7414C89.5 18.1523 85.9109 21.7414 81.5 21.7414V5.74139C85.9109 5.74139 89.5 9.33045 89.5 13.7414Z" fill="#5555CE" fill-opacity="0.08"/>
<path d="M81.5 100C91.7173 100 100 91.7173 100 81.5C100 71.2827 91.7173 63 81.5 63C71.2827 63 63 71.2827 63 81.5C63 91.7173 71.2827 100 81.5 100Z" fill="#FF9A75"/>
<path d="M85.7348 82.772C87.7959 81.3999 89.1554 79.058 89.1554 76.3966C89.1554 72.169 85.7278 68.7414 81.5002 68.7414C77.2726 68.7414 73.845 72.169 73.845 76.3966C73.845 79.058 75.2044 81.3999 77.2656 82.772C77.2656 82.772 77.2662 82.7727 77.2669 82.7727C77.2662 82.7727 77.2662 82.772 77.2662 82.772C72.3325 84.2591 68.4909 88.2634 67.2539 93.3011L67.2545 93.3017C67.4561 93.5448 67.6654 93.7821 67.8791 94.0149C67.9308 94.0717 67.985 94.1259 68.0379 94.1814C68.2025 94.3562 68.369 94.5285 68.54 94.6969C68.6108 94.7664 68.6829 94.8334 68.755 94.9017C68.9132 95.0522 69.0733 95.2009 69.2366 95.3457C69.3176 95.4171 69.3999 95.4879 69.4816 95.5581C69.6417 95.6953 69.8037 95.8299 69.9689 95.9613C70.0557 96.0308 70.1431 96.0991 70.2305 96.1673C70.3976 96.2962 70.5673 96.4212 70.7389 96.5437C70.8276 96.6069 70.915 96.6713 71.0049 96.7332C71.1861 96.8582 71.3705 96.9781 71.5561 97.0968C71.6397 97.1497 71.7213 97.2046 71.8055 97.2569C72.0199 97.389 72.2381 97.5153 72.4581 97.639C72.5162 97.6716 72.573 97.7067 72.6317 97.7386C72.9162 97.8942 73.2052 98.0435 73.4986 98.1845C73.5056 98.1877 73.5133 98.1908 73.5203 98.194C73.8004 98.328 74.0849 98.4549 74.3726 98.5749C74.4619 98.6125 74.5531 98.6457 74.6431 98.6814C74.851 98.7643 75.059 98.846 75.2708 98.9213C75.3831 98.9615 75.4966 98.9978 75.6095 99.0361C75.8022 99.1012 75.9961 99.1643 76.1913 99.2224C76.3151 99.2594 76.4395 99.2938 76.5645 99.3283C76.7533 99.3806 76.9434 99.4303 77.1355 99.4769C77.265 99.5082 77.3951 99.5382 77.5259 99.5669C77.7179 99.609 77.9105 99.6472 78.1045 99.683C78.2359 99.7072 78.3667 99.7321 78.4994 99.7531C78.6997 99.7857 78.9013 99.8131 79.1035 99.8393C79.2311 99.8558 79.358 99.8743 79.4862 99.8877C79.7095 99.912 79.9347 99.9292 80.1599 99.9452C80.269 99.9528 80.3768 99.9643 80.4859 99.97C80.8221 99.9892 81.1595 100 81.5002 100C81.8408 100 82.1783 99.9892 82.5145 99.9713C82.6236 99.9656 82.732 99.9541 82.8405 99.9464C83.0663 99.9305 83.2915 99.9133 83.5141 99.889C83.6424 99.875 83.7693 99.8571 83.8969 99.8405C84.0991 99.8144 84.3007 99.7869 84.501 99.7544C84.6331 99.7327 84.7645 99.7085 84.8959 99.6842C85.0898 99.6485 85.2831 99.6102 85.4745 99.5681C85.6053 99.5394 85.7354 99.5094 85.8649 99.4782C86.0563 99.4316 86.2464 99.3819 86.4359 99.3295C86.5603 99.2951 86.6853 99.2607 86.809 99.2237C87.0049 99.165 87.1982 99.1018 87.3908 99.0374C87.5038 98.9991 87.6179 98.9627 87.7296 98.9226C87.9407 98.8466 88.1493 98.7656 88.3573 98.6827C88.4473 98.647 88.5385 98.6132 88.6278 98.5762C88.9142 98.4562 89.1975 98.3305 89.4762 98.1966C89.4845 98.1928 89.4935 98.1889 89.5018 98.1851C89.7952 98.0441 90.0842 97.8948 90.3687 97.7392C90.4274 97.7073 90.4842 97.6722 90.5422 97.6397C90.7623 97.5159 90.9805 97.3896 91.1948 97.2575C91.279 97.2059 91.3613 97.151 91.4443 97.0974C91.6299 96.9788 91.8143 96.8582 91.9954 96.7338C92.0847 96.6719 92.1728 96.6081 92.2614 96.5443C92.433 96.4212 92.6027 96.2962 92.7699 96.168C92.8579 96.1003 92.9447 96.0314 93.0314 95.9619C93.196 95.8305 93.3587 95.6959 93.5188 95.5587C93.6011 95.4886 93.6834 95.4178 93.7638 95.3463C93.9271 95.2015 94.0872 95.0529 94.2454 94.9023C94.3169 94.834 94.3896 94.7664 94.4604 94.6975C94.6314 94.5291 94.7985 94.3569 94.9624 94.1821C95.0148 94.1259 95.069 94.0717 95.1213 94.0156C95.335 93.7827 95.5442 93.5454 95.7458 93.3024L95.7465 93.3017C94.5102 88.2634 90.6685 84.2591 85.7348 82.772Z" fill="white"/>
<path d="M85.7348 82.772C87.7959 81.3999 89.1554 79.058 89.1554 76.3966C89.1554 72.169 85.7278 68.7414 81.5002 68.7414C77.2726 68.7414 73.845 72.169 73.845 76.3966C73.845 79.058 75.2044 81.3999 77.2656 82.772C77.2656 82.772 77.2662 82.7727 77.2669 82.7727C77.2662 82.7727 77.2662 82.772 77.2662 82.772C72.3325 84.2591 68.4909 88.2634 67.2539 93.3011L67.2545 93.3017C67.4561 93.5448 67.6654 93.7821 67.8791 94.0149C67.9308 94.0717 67.985 94.1259 68.0379 94.1814C68.2025 94.3562 68.369 94.5285 68.54 94.6969C68.6108 94.7664 68.6829 94.8334 68.755 94.9017C68.9132 95.0522 69.0733 95.2009 69.2366 95.3457C69.3176 95.4171 69.3999 95.4879 69.4816 95.5581C69.6417 95.6953 69.8037 95.8299 69.9689 95.9613C70.0557 96.0308 70.1431 96.0991 70.2305 96.1673C70.3976 96.2962 70.5673 96.4212 70.7389 96.5437C70.8276 96.6069 70.915 96.6713 71.0049 96.7332C71.1861 96.8582 71.3705 96.9781 71.5561 97.0968C71.6397 97.1497 71.7213 97.2046 71.8055 97.2569C72.0199 97.389 72.2381 97.5153 72.4581 97.639C72.5162 97.6716 72.573 97.7067 72.6317 97.7386C72.9162 97.8942 73.2052 98.0435 73.4986 98.1845C73.5056 98.1877 73.5133 98.1908 73.5203 98.194C73.8004 98.328 74.0849 98.4549 74.3726 98.5749C74.4619 98.6125 74.5531 98.6457 74.6431 98.6814C74.851 98.7643 75.059 98.846 75.2708 98.9213C75.3831 98.9615 75.4966 98.9978 75.6095 99.0361C75.8022 99.1012 75.9961 99.1643 76.1913 99.2224C76.3151 99.2594 76.4395 99.2938 76.5645 99.3283C76.7533 99.3806 76.9434 99.4303 77.1355 99.4769C77.265 99.5082 77.3951 99.5382 77.5259 99.5669C77.7179 99.609 77.9105 99.6472 78.1045 99.683C78.2359 99.7072 78.3667 99.7321 78.4994 99.7531C78.6997 99.7857 78.9013 99.8131 79.1035 99.8393C79.2311 99.8558 79.358 99.8743 79.4862 99.8877C79.7095 99.912 79.9347 99.9292 80.1599 99.9452C80.269 99.9528 80.3768 99.9643 80.4859 99.97C80.8221 99.9892 81.1595 100 81.5002 100C81.8408 100 82.1783 99.9892 82.5145 99.9713C82.6236 99.9656 82.732 99.9541 82.8405 99.9464C83.0663 99.9305 83.2915 99.9133 83.5141 99.889C83.6424 99.875 83.7693 99.8571 83.8969 99.8405C84.0991 99.8144 84.3007 99.7869 84.501 99.7544C84.6331 99.7327 84.7645 99.7085 84.8959 99.6842C85.0898 99.6485 85.2831 99.6102 85.4745 99.5681C85.6053 99.5394 85.7354 99.5094 85.8649 99.4782C86.0563 99.4316 86.2464 99.3819 86.4359 99.3295C86.5603 99.2951 86.6853 99.2607 86.809 99.2237C87.0049 99.165 87.1982 99.1018 87.3908 99.0374C87.5038 98.9991 87.6179 98.9627 87.7296 98.9226C87.9407 98.8466 88.1493 98.7656 88.3573 98.6827C88.4473 98.647 88.5385 98.6132 88.6278 98.5762C88.9142 98.4562 89.1975 98.3305 89.4762 98.1966C89.4845 98.1928 89.4935 98.1889 89.5018 98.1851C89.7952 98.0441 90.0842 97.8948 90.3687 97.7392C90.4274 97.7073 90.4842 97.6722 90.5422 97.6397C90.7623 97.5159 90.9805 97.3896 91.1948 97.2575C91.279 97.2059 91.3613 97.151 91.4443 97.0974C91.6299 96.9788 91.8143 96.8582 91.9954 96.7338C92.0847 96.6719 92.1728 96.6081 92.2614 96.5443C92.433 96.4212 92.6027 96.2962 92.7699 96.168C92.8579 96.1003 92.9447 96.0314 93.0314 95.9619C93.196 95.8305 93.3587 95.6959 93.5188 95.5587C93.6011 95.4886 93.6834 95.4178 93.7638 95.3463C93.9271 95.2015 94.0872 95.0529 94.2454 94.9023C94.3169 94.834 94.3896 94.7664 94.4604 94.6975C94.6314 94.5291 94.7985 94.3569 94.9624 94.1821C95.0148 94.1259 95.069 94.0717 95.1213 94.0156C95.335 93.7827 95.5442 93.5454 95.7458 93.3024L95.7465 93.3017C94.5102 88.2634 90.6685 84.2591 85.7348 82.772Z" fill="#5555CE" fill-opacity="0.08"/>
<path d="M81.5 68.7414C77.0891 68.7414 73.5 72.3304 73.5 76.7414C73.5 81.1523 77.0891 84.7414 81.5 84.7414C85.9109 84.7414 89.5 81.1523 89.5 76.7414C89.5 72.3304 85.9109 68.7414 81.5 68.7414Z" fill="white"/>
<path d="M89.5 76.7414C89.5 81.1523 85.9109 84.7414 81.5 84.7414V68.7414C85.9109 68.7414 89.5 72.3304 89.5 76.7414Z" fill="#FF7542" fill-opacity="0.08"/>
<g clip-path="url(#clip0)">
<path d="M18.5 68C28.7173 68 37 59.7173 37 49.5C37 39.2827 28.7173 31 18.5 31C8.28273 31 0 39.2827 0 49.5C0 59.7173 8.28273 68 18.5 68Z" fill="#7C7CD9"/>
<path d="M22.7348 50.772C24.7959 49.3999 26.1554 47.058 26.1554 44.3966C26.1554 40.169 22.7278 36.7414 18.5002 36.7414C14.2726 36.7414 10.845 40.169 10.845 44.3966C10.845 47.058 12.2044 49.3999 14.2656 50.772C14.2656 50.772 14.2662 50.7727 14.2669 50.7727C14.2662 50.7727 14.2662 50.772 14.2662 50.772C9.33248 52.2591 5.49085 56.2634 4.25391 61.3011L4.25454 61.3017C4.45613 61.5448 4.66537 61.7821 4.87908 62.0149C4.93075 62.0717 4.98498 62.1259 5.03792 62.1814C5.20251 62.3562 5.36901 62.5285 5.53998 62.6969C5.61079 62.7664 5.68287 62.8334 5.75496 62.9017C5.91316 63.0522 6.07329 63.2009 6.2366 63.3457C6.31761 63.4171 6.39991 63.4879 6.48156 63.5581C6.64168 63.6953 6.80372 63.8299 6.96894 63.9613C7.0557 64.0308 7.1431 64.0991 7.23049 64.1673C7.39763 64.2962 7.56732 64.4212 7.73892 64.5437C7.8276 64.6069 7.91499 64.6713 8.00494 64.7332C8.18611 64.8582 8.37048 64.9781 8.55611 65.0968C8.63968 65.1497 8.72134 65.2046 8.80554 65.2569C9.01989 65.389 9.23806 65.5153 9.45815 65.639C9.5162 65.6716 9.57298 65.7067 9.63167 65.7386C9.91618 65.8942 10.2052 66.0435 10.4986 66.1845C10.5056 66.1877 10.5133 66.1908 10.5203 66.194C10.8004 66.328 11.0849 66.4549 11.3726 66.5749C11.4619 66.6125 11.5531 66.6457 11.6431 66.6814C11.851 66.7643 12.059 66.846 12.2708 66.9213C12.3831 66.9615 12.4966 66.9978 12.6095 67.0361C12.8022 67.1012 12.9961 67.1643 13.1913 67.2224C13.3151 67.2594 13.4395 67.2938 13.5645 67.3283C13.7533 67.3806 13.9434 67.4303 14.1355 67.4769C14.265 67.5082 14.3951 67.5382 14.5259 67.5669C14.7179 67.609 14.9105 67.6472 15.1045 67.683C15.2359 67.7072 15.3667 67.7321 15.4994 67.7531C15.6997 67.7857 15.9013 67.8131 16.1035 67.8393C16.2311 67.8558 16.358 67.8743 16.4862 67.8877C16.7095 67.912 16.9347 67.9292 17.1599 67.9452C17.269 67.9528 17.3768 67.9643 17.4859 67.97C17.8221 67.9892 18.1595 68 18.5002 68C18.8408 68 19.1783 67.9892 19.5145 67.9713C19.6236 67.9656 19.732 67.9541 19.8405 67.9464C20.0663 67.9305 20.2915 67.9133 20.5141 67.889C20.6424 67.875 20.7693 67.8571 20.8969 67.8405C21.0991 67.8144 21.3007 67.7869 21.501 67.7544C21.6331 67.7327 21.7645 67.7085 21.8959 67.6842C22.0898 67.6485 22.2831 67.6102 22.4745 67.5681C22.6053 67.5394 22.7354 67.5094 22.8649 67.4782C23.0563 67.4316 23.2464 67.3819 23.4359 67.3295C23.5603 67.2951 23.6853 67.2607 23.809 67.2237C24.0049 67.165 24.1982 67.1018 24.3908 67.0374C24.5038 66.9991 24.6179 66.9627 24.7296 66.9226C24.9407 66.8466 25.1493 66.7656 25.3573 66.6827C25.4473 66.647 25.5385 66.6132 25.6278 66.5762C25.9142 66.4562 26.1975 66.3305 26.4762 66.1966C26.4845 66.1928 26.4935 66.1889 26.5018 66.1851C26.7952 66.0441 27.0842 65.8948 27.3687 65.7392C27.4274 65.7073 27.4842 65.6722 27.5422 65.6397C27.7623 65.5159 27.9805 65.3896 28.1948 65.2575C28.279 65.2059 28.3613 65.151 28.4443 65.0974C28.6299 64.9788 28.8143 64.8582 28.9954 64.7338C29.0847 64.6719 29.1728 64.6081 29.2614 64.5443C29.433 64.4212 29.6027 64.2962 29.7699 64.168C29.8579 64.1003 29.9447 64.0314 30.0314 63.9619C30.196 63.8305 30.3587 63.6959 30.5188 63.5587C30.6011 63.4886 30.6834 63.4178 30.7638 63.3463C30.9271 63.2015 31.0872 63.0529 31.2454 62.9023C31.3169 62.834 31.3896 62.7664 31.4604 62.6975C31.6314 62.5291 31.7985 62.3569 31.9624 62.1821C32.0148 62.1259 32.069 62.0717 32.1213 62.0156C32.335 61.7827 32.5442 61.5454 32.7458 61.3024L32.7465 61.3017C31.5102 56.2634 27.6685 52.2591 22.7348 50.772Z" fill="white"/>
<path d="M22.7348 50.772C24.7959 49.3999 26.1554 47.058 26.1554 44.3966C26.1554 40.169 22.7278 36.7414 18.5002 36.7414C14.2726 36.7414 10.845 40.169 10.845 44.3966C10.845 47.058 12.2044 49.3999 14.2656 50.772C14.2656 50.772 14.2662 50.7727 14.2669 50.7727C14.2662 50.7727 14.2662 50.772 14.2662 50.772C9.33248 52.2591 5.49085 56.2634 4.25391 61.3011L4.25454 61.3017C4.45613 61.5448 4.66537 61.7821 4.87908 62.0149C4.93075 62.0717 4.98498 62.1259 5.03792 62.1814C5.20251 62.3562 5.36901 62.5285 5.53998 62.6969C5.61079 62.7664 5.68287 62.8334 5.75496 62.9017C5.91316 63.0522 6.07329 63.2009 6.2366 63.3457C6.31761 63.4171 6.39991 63.4879 6.48156 63.5581C6.64168 63.6953 6.80372 63.8299 6.96894 63.9613C7.0557 64.0308 7.1431 64.0991 7.23049 64.1673C7.39763 64.2962 7.56732 64.4212 7.73892 64.5437C7.8276 64.6069 7.91499 64.6713 8.00494 64.7332C8.18611 64.8582 8.37048 64.9781 8.55611 65.0968C8.63968 65.1497 8.72134 65.2046 8.80554 65.2569C9.01989 65.389 9.23806 65.5153 9.45815 65.639C9.5162 65.6716 9.57298 65.7067 9.63167 65.7386C9.91618 65.8942 10.2052 66.0435 10.4986 66.1845C10.5056 66.1877 10.5133 66.1908 10.5203 66.194C10.8004 66.328 11.0849 66.4549 11.3726 66.5749C11.4619 66.6125 11.5531 66.6457 11.6431 66.6814C11.851 66.7643 12.059 66.846 12.2708 66.9213C12.3831 66.9615 12.4966 66.9978 12.6095 67.0361C12.8022 67.1012 12.9961 67.1643 13.1913 67.2224C13.3151 67.2594 13.4395 67.2938 13.5645 67.3283C13.7533 67.3806 13.9434 67.4303 14.1355 67.4769C14.265 67.5082 14.3951 67.5382 14.5259 67.5669C14.7179 67.609 14.9105 67.6472 15.1045 67.683C15.2359 67.7072 15.3667 67.7321 15.4994 67.7531C15.6997 67.7857 15.9013 67.8131 16.1035 67.8393C16.2311 67.8558 16.358 67.8743 16.4862 67.8877C16.7095 67.912 16.9347 67.9292 17.1599 67.9452C17.269 67.9528 17.3768 67.9643 17.4859 67.97C17.8221 67.9892 18.1595 68 18.5002 68C18.8408 68 19.1783 67.9892 19.5145 67.9713C19.6236 67.9656 19.732 67.9541 19.8405 67.9464C20.0663 67.9305 20.2915 67.9133 20.5141 67.889C20.6424 67.875 20.7693 67.8571 20.8969 67.8405C21.0991 67.8144 21.3007 67.7869 21.501 67.7544C21.6331 67.7327 21.7645 67.7085 21.8959 67.6842C22.0898 67.6485 22.2831 67.6102 22.4745 67.5681C22.6053 67.5394 22.7354 67.5094 22.8649 67.4782C23.0563 67.4316 23.2464 67.3819 23.4359 67.3295C23.5603 67.2951 23.6853 67.2607 23.809 67.2237C24.0049 67.165 24.1982 67.1018 24.3908 67.0374C24.5038 66.9991 24.6179 66.9627 24.7296 66.9226C24.9407 66.8466 25.1493 66.7656 25.3573 66.6827C25.4473 66.647 25.5385 66.6132 25.6278 66.5762C25.9142 66.4562 26.1975 66.3305 26.4762 66.1966C26.4845 66.1928 26.4935 66.1889 26.5018 66.1851C26.7952 66.0441 27.0842 65.8948 27.3687 65.7392C27.4274 65.7073 27.4842 65.6722 27.5422 65.6397C27.7623 65.5159 27.9805 65.3896 28.1948 65.2575C28.279 65.2059 28.3613 65.151 28.4443 65.0974C28.6299 64.9788 28.8143 64.8582 28.9954 64.7338C29.0847 64.6719 29.1728 64.6081 29.2614 64.5443C29.433 64.4212 29.6027 64.2962 29.7699 64.168C29.8579 64.1003 29.9447 64.0314 30.0314 63.9619C30.196 63.8305 30.3587 63.6959 30.5188 63.5587C30.6011 63.4886 30.6834 63.4178 30.7638 63.3463C30.9271 63.2015 31.0872 63.0529 31.2454 62.9023C31.3169 62.834 31.3896 62.7664 31.4604 62.6975C31.6314 62.5291 31.7985 62.3569 31.9624 62.1821C32.0148 62.1259 32.069 62.0717 32.1213 62.0156C32.335 61.7827 32.5442 61.5454 32.7458 61.3024L32.7465 61.3017C31.5102 56.2634 27.6685 52.2591 22.7348 50.772Z" fill="#5555CE" fill-opacity="0.08"/>
<path d="M18.5 36.7414C14.0891 36.7414 10.5 40.3304 10.5 44.7414C10.5 49.1523 14.0891 52.7414 18.5 52.7414C22.9109 52.7414 26.5 49.1523 26.5 44.7414C26.5 40.3304 22.9109 36.7414 18.5 36.7414Z" fill="white"/>
<path d="M26.5 44.7414C26.5 49.1523 22.9109 52.7414 18.5 52.7414V36.7414C22.9109 36.7414 26.5 40.3304 26.5 44.7414Z" fill="white"/>
<path d="M26.5 44.7414C26.5 49.1523 22.9109 52.7414 18.5 52.7414V36.7414C22.9109 36.7414 26.5 40.3304 26.5 44.7414Z" fill="#5555CE" fill-opacity="0.08"/>
</g>
<defs>
<clipPath id="clip0">
<rect width="37" height="37" fill="white" transform="translate(0 31)"/>
</clipPath>
</defs>
</svg>
