<svg width="100" height="100" viewBox="0 0 100 100" fill="none" xmlns="http://www.w3.org/2000/svg">
<path d="M49.0391 35.6389H51.9311V53.325H49.0391V35.6389Z" fill="white"/>
<path d="M49.0391 35.6389H51.9311V53.325H49.0391V35.6389Z" fill="#5555CE" fill-opacity="0.08"/>
<path d="M53.5381 61.2215L55.2496 58.8903L70.406 70.0177L68.6945 72.3489L53.5381 61.2215Z" fill="white"/>
<path d="M53.5381 61.2215L55.2496 58.8903L70.406 70.0177L68.6945 72.3489L53.5381 61.2215Z" fill="#5555CE" fill-opacity="0.08"/>
<path d="M30.5635 70.0153L45.7078 58.9024L47.4184 61.2336L32.2741 72.3473L30.5635 70.0153Z" fill="white"/>
<path d="M30.5635 70.0153L45.7078 58.9024L47.4184 61.2336L32.2741 72.3473L30.5635 70.0153Z" fill="#5555CE" fill-opacity="0.08"/>
<path d="M57 56C57 59.3137 54.0898 62 50.5 62C46.9102 62 44 59.3137 44 56C44 52.6863 46.9102 50 50.5 50C54.0898 50 57 52.6863 57 56Z" fill="#C5CAE9"/>
<g clip-path="url(#clip0)">
<path d="M50 36C59.9411 36 68 27.9411 68 18C68 8.05887 59.9411 0 50 0C40.0589 0 32 8.05887 32 18C32 27.9411 40.0589 36 50 36Z" fill="white"/>
<path d="M50 36C59.9411 36 68 27.9411 68 18C68 8.05887 59.9411 0 50 0C40.0589 0 32 8.05887 32 18C32 27.9411 40.0589 36 50 36Z" fill="#5555CE" fill-opacity="0.08"/>
<path d="M54.1201 19.2377C56.1255 17.9026 57.4482 15.624 57.4482 13.0345C57.4482 8.92121 54.1132 5.58624 49.9999 5.58624C45.8866 5.58624 42.5516 8.92121 42.5516 13.0345C42.5516 15.624 43.8743 17.9026 45.8798 19.2377C45.8798 19.2377 45.8804 19.2383 45.881 19.2383C45.8804 19.2383 45.8804 19.2377 45.8804 19.2377C41.08 20.6845 37.3422 24.5806 36.1387 29.4822L36.1393 29.4828C36.3354 29.7193 36.539 29.9502 36.7469 30.1767C36.7972 30.232 36.85 30.2847 36.9015 30.3387C37.0616 30.5088 37.2236 30.6764 37.39 30.8402C37.4589 30.9079 37.529 30.9731 37.5992 31.0395C37.7531 31.186 37.9089 31.3306 38.0678 31.4715C38.1466 31.541 38.2267 31.6099 38.3061 31.6782C38.4619 31.8116 38.6196 31.9426 38.7803 32.0704C38.8647 32.1381 38.9498 32.2045 39.0348 32.2709C39.1974 32.3963 39.3625 32.518 39.5295 32.6371C39.6158 32.6986 39.7008 32.7613 39.7883 32.8215C39.9646 32.9431 40.144 33.0598 40.3246 33.1753C40.4059 33.2268 40.4854 33.2802 40.5673 33.3311C40.7758 33.4596 40.9881 33.5825 41.2023 33.7029C41.2587 33.7345 41.314 33.7687 41.3711 33.7997C41.6479 33.9511 41.9291 34.0964 42.2146 34.2336C42.2214 34.2367 42.2289 34.2398 42.2357 34.2429C42.5082 34.3732 42.785 34.4967 43.0649 34.6134C43.1518 34.65 43.2406 34.6823 43.3281 34.7171C43.5305 34.7978 43.7328 34.8772 43.9389 34.9505C44.0481 34.9896 44.1586 35.0249 44.2685 35.0622C44.4559 35.1255 44.6446 35.1869 44.8345 35.2434C44.9549 35.2794 45.076 35.3129 45.1976 35.3465C45.3814 35.3973 45.5663 35.4458 45.7532 35.4911C45.8792 35.5215 46.0058 35.5507 46.133 35.5786C46.3198 35.6196 46.5073 35.6568 46.696 35.6916C46.8238 35.7151 46.9511 35.7393 47.0802 35.7598C47.2751 35.7915 47.4712 35.8182 47.668 35.8436C47.7921 35.8598 47.9156 35.8778 48.0404 35.8908C48.2576 35.9144 48.4767 35.9311 48.6958 35.9467C48.802 35.9541 48.9069 35.9653 49.013 35.9709C49.3401 35.9895 49.6685 36 49.9999 36C50.3314 36 50.6597 35.9895 50.9868 35.9721C51.093 35.9665 51.1985 35.9553 51.304 35.9479C51.5237 35.9324 51.7428 35.9156 51.9594 35.892C52.0842 35.8784 52.2077 35.861 52.3318 35.8449C52.5286 35.8194 52.7247 35.7927 52.9196 35.7611C53.0481 35.74 53.176 35.7164 53.3038 35.6928C53.4925 35.658 53.6806 35.6208 53.8668 35.5798C53.9941 35.5519 54.1207 35.5227 54.2467 35.4923C54.4329 35.447 54.6178 35.3986 54.8022 35.3477C54.9232 35.3142 55.0449 35.2807 55.1653 35.2447C55.3558 35.1876 55.5439 35.1261 55.7314 35.0634C55.8412 35.0262 55.9523 34.9908 56.061 34.9517C56.2664 34.8778 56.4694 34.799 56.6717 34.7183C56.7592 34.6836 56.848 34.6507 56.9349 34.6147C57.2136 34.498 57.4892 34.3757 57.7604 34.2453C57.7685 34.2416 57.7772 34.2379 57.7852 34.2342C58.0707 34.097 58.3519 33.9518 58.6287 33.8003C58.6858 33.7693 58.7411 33.7351 58.7976 33.7035C59.0117 33.5831 59.224 33.4602 59.4325 33.3317C59.5145 33.2814 59.5945 33.228 59.6752 33.1759C59.8558 33.0605 60.0352 32.9431 60.2115 32.8221C60.2984 32.7619 60.3841 32.6998 60.4703 32.6378C60.6373 32.518 60.8024 32.3963 60.965 32.2716C61.0507 32.2058 61.1351 32.1387 61.2195 32.0711C61.3796 31.9432 61.5379 31.8122 61.6937 31.6788C61.7738 31.6105 61.8538 31.5416 61.9321 31.4721C62.091 31.3312 62.2467 31.1866 62.4007 31.0401C62.4702 30.9737 62.541 30.9079 62.6098 30.8409C62.7762 30.677 62.9388 30.5094 63.0983 30.3393C63.1492 30.2847 63.202 30.232 63.2529 30.1773C63.4608 29.9508 63.6644 29.7199 63.8605 29.4834L63.8612 29.4828C62.6583 24.5806 58.9205 20.6845 54.1201 19.2377Z" fill="#FF9A75"/>
<path d="M49.9996 5.58624C45.7079 5.58624 42.2158 9.07829 42.2158 13.37C42.2158 17.6618 45.7079 21.1538 49.9996 21.1538C54.2913 21.1538 57.7834 17.6618 57.7834 13.37C57.7834 9.07829 54.2913 5.58624 49.9996 5.58624Z" fill="#FED9B6"/>
<path d="M57.7838 13.37C57.7838 17.6618 54.2917 21.1538 50 21.1538V5.58624C54.2917 5.58624 57.7838 9.07829 57.7838 13.37Z" fill="#FEBF85"/>
</g>
<g clip-path="url(#clip1)">
<path d="M82 100C91.9411 100 100 91.9411 100 82C100 72.0589 91.9411 64 82 64C72.0589 64 64 72.0589 64 82C64 91.9411 72.0589 100 82 100Z" fill="white"/>
<path d="M82 100C91.9411 100 100 91.9411 100 82C100 72.0589 91.9411 64 82 64C72.0589 64 64 72.0589 64 82C64 91.9411 72.0589 100 82 100Z" fill="#5555CE" fill-opacity="0.08"/>
<path d="M86.1201 83.2377C88.1255 81.9026 89.4482 79.624 89.4482 77.0345C89.4482 72.9212 86.1132 69.5862 81.9999 69.5862C77.8866 69.5862 74.5516 72.9212 74.5516 77.0345C74.5516 79.624 75.8743 81.9026 77.8798 83.2377C77.8798 83.2377 77.8804 83.2383 77.881 83.2383C77.8804 83.2383 77.8804 83.2377 77.8804 83.2377C73.08 84.6845 69.3422 88.5806 68.1387 93.4822L68.1393 93.4828C68.3354 93.7193 68.539 93.9502 68.7469 94.1767C68.7972 94.232 68.85 94.2847 68.9015 94.3387C69.0616 94.5088 69.2236 94.6764 69.39 94.8402C69.4589 94.9079 69.529 94.9731 69.5992 95.0395C69.7531 95.186 69.9089 95.3306 70.0678 95.4715C70.1466 95.541 70.2267 95.6099 70.3061 95.6782C70.4619 95.8116 70.6196 95.9426 70.7803 96.0704C70.8647 96.1381 70.9498 96.2045 71.0348 96.2709C71.1974 96.3963 71.3625 96.518 71.5295 96.6371C71.6158 96.6986 71.7008 96.7613 71.7883 96.8215C71.9646 96.9431 72.144 97.0598 72.3246 97.1753C72.4059 97.2268 72.4854 97.2802 72.5673 97.3311C72.7758 97.4596 72.9881 97.5825 73.2023 97.7029C73.2587 97.7345 73.314 97.7687 73.3711 97.7997C73.6479 97.9511 73.9291 98.0964 74.2146 98.2336C74.2214 98.2367 74.2289 98.2398 74.2357 98.2429C74.5082 98.3732 74.785 98.4967 75.0649 98.6134C75.1518 98.65 75.2406 98.6823 75.3281 98.7171C75.5305 98.7978 75.7328 98.8772 75.9389 98.9505C76.0481 98.9896 76.1586 99.0249 76.2685 99.0622C76.4559 99.1255 76.6446 99.1869 76.8345 99.2434C76.9549 99.2794 77.076 99.3129 77.1976 99.3465C77.3814 99.3973 77.5663 99.4458 77.7532 99.4911C77.8792 99.5215 78.0058 99.5507 78.133 99.5786C78.3198 99.6196 78.5073 99.6568 78.696 99.6916C78.8238 99.7151 78.9511 99.7393 79.0802 99.7598C79.2751 99.7915 79.4712 99.8182 79.668 99.8436C79.7921 99.8598 79.9156 99.8778 80.0404 99.8908C80.2576 99.9144 80.4767 99.9311 80.6958 99.9467C80.802 99.9541 80.9069 99.9653 81.013 99.9709C81.3401 99.9895 81.6685 100 81.9999 100C82.3314 100 82.6597 99.9895 82.9868 99.9721C83.093 99.9665 83.1985 99.9553 83.304 99.9479C83.5237 99.9324 83.7428 99.9156 83.9594 99.892C84.0842 99.8784 84.2077 99.861 84.3318 99.8449C84.5286 99.8194 84.7247 99.7927 84.9196 99.7611C85.0481 99.74 85.176 99.7164 85.3038 99.6928C85.4925 99.658 85.6806 99.6208 85.8668 99.5798C85.9941 99.5519 86.1207 99.5227 86.2467 99.4923C86.4329 99.447 86.6178 99.3986 86.8022 99.3477C86.9232 99.3142 87.0449 99.2807 87.1653 99.2447C87.3558 99.1876 87.5439 99.1261 87.7314 99.0634C87.8412 99.0262 87.9523 98.9908 88.061 98.9517C88.2664 98.8778 88.4694 98.799 88.6717 98.7183C88.7592 98.6836 88.848 98.6507 88.9349 98.6147C89.2136 98.498 89.4892 98.3757 89.7604 98.2453C89.7685 98.2416 89.7772 98.2379 89.7852 98.2342C90.0707 98.097 90.3519 97.9518 90.6287 97.8003C90.6858 97.7693 90.7411 97.7351 90.7976 97.7035C91.0117 97.5831 91.224 97.4602 91.4325 97.3317C91.5145 97.2814 91.5945 97.228 91.6752 97.1759C91.8558 97.0605 92.0352 96.9431 92.2115 96.8221C92.2984 96.7619 92.3841 96.6998 92.4703 96.6378C92.6373 96.518 92.8024 96.3963 92.965 96.2716C93.0507 96.2058 93.1351 96.1387 93.2195 96.0711C93.3796 95.9432 93.5379 95.8122 93.6937 95.6788C93.7738 95.6105 93.8538 95.5416 93.9321 95.4721C94.091 95.3312 94.2467 95.1866 94.4007 95.0401C94.4702 94.9737 94.541 94.9079 94.6098 94.8409C94.7762 94.677 94.9388 94.5094 95.0983 94.3393C95.1492 94.2847 95.202 94.232 95.2529 94.1773C95.4608 93.9508 95.6644 93.7199 95.8605 93.4834L95.8612 93.4828C94.6583 88.5806 90.9205 84.6845 86.1201 83.2377Z" fill="#6564C4"/>
<path d="M81.9996 69.5862C77.7079 69.5862 74.2158 73.0783 74.2158 77.37C74.2158 81.6618 77.7079 85.1538 81.9996 85.1538C86.2913 85.1538 89.7834 81.6618 89.7834 77.37C89.7834 73.0783 86.2913 69.5862 81.9996 69.5862Z" fill="#FED9B6"/>
<path d="M89.7838 77.37C89.7838 81.6618 86.2917 85.1538 82 85.1538V69.5862C86.2917 69.5862 89.7838 73.0783 89.7838 77.37Z" fill="#FEBF85"/>
</g>
<g clip-path="url(#clip2)">
<path d="M18 100C27.9411 100 36 91.9411 36 82C36 72.0589 27.9411 64 18 64C8.05887 64 0 72.0589 0 82C0 91.9411 8.05887 100 18 100Z" fill="white"/>
<path d="M18 100C27.9411 100 36 91.9411 36 82C36 72.0589 27.9411 64 18 64C8.05887 64 0 72.0589 0 82C0 91.9411 8.05887 100 18 100Z" fill="#5555CE" fill-opacity="0.08"/>
<path d="M22.1201 83.2377C24.1255 81.9026 25.4482 79.624 25.4482 77.0345C25.4482 72.9212 22.1132 69.5862 17.9999 69.5862C13.8866 69.5862 10.5516 72.9212 10.5516 77.0345C10.5516 79.624 11.8743 81.9026 13.8798 83.2377C13.8798 83.2377 13.8804 83.2383 13.881 83.2383C13.8804 83.2383 13.8804 83.2377 13.8804 83.2377C9.07998 84.6845 5.34219 88.5806 4.13867 93.4822L4.13929 93.4828C4.33543 93.7193 4.53902 93.9502 4.74695 94.1767C4.79722 94.232 4.84998 94.2847 4.9015 94.3387C5.06164 94.5088 5.22364 94.6764 5.38998 94.8402C5.45888 94.9079 5.52902 94.9731 5.59915 95.0395C5.75309 95.186 5.90888 95.3306 6.06778 95.4715C6.1466 95.541 6.22667 95.6099 6.30612 95.6782C6.46191 95.8116 6.61957 95.9426 6.78033 96.0704C6.86474 96.1381 6.94978 96.2045 7.03481 96.2709C7.19743 96.3963 7.36253 96.518 7.5295 96.6371C7.61578 96.6986 7.70081 96.7613 7.78833 96.8215C7.9646 96.9431 8.14398 97.0598 8.3246 97.1753C8.40591 97.2268 8.48536 97.2802 8.56729 97.3311C8.77585 97.4596 8.98812 97.5825 9.20226 97.7029C9.25874 97.7345 9.31398 97.7687 9.37109 97.7997C9.64791 97.9511 9.92909 98.0964 10.2146 98.2336C10.2214 98.2367 10.2289 98.2398 10.2357 98.2429C10.5082 98.3732 10.785 98.4967 11.0649 98.6134C11.1518 98.65 11.2406 98.6823 11.3281 98.7171C11.5305 98.7978 11.7328 98.8772 11.9389 98.9505C12.0481 98.9896 12.1586 99.0249 12.2685 99.0622C12.4559 99.1255 12.6446 99.1869 12.8345 99.2434C12.9549 99.2794 13.076 99.3129 13.1976 99.3465C13.3814 99.3973 13.5663 99.4458 13.7532 99.4911C13.8792 99.5215 14.0058 99.5507 14.133 99.5786C14.3198 99.6196 14.5073 99.6568 14.696 99.6916C14.8238 99.7151 14.9511 99.7393 15.0802 99.7598C15.2751 99.7915 15.4712 99.8182 15.668 99.8436C15.7921 99.8598 15.9156 99.8778 16.0404 99.8908C16.2576 99.9144 16.4767 99.9311 16.6958 99.9467C16.802 99.9541 16.9069 99.9653 17.013 99.9709C17.3401 99.9895 17.6685 100 17.9999 100C18.3314 100 18.6597 99.9895 18.9868 99.9721C19.093 99.9665 19.1985 99.9553 19.304 99.9479C19.5237 99.9324 19.7428 99.9156 19.9594 99.892C20.0842 99.8784 20.2077 99.861 20.3318 99.8449C20.5286 99.8194 20.7247 99.7927 20.9196 99.7611C21.0481 99.74 21.176 99.7164 21.3038 99.6928C21.4925 99.658 21.6806 99.6208 21.8668 99.5798C21.9941 99.5519 22.1207 99.5227 22.2467 99.4923C22.4329 99.447 22.6178 99.3986 22.8022 99.3477C22.9232 99.3142 23.0449 99.2807 23.1653 99.2447C23.3558 99.1876 23.5439 99.1261 23.7314 99.0634C23.8412 99.0262 23.9523 98.9908 24.061 98.9517C24.2664 98.8778 24.4694 98.799 24.6717 98.7183C24.7592 98.6836 24.848 98.6507 24.9349 98.6147C25.2136 98.498 25.4892 98.3757 25.7604 98.2453C25.7685 98.2416 25.7772 98.2379 25.7852 98.2342C26.0707 98.097 26.3519 97.9518 26.6287 97.8003C26.6858 97.7693 26.7411 97.7351 26.7976 97.7035C27.0117 97.5831 27.224 97.4602 27.4325 97.3317C27.5145 97.2814 27.5945 97.228 27.6752 97.1759C27.8558 97.0605 28.0352 96.9431 28.2115 96.8221C28.2984 96.7619 28.3841 96.6998 28.4703 96.6378C28.6373 96.518 28.8024 96.3963 28.965 96.2716C29.0507 96.2058 29.1351 96.1387 29.2195 96.0711C29.3796 95.9432 29.5379 95.8122 29.6937 95.6788C29.7738 95.6105 29.8538 95.5416 29.9321 95.4721C30.091 95.3312 30.2467 95.1866 30.4007 95.0401C30.4702 94.9737 30.541 94.9079 30.6098 94.8409C30.7762 94.677 30.9388 94.5094 31.0983 94.3393C31.1492 94.2847 31.202 94.232 31.2529 94.1773C31.4608 93.9508 31.6644 93.7199 31.8605 93.4834L31.8612 93.4828C30.6583 88.5806 26.9205 84.6845 22.1201 83.2377Z" fill="#7C7CD9"/>
<path d="M17.9996 69.5862C13.7079 69.5862 10.2158 73.0783 10.2158 77.37C10.2158 81.6618 13.7079 85.1538 17.9996 85.1538C22.2913 85.1538 25.7834 81.6618 25.7834 77.37C25.7834 73.0783 22.2913 69.5862 17.9996 69.5862Z" fill="#FED9B6"/>
<path d="M25.7838 77.37C25.7838 81.6618 22.2917 85.1538 18 85.1538V69.5862C22.2917 69.5862 25.7838 73.0783 25.7838 77.37Z" fill="#FEBF85"/>
</g>
<defs>
<clipPath id="clip0">
<rect width="36" height="36" fill="white" transform="translate(32)"/>
</clipPath>
<clipPath id="clip1">
<rect width="36" height="36" fill="white" transform="translate(64 64)"/>
</clipPath>
<clipPath id="clip2">
<rect width="36" height="36" fill="white" transform="translate(0 64)"/>
</clipPath>
</defs>
</svg>
