<svg width="100" height="100" viewBox="0 0 100 100" fill="none" xmlns="http://www.w3.org/2000/svg">
<path d="M60.2754 62.4241L62.4091 60.2904L78.3537 76.2351L76.22 78.3688L60.2754 62.4241Z" fill="white"/>
<path d="M60.2754 62.4241L62.4091 60.2904L78.3537 76.2351L76.22 78.3688L60.2754 62.4241Z" fill="#5555CE" fill-opacity="0.08"/>
<path d="M21.626 23.767L23.7597 21.6333L40.5059 38.3796L38.3722 40.5133L21.626 23.767Z" fill="white"/>
<path d="M21.626 23.767L23.7597 21.6333L40.5059 38.3796L38.3722 40.5133L21.626 23.767Z" fill="#5555CE" fill-opacity="0.08"/>
<path d="M15.8984 81.9545L37.6188 60.2341L39.7525 62.3678L18.0321 84.0882L15.8984 81.9545Z" fill="white"/>
<path d="M15.8984 81.9545L37.6188 60.2341L39.7525 62.3678L18.0321 84.0882L15.8984 81.9545Z" fill="#5555CE" fill-opacity="0.08"/>
<path d="M59.5283 38.3332L79.1583 18.7032L81.292 20.8369L61.662 40.4669L59.5283 38.3332Z" fill="white"/>
<path d="M59.5283 38.3332L79.1583 18.7032L81.292 20.8369L61.662 40.4669L59.5283 38.3332Z" fill="#5555CE" fill-opacity="0.08"/>
<path d="M15.4648 49.2424H34.5518V52.2605H15.4648V49.2424Z" fill="white"/>
<path d="M15.4648 49.2424H34.5518V52.2605H15.4648V49.2424Z" fill="#5555CE" fill-opacity="0.08"/>
<path d="M65.5527 49.2424H79.9248V52.2605H65.5527V49.2424Z" fill="white"/>
<path d="M65.5527 49.2424H79.9248V52.2605H65.5527V49.2424Z" fill="#5555CE" fill-opacity="0.08"/>
<path d="M48.543 19.2598H51.5611V35.2529H48.543V19.2598Z" fill="white"/>
<path d="M48.543 19.2598H51.5611V35.2529H48.543V19.2598Z" fill="#5555CE" fill-opacity="0.08"/>
<path d="M48.543 66.252H51.5611V77.7457H48.543V66.252Z" fill="white"/>
<path d="M48.543 66.252H51.5611V77.7457H48.543V66.252Z" fill="#5555CE" fill-opacity="0.08"/>
<path d="M86.0791 100C93.7674 100 100 93.7674 100 86.0791C100 78.3908 93.7674 72.1582 86.0791 72.1582C78.3908 72.1582 72.1582 78.3908 72.1582 86.0791C72.1582 93.7674 78.3908 100 86.0791 100Z" fill="#C5CAE9"/>
<path d="M89.4951 99.576C88.4014 99.8519 87.2574 99.999 86.0791 99.999C78.391 99.999 72.1572 93.7672 72.1572 86.0793C72.1572 78.3914 78.391 72.1574 86.0791 72.1574C87.2574 72.1574 88.4014 72.3045 89.4951 72.5805C83.4588 74.1031 78.9893 79.5695 78.9893 86.0793C78.9895 92.5889 83.4588 98.0531 89.4951 99.576Z" fill="#C5CAE9"/>
<path d="M13.9209 92.0836C17.1796 92.0836 19.8213 89.4419 19.8213 86.1832C19.8213 82.9245 17.1796 80.2828 13.9209 80.2828C10.6622 80.2828 8.02051 82.9245 8.02051 86.1832C8.02051 89.4419 10.6622 92.0836 13.9209 92.0836Z" fill="#6564C4"/>
<path d="M15.7307 91.8006C15.1607 91.986 14.5523 92.0846 13.9219 92.0846C10.6629 92.0846 8.02051 89.442 8.02051 86.1832C8.02051 82.9242 10.6631 80.2838 13.9219 80.2838C14.5523 80.2838 15.1605 80.3824 15.7307 80.5678C13.3561 81.3291 11.6379 83.5547 11.6379 86.1832C11.6379 88.8117 13.3559 91.0395 15.7307 91.8006Z" fill="#6564C4"/>
<path d="M86.1824 23.7654C91.6189 23.7654 96.026 19.3583 96.026 13.9219C96.026 8.48542 91.6189 4.07831 86.1824 4.07831C80.746 4.07831 76.3389 8.48542 76.3389 13.9219C76.3389 19.3583 80.746 23.7654 86.1824 23.7654Z" fill="#FF9A75"/>
<path d="M88.8609 23.3963C88.009 23.6359 87.1107 23.7648 86.182 23.7648C80.7459 23.7648 76.3389 19.3578 76.3389 13.9217C76.3389 8.48337 80.7459 4.07654 86.182 4.07654C87.1105 4.07654 88.0088 4.20544 88.8609 4.44509C84.726 5.6113 81.6967 9.41209 81.6967 13.9217C81.6965 18.4295 84.7258 22.2303 88.8609 23.3963Z" fill="#FF9A75"/>
<path d="M50.0525 95.9226C55.489 95.9226 59.8961 91.5155 59.8961 86.0791C59.8961 80.6426 55.489 76.2355 50.0525 76.2355C44.6161 76.2355 40.209 80.6426 40.209 86.0791C40.209 91.5155 44.6161 95.9226 50.0525 95.9226Z" fill="#FF9A75"/>
<path d="M52.5658 95.5981C51.7643 95.8096 50.9203 95.9225 50.0521 95.9225C44.616 95.9225 40.209 91.5154 40.209 86.0793C40.209 80.643 44.616 76.2361 50.0521 76.2361C50.9203 76.2361 51.7643 76.349 52.5658 76.5604C48.3441 77.6701 45.2322 81.5111 45.2322 86.0793C45.2322 90.6471 48.3441 94.4883 52.5658 95.5981Z" fill="#FF9A75"/>
<path d="M12.997 54.7281C15.1928 54.7281 16.9729 52.948 16.9729 50.7522C16.9729 48.5563 15.1928 46.7762 12.997 46.7762C10.8011 46.7762 9.021 48.5563 9.021 50.7522C9.021 52.948 10.8011 54.7281 12.997 54.7281Z" fill="#7C7CD9"/>
<path d="M14.2034 54.5408C13.8228 54.6637 13.4179 54.7281 12.997 54.7281C10.8015 54.7281 9.021 52.9477 9.021 50.7523C9.021 48.5568 10.8015 46.7764 12.997 46.7764C13.4179 46.7764 13.8228 46.8408 14.2034 46.9637C12.5981 47.4732 11.4339 48.9758 11.4339 50.7523C11.4341 52.5287 12.5981 54.0313 14.2034 54.5408Z" fill="#7C7CD9"/>
<path d="M86.183 58.5192C90.4726 58.5192 93.95 55.0418 93.95 50.7522C93.95 46.4626 90.4726 42.9852 86.183 42.9852C81.8934 42.9852 78.416 46.4626 78.416 50.7522C78.416 55.0418 81.8934 58.5192 86.183 58.5192Z" fill="#FF7542"/>
<path d="M88.6207 58.1293C87.8533 58.383 87.0336 58.5201 86.1816 58.5201C81.8914 58.5201 78.415 55.0416 78.415 50.7516C78.415 46.4635 81.8914 42.9852 86.1816 42.9852C87.0336 42.9852 87.8533 43.1221 88.6207 43.376C85.525 44.3971 83.2893 47.3137 83.2893 50.7518C83.2893 54.1897 85.5248 57.1082 88.6207 58.1293Z" fill="#FF7542"/>
<path d="M50.0521 67.7613C59.4461 67.7613 67.0613 60.146 67.0613 50.7521C67.0613 41.3582 59.4461 33.7429 50.0521 33.7429C40.6582 33.7429 33.043 41.3582 33.043 50.7521C33.043 60.146 40.6582 67.7613 50.0521 67.7613Z" fill="#FF7542"/>
<path d="M52.0967 67.6385C51.4258 67.72 50.7428 67.7608 50.0516 67.7608C40.6582 67.7608 33.043 60.1455 33.043 50.7522C33.043 41.3588 40.6584 33.7436 50.0516 33.7436C50.7428 33.7436 51.4258 33.7844 52.0967 33.8659C43.6658 34.875 37.1311 42.05 37.1311 50.7522C37.1311 59.4543 43.6656 66.6293 52.0967 67.6385Z" fill="#FF7542"/>
<path d="M52.0345 49.2471C50.704 48.7768 49.2327 48.209 48.4097 47.5635C48.1599 47.3676 48.0526 46.9147 48.1427 46.4363C48.1878 46.1965 48.3989 45.3945 49.2171 45.1481C50.764 44.6822 51.7792 45.4764 51.8897 45.5684C52.5302 46.101 53.4819 46.0143 54.0147 45.3736C54.5478 44.733 54.4608 43.7815 53.82 43.2484C53.5878 43.0553 52.7474 42.4178 51.4704 42.1281V41.5596C51.4704 40.7262 50.7948 40.0506 49.9614 40.0506C49.128 40.0506 48.4524 40.7262 48.4524 41.5596V42.2289C48.4171 42.2389 48.3823 42.2477 48.3468 42.2584C46.7198 42.7484 45.5052 44.1354 45.1771 45.8775C44.8747 47.4822 45.3997 49.0383 46.5474 49.9383C47.4876 50.6758 48.786 51.3 51.0288 52.0928C52.4944 52.6107 52.463 53.7959 52.3813 54.2815C52.2153 55.2695 51.3841 56.3373 49.9517 56.3469C48.5339 56.3557 48.0946 56.2863 47.0083 55.5756C46.3108 55.1191 45.3755 55.3148 44.9192 56.0123C44.463 56.7098 44.6585 57.6451 45.356 58.1014C46.5308 58.8699 47.4005 59.1857 48.4528 59.3031V59.9449C48.4528 60.7783 49.1284 61.4539 49.9618 61.4539C50.7954 61.4539 51.4708 60.7783 51.4708 59.9449V59.1537C53.6491 58.5348 55.0444 56.6457 55.3577 54.7816C55.7712 52.3201 54.4358 50.0959 52.0345 49.2471Z" fill="white"/>
<path d="M13.9219 27.844C21.6102 27.844 27.8428 21.6114 27.8428 13.9231C27.8428 6.2348 21.6102 0.00219727 13.9219 0.00219727C6.23358 0.00219727 0.000976562 6.2348 0.000976562 13.9231C0.000976562 21.6114 6.23358 27.844 13.9219 27.844Z" fill="#C5CAE9"/>
<path d="M17.5342 27.3682C16.382 27.6764 15.1717 27.8416 13.9207 27.8416C6.23262 27.8416 0.000976562 21.6098 0.000976562 13.9219C0.000976562 6.23184 6.23281 0 13.9209 0C15.1717 0 16.3822 0.165039 17.5344 0.475391C11.5986 2.06445 7.22578 7.48262 7.22578 13.9219C7.22578 20.3609 11.5986 25.7771 17.5342 27.3682Z" fill="#C5CAE9"/>
<path d="M50.0521 20.768C53.8331 20.768 56.8982 17.7029 56.8982 13.9219C56.8982 10.1409 53.8331 7.07581 50.0521 7.07581C46.2712 7.07581 43.2061 10.1409 43.2061 13.9219C43.2061 17.7029 46.2712 20.768 50.0521 20.768Z" fill="#6564C4"/>
<path d="M52.3301 20.3791C51.617 20.6308 50.8518 20.7677 50.0521 20.7677C46.2717 20.7677 43.2061 17.7023 43.2061 13.9217C43.2061 10.139 46.2715 7.07556 50.0521 7.07556C50.8518 7.07556 51.6172 7.21248 52.3301 7.46228C49.6693 8.40095 47.7619 10.9388 47.7619 13.9217C47.7619 16.9045 49.6693 19.4406 52.3301 20.3791Z" fill="#6564C4"/>
</svg>
