<svg width="629" height="406" viewBox="0 0 629 406" fill="none" xmlns="http://www.w3.org/2000/svg">
<path d="M200.799 403.673C166.818 403.673 132.854 402.711 99.0188 399.504L102.475 395.581C90.7511 394.245 78.6945 392.808 68.3027 386.924C57.9113 381.04 49.4551 369.559 50.3508 357.145C50.9861 348.338 56.0359 340.611 59.8628 332.644C63.8876 340.672 68.0966 348.283 72.7498 355.059C80.677 366.601 92.9781 374.71 106.005 380.4L106.053 383.72C106.053 387.909 109.494 391.34 113.698 391.34H144.275C149.647 392.246 154.265 392.806 157.675 393.145C157.808 393.156 157.939 393.165 158.068 393.165C159.464 393.165 160.644 392.414 161.301 391.34H440.611C439.685 395.946 439.56 398.609 439.56 398.609C439.56 398.609 448.993 396.624 463.569 391.34H527.118C531.323 391.34 534.763 387.909 534.763 383.72L535.507 352.33C551.218 340.324 566.737 325.456 580.183 307.158C598.528 282.19 609.869 256.97 616.849 234.581C624.924 244.936 631.024 257.565 627.734 270.118C622.165 291.371 592.895 299.842 590.897 321.791C589.335 338.983 606.254 353.819 603.934 370.915C602.572 380.959 594.541 388.857 585.59 392.545C576.641 396.236 566.798 396.485 557.193 396.688C463.714 398.661 370.238 400.631 276.759 402.604C251.45 403.14 226.122 403.673 200.799 403.673ZM561.464 246.311C570.857 229.206 579.138 208.962 585.598 185.015C585.683 187.116 585.938 189.24 586.385 191.388C587.802 198.218 591.025 204.184 595.073 209.701C585.032 221.569 573.47 234.011 561.464 246.311ZM591.426 159.798C597.14 130.508 600.337 96.461 600.055 56.8572C601.748 58.8881 603.313 61.0349 604.735 63.2918C614.52 78.8117 617.253 99.0684 611.959 116.857C607.511 131.806 597.75 145.651 591.426 159.798ZM102.726 154.444C89.2253 128.072 73.3796 102.163 55.1393 80.0517C65.6187 47.6444 93.3067 21.5064 125.435 15.66C130.992 14.649 136.542 14.1912 142.088 14.1912C170.22 14.1912 198.128 25.9507 224.868 36.6701C247.84 45.88 272.505 54.5048 296.637 54.5048C306.131 54.5048 315.544 53.1692 324.737 50.0084C350.532 41.1432 373.121 18.3631 399.674 18.3631C401.14 18.3631 402.621 18.4326 404.113 18.5775C428.338 20.9386 447.196 42.9626 471.057 47.9544C474.861 48.7511 478.659 49.0929 482.459 49.0929C486.161 49.0929 489.863 48.7656 493.565 48.2151C471.716 76.7605 456.571 102.913 446.293 126.391L116.633 134.903C116.307 134.88 115.987 134.868 115.672 134.868C107.213 134.868 102.613 142.621 102.613 146.663L102.726 154.444ZM538.582 135.433C537.644 133.463 536.366 131.647 534.784 130.076C534.194 129.488 533.573 128.947 532.92 128.445C536.445 93.3843 530.905 60.835 525.815 40.1582C535.463 37.516 545.146 35.3171 554.891 35.3171C556.833 35.3171 558.778 35.404 560.724 35.5923C573.006 36.7801 584.829 42.2499 594.175 50.7298C584.724 69.1498 564.025 106.636 538.582 135.433Z" fill="url(#paint0_linear)"/>
<path d="M520.356 21.1182C528.968 46.8419 572.965 198.586 437.672 265.361C437.672 265.361 382.935 172.901 516.445 20.3302C517.612 18.9946 519.793 19.4379 520.356 21.1182Z" fill="#BDD0FB"/>
<path d="M511.965 47.0215C511.291 55.6694 510.435 64.2884 509.509 72.9044C508.574 81.5205 507.543 90.125 506.41 98.7179C504.143 115.901 501.495 133.037 498.315 150.084C495.125 167.126 491.434 184.09 486.818 200.83C484.535 209.205 481.951 217.504 479.048 225.699C476.133 233.889 472.886 241.982 468.999 249.801C468.714 250.378 468.011 250.614 467.434 250.328C466.856 250.041 466.618 249.342 466.905 248.765L466.908 248.758L466.911 248.754C470.79 241.074 474.06 233.078 477.004 224.969C479.939 216.854 482.567 208.618 484.89 200.293C489.593 183.658 493.385 166.76 496.681 149.774C499.962 132.782 502.72 115.686 505.095 98.5412C506.283 89.9657 507.369 81.3785 508.356 72.777C509.34 64.1783 510.249 55.5651 510.978 46.9462V46.9433C511.001 46.6709 511.242 46.4681 511.515 46.4913C511.785 46.5145 511.988 46.752 511.965 47.0215Z" fill="#91B3FA"/>
<path d="M599.975 50.0635C599.931 47.3836 596.308 46.5434 595.091 48.9336C583.349 72.0527 550.659 131.713 513.084 159.375C451.904 204.416 400.735 287.072 423.757 339.669C423.757 339.669 604.888 342.12 599.975 50.0635Z" fill="#91B3FA"/>
<path d="M588.043 84.0062C587.825 84.7595 587.573 85.4027 587.335 86.0864L586.588 88.1057L585.05 92.1182C584.01 94.7894 582.942 97.4489 581.864 100.106C579.698 105.41 577.463 110.689 575.18 115.947C570.602 126.455 565.747 136.841 560.733 147.152C555.727 157.466 550.451 167.652 544.969 177.725L542.919 181.506L540.82 185.26C539.412 187.757 538.047 190.279 536.596 192.752L532.29 200.2L527.871 207.583C515.989 227.206 503.069 246.228 488.847 264.257C487.973 265.396 487.064 266.505 486.147 267.609L483.406 270.932L480.668 274.252C479.742 275.35 478.786 276.422 477.849 277.506C475.95 279.658 474.1 281.854 472.161 283.972L466.307 290.288C458.343 298.559 450.013 306.486 441.166 313.804C441.041 313.908 440.855 313.891 440.753 313.766C440.652 313.644 440.666 313.465 440.785 313.361L440.788 313.358C449.429 305.84 457.628 297.838 465.424 289.462L471.194 283.109C473.101 280.979 474.922 278.772 476.792 276.605C477.715 275.515 478.656 274.438 479.567 273.337L482.262 269.996L484.956 266.659C485.859 265.549 486.754 264.434 487.613 263.289L492.84 256.486C494.57 254.207 496.237 251.882 497.935 249.582C498.777 248.426 499.637 247.282 500.467 246.117L502.929 242.604L505.391 239.091C506.216 237.923 507.035 236.749 507.822 235.555C514.285 226.113 520.371 216.419 526.361 206.671C538.268 187.123 549.162 166.971 559.414 146.506C564.525 136.262 569.432 125.919 574.144 115.486C576.507 110.275 578.822 105.039 581.072 99.7753C582.187 97.1418 583.299 94.5025 584.379 91.8545L585.979 87.871L586.757 85.872C587.001 85.2114 587.271 84.519 587.468 83.9019L587.489 83.8382C587.535 83.6876 587.7 83.6035 587.851 83.6499C588.002 83.6992 588.087 83.8585 588.043 84.0062Z" fill="#7D97F4"/>
<path d="M439.56 398.609C439.56 398.609 441.32 361.496 479.783 324.894C515.473 290.931 603.063 212.494 623.94 168.339C624.863 166.383 627.793 167.045 627.758 169.208C627.383 192.404 621.867 250.427 580.184 307.158C526.425 380.316 439.56 398.609 439.56 398.609Z" fill="#BDD0FB"/>
<path d="M609.286 209.498C608.493 214.57 607.07 219.527 605.38 224.374C605.171 224.981 604.974 225.594 604.756 226.198L604.068 227.996L602.686 231.595L601.156 235.133C600.633 236.308 600.16 237.507 599.568 238.647C595.134 247.925 589.942 256.856 583.996 265.262C582.594 267.426 580.973 269.428 579.429 271.488C577.852 273.522 576.368 275.631 574.667 277.566L569.702 283.482C568.895 284.491 567.986 285.403 567.115 286.351L564.478 289.175L561.845 292L560.524 293.408L559.139 294.752L553.596 300.135C552.667 301.022 551.764 301.946 550.812 302.806L547.96 305.393L542.258 310.571L536.497 315.681C534.572 317.379 532.662 319.094 530.713 320.763C526.837 324.129 522.938 327.472 519.006 330.769C515.092 334.092 511.129 337.352 507.18 340.631L495.241 350.339C487.274 356.803 479.301 363.249 471.557 369.944C469.597 371.593 467.724 373.331 465.82 375.04C464.858 375.884 463.956 376.787 463.035 377.671C462.121 378.563 461.183 379.433 460.288 380.345C458.543 382.205 456.726 384.007 455.114 385.986L453.869 387.437C453.665 387.684 453.445 387.918 453.253 388.17L452.684 388.938L450.396 392.006L450.387 392.018C450.292 392.148 450.106 392.174 449.978 392.078C449.853 391.986 449.824 391.812 449.908 391.682C452.739 387.376 456.029 383.39 459.545 379.632C460.425 378.691 461.345 377.796 462.245 376.874C463.151 375.962 464.04 375.029 464.986 374.16C466.859 372.395 468.703 370.599 470.628 368.901C478.261 362.012 486.191 355.491 494.056 348.908C501.928 342.332 509.802 335.77 517.601 329.121C525.409 322.481 533.106 315.719 540.751 308.899L546.439 303.73L549.281 301.149C550.231 300.289 551.131 299.385 552.057 298.507L557.58 293.199L558.959 291.872L560.277 290.485L562.905 287.701C570.007 280.359 576.473 272.433 582.509 264.211C588.584 256.004 593.923 247.258 598.522 238.142C599.138 237.02 599.629 235.841 600.189 234.695L601.829 231.231L603.325 227.703L604.071 225.937C604.306 225.344 604.521 224.743 604.75 224.146C605.189 222.947 605.668 221.76 606.077 220.55L607.276 216.908C607.999 214.458 608.746 212.003 609.213 209.488L609.254 209.457L609.286 209.498Z" fill="#91B3FA"/>
<path d="M161.865 313.749C161.865 313.749 124.581 156.666 47.3091 70.9662C42.1147 65.2067 32.5964 67.426 30.5453 74.9006C16.8291 124.876 -9.49303 276.474 161.865 313.749Z" fill="#BDD0FB"/>
<path d="M146.183 303.62C146.568 303.994 146.059 304.588 145.628 304.269C129.729 292.469 68.262 234.493 45.573 118.963C45.5004 118.592 46.0472 118.45 46.152 118.812C53.8684 145.593 85.4149 244.343 146.183 303.62Z" fill="#91B3FA"/>
<path d="M150.663 193.389C150.663 193.389 165.526 80.3501 136.048 4.43367C134.066 -0.671082 127.224 -1.58655 123.992 2.83447C102.375 32.3997 46.8965 125.902 150.663 193.389Z" fill="#91B3FA"/>
<path d="M142.855 182.777C143.014 183.121 142.529 183.385 142.325 183.066C134.794 171.297 108.782 117.639 122.838 35.6879C122.883 35.4243 123.28 35.4677 123.258 35.7343C121.622 55.3449 117.632 128.437 142.855 182.777Z" fill="#7D97F4"/>
<path d="M1.20238 241.58C0.459366 241.122 0.845535 239.979 1.71369 240.073C15.5725 241.57 65.9507 250.09 103.753 296.496C138.34 338.957 155.635 374.4 161.535 387.843C162.702 390.502 160.57 393.431 157.676 393.145C140.521 391.441 92.7381 384.161 72.7505 355.059C48.8658 320.285 36.6643 263.431 1.20238 241.58Z" fill="#BDD0FB"/>
<path d="M105.182 323.709C104.302 322.715 103.424 321.727 102.537 320.734L105.139 320.708L105.182 323.709Z" fill="#DEE8FD"/>
<path d="M527.118 391.34H113.698C109.494 391.34 106.053 387.91 106.053 383.72L106.005 380.4L105.182 323.709L105.139 320.708L115.594 320.606L116.435 376.408C116.435 380.377 119.69 383.625 123.668 383.625H519.982C523.959 383.625 527.214 380.377 527.214 376.408L532.975 147.335C533.068 143.635 531.625 140.06 528.997 137.447C526.459 134.92 523.022 133.504 519.444 133.504C519.325 133.504 519.203 133.504 519.081 133.51L131.848 143.875C131.657 143.867 131.464 143.864 131.267 143.864C124.33 143.864 113.561 148.612 113.189 161.204L113.531 183.875L103.155 184.05L102.726 154.444L102.613 146.662C102.613 142.621 107.213 134.868 115.672 134.868C115.987 134.868 116.307 134.88 116.632 134.903L446.293 126.391L520.673 124.47C520.838 124.465 521.006 124.465 521.172 124.465C525.44 124.465 529.566 125.876 532.92 128.445C533.573 128.947 534.194 129.488 534.784 130.076C536.366 131.647 537.644 133.463 538.581 135.433C539.862 138.122 540.512 141.097 540.44 144.13L537.452 270.251L536.445 312.729L536.372 315.791L535.507 352.33L534.763 383.72C534.763 387.91 531.323 391.34 527.118 391.34Z" fill="#6564C4"/>
<path d="M519.983 383.624H123.669C119.691 383.624 116.436 380.377 116.436 376.408L115.595 320.606L134.107 320.424C134.09 342.28 134.017 359.291 133.896 364.469C133.751 370.695 140.042 372.754 154.892 372.754C156.862 372.754 158.986 372.72 161.262 372.653C178.149 372.149 431.823 371.425 498.012 371.242C506.769 371.219 513.923 364.289 514.196 355.554C515.108 326.221 517.091 262.435 518.287 223.715C519.84 173.497 516.754 149.673 501.867 149.673C501.478 149.673 501.075 149.69 500.665 149.722C493.584 150.295 218.54 156.356 185.942 157.889C153.343 159.419 132.111 161.97 133.134 175.573C133.235 176.916 133.327 179.663 133.412 183.54L113.532 183.875L113.19 161.204C113.562 148.612 124.331 143.864 131.268 143.864C131.465 143.864 131.658 143.867 131.849 143.875L519.083 133.509C519.204 133.504 519.326 133.504 519.445 133.504C523.023 133.504 526.46 134.92 528.998 137.447C531.626 140.06 533.069 143.635 532.976 147.335L527.215 376.408C527.215 380.377 523.96 383.624 519.983 383.624Z" fill="#FF7542"/>
<path d="M120.719 273.696C120.4 273.696 120.14 273.441 120.135 273.122L119.878 255.669C119.874 255.347 120.131 255.082 120.454 255.077H120.462C120.781 255.077 121.042 255.332 121.047 255.652L121.303 273.105C121.308 273.426 121.05 273.69 120.728 273.696H120.719Z" fill="white"/>
<path d="M120.089 230.928C119.77 230.928 119.51 230.672 119.505 230.353L118.521 163.51C118.541 159.045 119.92 155.478 122.618 152.9C127.526 148.207 135.208 148.441 135.533 148.456L259.193 145.144C259.521 145.127 259.785 145.388 259.794 145.712C259.802 146.034 259.547 146.3 259.225 146.309L135.53 149.62C135.185 149.609 127.982 149.386 123.426 153.743C120.965 156.096 119.708 159.378 119.69 163.504L120.673 230.336C120.678 230.658 120.42 230.923 120.097 230.928H120.089Z" fill="white"/>
<path d="M154.892 372.754C140.042 372.754 133.751 370.695 133.896 364.469C134.017 359.292 134.089 342.28 134.106 320.424L150.084 320.264V362.31H168.147V320.088L180.266 319.966V362.31H198.33V319.789L210.449 319.67V362.31H228.513V265.097L232.521 196.32C232.972 188.59 226.951 182.092 219.4 182.092C219.327 182.092 219.252 182.092 219.178 182.094L133.411 183.54C133.327 179.663 133.235 176.916 133.134 175.573C132.111 161.97 153.343 159.419 185.941 157.889C218.54 156.356 493.583 150.295 500.665 149.722C501.074 149.69 501.478 149.673 501.867 149.673C516.753 149.673 519.84 173.497 518.286 223.715C517.09 262.435 515.107 326.221 514.195 355.554C513.923 364.289 506.768 371.219 498.011 371.242C431.822 371.425 178.149 372.149 161.261 372.653C158.985 372.72 156.862 372.754 154.892 372.754ZM482.094 286.997V362.31H500.157V286.997H482.094ZM451.912 336.714V362.31H469.975V336.714H451.912ZM421.73 258.658V362.31H439.793V258.658H421.73ZM391.545 236.065V362.31H409.61V236.065H391.545ZM361.363 221.131V362.31H379.425V221.131H361.363ZM331.18 297.334V362.31H349.243V297.334H331.18ZM300.998 278.189V362.31H319.061V278.189H300.998ZM270.816 260.573V362.31H288.879V260.573H270.816ZM240.632 334.095V362.31H258.697V334.095H240.632Z" fill="#FF9A75"/>
<path d="M566.123 403.438H83.0766C81.878 403.438 80.8975 402.462 80.8975 401.265V384.783C80.8975 383.59 81.878 382.61 83.0766 382.61H566.123C567.322 382.61 568.303 383.59 568.303 384.783V401.265C568.303 402.462 567.322 403.438 566.123 403.438Z" fill="#6564C4"/>
<path d="M168.147 362.31H150.083V320.264L168.147 320.088V362.31Z" fill="url(#paint1_linear)"/>
<path d="M198.33 362.31H180.266V319.966L198.33 319.789V362.31Z" fill="url(#paint2_linear)"/>
<path d="M228.513 362.31H210.449V319.67L214.638 319.627C220.665 319.569 225.619 314.754 225.977 308.609L228.513 265.097V362.31Z" fill="url(#paint3_linear)"/>
<path d="M240.632 362.31H258.697V334.095H240.632V362.31Z" fill="url(#paint4_linear)"/>
<path d="M270.816 362.31H288.879V260.573H270.816V362.31Z" fill="url(#paint5_linear)"/>
<path d="M300.998 362.31H319.061V278.189H300.998V362.31Z" fill="url(#paint6_linear)"/>
<path d="M331.181 362.31H349.243V297.334H331.181V362.31Z" fill="url(#paint7_linear)"/>
<path d="M361.363 362.31H379.426V221.131H361.363V362.31Z" fill="url(#paint8_linear)"/>
<path d="M391.545 362.31H409.611V236.065H391.545V362.31Z" fill="url(#paint9_linear)"/>
<path d="M421.73 362.31H439.793V258.658H421.73V362.31Z" fill="url(#paint10_linear)"/>
<path d="M451.912 362.31H469.975V336.714H451.912V362.31Z" fill="url(#paint11_linear)"/>
<path d="M482.094 362.31H500.157V286.997H482.094V362.31Z" fill="url(#paint12_linear)"/>
<path d="M29.0594 185.299L219.178 182.093C226.832 181.965 232.976 188.515 232.521 196.32L225.977 308.609C225.619 314.754 220.665 319.569 214.638 319.627L31.888 321.432C27.3739 321.475 23.6446 317.845 23.4727 313.236L19.1003 196.043C18.884 190.243 23.3777 185.395 29.0594 185.299Z" fill="#7D97F4"/>
<path d="M22.2744 198.381C22.0636 192.863 26.4404 188.251 31.9736 188.16L217.13 185.11C224.585 184.987 230.568 191.219 230.125 198.645L223.752 305.477C223.403 311.324 218.578 315.904 212.708 315.962L34.7282 317.677C30.3323 317.718 26.7002 314.264 26.5327 309.881L22.2744 198.381Z" fill="#91B3FA"/>
<path d="M26.2003 201.575C25.9997 196.321 30.1674 191.929 35.4364 191.842L211.749 188.938C218.848 188.821 224.545 194.755 224.124 201.827L218.055 303.557C217.722 309.125 213.129 313.485 207.539 313.54L38.0595 315.174C33.8732 315.212 30.4145 311.924 30.2554 307.749L26.2003 201.575Z" fill="#BDD0FB"/>
<path d="M217.558 185.021L31.6254 188.084C26.0686 188.176 21.6739 192.807 21.8852 198.348L22.1858 206.208H230.154L230.607 198.614C231.052 191.157 225.043 184.898 217.558 185.021Z" fill="#7D97F4"/>
<path d="M35.8005 193.552C34.8769 193.552 34.1284 192.805 34.1284 191.883C34.1284 190.962 34.8769 190.215 35.8005 190.215C36.7242 190.215 37.4727 190.962 37.4727 191.883C37.4727 192.805 36.7242 193.552 35.8005 193.552Z" fill="url(#paint13_linear)"/>
<path d="M35.8005 198.441C34.8769 198.441 34.1284 197.694 34.1284 196.773C34.1284 195.851 34.8769 195.104 35.8005 195.104C36.7242 195.104 37.4727 195.851 37.4727 196.773C37.4727 197.694 36.7242 198.441 35.8005 198.441Z" fill="url(#paint14_linear)"/>
<path d="M35.8005 203.331C34.8769 203.331 34.1284 202.584 34.1284 201.662C34.1284 200.741 34.8769 199.993 35.8005 199.993C36.7242 199.993 37.4727 200.741 37.4727 201.662C37.4727 202.584 36.7242 203.331 35.8005 203.331Z" fill="url(#paint15_linear)"/>
<path d="M93.5527 248.039C93.5527 262.643 81.6866 274.484 67.0493 274.484C52.4117 274.484 40.5459 262.643 40.5459 248.039C40.5459 233.434 52.4117 221.594 67.0493 221.594C81.6866 221.594 93.5527 233.434 93.5527 248.039Z" fill="url(#paint16_linear)"/>
<path d="M72.8921 248.039C72.8921 251.259 70.2764 253.87 67.0491 253.87C63.8221 253.87 61.2061 251.259 61.2061 248.039C61.2061 244.819 63.8221 242.209 67.0491 242.209C70.2764 242.209 72.8921 244.819 72.8921 248.039Z" fill="#7D97F4"/>
<path d="M81.2548 257.59C78.1907 262.078 73.0291 265.025 67.1761 265.025C57.7739 265.025 50.1522 257.421 50.1522 248.039C50.1522 238.658 57.7739 231.053 67.1761 231.053C67.4642 231.053 67.7502 231.06 68.0347 231.074V226.769C67.7499 226.757 67.4639 226.75 67.1761 226.75C55.3925 226.75 45.8398 236.281 45.8398 248.039C45.8398 259.797 55.3925 269.33 67.1761 269.33C74.4657 269.33 80.9005 265.679 84.7492 260.114L81.2548 257.59Z" fill="#91B3FA"/>
<path d="M113.801 227.928C113.787 230.068 112.037 231.791 109.892 231.777C107.747 231.763 106.02 230.016 106.034 227.876C106.048 225.736 107.798 224.013 109.943 224.027C112.088 224.041 113.815 225.787 113.801 227.928Z" fill="#7D97F4"/>
<path d="M106.457 227.696C106.466 227.548 106.484 227.403 106.51 227.261L106.457 227.696Z" fill="url(#paint17_linear)"/>
<path d="M113.801 251.418C113.787 253.558 112.037 255.281 109.892 255.267C107.747 255.254 106.02 253.507 106.034 251.367C106.048 249.227 107.798 247.504 109.943 247.518C112.088 247.531 113.815 249.278 113.801 251.418Z" fill="#7D97F4"/>
<path d="M106.457 251.186C106.466 251.039 106.484 250.894 106.51 250.752L106.457 251.186Z" fill="url(#paint18_linear)"/>
<path d="M113.801 274.91C113.787 277.048 112.037 278.772 109.892 278.757C107.747 278.743 106.02 276.999 106.034 274.858C106.048 272.717 107.798 270.993 109.943 271.007C112.088 271.022 113.815 272.769 113.801 274.91Z" fill="#7D97F4"/>
<path d="M106.457 274.678C106.466 274.53 106.484 274.385 106.51 274.243L106.457 274.678Z" fill="url(#paint19_linear)"/>
<path d="M119.775 227.726L119.793 228.386C119.841 230.172 120.96 231.59 122.326 231.597L197.891 231.754C199.302 231.762 200.448 230.266 200.446 228.42C200.443 226.609 199.336 225.133 197.952 225.097L122.37 224.28C120.909 224.241 119.723 225.816 119.775 227.726Z" fill="#91B3FA"/>
<path d="M119.775 251.102L119.793 251.762C119.841 253.549 120.96 254.966 122.326 254.973L197.891 255.131C199.302 255.137 200.448 253.641 200.446 251.796C200.443 249.986 199.336 248.509 197.952 248.473L122.37 247.656C120.909 247.617 119.723 249.192 119.775 251.102Z" fill="#91B3FA"/>
<path d="M119.775 274.478L119.793 275.139C119.841 276.923 120.96 278.343 122.326 278.349L197.891 278.505C199.302 278.514 200.448 277.016 200.446 275.171C200.443 273.363 199.336 271.885 197.952 271.848L122.37 271.031C120.909 270.993 119.723 272.569 119.775 274.478Z" fill="#91B3FA"/>
<path d="M209.826 298.072C210.124 295.277 207.901 292.855 205.084 292.904L42.8677 295.775C40.0187 295.827 37.8742 298.379 38.3239 301.187L39.0394 305.651C39.4037 307.928 41.3752 309.6 43.6844 309.588L204.471 308.96C206.86 308.951 208.859 307.149 209.112 304.779L209.826 298.072Z" fill="#91B3FA"/>
<path d="M53.2558 404.736C53.257 404.655 53.2515 404.577 53.2311 404.496C52.0282 399.736 46.0577 396.772 46.0577 396.772L43.6919 396.957C42.3313 401.152 42.5063 403.725 42.7244 404.869C42.7305 404.901 42.7404 404.933 42.7488 404.962C44.7008 405.136 48.7179 405.252 53.2558 404.736Z" fill="#2D2D9A"/>
<path d="M42.7485 404.962C42.8542 405.344 43.137 405.643 43.4994 405.718C46.2757 406.303 50.6885 405.834 52.5412 405.591C52.9498 405.538 53.2485 405.162 53.2555 404.736C48.7176 405.252 44.7006 405.136 42.7485 404.962Z" fill="#BDD0FB"/>
<path d="M33.3794 320.496C31.9183 322.052 29.7668 323.396 28.2529 324.236C30.5136 327.023 33.5731 329.816 37.6235 332.551L38.7826 335.147L42.4965 330.706C42.4965 330.706 35.8323 327.394 33.3794 320.496Z" fill="url(#paint20_linear)"/>
<path d="M42.7402 393.44L43.7422 398.255C43.8157 398.605 44.0872 398.872 44.4161 398.901C44.8189 398.939 45.392 398.962 45.9686 398.878C46.4858 398.8 46.8455 398.278 46.754 397.713L46.0575 393.44H42.7402Z" fill="url(#paint21_linear)"/>
<path d="M63.5021 404.916C60.8892 404.84 59.5376 404.533 58.839 404.249C58.8373 404.51 58.8387 404.774 58.8472 405.046C58.8562 405.339 59.0731 405.57 59.3396 405.57L73.6865 405.478C74.1441 405.475 74.4118 404.945 74.2134 404.525C72.3323 404.681 67.5415 405.029 63.5021 404.916Z" fill="#BDD0FB"/>
<path d="M74.2133 404.525C74.1959 404.49 74.1811 404.452 74.1564 404.417C72.8896 402.65 69.6623 399.133 63.2856 397.609L60.2265 397.51C60.2265 397.51 58.8644 399.875 58.8389 404.249C59.5375 404.533 60.889 404.84 63.5019 404.916C67.5413 405.029 72.3321 404.681 74.2133 404.525Z" fill="#2D2D9A"/>
<path d="M59.6602 392.887C59.6941 393.113 60.1134 396.572 60.2757 397.91C60.3143 398.232 60.5454 398.478 60.837 398.513C61.3581 398.574 62.201 398.632 62.9385 398.478C63.3363 398.397 63.6243 398.018 63.6243 397.574V392.145L59.6602 392.887Z" fill="url(#paint22_linear)"/>
<path d="M57.2051 329.779C57.2051 329.779 64.5833 357.759 64.4497 392.965C64.4474 393.608 63.9956 394.161 63.3661 394.295C62.4384 394.489 61.0746 394.72 59.9457 394.689C59.3433 394.671 58.8392 394.225 58.7382 393.634C57.7033 387.579 51.7665 353.477 48.3836 347.941C48.3836 347.941 46.1583 378.314 46.8694 394.071C46.8871 394.463 46.5997 394.804 46.2092 394.848C45.6168 394.917 44.6694 394.97 43.4633 394.839C43.0054 394.793 42.6361 394.445 42.5707 393.993C41.8338 388.868 37.5924 358.373 37.7727 336.404C37.7828 335.164 41.0563 329.779 41.0563 329.779H57.2051Z" fill="#2D2D9A"/>
<path d="M81.3319 269.53C78.0931 275.544 72.7169 281.683 63.9697 283.329C55.8945 284.847 41.394 286.724 35.5654 287.457C33.8126 287.677 32.2093 288.538 31.0542 289.873C26.4734 295.161 16.4216 309.643 28.2532 324.236C29.7671 323.396 31.9186 322.052 33.3797 320.496C32.0708 316.814 31.9636 312.109 34.7069 306.341C34.8004 306.798 34.9165 307.25 35.0573 307.697C38.8383 319.647 39.0401 329.593 39.0314 331.885C39.0302 332.198 39.2175 332.479 39.5073 332.592C44.4833 334.582 54.062 333.397 57.2777 332.919C57.8671 332.832 58.264 332.285 58.1824 331.696C56.6041 320.287 64.7032 301.523 66.8422 296.821C67.1555 296.134 67.7066 295.581 68.3962 295.271C80.629 289.749 85.9471 281.249 88.103 273.592C86.238 271.094 83.3476 270.002 81.3319 269.53Z" fill="#6564C4"/>
<path d="M88.1036 273.592C90.7167 264.312 88.6843 256.268 88.6843 256.268H85.8974C85.8974 256.268 84.9439 262.823 81.3325 269.53C83.3482 270.002 86.2386 271.094 88.1036 273.592Z" fill="url(#paint23_linear)"/>
<path d="M86.8774 257.749C86.8774 257.749 82.6346 252.265 84.0134 249.409C85.3923 246.552 90.1178 246.83 90.1178 246.83L90.7806 249.069C90.9549 249.657 90.9313 250.287 90.7136 250.861L88.1027 257.749H86.8774Z" fill="url(#paint24_linear)"/>
<path d="M44.1666 276.48L43.2075 286.258C43.2075 286.258 48.7196 287.915 52.7288 285.093L49.9106 276.208L44.1666 276.48Z" fill="url(#paint25_linear)"/>
<path d="M50.5624 265.338C50.6951 265.462 56.1613 276.173 56.1613 276.173L49.9658 279.157L43.2734 269.773C43.2734 269.773 48.3415 263.252 50.5624 265.338Z" fill="url(#paint26_linear)"/>
<path d="M46.014 270.034C45.9034 270.318 45.9307 270.636 46.0883 270.9L49.1783 276.039C49.2253 276.118 49.2811 276.187 49.3478 276.251C49.7157 276.59 50.9744 277.587 51.9471 276.234C52.7763 275.081 53.5545 274.032 54.3881 273.597C54.875 273.345 55.4743 273.548 55.7214 274.038C56.2307 275.043 57.2167 277.097 57.836 279.041C57.9914 279.531 57.739 280.055 57.2637 280.246C56.0091 280.753 53.5298 281.669 51.3295 281.973C50.968 282.022 50.6103 281.871 50.3951 281.576C49.4486 280.284 46.7805 276.665 45.87 275.761C45.0239 274.921 43.4627 275.237 42.7591 275.44C42.492 275.515 42.2078 275.48 41.9697 275.335C41.256 274.907 40.0101 273.838 41.1497 272.03C41.4331 271.581 41.2885 270.981 40.844 270.689C40.047 270.167 39.182 269.185 40.006 267.594C40.8402 265.984 42.3297 265.842 43.3439 265.963C43.7928 266.018 44.2484 265.784 44.4208 265.367C44.4972 265.181 44.6488 265.022 44.9307 264.967C45.4623 264.86 45.8113 264.373 45.7068 263.843C45.528 262.93 45.6627 261.748 47.1203 260.948C49.7935 259.482 52.1352 261.873 52.7305 263.889C53.326 265.905 50.3371 267.331 48.457 267.568C47.0758 267.745 46.3186 269.249 46.014 270.034Z" fill="#2D2D9A"/>
<path d="M47.0309 277.65C47.0309 277.65 45.8422 274.18 44.3207 274.307C42.799 274.435 41.6016 275.947 43.4871 277.648C45.8329 279.762 47.0309 277.65 47.0309 277.65Z" fill="url(#paint27_linear)"/>
<path d="M34.2051 305.445C32.1994 299.97 32.927 293.356 32.9345 293.289L33.4871 293.353C33.4798 293.42 32.7676 299.903 34.7275 305.257L34.2051 305.445Z" fill="url(#paint28_linear)"/>
<path d="M48.1129 347.228C47.9892 347.228 47.8763 347.144 47.8438 347.019C47.232 344.664 42.6502 342.077 42.6041 342.051C42.4702 341.976 42.4223 341.807 42.4975 341.671C42.573 341.538 42.7417 341.492 42.8761 341.567C43.0733 341.677 47.7114 344.296 48.3824 346.88C48.421 347.028 48.3316 347.179 48.1829 347.216L48.1129 347.228Z" fill="url(#paint29_linear)"/>
<path d="M450.82 133.037C450.248 124.233 444.917 116.431 436.926 112.644L333.415 63.5901C326.787 60.4497 319.092 60.4497 312.464 63.5901L208.953 112.644C200.963 116.431 195.633 124.233 195.062 133.037C185.353 282.79 281.585 337.354 313.131 351.139C319.386 353.871 326.493 353.871 332.751 351.139C364.297 337.354 460.529 282.79 450.82 133.037Z" fill="#6564C4"/>
<path d="M291.632 84.2496C291.083 84.2496 290.561 83.9425 290.311 83.4152C289.962 82.688 290.273 81.8189 291.002 81.4741L315.461 69.8827C316.19 69.538 317.061 69.8479 317.407 70.5751C317.752 71.3023 317.444 72.1714 316.716 72.5162L292.256 84.1076C292.053 84.2032 291.841 84.2496 291.632 84.2496Z" fill="white"/>
<path d="M291.632 84.2496C291.083 84.2496 290.561 83.9425 290.311 83.4152C289.962 82.688 290.273 81.8189 291.002 81.4741L315.461 69.8827C316.19 69.538 317.061 69.8479 317.407 70.5751C317.752 71.3023 317.444 72.1714 316.716 72.5162L292.256 84.1076C292.053 84.2032 291.841 84.2496 291.632 84.2496Z" fill="#5555CE" fill-opacity="0.08"/>
<path d="M202.979 165.078C202.195 165.078 201.546 164.457 201.52 163.669C201.192 153.928 201.364 143.774 202.031 133.489C202.437 127.22 206.238 121.643 211.949 118.937L281.583 85.9386C282.312 85.5939 283.183 85.9039 283.528 86.6282C283.874 87.3582 283.566 88.2274 282.837 88.5721L213.203 121.57C208.448 123.824 205.284 128.463 204.946 133.678C204.286 143.867 204.115 153.926 204.439 163.571C204.467 164.376 203.835 165.05 203.029 165.077L202.979 165.078Z" fill="white"/>
<path d="M202.979 165.078C202.195 165.078 201.546 164.457 201.52 163.669C201.192 153.928 201.364 143.774 202.031 133.489C202.437 127.22 206.238 121.643 211.949 118.937L281.583 85.9386C282.312 85.5939 283.183 85.9039 283.528 86.6282C283.874 87.3582 283.566 88.2274 282.837 88.5721L213.203 121.57C208.448 123.824 205.284 128.463 204.946 133.678C204.286 143.867 204.115 153.926 204.439 163.571C204.467 164.376 203.835 165.05 203.029 165.077L202.979 165.078Z" fill="#5555CE" fill-opacity="0.08"/>
<path d="M425.789 138.884C425.673 136.65 424.343 134.657 422.317 133.698L325.554 87.842C323.899 87.0598 321.982 87.0598 320.33 87.842L223.565 133.698C221.54 134.657 220.209 136.65 220.094 138.884C217.233 194.746 230.164 241.356 258.558 277.482C280.203 305.022 305.528 319.783 320.365 326.67C322 327.429 323.881 327.429 325.516 326.67C340.356 319.783 365.677 305.022 387.326 277.482C415.717 241.356 428.649 194.746 425.789 138.884Z" fill="#C5CAE9"/>
<path d="M294.328 198.902H284.686V160.554C284.686 145.492 295.986 132.765 310.971 130.946L330.689 128.555C339.176 127.527 347.715 130.181 354.115 135.836C360.514 141.494 364.187 149.632 364.187 158.164V191.641H354.541V158.164C354.541 152.384 352.056 146.871 347.721 143.041C343.386 139.208 337.599 137.412 331.853 138.107L312.133 140.5C301.985 141.729 294.328 150.35 294.328 160.554V198.902Z" fill="#FF7542"/>
<path d="M281.835 190.292L366.374 185.619C369.809 185.429 372.698 188.156 372.698 191.587V258.413C372.698 261.716 370.015 264.39 366.705 264.39H284.198C280.964 264.39 278.316 261.832 278.208 258.608L276.179 196.456C276.071 193.209 278.583 190.472 281.835 190.292Z" fill="#FF7542"/>
<path d="M338.218 245.247L333.102 230.569C332.486 228.805 332.904 226.831 334.22 225.501C336.842 222.85 338.404 219.154 338.221 215.093C337.893 207.933 332.03 202.128 324.853 201.853C316.909 201.548 310.373 207.883 310.373 215.742C310.373 220.102 312.385 223.991 315.536 226.538C317.167 227.86 317.838 230.031 317.147 232.013L312.533 245.247C311.413 248.466 313.808 251.828 317.222 251.828H333.529C336.946 251.828 339.339 248.466 338.218 245.247Z" fill="#E63E00"/>
<path d="M468.343 243.294C468.343 243.294 471.932 245.036 472.594 247.037C473.122 248.642 477.091 248.849 477.483 252.007C477.683 253.637 478.894 254.942 480.52 255.192C484.574 255.811 490.819 257.911 491.821 264.932C492.581 270.292 489.843 272.325 486.972 273.027C484.861 273.545 483.459 275.593 483.885 277.72C484.295 279.76 483.682 282.115 480.143 283.981C472.207 288.158 464.284 274.084 464.284 274.084L462.661 249.508L468.343 243.294Z" fill="#2D2D9A"/>
<path d="M430.995 230.334C430.995 230.334 441.204 258.105 458.602 266.786C458.602 266.786 452.809 276.211 449.79 276.784C449.79 276.784 431.204 253.05 429.311 233.606L430.995 230.334Z" fill="url(#paint30_linear)"/>
<path d="M500.959 397.386L501.473 401.598C501.569 402.398 502.199 403.03 503 403.122C504.356 403.276 506.525 403.432 508.651 403.209C509.583 403.111 510.189 402.169 509.905 401.277C509.388 399.652 508.439 397.209 507.074 395.775H502.39C501.525 395.775 500.854 396.531 500.959 397.386Z" fill="#2D2D9A"/>
<path d="M464.284 348.051L463.494 352.689C463.494 352.689 466.139 379.438 466.612 390.137C466.685 391.815 466.249 393.472 465.367 394.903L460.765 402.36L472.46 395.474L472.695 394.048L470.779 391.421L473.288 361.456C473.436 359.697 473.07 357.93 472.24 356.371L469.821 351.837L464.284 348.051Z" fill="url(#paint31_linear)"/>
<path d="M459.995 403.438H463.726C464.426 403.438 465.085 403.119 465.512 402.566C466.676 401.057 469.086 398.116 470.239 398.038C471.789 397.934 471.592 403.438 471.592 403.438H472.46L473.564 396.598C473.839 394.877 472.983 393.174 471.435 392.368C471.435 392.368 471.078 394.984 469.156 396.143C467.231 397.299 461.328 401.445 461.328 401.445C461.328 401.445 460.605 401.343 459.812 401.485C458.633 401.7 458.799 403.438 459.995 403.438Z" fill="#2D2D9A"/>
<path d="M480.303 350.252C480.303 350.252 495.808 379.6 498.273 386.299C500.738 393 501.6 398.588 501.635 399.118C501.687 399.944 502.718 400.738 505.558 400.738C507.024 400.738 507.744 400.153 508.095 399.585C508.394 399.101 508.412 398.493 508.159 397.983C507.262 396.172 504.414 390.384 503.36 387.759C502.102 384.624 499.396 370.422 497.91 365.483C496.426 360.546 494.748 355.186 488.282 350.252C488.282 350.252 483.842 345.915 480.303 350.252Z" fill="url(#paint32_linear)"/>
<path d="M470.509 302.169C466.511 285.258 476.641 275.695 476.641 275.695C470.247 269.57 458.601 266.786 458.601 266.786C458.601 266.786 447.487 274.892 448.805 281.24C449.577 284.96 456.615 303.519 456.615 303.519C456.615 303.519 463.125 306.593 470.509 302.169Z" fill="#6564C4"/>
<path d="M479.376 310.542C477.747 305.648 470.508 302.169 470.508 302.169C463.125 306.593 456.615 303.519 456.615 303.519C456.615 303.519 455.157 309.087 456.165 314.261C457.173 319.436 463.494 352.689 463.494 352.689C473.453 354.703 488.775 350.664 488.775 350.664C482.428 339.423 481.005 315.432 479.376 310.542Z" fill="#6564C4"/>
<path d="M465.866 255.611L469.118 270.185C469.429 271.468 468.256 271.256 466.955 271.013C464.827 270.613 462.08 269.788 461.163 268.133C461.07 267.965 461.023 267.774 460.997 267.583L459.601 257.478C459.49 256.677 459.923 255.899 460.663 255.57L463.361 254.378C464.397 253.918 465.599 254.509 465.866 255.611Z" fill="url(#paint33_linear)"/>
<path d="M476.641 275.695C476.641 275.695 499.335 291.896 479.544 308.919C479.544 308.919 478.789 309.771 477.303 310.214C476.554 310.437 474.338 312.112 473.215 312.984C472.852 313.265 472.329 313.169 472.088 312.784C471.896 312.48 471.873 312.1 472.027 311.776L474.838 305.848C475.616 305.121 476.812 305.069 477.651 305.726C478.188 306.147 478.972 305.97 479.274 305.361C480.804 302.25 483.694 293.107 471.867 282.773C471.423 282.384 471.31 281.741 471.583 281.22C472.413 279.626 474.315 276.463 476.641 275.695Z" fill="url(#paint34_linear)"/>
<path d="M462.051 241.734C462.051 241.734 458.201 243.357 455.582 248.909C452.963 254.462 454.92 257.026 457.376 257.378C459.83 257.73 463.505 257.676 467.39 254.089C471.275 250.502 467.056 239.811 462.051 241.734Z" fill="url(#paint35_linear)"/>
<path d="M464.778 251.125C464.778 251.125 467.684 243.001 460.466 242.905L458.768 244.089C458.768 244.089 456.119 239.585 460.466 237.436C464.813 235.286 469.9 237.062 471.749 242.905C473.599 248.749 473.915 252.66 470.838 255.456C467.76 258.252 466.494 255.082 466.494 255.082C466.494 255.082 468.169 252.467 467.487 251.068C466.805 249.669 465.231 251.358 465.231 251.358L464.778 251.125Z" fill="#2D2D9A"/>
<path d="M465.588 252.03C465.588 252.03 467.057 247.845 469.017 249.512C470.977 251.178 467.423 253.377 466.032 254.089L465.588 252.03Z" fill="url(#paint36_linear)"/>
<path d="M430.014 235.389C429.86 235.883 431.663 236.635 432.726 234.614C432.761 233.646 433.353 229.497 432.772 228.708C429.683 224.505 423.693 219.238 423.693 219.238C422.683 220.234 423.516 221.213 423.516 221.213L426.419 224.233C425.813 225.329 425.072 226.254 424.724 227.579C424.462 228.583 424.622 229.656 425.13 230.569C425.641 231.486 426.335 232.678 426.994 233.61C428.24 235.375 430.014 235.389 430.014 235.389Z" fill="url(#paint37_linear)"/>
<path d="M428.521 233.326C428.304 232.111 427.636 228.793 427.177 228.046C426.852 227.519 426.747 227.079 426.855 226.699C426.945 226.38 427.174 226.129 427.557 225.933L427.732 225.845L430.586 228.259L431.445 230.561L430.896 230.764L430.092 228.605L427.662 226.549C427.528 226.642 427.447 226.743 427.415 226.856C427.357 227.068 427.444 227.365 427.673 227.741C428.286 228.734 429.064 233.041 429.096 233.224L428.521 233.326Z" fill="url(#paint38_linear)"/>
<path d="M552.842 402.665H549.268V362.481H552.842V402.665Z" fill="#7D97F4"/>
<path d="M566.7 403.438H535.408V401.847C535.408 401.39 535.78 401.022 536.239 401.022H565.805C566.299 401.022 566.7 401.419 566.7 401.911V403.438Z" fill="#7D97F4"/>
<path d="M572.617 361.059C572.617 363.301 570.779 365.135 568.535 365.135H534.889C532.645 365.135 530.807 363.301 530.807 361.059V357.376C530.807 355.134 532.645 353.303 534.889 353.303H568.535C570.779 353.303 572.617 355.134 572.617 357.376V361.059Z" fill="#7D97F4"/>
<path d="M519.383 389.323C519.383 389.323 507.836 394.289 508.498 399.484C508.498 399.484 520.434 397.198 522.571 393.793C524.708 390.389 523.532 388.416 523.532 388.416L519.383 389.323Z" fill="#2D2D9A"/>
<path d="M522.215 383.651L522.801 388.709C522.889 389.471 522.465 390.224 521.739 390.485C521.376 390.615 520.9 390.705 520.275 390.708C519.396 390.714 518.615 390.134 518.379 389.289L517.244 385.198L522.215 383.651Z" fill="url(#paint39_linear)"/>
<path d="M547.443 344.867C547.443 344.867 526.201 343.885 515.629 350.035C505.06 356.186 516.166 385.707 516.166 385.707C516.166 385.707 518.928 386.298 522.903 384.181C522.903 384.181 517.229 362.568 527.087 358.811C538.167 354.584 549.627 355.612 549.627 355.612L547.504 345.533L547.443 344.867Z" fill="#2D2D9A"/>
<path d="M510.819 397.203C513.235 396.676 520.398 393.715 521.487 393.753C522.572 393.793 524.114 395.419 524.114 395.419C524.114 395.419 524.381 396.308 523.603 397.586C521.757 399.02 517.782 401.659 513.159 401.946C509.759 402.158 507.712 400.81 506.542 399.501C507.567 398.504 509.21 397.554 510.819 397.203Z" fill="#2D2D9A"/>
<path d="M513.159 401.946C517.781 401.659 521.756 399.02 523.603 397.586C523.074 398.449 522.073 399.486 520.191 400.55C515.519 403.183 507.799 402.798 506.269 402.207C505.043 401.732 505.421 400.587 506.542 399.501C507.712 400.81 509.759 402.157 513.159 401.946Z" fill="#91B3FA"/>
<path d="M526.652 392.774C526.492 393.37 524.799 395.161 523.824 396.16C523.356 396.635 522.682 396.841 522.032 396.699C521.62 396.609 521.155 396.467 520.752 396.25C520.148 395.923 519.936 395.155 520.27 394.555L522.741 390.065L526.652 392.774Z" fill="url(#paint40_linear)"/>
<path d="M568.497 343.088C568.497 343.088 570.352 356.215 564.989 358.898C559.629 361.58 547.87 363.336 543.82 370.144C539.769 376.953 532.493 390.314 525.873 394.153C525.873 394.153 522.093 392.927 520.989 391.07C520.989 391.07 528.846 370.46 532.124 365.451C534.964 361.111 539.113 354.862 545.013 352.159C546.7 351.385 546.833 349.598 546.534 347.767L545.994 344.435L568.497 343.088Z" fill="#2D2D9A"/>
<path d="M518.806 328.208C526.324 330.349 529.689 309.244 529.657 308.731L541.181 322.173C541.181 322.173 534.314 334.231 523.946 335.515C521.324 335.839 519.091 335.384 517.221 334.53C518.6 332.276 518.914 330.051 518.806 328.208Z" fill="#6564C4"/>
<path d="M504.887 321.302C508.162 319.957 510.943 322.637 510.943 322.637C514.19 325.954 516.762 327.626 518.806 328.208C518.914 330.051 518.6 332.276 517.221 334.53C513.17 332.679 510.81 328.935 509.837 327.07C509.486 326.398 508.667 326.111 507.982 326.441C507.288 326.777 506.571 327.287 506.527 327.982C506.44 329.35 504.805 329.431 504.797 328.927C504.788 328.42 506.06 325.717 506.06 325.717C506.06 325.717 502.297 328.124 500.831 329.046C499.367 329.97 498.119 328.449 498.119 328.449C498.119 328.449 501.612 322.643 504.887 321.302Z" fill="url(#paint41_linear)"/>
<path d="M565.603 300.045C565.603 300.045 555.501 293.167 531.106 305.605C531.106 305.605 528.595 308.78 529.77 312.364C530.946 315.945 545.432 335.332 545.995 344.435C545.995 344.435 555.896 350.25 568.75 344.484C568.75 344.484 573.059 320.453 565.603 300.045Z" fill="#6564C4"/>
<path d="M544.569 291.252L548.558 299.057C548.956 299.834 548.872 300.77 548.329 301.45C547.231 302.824 544.935 304.672 541.018 303.481C539.854 303.128 538.962 302.18 538.683 300.998L536.613 292.287L544.569 291.252Z" fill="url(#paint42_linear)"/>
<path d="M573.082 327.296C573.764 322.553 561.201 313.358 561.201 313.358L565.602 300.045C565.602 300.045 589.577 317.115 584.533 331.056C583.813 333.055 582.733 334.512 581.421 335.544C578.88 330.349 575.437 328.191 573.082 327.296Z" fill="#6564C4"/>
<path d="M555.553 328.614C555.553 328.614 569.766 332.574 572.716 328.258C572.913 327.965 573.032 327.643 573.082 327.296C575.436 328.191 578.88 330.349 581.421 335.544C574.67 340.843 561.659 334.903 558.126 333.125C557.545 332.829 556.874 332.774 556.253 332.968C554.996 333.359 552.818 333.968 551.601 333.901C549.827 333.803 547.92 340.205 544.897 338.586C544.897 338.586 546.27 327.643 555.553 328.614Z" fill="url(#paint43_linear)"/>
<path d="M536.237 279.16C536.237 279.16 532.514 285.331 531.87 288.741C531.225 292.153 530.189 294.286 534.079 295.5C537.97 296.716 541.585 295.178 543.855 291.994C543.855 291.994 547.398 287.092 547.043 284.85C546.692 282.604 536.237 279.16 536.237 279.16Z" fill="url(#paint44_linear)"/>
<path d="M542.818 289.352L542.312 289.288C542.312 289.288 544.949 285.313 543.224 284.328C541.499 283.343 534.476 280.924 533.256 278.166C532.077 275.504 533.837 272.496 535.959 271.871C536.093 271.83 536.235 271.908 536.285 272.039L536.409 272.375C536.494 272.604 536.816 272.615 536.915 272.389C537.008 272.178 537.312 272.169 537.408 272.38C537.786 273.206 538.912 274.62 542.289 275.712C547.083 277.262 550.07 279.673 549.702 283.071C549.678 283.288 549.893 283.436 550.091 283.349C550.483 283.175 551.078 283.149 551.769 283.902C552.968 285.212 552.027 288.074 548.752 290.102C548.596 290.198 548.566 290.415 548.706 290.534C549.197 290.954 549.888 291.887 547.669 292.721C545.402 293.57 544.165 293.283 543.709 293.101C543.584 293.052 543.514 292.924 543.54 292.794L544.121 289.815C544.153 289.662 544.046 289.514 543.889 289.494L542.818 289.352Z" fill="#FF7542"/>
<path d="M542.611 289.966C542.611 289.966 544.251 285.927 545.976 287.347C547.701 288.767 544.382 291.904 542.852 291.861L542.611 289.966Z" fill="url(#paint45_linear)"/>
<path d="M537.407 337.644H537.329L504.127 337.61C503.305 337.607 502.64 336.943 502.64 336.123C502.643 335.306 503.311 334.628 504.13 334.643L537.331 334.678C538.153 334.681 538.818 335.344 538.818 336.164C538.818 336.958 538.191 337.604 537.407 337.644Z" fill="#2D2D9A"/>
<path d="M474.274 307.563H501.927C503.968 307.563 505.824 308.737 506.695 310.579L519.479 337.624H485.113C483.801 337.624 482.619 336.824 482.134 335.605L472.221 310.576C471.649 309.131 472.718 307.563 474.274 307.563Z" fill="#2D2D9A"/>
<path d="M493.758 321.429C494.356 323.289 493.914 325.091 492.77 325.459C491.623 325.827 490.209 324.619 489.611 322.762C489.01 320.905 489.455 319.1 490.599 318.732C491.745 318.364 493.159 319.572 493.758 321.429Z" fill="white"/>
<path d="M493.758 321.429C494.356 323.289 493.914 325.091 492.77 325.459C491.623 325.827 490.209 324.619 489.611 322.762C489.01 320.905 489.455 319.1 490.599 318.732C491.745 318.364 493.159 319.572 493.758 321.429Z" fill="#5555CE" fill-opacity="0.08"/>
<path d="M478.761 403.438C478.575 403.438 478.389 403.406 478.209 403.337C477.501 403.067 477.173 402.334 477.478 401.705L506.742 341.124C507.047 340.495 507.866 340.202 508.575 340.472C509.283 340.744 509.611 341.474 509.306 342.106L480.042 402.688C479.815 403.157 479.301 403.438 478.761 403.438Z" fill="#7D97F4"/>
<path d="M511.724 403.438C511.184 403.438 510.67 403.157 510.444 402.688L481.179 342.106C480.874 341.474 481.203 340.744 481.911 340.472C482.617 340.202 483.438 340.492 483.743 341.124L513.008 401.705C513.31 402.334 512.984 403.067 512.276 403.337C512.096 403.406 511.91 403.438 511.724 403.438Z" fill="#7D97F4"/>
<path d="M569.342 403.438C569.157 403.438 568.971 403.406 568.791 403.337C568.082 403.067 567.757 402.334 568.059 401.705L597.324 341.124C597.629 340.495 598.447 340.202 599.156 340.472C599.864 340.744 600.192 341.474 599.888 342.106L570.623 402.688C570.396 403.157 569.882 403.438 569.342 403.438Z" fill="#7D97F4"/>
<path d="M602.306 403.438C601.766 403.438 601.252 403.157 601.026 402.688L571.761 342.106C571.456 341.474 571.784 340.744 572.493 340.472C573.198 340.202 574.02 340.492 574.325 341.124L603.589 401.705C603.891 402.334 603.566 403.067 602.858 403.337C602.678 403.406 602.492 403.438 602.306 403.438Z" fill="#7D97F4"/>
<path d="M605.74 339.125C605.813 338.684 605.711 338.226 605.461 337.876C605.212 337.528 604.84 337.328 604.445 337.328H471.321C470.804 337.328 470.322 337.63 470.044 338.131C469.765 338.629 469.727 339.258 469.945 339.797L471.388 343.378C471.719 344.197 472.433 344.725 473.22 344.725H603.533C604.265 344.725 604.895 344.128 605.035 343.302L605.74 339.125Z" fill="#BDD0FB"/>
<path d="M519.971 63.5931L424.784 63.0629C420.888 63.0427 418.466 67.2812 420.473 70.6157L420.952 71.4096C421.855 72.9103 423.481 73.8287 425.235 73.8287H519.945C522.703 73.8287 524.939 71.5979 524.939 68.8427V68.5791C524.939 65.8355 522.72 63.6076 519.971 63.5931Z" fill="#91B3FA"/>
<path d="M533.269 68.6891V68.8427C533.269 71.5979 535.504 73.8287 538.263 73.8287H559.394C561.656 73.8287 563.636 72.3106 564.22 70.129C565.065 66.9798 562.699 63.8828 559.432 63.8567L538.3 63.7032C535.528 63.6829 533.269 65.9224 533.269 68.6891Z" fill="#91B3FA"/>
<path d="M497.074 81.4887L424.784 80.9585C420.888 80.9382 418.466 85.1767 420.473 88.5113L420.952 89.3051C421.855 90.8058 423.481 91.7242 425.235 91.7242H497.047C499.806 91.7242 502.041 89.4934 502.041 86.7383V86.4746C502.041 83.7311 499.823 81.5032 497.074 81.4887Z" fill="#91B3FA"/>
<path d="M510.371 86.5847V86.7382C510.371 89.4934 512.607 91.7242 515.365 91.7242H536.497C538.759 91.7242 540.739 90.2061 541.323 88.0246C542.168 84.8754 539.801 81.7783 536.532 81.7552L515.403 81.5987C512.63 81.5784 510.371 83.8179 510.371 86.5847Z" fill="#91B3FA"/>
<path d="M164.987 113.389C164.561 113.389 164.151 113.157 163.944 112.752C163.651 112.178 163.88 111.477 164.455 111.184C164.803 111.007 165.154 110.834 165.505 110.66C166.086 110.379 166.785 110.616 167.069 111.196C167.352 111.775 167.112 112.473 166.532 112.757C166.192 112.922 165.853 113.091 165.516 113.261C165.346 113.348 165.165 113.389 164.987 113.389ZM159.898 116.24C159.506 116.24 159.122 116.043 158.902 115.683C158.563 115.136 158.735 114.417 159.285 114.078C159.789 113.771 160.297 113.467 160.809 113.169C161.366 112.844 162.083 113.033 162.408 113.589C162.733 114.145 162.544 114.858 161.987 115.182C161.491 115.472 160.998 115.767 160.509 116.066C160.319 116.182 160.107 116.24 159.898 116.24ZM155.05 119.482C154.689 119.482 154.333 119.316 154.104 119.004C153.724 118.482 153.839 117.755 154.361 117.375C154.84 117.025 155.323 116.683 155.81 116.347C156.341 115.979 157.069 116.109 157.436 116.639C157.804 117.17 157.673 117.894 157.142 118.262C156.67 118.589 156.201 118.922 155.737 119.258C155.529 119.409 155.289 119.482 155.05 119.482ZM150.465 123.091C150.134 123.091 149.806 122.952 149.575 122.683C149.156 122.19 149.215 121.455 149.706 121.037C150.157 120.655 150.613 120.275 151.073 119.902C151.573 119.496 152.31 119.571 152.717 120.07C153.125 120.571 153.049 121.304 152.548 121.709C152.102 122.072 151.66 122.44 151.222 122.813C151.002 122.999 150.733 123.091 150.465 123.091ZM146.161 127.034C145.86 127.034 145.558 126.919 145.33 126.687C144.876 126.229 144.881 125.49 145.34 125.038C145.761 124.621 146.188 124.21 146.619 123.804C147.087 123.361 147.828 123.381 148.271 123.85C148.714 124.317 148.693 125.056 148.224 125.499C147.806 125.893 147.392 126.293 146.982 126.695C146.755 126.921 146.458 127.034 146.161 127.034ZM142.155 131.279C141.882 131.279 141.607 131.183 141.385 130.989C140.9 130.563 140.851 129.827 141.277 129.343C141.668 128.897 142.063 128.457 142.463 128.022C142.898 127.547 143.638 127.512 144.114 127.947C144.59 128.382 144.623 129.12 144.188 129.595C143.799 130.018 143.415 130.447 143.034 130.882C142.803 131.143 142.48 131.279 142.155 131.279ZM138.458 135.795C138.212 135.795 137.963 135.717 137.752 135.558C137.238 135.167 137.138 134.434 137.529 133.924C137.888 133.452 138.252 132.985 138.62 132.522C139.021 132.017 139.755 131.933 140.262 132.333C140.768 132.733 140.852 133.466 140.451 133.97C140.093 134.422 139.739 134.877 139.39 135.335C139.16 135.636 138.811 135.795 138.458 135.795ZM135.082 140.555C134.861 140.555 134.639 140.492 134.441 140.361C133.901 140.008 133.752 139.283 134.107 138.747C134.432 138.252 134.763 137.762 135.099 137.276C135.464 136.746 136.191 136.609 136.724 136.974C137.256 137.339 137.391 138.064 137.025 138.597C136.699 139.069 136.377 139.547 136.059 140.028C135.835 140.37 135.462 140.555 135.082 140.555ZM132.034 145.53C131.839 145.53 131.641 145.48 131.459 145.379C130.898 145.06 130.701 144.348 131.018 143.788C131.31 143.273 131.608 142.763 131.91 142.253C132.239 141.7 132.955 141.517 133.511 141.844C134.066 142.175 134.249 142.89 133.92 143.444C133.626 143.939 133.337 144.437 133.052 144.939C132.837 145.315 132.442 145.53 132.034 145.53ZM129.323 150.695C129.153 150.695 128.98 150.658 128.816 150.576C128.235 150.298 127.991 149.6 128.272 149.021C128.53 148.488 128.792 147.96 129.059 147.433C129.352 146.857 130.055 146.628 130.63 146.92C131.206 147.21 131.436 147.911 131.145 148.488C130.884 149 130.628 149.516 130.377 150.035C130.175 150.452 129.758 150.695 129.323 150.695ZM126.957 156.026C126.811 156.026 126.663 155.997 126.519 155.939C125.921 155.699 125.632 155.018 125.874 154.421C126.096 153.873 126.324 153.329 126.557 152.784C126.81 152.193 127.496 151.918 128.09 152.17C128.684 152.425 128.959 153.109 128.706 153.702C128.479 154.23 128.257 154.763 128.041 155.296C127.857 155.751 127.419 156.026 126.957 156.026ZM124.945 161.497C124.823 161.497 124.7 161.478 124.578 161.438C123.965 161.236 123.633 160.576 123.835 159.965C124.021 159.404 124.212 158.845 124.409 158.289C124.623 157.68 125.291 157.362 125.899 157.576C126.508 157.79 126.828 158.454 126.614 159.062C126.422 159.607 126.236 160.151 126.054 160.697C125.892 161.187 125.435 161.497 124.945 161.497ZM123.295 167.089C123.198 167.089 123.1 167.076 123.001 167.051C122.376 166.889 122.001 166.253 122.163 165.629C122.312 165.058 122.466 164.488 122.626 163.919C122.8 163.299 123.444 162.936 124.067 163.111C124.688 163.285 125.051 163.928 124.876 164.549C124.72 165.103 124.57 165.658 124.426 166.215C124.289 166.74 123.815 167.089 123.295 167.089ZM122.019 172.776C121.946 172.776 121.873 172.769 121.8 172.755C121.166 172.635 120.749 172.025 120.869 171.392C120.979 170.812 121.095 170.233 121.217 169.654C121.35 169.024 121.97 168.621 122.601 168.754C123.233 168.886 123.637 169.505 123.504 170.135C123.386 170.698 123.273 171.262 123.165 171.826C123.059 172.385 122.569 172.776 122.019 172.776ZM121.125 178.534C121.078 178.534 121.032 178.532 120.984 178.526C120.343 178.449 119.886 177.869 119.963 177.229C120.034 176.642 120.11 176.056 120.194 175.471C120.284 174.834 120.874 174.393 121.514 174.48C122.153 174.57 122.598 175.16 122.508 175.798C122.427 176.367 122.352 176.937 122.284 177.507C122.212 178.099 121.708 178.534 121.125 178.534ZM451.859 178.7C451.224 178.7 450.704 178.193 450.692 177.557C450.678 176.913 451.192 176.381 451.836 176.368C452.411 176.357 452.983 176.351 453.558 176.351C454.203 176.351 454.751 176.873 454.751 177.517C454.751 178.161 454.255 178.683 453.61 178.683H453.558C452.998 178.683 452.44 178.689 451.883 178.699L451.859 178.7ZM459.449 178.89C459.423 178.89 459.394 178.889 459.365 178.887C458.793 178.846 458.218 178.811 457.64 178.783C456.996 178.751 456.499 178.204 456.531 177.561C456.563 176.918 457.1 176.42 457.757 176.454C458.349 176.483 458.941 176.518 459.531 176.56C460.175 176.606 460.66 177.164 460.614 177.806C460.57 178.42 460.059 178.89 459.449 178.89ZM446.023 179.002C445.422 179.002 444.911 178.542 444.862 177.933C444.807 177.292 445.286 176.728 445.928 176.674C446.52 176.625 447.109 176.581 447.699 176.543C448.343 176.503 448.898 176.988 448.939 177.63C448.982 178.273 448.494 178.828 447.85 178.87C447.275 178.907 446.7 178.95 446.125 178.998C446.09 179.001 446.058 179.002 446.023 179.002ZM465.256 179.519C465.198 179.519 465.143 179.515 465.085 179.506C464.516 179.423 463.947 179.346 463.375 179.275C462.733 179.196 462.28 178.614 462.359 177.975C462.437 177.336 463.018 176.881 463.662 176.961C464.252 177.033 464.838 177.113 465.425 177.199C466.064 177.293 466.505 177.886 466.412 178.523C466.325 179.102 465.825 179.519 465.256 179.519ZM440.222 179.666C439.65 179.666 439.151 179.247 439.067 178.667C438.974 178.029 439.415 177.438 440.054 177.345C440.64 177.261 441.227 177.181 441.813 177.107C442.458 177.028 443.039 177.479 443.12 178.117C443.198 178.757 442.745 179.34 442.107 179.421C441.535 179.493 440.963 179.571 440.391 179.653C440.332 179.662 440.277 179.666 440.222 179.666ZM470.997 180.6C470.907 180.6 470.82 180.59 470.729 180.57C470.172 180.441 469.612 180.319 469.048 180.204C468.415 180.074 468.009 179.458 468.137 178.827C468.267 178.196 468.886 177.789 469.516 177.919C470.099 178.038 470.68 178.164 471.258 178.298C471.888 178.443 472.277 179.07 472.132 179.697C472.007 180.236 471.528 180.6 470.997 180.6ZM434.467 180.666C433.922 180.666 433.434 180.285 433.32 179.733C433.193 179.102 433.602 178.486 434.235 178.357C434.813 178.24 435.394 178.127 435.974 178.019C436.607 177.901 437.22 178.32 437.336 178.953C437.455 179.586 437.037 180.195 436.401 180.312C435.835 180.417 435.266 180.528 434.7 180.643C434.621 180.659 434.543 180.666 434.467 180.666ZM428.774 181.984C428.257 181.984 427.781 181.636 427.644 181.111C427.481 180.488 427.856 179.851 428.48 179.689C429.052 179.54 429.624 179.396 430.199 179.257C430.826 179.104 431.459 179.488 431.61 180.114C431.764 180.74 431.378 181.371 430.751 181.523C430.19 181.659 429.63 181.8 429.07 181.945C428.971 181.971 428.872 181.984 428.774 181.984ZM476.624 182.157C476.505 182.157 476.383 182.138 476.261 182.1C475.715 181.923 475.169 181.753 474.617 181.591C473.999 181.409 473.645 180.76 473.828 180.142C474.01 179.525 474.661 179.171 475.279 179.354C475.851 179.522 476.417 179.698 476.984 179.882C477.599 180.081 477.933 180.738 477.736 181.351C477.573 181.844 477.117 182.157 476.624 182.157ZM423.161 183.6C422.665 183.6 422.206 183.282 422.046 182.785C421.852 182.172 422.194 181.516 422.81 181.322C423.37 181.144 423.936 180.971 424.502 180.801C425.118 180.617 425.771 180.966 425.957 181.583C426.143 182.2 425.792 182.85 425.173 183.035C424.619 183.201 424.067 183.371 423.515 183.545C423.396 183.582 423.277 183.6 423.161 183.6ZM482.091 184.207C481.937 184.207 481.78 184.176 481.629 184.112C481.104 183.886 480.572 183.668 480.038 183.457C479.44 183.219 479.147 182.541 479.385 181.943C479.623 181.344 480.302 181.051 480.901 181.289C481.455 181.508 482.004 181.734 482.553 181.969C483.145 182.222 483.421 182.908 483.165 183.5C482.977 183.942 482.544 184.207 482.091 184.207ZM120.627 184.34L120.566 184.339C119.922 184.306 119.426 183.758 119.458 183.115C119.489 182.525 119.525 181.935 119.567 181.346C119.613 180.704 120.177 180.224 120.816 180.266C121.46 180.312 121.944 180.87 121.898 181.512C121.857 182.086 121.822 182.659 121.793 183.233C121.761 183.856 121.245 184.34 120.627 184.34ZM417.636 185.501C417.162 185.501 416.718 185.212 416.541 184.743C416.315 184.14 416.622 183.468 417.226 183.242C417.781 183.036 418.335 182.835 418.893 182.636C419.5 182.422 420.168 182.737 420.385 183.344C420.603 183.951 420.284 184.618 419.677 184.834C419.131 185.027 418.588 185.225 418.045 185.427C417.911 185.477 417.772 185.501 417.636 185.501ZM487.343 186.755C487.155 186.755 486.963 186.709 486.786 186.612C486.281 186.337 485.773 186.07 485.265 185.811C484.69 185.518 484.46 184.816 484.754 184.242C485.047 183.668 485.749 183.44 486.324 183.733C486.856 184.002 487.381 184.28 487.907 184.566C488.473 184.874 488.679 185.583 488.371 186.148C488.159 186.536 487.759 186.755 487.343 186.755ZM412.215 187.678C411.762 187.678 411.332 187.414 411.143 186.974C410.885 186.383 411.158 185.696 411.75 185.441C412.293 185.207 412.836 184.978 413.382 184.752C413.98 184.505 414.662 184.789 414.909 185.384C415.156 185.979 414.871 186.661 414.276 186.908C413.742 187.128 413.208 187.353 412.679 187.581C412.528 187.647 412.369 187.678 412.215 187.678ZM492.326 189.796C492.099 189.796 491.87 189.73 491.67 189.593C491.196 189.271 490.72 188.957 490.235 188.65C489.692 188.303 489.533 187.582 489.881 187.039C490.227 186.497 490.95 186.338 491.495 186.684C491.998 187.004 492.494 187.332 492.985 187.666C493.519 188.029 493.656 188.755 493.293 189.287C493.066 189.618 492.7 189.796 492.326 189.796ZM406.898 190.096C406.463 190.096 406.045 189.853 405.844 189.435C405.566 188.854 405.81 188.158 406.39 187.879C406.922 187.625 407.456 187.373 407.99 187.125C408.574 186.852 409.271 187.106 409.543 187.69C409.814 188.274 409.561 188.967 408.977 189.239C408.449 189.483 407.926 189.731 407.404 189.981C407.241 190.06 407.067 190.096 406.898 190.096ZM120.535 190.167C119.901 190.167 119.38 189.661 119.367 189.025C119.356 188.469 119.35 187.912 119.35 187.355V187.253C119.35 186.609 119.873 186.087 120.519 186.087C121.164 186.087 121.687 186.609 121.687 187.253V187.355C121.687 187.896 121.693 188.437 121.704 188.978C121.717 189.622 121.204 190.154 120.559 190.167L120.535 190.167ZM401.678 192.715C401.257 192.715 400.85 192.488 400.641 192.091C400.342 191.521 400.563 190.816 401.132 190.517C401.655 190.243 402.177 189.973 402.7 189.705C403.275 189.411 403.977 189.639 404.274 190.212C404.567 190.785 404.34 191.488 403.765 191.781C403.249 192.045 402.735 192.312 402.221 192.581C402.047 192.672 401.861 192.715 401.678 192.715ZM496.983 193.309C496.719 193.309 496.455 193.22 496.237 193.038C495.796 192.672 495.351 192.312 494.901 191.958C494.393 191.56 494.306 190.827 494.707 190.321C495.105 189.815 495.839 189.727 496.347 190.126C496.815 190.493 497.276 190.867 497.732 191.247C498.229 191.66 498.296 192.396 497.883 192.89C497.651 193.166 497.32 193.309 496.983 193.309ZM396.55 195.51C396.144 195.51 395.749 195.298 395.534 194.919C395.215 194.359 395.412 193.647 395.972 193.33C396.483 193.041 396.997 192.753 397.511 192.469C398.077 192.156 398.786 192.36 399.1 192.922C399.413 193.485 399.21 194.195 398.647 194.508C398.138 194.789 397.633 195.073 397.125 195.358C396.945 195.461 396.748 195.51 396.55 195.51ZM120.864 195.987C120.268 195.987 119.759 195.534 119.702 194.929C119.647 194.34 119.598 193.751 119.556 193.16C119.51 192.518 119.996 191.96 120.639 191.914C121.283 191.869 121.842 192.353 121.888 192.995C121.928 193.568 121.975 194.141 122.029 194.712C122.089 195.353 121.617 195.922 120.975 195.982C120.938 195.985 120.901 195.987 120.864 195.987ZM501.286 197.25C500.987 197.25 500.685 197.135 500.459 196.906C500.055 196.499 499.646 196.099 499.23 195.704C498.763 195.26 498.746 194.522 499.19 194.056C499.634 193.59 500.374 193.572 500.842 194.016C501.272 194.425 501.698 194.841 502.117 195.263C502.572 195.72 502.57 196.458 502.111 196.912C501.881 197.138 501.585 197.25 501.286 197.25ZM391.513 198.46C391.118 198.46 390.732 198.259 390.511 197.897C390.177 197.346 390.354 196.629 390.906 196.296C391.408 195.992 391.913 195.691 392.416 195.392C392.973 195.062 393.687 195.245 394.018 195.798C394.349 196.352 394.166 197.067 393.612 197.396C393.112 197.692 392.613 197.991 392.117 198.291C391.928 198.405 391.719 198.46 391.513 198.46ZM386.553 201.54C386.167 201.54 385.79 201.35 385.566 201.002C385.218 200.459 385.377 199.738 385.923 199.391C386.417 199.075 386.913 198.762 387.41 198.45C387.956 198.108 388.676 198.271 389.021 198.816C389.364 199.361 389.198 200.081 388.653 200.424C388.162 200.733 387.671 201.044 387.181 201.356C386.986 201.48 386.768 201.54 386.553 201.54ZM505.212 201.568C504.875 201.568 504.541 201.424 504.312 201.146C503.946 200.705 503.574 200.268 503.194 199.837C502.77 199.352 502.819 198.615 503.307 198.192C503.792 197.767 504.529 197.818 504.953 198.302C505.345 198.749 505.731 199.201 506.112 199.658C506.524 200.154 506.454 200.889 505.958 201.3C505.74 201.48 505.476 201.568 505.212 201.568ZM121.626 201.766C121.067 201.766 120.573 201.365 120.476 200.796C120.376 200.212 120.283 199.627 120.197 199.041C120.104 198.403 120.546 197.812 121.185 197.719C121.824 197.628 122.416 198.066 122.51 198.704C122.593 199.272 122.683 199.839 122.78 200.404C122.888 201.039 122.46 201.642 121.824 201.75C121.758 201.761 121.691 201.766 121.626 201.766ZM381.664 204.729C381.286 204.729 380.915 204.548 380.691 204.211C380.331 203.676 380.476 202.952 381.013 202.594C381.498 202.268 381.989 201.945 382.477 201.623C383.017 201.269 383.743 201.417 384.097 201.954C384.451 202.491 384.303 203.215 383.766 203.57C383.281 203.889 382.796 204.21 382.311 204.533C382.111 204.666 381.887 204.729 381.664 204.729ZM508.742 206.214C508.371 206.214 508.005 206.038 507.778 205.712C507.453 205.24 507.119 204.773 506.78 204.31C506.399 203.79 506.512 203.061 507.035 202.681C507.555 202.301 508.287 202.414 508.667 202.934C509.018 203.413 509.361 203.896 509.701 204.384C510.069 204.914 509.936 205.64 509.404 206.006C509.201 206.147 508.972 206.214 508.742 206.214ZM122.829 207.47C122.306 207.47 121.829 207.117 121.696 206.588C121.552 206.014 121.414 205.437 121.283 204.86C121.14 204.232 121.535 203.608 122.165 203.466C122.792 203.322 123.42 203.717 123.563 204.345C123.689 204.905 123.823 205.463 123.963 206.02C124.121 206.645 123.741 207.278 123.115 207.435C123.019 207.459 122.923 207.47 122.829 207.47ZM376.832 208.007C376.461 208.007 376.098 207.831 375.868 207.504C375.503 206.974 375.636 206.248 376.167 205.881C376.649 205.549 377.131 205.218 377.613 204.887C378.148 204.523 378.874 204.66 379.239 205.191C379.602 205.722 379.466 206.448 378.935 206.811C378.455 207.14 377.973 207.469 377.494 207.8C377.294 207.94 377.062 208.007 376.832 208.007ZM511.864 211.142C511.457 211.142 511.065 210.932 510.847 210.557C510.563 210.059 510.27 209.566 509.971 209.077C509.634 208.527 509.808 207.809 510.36 207.474C510.911 207.139 511.629 207.313 511.965 207.863C512.276 208.369 512.578 208.88 512.874 209.394C513.196 209.952 513.005 210.665 512.444 210.986C512.262 211.092 512.061 211.142 511.864 211.142ZM372.047 211.353C371.682 211.353 371.322 211.182 371.095 210.862C370.72 210.337 370.845 209.609 371.371 209.237C371.847 208.898 372.326 208.561 372.805 208.224C373.334 207.852 374.062 207.979 374.434 208.506C374.806 209.032 374.678 209.76 374.152 210.13C373.676 210.465 373.2 210.801 372.724 211.138C372.518 211.283 372.283 211.353 372.047 211.353ZM124.477 213.063C123.99 213.063 123.535 212.755 123.37 212.269C123.18 211.708 122.997 211.145 122.821 210.579C122.629 209.964 122.973 209.311 123.589 209.119C124.206 208.927 124.86 209.271 125.052 209.885C125.223 210.433 125.401 210.979 125.585 211.523C125.791 212.133 125.463 212.795 124.852 213.001C124.728 213.042 124.602 213.063 124.477 213.063ZM367.297 214.749C366.937 214.749 366.577 214.581 366.351 214.265C365.973 213.744 366.089 213.015 366.612 212.637L368.038 211.613C368.56 211.237 369.289 211.356 369.666 211.879C370.044 212.401 369.925 213.13 369.402 213.506L367.982 214.528C367.773 214.677 367.535 214.749 367.297 214.749ZM514.567 216.309C514.128 216.309 513.71 216.062 513.51 215.64C513.263 215.121 513.013 214.605 512.755 214.092C512.465 213.517 512.7 212.815 513.275 212.527C513.853 212.239 514.555 212.472 514.846 213.047C515.11 213.576 515.371 214.109 515.624 214.645C515.9 215.228 515.65 215.923 515.066 216.197C514.904 216.273 514.735 216.309 514.567 216.309ZM362.57 218.175C362.21 218.175 361.853 218.009 361.627 217.696C361.246 217.176 361.359 216.446 361.882 216.067L363.299 215.036C363.819 214.657 364.55 214.772 364.931 215.293C365.311 215.813 365.195 216.543 364.675 216.922L363.258 217.951C363.049 218.102 362.808 218.175 362.57 218.175ZM126.567 218.505C126.113 218.505 125.681 218.239 125.491 217.796C125.259 217.254 125.033 216.708 124.812 216.158C124.571 215.561 124.862 214.882 125.46 214.642C126.059 214.402 126.74 214.691 126.981 215.289C127.195 215.823 127.415 216.353 127.641 216.88C127.894 217.472 127.618 218.157 127.025 218.411C126.875 218.474 126.72 218.505 126.567 218.505ZM357.852 221.613C357.492 221.613 357.135 221.448 356.908 221.135C356.525 220.616 356.641 219.886 357.161 219.506L358.578 218.474C359.098 218.094 359.829 218.207 360.21 218.728C360.59 219.248 360.477 219.977 359.957 220.357L358.54 221.389C358.331 221.54 358.09 221.613 357.852 221.613ZM516.846 221.676C516.373 221.676 515.929 221.389 515.754 220.922C515.551 220.385 515.339 219.85 515.124 219.318C514.883 218.722 515.171 218.042 515.769 217.8C516.367 217.559 517.049 217.845 517.29 218.443C517.514 218.991 517.729 219.543 517.941 220.098C518.167 220.7 517.862 221.373 517.258 221.6C517.125 221.652 516.983 221.676 516.846 221.676ZM129.056 223.776C128.632 223.776 128.224 223.546 128.016 223.144C127.744 222.62 127.478 222.091 127.217 221.559C126.934 220.98 127.174 220.282 127.754 219.999C128.335 219.716 129.034 219.956 129.317 220.535C129.57 221.051 129.829 221.564 130.093 222.074C130.389 222.646 130.164 223.349 129.591 223.645C129.419 223.734 129.236 223.776 129.056 223.776ZM353.128 225.047C352.765 225.047 352.408 224.88 352.179 224.565C351.801 224.044 351.917 223.315 352.44 222.937L353.857 221.909C354.379 221.531 355.108 221.645 355.489 222.166C355.869 222.687 355.753 223.416 355.233 223.795L353.813 224.824C353.604 224.974 353.366 225.047 353.128 225.047ZM518.69 227.207C518.185 227.207 517.717 226.875 517.569 226.365C517.409 225.813 517.244 225.264 517.07 224.717C516.875 224.103 517.218 223.448 517.833 223.254C518.449 223.059 519.105 223.401 519.3 224.015C519.477 224.58 519.648 225.147 519.814 225.715C519.994 226.334 519.636 226.981 519.018 227.16C518.908 227.191 518.797 227.207 518.69 227.207ZM348.387 228.455C348.021 228.455 347.661 228.285 347.434 227.967C347.06 227.442 347.179 226.714 347.704 226.34L349.127 225.323C349.652 224.947 350.381 225.066 350.759 225.589C351.136 226.112 351.017 226.841 350.492 227.216L349.063 228.238C348.857 228.384 348.622 228.455 348.387 228.455ZM131.914 228.841C131.52 228.841 131.136 228.642 130.915 228.283C130.608 227.78 130.305 227.274 130.007 226.765C129.683 226.208 129.872 225.494 130.429 225.17C130.987 224.845 131.702 225.034 132.027 225.591C132.316 226.086 132.611 226.578 132.91 227.067C133.247 227.616 133.073 228.334 132.522 228.67C132.332 228.786 132.122 228.841 131.914 228.841ZM343.613 231.819C343.244 231.819 342.881 231.645 342.655 231.32C342.286 230.792 342.417 230.064 342.945 229.696L344.374 228.696C344.902 228.326 345.631 228.452 346.003 228.979C346.374 229.506 346.247 230.233 345.721 230.604L344.281 231.609C344.078 231.75 343.845 231.819 343.613 231.819ZM520.092 232.865C519.549 232.865 519.062 232.485 518.948 231.933C518.832 231.372 518.71 230.811 518.58 230.251C518.437 229.624 518.829 228.998 519.459 228.853C520.089 228.709 520.714 229.101 520.859 229.729C520.992 230.306 521.117 230.884 521.236 231.464C521.367 232.095 520.96 232.711 520.327 232.841C520.249 232.857 520.171 232.865 520.092 232.865ZM135.128 233.696C134.763 233.696 134.404 233.526 134.176 233.207C133.833 232.726 133.494 232.242 133.162 231.754C132.798 231.222 132.936 230.496 133.469 230.134C134.004 229.771 134.73 229.909 135.093 230.441C135.417 230.916 135.746 231.387 136.079 231.854C136.454 232.378 136.331 233.107 135.806 233.48C135.6 233.626 135.363 233.696 135.128 233.696ZM338.805 235.118C338.427 235.118 338.062 234.938 337.835 234.605C337.472 234.072 337.614 233.347 338.149 232.986C338.631 232.66 339.11 232.334 339.592 232.006C340.123 231.643 340.852 231.78 341.215 232.312C341.581 232.844 341.441 233.57 340.91 233.933C340.425 234.261 339.943 234.59 339.458 234.917C339.258 235.053 339.028 235.118 338.805 235.118ZM138.676 238.323C138.338 238.323 138.003 238.177 137.772 237.896C137.396 237.44 137.026 236.979 136.659 236.516C136.26 236.01 136.347 235.277 136.854 234.878C137.361 234.479 138.096 234.566 138.495 235.072C138.852 235.524 139.213 235.972 139.579 236.417C139.988 236.915 139.915 237.65 139.416 238.058C139.199 238.236 138.936 238.323 138.676 238.323ZM333.942 238.345C333.561 238.345 333.187 238.16 332.963 237.818C332.609 237.279 332.76 236.556 333.3 236.204C333.788 235.885 334.275 235.566 334.76 235.246C335.297 234.89 336.023 235.039 336.38 235.576C336.735 236.113 336.587 236.836 336.049 237.192C335.559 237.513 335.071 237.835 334.58 238.155C334.383 238.284 334.162 238.345 333.942 238.345ZM521.036 238.616C520.452 238.616 519.95 238.183 519.877 237.592C519.808 237.023 519.729 236.455 519.645 235.887C519.552 235.25 519.994 234.658 520.632 234.564C521.271 234.469 521.866 234.911 521.959 235.548C522.046 236.134 522.125 236.721 522.197 237.308C522.276 237.947 521.82 238.529 521.178 238.607C521.132 238.613 521.082 238.616 521.036 238.616ZM329.029 241.497C328.64 241.497 328.262 241.305 328.039 240.953C327.693 240.408 327.859 239.688 328.404 239.344C328.895 239.034 329.386 238.723 329.877 238.411C330.422 238.065 331.145 238.224 331.491 238.766C331.839 239.309 331.68 240.03 331.137 240.377C330.643 240.691 330.147 241.004 329.65 241.317C329.458 241.439 329.241 241.497 329.029 241.497ZM142.528 242.705C142.216 242.705 141.905 242.581 141.674 242.336C141.27 241.905 140.87 241.47 140.473 241.032C140.041 240.553 140.079 239.816 140.558 239.385C141.037 238.953 141.777 238.991 142.209 239.47C142.595 239.898 142.986 240.321 143.381 240.742C143.822 241.212 143.797 241.95 143.327 242.39C143.101 242.601 142.814 242.705 142.528 242.705ZM521.521 244.425C520.899 244.425 520.383 243.936 520.354 243.311C520.328 242.738 520.296 242.165 520.255 241.591C520.211 240.949 520.699 240.393 521.344 240.349C522 240.314 522.543 240.791 522.586 241.433C522.627 242.024 522.662 242.615 522.688 243.206C522.717 243.849 522.218 244.394 521.573 244.424L521.521 244.425ZM324.061 244.566C323.666 244.566 323.28 244.366 323.062 244.005C322.725 243.455 322.902 242.737 323.454 242.403C323.95 242.101 324.447 241.799 324.943 241.494C325.495 241.157 326.215 241.329 326.552 241.878C326.889 242.426 326.718 243.145 326.169 243.482C325.666 243.788 325.167 244.093 324.668 244.396C324.476 244.511 324.267 244.566 324.061 244.566ZM146.659 246.833C146.372 246.833 146.084 246.728 145.859 246.517C145.426 246.112 144.998 245.703 144.575 245.289C144.113 244.839 144.105 244.101 144.556 243.641C145.007 243.18 145.747 243.172 146.209 243.621C146.621 244.024 147.038 244.423 147.459 244.817C147.929 245.258 147.953 245.996 147.511 246.466C147.281 246.71 146.97 246.833 146.659 246.833ZM319.038 247.546C318.634 247.546 318.245 247.338 318.027 246.966C317.702 246.41 317.891 245.696 318.448 245.372C318.951 245.079 319.456 244.786 319.955 244.491C320.513 244.163 321.227 244.348 321.555 244.903C321.883 245.458 321.697 246.173 321.143 246.5C320.638 246.797 320.132 247.093 319.624 247.387C319.438 247.495 319.238 247.546 319.038 247.546ZM521.567 250.253L521.535 250.253C520.891 250.234 520.383 249.698 520.4 249.054C520.415 248.48 520.426 247.905 520.429 247.331C520.435 246.689 520.958 246.173 521.599 246.173H521.608C522.253 246.177 522.772 246.703 522.766 247.347C522.764 247.938 522.752 248.529 522.737 249.121C522.717 249.753 522.197 250.253 521.567 250.253ZM313.957 250.43C313.547 250.43 313.149 250.214 312.935 249.831C312.621 249.268 312.824 248.558 313.387 248.244C313.898 247.962 314.407 247.678 314.915 247.393C315.475 247.076 316.189 247.275 316.506 247.836C316.822 248.397 316.622 249.109 316.062 249.424C315.551 249.712 315.037 249.998 314.526 250.283C314.346 250.382 314.151 250.43 313.957 250.43ZM151.04 250.699C150.777 250.699 150.512 250.61 150.294 250.429C149.838 250.051 149.386 249.669 148.938 249.283C148.449 248.863 148.394 248.127 148.816 247.639C149.237 247.152 149.975 247.097 150.464 247.517C150.902 247.894 151.343 248.267 151.788 248.636C152.284 249.048 152.352 249.783 151.94 250.278C151.708 250.555 151.375 250.699 151.04 250.699ZM308.82 253.212C308.399 253.212 307.996 252.986 307.787 252.59C307.485 252.021 307.699 251.316 308.271 251.015C308.785 250.743 309.299 250.47 309.813 250.194C310.379 249.89 311.091 250.103 311.396 250.67C311.701 251.237 311.489 251.944 310.919 252.249C310.403 252.526 309.883 252.802 309.366 253.076C309.189 253.168 309.003 253.212 308.82 253.212ZM155.646 254.297C155.406 254.297 155.163 254.224 154.954 254.07C154.477 253.719 154.003 253.364 153.533 253.006C153.02 252.615 152.922 251.883 153.314 251.372C153.706 250.86 154.44 250.762 154.952 251.153C155.412 251.503 155.874 251.849 156.341 252.192C156.86 252.574 156.971 253.305 156.588 253.823C156.359 254.133 156.005 254.297 155.646 254.297ZM303.62 255.882C303.193 255.882 302.781 255.647 302.575 255.238C302.287 254.663 302.52 253.962 303.097 253.673C303.617 253.413 304.137 253.152 304.657 252.888C305.229 252.594 305.934 252.823 306.227 253.397C306.521 253.971 306.291 254.673 305.716 254.965C305.194 255.232 304.668 255.496 304.143 255.759C303.974 255.842 303.797 255.882 303.62 255.882ZM521.196 256.07C521.158 256.07 521.117 256.068 521.079 256.064C520.438 256.001 519.967 255.429 520.031 254.788C520.089 254.216 520.139 253.644 520.185 253.07C520.235 252.428 520.801 251.953 521.442 251.999C522.084 252.049 522.566 252.61 522.514 253.252C522.467 253.842 522.415 254.431 522.357 255.019C522.296 255.621 521.788 256.07 521.196 256.07ZM160.453 257.626C160.234 257.626 160.012 257.565 159.815 257.436C159.319 257.113 158.826 256.786 158.336 256.455C157.802 256.093 157.662 255.368 158.024 254.835C158.386 254.302 159.112 254.162 159.647 254.524C160.127 254.848 160.609 255.168 161.094 255.485C161.634 255.837 161.786 256.559 161.432 257.099C161.208 257.44 160.834 257.626 160.453 257.626ZM298.362 258.434C297.923 258.434 297.505 258.187 297.305 257.765C297.029 257.183 297.279 256.488 297.862 256.213C298.388 255.966 298.916 255.716 299.439 255.464C300.02 255.184 300.719 255.429 300.998 256.01C301.28 256.59 301.033 257.287 300.452 257.566C299.924 257.82 299.392 258.072 298.861 258.322C298.699 258.398 298.53 258.434 298.362 258.434ZM165.437 260.686C165.239 260.686 165.037 260.636 164.853 260.529C164.34 260.233 163.83 259.934 163.323 259.63C162.77 259.298 162.591 258.582 162.923 258.03C163.255 257.477 163.973 257.299 164.526 257.63C165.023 257.928 165.522 258.221 166.024 258.511C166.583 258.834 166.773 259.547 166.45 260.104C166.233 260.478 165.841 260.686 165.437 260.686ZM293.042 260.859C292.595 260.859 292.166 260.6 291.974 260.164C291.713 259.575 291.98 258.886 292.569 258.626C293.103 258.391 293.635 258.155 294.166 257.916C294.753 257.651 295.447 257.912 295.711 258.5C295.975 259.087 295.714 259.777 295.124 260.042C294.59 260.283 294.053 260.522 293.516 260.759C293.362 260.827 293.202 260.859 293.042 260.859ZM520.42 261.849C520.354 261.849 520.29 261.844 520.223 261.832C519.587 261.725 519.157 261.123 519.265 260.488C519.361 259.92 519.451 259.353 519.535 258.784C519.631 258.147 520.226 257.705 520.862 257.8C521.501 257.894 521.942 258.487 521.849 259.124C521.762 259.709 521.669 260.293 521.57 260.876C521.474 261.447 520.978 261.849 520.42 261.849ZM287.665 263.147C287.203 263.147 286.768 262.875 286.582 262.423C286.338 261.829 286.623 261.147 287.218 260.902C287.758 260.682 288.295 260.459 288.832 260.234C289.425 259.984 290.11 260.263 290.363 260.857C290.612 261.45 290.331 262.133 289.738 262.382C289.195 262.611 288.652 262.837 288.106 263.06C287.961 263.118 287.81 263.147 287.665 263.147ZM170.578 263.475C170.399 263.475 170.218 263.434 170.048 263.347C169.52 263.081 168.996 262.808 168.473 262.53C167.903 262.229 167.686 261.522 167.988 260.954C168.291 260.385 168.998 260.169 169.568 260.47C170.08 260.741 170.594 261.008 171.111 261.271C171.686 261.563 171.913 262.267 171.62 262.84C171.414 263.243 171.004 263.475 170.578 263.475ZM282.224 265.291C281.754 265.291 281.309 265.001 281.132 264.535C280.903 263.935 281.208 263.26 281.812 263.031C282.355 262.829 282.898 262.62 283.441 262.408C284.042 262.177 284.718 262.472 284.953 263.075C285.186 263.675 284.886 264.35 284.285 264.584C283.737 264.796 283.188 265.007 282.639 265.213C282.503 265.265 282.363 265.291 282.224 265.291ZM175.856 265.995C175.696 265.995 175.534 265.963 175.379 265.894C174.839 265.653 174.302 265.407 173.766 265.158C173.181 264.886 172.928 264.193 173.2 263.608C173.473 263.026 174.167 262.774 174.753 263.046C175.278 263.289 175.805 263.53 176.334 263.764C176.923 264.028 177.187 264.717 176.923 265.306C176.729 265.74 176.303 265.995 175.856 265.995ZM276.728 267.279C276.243 267.279 275.79 266.974 275.621 266.493C275.412 265.885 275.735 265.219 276.344 265.01C276.893 264.819 277.442 264.628 277.991 264.434C278.597 264.216 279.268 264.535 279.483 265.14C279.701 265.749 279.381 266.415 278.775 266.63C278.22 266.827 277.665 267.021 277.108 267.212C276.983 267.255 276.852 267.279 276.728 267.279ZM519.259 267.562C519.169 267.562 519.079 267.551 518.986 267.531C518.359 267.383 517.97 266.754 518.118 266.125C518.251 265.566 518.379 265.004 518.501 264.442C518.638 263.814 519.262 263.414 519.892 263.55C520.522 263.686 520.923 264.306 520.786 264.935C520.661 265.514 520.531 266.088 520.394 266.664C520.267 267.2 519.787 267.562 519.259 267.562ZM181.254 268.246C181.113 268.246 180.97 268.223 180.83 268.168C180.279 267.954 179.73 267.736 179.182 267.513C178.584 267.27 178.297 266.592 178.54 265.995C178.783 265.398 179.465 265.109 180.063 265.352C180.599 265.572 181.138 265.784 181.678 265.995C182.279 266.227 182.577 266.905 182.343 267.505C182.163 267.965 181.722 268.246 181.254 268.246ZM271.173 269.098C270.674 269.098 270.212 268.779 270.055 268.278C269.864 267.664 270.209 267.012 270.825 266.818C271.379 266.647 271.934 266.47 272.485 266.294C273.101 266.097 273.76 266.433 273.958 267.047C274.155 267.661 273.818 268.316 273.203 268.513C272.642 268.692 272.082 268.872 271.522 269.046C271.405 269.081 271.286 269.098 271.173 269.098ZM186.755 270.231C186.631 270.231 186.507 270.21 186.384 270.17C185.824 269.984 185.264 269.793 184.707 269.599C184.098 269.385 183.777 268.718 183.991 268.113C184.204 267.505 184.87 267.183 185.48 267.397C186.027 267.589 186.575 267.774 187.125 267.959C187.737 268.162 188.067 268.823 187.863 269.434C187.699 269.921 187.243 270.231 186.755 270.231ZM265.564 270.744C265.05 270.744 264.582 270.407 264.437 269.889C264.266 269.269 264.631 268.626 265.253 268.455C265.813 268.301 266.371 268.142 266.928 267.983C267.55 267.806 268.197 268.162 268.374 268.782C268.554 269.399 268.194 270.045 267.576 270.225C267.009 270.387 266.443 270.547 265.874 270.703C265.77 270.732 265.665 270.744 265.564 270.744ZM192.343 271.946C192.238 271.946 192.132 271.931 192.026 271.902C191.458 271.743 190.89 271.578 190.324 271.41C189.706 271.227 189.353 270.578 189.537 269.961C189.721 269.344 190.372 268.991 190.99 269.176C191.545 269.338 192.102 269.501 192.659 269.657C193.281 269.831 193.642 270.474 193.468 271.094C193.323 271.61 192.854 271.946 192.343 271.946ZM259.905 272.204C259.376 272.204 258.897 271.844 258.769 271.311C258.618 270.686 259.004 270.054 259.632 269.903C260.198 269.77 260.761 269.631 261.324 269.489C261.952 269.333 262.584 269.712 262.741 270.335C262.898 270.961 262.521 271.595 261.893 271.752C261.321 271.894 260.752 272.036 260.18 272.172C260.087 272.195 259.995 272.204 259.905 272.204ZM517.732 273.189C517.618 273.189 517.502 273.174 517.389 273.139C516.774 272.951 516.425 272.299 516.614 271.682C516.779 271.132 516.945 270.578 517.102 270.025C517.279 269.405 517.923 269.046 518.545 269.223C519.166 269.399 519.526 270.045 519.349 270.662C519.189 271.23 519.021 271.798 518.847 272.363C518.696 272.864 518.231 273.189 517.732 273.189ZM198.006 273.391C197.919 273.391 197.831 273.383 197.743 273.36C197.168 273.229 196.594 273.093 196.021 272.951C195.394 272.798 195.01 272.166 195.164 271.54C195.319 270.917 195.951 270.535 196.578 270.686C197.14 270.825 197.704 270.958 198.268 271.088C198.897 271.233 199.289 271.859 199.144 272.488C199.019 273.026 198.539 273.391 198.006 273.391ZM254.2 273.467C253.656 273.467 253.169 273.087 253.056 272.534C252.928 271.902 253.336 271.288 253.969 271.158C254.539 271.045 255.105 270.926 255.671 270.804C256.304 270.668 256.926 271.068 257.059 271.7C257.196 272.328 256.795 272.948 256.162 273.084C255.587 273.206 255.012 273.328 254.434 273.444C254.355 273.461 254.277 273.467 254.2 273.467ZM248.457 274.524C247.895 274.524 247.4 274.119 247.305 273.548C247.2 272.913 247.631 272.314 248.267 272.207C248.839 272.114 249.411 272.015 249.981 271.914C250.615 271.804 251.223 272.227 251.336 272.861C251.448 273.496 251.024 274.101 250.388 274.211C249.809 274.313 249.229 274.414 248.649 274.51C248.584 274.518 248.52 274.524 248.457 274.524ZM203.729 274.565C203.66 274.565 203.59 274.559 203.52 274.547C202.939 274.443 202.36 274.333 201.781 274.22C201.147 274.095 200.734 273.484 200.858 272.853C200.983 272.221 201.597 271.807 202.23 271.931C202.799 272.041 203.367 272.149 203.936 272.253C204.571 272.366 204.993 272.974 204.878 273.609C204.776 274.171 204.283 274.565 203.729 274.565ZM242.679 275.367C242.1 275.367 241.596 274.936 241.521 274.348C241.44 273.707 241.894 273.125 242.534 273.044C243.109 272.971 243.683 272.896 244.257 272.815C244.892 272.725 245.486 273.174 245.574 273.812C245.663 274.449 245.216 275.037 244.577 275.127C243.994 275.205 243.411 275.283 242.828 275.356C242.778 275.364 242.728 275.367 242.679 275.367ZM209.5 275.469C209.449 275.469 209.397 275.466 209.345 275.457C208.761 275.382 208.177 275.298 207.593 275.214C206.955 275.121 206.513 274.527 206.607 273.89C206.701 273.252 207.294 272.809 207.933 272.908C208.505 272.992 209.078 273.07 209.651 273.145C210.291 273.229 210.741 273.814 210.657 274.455C210.579 275.04 210.077 275.469 209.5 275.469ZM236.877 275.982C236.277 275.982 235.767 275.524 235.714 274.918C235.658 274.275 236.134 273.71 236.776 273.655C237.353 273.606 237.93 273.551 238.506 273.496C239.148 273.432 239.72 273.901 239.783 274.542C239.847 275.182 239.377 275.753 238.735 275.816C238.15 275.874 237.565 275.926 236.979 275.979C236.945 275.982 236.91 275.982 236.877 275.982ZM215.305 276.095C215.272 276.095 215.239 276.092 215.206 276.089C214.619 276.039 214.032 275.987 213.445 275.929C212.802 275.866 212.333 275.295 212.396 274.655C212.459 274.014 213.033 273.545 213.674 273.609C214.249 273.664 214.825 273.716 215.4 273.765C216.044 273.817 216.521 274.382 216.468 275.023C216.417 275.634 215.906 276.095 215.305 276.095ZM231.055 276.367C230.434 276.367 229.917 275.88 229.888 275.254C229.859 274.611 230.357 274.067 231.002 274.038C231.581 274.011 232.159 273.98 232.737 273.948C233.383 273.907 233.934 274.4 233.971 275.043C234.009 275.686 233.517 276.236 232.872 276.274C232.286 276.309 231.698 276.341 231.109 276.367H231.055ZM221.131 276.436H221.09C220.501 276.416 219.913 276.39 219.324 276.361C218.679 276.332 218.182 275.785 218.214 275.141C218.245 274.498 218.798 273.997 219.438 274.032C220.016 274.061 220.594 274.087 221.171 274.104C221.816 274.127 222.32 274.669 222.298 275.312C222.276 275.941 221.757 276.436 221.131 276.436ZM225.216 276.509C224.57 276.509 224.047 275.987 224.047 275.341C224.046 274.698 224.569 274.177 225.215 274.177C225.794 274.177 226.372 274.171 226.95 274.162H226.968C227.606 274.162 228.127 274.672 228.136 275.309C228.146 275.955 227.631 276.483 226.986 276.494C226.396 276.503 225.806 276.506 225.216 276.509ZM515.856 278.711C515.723 278.711 515.583 278.687 515.45 278.638C514.846 278.412 514.538 277.743 514.761 277.137C514.965 276.599 515.159 276.057 515.354 275.512C515.566 274.907 516.234 274.585 516.843 274.799C517.453 275.014 517.772 275.68 517.558 276.289C517.36 276.845 517.16 277.398 516.954 277.952C516.776 278.421 516.332 278.711 515.856 278.711ZM513.652 284.111C513.495 284.111 513.336 284.079 513.182 284.012C512.592 283.752 512.325 283.062 512.587 282.474C512.819 281.947 513.048 281.417 513.272 280.886C513.522 280.292 514.207 280.014 514.802 280.263C515.397 280.516 515.676 281.199 515.426 281.79C515.197 282.335 514.962 282.877 514.724 283.416C514.529 283.853 514.102 284.111 513.652 284.111ZM511.138 289.372C510.958 289.372 510.775 289.331 510.606 289.245C510.032 288.949 509.805 288.248 510.098 287.674C510.363 287.162 510.621 286.646 510.877 286.13C511.161 285.551 511.864 285.313 512.442 285.597C513.019 285.881 513.26 286.579 512.976 287.159C512.714 287.689 512.447 288.213 512.177 288.74C511.971 289.143 511.562 289.372 511.138 289.372ZM508.321 294.48C508.121 294.48 507.918 294.43 507.732 294.32C507.174 293.993 506.989 293.28 507.317 292.724C507.61 292.229 507.897 291.727 508.182 291.226C508.499 290.664 509.213 290.467 509.773 290.783C510.336 291.102 510.534 291.811 510.217 292.373C509.927 292.886 509.631 293.396 509.332 293.906C509.114 294.274 508.725 294.48 508.321 294.48ZM505.223 299.422C505 299.422 504.773 299.358 504.576 299.225C504.039 298.869 503.894 298.145 504.251 297.609C504.57 297.128 504.887 296.647 505.2 296.163C505.549 295.618 506.272 295.465 506.814 295.809C507.357 296.157 507.514 296.881 507.166 297.423C506.846 297.919 506.524 298.411 506.196 298.901C505.97 299.24 505.601 299.422 505.223 299.422Z" fill="#FAF3FE"/>
<path d="M173.826 97.701L176.269 105.683L180.637 100.601L173.826 97.701Z" fill="#7D97F4"/>
<path d="M208.4 82.1579L192.582 107.65C192.279 108.136 191.79 108.481 191.228 108.603C190.665 108.725 190.078 108.612 189.6 108.29L164.547 91.4779C164.26 91.2867 164.119 90.9391 164.19 90.603C164.261 90.2641 164.531 90.0033 164.871 89.9425L208.4 82.1579Z" fill="#91B3FA"/>
<path d="M173.829 97.701L208.4 82.1579L177.864 100.427L178.447 102.67L173.829 97.701Z" fill="#7D97F4"/>
<path d="M180.268 102.023L176.269 105.683L177.864 100.427L180.268 102.023Z" fill="#7D97F4"/>
<defs>
<linearGradient id="paint0_linear" x1="37.4627" y1="208.931" x2="628.644" y2="208.931" gradientUnits="userSpaceOnUse">
<stop stop-color="#DAE3FE"/>
<stop offset="1" stop-color="#E9EFFD"/>
</linearGradient>
<linearGradient id="paint1_linear" x1="266.774" y1="687.227" x2="324.021" y2="260.402" gradientUnits="userSpaceOnUse">
<stop stop-color="#FFC6C0"/>
<stop offset="1" stop-color="#FFD3D2"/>
</linearGradient>
<linearGradient id="paint2_linear" x1="266.774" y1="687.227" x2="324.021" y2="260.402" gradientUnits="userSpaceOnUse">
<stop stop-color="#FFC6C0"/>
<stop offset="1" stop-color="#FFD3D2"/>
</linearGradient>
<linearGradient id="paint3_linear" x1="266.774" y1="687.227" x2="324.021" y2="260.402" gradientUnits="userSpaceOnUse">
<stop stop-color="#FFC6C0"/>
<stop offset="1" stop-color="#FFD3D2"/>
</linearGradient>
<linearGradient id="paint4_linear" x1="266.774" y1="687.227" x2="324.022" y2="260.402" gradientUnits="userSpaceOnUse">
<stop stop-color="#FFC6C0"/>
<stop offset="1" stop-color="#FFD3D2"/>
</linearGradient>
<linearGradient id="paint5_linear" x1="266.775" y1="687.226" x2="324.022" y2="260.402" gradientUnits="userSpaceOnUse">
<stop stop-color="#FFC6C0"/>
<stop offset="1" stop-color="#FFD3D2"/>
</linearGradient>
<linearGradient id="paint6_linear" x1="266.774" y1="687.227" x2="324.022" y2="260.402" gradientUnits="userSpaceOnUse">
<stop stop-color="#FFC6C0"/>
<stop offset="1" stop-color="#FFD3D2"/>
</linearGradient>
<linearGradient id="paint7_linear" x1="266.775" y1="687.226" x2="324.022" y2="260.402" gradientUnits="userSpaceOnUse">
<stop stop-color="#FFC6C0"/>
<stop offset="1" stop-color="#FFD3D2"/>
</linearGradient>
<linearGradient id="paint8_linear" x1="266.774" y1="687.227" x2="324.021" y2="260.402" gradientUnits="userSpaceOnUse">
<stop stop-color="#FFC6C0"/>
<stop offset="1" stop-color="#FFD3D2"/>
</linearGradient>
<linearGradient id="paint9_linear" x1="266.774" y1="687.226" x2="324.021" y2="260.402" gradientUnits="userSpaceOnUse">
<stop stop-color="#FFC6C0"/>
<stop offset="1" stop-color="#FFD3D2"/>
</linearGradient>
<linearGradient id="paint10_linear" x1="266.774" y1="687.226" x2="324.021" y2="260.402" gradientUnits="userSpaceOnUse">
<stop stop-color="#FFC6C0"/>
<stop offset="1" stop-color="#FFD3D2"/>
</linearGradient>
<linearGradient id="paint11_linear" x1="266.772" y1="687.228" x2="324.019" y2="260.402" gradientUnits="userSpaceOnUse">
<stop stop-color="#FFC6C0"/>
<stop offset="1" stop-color="#FFD3D2"/>
</linearGradient>
<linearGradient id="paint12_linear" x1="266.772" y1="687.226" x2="324.019" y2="260.402" gradientUnits="userSpaceOnUse">
<stop stop-color="#FFC6C0"/>
<stop offset="1" stop-color="#FFD3D2"/>
</linearGradient>
<linearGradient id="paint13_linear" x1="34.1284" y1="191.883" x2="37.473" y2="191.883" gradientUnits="userSpaceOnUse">
<stop stop-color="#CCD8FD"/>
<stop offset="1" stop-color="#D9E2FC"/>
</linearGradient>
<linearGradient id="paint14_linear" x1="34.1284" y1="196.773" x2="37.473" y2="196.773" gradientUnits="userSpaceOnUse">
<stop stop-color="#CCD8FD"/>
<stop offset="1" stop-color="#D9E2FC"/>
</linearGradient>
<linearGradient id="paint15_linear" x1="34.1284" y1="201.662" x2="37.473" y2="201.662" gradientUnits="userSpaceOnUse">
<stop stop-color="#CCD8FD"/>
<stop offset="1" stop-color="#D9E2FC"/>
</linearGradient>
<linearGradient id="paint16_linear" x1="40.5459" y1="248.039" x2="93.553" y2="248.039" gradientUnits="userSpaceOnUse">
<stop stop-color="#DAE3FE"/>
<stop offset="1" stop-color="#E9EFFD"/>
</linearGradient>
<linearGradient id="paint17_linear" x1="106.457" y1="227.479" x2="106.51" y2="227.479" gradientUnits="userSpaceOnUse">
<stop stop-color="#4042E2"/>
<stop offset="1" stop-color="#4F52FF"/>
</linearGradient>
<linearGradient id="paint18_linear" x1="106.457" y1="250.969" x2="106.51" y2="250.969" gradientUnits="userSpaceOnUse">
<stop stop-color="#09005D"/>
<stop offset="1" stop-color="#1A0F91"/>
</linearGradient>
<linearGradient id="paint19_linear" x1="106.457" y1="274.46" x2="106.51" y2="274.46" gradientUnits="userSpaceOnUse">
<stop stop-color="#4042E2"/>
<stop offset="1" stop-color="#4F52FF"/>
</linearGradient>
<linearGradient id="paint20_linear" x1="28.2526" y1="327.82" x2="42.4963" y2="327.82" gradientUnits="userSpaceOnUse">
<stop stop-color="#FF928E"/>
<stop offset="1" stop-color="#FEB3B1"/>
</linearGradient>
<linearGradient id="paint21_linear" x1="45.5453" y1="388.807" x2="43.514" y2="406.574" gradientUnits="userSpaceOnUse">
<stop stop-color="#FF928E"/>
<stop offset="1" stop-color="#FEB3B1"/>
</linearGradient>
<linearGradient id="paint22_linear" x1="62.1647" y1="390.708" x2="60.1333" y2="408.475" gradientUnits="userSpaceOnUse">
<stop stop-color="#FF928E"/>
<stop offset="1" stop-color="#FEB3B1"/>
</linearGradient>
<linearGradient id="paint23_linear" x1="94.8482" y1="253.882" x2="80.6863" y2="273.907" gradientUnits="userSpaceOnUse">
<stop stop-color="#FF928E"/>
<stop offset="1" stop-color="#FEB3B1"/>
</linearGradient>
<linearGradient id="paint24_linear" x1="88.8338" y1="249.629" x2="74.6722" y2="269.654" gradientUnits="userSpaceOnUse">
<stop stop-color="#FF928E"/>
<stop offset="1" stop-color="#FEB3B1"/>
</linearGradient>
<linearGradient id="paint25_linear" x1="50.0526" y1="273.867" x2="42.2951" y2="307.464" gradientUnits="userSpaceOnUse">
<stop stop-color="#FF928E"/>
<stop offset="1" stop-color="#FEB3B1"/>
</linearGradient>
<linearGradient id="paint26_linear" x1="48.762" y1="267.363" x2="52.585" y2="289.909" gradientUnits="userSpaceOnUse">
<stop stop-color="#FF928E"/>
<stop offset="1" stop-color="#FEB3B1"/>
</linearGradient>
<linearGradient id="paint27_linear" x1="45.4302" y1="291.971" x2="44.7503" y2="276.14" gradientUnits="userSpaceOnUse">
<stop stop-color="#FF928E"/>
<stop offset="1" stop-color="#FEB3B1"/>
</linearGradient>
<linearGradient id="paint28_linear" x1="10.6262" y1="319.647" x2="-18.3528" y2="345.205" gradientUnits="userSpaceOnUse">
<stop stop-color="#4042E2"/>
<stop offset="1" stop-color="#4F52FF"/>
</linearGradient>
<linearGradient id="paint29_linear" x1="49.8098" y1="336.596" x2="44.3568" y2="346.322" gradientUnits="userSpaceOnUse">
<stop stop-color="#09005D"/>
<stop offset="1" stop-color="#1A0F91"/>
</linearGradient>
<linearGradient id="paint30_linear" x1="440.069" y1="244.355" x2="459.663" y2="289.036" gradientUnits="userSpaceOnUse">
<stop stop-color="#A22B25"/>
<stop offset="1" stop-color="#C0423C"/>
</linearGradient>
<linearGradient id="paint31_linear" x1="462.803" y1="435.066" x2="475.737" y2="283.568" gradientUnits="userSpaceOnUse">
<stop stop-color="#A22B25"/>
<stop offset="1" stop-color="#C0423C"/>
</linearGradient>
<linearGradient id="paint32_linear" x1="488.935" y1="437.32" x2="501.872" y2="285.782" gradientUnits="userSpaceOnUse">
<stop stop-color="#A22B25"/>
<stop offset="1" stop-color="#C0423C"/>
</linearGradient>
<linearGradient id="paint33_linear" x1="461.378" y1="285.739" x2="463.807" y2="267.925" gradientUnits="userSpaceOnUse">
<stop stop-color="#A22B25"/>
<stop offset="1" stop-color="#C0423C"/>
</linearGradient>
<linearGradient id="paint34_linear" x1="471.435" y1="294.422" x2="487.645" y2="294.422" gradientUnits="userSpaceOnUse">
<stop stop-color="#A22B25"/>
<stop offset="1" stop-color="#C0423C"/>
</linearGradient>
<linearGradient id="paint35_linear" x1="455.219" y1="262.774" x2="476.439" y2="224.926" gradientUnits="userSpaceOnUse">
<stop stop-color="#A22B25"/>
<stop offset="1" stop-color="#C0423C"/>
</linearGradient>
<linearGradient id="paint36_linear" x1="459.752" y1="265.314" x2="480.971" y2="227.467" gradientUnits="userSpaceOnUse">
<stop stop-color="#A22B25"/>
<stop offset="1" stop-color="#C0423C"/>
</linearGradient>
<linearGradient id="paint37_linear" x1="436.181" y1="246.06" x2="455.776" y2="290.741" gradientUnits="userSpaceOnUse">
<stop stop-color="#A22B25"/>
<stop offset="1" stop-color="#C0423C"/>
</linearGradient>
<linearGradient id="paint38_linear" x1="426.814" y1="229.586" x2="431.445" y2="229.586" gradientUnits="userSpaceOnUse">
<stop stop-color="#A22B25"/>
<stop offset="1" stop-color="#C0423C"/>
</linearGradient>
<linearGradient id="paint39_linear" x1="523.138" y1="387.623" x2="517.006" y2="386.262" gradientUnits="userSpaceOnUse">
<stop stop-color="#FF928E"/>
<stop offset="1" stop-color="#FEB3B1"/>
</linearGradient>
<linearGradient id="paint40_linear" x1="526.323" y1="394.251" x2="520.568" y2="392.974" gradientUnits="userSpaceOnUse">
<stop stop-color="#FF928E"/>
<stop offset="1" stop-color="#FEB3B1"/>
</linearGradient>
<linearGradient id="paint41_linear" x1="519.015" y1="329.214" x2="498.937" y2="324.76" gradientUnits="userSpaceOnUse">
<stop stop-color="#FF928E"/>
<stop offset="1" stop-color="#FEB3B1"/>
</linearGradient>
<linearGradient id="paint42_linear" x1="538.347" y1="287.918" x2="547.604" y2="309.371" gradientUnits="userSpaceOnUse">
<stop stop-color="#FF928E"/>
<stop offset="1" stop-color="#FEB3B1"/>
</linearGradient>
<linearGradient id="paint43_linear" x1="579.992" y1="293.162" x2="569.579" y2="320.121" gradientUnits="userSpaceOnUse">
<stop stop-color="#FF928E"/>
<stop offset="1" stop-color="#FEB3B1"/>
</linearGradient>
<linearGradient id="paint44_linear" x1="798.864" y1="1108.75" x2="793.716" y2="1092.43" gradientUnits="userSpaceOnUse">
<stop stop-color="#FF928E"/>
<stop offset="1" stop-color="#FEB3B1"/>
</linearGradient>
<linearGradient id="paint45_linear" x1="803.567" y1="1107.3" x2="798.42" y2="1090.98" gradientUnits="userSpaceOnUse">
<stop stop-color="#FF928E"/>
<stop offset="1" stop-color="#FEB3B1"/>
</linearGradient>
</defs>
</svg>
