<svg width="60" height="60" viewBox="0 0 60 60" fill="none" xmlns="http://www.w3.org/2000/svg">
<path d="M35.8007 19.547L26.6953 28.6523C26.3438 28.9687 25.8869 29.1444 25.4649 29.1444C25.008 29.1444 24.5507 28.9687 24.1992 28.6523C23.5313 27.9492 23.5313 26.824 24.1992 26.1562L33.3045 17.0508C33.9729 16.3829 35.0976 16.3829 35.8012 17.0508C36.4686 17.7539 36.4686 18.8791 35.8007 19.547Z" fill="#465A61"/>
<path d="M35.8008 19.547L30 25.3477V20.3554L33.3046 17.0508C33.9725 16.3829 35.0977 16.3829 35.8008 17.0508C36.4687 17.7539 36.4687 18.8791 35.8008 19.547Z" fill="#3B4A51"/>
<path d="M19.8215 30.0682C19.5574 30.0682 19.2896 30.0082 19.0369 29.8828L11.2645 25.9964C10.3957 25.562 10.0437 24.5064 10.4781 23.638C10.9143 22.771 11.9699 22.4171 12.8369 22.8515L20.6093 26.738C21.4782 27.1724 21.8302 28.228 21.3958 29.0964C21.0868 29.713 20.467 30.0682 19.8215 30.0682Z" fill="#465A61"/>
<path d="M39.8449 15.4683C39.3093 15.4683 38.7824 15.2266 38.4373 14.7647C37.8536 13.9888 38.0116 12.8865 38.7893 12.3047L47.2282 5.97746C48.0022 5.39381 49.1027 5.54807 49.6882 6.32902C50.2718 7.10493 50.1139 8.20722 49.3362 8.78904L40.8973 15.1162C40.5814 15.3534 40.2125 15.4683 39.8449 15.4683Z" fill="#3B4A51"/>
<path d="M8.90625 17.5781C5.98801 17.5781 3.63281 19.9333 3.63281 22.8516C3.63281 25.7693 5.98801 28.125 8.90625 28.125C11.8245 28.125 14.1797 25.7693 14.1797 22.8516C14.1797 19.9333 11.8245 17.5781 8.90625 17.5781Z" fill="#FF9A75"/>
<path d="M22.9688 24.6094C20.0505 24.6094 17.6953 26.9646 17.6953 29.8828C17.6953 32.8006 20.0505 35.1562 22.9688 35.1562C25.887 35.1562 28.2422 32.8006 28.2422 29.8828C28.2422 26.9646 25.887 24.6094 22.9688 24.6094Z" fill="#FF7542"/>
<path d="M37.0312 10.5469C34.113 10.5469 31.7578 12.9021 31.7578 15.8203C31.7578 18.7381 34.113 21.0938 37.0312 21.0938C39.9495 21.0938 42.3047 18.7381 42.3047 15.8203C42.3047 12.9021 39.9495 10.5469 37.0312 10.5469Z" fill="#6564C4"/>
<path d="M51.0938 0C48.1755 0 45.8203 2.35519 45.8203 5.27344C45.8203 8.19122 48.1755 10.5469 51.0938 10.5469C54.012 10.5469 56.3672 8.19122 56.3672 5.27344C56.3672 2.35519 54.012 0 51.0938 0Z" fill="#7C7CD9"/>
<path d="M56.3672 19.3359V57.4686H45.8203V19.3359C45.8203 18.3513 46.5935 17.5781 47.5781 17.5781H54.6094C55.594 17.5781 56.3672 18.3513 56.3672 19.3359Z" fill="#7C7CD9"/>
<path d="M42.3047 29.8828V57.4686H31.7578V29.8828C31.7578 28.8982 32.531 28.125 33.5156 28.125H40.5469C41.5315 28.125 42.3047 28.8982 42.3047 29.8828Z" fill="#6564C4"/>
<path d="M28.2422 43.9453V57.4686H17.6953V43.9453C17.6953 42.9607 18.4685 42.1875 19.4531 42.1875H26.4844C27.469 42.1875 28.2422 42.9607 28.2422 43.9453Z" fill="#FF7542"/>
<path d="M14.1797 36.9141V57.4686H3.63281V36.9141C3.63281 35.9294 4.40598 35.1562 5.39062 35.1562H12.4219C13.4065 35.1562 14.1797 35.9294 14.1797 36.9141Z" fill="#FF9A75"/>
<path d="M51.0938 10.5469V0C54.012 0 56.3672 2.35519 56.3672 5.27344C56.3672 8.19122 54.012 10.5469 51.0938 10.5469Z" fill="#7C7CD9"/>
<path d="M56.3672 19.3359V57.4686H51.0938V17.5781H54.6094C55.594 17.5781 56.3672 18.3513 56.3672 19.3359Z" fill="#7C7CD9"/>
<path d="M37.0312 21.0938V10.5469C39.9495 10.5469 42.3047 12.9021 42.3047 15.8203C42.3047 18.7381 39.9495 21.0938 37.0312 21.0938Z" fill="#6564C4"/>
<path d="M42.3047 29.8828V57.4686H37.0312V28.125H40.5469C41.5315 28.125 42.3047 28.8982 42.3047 29.8828Z" fill="#6564C4"/>
<path d="M22.9688 35.1562V24.6094C25.887 24.6094 28.2422 26.9646 28.2422 29.8828C28.2422 32.8006 25.887 35.1562 22.9688 35.1562Z" fill="#FF7542"/>
<path d="M28.2422 43.9453V57.4686H22.9688V42.1875H26.4844C27.469 42.1875 28.2422 42.9607 28.2422 43.9453Z" fill="#FF7542"/>
<path d="M8.90625 28.125V17.5781C11.8245 17.5781 14.1797 19.9333 14.1797 22.8516C14.1797 25.7693 11.8245 28.125 8.90625 28.125Z" fill="#FF9A75"/>
<path d="M14.1797 36.9141V57.4686H8.90625V35.1562H12.4219C13.4065 35.1562 14.1797 35.9294 14.1797 36.9141Z" fill="#FF9A75"/>
<path d="M60 58.2422C60 59.2264 59.2268 60 58.2422 60H1.75781C0.773163 60 0 59.2264 0 58.2422C0 57.2575 0.773163 56.4844 1.75781 56.4844H58.2422C59.2268 56.4844 60 57.2575 60 58.2422Z" fill="#465A61"/>
<path d="M60 58.2422C60 59.2264 59.2268 60 58.2422 60H30V56.4844H58.2422C59.2268 56.4844 60 57.2575 60 58.2422Z" fill="#3B4A51"/>
</svg>
