<svg width="60" height="60" viewBox="0 0 60 60" fill="none" xmlns="http://www.w3.org/2000/svg">
<g clip-path="url(#clip0)">
<path d="M47.2478 6.71074C42.2326 2.99695 36.2834 1.03453 30.0402 1.03453C24.3475 1.03453 18.6919 2.67316 14.4826 5.48484V1.03453C14.4826 0.463477 14.0192 0 13.4481 0C12.8771 0 12.4136 0.463477 12.4136 1.03453V7.54242C12.4136 7.94379 12.6453 8.30895 13.0084 8.47863C13.3716 8.64832 13.8008 8.59348 14.1092 8.33789C18.0546 5.06063 24.0102 3.10336 30.0402 3.10336C35.8364 3.10336 41.3605 4.92609 46.0157 8.3741C46.2008 8.51063 46.4171 8.57684 46.6312 8.57684C46.9477 8.57684 47.2601 8.43199 47.4628 8.15789C47.8034 7.69863 47.7061 7.05106 47.2478 6.71074Z" fill="#6564C4"/>
<path d="M58.9652 12.4138H52.4573C52.056 12.4138 51.6919 12.6455 51.5211 13.0087C51.3504 13.3717 51.4063 13.8011 51.6619 14.1094C54.9391 18.0539 56.8964 24.0094 56.8964 30.0405C56.8964 35.8367 55.0737 41.3608 51.6257 46.0159C51.2853 46.4752 51.3825 47.1228 51.8408 47.4632C52.026 47.5997 52.2422 47.6659 52.4563 47.6659C52.7728 47.6659 53.0852 47.5211 53.288 47.247C57.0018 42.2329 58.9642 36.2825 58.9642 30.0394C58.9642 24.3467 57.3255 18.6911 54.5139 14.4818H58.9642C59.5352 14.4818 59.9987 14.0183 59.9987 13.4473C59.9987 12.8762 59.5363 12.4138 58.9652 12.4138Z" fill="#6564C4"/>
<path d="M46.9913 51.5215C46.6281 51.3507 46.1989 51.4056 45.8905 51.6622C41.946 54.9395 35.9905 56.8967 29.9605 56.8967C24.1633 56.8967 18.6392 55.074 13.984 51.626C13.5248 51.2857 12.8772 51.3829 12.5368 51.8411C12.1964 52.3004 12.2937 52.948 12.7519 53.2884C17.766 57.0022 23.7164 58.9646 29.9595 58.9646C35.6512 58.9646 41.3078 57.326 45.5171 54.5143V58.9657C45.5171 59.5367 45.9805 60.0002 46.5516 60.0002C47.1226 60.0002 47.5861 59.5367 47.5861 58.9657V52.4578C47.5861 52.0563 47.3544 51.6911 46.9913 51.5215Z" fill="#6564C4"/>
<path d="M8.33898 45.8907C5.05973 41.9452 3.10352 35.9907 3.10352 29.9596C3.10352 24.1634 4.92625 18.6393 8.37426 13.9842C8.71457 13.5249 8.61742 12.8773 8.1591 12.5369C7.69984 12.1976 7.05227 12.2939 6.71184 12.7521C2.99793 17.7662 1.03551 23.7165 1.03551 29.9596C1.03551 35.6524 2.67414 41.308 5.48582 45.5172H1.03551C0.464453 45.5172 0.000976562 45.9807 0.000976562 46.5518C0.000976562 47.1228 0.464453 47.5863 1.03551 47.5863H7.5434C7.94477 47.5863 8.30992 47.3546 8.47961 46.9914C8.65035 46.6283 8.59551 46.1989 8.33898 45.8907Z" fill="#6564C4"/>
<path d="M29.9999 36.207C33.4279 36.207 36.2069 33.4281 36.2069 30C36.2069 26.572 33.4279 23.7931 29.9999 23.7931C26.5719 23.7931 23.793 26.572 23.793 30C23.793 33.4281 26.5719 36.207 29.9999 36.207Z" fill="#FF7542"/>
<path d="M46.5515 26.8966H44.554C44.1008 26.8966 43.7026 26.6141 43.5837 26.2096C43.2061 24.9269 42.8315 23.9534 42.4405 23.2344C42.2367 22.8599 42.3164 22.3748 42.636 22.0552L44.0501 20.6411C44.2446 20.4466 44.3531 20.1838 44.3531 19.9097C44.3531 19.6356 44.2445 19.3718 44.0501 19.1783L40.8214 15.9497C40.4169 15.5452 39.7631 15.5452 39.3587 15.9497L37.9446 17.3628C37.6249 17.6825 37.1408 17.7631 36.7653 17.5593C36.0484 17.1682 35.075 16.7938 33.7902 16.4152C33.3856 16.2962 33.1032 15.8979 33.1032 15.4449V13.4483C33.1032 12.8773 32.6397 12.4138 32.0687 12.4138H27.9308C27.3597 12.4138 26.8963 12.8773 26.8963 13.4483V15.4459C26.8963 15.899 26.6138 16.2973 26.2093 16.4162C24.9245 16.7949 23.952 17.1694 23.2352 17.5593C22.8597 17.7631 22.3745 17.6823 22.056 17.3638L20.6429 15.9508C20.2384 15.5462 19.5846 15.5462 19.1802 15.9508L15.9515 19.1794C15.757 19.3739 15.6485 19.6367 15.6485 19.9108C15.6485 20.1849 15.7571 20.4487 15.9515 20.6421L17.3656 22.0562C17.6853 22.3759 17.766 22.8611 17.5611 23.2355C17.169 23.9544 16.7946 24.9279 16.4179 26.2107C16.299 26.6152 15.8996 26.8976 15.4476 26.8976H13.4501C12.879 26.8976 12.4155 27.3611 12.4155 27.9321V32.07C12.4155 32.6411 12.879 33.1046 13.4501 33.1046H15.4476C15.9008 33.1046 16.299 33.387 16.4179 33.7915C16.7955 35.0742 17.169 36.0477 17.5611 36.7667C17.7649 37.1412 17.6852 37.6264 17.3656 37.9459L15.9515 39.36C15.757 39.5546 15.6485 39.8173 15.6485 40.0914C15.6485 40.3655 15.7571 40.6293 15.9515 40.8228L19.1802 44.0514C19.5847 44.4559 20.2385 44.4559 20.6429 44.0514L22.057 42.6383C22.3767 42.3187 22.8619 42.2391 23.2353 42.4418C23.9532 42.8329 24.9256 43.2073 26.2105 43.5859C26.615 43.7049 26.8974 44.1032 26.8974 44.5562V46.5517C26.8974 47.1228 27.3609 47.5862 27.932 47.5862H32.0699C32.6409 47.5862 33.1044 47.1228 33.1044 46.5517V44.5541C33.1044 44.1011 33.3868 43.7028 33.7923 43.5838C35.0761 43.2052 36.0496 42.8317 36.7664 42.4408C37.1419 42.2359 37.6261 42.3177 37.9456 42.6362L39.3597 44.0493C39.7643 44.4538 40.4181 44.4538 40.8225 44.0493L44.0511 40.8207C44.2456 40.6261 44.3542 40.3634 44.3542 40.0893C44.3542 39.8152 44.2455 39.5514 44.0511 39.3579L42.637 37.9438C42.3173 37.6241 42.2367 37.14 42.4415 36.7646C42.8337 36.0446 43.2081 35.0711 43.5846 33.7894C43.7035 33.3849 44.1029 33.1024 44.5549 33.1024H46.5525C47.1235 33.1024 47.587 32.639 47.587 32.0679V27.93C47.5861 27.36 47.1226 26.8966 46.5515 26.8966ZM29.9999 38.2759C25.4368 38.2759 21.724 34.5632 21.724 30C21.724 25.4369 25.4367 21.7241 29.9999 21.7241C34.563 21.7241 38.2758 25.4369 38.2758 30C38.2758 34.5632 34.5629 38.2759 29.9999 38.2759Z" fill="#FF7542"/>
</g>
<defs>
<clipPath id="clip0">
<rect width="60" height="60" fill="white"/>
</clipPath>
</defs>
</svg>
