<svg width="65" height="65" viewBox="0 0 65 65" fill="none" xmlns="http://www.w3.org/2000/svg">
<path d="M32.5 5.4165C17.55 5.4165 5.41667 17.5498 5.41667 32.4998C5.41667 47.4498 17.55 59.5832 32.5 59.5832C47.45 59.5832 59.5833 47.4498 59.5833 32.4998C59.5833 17.5498 47.45 5.4165 32.5 5.4165ZM32.5 54.1665C20.5563 54.1665 10.8333 44.4436 10.8333 32.4998C10.8333 20.5561 20.5563 10.8332 32.5 10.8332C44.4438 10.8332 54.1667 20.5561 54.1667 32.4998C54.1667 44.4436 44.4438 54.1665 32.5 54.1665ZM44.9313 20.529L27.0833 38.3769L20.0688 31.3894L16.25 35.2082L27.0833 46.0415L48.75 24.3748L44.9313 20.529Z" fill="white"/>
</svg>
