<svg width="60" height="60" viewBox="0 0 60 60" fill="none" xmlns="http://www.w3.org/2000/svg">
<path d="M60 34.08V25.9024L53.3561 24.9212C52.7459 22.1307 51.6385 19.4727 50.0868 17.0744L54.0995 11.6788L48.319 5.89829L42.9088 9.89634C40.5158 8.34966 37.8637 7.24691 35.0795 6.64098L34.08 0H25.9024L24.9212 6.64317C22.1314 7.24851 19.4734 8.35123 17.0744 9.89854L11.6788 5.90049L5.89829 11.681L9.89634 17.0766C8.34903 19.4756 7.24632 22.1336 6.64098 24.9234L0 25.9024V34.08L6.64317 35.0759C7.24911 37.86 8.35185 40.5121 9.89854 42.9051L5.90049 48.3154L11.681 54.0959L17.0766 50.0832C19.4749 51.6362 22.1331 52.7448 24.9241 53.3561L25.9024 60H34.08L35.0759 53.3561C37.8608 52.7453 40.5129 51.6379 42.9051 50.0868L48.3154 54.0995L54.0959 48.319L50.0832 42.9088C51.6342 40.5165 52.7417 37.8644 53.3524 35.0795L60 34.08ZM29.9912 46.0595C26.8157 46.0578 23.712 45.1146 21.0723 43.3493C18.4327 41.584 16.3757 39.0758 15.1613 36.1417C13.9468 33.2075 13.6296 29.9792 14.2495 26.8648C14.8694 23.7504 16.3988 20.8896 18.6442 18.6442C20.8896 16.3988 23.7504 14.8694 26.8648 14.2495C29.9792 13.6296 33.2075 13.9468 36.1417 15.1613C39.0758 16.3757 41.584 18.4327 43.3493 21.0723C45.1146 23.712 46.0578 26.8157 46.0595 29.9912C46.0608 32.1017 45.646 34.1917 44.8389 36.1418C44.0319 38.0918 42.8483 39.8637 41.356 41.356C39.8637 42.8483 38.0918 44.0319 36.1418 44.8389C34.1917 45.646 32.1017 46.0608 29.9912 46.0595V46.0595Z" fill="#6564C4"/>
</svg>
