<svg width="100" height="100" viewBox="0 0 100 100" fill="none" xmlns="http://www.w3.org/2000/svg">
<g clip-path="url(#clip0)">
<path d="M49.9992 20.6748C54.8579 20.6748 58.7967 16.736 58.7967 11.8773C58.7967 7.01859 54.8579 3.07983 49.9992 3.07983C45.1405 3.07983 41.2018 7.01859 41.2018 11.8773C41.2018 16.736 45.1405 20.6748 49.9992 20.6748Z" fill="#FF7542"/>
<path d="M64.2776 15.1067C62.7989 21.6379 56.9721 26.5399 50.0002 26.5399C43.0284 26.5399 37.2016 21.6379 35.7229 15.1067C30.4786 16.2752 26.5403 20.9477 26.5403 26.5399V38.27C26.5403 41.5032 29.1721 44.135 32.4053 44.135C35.6385 44.135 38.2704 41.5032 38.2704 38.27V32.4049H61.7303V38.27C61.7303 41.5032 64.3622 44.135 67.5954 44.135C70.8286 44.135 73.4604 41.5032 73.4604 38.27V26.5399C73.4602 20.9477 69.5217 16.2752 64.2776 15.1067Z" fill="#FF7542"/>
<path d="M95.4525 74.7503C91.2445 72.3208 85.8642 73.7623 83.4347 77.9703C81.0054 82.1779 82.447 87.5585 86.655 89.9876C90.8626 92.4171 96.4388 90.9753 98.8679 86.7677C101.297 82.5599 99.6601 77.1796 95.4525 74.7503Z" fill="#FF9A75"/>
<path d="M90.0854 54.7209L79.9272 48.8558C77.127 47.2392 73.5321 48.2025 71.9155 51.0027C70.2989 53.8029 71.2621 57.3978 74.0623 59.0144L79.1416 61.9468L67.4116 82.2638L62.3323 79.3314C59.5321 77.7148 55.9372 78.6781 54.3206 81.4783C52.7039 84.2785 53.6672 87.8734 56.4674 89.49L66.6256 95.355C71.469 98.1511 77.4846 97.0765 81.1184 93.1191C76.2016 88.573 74.8696 81.076 78.3555 75.0379C81.8414 68.9998 89 66.4051 95.3957 68.3898C97.0061 63.2642 94.9287 57.517 90.0854 54.7209Z" fill="#FF9A75"/>
<path d="M16.5654 77.9706C14.1359 73.7626 8.75564 72.321 4.54763 74.7507C0.340012 77.18 -1.29749 82.5602 1.1322 86.7682C3.5613 90.9759 9.13747 92.4177 13.3451 89.9882C17.5531 87.5587 18.9947 82.1782 16.5654 77.9706Z" fill="#6564C4"/>
<path d="M45.6797 81.4785C44.0631 78.6783 40.4679 77.7152 37.6679 79.3316L32.5886 82.264L20.8586 61.947L25.9379 59.0146C28.7381 57.398 29.7011 53.8029 28.0847 51.0029C26.4681 48.2027 22.873 47.2396 20.073 48.856L9.91482 54.721C5.07146 57.5171 2.99411 63.2644 4.60466 68.3902C11.0002 66.4052 18.159 69.0001 21.6449 75.0382C25.1308 81.0763 23.7988 88.5732 18.882 93.1195C22.5158 97.0767 28.5314 98.1515 33.3748 95.3554L43.533 89.4902C46.333 87.8736 47.2963 84.2785 45.6797 81.4785Z" fill="#6564C4"/>
</g>
<defs>
<clipPath id="clip0">
<rect width="100" height="100" fill="white"/>
</clipPath>
</defs>
</svg>
