<svg width="100" height="100" viewBox="0 0 100 100" fill="none" xmlns="http://www.w3.org/2000/svg">
<g clip-path="url(#clip0)">
<path d="M49.9992 20.6748C54.8579 20.6748 58.7967 16.7361 58.7967 11.8774C58.7967 7.01865 54.8579 3.0799 49.9992 3.0799C45.1405 3.0799 41.2018 7.01865 41.2018 11.8774C41.2018 16.7361 45.1405 20.6748 49.9992 20.6748Z" fill="#FF7542"/>
<path d="M64.2776 15.1066C62.7988 21.6379 56.9721 26.5398 50.0002 26.5398C43.0283 26.5398 37.2016 21.6379 35.7229 15.1066C30.4785 16.2752 26.5403 20.9476 26.5403 26.5398V38.2699C26.5403 41.5031 29.1721 44.135 32.4053 44.135C35.6385 44.135 38.2703 41.5031 38.2703 38.2699V32.4049H61.7303V38.2699C61.7303 41.5031 64.3621 44.135 67.5953 44.135C70.8285 44.135 73.4604 41.5031 73.4604 38.2699V26.5398C73.4602 20.9476 69.5217 16.2752 64.2776 15.1066Z" fill="#FF7542"/>
<path d="M95.4525 74.7503C91.2445 72.3208 85.8642 73.7623 83.4347 77.9703C81.0055 82.1779 82.4471 87.5585 86.6551 89.9876C90.8627 92.4171 96.4388 90.9753 98.8679 86.7677C101.297 82.5599 99.6601 77.1796 95.4525 74.7503Z" fill="#FF9A75"/>
<path d="M90.0853 54.7209L79.9271 48.8558C77.1269 47.2392 73.532 48.2025 71.9154 51.0027C70.2988 53.8029 71.2621 57.3978 74.0623 59.0144L79.1416 61.9468L67.4115 82.2638L62.3322 79.3314C59.532 77.7148 55.9371 78.6781 54.3205 81.4783C52.7039 84.2785 53.6672 87.8734 56.4674 89.49L66.6256 95.355C71.4689 98.1511 77.4845 97.0765 81.1183 93.1191C76.2015 88.573 74.8695 81.076 78.3554 75.0379C81.8414 68.9998 89 66.4051 95.3957 68.3898C97.006 63.2642 94.9287 57.517 90.0853 54.7209Z" fill="#FF9A75"/>
<path d="M16.5654 77.9705C14.1359 73.7625 8.75567 72.3209 4.54766 74.7506C0.340043 77.1799 -1.29746 82.5602 1.13223 86.7682C3.56133 90.9758 9.1375 92.4176 13.3451 89.9881C17.5531 87.5586 18.9947 82.1782 16.5654 77.9705Z" fill="#6564C4"/>
<path d="M45.6797 81.4783C44.0631 78.6781 40.468 77.715 37.668 79.3315L32.5887 82.2639L20.8586 61.9469L25.9379 59.0145C28.7381 57.3979 29.7012 53.8027 28.0848 51.0027C26.4682 48.2025 22.8731 47.2395 20.0731 48.8559L9.91485 54.7209C5.07149 57.517 2.99414 63.2643 4.60469 68.39C11.0002 66.4051 18.159 69 21.6449 75.0381C25.1309 81.0762 23.7988 88.5731 18.882 93.1193C22.5158 97.0766 28.5315 98.1514 33.3748 95.3553L43.533 89.49C46.333 87.8734 47.2963 84.2783 45.6797 81.4783Z" fill="#6564C4"/>
</g>
<defs>
<clipPath id="clip0">
<rect width="100" height="100" fill="white"/>
</clipPath>
</defs>
</svg>
