<svg width="100" height="100" viewBox="0 0 100 100" fill="none" xmlns="http://www.w3.org/2000/svg">
<g clip-path="url(#clip0)">
<path d="M21.6979 24.1241C19.5129 11.4731 29.2961 0 42.0021 0C54.7393 0 64.4569 11.4883 62.3153 24.0746C62.0437 25.6691 60.5308 26.7433 58.9355 26.4702C57.3402 26.1993 56.2675 24.6864 56.5391 23.0919C58.0787 14.0442 51.0826 5.85709 42.0021 5.85709C32.8651 5.85709 25.9147 14.109 27.4719 23.1278C27.7473 24.7215 26.6776 26.2367 25.0831 26.5114C23.4962 26.7868 21.9741 25.724 21.6979 24.1241Z" fill="#7C7CD9"/>
<path d="M62.3147 24.0745C62.0438 25.6691 60.5302 26.7433 58.9364 26.4702C57.3403 26.1986 56.2684 24.6872 56.54 23.0919C58.0689 14.1029 51.1742 5.96463 42.1799 5.85935V0.0022583C54.8287 0.107544 64.4479 11.5471 62.3147 24.0745Z" fill="#7C7CD9"/>
<path d="M71.2013 99.9672H47.3449C43.312 99.9672 39.4172 98.2804 36.6584 95.34L16.8785 74.2493C13.4773 70.6772 13.6688 65.0009 17.3545 61.6707C20.8511 58.5114 26.3824 58.754 29.6859 62.2124L33.1275 65.815V20.6963C33.1275 15.7433 37.2215 11.7722 42.1806 11.9133C46.9055 12.043 50.7484 16.037 50.7484 20.8176V38.7512C54.8721 37.3207 59.4543 39.1457 61.4593 43.0786C65.7157 40.9744 70.967 42.6453 73.178 46.9834C78.9916 44.1101 85.8497 48.365 85.8497 54.8645V85.3234C85.8497 93.3983 79.2785 99.9672 71.2013 99.9672Z" fill="#FF7542"/>
<path d="M73.1782 46.9826C70.9672 42.646 65.7151 40.9744 61.4594 43.0779C59.4536 39.1457 54.8714 37.32 50.7485 38.7512V20.8176C50.7485 16.0378 46.9048 12.043 42.1799 11.9141V99.0219C45.4941 100.272 45.1974 99.9672 71.2014 99.9672C79.2779 99.9672 85.8498 93.3991 85.8498 85.3233V54.8645C85.8498 48.365 78.991 44.1109 73.1782 46.9826Z" fill="#FF7542"/>
</g>
<defs>
<clipPath id="clip0">
<rect width="100" height="100" fill="white"/>
</clipPath>
</defs>
</svg>
