<svg width="95" height="97" viewBox="0 0 95 97" fill="none" xmlns="http://www.w3.org/2000/svg">
<g clip-path="url(#clip0)">
<path d="M68.8092 1.95959C55.7085 1.95959 45.0515 12.6211 45.0515 25.7274C45.0515 29.8151 46.0957 33.8047 48.0779 37.3431L45.1881 46.0187C44.8814 46.9342 45.1005 47.94 45.7553 48.6492C46.4272 49.3761 47.4307 49.6456 48.3306 49.4152L58.1343 46.9652C61.4288 48.6234 65.097 49.4951 68.8092 49.4951C81.9099 49.4951 92.5668 38.8336 92.5668 25.7274C92.5668 12.6211 81.9099 1.95959 68.8092 1.95959ZM68.8092 38.9317C67.3514 38.9317 66.1695 37.7493 66.1695 36.2908C66.1695 34.8323 67.3514 33.6499 68.8092 33.6499C70.267 33.6499 71.4489 34.8323 71.4489 36.2908C71.4489 37.7493 70.267 38.9317 68.8092 38.9317ZM72.493 27.4605C71.8692 27.7906 71.4489 28.6365 71.4489 29.5675C71.4489 31.0272 70.2683 32.2084 68.8092 32.2084C67.3501 32.2084 66.1695 31.0272 66.1695 29.5675C66.1695 26.6377 67.6518 24.0407 70.0337 22.7874C70.9076 22.3282 71.4489 21.4308 71.4489 20.4456C71.4489 18.9886 70.2656 17.8048 68.8092 17.8048C67.3528 17.8048 66.1695 18.9886 66.1695 20.4456C66.1695 21.9053 64.9888 23.0865 63.5297 23.0865C62.0706 23.0865 60.89 21.9053 60.89 20.4456C60.89 16.0769 64.4424 12.523 68.8092 12.523C73.176 12.523 76.7284 16.0769 76.7284 20.4456C76.7284 23.3985 75.1043 26.0858 72.493 27.4605Z" fill="#FF7542"/>
<g clip-path="url(#clip1)">
<path d="M39.9174 51.6266C39.9174 55.5823 38.4994 59.0063 35.7022 61.8052C32.905 64.6036 29.4819 66.0222 25.5279 66.0222H25.5211C21.572 66.0208 18.1513 64.6023 15.354 61.8052C12.5564 59.0063 11.1388 55.5823 11.1388 51.6266C11.1388 47.6722 12.5564 44.2477 15.354 41.4493C18.1499 38.6518 21.5707 37.2337 25.5211 37.2323H25.5279C29.4806 37.2323 32.9036 38.6509 35.7022 41.4493C38.4994 44.2477 39.9174 47.6722 39.9174 51.6266Z" fill="#6564C4"/>
<path d="M50.8269 86.721C50.8269 89.8418 49.8347 92.3685 47.8802 94.2294C45.9485 96.0684 43.3938 97 40.2875 97H11.5212C8.41498 97 5.86024 96.0684 3.92994 94.2294C1.97411 92.3671 0.983208 89.8409 0.983208 86.721C0.983208 85.5208 1.02286 84.3334 1.10217 83.1916C1.18285 82.0243 1.34602 80.7539 1.58668 79.4137C1.82917 78.0626 2.14093 76.7854 2.51423 75.6181C2.90166 74.4097 3.42583 73.2177 4.07443 72.0759C4.74809 70.8908 5.53936 69.8584 6.42634 69.0085C7.35617 68.1188 8.49293 67.4043 9.80699 66.8836C11.1165 66.3656 12.5682 66.1029 14.1216 66.1029C14.731 66.1029 15.3212 66.3523 16.4589 67.0938C17.1709 67.5584 17.9913 68.0874 18.897 68.6665C19.6791 69.1653 20.7384 69.6332 22.0479 70.0559C23.1988 70.4284 24.367 70.6364 25.5211 70.6724C25.6482 70.677 25.7754 70.6792 25.9026 70.6792C27.1843 70.6792 28.4806 70.469 29.7586 70.0559C31.0681 69.6332 32.1288 69.1653 32.9104 68.6665C33.8257 68.0815 34.6461 67.553 35.3476 67.0951C36.4862 66.3523 37.0755 66.1029 37.6863 66.1029C39.2383 66.1029 40.69 66.3656 42.0004 66.8836C43.3145 67.4043 44.4512 68.1202 45.3801 69.0085C46.2685 69.8584 47.0598 70.8908 47.733 72.0759C48.382 73.2186 48.9071 74.4097 49.2932 75.6167C49.6669 76.7854 49.9796 78.0626 50.2221 79.4147C50.4614 80.7562 50.625 82.0266 50.7052 83.1907C50.7859 84.3289 50.8256 85.5163 50.8269 86.721Z" fill="#6564C4"/>
<path d="M25.5279 66.0222H25.5211V37.2323H25.5279C29.4806 37.2323 32.9036 38.6509 35.7022 41.4493C38.4994 44.2477 39.9174 47.6722 39.9174 51.6266C39.9174 55.5823 38.4994 59.0063 35.7022 61.8052C32.905 64.6036 29.4819 66.0222 25.5279 66.0222Z" fill="#6564C4"/>
<path d="M50.8269 86.721C50.8269 89.8418 49.8347 92.3685 47.8802 94.2294C45.9485 96.0684 43.3938 97 40.2875 97H25.5211V70.6724C25.6482 70.677 25.7754 70.6792 25.9026 70.6792C27.1843 70.6792 28.4805 70.469 29.7586 70.0559C31.0681 69.6332 32.1288 69.1653 32.9104 68.6665C33.8257 68.0815 34.6461 67.553 35.3476 67.0951C36.4862 66.3523 37.0755 66.1029 37.6863 66.1029C39.2383 66.1029 40.69 66.3656 42.0004 66.8836C43.3145 67.4043 44.4512 68.1202 45.3801 69.0085C46.2685 69.8584 47.0598 70.8908 47.733 72.0759C48.382 73.2186 48.9071 74.4097 49.2932 75.6167C49.6669 76.7854 49.9796 78.0626 50.2221 79.4147C50.4614 80.7562 50.625 82.0266 50.7052 83.1907C50.7859 84.3289 50.8256 85.5163 50.8269 86.721Z" fill="#6564C4"/>
</g>
</g>
<defs>
<clipPath id="clip0">
<rect width="95" height="97" fill="white"/>
</clipPath>
<clipPath id="clip1">
<rect width="59.7423" height="59.7677" fill="white" transform="translate(-3.91753 37.2323)"/>
</clipPath>
</defs>
</svg>
