<svg width="144" height="53" viewBox="0 0 144 53" fill="none" xmlns="http://www.w3.org/2000/svg">
<g clip-path="url(#clip0)">
<path d="M0.0198626 19.4609C0.00777206 19.7377 7.81115e-05 20.0155 7.81115e-05 20.2989C7.81115e-05 34.1424 16.4563 48.381 18.8656 50.2481V37.2643C23.589 37.2638 28.1403 35.5136 31.6203 32.3595C35.1003 29.2055 37.2558 24.877 37.6609 20.2294C37.6821 19.979 37.6986 19.7257 37.7103 19.4695C37.7224 19.1906 37.7301 18.9094 37.7301 18.6272C37.7488 16.1685 37.2746 13.7305 36.3348 11.4538C35.395 9.17696 34.0082 7.10639 32.2543 5.36139C30.5004 3.6164 28.4142 2.2315 26.1158 1.28652C23.8175 0.341546 21.3525 -0.144818 18.8629 -0.144531C16.3733 -0.144245 13.9084 0.342686 11.6103 1.28819C9.31213 2.2337 7.22621 3.61908 5.47275 5.36447C3.71929 7.10987 2.33297 9.18076 1.3937 11.4578C0.454429 13.7348 -0.0192124 16.1729 7.81115e-05 18.6315C7.81115e-05 18.9094 0.00777206 19.1862 0.0198626 19.4609ZM18.9975 31.7412C16.3721 31.7414 13.8055 30.9727 11.6225 29.5324C9.43937 28.092 7.7378 26.0446 6.73294 23.6491C5.72807 21.2537 5.46504 18.6177 5.97711 16.0746C6.48917 13.5315 7.75334 11.1955 9.60973 9.36195C11.4661 7.52842 13.8314 6.27973 16.4064 5.7738C18.9813 5.26787 21.6504 5.52743 24.076 6.51964C26.5016 7.51185 28.5749 9.19215 30.0335 11.3481C31.4922 13.504 32.2707 16.0386 32.2707 18.6315C32.2707 22.1082 30.8723 25.4426 28.3832 27.9011C25.894 30.3596 22.5179 31.7409 18.9975 31.7412Z" fill="white"/>
<path d="M18.9975 10.916C17.9716 10.915 16.9556 11.1142 16.0079 11.5022C16.4187 11.74 16.7691 12.0674 17.0323 12.4593C17.2955 12.8513 17.4644 13.2975 17.5263 13.7638C17.5882 14.2302 17.5413 14.7043 17.3893 15.15C17.2373 15.5957 16.9841 16.0012 16.6492 16.3355C16.3142 16.6698 15.9063 16.9241 15.4566 17.0789C15.007 17.2337 14.5274 17.285 14.0546 17.2288C13.5818 17.1726 13.1282 17.0104 12.7286 16.7547C12.329 16.4989 11.9938 16.1563 11.7487 15.753C11.1247 17.2857 11.0151 18.9756 11.4362 20.5743C11.8573 22.173 12.7868 23.596 14.0879 24.634C15.389 25.672 16.9932 26.2702 18.6643 26.3406C20.3354 26.411 21.9852 25.9499 23.3711 25.0251C24.7571 24.1003 25.8059 22.7606 26.3633 21.2031C26.9207 19.6457 26.9573 17.9527 26.4676 16.3731C25.978 14.7936 24.988 13.411 23.6433 12.4286C22.2986 11.4463 20.6701 10.9161 18.9975 10.916Z" fill="white"/>
<path d="M42.7388 10.0356C43.1539 10.2109 43.5111 10.4974 43.7698 10.8628C44.0482 11.2442 44.1717 11.5886 44.1402 11.8962C44.1087 12.2038 43.8673 12.4154 43.4159 12.5312C42.9652 12.6477 42.2138 12.5258 41.1615 12.1654C41.1491 11.6473 41.2653 11.1341 41.5001 10.6707C41.725 10.2473 42.1379 10.0356 42.7388 10.0356ZM42.2882 21.9611C42.2882 21.8341 42.2882 21.6267 42.3047 21.3412C42.3211 21.0557 42.3255 20.7529 42.3365 20.4348C42.3475 20.1168 42.3574 19.8096 42.3684 19.5121C42.3794 19.2147 42.3849 19.003 42.3849 18.876C42.6231 18.5349 42.937 18.252 43.3027 18.0489C43.6658 17.8424 44.0487 17.6719 44.4458 17.5398C44.5236 18.772 44.7074 19.9954 44.9953 21.1969C45.2958 22.4901 45.6178 23.7887 45.9615 25.0928C46.3051 26.3968 46.6111 27.6849 46.8793 28.9572C47.1361 30.1277 47.2709 31.3211 47.2815 32.5187C47.2815 33.4725 46.7877 33.9494 45.7999 33.9494C45.507 33.9518 45.2176 33.8869 44.9545 33.7597C44.6914 33.6325 44.4619 33.4466 44.2842 33.2167C43.8423 32.6637 43.5104 32.0332 43.306 31.3583C43.0424 30.5374 42.8432 29.6976 42.7102 28.8464C42.5624 27.9475 42.4604 27.0417 42.4047 26.1327C42.3504 25.2426 42.3182 24.4262 42.308 23.6838C42.2977 22.9413 42.2911 22.367 42.2882 21.9611Z" fill="white"/>
<path d="M45.7977 34.3301C45.4486 34.333 45.1036 34.2561 44.7895 34.1054C44.4755 33.9548 44.201 33.7345 43.9875 33.4617C43.5141 32.8721 43.1576 32.1996 42.9367 31.4795C42.6672 30.6397 42.4632 29.7808 42.3267 28.9101C42.1768 27.9968 42.0733 27.0766 42.0167 26.153C41.9629 25.2607 41.9299 24.4313 41.92 23.6867C41.909 22.9854 41.9035 22.3841 41.9035 21.964C41.9035 21.8239 41.909 21.6036 41.92 21.329C41.9288 21.0822 41.9379 20.8231 41.9475 20.5517V20.4247C41.9577 20.107 41.9684 19.7995 41.9793 19.502C41.9903 19.2014 41.9947 18.9984 41.9947 18.88V18.7617L42.0629 18.664C42.3342 18.2762 42.6912 17.9544 43.1071 17.7229C43.4911 17.5033 43.896 17.3215 44.3161 17.1801L44.7942 17.0227L44.8217 17.5199C44.8982 18.7304 45.0784 19.9324 45.3603 21.1129C45.6581 22.3949 45.9824 23.7019 46.3231 24.998C46.6639 26.2941 46.976 27.6032 47.2453 28.8798C47.5073 30.076 47.645 31.2956 47.6564 32.5195C47.6641 33.6864 47.0013 34.3301 45.7977 34.3301ZM42.7685 18.9962C42.7685 19.1221 42.7619 19.2936 42.7531 19.5205C42.7421 19.8179 42.7311 20.124 42.7213 20.4421V20.5702C42.7117 20.8423 42.7026 21.1021 42.6938 21.3496C42.6806 21.6861 42.6784 21.8652 42.6784 21.9564C42.6784 22.3776 42.6839 22.9702 42.6949 23.6682C42.7048 24.4009 42.7377 25.2194 42.7905 26.0998C42.8454 26.9979 42.9459 27.8928 43.0917 28.781C43.2217 29.6129 43.4161 30.4338 43.6731 31.2364C43.864 31.8668 44.1735 32.456 44.5854 32.9732C44.7271 33.1592 44.911 33.3098 45.1223 33.4129C45.3336 33.516 45.5664 33.5688 45.8021 33.567C46.5814 33.567 46.9013 33.262 46.9013 32.5162C46.89 31.3445 46.7578 30.177 46.5067 29.0317C46.2407 27.7715 45.9329 26.4775 45.5933 25.1858C45.2537 23.894 44.9239 22.5686 44.625 21.2779C44.3753 20.2236 44.2015 19.1532 44.1051 18.0746C43.8982 18.164 43.6964 18.2643 43.5005 18.3753C43.2165 18.5312 42.9675 18.7424 42.7685 18.9962ZM43.0334 12.9488C42.5311 12.9488 41.8716 12.8066 41.0352 12.5146L40.7769 12.4256V12.1553C40.7648 11.5757 40.8961 11.0018 41.1594 10.4836C41.3627 10.1004 41.8024 9.64453 42.7399 9.64453H42.818L42.8894 9.67493C43.3695 9.8802 43.7821 10.2136 44.0809 10.6378C44.4106 11.0969 44.5645 11.5322 44.5205 11.9328C44.4865 12.2584 44.2831 12.6981 43.5104 12.8978C43.3541 12.9363 43.1934 12.9549 43.0323 12.9532L43.0334 12.9488ZM41.5562 11.8905C42.585 12.2161 43.0807 12.2161 43.3148 12.1586C43.7336 12.05 43.7544 11.9002 43.7544 11.8514C43.7764 11.6419 43.6753 11.3813 43.4544 11.0796C43.2517 10.7961 42.9784 10.5691 42.6608 10.4207C42.1211 10.4413 41.9343 10.6747 41.8398 10.8549C41.6738 11.179 41.5769 11.5333 41.5551 11.8959L41.5562 11.8905Z" fill="white"/>
<path d="M48.5347 23.1691C48.5347 22.6184 48.6743 22.2204 48.9534 21.975C49.2326 21.7297 49.6833 21.6078 50.3054 21.6092H50.6274C50.6919 21.9486 50.767 22.3408 50.8527 22.7859C50.944 23.2514 51.0734 23.7088 51.2396 24.1536C51.402 24.6013 51.607 25.0327 51.8519 25.4422C52.0687 25.8138 52.3655 26.134 52.7213 26.38C52.7442 25.6317 52.9369 24.8979 53.2851 24.2329C53.6296 23.5565 54.0741 22.9346 54.6041 22.3875C55.1183 21.8559 55.7033 21.3958 56.3429 21.0198C56.9246 20.6693 57.5613 20.4169 58.2269 20.2729H58.9358C59.9661 20.2729 60.8454 20.5009 61.5737 20.9568C62.3037 21.4133 62.9244 22.0211 63.3928 22.7381C63.893 23.5079 64.268 24.3504 64.504 25.2348C64.762 26.1705 64.9609 27.121 65.0998 28.081C65.2356 29.0087 65.3215 29.9428 65.3569 30.8795C65.3892 31.7812 65.4053 32.5497 65.4053 33.1851H63.0576C62.9286 31.9129 62.7678 30.6938 62.575 29.528C62.5106 29.062 62.4248 28.5691 62.3178 28.0495C62.2109 27.5299 62.0929 27.0422 61.9639 26.5863C61.835 26.1304 61.6954 25.7063 61.5451 25.3141C61.4148 24.9608 61.2417 24.6244 61.0296 24.3121C60.9439 24.2275 60.8311 24.111 60.6911 23.9626C60.5512 23.8142 60.4046 23.6659 60.2515 23.5175C60.1012 23.3728 59.9617 23.2454 59.8327 23.1354C59.7665 23.0712 59.6905 23.0177 59.6074 22.977C58.9633 22.8076 58.4053 22.9296 57.9334 23.3428C57.4138 23.8178 56.9878 24.3839 56.6771 25.0123C56.2895 25.7719 55.9922 26.5733 55.7912 27.4004C55.5655 28.2905 55.3775 29.1437 55.2273 29.96C55.0771 30.7763 54.9697 31.4866 54.9053 32.0909C54.8408 32.6952 54.7979 33.061 54.7767 33.1884C54.2395 33.5697 53.735 33.6812 53.2632 33.5227C52.7913 33.3642 52.3457 33.0302 51.9266 32.5208C51.4662 31.938 51.0889 31.2955 50.8055 30.6114C50.4721 29.8479 50.1662 29.037 49.8877 28.1787C49.6093 27.3204 49.3572 26.4564 49.1315 25.5865C48.9058 24.7174 48.7069 23.9116 48.5347 23.1691Z" fill="white"/>
<path d="M53.6949 33.9766C53.5079 33.9763 53.3222 33.9455 53.1454 33.8854C52.6057 33.7041 52.0979 33.3263 51.634 32.764C51.1486 32.1531 50.7503 31.4792 50.4503 30.7613C50.1139 29.9906 49.8007 29.1602 49.5193 28.2939C49.2379 27.4277 48.9829 26.5571 48.7565 25.68C48.5301 24.8029 48.3278 23.9866 48.1586 23.2539L48.1487 23.2127V23.1703C48.1487 22.5082 48.3333 22.011 48.6982 21.6929C49.0632 21.3749 49.5776 21.2316 50.3052 21.2316H50.946L51.0053 21.5421C51.0698 21.8815 51.1431 22.2733 51.2252 22.7177C51.3127 23.1628 51.4366 23.6003 51.5956 24.0257C51.75 24.4507 51.9446 24.8603 52.177 25.2491C52.2476 25.3673 52.3266 25.4805 52.4133 25.5878C52.5118 25.0587 52.6881 24.5467 52.9365 24.068C53.2991 23.3587 53.7661 22.7065 54.3225 22.1326C54.8612 21.5768 55.4735 21.0956 56.1427 20.7019C56.7613 20.3302 57.438 20.0625 58.1453 19.9095L58.1838 19.9019H58.9312C60.0303 19.9019 60.9877 20.1515 61.7769 20.6443C62.5533 21.1303 63.214 21.7765 63.7135 22.5386C64.235 23.3421 64.6262 24.2211 64.8731 25.1438C65.135 26.0949 65.3373 27.061 65.4788 28.0367C65.6166 28.9776 65.7039 29.9252 65.7404 30.8753C65.7722 31.7773 65.7887 32.5567 65.7887 33.1939V33.5738H62.7089L62.6738 33.2319C62.5463 31.9738 62.3847 30.7515 62.1934 29.5976C62.1297 29.1352 62.044 28.6456 61.9384 28.1333C61.8329 27.6209 61.7186 27.1368 61.5911 26.6971C61.4636 26.2575 61.3317 25.8352 61.1844 25.4499C61.0685 25.1364 60.9165 24.837 60.7316 24.5576C60.6459 24.4729 60.5403 24.3633 60.4084 24.2222C60.2765 24.0811 60.1282 23.9302 59.9831 23.788C59.838 23.6458 59.7083 23.5275 59.5907 23.4298C59.5302 23.3798 59.4929 23.3516 59.4709 23.3353C58.9675 23.2137 58.5597 23.3071 58.1926 23.6284C57.7099 24.0718 57.3139 24.5991 57.0242 25.1839C56.6493 25.9181 56.3612 26.6925 56.1658 27.4917C55.946 28.3753 55.7547 29.2285 55.6074 30.0275C55.4601 30.8264 55.3524 31.5363 55.2898 32.1301C55.2271 32.7239 55.1799 33.1071 55.1579 33.2493L55.1326 33.4045L55.0029 33.4968C54.5599 33.8127 54.1214 33.9766 53.6949 33.9766ZM48.9203 23.1323C49.0862 23.8488 49.2819 24.6434 49.5039 25.4966C49.7259 26.3498 49.9787 27.2214 50.2546 28.0671C50.5305 28.9127 50.8328 29.717 51.1592 30.466C51.4312 31.1179 51.7921 31.73 52.232 32.2853C52.6024 32.7358 52.9937 33.0322 53.3938 33.1668C53.7081 33.2753 54.0466 33.2091 54.4258 32.9725C54.4456 32.8205 54.4775 32.5469 54.5303 32.0552C54.5951 31.4419 54.705 30.7157 54.86 29.8961C55.015 29.0766 55.2007 28.2114 55.4283 27.3115C55.637 26.4571 55.9446 25.6292 56.3449 24.8442C56.6775 24.1742 57.1325 23.5707 57.687 23.0639C58.253 22.5679 58.9268 22.4126 59.6907 22.6091C59.8105 22.6308 59.9105 22.7068 60.0886 22.8501C60.2249 22.9586 60.3744 23.0987 60.5283 23.255C60.6821 23.4113 60.8294 23.5578 60.9679 23.7098C61.1064 23.8618 61.2152 23.9703 61.2976 24.0496L61.3229 24.0746L61.3427 24.1028C61.5724 24.4411 61.7599 24.8056 61.9011 25.1883C62.0561 25.5943 62.2011 26.0339 62.3308 26.4909C62.4605 26.9479 62.5814 27.4494 62.6914 27.9802C62.8013 28.511 62.8881 29.0147 62.9529 29.4836C63.1277 30.5388 63.2827 31.6547 63.4025 32.8118H65.0193C65.0193 32.2615 64.9984 31.6178 64.9732 30.8991C64.9379 29.9759 64.8531 29.0552 64.7193 28.1409C64.5824 27.1967 64.3868 26.2617 64.1334 25.3413C63.9074 24.4956 63.5491 23.6899 63.0717 22.9532C62.634 22.2792 62.0535 21.7071 61.3702 21.2761C60.7107 20.8614 59.8864 20.6509 58.9356 20.6509H58.2673C57.6573 20.7891 57.0738 21.0237 56.5395 21.3456C55.9301 21.7041 55.3726 22.1422 54.882 22.6482C54.3782 23.1681 53.9552 23.7589 53.6268 24.4013C53.3053 25.0165 53.1269 25.6948 53.1047 26.3867L53.0849 27.0847L52.5024 26.6895C52.1007 26.4121 51.7653 26.0513 51.5197 25.6323C51.2628 25.2024 51.0475 24.7495 50.8767 24.2797C50.7039 23.8158 50.5693 23.3388 50.4745 22.8534C50.4136 22.5378 50.3579 22.2484 50.3074 21.9849C49.7919 21.9849 49.4127 22.0783 49.2083 22.2552C49.0214 22.4235 48.9258 22.7155 48.9203 23.128V23.1323Z" fill="white"/>
<path d="M73.032 32.4567C73.3749 32.2236 73.7882 31.9215 74.2718 31.5503C74.7554 31.179 75.2438 30.781 75.737 30.3562C76.2246 29.9382 76.687 29.4924 77.1219 29.021C77.5103 28.6096 77.8506 28.1562 78.1364 27.6696C78.3642 27.2996 78.4917 26.8779 78.5068 26.4451C78.5068 26.0637 78.3137 25.7457 77.9275 25.491C77.2402 25.491 76.4888 25.5174 75.6732 25.5702C74.8577 25.623 74.0417 25.6444 73.2254 25.6342C72.4324 25.6259 71.6412 25.557 70.859 25.428C70.141 25.3159 69.4488 25.0789 68.8146 24.7278C68.212 24.3854 67.7173 23.8844 67.3857 23.2809C67.0318 22.6556 66.8549 21.8552 66.8549 20.8797C66.8383 19.8107 67.0636 18.7515 67.5143 17.7795C67.9485 16.8664 68.544 16.0371 69.273 15.3306C70.0154 14.6103 70.8423 13.9802 71.7361 13.4537C72.6172 12.9282 73.5356 12.466 74.484 12.0708C75.0506 12.2237 75.5775 12.4947 76.0293 12.8654C76.4905 13.2361 76.9016 13.6636 77.2527 14.1376C77.1092 14.5982 76.792 14.9868 76.3668 15.2231C75.8854 15.4939 75.3776 15.7161 74.8511 15.8864C74.2817 16.0774 73.686 16.279 73.0639 16.491C72.4631 16.6919 71.894 16.9755 71.3734 17.3334C70.8568 17.6959 70.4235 18.1619 70.1017 18.7011C69.758 19.2634 69.5862 20.0001 69.5862 20.9112C69.5862 21.59 69.758 22.0882 70.1017 22.4059C70.4826 22.7425 70.9506 22.968 71.4536 23.0572C72.0791 23.1787 72.7177 23.2214 73.354 23.1842C74.0626 23.1524 74.7873 23.1046 75.5281 23.041C76.2689 22.9773 76.9936 22.9411 77.7022 22.9324C78.3455 22.9129 78.9877 22.9988 79.6026 23.1864C80.1249 23.3434 80.5894 23.6475 80.9392 24.0613C81.2719 24.4644 81.4382 25.0582 81.4382 25.8427C81.4382 26.1821 81.3253 26.6163 81.0997 27.1453C80.8432 27.7339 80.5419 28.3026 80.1984 28.8463C79.4012 30.1111 78.4252 31.2571 77.2999 32.2493C76.795 32.6963 76.2447 33.0906 75.6578 33.426C75.1105 33.7336 74.6005 33.8874 74.1278 33.8874C73.6772 33.8874 73.3819 33.7285 73.2419 33.4108C73.1058 33.1106 73.0343 32.7857 73.032 32.4567Z" fill="white"/>
<path d="M74.1269 34.2662C73.3575 34.2662 73.0277 33.8819 72.8881 33.5606C72.7337 33.2125 72.6536 32.8367 72.6529 32.4567V32.2569L72.82 32.1484C73.1585 31.9183 73.5696 31.6176 74.0411 31.255C74.5127 30.8924 74.9996 30.4952 75.4898 30.0751C75.966 29.6672 76.4178 29.2322 76.8428 28.7724C77.2115 28.3819 77.5348 27.9519 77.8068 27.4905C78.0012 27.1766 78.1116 26.8192 78.1277 26.4516C78.1277 26.3073 78.0925 26.0967 77.809 25.8774C77.1704 25.8774 76.4625 25.9067 75.703 25.9556C74.8798 26.0098 74.0455 26.0305 73.2256 26.0196C72.4125 26.0089 71.6015 25.9363 70.7998 25.8025C70.0371 25.6826 69.3018 25.4305 68.6279 25.0578C67.9624 24.6816 67.4154 24.1308 67.0473 23.4665C66.6626 22.787 66.467 21.9164 66.467 20.8797C66.4494 19.755 66.6852 18.6404 67.1572 17.6167C67.6104 16.6638 68.2312 15.7979 68.9906 15.0592C69.7553 14.3185 70.6065 13.6702 71.5263 13.1281C72.4251 12.592 73.3618 12.1204 74.3291 11.7169L74.4511 11.667L74.5786 11.7006C75.1978 11.8683 75.7737 12.1643 76.268 12.5691C76.7546 12.9605 77.1886 13.4118 77.5595 13.9118L77.6694 14.0671L77.61 14.2505C77.4371 14.7989 77.0589 15.2617 76.5527 15.5444C76.0497 15.8295 75.5191 16.064 74.9688 16.2446C74.4002 16.4349 73.8048 16.6361 73.1827 16.8481C72.6161 17.038 72.0792 17.3055 71.5879 17.6427C71.1154 17.9752 70.7188 18.402 70.4239 18.8954C70.1183 19.3947 69.9644 20.0721 69.9644 20.909C69.9644 21.4757 70.0974 21.886 70.3579 22.127C70.6899 22.4176 71.097 22.6115 71.534 22.6871C72.1274 22.8015 72.733 22.8416 73.3366 22.8065C74.0367 22.775 74.7655 22.7272 75.4942 22.6643C76.2229 22.6013 76.9758 22.5623 77.6925 22.5557C78.378 22.5363 79.062 22.6287 79.7171 22.8293C80.3089 23.0092 80.8351 23.355 81.2317 23.8247C81.6208 24.2958 81.8175 24.9764 81.8175 25.8459C81.8175 26.24 81.6966 26.7143 81.4493 27.2972C81.1848 27.9039 80.8744 28.4899 80.5205 29.0503C79.7047 30.347 78.7053 31.5218 77.5529 32.5392C77.028 33.0024 76.4564 33.4113 75.847 33.7593C75.2436 34.0947 74.6654 34.2662 74.1269 34.2662ZM73.4223 32.6466C73.4461 32.8576 73.5025 33.0637 73.5894 33.2578C73.6224 33.3327 73.6993 33.5064 74.1225 33.5064C74.5259 33.5064 74.9765 33.3674 75.4612 33.0949C76.0286 32.7728 76.5608 32.3938 77.0495 31.9638C78.1461 30.9964 79.0972 29.8794 79.8743 28.6465C80.209 28.1192 80.503 27.5676 80.7536 26.9966C80.958 26.5157 81.0613 26.1281 81.0613 25.8394C81.0613 25.149 80.9228 24.6301 80.6491 24.298C80.3465 23.9402 79.944 23.6782 79.4917 23.5446C78.9145 23.3705 78.3122 23.2916 77.709 23.3113C77.0088 23.3221 76.2867 23.359 75.5634 23.4198C74.8215 23.4838 74.084 23.5284 73.374 23.5642C72.7052 23.6024 72.0342 23.5572 71.3768 23.4296C70.8038 23.326 70.2711 23.0675 69.838 22.6827C69.416 22.292 69.2016 21.696 69.2016 20.9112C69.2016 19.9342 69.394 19.1234 69.7721 18.5046C70.1223 17.9208 70.5926 17.416 71.1526 17.0229C71.7028 16.6448 72.304 16.3448 72.9387 16.1317C73.5615 15.9197 74.158 15.7181 74.7281 15.5271C75.2291 15.3631 75.7122 15.15 76.1702 14.891C76.4546 14.7345 76.6807 14.4922 76.8154 14.1995C76.5113 13.8162 76.1652 13.4674 75.7833 13.1596C75.4066 12.851 74.9729 12.6176 74.5061 12.4724C73.6172 12.8482 72.7553 13.2834 71.9264 13.7751C71.0589 14.2864 70.256 14.8979 69.5347 15.5965C68.8398 16.2725 68.2719 17.0649 67.8574 17.9369C67.4318 18.8587 67.219 19.8624 67.2342 20.8754C67.2342 21.7807 67.3969 22.5264 67.7167 23.0909C68.0163 23.6341 68.4621 24.0849 69.0049 24.3935C69.6004 24.7204 70.2497 24.9409 70.9229 25.0448C71.6859 25.1706 72.4576 25.2381 73.2311 25.2467C74.0312 25.2576 74.8446 25.2359 75.6492 25.1838C76.4746 25.1306 77.2407 25.1034 77.9288 25.1034H78.0387L78.1354 25.1675C78.7564 25.5756 78.8861 26.0836 78.8861 26.4375C78.871 26.9357 78.7264 27.4216 78.4663 27.8487C78.1661 28.3601 77.8089 28.8368 77.4012 29.2696C76.9562 29.752 76.4832 30.2083 75.9844 30.6363C75.4832 31.0705 74.9853 31.4721 74.5028 31.8423C74.1038 32.1603 73.7411 32.4274 73.4223 32.6466Z" fill="white"/>
<path d="M84.5235 10.0356C84.9386 10.2109 85.2957 10.4974 85.5545 10.8628C85.8329 11.2442 85.9564 11.5886 85.9249 11.8962C85.8934 12.2038 85.6519 12.4158 85.2005 12.5323C84.7499 12.6488 83.9985 12.5269 82.9462 12.1665C82.9338 11.6484 83.05 11.1352 83.2847 10.6718C83.5126 10.2477 83.9255 10.0356 84.5235 10.0356ZM84.0728 21.9611C84.0728 21.834 84.0728 21.6267 84.0893 21.3412C84.1058 21.0557 84.1102 20.7529 84.1212 20.4348C84.1322 20.1168 84.1421 19.8096 84.1531 19.5121C84.1641 19.2147 84.1696 19.003 84.1696 18.876C84.4077 18.5349 84.7216 18.252 85.0873 18.0489C85.4505 17.8424 85.8334 17.6719 86.2304 17.5398C86.3083 18.772 86.4921 19.9954 86.78 21.1969C87.0804 22.4901 87.4025 23.7887 87.7462 25.0927C88.0898 26.3968 88.3957 27.6849 88.6639 28.9572C88.9208 30.1277 89.0556 31.3211 89.0662 32.5187C89.0662 33.4725 88.5723 33.9494 87.5846 33.9494C87.2924 33.9511 87.0039 33.8859 86.7416 33.7587C86.4793 33.6316 86.2506 33.446 86.0733 33.2167C85.6296 32.6634 85.2962 32.0321 85.0906 31.3561C84.8271 30.5352 84.6279 29.6954 84.4949 28.8443C84.347 27.9453 84.245 27.0396 84.1893 26.1305C84.1351 25.2404 84.1029 24.4241 84.0926 23.6816C84.0824 22.9391 84.0772 22.3656 84.0772 21.9611H84.0728Z" fill="white"/>
<path d="M87.5868 34.3301C87.2377 34.333 86.8926 34.2561 86.5786 34.1054C86.2645 33.9548 85.99 33.7345 85.7765 33.4617C85.3032 32.8721 84.9467 32.1996 84.7257 31.4795C84.4562 30.6397 84.2523 29.7808 84.1157 28.9101C83.9658 27.9968 83.8624 27.0766 83.8058 26.153C83.7519 25.2607 83.7189 24.4313 83.709 23.6867C83.6981 22.9854 83.6926 22.3841 83.6926 21.964C83.6926 21.8239 83.6981 21.6036 83.709 21.329C83.7178 21.0822 83.727 20.8231 83.7365 20.5517V20.4247C83.7468 20.107 83.7574 19.7995 83.7684 19.502C83.7794 19.2014 83.7838 18.9984 83.7838 18.88V18.7617L83.8519 18.664C84.1232 18.2762 84.4803 17.9544 84.8961 17.7229C85.2801 17.5033 85.6851 17.3215 86.1052 17.1801L86.5833 17.0227L86.6108 17.5199C86.6873 18.7304 86.8674 19.9324 87.1493 21.1129C87.4472 22.3949 87.7714 23.7019 88.1122 24.998C88.4529 26.2941 88.765 27.6032 89.0343 28.8798C89.2963 30.076 89.4341 31.2956 89.4454 32.5195C89.4531 33.6864 88.7903 34.3301 87.5868 34.3301ZM84.5576 18.9962C84.5576 19.1221 84.551 19.2936 84.5422 19.5205C84.5312 19.8179 84.5202 20.124 84.5103 20.4421V20.5702C84.5008 20.8423 84.4916 21.1021 84.4828 21.3496C84.4696 21.6861 84.4674 21.8652 84.4674 21.9564C84.4674 22.3776 84.4729 22.9702 84.4839 23.6682C84.4938 24.4009 84.5268 25.2194 84.5796 26.0998C84.6345 26.9979 84.735 27.8928 84.8807 28.781C85.0108 29.6129 85.2051 30.4338 85.4622 31.2364C85.653 31.8668 85.9625 32.456 86.3744 32.9732C86.5162 33.1592 86.7 33.3098 86.9113 33.4129C87.1227 33.516 87.3555 33.5688 87.5912 33.567C88.3705 33.567 88.6903 33.262 88.6903 32.5162C88.679 31.3445 88.5468 30.177 88.2957 29.0317C88.0231 27.7747 87.711 26.4808 87.3812 25.1836C87.0515 23.8864 86.7119 22.5664 86.4129 21.2758C86.1632 20.2214 85.9895 19.151 85.893 18.0724C85.6862 18.1618 85.4844 18.2622 85.2885 18.3731C85.0046 18.5298 84.756 18.7418 84.5576 18.9962ZM84.8225 12.9488C84.3202 12.9488 83.6607 12.8066 82.8242 12.5146L82.566 12.4256V12.1553C82.5539 11.5757 82.6852 11.0018 82.9484 10.4836C83.1518 10.1004 83.5914 9.64453 84.529 9.64453H84.607L84.6785 9.67493C85.1586 9.8802 85.5712 10.2136 85.8699 10.6378C86.1997 11.0969 86.3536 11.5322 86.3096 11.9328C86.2755 12.2584 86.0722 12.6981 85.2995 12.8978C85.1435 12.9362 84.9832 12.9548 84.8225 12.9532V12.9488ZM83.3452 11.8905C84.374 12.2161 84.8697 12.2161 85.1038 12.1586C85.5226 12.05 85.5435 11.9002 85.5435 11.8514C85.5655 11.6419 85.4644 11.3813 85.2434 11.0796C85.0408 10.7961 84.7674 10.5691 84.4499 10.4207C83.9102 10.4413 83.7233 10.6747 83.6288 10.8549C83.4633 11.1791 83.3668 11.5334 83.3452 11.8959V11.8905Z" fill="white"/>
<path d="M99.5113 50.8016C100.713 50.8016 101.786 50.5845 102.732 50.1503C103.652 49.7335 104.47 49.1259 105.131 48.369C105.79 47.6085 106.303 46.7356 106.645 45.7931C106.998 44.8296 107.178 43.8122 107.176 42.7873C107.176 42.2568 107.149 41.557 107.095 40.6879C107.042 39.8188 106.961 38.8755 106.853 37.858C106.746 36.8405 106.59 35.8017 106.386 34.7415C106.192 33.7273 105.939 32.7252 105.627 31.7401C105.36 30.8719 104.986 30.039 104.516 29.2597C104.076 28.5497 103.566 28.0461 102.986 27.7486C102.427 28.1727 101.88 28.5595 101.344 28.909C100.816 29.2543 100.255 29.5474 99.6696 29.784C99.0851 30.019 98.4818 30.2053 97.8659 30.3408C97.2103 30.4821 96.5409 30.5512 95.8699 30.5471C95.0733 30.5616 94.2782 30.4762 93.5034 30.2931C92.8921 30.1467 92.3275 29.8515 91.8613 29.4344C91.3993 28.9978 91.0606 28.4496 90.8787 27.8442C90.664 27.1871 90.5566 26.3603 90.5566 25.3638C90.5603 24.6491 90.737 23.9456 91.0721 23.3122C91.4309 22.6226 91.8922 21.99 92.4406 21.4353C93.028 20.837 93.6754 20.2991 94.3728 19.8298C95.0801 19.3511 95.8239 18.9272 96.5975 18.562C97.3204 18.2158 98.0753 17.9388 98.8518 17.7348C99.4964 17.5574 100.161 17.4611 100.83 17.4482C101.388 17.4482 101.85 17.4642 102.215 17.496C102.541 17.5168 102.859 17.6032 103.149 17.75C103.421 17.902 103.649 18.1212 103.809 18.3861C104.028 18.7502 104.207 19.1367 104.342 19.5389C104.836 21.1925 105.405 22.9735 106.049 24.8818C106.693 26.7901 107.305 28.7513 107.884 30.7653C108.464 32.78 108.952 34.8099 109.35 36.855C109.738 38.809 109.937 40.795 109.945 42.7862C109.945 44.4818 109.704 45.9183 109.221 47.0957C108.738 48.2731 108.105 49.2377 107.321 49.9896C106.552 50.7339 105.644 51.3237 104.648 51.7265C103.684 52.12 102.672 52.3822 101.637 52.5059C100.665 52.6212 99.6839 52.6478 98.7067 52.5851C97.8809 52.5396 97.0614 52.4171 96.2589 52.2193C95.5716 52.0391 95.051 51.8325 94.6971 51.5994C94.3432 51.3664 94.2574 51.1703 94.4399 51.0111C94.6216 50.8519 95.11 50.7405 95.905 50.6768C96.7001 50.6131 97.9021 50.6547 99.5113 50.8016ZM99.9619 20.1132C98.3726 20.4526 97.0903 20.923 96.115 21.5243C95.1397 22.1257 94.4098 22.7723 93.9255 23.4641C93.4426 24.1531 93.1795 24.8406 93.1363 25.5266C93.0931 26.2126 93.222 26.801 93.5232 27.2916C93.8294 27.7847 94.2862 28.169 94.8279 28.3891C95.3965 28.633 96.0457 28.6435 96.7755 28.4206C97.5054 28.1977 98.2832 27.7193 99.109 26.9855C99.937 26.2438 100.769 25.1412 101.604 23.678C101.604 23.3161 101.61 22.9239 101.621 22.5013C101.635 22.1114 101.598 21.7213 101.511 21.3409C101.435 21.0105 101.268 20.7075 101.028 20.466C100.789 20.2329 100.434 20.1164 99.9619 20.1164V20.1132Z" fill="white"/>
<path d="M99.7136 53.0002C99.3641 53.0002 99.0197 52.989 98.6804 52.9665C97.8305 52.9189 96.9871 52.7924 96.1612 52.5888C95.427 52.3956 94.8785 52.1763 94.485 51.9179C94.2718 51.7779 93.986 51.5532 93.964 51.2265C93.9588 51.1322 93.976 51.0381 94.0142 50.9516C94.0523 50.8651 94.1104 50.7886 94.1838 50.7282C94.3553 50.5784 94.7026 50.3939 95.8721 50.3005C96.6833 50.2354 97.9121 50.2777 99.5279 50.4264C100.575 50.4419 101.612 50.2314 102.568 49.8099C103.438 49.4148 104.212 48.8403 104.838 48.1252C105.468 47.3996 105.959 46.5668 106.286 45.6676C106.624 44.7456 106.796 43.7725 106.794 42.7921C106.794 42.2786 106.768 41.5806 106.714 40.7166C106.66 39.8525 106.58 38.9103 106.473 37.9029C106.367 36.8956 106.212 35.86 106.011 34.8179C105.82 33.8171 105.571 32.828 105.264 31.8555C105.006 31.0169 104.646 30.2121 104.193 29.4587C103.902 28.9596 103.502 28.5314 103.021 28.2061C102.53 28.573 102.039 28.916 101.561 29.2286C101.012 29.5873 100.429 29.892 99.8202 30.1383C99.2147 30.3811 98.5897 30.5735 97.9517 30.7136C97.2683 30.8612 96.5705 30.934 95.871 30.9307C95.0415 30.9446 94.2135 30.8549 93.4068 30.6637C92.7344 30.501 92.1137 30.1752 91.6009 29.716C91.0908 29.235 90.7162 28.6312 90.5138 27.964C90.2885 27.2736 90.1731 26.3998 90.1731 25.3675C90.1775 24.5932 90.3685 23.8312 90.7304 23.1443C91.1065 22.4185 91.5904 21.7523 92.1658 21.1676C92.7716 20.551 93.4389 19.9964 94.1575 19.5122C94.8801 19.0209 95.64 18.5854 96.4305 18.2096C97.1762 17.8569 97.9542 17.5752 98.7541 17.3683C99.4311 17.1831 100.129 17.0828 100.831 17.0698C101.397 17.0698 101.875 17.0861 102.25 17.1187C102.628 17.1443 102.997 17.2459 103.333 17.4172C103.663 17.6003 103.94 17.8647 104.135 18.1846C104.371 18.5754 104.562 18.9908 104.705 19.4232L104.71 19.4406C105.198 21.0764 105.771 22.8697 106.413 24.7704C107.055 26.6712 107.675 28.6576 108.254 30.6669C108.833 32.6762 109.329 34.7387 109.727 36.7892C110.118 38.767 110.32 40.7768 110.329 42.7921C110.329 44.5289 110.076 46.0269 109.576 47.2426C109.076 48.4584 108.407 49.4799 107.588 50.2658C106.783 51.0419 105.834 51.6574 104.793 52.0786C103.797 52.4847 102.75 52.7557 101.681 52.884C101.028 52.9603 100.371 52.999 99.7136 53.0002ZM94.8356 51.2362C94.8565 51.2525 94.8818 51.2699 94.9115 51.2894C95.2291 51.4978 95.716 51.69 96.359 51.8582C97.1374 52.0494 97.9323 52.1679 98.7332 52.2121C99.6862 52.2724 100.643 52.2463 101.591 52.1339C102.591 52.0138 103.569 51.7604 104.5 51.3806C105.452 50.9956 106.32 50.4324 107.056 49.7219C107.798 49.0088 108.407 48.0796 108.867 46.9572C109.328 45.8347 109.563 44.4301 109.563 42.791C109.554 40.8231 109.357 38.8605 108.974 36.9292C108.579 34.9004 108.095 32.8629 107.516 30.871C106.938 28.8791 106.325 26.8969 105.686 25.0092C105.048 23.1215 104.466 21.3033 103.978 19.6609C103.854 19.2864 103.69 18.9261 103.488 18.5863C103.363 18.3763 103.185 18.2023 102.97 18.0815C102.726 17.9601 102.46 17.8888 102.187 17.872C101.834 17.8416 101.38 17.8253 100.836 17.8253C100.199 17.8383 99.5665 17.9302 98.953 18.0989C98.2005 18.2971 97.4688 18.5657 96.7679 18.9011C96.013 19.2596 95.2873 19.6751 94.5971 20.144C93.9229 20.5995 93.2969 21.121 92.7286 21.7006C92.2072 22.2283 91.7682 22.8298 91.4261 23.4852C91.1195 24.0655 90.9571 24.7096 90.9524 25.3642C90.9524 26.3173 91.0546 27.113 91.2557 27.7284C91.4188 28.2717 91.7218 28.7639 92.1351 29.157C92.5555 29.5307 93.0636 29.7952 93.6134 29.9266C94.3567 30.1012 95.1192 30.1825 95.8831 30.1687C96.526 30.1723 97.1674 30.1061 97.7956 29.9711C98.3906 29.8384 98.9733 29.6568 99.5377 29.4283C100.1 29.2009 100.639 28.9195 101.146 28.5882C101.674 28.243 102.22 27.8576 102.766 27.443L102.96 27.2953L103.18 27.4039C103.82 27.7295 104.389 28.2864 104.861 29.0528C105.348 29.8588 105.734 30.7201 106.011 31.6178C106.326 32.6183 106.583 33.6361 106.78 34.6659C106.984 35.7286 107.143 36.7881 107.252 37.8139C107.36 38.8397 107.441 39.7906 107.494 40.6601C107.549 41.5524 107.576 42.246 107.576 42.7823C107.579 43.8509 107.393 44.9119 107.026 45.9172C106.668 46.9027 106.132 47.8156 105.443 48.6115C104.746 49.4086 103.884 50.0489 102.915 50.4894C101.852 50.9602 100.697 51.1947 99.5323 51.1765H99.496C97.9165 51.0311 96.7262 50.9887 95.9568 51.0495C95.3083 51.1071 94.9917 51.1798 94.8356 51.2362ZM95.7842 28.9757C95.4026 28.98 95.0242 28.9061 94.673 28.7586C94.0589 28.5069 93.5411 28.07 93.1935 27.5103C92.8528 26.9577 92.7033 26.2891 92.7539 25.5249C92.8044 24.7607 93.0836 24.0051 93.6101 23.2648C94.1366 22.5245 94.8961 21.8472 95.9117 21.2186C96.9273 20.5901 98.2573 20.1017 99.8829 19.7543L99.9235 19.7456H99.9642C100.539 19.7456 100.989 19.9008 101.299 20.2059C101.589 20.4968 101.791 20.8618 101.883 21.2599C101.98 21.6729 102.021 22.0966 102.006 22.5202C101.995 22.924 101.99 23.3158 101.99 23.6871V23.787L101.94 23.8738C101.088 25.3642 100.223 26.5094 99.3685 27.2758C98.5145 28.0422 97.6703 28.5665 96.8888 28.8042C96.5311 28.9141 96.1588 28.9705 95.7842 28.9714V28.9757ZM100.003 20.5011C98.4837 20.8268 97.2438 21.2859 96.3195 21.858C95.3951 22.4301 94.6938 23.0521 94.2421 23.6925C93.7904 24.333 93.5595 24.9517 93.5211 25.5661C93.4826 26.1805 93.5947 26.6929 93.8508 27.1097C94.115 27.5363 94.5106 27.868 94.9796 28.0563C95.4654 28.2647 96.015 28.2734 96.6613 28.0736C97.334 27.8685 98.0704 27.4093 98.8508 26.7081C99.6312 26.0068 100.425 24.9593 101.221 23.5807C101.221 23.2323 101.227 22.8675 101.237 22.4952C101.25 22.1384 101.215 21.7816 101.135 21.4336C101.076 21.1708 100.944 20.9297 100.753 20.7378C100.598 20.5825 100.351 20.5022 100.003 20.4968V20.5011Z" fill="white"/>
<path d="M111.222 13.2151C111.227 12.9219 111.253 12.6295 111.302 12.3401C111.354 11.9951 111.451 11.6582 111.592 11.3382C111.719 11.0397 111.899 10.7659 112.123 10.5295C112.231 10.4184 112.361 10.3311 112.505 10.2734C112.65 10.2158 112.805 10.1891 112.96 10.1952C113.015 10.2014 113.068 10.2119 113.121 10.2267C113.173 10.2418 113.227 10.2523 113.281 10.2581C113.64 11.5337 113.856 12.8441 113.925 14.166C113.99 15.4223 113.969 16.6815 113.861 17.9349C113.753 19.1543 113.592 20.3309 113.378 21.4649C113.164 22.5989 112.987 23.6432 112.847 24.5977C112.717 25.4515 112.632 26.3113 112.59 27.1736C112.558 27.9371 112.671 28.5837 112.929 29.1134C112.881 28.7069 112.854 28.2982 112.848 27.889C112.839 27.3931 112.882 26.8976 112.977 26.4105C113.079 25.8853 113.24 25.3733 113.459 24.8843C113.69 24.3676 114.024 23.9024 114.442 23.5166C114.92 23.0856 115.485 22.7604 116.101 22.5624C116.777 22.3294 117.62 22.2129 118.629 22.2129C119.68 22.2129 120.587 22.3938 121.35 22.7556C122.086 23.0963 122.732 23.6026 123.234 24.2341C123.742 24.8888 124.12 25.6334 124.345 26.4279C124.597 27.3019 124.722 28.2069 124.716 29.1156C124.716 29.5607 124.71 30.0643 124.699 30.6266C124.693 31.1537 124.618 31.6778 124.474 32.1854C124.343 32.6474 124.087 33.0652 123.733 33.3936C123.379 33.7229 122.858 33.8871 122.171 33.8864C122.171 33.5477 122.193 33.0868 122.236 32.5035C122.279 31.9202 122.306 31.3 122.316 30.6429C122.326 29.9858 122.305 29.3179 122.251 28.6391C122.208 28.0096 122.059 27.3916 121.812 26.81C121.594 26.2953 121.258 25.838 120.829 25.4748C120.411 25.1253 119.837 24.9505 119.107 24.9505C118.849 24.9505 118.532 24.9664 118.157 24.9983C117.762 25.0352 117.375 25.1372 117.014 25.3C116.595 25.4923 116.214 25.7562 115.887 26.0794C115.489 26.483 115.191 26.9729 115.018 27.5101C114.803 28.1144 114.68 28.8775 114.648 29.7995C114.615 30.7214 114.728 31.8504 114.986 33.1863C114.836 33.5676 114.648 33.7902 114.422 33.8539C114.144 33.9238 113.857 33.9559 113.569 33.9494C113.252 33.9588 112.936 33.8997 112.644 33.7761C112.352 33.6526 112.091 33.4676 111.879 33.234C111.439 32.7571 111.101 32.116 110.864 31.3105C110.609 30.3965 110.453 29.4585 110.397 28.5121C110.324 27.4519 110.297 26.3439 110.317 25.1882C110.337 24.0325 110.396 22.8558 110.494 21.6582C110.591 20.4605 110.687 19.3261 110.784 18.2551C110.881 17.1841 110.978 16.2071 111.074 15.3242C111.16 14.6241 111.209 13.9201 111.222 13.2151Z" fill="white"/>
<path d="M113.573 34.3301C113.201 34.3402 112.831 34.2702 112.49 34.1252C112.148 33.9801 111.842 33.7633 111.594 33.4899C111.116 32.9721 110.746 32.2741 110.495 31.4155C110.233 30.4756 110.072 29.5111 110.014 28.5378C109.938 27.474 109.91 26.3451 109.932 25.1814C109.954 24.0178 110.014 22.8356 110.11 21.6285C110.207 20.4215 110.304 19.2882 110.4 18.2222C110.497 17.1563 110.595 16.1674 110.691 15.2913C110.774 14.6031 110.822 13.9111 110.834 13.218C110.839 12.9059 110.867 12.5947 110.918 12.2867C110.975 11.9091 111.082 11.5405 111.236 11.1903C111.381 10.8502 111.586 10.5382 111.841 10.2687C111.985 10.1202 112.158 10.0032 112.35 9.92539C112.543 9.84758 112.749 9.81069 112.957 9.81712C113.043 9.82112 113.128 9.83533 113.21 9.85946L113.3 9.88008H113.573L113.651 10.1601C114.017 11.4637 114.238 12.8028 114.31 14.1537C114.376 15.427 114.354 16.7032 114.245 17.9736C114.135 19.2003 113.973 20.3998 113.757 21.5406C113.562 22.5719 113.397 23.538 113.264 24.4194C113.503 23.983 113.811 23.5872 114.177 23.247C114.695 22.7797 115.307 22.4263 115.973 22.2104C116.688 21.964 117.581 21.8391 118.628 21.8391C119.727 21.8391 120.703 22.0334 121.515 22.4166C122.305 22.7834 122.997 23.3272 123.536 24.0047C124.074 24.698 124.474 25.4859 124.713 26.3266C124.975 27.2354 125.105 28.1761 125.099 29.1207C125.099 29.5614 125.099 30.0575 125.083 30.6404C125.076 31.2006 124.995 31.7575 124.842 32.2969C124.692 32.8243 124.399 33.3013 123.995 33.6766C123.569 34.0717 122.955 34.2726 122.17 34.2726H121.784V33.8926C121.784 33.5398 121.806 33.0655 121.85 32.4815C121.894 31.8975 121.918 31.2939 121.929 30.6426C121.94 29.9913 121.918 29.34 121.866 28.6746C121.826 28.0874 121.69 27.5106 121.461 26.9671C121.266 26.5071 120.965 26.0983 120.582 25.773C120.237 25.4843 119.741 25.3388 119.108 25.3388C118.862 25.3388 118.558 25.354 118.191 25.3855C117.838 25.4195 117.494 25.5112 117.171 25.6569C116.793 25.8312 116.45 26.0696 116.156 26.3614C115.802 26.7251 115.539 27.1646 115.386 27.6455C115.185 28.21 115.067 28.9427 115.038 29.8231C115.008 30.7034 115.118 31.8237 115.367 33.1263L115.388 33.2348L115.349 33.3368C115.153 33.8329 114.878 34.1347 114.532 34.2324C114.218 34.3085 113.895 34.3414 113.573 34.3301ZM112.939 10.5737C112.839 10.5705 112.74 10.5882 112.647 10.6256C112.555 10.663 112.471 10.7193 112.402 10.7908C112.209 10.9957 112.054 11.2328 111.945 11.491C111.818 11.7809 111.729 12.086 111.682 12.3985C111.637 12.6691 111.611 12.9427 111.606 13.2169C111.595 13.9376 111.545 14.6571 111.459 15.3728C111.363 16.2412 111.266 17.2279 111.17 18.2917C111.074 19.3555 110.976 20.4996 110.881 21.6904C110.785 22.8812 110.726 24.0623 110.705 25.1966C110.684 26.331 110.705 27.4447 110.784 28.4868C110.838 29.4063 110.99 30.3177 111.237 31.206C111.457 31.9517 111.768 32.5488 112.166 32.9797C112.342 33.1742 112.559 33.328 112.802 33.4302C113.045 33.5325 113.308 33.5806 113.572 33.5713C113.823 33.5777 114.075 33.5507 114.319 33.491C114.352 33.4823 114.461 33.4302 114.589 33.1469C114.343 31.8378 114.234 30.7077 114.266 29.7883C114.299 28.8309 114.431 28.0233 114.659 27.3861C114.852 26.7931 115.182 26.2527 115.624 25.8078C115.983 25.4538 116.402 25.165 116.862 24.9545C117.263 24.7746 117.691 24.662 118.13 24.6213C118.514 24.5887 118.844 24.5724 119.112 24.5724C119.932 24.5724 120.595 24.7787 121.083 25.1868C121.556 25.5885 121.929 26.0936 122.17 26.6621C122.433 27.2837 122.59 27.9439 122.635 28.616C122.689 29.3064 122.711 29.9924 122.701 30.6556C122.691 31.3189 122.662 31.9583 122.62 32.5379C122.592 32.9026 122.573 33.2218 122.565 33.491C122.898 33.4672 123.216 33.3387 123.47 33.1241C123.774 32.8425 123.994 32.4834 124.104 32.0863C124.238 31.6107 124.309 31.1199 124.314 30.6263C124.325 30.051 124.331 29.5593 124.331 29.1229C124.336 28.2502 124.217 27.3812 123.976 26.5416C123.763 25.795 123.408 25.0951 122.931 24.4791C122.464 23.8946 121.866 23.4255 121.184 23.1092C120.477 22.7748 119.618 22.6055 118.63 22.6055C117.669 22.6055 116.861 22.7141 116.229 22.9312C115.666 23.1114 115.148 23.4074 114.709 23.7996C114.329 24.1508 114.025 24.5739 113.814 25.0436C113.607 25.5062 113.454 25.9905 113.357 26.4873C113.267 26.9486 113.227 27.4179 113.235 27.8876C113.241 28.2838 113.267 28.6794 113.313 29.073L113.61 31.3938L112.584 29.2857C112.301 28.7017 112.174 27.9831 112.209 27.1657C112.251 26.2903 112.338 25.4175 112.47 24.5507C112.61 23.5966 112.789 22.5382 113.004 21.4028C113.215 20.2869 113.376 19.1113 113.482 17.9096C113.588 16.6735 113.61 15.4317 113.546 14.1928C113.482 12.9743 113.291 11.7655 112.976 10.5857L112.939 10.5737Z" fill="white"/>
<path d="M123.425 17.8588C123.424 17.8042 123.434 17.75 123.457 17.7003C123.46 17.6462 123.47 17.5927 123.489 17.5418C123.611 17.3973 123.74 17.2593 123.876 17.1282C124.047 16.9589 124.155 16.8742 124.198 16.8742H130.671C130.659 16.5019 130.627 16.1304 130.574 15.7616C130.51 15.255 130.451 14.6931 130.397 14.0758C130.343 13.4361 130.326 12.7938 130.349 12.1523C130.362 11.539 130.454 10.9298 130.622 10.3395C130.76 9.83728 131.025 9.37789 131.392 9.00428C131.746 8.65475 132.245 8.47998 132.889 8.47998C132.889 10.6213 133.039 12.3386 133.34 13.6318C133.64 14.925 134.043 15.9215 134.549 16.6213C135.053 17.3211 135.627 17.777 136.271 17.989C136.908 18.2 137.579 18.2917 138.249 18.2593C138.918 18.2287 139.581 18.1276 140.228 17.9576C140.794 17.8038 141.369 17.6871 141.95 17.608C142.454 17.5443 142.857 17.5921 143.159 17.7513C143.461 17.9105 143.611 18.2868 143.61 18.8802C143.61 19.3253 143.508 19.6434 143.304 19.8344C143.101 20.0255 142.709 20.1738 142.129 20.2795L141.276 20.388C140.878 20.4416 140.433 20.4893 139.94 20.5313C139.447 20.5733 138.921 20.621 138.361 20.6746C137.803 20.7281 137.277 20.7759 136.783 20.8179C136.289 20.8598 135.839 20.8863 135.431 20.8971C135.023 20.908 134.723 20.9134 134.53 20.9134C134.53 21.022 134.519 21.2 134.498 21.4562C134.477 21.7123 134.466 21.8806 134.466 21.9653C134.465 22.8881 134.617 23.8049 134.917 24.679C135.217 25.559 135.545 26.4336 135.899 27.3027C136.254 28.1718 136.582 29.0402 136.882 29.9079C137.183 30.7781 137.335 31.6915 137.333 32.6108C137.332 32.7867 137.316 32.9621 137.284 33.1351C137.256 33.306 137.19 33.4687 137.091 33.6117C136.986 33.756 136.84 33.8667 136.672 33.9297C136.49 34.0021 136.238 33.9862 135.916 33.882C135.533 33.7924 135.173 33.6244 134.859 33.3888C134.546 33.1532 134.286 32.8552 134.097 32.5142C133.67 31.7334 133.371 30.8907 133.211 30.0176C133.011 29.0045 132.882 27.9792 132.824 26.9488C132.76 25.8677 132.658 24.8545 132.518 23.9094C132.41 23.0779 132.188 22.2648 131.859 21.492C131.558 20.824 131.075 20.4159 130.41 20.2675L124.202 18.8759C124.117 18.8759 123.988 18.7858 123.816 18.6056C123.692 18.4871 123.584 18.3536 123.493 18.2083C123.471 18.1586 123.46 18.1044 123.462 18.0498C123.435 17.9896 123.423 17.9243 123.425 17.8588Z" fill="white"/>
<path d="M136.416 34.3606C136.21 34.3561 136.005 34.3195 135.81 34.252C135.379 34.1485 134.975 33.9575 134.623 33.6912C134.271 33.4249 133.978 33.0891 133.765 32.7052C133.319 31.8902 133.006 31.011 132.837 30.1C132.635 29.07 132.503 28.0277 132.444 26.9802C132.38 25.9175 132.279 24.9069 132.141 23.9755C132.037 23.1786 131.825 22.3991 131.51 21.6579C131.26 21.1011 130.873 20.7722 130.328 20.6495L124.142 19.2568C123.954 19.2373 123.767 19.1179 123.531 18.8693C123.38 18.725 123.25 18.5605 123.145 18.3808C123.106 18.3022 123.083 18.2172 123.076 18.13C123.051 18.0429 123.039 17.9525 123.041 17.8619C123.04 17.7787 123.052 17.6959 123.078 17.6166C123.087 17.5512 123.102 17.4869 123.124 17.4245L123.146 17.3593L123.189 17.3061C123.319 17.1505 123.458 17.002 123.604 16.8611C123.855 16.6136 124.008 16.4953 124.198 16.4953H130.266C130.251 16.3075 130.226 16.0784 130.192 15.8092C130.126 15.286 130.065 14.7139 130.012 14.1093C129.957 13.4548 129.94 12.7977 129.963 12.1413C129.975 11.4947 130.071 10.8524 130.248 10.2297C130.408 9.66529 130.71 9.15025 131.127 8.73279C131.554 8.31053 132.149 8.09668 132.897 8.09668H133.281V8.47661C133.281 10.5814 133.43 12.2867 133.721 13.5438C134.009 14.7823 134.394 15.7419 134.867 16.3976C135.321 17.0272 135.836 17.4397 136.398 17.6253C136.991 17.8212 137.615 17.9062 138.239 17.876C138.882 17.8461 139.519 17.7486 140.14 17.5851C140.722 17.4272 141.314 17.3072 141.913 17.2258C142.495 17.152 142.979 17.215 143.35 17.4103C143.785 17.6405 144.01 18.1322 144.01 18.8747C144.01 19.4261 143.867 19.8397 143.584 20.1046C143.322 20.3499 142.873 20.5279 142.214 20.6473H142.192L141.341 20.7559C140.939 20.8102 140.484 20.859 139.987 20.9013C139.49 20.9437 138.969 20.9914 138.413 21.0446C137.857 21.0978 137.323 21.1467 136.831 21.1879C136.34 21.2292 135.871 21.2585 135.455 21.2682L134.906 21.2802C134.906 21.3388 134.897 21.4039 134.89 21.4756C134.863 21.7915 134.86 21.9098 134.86 21.9532C134.859 22.8365 135.004 23.714 135.29 24.5508C135.586 25.4192 135.914 26.2876 136.265 27.1561C136.617 28.0245 136.951 28.9048 137.255 29.783C137.568 30.6918 137.727 31.6453 137.726 32.6053C137.726 32.8033 137.708 33.0009 137.672 33.1958C137.634 33.4209 137.547 33.635 137.416 33.8232C137.269 34.0278 137.065 34.1852 136.828 34.2759C136.698 34.3311 136.558 34.3599 136.416 34.3606ZM124.263 18.5013H124.284L130.498 19.9005C131.284 20.0764 131.862 20.5605 132.213 21.341C132.556 22.1453 132.788 22.9917 132.902 23.8572C133.043 24.8103 133.147 25.8426 133.211 26.927C133.268 27.9403 133.395 28.9485 133.591 29.9447C133.744 30.7795 134.028 31.5854 134.434 32.3328C134.598 32.6297 134.824 32.8889 135.096 33.0934C135.369 33.2979 135.682 33.4431 136.016 33.5193L136.04 33.5258C136.353 33.6289 136.486 33.5996 136.529 33.5823C136.628 33.5469 136.715 33.4835 136.778 33.3999C136.845 33.3021 136.889 33.191 136.908 33.0742C136.936 32.9227 136.95 32.7691 136.951 32.6151C136.953 31.7375 136.807 30.8657 136.521 30.0348C136.222 29.1664 135.894 28.298 135.547 27.4459C135.19 26.571 134.857 25.6819 134.557 24.8016C134.244 23.8864 134.085 22.9268 134.086 21.9608C134.086 21.862 134.097 21.6851 134.12 21.418C134.143 21.151 134.151 21.0001 134.151 20.9089V20.529H134.535C134.733 20.529 135.041 20.5236 135.427 20.5127C135.813 20.5019 136.274 20.4758 136.756 20.4346C137.237 20.3933 137.773 20.3445 138.331 20.2913C138.888 20.2381 139.417 20.1903 139.912 20.148C140.408 20.1057 140.841 20.059 141.231 20.0069L142.076 19.8983C142.726 19.7789 142.963 19.6302 143.047 19.5521C143.168 19.4435 143.233 19.2036 143.233 18.8736C143.233 18.6261 143.201 18.1941 142.985 18.079C142.77 17.964 142.429 17.9249 142.008 17.9781C141.444 18.0552 140.885 18.1687 140.335 18.3178C139.662 18.4948 138.971 18.6003 138.275 18.6326C137.556 18.6668 136.837 18.5685 136.154 18.3428C135.434 18.1062 134.79 17.5992 134.24 16.835C133.708 16.098 133.281 15.0461 132.97 13.7098C132.684 12.48 132.53 10.856 132.512 8.87825C132.195 8.91202 131.899 9.04828 131.669 9.26577C131.347 9.59474 131.114 9.99877 130.993 10.4403C130.834 10.9996 130.747 11.5767 130.735 12.1576C130.713 12.7843 130.729 13.4117 130.782 14.0366C130.833 14.6325 130.892 15.1948 130.958 15.7083C131.013 16.0929 131.047 16.4803 131.058 16.8687V17.2486H124.301C124.271 17.2747 124.221 17.3192 124.147 17.3919C124.019 17.5189 123.915 17.6264 123.841 17.7175V17.7979L123.809 17.8554C123.808 17.8691 123.808 17.8829 123.809 17.8967L123.84 17.9564V18.0497C123.915 18.1555 123.999 18.2543 124.092 18.345C124.144 18.4026 124.201 18.455 124.263 18.5013Z" fill="white"/>
</g>
<defs>
<clipPath id="clip0">
<rect width="144" height="53" fill="white"/>
</clipPath>
</defs>
</svg>
