<svg id="Layer_1" data-name="Layer 1" xmlns="http://www.w3.org/2000/svg" viewBox="0 0 1310.12 488.25"><defs><style>.cls-1{fill:#fff;}</style></defs><title>White_1</title><path class="cls-1" d="M.18,179.28C.07,181.83,0,184.39,0,187c0,127.53,149.72,258.7,171.64,275.9V343.29h0a171.65,171.65,0,0,0,171-156.93q.29-3.46.45-7c.11-2.57.18-5.16.18-7.76A171.64,171.64,0,1,0,0,171.64c0,2.56.07,5.11.18,7.64M172.84,292.41A120.77,120.77,0,1,1,293.6,171.64,120.77,120.77,0,0,1,172.84,292.41Z"/><path class="cls-1" d="M172.84,100.56a70.85,70.85,0,0,0-27.2,5.4,28.43,28.43,0,1,1-38.75,39.16,71.08,71.08,0,1,0,65.95-44.56Z"/><path class="cls-1" d="M388.84,92.45a22,22,0,0,1,9.38,7.62q3.8,5.27,3.37,9.52T395,115.44q-6.15,1.61-20.51-3.37a29.23,29.23,0,0,1,3.08-13.77Q380.64,92.45,388.84,92.45Zm-4.1,109.86c0-1.17,0-3.08.15-5.71s.19-5.42.29-8.35.19-5.76.29-8.5.15-4.69.15-5.86a25.07,25.07,0,0,1,8.35-7.62,57.87,57.87,0,0,1,10.4-4.69,200.46,200.46,0,0,0,5,33.69q4.1,17.87,8.79,35.89t8.35,35.6a161.58,161.58,0,0,1,3.66,32.81q0,13.18-13.48,13.18A17.17,17.17,0,0,1,402.9,306,51.44,51.44,0,0,1,394,288.88a154.55,154.55,0,0,1-5.42-23.14,250.1,250.1,0,0,1-2.78-25q-.74-12.3-.88-22.56T384.74,202.31Z"/><path class="cls-1" d="M416.67,316.26a20.6,20.6,0,0,1-16.47-8A55.11,55.11,0,0,1,390.64,290a158.76,158.76,0,0,1-5.55-23.67,255,255,0,0,1-2.82-25.4c-.49-8.22-.79-15.86-.88-22.72-.1-6.46-.15-12-.15-15.87,0-1.29.05-3.32.15-5.85q.12-3.41.25-7.16l0-1.17q.14-4.39.29-8.5c.1-2.77.14-4.64.14-5.73v-1.09l.62-.9a28.64,28.64,0,0,1,9.5-8.67,61.57,61.57,0,0,1,11-5l4.35-1.45.25,4.58a197.91,197.91,0,0,0,4.9,33.1c2.71,11.81,5.66,23.85,8.76,35.79s5.94,24,8.39,35.76a165.79,165.79,0,0,1,3.74,33.53C433.65,310.33,427.62,316.26,416.67,316.26ZM389.11,175c0,1.16-.06,2.74-.14,4.83-.1,2.74-.2,5.56-.29,8.49l0,1.18q-.13,3.76-.25,7.18c-.12,3.1-.14,4.75-.14,5.59,0,3.88.05,9.34.15,15.77.09,6.75.39,14.29.87,22.4a247.75,247.75,0,0,0,2.74,24.7,151.83,151.83,0,0,0,5.29,22.62,48.23,48.23,0,0,0,8.3,16,13.72,13.72,0,0,0,11.07,5.47c7.09,0,10-2.81,10-9.68a158.79,158.79,0,0,0-3.59-32.1c-2.42-11.61-5.22-23.53-8.31-35.43s-6.09-24.11-8.81-36a211.18,211.18,0,0,1-4.73-29.51,56.84,56.84,0,0,0-5.5,2.77A21.84,21.84,0,0,0,389.11,175Zm2.41-55.71c-4.57,0-10.57-1.31-18.18-4l-2.35-.82v-2.49a32.83,32.83,0,0,1,3.48-15.4c1.85-3.53,5.85-7.73,14.38-7.73h.71l.65.28A25.59,25.59,0,0,1,401.05,98c3,4.23,4.4,8.24,4,11.93-.31,3-2.16,7.05-9.19,8.89A17.21,17.21,0,0,1,391.51,119.33Zm-13.44-9.75c9.36,3,13.87,3,16,2.47,3.81-1,4-2.38,4-2.83.2-1.93-.72-4.33-2.73-7.11A18.56,18.56,0,0,0,388.13,96c-4.91.19-6.61,2.34-7.47,4A24.48,24.48,0,0,0,378.07,109.59Z"/><path class="cls-1" d="M441.57,213.44q0-7.61,3.81-11t12.3-3.37h2.93q.88,4.69,2.05,10.84a80.59,80.59,0,0,0,3.52,12.6,69.29,69.29,0,0,0,5.57,11.87,27,27,0,0,0,7.91,8.64,46.09,46.09,0,0,1,5.13-19.78,70.23,70.23,0,0,1,12-17,74.77,74.77,0,0,1,15.82-12.6,55.83,55.83,0,0,1,17.14-6.88h6.45q14.06,0,24,6.3a54.2,54.2,0,0,1,16.55,16.41,80.63,80.63,0,0,1,10.11,23,216.18,216.18,0,0,1,5.42,26.22,243.66,243.66,0,0,1,2.34,25.78q.44,12.46.44,21.24H573.7q-1.76-17.58-4.39-33.69-.88-6.44-2.34-13.62t-3.22-13.48q-1.76-6.3-3.81-11.72a43,43,0,0,0-4.69-9.23q-1.17-1.17-3.08-3.22t-4-4.1q-2.05-2-3.81-3.52a8,8,0,0,0-2.05-1.46q-8.79-2.34-15.23,3.37a52.13,52.13,0,0,0-11.43,15.38,101.57,101.57,0,0,0-8.06,22q-3.08,12.3-5.13,23.58t-2.93,19.63q-.88,8.35-1.17,10.11-7.33,5.27-13.77,3.08t-12.16-9.23A74.4,74.4,0,0,1,462.23,282q-4.55-10.55-8.35-22.41T447,235.71Q443.92,223.7,441.57,213.44Z"/><path class="cls-1" d="M488.52,313a15.42,15.42,0,0,1-5-.84c-4.91-1.67-9.53-5.15-13.75-10.33A78.22,78.22,0,0,1,459,283.38c-3.06-7.1-5.91-14.75-8.47-22.73s-4.88-16-6.94-24.08-3.9-15.6-5.44-22.35l-.09-.38v-.39c0-6.1,1.68-10.68,5-13.61s8-4.25,14.62-4.25h5.83l.54,2.86q.88,4.69,2,10.83a77.51,77.51,0,0,0,3.37,12.05,66.08,66.08,0,0,0,5.29,11.27,26.86,26.86,0,0,0,2.15,3.12,50.87,50.87,0,0,1,4.76-14,74,74,0,0,1,12.61-17.83,78.63,78.63,0,0,1,16.56-13.18,59.59,59.59,0,0,1,18.22-7.3l.35-.07h6.8c10,0,18.71,2.3,25.89,6.84a57.93,57.93,0,0,1,17.62,17.45,84.49,84.49,0,0,1,10.55,24,220.84,220.84,0,0,1,5.51,26.65,248.47,248.47,0,0,1,2.38,26.15c.29,8.31.44,15.49.44,21.36v3.5H570.53l-.32-3.15c-1.16-11.59-2.63-22.85-4.37-33.48-.58-4.26-1.36-8.77-2.32-13.49s-2-9.18-3.16-13.23S558,238,556.66,234.45a40.28,40.28,0,0,0-4.12-8.22c-.78-.78-1.74-1.79-2.94-3.09s-2.55-2.69-3.87-4-2.5-2.4-3.57-3.3c-.55-.46-.89-.72-1.09-.87-4.58-1.12-8.29-.26-11.63,2.7A48.94,48.94,0,0,0,518.81,232,98.63,98.63,0,0,0,511,253.26c-2,8.14-3.74,16-5.08,23.36s-2.32,13.9-2.89,19.37-1,9-1.2,10.31l-.23,1.43-1.18.85C496.39,311.49,492.4,313,488.52,313Zm-43.44-99.9c1.51,6.6,3.29,13.92,5.31,21.78s4.32,15.89,6.83,23.68,5.26,15.2,8.23,22.1a71.29,71.29,0,0,0,9.76,16.76c3.37,4.15,6.93,6.88,10.57,8.12,2.86,1,5.94.39,9.39-1.79.18-1.4.47-3.92.95-8.45.59-5.65,1.59-12.34,3-19.89s3.1-15.52,5.17-23.81a105.56,105.56,0,0,1,8.34-22.73,55.81,55.81,0,0,1,12.21-16.4c5.15-4.57,11.28-6,18.23-4.19,1.09.2,2,.9,3.62,2.22,1.24,1,2.6,2.29,4,3.73s2.74,2.79,4,4.19,2.25,2.4,3,3.13l.23.23.18.26a46.6,46.6,0,0,1,5.08,10c1.41,3.74,2.73,7.79,3.91,12s2.28,8.83,3.28,13.72,1.79,9.53,2.38,13.85c1.59,9.72,3,20,4.09,30.66h14.71c0-5.07-.19-11-.42-17.62a241.13,241.13,0,0,0-2.31-25.41,213.72,213.72,0,0,0-5.33-25.79,77.5,77.5,0,0,0-9.66-22A51,51,0,0,0,558.35,196c-6-3.82-13.5-5.76-22.15-5.76h-6.08a52.9,52.9,0,0,0-15.72,6.4,71.64,71.64,0,0,0-15.08,12,67.08,67.08,0,0,0-11.42,16.15,42.84,42.84,0,0,0-4.75,18.29l-.18,6.43-5.3-3.64a30.57,30.57,0,0,1-8.94-9.74,73.14,73.14,0,0,1-5.85-12.46,84.36,84.36,0,0,1-3.66-13.14q-.83-4.36-1.52-8h0c-4.69,0-8.14.86-10,2.49C446,206.57,445.13,209.26,445.08,213.06Z"/><path class="cls-1" d="M664.45,299q4.68-3.22,11.28-8.35t13.33-11a150.46,150.46,0,0,0,12.6-12.3,69.06,69.06,0,0,0,9.23-12.45,23.25,23.25,0,0,0,3.37-11.28q0-5.27-5.27-8.79-9.38,0-20.51.73t-22.27.59a139.8,139.8,0,0,1-21.53-1.9,55.88,55.88,0,0,1-18.6-6.45,34.19,34.19,0,0,1-13-13.33q-4.83-8.64-4.83-22.12a66.16,66.16,0,0,1,6-28.56,78.15,78.15,0,0,1,16-22.56,118.86,118.86,0,0,1,22.41-17.29,195,195,0,0,1,25-12.74,37.45,37.45,0,0,1,14.06,7.32,63.29,63.29,0,0,1,11.13,11.72,17.32,17.32,0,0,1-8.06,10A75.08,75.08,0,0,1,681,146.35q-7.77,2.64-16.26,5.57a61.4,61.4,0,0,0-15.38,7.76,41,41,0,0,0-11.57,12.6q-4.69,7.77-4.69,20.36,0,9.38,4.69,13.77a25.11,25.11,0,0,0,12.3,6,68.66,68.66,0,0,0,17.29,1.17q9.67-.44,19.78-1.32t19.78-1a53.06,53.06,0,0,1,17.29,2.34,25.52,25.52,0,0,1,12.16,8.06q4.54,5.57,4.54,16.41,0,4.69-3.08,12a116.83,116.83,0,0,1-8.2,15.67,144.13,144.13,0,0,1-26.37,31.35,89.75,89.75,0,0,1-14.94,10.84q-7.47,4.25-13.92,4.25-6.15,0-8.06-4.39A21.88,21.88,0,0,1,664.45,299Z"/><path class="cls-1" d="M674.41,315.67c-7,0-10-3.54-11.27-6.5A25.45,25.45,0,0,1,661,299v-1.84l1.52-1c3.08-2.12,6.82-4.89,11.11-8.23s8.72-7,13.18-10.87a147.65,147.65,0,0,0,12.31-12,66,66,0,0,0,8.77-11.81,20,20,0,0,0,2.92-9.57c0-1.33-.32-3.27-2.9-5.29-5.81,0-12.25.27-19.16.72-7.49.5-15.08.69-22.54.59a144,144,0,0,1-22.07-2,59.64,59.64,0,0,1-19.76-6.86A37.8,37.8,0,0,1,610,216.18c-3.5-6.26-5.28-14.28-5.28-23.83A69.93,69.93,0,0,1,611,162.29a82,82,0,0,1,16.68-23.56,122.91,122.91,0,0,1,23.07-17.79,199.38,199.38,0,0,1,25.5-13l1.11-.46,1.16.31a41.1,41.1,0,0,1,15.37,8,67.08,67.08,0,0,1,11.75,12.37l1,1.43-.54,1.69a20.8,20.8,0,0,1-9.62,11.92,79,79,0,0,1-14.41,6.45q-7.76,2.63-16.25,5.56a58.19,58.19,0,0,0-14.51,7.32,37.72,37.72,0,0,0-10.59,11.54c-2.78,4.6-4.18,10.84-4.18,18.55,0,5.22,1.21,9,3.58,11.22A21.8,21.8,0,0,0,650.82,209a65.48,65.48,0,0,0,16.4,1.1c6.37-.29,13-.73,19.63-1.31s13.48-.94,20-1a56.69,56.69,0,0,1,18.42,2.52,29.09,29.09,0,0,1,13.78,9.17c3.54,4.34,5.33,10.61,5.33,18.62,0,3.63-1.1,8-3.35,13.37a120.91,120.91,0,0,1-8.45,16.15,147.6,147.6,0,0,1-27,32.14A93.61,93.61,0,0,1,690.06,311C684.57,314.09,679.31,315.67,674.41,315.67ZM668,300.75a19.17,19.17,0,0,0,1.52,5.63c.3.69,1,2.29,4.85,2.29,3.67,0,7.77-1.28,12.18-3.79A86.66,86.66,0,0,0,701,294.46a140.61,140.61,0,0,0,25.7-30.56,113.8,113.8,0,0,0,8-15.2c1.86-4.43,2.8-8,2.8-10.66,0-6.36-1.26-11.14-3.75-14.2a21.9,21.9,0,0,0-10.53-6.94A49.88,49.88,0,0,0,707,214.75c-6.37.1-12.94.44-19.52,1-6.75.59-13.46,1-19.92,1.33a72.51,72.51,0,0,1-18.17-1.24,28.65,28.65,0,0,1-14-6.88c-3.84-3.6-5.79-9.09-5.79-16.32,0-9,1.75-16.47,5.19-22.17a44.69,44.69,0,0,1,12.56-13.65,65.18,65.18,0,0,1,16.25-8.21q8.5-2.93,16.28-5.57A71.94,71.94,0,0,0,693,137.18a13.85,13.85,0,0,0,5.87-6.37,60.61,60.61,0,0,0-9.39-9.58,34.36,34.36,0,0,0-11.62-6.33,193.33,193.33,0,0,0-23.47,12,115.92,115.92,0,0,0-21.76,16.78,75,75,0,0,0-15.26,21.56,63,63,0,0,0-5.67,27.07c0,8.34,1.48,15.21,4.39,20.41a30.9,30.9,0,0,0,11.72,12,52.66,52.66,0,0,0,17.45,6,136.94,136.94,0,0,0,21,1.86c7.28.1,14.68-.1,22-.58,7.51-.49,14.48-.74,20.74-.74H710l.88.59c5.65,3.76,6.83,8.44,6.83,11.7a26.77,26.77,0,0,1-3.82,13,72.87,72.87,0,0,1-9.69,13.09,154.69,154.69,0,0,1-12.89,12.59c-4.56,4-9.09,7.7-13.48,11.11C674.2,296.27,670.9,298.73,668,300.75Z"/><path class="cls-1" d="M769,92.45a22,22,0,0,1,9.38,7.62q3.8,5.27,3.37,9.52t-6.59,5.86q-6.15,1.61-20.51-3.37a29.23,29.23,0,0,1,3.08-13.77Q760.84,92.45,769,92.45Zm-4.1,109.86c0-1.17,0-3.08.15-5.71s.19-5.42.29-8.35.19-5.76.29-8.5.15-4.69.15-5.86a25.07,25.07,0,0,1,8.35-7.62,57.87,57.87,0,0,1,10.4-4.69,200.46,200.46,0,0,0,5,33.69q4.1,17.87,8.79,35.89t8.35,35.6a161.58,161.58,0,0,1,3.66,32.81q0,13.18-13.48,13.18A17.17,17.17,0,0,1,783.1,306a51.44,51.44,0,0,1-8.94-17.14,154.55,154.55,0,0,1-5.42-23.14,250.1,250.1,0,0,1-2.78-25q-.74-12.3-.88-22.56T764.94,202.31Z"/><path class="cls-1" d="M796.87,316.26a20.6,20.6,0,0,1-16.47-8A55.11,55.11,0,0,1,770.84,290a158.76,158.76,0,0,1-5.55-23.67,255,255,0,0,1-2.82-25.4c-.49-8.22-.79-15.86-.88-22.72-.1-6.46-.15-12-.15-15.87,0-1.29.05-3.32.15-5.85q.12-3.41.25-7.16l0-1.17q.14-4.39.29-8.5c.1-2.77.14-4.64.14-5.73v-1.09l.62-.9a28.64,28.64,0,0,1,9.5-8.67,61.57,61.57,0,0,1,11-5l4.35-1.45.25,4.58a197.91,197.91,0,0,0,4.9,33.1c2.71,11.81,5.66,23.85,8.76,35.79s5.94,24,8.39,35.76a165.79,165.79,0,0,1,3.74,33.53C813.85,310.33,807.82,316.26,796.87,316.26ZM769.31,175c0,1.16-.06,2.74-.14,4.83-.1,2.74-.2,5.56-.29,8.49l0,1.18q-.13,3.76-.25,7.18c-.12,3.1-.14,4.75-.14,5.59,0,3.88.05,9.34.15,15.77.09,6.75.39,14.29.87,22.4a247.75,247.75,0,0,0,2.74,24.7,151.83,151.83,0,0,0,5.29,22.62,48.23,48.23,0,0,0,8.3,16,13.72,13.72,0,0,0,11.07,5.47c7.09,0,10-2.81,10-9.68a158.79,158.79,0,0,0-3.59-32.1C800.84,255.87,798,243.95,795,232s-6.09-24.11-8.81-36a211.18,211.18,0,0,1-4.73-29.51,56.84,56.84,0,0,0-5.5,2.77A21.84,21.84,0,0,0,769.31,175Zm2.41-55.71c-4.57,0-10.57-1.31-18.18-4l-2.35-.82v-2.49a32.83,32.83,0,0,1,3.48-15.4c1.85-3.53,5.85-7.73,14.38-7.73h.71l.65.28A25.59,25.59,0,0,1,781.25,98c3,4.23,4.4,8.24,4,11.93-.31,3-2.16,7.05-9.19,8.89A17.21,17.21,0,0,1,771.72,119.33Zm-13.44-9.75c9.36,3,13.87,3,16,2.47,3.81-1,4-2.38,4-2.83.2-1.93-.72-4.33-2.73-7.11A18.56,18.56,0,0,0,768.33,96c-4.91.19-6.61,2.34-7.47,4A24.48,24.48,0,0,0,758.28,109.59Z"/><path class="cls-1" d="M905.36,468q16.4,0,29.3-6a64.15,64.15,0,0,0,21.83-16.41,75.71,75.71,0,0,0,13.77-23.73,80.61,80.61,0,0,0,4.83-27.69q0-7.33-.73-19.34t-2.2-26.07q-1.47-14.06-4.25-28.71A245.49,245.49,0,0,0,961,292.4a103.18,103.18,0,0,0-10.11-22.85q-6-9.81-13.92-13.92-7.62,5.86-14.94,10.69a87.58,87.58,0,0,1-15.23,8.06,102.82,102.82,0,0,1-16.41,5.13,82.77,82.77,0,0,1-18.16,1.9,85.71,85.71,0,0,1-21.53-2.34,34.28,34.28,0,0,1-14.94-7.91,33.45,33.45,0,0,1-8.94-14.65q-2.93-9.08-2.93-22.85a41.26,41.26,0,0,1,4.69-18.9,71.6,71.6,0,0,1,12.45-17.29,113.48,113.48,0,0,1,17.58-14.79A150.94,150.94,0,0,1,878.85,171a114.45,114.45,0,0,1,20.51-7.62,72.31,72.31,0,0,1,18-2.64q7.61,0,12.6.44a21.75,21.75,0,0,1,8.5,2.34,16.4,16.4,0,0,1,6,5.86A53.86,53.86,0,0,1,949.31,180q6.74,22.85,15.53,49.22t16.7,54.2q7.91,27.84,13.33,56.1a290.23,290.23,0,0,1,5.42,54.64q0,23.43-6.59,39.7t-17.29,26.66a75.73,75.73,0,0,1-24.32,16,104.46,104.46,0,0,1-27.39,7.18,144.8,144.8,0,0,1-26.66.73,119.46,119.46,0,0,1-22.27-3.37q-9.38-2.49-14.21-5.71t-2.34-5.42q2.48-2.2,13.33-3.08T905.36,468Zm4.1-282.71q-21.69,4.69-35,13t-19.92,17.87q-6.59,9.52-7.18,19t3.52,16.26a25.15,25.15,0,0,0,11.87,10.11q7.76,3.37,17.72.29T901.7,248.6Q913,238.35,924.4,218.13q0-5,.15-10.84a41.28,41.28,0,0,0-1-10.69,16.73,16.73,0,0,0-4.39-8.06Q915.9,185.32,909.46,185.32Z"/><path class="cls-1" d="M907.2,488.25q-4.77,0-9.4-.31a123.51,123.51,0,0,1-22.92-3.48c-6.68-1.78-11.67-3.8-15.25-6.18-1.94-1.29-4.54-3.36-4.74-6.37a5.58,5.58,0,0,1,2-4.59c1.56-1.38,4.72-3.08,15.36-3.94,7.38-.6,18.56-.21,33.26,1.16a65.44,65.44,0,0,0,27.66-5.68,61,61,0,0,0,20.65-15.52A72.56,72.56,0,0,0,967,420.7a77.5,77.5,0,0,0,4.62-26.49c0-4.73-.24-11.16-.73-19.12s-1.22-16.64-2.19-25.92-2.38-18.82-4.21-28.42a243.26,243.26,0,0,0-6.79-27.29,100.2,100.2,0,0,0-9.75-22.08,35.3,35.3,0,0,0-10.66-11.54c-4.47,3.38-8.93,6.54-13.28,9.42a91.53,91.53,0,0,1-15.84,8.38,106.8,106.8,0,0,1-17,5.3,86.69,86.69,0,0,1-18.93,2,89.54,89.54,0,0,1-22.42-2.46,37.88,37.88,0,0,1-16.43-8.73,37,37,0,0,1-9.89-16.14c-2.05-6.36-3.1-14.41-3.1-23.92a44.91,44.91,0,0,1,5.07-20.48A75.44,75.44,0,0,1,838.53,195a117.56,117.56,0,0,1,18.12-15.25,155.17,155.17,0,0,1,20.68-12A118.43,118.43,0,0,1,898.47,160a76.1,76.1,0,0,1,18.9-2.75c5.15,0,9.49.15,12.91.45a25.29,25.29,0,0,1,9.85,2.75,19.94,19.94,0,0,1,7.3,7.07,56.68,56.68,0,0,1,5.18,11.41l.05.16c4.44,15.07,9.65,31.59,15.49,49.1S979.63,264,984.9,282.51s9.78,37.51,13.4,56.4a295.1,295.1,0,0,1,5.48,55.3c0,16-2.3,29.8-6.85,41s-10.64,20.61-18.09,27.85a79.59,79.59,0,0,1-25.43,16.7,108.43,108.43,0,0,1-28.31,7.42A154.83,154.83,0,0,1,907.2,488.25ZM862.82,472c.19.15.42.31.69.49,2.89,1.92,7.32,3.69,13.17,5.24a116.46,116.46,0,0,0,21.6,3.26,142,142,0,0,0,26-.72,101.43,101.43,0,0,0,26.47-6.94A72.6,72.6,0,0,0,974,458.05c6.75-6.57,12.29-15.13,16.48-25.47s6.33-23.28,6.33-38.38a288.08,288.08,0,0,0-5.36-54c-3.59-18.69-8-37.46-13.26-55.81s-10.84-36.61-16.65-54S950.44,196.25,946,181.12a50.5,50.5,0,0,0-4.46-9.9,12.87,12.87,0,0,0-4.71-4.65,18.41,18.41,0,0,0-7.13-1.93c-3.21-.28-7.34-.43-12.29-.43a69.2,69.2,0,0,0-17.13,2.52,111.45,111.45,0,0,0-19.88,7.39,148.12,148.12,0,0,0-19.75,11.45,110.52,110.52,0,0,0-17,14.34,68.45,68.45,0,0,0-11.85,16.44,38,38,0,0,0-4.31,17.31c0,8.78.93,16.11,2.76,21.78a30.17,30.17,0,0,0,8,13.16,31,31,0,0,0,13.45,7.09,82.71,82.71,0,0,0,20.65,2.23,79.69,79.69,0,0,0,17.4-1.82,99.75,99.75,0,0,0,15.85-5,84.51,84.51,0,0,0,14.63-7.74c4.81-3.18,9.77-6.73,14.74-10.55l1.77-1.36,2,1c5.82,3,11,8.13,15.29,15.19a107.12,107.12,0,0,1,10.46,23.63,250.21,250.21,0,0,1,7,28.08c1.86,9.79,3.3,19.55,4.29,29s1.72,18.21,2.21,26.22c.5,8.22.74,14.61.74,19.55a84.47,84.47,0,0,1-5,28.88,79.54,79.54,0,0,1-14.4,24.82,67.93,67.93,0,0,1-23,17.3,72.44,72.44,0,0,1-30.78,6.33l-.33,0c-14.37-1.34-25.2-1.73-32.2-1.17C867.12,470.81,864.24,471.48,862.82,472Zm8.63-205.07a25.11,25.11,0,0,1-10.11-2,28.69,28.69,0,0,1-13.46-11.5c-3.1-5.09-4.46-11.25-4-18.29s3-14,7.79-20.82,11.7-13.06,20.94-18.85,21.34-10.29,36.13-13.49l.37-.08h.37c5.23,0,9.32,1.43,12.14,4.24a20.27,20.27,0,0,1,5.32,9.71,45,45,0,0,1,1.12,11.61c-.1,3.72-.15,7.33-.15,10.75v.92l-.45.8c-7.76,13.73-15.63,24.28-23.4,31.34s-15.45,11.89-22.56,14.08A34.09,34.09,0,0,1,871.45,266.89Zm38.38-78.07c-13.82,3-25.1,7.23-33.51,12.5s-14.79,11-18.9,16.9-6.21,11.6-6.56,17.26.67,10.38,3,14.22a21.55,21.55,0,0,0,10.27,8.72c4.42,1.92,9.42,2,15.3.16,6.12-1.89,12.82-6.12,19.92-12.58s14.32-16.11,21.56-28.81c0-3.21.06-6.57.15-10a38,38,0,0,0-.93-9.78,13.18,13.18,0,0,0-3.47-6.41C915.25,189.61,913,188.87,909.83,188.82Z"/><path class="cls-1" d="M1011.9,121.74a55.3,55.3,0,0,1,.73-8.06,36.75,36.75,0,0,1,2.64-9.23A25.2,25.2,0,0,1,1020.1,97a10,10,0,0,1,7.62-3.08,9.28,9.28,0,0,1,1.46.29,8.49,8.49,0,0,0,1.46.29,167.2,167.2,0,0,1,5.86,36,255.89,255.89,0,0,1-.59,34.72q-1.47,16.85-4.39,32.52t-4.83,28.86a235.41,235.41,0,0,0-2.34,23.73q-.44,10.55,3.08,17.87a111.18,111.18,0,0,1-.73-11.28,65.63,65.63,0,0,1,1.17-13.62,64.88,64.88,0,0,1,4.39-14.06,38.6,38.6,0,0,1,8.94-12.6,41.4,41.4,0,0,1,15.09-8.79q9.23-3.22,23-3.22,14.35,0,24.76,5a47.34,47.34,0,0,1,17.14,13.62,59.68,59.68,0,0,1,10.11,20.21,88.33,88.33,0,0,1,3.37,24.76q0,6.15-.15,13.92a55.59,55.59,0,0,1-2.05,14.36,24.2,24.2,0,0,1-6.74,11.13q-4.83,4.55-14.21,4.54,0-4.68.59-12.74t.73-17.14q.14-9.08-.59-18.46a52.76,52.76,0,0,0-4-16.85,32.91,32.91,0,0,0-8.94-12.3q-5.71-4.83-15.67-4.83-3.52,0-8.64.44a32.4,32.4,0,0,0-10.4,2.78,35.7,35.7,0,0,0-10.25,7.18,33.36,33.36,0,0,0-7.91,13.18q-2.93,8.35-3.37,21.09t3.08,31.2q-2.05,5.27-5.13,6.15a28.83,28.83,0,0,1-7.76.88,19.86,19.86,0,0,1-15.38-6.59q-6-6.59-9.23-17.72a124.06,124.06,0,0,1-4.25-25.78q-1-14.65-.73-30.62t1.61-32.52q1.32-16.55,2.64-31.35t2.64-27A189.77,189.77,0,0,0,1011.9,121.74Z"/><path class="cls-1" d="M1033.29,316.26a23.32,23.32,0,0,1-18-7.74c-4.35-4.77-7.72-11.2-10-19.11a128.13,128.13,0,0,1-4.38-26.51c-.69-9.8-.94-20.2-.74-30.92s.74-21.61,1.62-32.73,1.76-21.56,2.64-31.38,1.77-18.93,2.64-27a187.34,187.34,0,0,0,1.3-19.1,58.88,58.88,0,0,1,.77-8.58,40.41,40.41,0,0,1,2.89-10.1,28.78,28.78,0,0,1,5.51-8.49,13.44,13.44,0,0,1,10.15-4.16,9.68,9.68,0,0,1,2.3.39l.82.19h2.48l.71,2.58a171.53,171.53,0,0,1,6,36.79,260.76,260.76,0,0,1-.59,35.19c-1,11.3-2.48,22.35-4.44,32.86-1.78,9.5-3.28,18.4-4.49,26.52a42.83,42.83,0,0,1,8.31-10.8,45,45,0,0,1,16.34-9.55c6.5-2.27,14.63-3.42,24.15-3.42,10,0,18.88,1.79,26.27,5.32a51,51,0,0,1,18.39,14.63,63.44,63.44,0,0,1,10.71,21.39,92.27,92.27,0,0,1,3.51,25.74c0,4.06,0,8.63-.15,14a59.35,59.35,0,0,1-2.19,15.26,27.77,27.77,0,0,1-7.71,12.71c-3.87,3.64-9.46,5.49-16.6,5.49H1108v-3.5c0-3.25.2-7.62.6-13s.62-10.94.72-16.94-.1-12-.58-18.13a49.53,49.53,0,0,0-3.68-15.73,29.61,29.61,0,0,0-8-11c-3.14-2.66-7.65-4-13.41-4-2.24,0-5,.14-8.34.43a29.09,29.09,0,0,0-9.28,2.5,32.39,32.39,0,0,0-9.24,6.49,30.09,30.09,0,0,0-7,11.83c-1.83,5.2-2.9,11.95-3.17,20.06s.73,18.43,3,30.43l.19,1-.36.94c-1.78,4.57-4.28,7.35-7.43,8.25A31.88,31.88,0,0,1,1033.29,316.26Zm-5.76-218.85a6.47,6.47,0,0,0-4.89,2,21.85,21.85,0,0,0-4.16,6.45,33.41,33.41,0,0,0-2.39,8.36,52.25,52.25,0,0,0-.69,7.54,193.9,193.9,0,0,1-1.34,19.86c-.87,8-1.76,17.09-2.63,26.89s-1.76,20.34-2.63,31.31-1.41,21.85-1.6,32.3,0,20.71.72,30.31a121.24,121.24,0,0,0,4.12,25.05c2,6.87,4.83,12.37,8.45,16.34a16.37,16.37,0,0,0,12.79,5.45,25.56,25.56,0,0,0,6.8-.74c.3-.08,1.29-.56,2.46-3.17-2.24-12.06-3.23-22.47-2.94-30.94.3-8.82,1.5-16.26,3.57-22.13a36.94,36.94,0,0,1,8.78-14.54,39.33,39.33,0,0,1,11.27-7.86,36,36,0,0,1,11.53-3.07c3.5-.3,6.5-.45,8.94-.45,7.46,0,13.49,1.9,17.93,5.66a36.54,36.54,0,0,1,9.89,13.59,56.49,56.49,0,0,1,4.23,18c.49,6.36.69,12.68.6,18.79s-.35,12-.74,17.34c-.25,3.36-.42,6.3-.5,8.78a14.27,14.27,0,0,0,8.24-3.38,20.58,20.58,0,0,0,5.77-9.56,52.39,52.39,0,0,0,1.91-13.45c.1-5.3.15-9.83.15-13.85a85.25,85.25,0,0,0-3.23-23.78,56.49,56.49,0,0,0-9.51-19,44.09,44.09,0,0,0-15.89-12.62c-6.43-3.08-14.25-4.64-23.24-4.64-8.74,0-16.09,1-21.84,3a38.14,38.14,0,0,0-13.83,8,35.31,35.31,0,0,0-8.14,11.46,61.66,61.66,0,0,0-4.16,13.3,62.43,62.43,0,0,0-1.11,12.9,108.22,108.22,0,0,0,.71,10.92l2.7,21.38-9.33-19.42c-2.58-5.38-3.73-12-3.42-19.53a239.82,239.82,0,0,1,2.38-24.09c1.27-8.79,2.9-18.54,4.86-29,1.92-10.28,3.38-21.11,4.35-32.18a253.58,253.58,0,0,0,.58-34.24,163.67,163.67,0,0,0-5.19-33.23Zm.19,0h0Zm3-6.41h0Z"/><path class="cls-1" d="M1122.93,164.52a3.3,3.3,0,0,1,.29-1.46,4.89,4.89,0,0,1,.29-1.46,49.06,49.06,0,0,1,3.52-3.81q2.34-2.34,2.93-2.34h58.89a92.92,92.92,0,0,0-.88-10.25q-.88-7-1.61-15.53a149.88,149.88,0,0,1-.44-17.72,66.49,66.49,0,0,1,2.49-16.7,28.33,28.33,0,0,1,7-12.3q4.83-4.83,13.62-4.83,0,29.59,4.1,47.46t11,27.54q6.88,9.67,15.67,12.6a49.07,49.07,0,0,0,18,2.49,85.32,85.32,0,0,0,18-2.78,121.62,121.62,0,0,1,15.67-3.22q6.88-.88,11,1.32t4.1,10.4q0,6.15-2.78,8.79t-10.69,4.1l-7.76,1q-5.43.74-12.16,1.32t-14.36,1.32q-7.62.74-14.36,1.32t-12.3.73q-5.57.15-8.2.15c0,1-.1,2.64-.29,5s-.29,3.91-.29,4.69a77.71,77.71,0,0,0,4.1,25q4.1,12.16,8.94,24.17t8.94,24a76.61,76.61,0,0,1,4.1,24.9,27.75,27.75,0,0,1-.44,4.83,10.94,10.94,0,0,1-1.76,4.39,8.33,8.33,0,0,1-3.81,2.93q-2.49,1-6.88-.44a25.6,25.6,0,0,1-16.55-12.6,77.5,77.5,0,0,1-8.06-23,208.92,208.92,0,0,1-3.52-28.27q-.88-14.94-2.78-28a85.68,85.68,0,0,0-6-22.27q-4.11-9.23-13.18-11.28L1130,173.89q-1.17,0-3.52-2.49a18.69,18.69,0,0,1-2.93-3.66,3.28,3.28,0,0,1-.29-1.46A4.1,4.1,0,0,1,1122.93,164.52Z"/><path class="cls-1" d="M1241.12,316.54a17.85,17.85,0,0,1-5.51-1A29.07,29.07,0,0,1,1217,301.29a81.37,81.37,0,0,1-8.44-24,213.37,213.37,0,0,1-3.58-28.74c-.58-9.79-1.5-19.1-2.75-27.68a82.59,82.59,0,0,0-5.74-21.35c-2.28-5.13-5.8-8.16-10.76-9.29l-56.28-12.83c-1.71-.18-3.41-1.28-5.56-3.57a20.56,20.56,0,0,1-3.51-4.5,6.42,6.42,0,0,1-.63-2.31,8.45,8.45,0,0,1-.32-2.47,7.15,7.15,0,0,1,.34-2.26,9.46,9.46,0,0,1,.42-1.77l.2-.6.39-.49a51.87,51.87,0,0,1,3.78-4.1c2.28-2.28,3.67-3.37,5.4-3.37h55.21c-.14-1.73-.37-3.84-.68-6.32-.6-4.82-1.15-10.09-1.63-15.66a154.09,154.09,0,0,1-.45-18.13A70.24,70.24,0,0,1,1185,94.24,31.91,31.91,0,0,1,1193,80.45c3.89-3.89,9.3-5.86,16.1-5.86h3.5v3.5c0,19.39,1.35,35.1,4,46.68,2.62,11.41,6.12,20.25,10.43,26.29,4.13,5.8,8.81,9.6,13.93,11.31a45.72,45.72,0,0,0,16.75,2.31A82.22,82.22,0,0,0,1275,162a125.71,125.71,0,0,1,16.13-3.31c5.3-.68,9.7-.1,13.08,1.7,3.95,2.12,6,6.65,6,13.49,0,5.08-1.3,8.89-3.87,11.33-2.39,2.26-6.47,3.9-12.47,5l-.2,0-7.74,1c-3.66.5-7.8.95-12.32,1.34s-9.26.83-14.32,1.32-9.92.94-14.39,1.32-8.74.65-12.52.74l-5,.11c0,.54-.08,1.14-.14,1.8-.25,2.91-.28,4-.28,4.4a74.6,74.6,0,0,0,3.92,23.93c2.69,8,5.67,16,8.87,24s6.24,16.11,9,24.2a80.47,80.47,0,0,1,4.29,26,31.38,31.38,0,0,1-.49,5.44,14.45,14.45,0,0,1-2.33,5.78,11.79,11.79,0,0,1-5.35,4.17A9.63,9.63,0,0,1,1241.12,316.54Zm-110.57-146.1.19,0,56.54,12.89c7.15,1.62,12.41,6.08,15.6,13.27a89.53,89.53,0,0,1,6.27,23.18c1.28,8.78,2.23,18.29,2.81,28.28a206.38,206.38,0,0,0,3.46,27.8,74.44,74.44,0,0,0,7.67,22,22.05,22.05,0,0,0,14.39,10.93l.22.06c2.85.95,4.06.68,4.45.52a4.88,4.88,0,0,0,2.26-1.68,7.42,7.42,0,0,0,1.19-3,24.34,24.34,0,0,0,.39-4.23,73.49,73.49,0,0,0-3.91-23.77c-2.72-8-5.71-16-8.87-23.85-3.24-8.06-6.27-16.25-9-24.36a81.57,81.57,0,0,1-4.29-26.17c0-.91.1-2.54.31-5s.28-3.85.28-4.69v-3.5h3.5c1.8,0,4.6-.05,8.11-.15s7.71-.34,12.09-.72,9.26-.83,14.33-1.32,9.88-.93,14.39-1.32,8.45-.82,12-1.3l7.69-1c5.91-1.1,8.07-2.47,8.83-3.19,1.1-1,1.69-3.21,1.69-6.25,0-2.28-.29-6.26-2.25-7.32s-5.06-1.42-8.89-.93a118.82,118.82,0,0,0-15.22,3.13,89.25,89.25,0,0,1-18.75,2.9,52.75,52.75,0,0,1-19.29-2.67c-6.55-2.18-12.41-6.85-17.42-13.89-4.84-6.79-8.72-16.48-11.55-28.79-2.6-11.33-4-26.29-4.17-44.51a13.13,13.13,0,0,0-7.67,3.57,25,25,0,0,0-6.15,10.82,63.31,63.31,0,0,0-2.35,15.82,147.12,147.12,0,0,0,.43,17.31c.47,5.49,1,10.67,1.6,15.4a94.74,94.74,0,0,1,.91,10.69v3.5H1130.9c-.28.24-.73.65-1.4,1.32-1.17,1.17-2.11,2.16-2.79,3v.74l-.29.53v0a3.62,3.62,0,0,0,0,.38l.28.55v.86A19.65,19.65,0,0,0,1129,169,10.48,10.48,0,0,0,1130.55,170.44Zm.14.09Zm-4-4.13Zm-.29-2Zm4.88-5.79Z"/></svg>